<?xml version="1.0" encoding="utf-8"?>
<!-- Generator: Adobe Illustrator 22.1.0, SVG Export Plug-In . SVG Version: 6.00 Build 0)  -->
<svg version="1.1" id="Layer_1" xmlns="http://www.w3.org/2000/svg" xmlns:xlink="http://www.w3.org/1999/xlink" x="0px" y="0px"
	 viewBox="0 0 200 200" style="enable-background:new 0 0 200 200;" xml:space="preserve">
<style type="text/css">
	.st0{fill:#232529;}
	.st1{fill:#494E51;}
	.st2{fill:#ACADA6;}
	.st3{fill:#9FA19D;}
	.st4{fill:#2C3033;}
	.st5{fill:#5F6160;}
	.st6{fill:#713036;}
	.st7{fill:#8D8C8A;}
	.st8{fill:#646768;}
	.st9{fill:#A9AAA5;}
	.st10{fill:#414343;}
	.st11{fill:#A5A7A1;}
	.st12{fill:#BDBFBE;}
</style>
<g id="_x39_qfzN8.tif">
	<g>
		<path class="st0" d="M86.3,125.3c-0.2,0.1-0.3,0.2-0.5,0.3c-0.3-0.9-1-0.6-1.6-0.6c-1.1,0.1-2.2,0.3-3.3,0.2
			c-1.7-0.1-3.3-0.4-5-0.7c-2.1,0-2.4-0.2-2.8-1.5c-0.5,0.9-1.1,1.7-2,0.5c-0.1-0.2-0.5-0.1-0.8-0.2c0-0.6,0-1.1-0.8-1.1
			c-0.6,0-1.2,0-1.8-0.1c-1.9-0.2-3.8-0.4-5.8-0.5c-0.4,0-0.8,0.4-1.2,0.6c-0.2,0-0.3,0-0.5,0c-0.3-0.2-0.9-0.3-0.9-0.6
			c-0.3-1.2-0.5-2.4-0.7-3.7c0.3-0.2,0.7-0.4,0.9-0.4c1,0.1,0.5,1.6,1.8,1.2c-0.2-1.1-0.4-2.1-0.6-3.1c0-0.2,0-0.5,0-0.7
			c0.1-0.2,0.2-0.5,0.3-0.7c0.7-1.1,1.9-1.7,2-3.2c-0.9-0.6-1.8-0.4-2.7-0.4c-0.1-1.5,1.3-2.1,2-3c-0.1-0.5-0.2-0.9-0.2-1.3
			c2.4,0.2,4.6-0.5,6.6-1.7c2.7-1.5,5.3-3.3,7.8-5.1c2.4-1.7,4.8-2.8,7.8-2.5c1.7,0.2,3.3-0.4,4.6-1.5c1.1-0.9,1-1.5-0.3-2.1
			c-1.4-0.7-1.8-1.5-1.3-3c0.2-0.5,0.3-1,0.5-1.6c-0.4-0.3-0.7-0.6-1.2-1c0.4-0.2,0.6-0.4,0.9-0.5c3.2-1,6.3-2,9.5-2.9
			c2.2-0.7,4.4-1.3,6.7-1.9c0.5,0.8-0.5,0.5-0.6,0.9c-1.6,0.9-3.1,1.8-4.9,2.8c-0.1,0.9-0.3,2-0.5,3.3c0.6,0.1,0.8,0.1,1.1,0.1l0,0
			c-0.4,0.6-0.7,1.3-1.1,1.9c0.9-0.1,1.5-0.4,2.1-0.7c2.6-1.2,5.2-2.4,7.8-3.5c0.3-0.1,0.6-0.4,0.9-0.5c1.3-0.1,2.5-0.2,3.9-0.3
			c0.1,0.2,0.3,0.5,0.5,0.8c0.7-0.6,1.3-1.2,2-1.9c0.4,0.8,0.6,1.4,0.9,1.9c0.4-1.7,0-3.2-0.7-4.7c0-0.5,0-1,0.1-1.5
			c0-0.3,0-0.5-0.1-0.8c-0.1-0.1-0.3-0.3-0.4-0.4c0.1-0.2,0.3-0.5,0.4-0.7c0.6-0.1,1.1-0.1,1.7-0.3c1.6-0.4,3.3-0.8,4.9-1.2
			c0.1,0.3,0.2,0.6,0.4,0.8c0.2,0.4,0.4,0.7,0.5,1.1c0.7,1.1,1.9,1.1,3,1.5c-0.2-0.8-0.3-1.4-0.5-2c-0.1-0.3-0.4-0.4-0.7-0.7
			c0.6-0.1,1.1-0.2,1.7-0.3c0-0.2,0-0.4,0-0.7c1-0.5,1.9-1.1,3-1.4c1-0.3,1.9,0.1,2.8-0.2c1-0.4,1.9-0.8,2.9-1.1
			c0.3,0.5,0.6,1.1,0.9,1.6c0,0.8,0,1.5-0.1,2.3c-0.9,0.4-2,0.5-2.8,1.2c-0.6,0.5-1.1,0.9-2,1c-0.4,0-0.8,0.3-1.3,0.6
			c0.1,0.4,0.2,0.7,0.3,1c1,2.9,3.1,5,4.8,7.5c0.1,0.1,0.2,0.2,0.3,0.2c0.8,0.7,1.7,1.4,2.5,2.2c0.3,0.3,0.7,1,1,1
			c0.8-0.1,1-0.8,1.1-1.7c-0.5,0-0.9-0.1-1.3-0.1c0.6-0.8,1.2-1.7,1.7-2.5c0.3-0.1,0.7-0.2,0.9-0.4c1.5-1.4,3-2.7,5-3
			c0.3-0.1,0.6-0.4,0.9-0.6c0.1,0.2,0.2,0.4,0.3,0.7c-0.1,0.7,0,1.3,0.7,1.6c0,0,0,0,0,0c0.1,0.9,0.2,1.8,0.3,2.6
			c0.1,1.1,0.2,2.1-1.2,2.3c-2.2-0.8-4.4-0.8-6.4,0.4c-0.1,0.3-0.3,0.5-0.4,0.8c-0.2,0.8-0.3,1.5-0.5,2.4c1.5,0,2.7,0.1,3.8,0
			c1.3-0.2,2.6-0.4,3.4,1.1c0.1,0.1,0.4,0.2,0.6,0.2c0,0.2,0.1,0.5-0.1,0.7c-0.7,1-1.4,1.9-2.2,3c0.6,0.6,1.1,1,1.6,1.5
			c0.9,1,1.7,1.9,2.5,2.9c0,0.1,0.1,0.2,0.1,0.3l0.1,0l0.1,0c0.1,0.1,0.3,0.3,0.4,0.4c0.1,0.4,0.2,0.7,0.3,1.1
			c-1-0.8-2.1-1.6-3.1-2.3c0.1,0,0.3-0.1,0.4-0.1c-0.2-0.2-0.4-0.3-0.6-0.5l0,0c-0.1-0.1-0.3-0.3-0.4-0.4l0,0
			c-0.1-0.1-0.2-0.3-0.4-0.4l0,0c-0.2-0.1-0.5-0.2-0.7-0.4l0,0c-0.2-0.2-0.5-0.5-0.7-0.7l0,0c-0.6-1-1.4-1.5-2.5-1.5l0,0
			c-0.2-0.1-0.5-0.3-0.7-0.4l0,0c-0.9-1.2-2.2-1.4-3.6-1.5l0,0c-0.5-1.1-1.7-0.7-2.5-1.1l0,0c-0.2-0.1-0.5-0.3-0.7-0.4l0,0
			c-0.2-0.1-0.5-0.2-0.7-0.3c-0.6-0.4-1.2-0.7-1.8-1.1c-0.3-0.4-0.6-0.8-1-1.1c-1-0.7-2-1.4-3.1-2c-0.5-0.3-1.2-0.4-1.7-0.6
			c-0.8-0.6-1.8-1.1-2-2.4c-0.3,0.1-0.7,0.1-1.1,0.2c-0.4-0.5-0.8-1-1.2-1.5c-0.3,0.1-0.7,0.3-1.1,0.5c-0.2-1.8-1.2-3-2.3-4.1
			c-0.2-0.8-0.4-1.7-0.6-2.5c-1.2,0.4-1.2,0.4-0.8,1.6c0.2-0.1,0.4-0.2,0.8-0.4c-0.2,0.8-0.3,1.4-0.4,2c-0.1,0.7,0.2,1.2,1,1.1
			c1.2,0.7,1.3,0.9,1.4,2.1c-1,0.6-1.8,1.1-2.7,1.6c-0.9,0.5-1.8,0.8-2.9,1.2c-0.1-0.4-0.2-0.7-0.2-1.2c-0.4,0.4-0.8,0.7-1.2,1.1
			c-1.3,0.1-2.6,0.3-3.6,1.5l0,0c-0.6,0-1.3-0.3-1.4,0.7l0,0c-0.2,0.1-0.5,0.2-0.7,0.4c0,0,0,0,0,0c-0.2,0.1-0.5,0.3-0.7,0.4l0,0
			c-0.4,0-0.7,0-1.1,0c-0.2,0.2-0.5,0.4-0.7,0.6c-0.2,0.2-0.4,0.3-0.6,0.5c-0.6,0-1.3,0-1.5,0.8c0,0,0,0,0,0
			c-0.6,0.1-1.3,0.2-1.8,0.5c-1.3,0.6-2.6,1.4-3.9,2.1c-1.1-0.6-1.9,0.5-2.9,0.6c-0.5,0.1-1.2,0.5-1.5,0.3c-1.7-1-3,0.2-4.5,0.4
			c0.4,1.4,0.7,2.6,1,3.8c0.3,1.2,0.5,2.4,0.8,3.6c-1.5-0.1-2.3-1.4-3.3-2.4c-1.7-1.8-3.9-2.1-6.2-1.7c-2,0.3-2.7,1.7-3,3.5
			c-0.5,0.5-1.1,1-1.9,1.7c1.7,0.1,3,0.1,4.4,0.2c0.1,0.3,0.2,0.5,0.5,1.1c-1.1-0.2-2-0.4-2.8-0.4c-0.5,0-1.1,0.1-1.6,0.1
			c-0.7,0-1.4,0-2.1-0.1c-0.6,0.1-1.2,0.2-1.8,0.4c-0.8,0.2-1.9,0.2-2.5,0.7c-1.2,1-2.5,1.2-3.9,1.4c-0.2-0.1-0.5-0.3-0.7-0.4
			c-0.9,0.2-1.3,0.6-1.2,1.7c0.1,1.7-0.2,3.5-0.4,5.1c1.6,1.4,3.2,2.6,5.1,2.9c0.5-0.7,1-1.3,1.5-2c1.1,2,1.9,2,3.1,0.2
			c-0.7-0.9-1.3-1.9-2-2.8c0.1-0.1,0.2-0.2,0.3-0.3c0.5,0.3,1.1,0.6,1.5,1c0.6,0.6,1.1,1.3,1.8,1.8c1.7,1.4,3.3,3,5.7,3.1
			c0.1,0.3,0.3,0.6,0.4,1c0.1-0.1,0.3-0.2,0.4-0.3c0.1-0.4,0.3-0.9,0.5-1.3c0.8,0.1,1.6,0.2,2.7,0.3c-0.2-0.8-0.3-1.3-0.4-1.8
			c-0.1-0.4-0.2-0.8-0.2-0.9c-0.8-0.4-1.4-0.6-2-0.9c0-0.1,0-0.3,0-0.4c0.7,0.1,1.4,0.2,2.1,0.4c0.2-0.1,0.5-0.3,0.7-0.4
			c0.4,0.3,0.7,0.5,1.1,0.8c0,0.2-0.1,0.4-0.1,0.6c0.1-0.2,0.3-0.4,0.4-0.6c0.5-0.3,1-0.6,1.4-1c1-1.1,1-1.6-0.4-2.1
			c-3.1-1.3-6.2-2.5-9.3-3.8c-0.3-0.5-0.6-1.1-1-1.7c0.1-0.1,0.2-0.2,0.3-0.4c1.2,1.7,3.1,1.5,4.7,2c0.6,0.2,1.3,0.3,1.8,0.7
			c2.6,1.8,5.3,3.4,8.3,4.3c-0.3,1.5-0.6,2.8-1,4.2l0,0c-0.1,0.1-0.2,0.2-0.3,0.4c0,0.2,0,0.5,0,0.7l0,0c-2,0.1-2.5,2.7-4.5,2.8
			C86.4,124.8,86.4,125.1,86.3,125.3z M60.4,121.1c0,0,0,0.1-0.1,0.1c0.1,0,0.1,0,0.2,0c0-0.1,0-0.1,0-0.1
			C60.5,121.1,60.5,121.1,60.4,121.1z"/>
		<path class="st0" d="M113.1,54.1c0.2,0.3,0.5,0.5,0.7,0.8c0,0.6,0.1,1.2,0.1,1.7c2.7,0.2,5.7,3.2,5.7,5.2c-1,0.6-1.9,1.1-2.7,1.7
			c-0.6,0.3-1.1,0.7-1.7,1c-0.7,0.3-1.4,0.5-2.1,0.8c0.1-0.9,0.2-1.8,0.3-2.9c-0.4-0.1-0.9-0.3-1.4-0.5c0.2-1.2-0.3-2.1-1.2-2.9
			c0.1-0.7,0.3-1.3,0.4-2c-0.1,0-0.3-0.1-0.4-0.1c-0.2,0.7-0.4,1.4-0.6,2.1c-0.7,0.9,0.4,0.9,0.5,1.2c-0.1,1.1-0.1,2-0.2,2.8
			c-0.5,1.7-1,3.3-1.6,5.1c1.6-0.6,1.5-2.3,2.2-3.2c0.7,0.2,1.3,0.3,1.9,0.4c0.2,1.3-0.3,2.5-0.7,3.6c-0.1,0.2-0.3,0.3-0.4,0.5
			c-1.4-0.3-2,0.6-2.4,1.8l0,0c-0.4-0.4-0.8-0.8-1.2-1.3c-0.5,0.8-1,1.6-1.6,2.5c-0.8-0.2-1.7-0.7-1.8,0.7c-0.1,0.1-0.2,0.2-0.4,0.4
			c-0.8,0.1-1.7,0.3-2.5,0.4c-1.6-1.3-3.3-1.1-4.9-0.2c-0.7,0.3-1.5,0.6-2.2,0.9c-0.5,0.2-0.9,0.5-1.4,0.7c-1.3,0.6-2.6,1.3-3.9,1.9
			c0-0.1,0-0.3,0-0.4c0.1-1.7-1.1-1.4-2.1-1.5c-0.3-0.2-0.7-0.5-1.2-0.9c0.6-0.2,0.9-0.3,1.4-0.4c-0.5-0.4-0.9-0.7-1.4-1.1
			c0.5-0.3,0.9-0.4,1.2-0.6c0.6-0.1,1.3,0.3,1.5-0.7c0.8-0.1,1.6-0.3,2.5-0.4c1.3-0.1,2.6-0.3,3.9-0.4c0.2,0.1,0.4,0.4,0.6,0.3
			c0.9-0.4,1.5-0.1,2.4,0.3c1.4,0.6,3,1,4.5,0.5c0.1,0.2,0.3,0.4,0.4,0.6c0,0,0.1-0.1,0.1-0.1c-0.2-0.2-0.4-0.3-0.6-0.5
			c-0.8-1.2-1.6-2.3-3.2-2.5c-0.5-0.1-1.1-0.4-1.6-0.7c-0.6-0.3-1.2-1-2-0.4c-0.8-0.3-1.5-0.5-2.2-0.9c-0.3-0.2-0.5-0.6-0.5-1
			c0-0.5,0.1-1.1,0.2-1.6c-0.3-0.3-0.6-0.7-0.9-1.1c0.8-0.1,1.4-0.2,2.1-0.3c1.5,0.6,2.1-0.9,2.9-1.4c0.9,0.5,1.6,1,2.3,1.4
			c-0.2,0.4-0.4,0.9-0.6,1.3c0.5,0.6,1,1.1,1.4,1.6c-0.2,0.2-0.4,0.3-0.6,0.5c0,0,0.1,0.1,0.1,0.1c0.1-0.2,0.3-0.4,0.4-0.6
			c1.7-0.8,1.8-1,1.7-3c-1.7-0.7-1.8-1.9-0.3-3.3c-0.1-0.6-0.2-1.3-0.2-1.7c2-1.6,3.4-1,4.5,0.9c0,0,0.1,0.1,0.1,0.1
			c0,0.1,0,0.2,0,0.4c-1.1-0.2-1.6,0.3-1.4,1.5c-0.4,0.6-0.9,1.3-1.3,1.9c-0.3,0.4-0.9,3-0.8,3.6c0.1,0.5,0.1,0.9,0.2,1.7
			c1-0.6,1.8-1,2.7-1.5c0.2,0.1,0.5,0.3,1,0.5c0.1-0.8,0.3-1.5,0.4-2.2c0.2-0.2,0.6-0.4,0.6-0.6c0.1-1.1,0-2.2,0.1-3.4
			c0-0.1,0-0.3,0-0.4c0.9-0.6,1.5-1.3,1.7-2.1c-1-2.6-3.4-3.3-5.1-4.4c0.3-1.2,0.6-2.3,0.9-3.4c1.4-1.1,2-3.1,3.9-3.3
			c0.6,0.1,1.1,0.2,1.7,0.3c0.1-0.2,0.1-0.3,0.2-0.5c-0.5-0.5-1-1-1.7-1.8c0.6-0.2,1-0.4,1.3-0.6c0.5-0.2,1-0.3,1.5-0.4
			c0-0.1,0-0.2,0-0.3c-0.8-0.1-1.6-0.2-2.4-0.3c-0.6-0.8-1.3-1.6-2-2.6c0.2-0.6,0.4-1.3,0.6-2.1c0.3,0.2,0.7,0.4,1.1,0.6
			c0-0.4,0-0.7,0.1-1c1.2-0.1,2.5-0.2,4-0.3c-0.7-0.7-1.3-1.2-1.9-1.7c0.2-0.3,0.5-0.5,0.7-0.8c0.7-0.2,1.4-0.3,2.1-0.5
			c0-0.9-0.1-1.7-0.1-2.6c0.6,0.1,1.1,0.2,1.5,0.3c0.1,0.1,0.1,0.2,0.3,0.2c0.2,0,0.3-0.1,0.5-0.1c0.2,0.3,0.7,0.7,0.6,0.9
			c-0.4,1.3,0.4,1.5,1.3,1.7c0,0.6,0.1,1.2,0.1,1.8c-0.8,0.2-1-0.4-1.3-1c-0.3-0.7-0.7-1.3-1.6-1.1c-0.5,0.8-0.7,1.5,0,2.3
			c0.8,0.9,1.4,1.8,2.1,2.8c0,0.6,0.1,1.2,0.1,1.8c-0.4,0.4-1.6,3.1-1.7,4c0,0,0,0,0,0c-0.5,0.2-1,0.5-1.4,0.7
			c-0.4-0.4-0.8-0.9-1.2-1.3c-0.5,0.9-1.1,1.7-1.8,2.9c0.9-0.2,1.5-0.3,2.3-0.4c0,0.7,0,1.3,0,1.8c0,0,0,0,0,0
			c-0.5,0.2-1,0.5-1.8,0.8c-0.8,1.8-2.1,3.8,0.2,6.1C112.7,56.1,112.9,55.1,113.1,54.1z M105.6,69c-0.1,0-0.2-0.1-0.3-0.1
			c-0.1,0.2-0.3,0.3-0.4,0.5c-0.1,0.3,0,0.6,0,0.9c0.1,0,0.2,0,0.3,0.1C105.3,69.9,105.4,69.5,105.6,69z M105.7,68.2
			c0,0,0.1,0,0.1-0.1c0,0,0-0.1,0-0.2c-0.1,0-0.1,0.1-0.2,0.1C105.7,68.1,105.7,68.1,105.7,68.2z M111.5,66.2c0,0-0.1-0.1-0.1-0.1
			c0,0-0.1,0.1-0.1,0.1c0,0.1,0.1,0.1,0.1,0.2C111.5,66.3,111.5,66.2,111.5,66.2z M111.8,58.3c0,0,0.1,0,0.1-0.1c0,0,0-0.1,0-0.2
			c-0.1,0-0.1,0.1-0.2,0.1C111.7,58.2,111.7,58.2,111.8,58.3z"/>
		<path class="st1" d="M82,118.3c0.6,0.3,1.2,0.5,2,0.9c0,0.2,0.1,0.5,0.2,0.9c-1.3,1.9-2.5-0.2-4-0.3c0.9,0.8,0.9,1.6,0.4,2.4
			c-2.4-0.1-4-1.6-5.7-3.1c-0.6-0.5-1.1-1.2-1.8-1.8c-0.5-0.4-1-0.7-1.5-1c-0.1,0.1-0.2,0.2-0.3,0.3c0.7,0.9,1.3,1.9,2,2.8
			c-1.2,1.8-2,1.8-3.1-0.2c-0.5,0.7-1,1.3-1.5,2c-2-0.2-3.6-1.5-5.1-2.9c0.2-1.7,0.5-3.4,0.4-5.1c-0.1-1.2,0.3-1.6,1.2-1.7
			c-0.8,2.7,0,5.2,0.9,7.6c0.2,0,0.3-0.1,0.5-0.1c-0.3-1.3-0.6-2.6-0.9-3.9c0.3-0.4,0.6-0.9,1.1-1.5c0.4,0.1,0.9,0.3,1.4,0.4
			c1.2,0.2,2.6,0.8,3.6,0.4c0.9-0.3,1.5-0.3,2.3-0.1c0.6,0.1,1.3,0.3,1.9,0.3c1,0.1,1.8-0.8,1.2-1.5c-0.9-1.2-0.8-2.5-0.9-3.8
			c0.5-0.1,1.1-0.2,1.6-0.1c0.8,0.1,1.7,0.3,2.8,0.4c-0.2-0.6-0.4-0.8-0.5-1.1c-0.1-1.6-1.5-1.5-2.5-1.9c0.3-1.8,1-3.2,3-3.5
			c2.3-0.4,4.5-0.1,6.2,1.7c1,1,1.8,2.3,3.3,2.4c-0.3-1.2-0.5-2.4-0.8-3.6c-0.3-1.2-0.7-2.4-1-3.8c1.5-0.2,2.8-1.4,4.5-0.4
			c0.3,0.2,1-0.2,1.5-0.3c1-0.1,1.8-1.2,2.9-0.6c-0.2,0.4-0.5,0.8-0.7,1.1l0,0c-0.6,0.3-1.3,0.5-1.9,0.8c-0.5,0.2-1,0.3-1.6,0.6
			c0,1.9,0,3.9,0,5.9c0.1,3.4,0.3,6.8,0.2,10.2c0,1-0.7,2-1,3c-0.3,0.1-0.7,0.2-1,0.4c0.3-1.3,0.6-2.7,1-4.2c-3-0.9-5.7-2.4-8.3-4.3
			c-0.5-0.4-1.2-0.5-1.8-0.7c-1.7-0.4-3.5-0.3-4.7-2c-0.1,0.1-0.2,0.2-0.3,0.4c0.3,0.6,0.7,1.2,1,1.7c3.1,1.2,6.2,2.5,9.3,3.8
			c1.3,0.6,1.4,1.1,0.4,2.1c-0.4,0.4-1,0.6-1.4,1c-0.1,0-0.2,0-0.3,0c-0.4-0.3-0.7-0.5-1.1-0.8c-0.2-0.2-0.3-0.4-0.5-0.5
			c-0.1,0.3-0.2,0.6-0.3,0.9c-0.7-0.1-1.4-0.2-2.1-0.4c-0.6-1.6-2.3-1.3-3.3-2.1c-0.1,0.1-0.2,0.2-0.3,0.3c0.4,0.7,0.9,1.5,1.1,1.9
			C80.6,118.1,81.3,118.2,82,118.3z"/>
		<path class="st2" d="M115.1,64.3c0.6-0.3,1.1-0.7,1.7-1c0.8,0.1,1.7,0,2.4,0.3c0.7,0.3,1.2,0.9,2.3,1.8c-0.1-1.5-0.2-2.6-0.3-3.7
			c1.1,1.3,0.9,2.8,0.5,4.3c-0.6,2.2-0.4,2.7,1.5,3.9c0.5,0.3,0.9,0.8,1.2,1.3c0.3,0.4,0.5,1,0.9,1.7c1-0.4,2-0.8,3-1.2
			c0.3,0,0.5,0,0.8,0c1.1,0.9,2.2,1.2,3.6,0.6c1-0.4,0.7-1.3,0.7-2.1l0,0c0.5,0,0.9,0.1,1.4,0.1c0.2,0,0.5-0.1,0.7-0.1
			c1.1-0.3,2.1-0.7,3.2-1c0.1,0.8,0.2,1.6,0.3,2.4c-1.5,0.3-3.1,0.2-3.5,2.2c-0.2,0.3-0.3,0.6-0.5,0.9c-1,0.4-1.9,0.8-2.9,1.1
			c-0.9,0.3-1.8,0-2.8,0.2c-1.1,0.3-2,0.9-3,1.4c-0.6-0.2-1.2-0.3-1.8-0.5c-0.1,0-0.2,0-0.3,0c-0.2,0-0.5,0-0.7,0.1
			c0-0.8,0.6-0.7,1.1-0.8c0.8-0.1,1.6-0.1,2.1-1c-0.7-0.5-1.4-0.9-1.8-1.2c-1,0.3-1.7,0.6-2.6,0.9c0,0.1,0,0.3,0.1,0.5
			c-0.6,0-1.1,0-1.7,0c-0.1,0.3-0.2,0.6-0.4,1.2c-0.3-0.6-0.4-0.9-0.6-1.3c-0.1,0.3-0.3,0.5-0.3,0.5c-0.5,0-1-0.1-1.3,0
			c-0.3,0.1-0.5,0.5-0.8,0.7c-0.4-0.1-0.7-0.3-1.1-0.4c0,0.1-0.1,0.2-0.1,0.3c0.4,0,0.8,0,1.2,0.1c-0.3,0.3-0.7,0.5-1,0.8
			c-0.5,0.5-1.6,0.6-1.2,1.7c-0.1,0.2-0.3,0.5-0.4,0.7l-0.1,0.1c-0.3-0.1-0.6-0.4-0.9-0.4c-0.8,0.1-1.6,0.3-2.4,0.5
			c-0.5-0.5-1.3-0.5-1.5-1.2c0-1.8,0-1.8,1.7-2.3c0.2-0.1,0.3-0.2,0.5-0.2c0.1,0.4,0.1,0.7,0.2,1.1c0,0,0.1,0,0.1,0c0-0.5,0-1,0-1.6
			c0.2,0,0.5,0,0.7,0c0.4,0.6,0.7,0.5,0.9-0.2c0.1,0,0.3,0,0.4,0c0.7-0.2,1.3-0.4,2.2-0.6c-1-0.7-1.7-1.1-2.5-1.6
			c-0.1,0.4-0.1,0.6-0.1,0.9c-0.8-0.6-0.9-1.6-1-2.5c-0.1-0.8-0.2-1.6-0.4-2.3c0.3,0,0.6,0.1,1,0.1c0.3-0.8,0.6-1.7,0.9-2.6
			C114.5,66.1,114.8,65.2,115.1,64.3z M114.1,70.7c0.8,0.6,1.2,1,1.7,1.4c0.7,0.4,1.6,0.6,2.1,1.2c1,1.3,2.1,0.8,3.3,0.4
			c-0.4-0.6-1.2-0.5-0.9-1.5c0.1-0.3-0.5-1.1-1-1.5C117.8,69.5,116.2,69.7,114.1,70.7z M115.7,66.6c0.3,0.5,0.6,0.9,0.9,1.4
			c1.6-0.3,1.9-0.9,1.1-3.2C116.5,64.7,116.3,65.9,115.7,66.6z M114.7,76.8c-0.1,0-0.1-0.1-0.2-0.1c0,0-0.1,0.1-0.1,0.1
			c0,0.1,0.1,0.1,0.1,0.2C114.5,77,114.6,76.9,114.7,76.8z"/>
		<path class="st3" d="M155.7,69.5c0,0.3,0,0.7,0,1c0,0.1,0,0.3,0,0.4c-0.6,0.1-1.1,0.3-1.7,0.3c-0.5,0.1-1.1,0-1.6,0.2
			c-2.2,0.8-4.3,1.6-6.4,2.5c-1.2,0.5-2.3,0.9-3.4-0.1c-0.4-0.3-1.1-0.5-1.1-0.9c-0.3-1.4-0.8-2.8,0.1-4.1c0.3,0,0.7-0.1,1-0.1
			c0.1,0.9,0.2,1.9,0.3,2.5c1.4-0.4,2.7-0.8,4-1.3c-0.5-0.7-0.5-0.7-2.6-0.4c-0.7-0.3-1.1-0.6-1.6-0.8c0.7-1.6,1.4-2.1,3-2.1
			c0.4,0,0.9,0,1.1-0.3c1.4-1.2,1.7-1.2,3-0.1c0.2,0.1,0.4,0.2,0.6,0.3c1.1-1.4,1.3-1.4,2.3,0c1.1-0.3,2.1-0.6,3.1-0.9
			c0.6,1.2,2.6,0.5,2.9,2c-0.8,0.2-1.6,0.4-2.4,0.6C155.8,68.5,155.2,68.6,155.7,69.5z M149.7,71.5c-0.6-1.5-0.6-1.5-2.4-1
			c0.3,0.5,0.6,1,0.9,1.5C148.7,71.9,149.1,71.7,149.7,71.5z"/>
		<path class="st4" d="M168.6,97.7c-0.3,1.9-1.6,3-3.2,4c0.4,0.5,0.7,0.8,0.9,1c-0.1,0.2-0.1,0.3-0.1,0.4c-1,0.6-1.7,1.4-2,2.6
			c-0.1,0.3-0.3,0.7-0.6,0.9c-1.2,1-1.8,2.5-2.5,3.8c-0.6,1.2-1.4,2.1-2.9,2c0-0.1,0-0.3,0-0.4c1.6-2.8,3-5.6,4.7-8.2
			c1.6-2.4,2.6-5.1,3.4-7.9c1.4-3.4,2.7-6.8,4.1-10.2c0.7-1.1,1.3-2.2,2.6-2.8c0.1,0,0.1-0.3,0.1-0.5c1-0.1,1,0.9,1.1,1.4
			c0,1,0.3,2-0.4,3.1c-0.4,0.5-0.2,1.5-0.2,2.2c0,0.8,0,1.5-1.1,1.4c-0.1,0.2-0.2,0.5-0.3,0.7c0,0,0,0,0,0c-0.7,1.4-1.4,2.7-2.1,4.1
			l0,0c-0.1,0.2-0.2,0.5-0.4,0.7c0,0,0,0,0,0c-0.2,0.5-0.5,1-0.7,1.5l0,0C168.8,97.5,168.7,97.6,168.6,97.7z M172.7,89.3
			c-0.1-0.1-0.1-0.2-0.2-0.3c-0.1,0-0.2,0.1-0.3,0.1c0.1,0.1,0.1,0.2,0.2,0.4C172.6,89.4,172.7,89.4,172.7,89.3z M161,109.4
			c-0.1,0-0.2-0.1-0.3-0.1c-0.1,0.1-0.1,0.2-0.2,0.3c0.1,0,0.2,0.1,0.3,0.1C161,109.7,161,109.5,161,109.4z"/>
		<path class="st5" d="M137.5,92.3c-0.8-0.7-1.7-1.4-2.5-2.2c-0.1-0.1-0.2-0.2-0.3-0.2c-1.6-2.5-3.8-4.6-4.8-7.5
			c-0.1-0.3-0.2-0.6-0.3-1c0.5-0.2,0.9-0.5,1.3-0.6c0.8-0.1,1.3-0.5,2-1c0.7-0.6,1.8-0.8,2.8-1.2c0.2,0.3,0.3,0.7,0.6,0.9
			c1.8,1.3,3.7,2.5,5.6,3.8c0,0.4,0,0.8,0,1.1c-0.1,0.1-0.2,0.1-0.3,0.1c-0.1,0-0.3,0-0.4,0c-0.1-0.2-0.2-0.5-0.4-0.7
			c-0.5,0.2-0.9,0.3-1.8,0.7c0.6,0.4,0.8,0.6,1.1,0.8c-0.3,0.1-0.5,0.2-0.8,0.4c-0.2-0.3-0.5-0.5-0.6-0.8c-0.5-1.8-0.6-1.9-2.2-1.3
			c-0.5,0.2-0.9,0.4-1.6,0.7c0.2,0.5,0.3,1.1,0.6,1.3c1,0.4,2.1,0.7,3.1,1c-0.2,0.4-0.5,0.9-0.7,1.3c0.1,0.1,0.1,0.3,0.2,0.4
			c0.6-0.1,1.3-0.1,1.9-0.2c0,0.3,0,0.7,0,1c-0.6,0.8-1.2,1.7-1.7,2.5C138.1,91.7,137.8,92,137.5,92.3z"/>
		<path class="st1" d="M60.7,115.7c0.2,1,0.4,2.1,0.6,3.1c-1.2,0.4-0.8-1.1-1.8-1.2c-0.2,0.1-0.6,0.3-0.9,0.4
			c0.2,1.3,0.4,2.5,0.7,3.7c0.1,0.3,0.6,0.4,0.9,0.6c0.2,1.1,0.5,2.2,0.7,3.3c-0.2,0.2-0.6,0.5-0.5,0.6c0.2,0.6,0.6,1.2,0.8,1.8
			c0.2,0.5,0.9,1.1-0.1,1.6c-1.6-3.4-3-6.9-3.5-10.7c-1.5-1-3.8-0.7-4.8,0.7c-0.5,0.6-0.7,1.4-1.1,2.1c-0.2-0.2-0.4-0.4-0.6-0.6
			c-0.1,1,1,2.5-0.9,3c0.1-0.8,0.5-1.6,0.3-2.3c-0.3-1,0.1-1.7,0.5-2.5c0.8-0.6,1.9-0.9,1.6-2.3c-0.5-0.3-1-0.5-1.4-0.7
			c-0.4,0.2-0.7,0.3-1.1,0.5c-0.4-0.3-1-0.5-1-0.8c0.1-1.1-0.8-1.4-1.5-1.8c0-0.8,0.1-1.5,0.1-2.2c0.2,0,0.4,0,0.7,0
			c-0.1,0.4-0.1,0.8-0.2,1.2c0.6,0.7,1.2,0.9,2,0.3c0.2,0,0.4,0.1,0.7,0.1l0.1,0.1c0.1,0.1,0.4,0.2,0.4,0.3c0.1,1.3,0.1,1.3,1.2,1.1
			c0.6,0.4,0.6,1.5,1.7,1.3c0.8-0.2,1.7-0.5,2.5-0.7c0.3,0,0.7,0,1,0c0.2,0.5,0.4,1.1,0.6,1.6C59.2,116.9,59.4,115.4,60.7,115.7z
			 M59.3,123.9c0.1,0.1,0.2,0.1,0.4,0.2c0,0,0.2-0.2,0.1-0.3c-0.1-0.1-0.2-0.2-0.3-0.3C59.4,123.6,59.4,123.7,59.3,123.9z"/>
		<path class="st1" d="M118.5,36.1c-0.9-0.2-1.7-0.4-1.3-1.7c0.1-0.2-0.4-0.6-0.6-0.9c0-0.1,0-0.2,0-0.3c0.3-0.1,0.7-0.2,1.2-0.3
			c-0.5-0.9-1-1.5-1.4-2.2c0-0.1,0-0.2,0-0.3c0.1,0,0.2,0,0.4-0.1c1.2,0.2,2.4,0.4,3.8,0.6c-0.1-0.7,0-1.5-0.3-2.1
			c-0.4-0.9-1.1-1.6-1.7-2.4c-1.6,0.8-2,0.6-2.6-1.3c0.4-0.9,1,0,1.3,0.1c1.2,0.2,2.4,0.7,3.1,2c0.6,1.1,1.3,2.1,2,3.2
			c-0.9,0.8-0.9,0.8,0.4,1.8c-0.3,1.8,0.9,3.7,0,5.6c-0.3,0.6-0.7,1.2-1.1,1.7c-0.1-0.6-0.2-1.2-0.4-1.7c-0.2-0.6-0.5-1.1-0.7-1.7
			c-0.2-0.8-0.5-0.9-1-0.2C119.3,36,118.8,36,118.5,36.1z M118.6,31.4c0-0.1-0.1-0.2-0.1-0.3c-0.1,0-0.2,0-0.3,0.1
			c0.1,0.1,0.1,0.3,0.2,0.4C118.4,31.5,118.5,31.5,118.6,31.4z"/>
		<path class="st1" d="M150.4,106.9c-0.1-0.4-0.2-0.7-0.3-1.1c-0.1-0.1-0.3-0.3-0.4-0.4c0,0-0.1,0-0.1,0l-0.1,0
			c0-0.1-0.1-0.2-0.1-0.3c-0.8-1-1.6-2-2.5-2.9c-0.5-0.5-1-1-1.6-1.5c0.8-1.1,1.5-2,2.2-3c0.1-0.2,0-0.5,0.1-0.7
			c1-1,2.2-1.7,3.5-1.9c0.1,1.2,0,2.5,0.9,3.5c0.3,0.3,0.2,0.9,0.2,1.4c-0.6,0.3-1.2,0.6-1.4,0.7c0,1,0,1.6,0,2.2
			c0,0.9,0.1,1.7,1.3,1.5c0,0.1,0,0.3,0.1,0.4c-0.3,0.1-0.7,0.2-1.1,0.4c0,0.9,0,1.7,0,2.5C150.9,107.3,150.7,107.1,150.4,106.9z"/>
		<path class="st0" d="M115.9,25.1c0.7,1.9,1,2.1,2.6,1.3c0.6,0.8,1.3,1.5,1.7,2.4c0.3,0.6,0.2,1.4,0.3,2.1
			c-1.4-0.2-2.6-0.4-3.8-0.6c-0.2-0.1-0.4-0.2-0.5-0.3c-2-0.7-4-1.1-6,0.1c-0.5-0.3-1-0.6-1.3-0.8c0.4-0.8,0.6-1.3,0.9-1.9
			c0.4-0.3,0.7-0.6,1.2-1c0-0.2,0-0.6,0.1-1c0.1,0,0.2,0,0.3-0.1c0.1,0.3,0.3,0.6,0.4,1c1-0.8,1.9-1,3,0.1c0-0.7,0-1.3,0-1.8
			C115.2,24.6,115.5,24.9,115.9,25.1z"/>
		<path class="st3" d="M154.5,92.5c1.2,0.4,2.2,0,3.2-0.6c0.9-0.6,1.8-1.1,2.7-1.6c0.1,0.4,0.2,0.9,0.2,1.2c-0.5,0.6-0.9,1-1.3,1.5
			c-0.7,0-1.4,0.1-2,0.1c-0.8,2-1.5,3.7-0.6,5.8c0.7,0,1.5,0,2.2,0c0.1,1.2,1.3,0.3,1.8,1.1c0,0.2-0.1,0.6-0.1,0.9
			c-0.1,0-0.2,0.1-0.2,0.2c-0.6-0.1-1.2-0.1-1.9-0.2c-1.2,0.9-2.1,1.1-4,0.6c-0.1-1.4-0.2-2.7-0.3-4c-0.7-0.5-1.9-0.2-1.7-1.5
			c0.6-0.4,1.1-0.7,1.7-1.1C154.4,94,153.4,93.2,154.5,92.5z"/>
		<path class="st6" d="M48.5,112c-0.2,0-0.4,0-0.7,0c0-0.6-0.1-1.2-0.1-1.8c0-0.5,0-1,0-1.4c-0.2-0.4-0.4-0.9-0.6-1.3
			c0.2-0.4,0.4-0.8,0.6-1.3c0.2-0.2,0.4-0.3,0.9-0.7c-0.6,0-0.9,0-1.2,0c0.3-0.4,0.6-0.9,1-1.3c0.2-0.1,0.3-0.1,0.5-0.2
			c0.1,0,0.2,0,0.4,0c1.8,1,3.6,2,5.3,3c0.1,0.4,0.1,0.7,0.2,1.1c-0.2,0.1-0.4,0.2-0.6,0.3c-0.1,0-0.2,0.1-0.3,0.1
			c-0.8,0.1-1.6,0.2-2.4,0.4c-0.1-0.8-0.1-1.6-0.2-2.6c-0.4,0.4-0.9,0.7-0.9,0.8c0.4,2.1-0.7,3.5-1.9,5
			C48.5,111.9,48.5,111.9,48.5,112z"/>
		<path class="st4" d="M56,157.8c-1,1-2.1,2-3.1,3c-0.4,0.1-0.7,0.3-1.1,0.4c-1,0.1-1-0.6-1-1.3c0.2-0.2,0.4-0.4,0.6-0.5
			c0.4-0.2,0.8-0.5,1.2-0.8l0,0c0.1-0.1,0.3-0.2,0.4-0.4l0,0c0.1-0.1,0.3-0.2,0.4-0.4c0.1-0.1,0.1-0.1,0.2-0.2
			c-0.1,0.1-0.1,0.1-0.2,0.2c-0.1,0-0.2,0-0.3,0l-0.1-0.1c0.2-1.6,0.2-1.6,2.1-2c-0.3-1.6,1.1-1.9,1.9-2.7c0.2-0.1,0.5-0.3,0.7-0.4
			c0,0,0,0,0,0c0.5-0.1,1-0.1,1.5-0.2c-0.4,0.9-0.7,1.8-1.1,2.8c-0.7,0-0.7,0.6-0.7,1.1C56.5,156.7,55.9,157,56,157.8z"/>
		<path class="st6" d="M151.1,107.6c0-0.8,0-1.7,0-2.5c0.4-0.1,0.7-0.3,1.1-0.4c2.6,0.1,2.8,0.4,3.2,2.9c0.1,0.4,0.5,0.8,0.8,1.2
			c-0.1,0.4-0.3,0.7-0.4,1.1c-0.3,0.2-0.5,0.5-0.8,0.7c-0.8,0-1.4-0.2-1.9-1C152.6,108.8,151.8,108.2,151.1,107.6z"/>
		<path class="st5" d="M121.2,61.8c0.1,1.1,0.2,2.2,0.3,3.7c-1-0.8-1.6-1.5-2.3-1.8c-0.7-0.3-1.6-0.2-2.4-0.3
			c0.9-0.5,1.7-1.1,2.7-1.7c-0.1-1.9-3.1-4.9-5.7-5.2c0-0.5-0.1-1.1-0.1-1.7c2.3,0.7,4,2.1,5.6,3.9c0.6,0.7,1,1.5,1.5,2.3
			C121,61.2,121.1,61.5,121.2,61.8L121.2,61.8z"/>
		<path class="st1" d="M141.6,68.8c-0.9,1.3-0.4,2.8-0.1,4.1c0.1,0.4,0.7,0.6,1.1,0.9c0,0.2-0.1,0.3-0.1,0.5
			c-1.7,0.1-3.5,0.2-5.2,0.3c-1.1,0-0.9,1.2-1.4,1.8c-0.3-0.5-0.6-1.1-0.9-1.6c0.2-0.3,0.3-0.6,0.5-0.9c0.8-0.1,1.6-0.2,2.4-0.4
			c0.9-0.2,1.5-0.7,1.1-1.8c-0.1-0.8-0.2-1.6-0.3-2.4C139.5,68.3,140.6,68.9,141.6,68.8z"/>
		<path class="st5" d="M109.8,27.2c-0.3,0.6-0.5,1.1-0.9,1.9c0.3,0.2,0.8,0.5,1.3,0.8c-0.6,0.9-1.4,1.8-1.9,2.8
			c-0.9,1.5-1.7,3-2.3,4.6c-0.3,0.8-0.8,1-1.5,1c0.2-0.7,0.4-1.4,0.7-2c0.6-1.2,1.3-2.3,1.1-3.7c0-0.5,0.3-1,0.6-1.5
			c0.5-1,1-2,1.5-3C108.9,27.8,109.4,27.5,109.8,27.2z"/>
		<path class="st1" d="M116.2,46.8c0.1-0.9,1.3-3.6,1.7-4c0.8,0,0.7-0.6,0.8-1.1c0.2-0.9,0.5-1.7,0.7-2.5c0.1,0.5,0.2,1,0.3,1.6
			c0.3,0,0.8-0.1,1.2-0.1c-0.4,1.4-0.9,2.7-1.3,4.1c-0.4,1.4-1.2,2.1-2.7,2C116.7,46.6,116.5,46.7,116.2,46.8z"/>
		<path class="st1" d="M58.9,152.5c-0.5,0.1-1,0.1-1.5,0.2c0.6-1.3,1.4-2.7,1.9-4c0.6-1.4,1.1-2.9,1.6-4.4c0.2-0.6,0.3-1.2,0.5-1.8
			c0.2,0.5,0.4,0.9,0.6,1.4c-0.1,0.6-0.3,1.2-0.4,1.7c-0.2,0.5-0.5,0.9-0.7,1.4c0.1,0.1,0.3,0.1,0.4,0.2c0.2-0.5,0.3-0.9,0.5-1.4
			c0.2-0.2,0.3-0.3,0.5-0.5c0,0.2,0.1,0.4,0.1,0.5C61.7,148.3,60.7,150.6,58.9,152.5z M60.6,148.5c0,0-0.1-0.1-0.1-0.1
			c0,0-0.1,0.1-0.1,0.1c0,0,0.1,0.1,0.1,0.1C60.5,148.6,60.6,148.6,60.6,148.5z M60.8,147.7c0,0,0,0.1-0.1,0.1c0.1,0,0.1,0,0.2,0
			C60.9,147.8,60.9,147.7,60.8,147.7C60.9,147.7,60.8,147.7,60.8,147.7z"/>
		<path class="st6" d="M152.5,95.9c-0.2,1.3,1.1,1,1.7,1.5c0.1,1.3,0.2,2.6,0.3,4c-0.6,0-1.3,0-1.9,0c-0.1-0.5-0.3-1-0.4-1.5
			c-0.1-0.5,0-1.1-0.2-1.4c-0.9-1-0.8-2.3-0.9-3.5c0-0.2,0-0.4,0-0.5c0-0.4,0-0.8,0-1.1c0.3,0,0.7,0,1,0
			C152.3,94.2,152.4,95,152.5,95.9z"/>
		<path class="st5" d="M142.5,74.3c0-0.2,0.1-0.3,0.1-0.5c1.1,1,2.2,0.6,3.4,0.1c2.1-0.9,4.3-1.7,6.4-2.5c0.5-0.2,1.1-0.1,1.6-0.2
			c0.6-0.1,1.1-0.2,1.7-0.3c0.2,0,0.5,0,0.7,0.1c0,0.8-0.2,1.4-1.1,1.4c-0.1,0-0.2,0-0.3,0l-0.1,0c-1.1-0.1-2.1-0.5-3.1,0.4
			c-0.6,0-1.1,0.2-1,1c-0.7,0.1-1.3,0.1-2,0.2c-0.8,0-1.6-0.2-1.6,1c-0.5,0.2-1,0.3-1.5,0.5c-0.2-0.1-0.5-0.3-0.7-0.2
			C144,75.7,143.2,75.2,142.5,74.3z"/>
		<path class="st4" d="M40,170c-0.9,0.6-1.8,1.3-2.7,1.9c-1.2,0.8-2.4,1.7-3.6,2.5c-0.4-0.1-0.7-0.2-1.1-0.4
			c0.7-0.7,1.4-1.5,2.1-2.2l0,0c1,0.2,1.8-0.2,2.3-1.1c0.3-0.5,0.9-1.2,1.4-1.3c1.2-0.3,1.9-1.2,2.7-2l0.1-0.1
			c0.2,0.2,0.4,0.3,0.7,0.5c-0.3,0.4-0.5,0.9-0.9,1.2C40.7,169.4,40.3,169.7,40,170z"/>
		<path class="st7" d="M164.7,87.5c1.1-2.4,2.8-4.3,5.1-5.5c0.5-0.3,1.3,0,2,0.1c-1.9,0.3-3.2,1.5-3.8,3.4c-0.6,1-0.6,2.3-1.8,2.9
			c-0.2-0.1-0.5-0.2-0.7-0.4C165.1,87.7,164.9,87.6,164.7,87.5z"/>
		<path class="st8" d="M141.9,84.5c0-0.4,0-0.8,0-1.1c1.7,0.5,3.3,1,5,1.5c-0.3,0.2-0.5,0.5-0.9,0.6c-2.1,0.4-3.6,1.6-5,3
			c-0.2,0.2-0.6,0.3-0.9,0.4c0-0.3,0-0.7,0-1c0.6-0.4,1.2-0.8,1.7-1.2C142.8,86,142.8,85.1,141.9,84.5z"/>
		<path class="st4" d="M62,143.9c-0.2-0.5-0.4-0.9-0.6-1.4c-0.1-0.3-0.3-0.6-0.5-1.1c0.3-0.2,0.7-0.5,1.2-0.8
			c0.2-0.2,0.6-0.5,0.6-0.7c-0.1-2.1-0.2-4.2-0.3-6.3c0.4-0.1,0.8-0.3,1.2-0.4c1,0.5,0.5,1.5,0.6,2.3c-1,0.1-0.6,1-0.6,1.6
			c-0.2,2,0.4,4.1-0.7,6C62.1,142.9,62.1,143.5,62,143.9z"/>
		<path class="st9" d="M167.9,85.3c0.7-1.9,1.9-3,3.8-3.4c0.4,0.1,0.9,0.3,1.3,0.4c0,0.2,0,0.5-0.1,0.5c-1.3,0.5-1.9,1.7-2.6,2.8
			c-1.1-0.4-1,0.9-1.6,1.2C168.5,86.3,168.2,85.8,167.9,85.3z"/>
		<path class="st3" d="M164.7,87.5c0.2,0.1,0.5,0.2,0.7,0.4c-0.4,0.7-0.9,1.3-1.1,2c-0.5,1.8-0.9,3.6-1.4,5.4l0,0
			c-0.5,0.8-1.1,1.5-1.6,2.3c-0.4,0.8-1,1.1-1.9,0.9c0.3-0.4,0.6-0.8,0.9-1.1c0.7-0.6,0.9-1.3,0.8-2.2c0.2,0,0.5,0,0.7-0.1
			c1-0.9,1.7-4.8,1.1-6.1C163.5,88.4,164.1,87.9,164.7,87.5z"/>
		<path class="st10" d="M113.1,54.1c-0.2,1-0.4,2.1-0.6,3.3c-2.3-2.3-1-4.3-0.2-6.1c0.8-0.4,1.3-0.6,1.8-0.8
			C113.8,51.6,113.4,52.8,113.1,54.1z"/>
		<path class="st7" d="M63.6,133.3c-0.4,0.1-0.8,0.3-1.2,0.4c-0.1,0-0.2,0-0.3-0.1c-0.3-1.3-0.6-2.6-1-4c0.9-0.5,0.3-1.1,0.1-1.6
			c-0.2-0.6-0.6-1.2-0.8-1.8c0-0.1,0.4-0.4,0.5-0.6c0.2,0.4,0.4,0.8,0.6,1.1c0.1,0.3,0.3,0.5,0.4,0.8c0.2,0.4,0.3,0.9,0.5,1.3
			c0.1,0.4,0.3,0.7,0.4,1.1c0.2,0.6,0.4,1.2,0.6,1.8c0.1,0.3,0.2,0.6,0.3,1C63.7,132.9,63.7,133.1,63.6,133.3z"/>
		<path class="st6" d="M162.9,88.9c0.5,1.4-0.2,5.2-1.1,6.1c-0.1,0.1-0.4,0.1-0.7,0.1l0,0c-0.1-0.1-0.2-0.3-0.4-0.4l0,0
			c-0.1-0.3-0.3-0.5-0.4-0.8c0.3-0.6,0.5-1.1,0.8-1.7c0.4-0.8,1.2-1.6,0.7-2.7C162.2,89.4,162.5,89.2,162.9,88.9z"/>
		<path class="st3" d="M129.1,71.7c-0.3,0-0.5,0-0.8,0c-0.1-0.4-0.2-0.8-0.4-1.1c3-2.6,3.6-2.7,5-0.7c0,0.1,0,0.3,0,0.4
			c-0.4,0-0.7,0-1.1,0c-0.2,0.1-0.5,0.3-0.7,0.4c-0.3,0.1-0.5,0.2-0.8,0.3c-0.1,0-0.2,0-0.3,0C129.8,71.2,129.4,71.4,129.1,71.7z"/>
		<path class="st7" d="M151.9,72.8c0.9-0.8,2-0.4,3.1-0.4c-0.1,2.1-0.8,2.6-3.1,2C151.9,73.9,151.9,73.4,151.9,72.8z"/>
		<path class="st7" d="M41.9,167.8c-0.2-0.2-0.4-0.3-0.7-0.5c0.2-0.1,0.4-0.2,0.6-0.3c0.3-0.2,0.6-0.4,0.8-0.7c0.1,0,0.2,0,0.2-0.1
			c1,0.1,1.3-0.6,1.5-1.4c0.2,0,0.4-0.1,0.6-0.1c0,0.1,0.1,0.2,0.1,0.3c0.1,0,0.1-0.1,0.2-0.1c-0.1,0-0.2-0.1-0.3-0.1
			c0.1-0.2,0.3-0.4,0.4-0.7c0.8-0.1,0.5,0.6,0.7,1C45.1,166.8,43.8,167.7,41.9,167.8z"/>
		<path class="st1" d="M60.7,122.3c0.4-0.2,0.8-0.6,1.2-0.6c1.9,0.1,3.8,0.3,5.8,0.5c0.6,0.1,1.2,0.1,1.8,0.1c0.8,0,0.8,0.5,0.8,1.1
			c-1.8-0.4-3.5-1-5.4-0.8C63.5,122.7,62.1,122.4,60.7,122.3z"/>
		<path class="st4" d="M120.9,40.5c-0.4,0-0.9,0.1-1.2,0.1c-0.1-0.6-0.2-1.1-0.3-1.6c0.3-1,0.7-2,1-3c0.2,0.6,0.5,1.1,0.7,1.7
			c0.2,0.6,0.3,1.1,0.4,1.7C121.4,39.8,121.1,40.2,120.9,40.5z"/>
		<path class="st10" d="M114.1,50.4c0-0.6,0-1.1,0-1.8c-0.8,0.1-1.4,0.2-2.3,0.4c0.7-1.1,1.2-2,1.8-2.9c0.4,0.5,0.8,0.9,1.2,1.3
			c0.2,0.2,0.5,0.5,0.7,0.7C115.1,49,114.6,49.7,114.1,50.4z"/>
		<path class="st10" d="M155,110.6c0.3-0.2,0.5-0.5,0.8-0.7c0.2,0.4,0.4,0.8,0.7,1.2c0.6-0.6,1-1.1,1.4-1.6
			c-0.1,0.6-0.2,1.1-0.3,1.7c-0.1,0.5-0.1,1,0.6,0.8c0,0.1,0,0.3,0,0.4c-0.3,0.2-0.7,0.7-0.8,0.6C156.4,112.5,155.1,112.1,155,110.6
			z"/>
		<path class="st1" d="M151.1,93.4c0,0.4,0,0.8,0,1.1c-1.5-0.6-3-1.1-4-2.4c1.3-0.3,1.3-1.3,1.2-2.3c-0.1-0.9-0.2-1.8-0.3-2.6
			c0.8,0.9,0.7,2.1,0.7,3.2C148.6,92.5,149,92.9,151.1,93.4z"/>
		<path class="st10" d="M161.8,89.7c0.5,1.1-0.3,1.8-0.7,2.7c-0.3,0.6-0.5,1.1-0.8,1.7c-0.1,0.1-0.3,0.2-0.4,0.4
			c-1-0.1-0.5-0.9-0.6-1.5c0.4-0.5,0.8-0.9,1.3-1.5c0-0.3-0.1-0.7-0.2-1.2c0.2-0.2,0.4-0.4,0.6-0.5
			C161.3,89.7,161.5,89.7,161.8,89.7z"/>
		<path class="st7" d="M152.5,95.9c-0.1-0.9-0.3-1.7-0.4-2.6c0.7-0.6,1.2-1.6,2.3-0.8c-1,0.7,0,1.5-0.2,2.3
			C153.7,95.2,153.1,95.5,152.5,95.9z"/>
		<path class="st4" d="M46.1,165.2c-0.2-0.4,0.1-1.1-0.7-1c-0.1-0.8,0.5-0.8,1-0.8c0.1,0,0.2,0,0.4,0l0,0c0.2-0.1,0.5-0.3,0.7-0.4
			l0,0c0.7,0.1,1.4,0.1,1.9-0.6c0.4-0.7,1-0.6,1.7-0.5c-1.3,1-2.6,1.9-4,2.9c-0.1-0.1-0.1-0.3-0.2-0.4c-0.1,0.3-0.3,0.5-0.4,0.8
			C46.4,165.2,46.2,165.2,46.1,165.2z"/>
		<path class="st8" d="M75.9,124.5c1.7,0.2,3.3,0.6,5,0.7c1.1,0.1,2.2-0.1,3.3-0.2c0.6,0,1.3-0.3,1.6,0.6c-3-0.1-5.9-0.2-8.9-0.3
			C76.6,125.2,76.3,124.7,75.9,124.5z"/>
		<path class="st8" d="M126.8,92.2c0.6,0.2,1.2,0.3,1.7,0.6c1.1,0.6,2.1,1.3,3.1,2c0.4,0.3,0.7,0.8,1,1.1
			C130.3,95.3,128.4,94,126.8,92.2z"/>
		<path class="st8" d="M96.7,100c0.2-0.4,0.5-0.8,0.7-1.1c1.3-0.7,2.6-1.5,3.9-2.1c0.6-0.3,1.2-0.3,1.8-0.5
			C100.9,97.5,98.8,98.7,96.7,100z"/>
		<path class="st10" d="M62.8,143c1.1-1.9,0.6-4,0.7-6c0-0.6-0.4-1.4,0.6-1.6c-0.1,2-0.1,4.1-0.4,6.1c-0.1,0.7-0.6,1.3-0.9,2
			C62.9,143.4,62.9,143.2,62.8,143z"/>
		<path class="st3" d="M148.9,73.9c0.7-0.1,1.3-0.1,2-0.2c0.5,0.6,0.7,1.4,0,1.9c-0.3,0.3-1.1,0.3-1.5,0.1
			C148.6,75.4,148.6,74.6,148.9,73.9z"/>
		<path class="st3" d="M145.8,75.4c0.5-0.2,1-0.3,1.5-0.5c0.9,1.6,0.5,2.2-1.6,2.4C145.7,76.6,145.8,76,145.8,75.4z"/>
		<path class="st5" d="M86.3,125.3c0-0.2,0.1-0.5,0.1-0.5c2-0.1,2.5-2.7,4.5-2.8C90,123.9,88.5,125.1,86.3,125.3z"/>
		<path class="st1" d="M119,86.7c-0.8,0.1-1.1-0.3-1-1.1c0.1-0.6,0.2-1.2,0.4-2c-0.4,0.2-0.6,0.3-0.8,0.4c-0.4-1.2-0.4-1.2,0.8-1.6
			c0.2,0.8,0.4,1.7,0.6,2.5C119,85.5,119,86.1,119,86.7z"/>
		<path class="st8" d="M51.1,161.9c-0.6-0.1-1.3-0.3-1.7,0.5c-0.4,0.8-1.2,0.7-1.9,0.6c1.1-1,2.1-2.1,3.2-3.1c0,0.7,0,1.4,1,1.3
			C51.5,161.4,51.3,161.7,51.1,161.9z"/>
		<path class="st8" d="M170,95.2c0.7-1.4,1.4-2.7,2.1-4.1C171.8,92.7,171.4,94.2,170,95.2z"/>
		<path class="st8" d="M138.3,98.8c1.3,0.1,2.7,0.3,3.6,1.5C140.7,99.8,139.5,99.3,138.3,98.8z"/>
		<path class="st1" d="M109.8,93c0.9-1.2,2.2-1.4,3.6-1.5C112.2,92,111,92.5,109.8,93z"/>
		<path class="st3" d="M62.8,143c0,0.2,0.1,0.4,0.1,0.6c-0.2,0.6-0.4,1.2-0.6,1.7c-0.2,0.2-0.3,0.3-0.5,0.5
			c-0.1-0.1-0.1-0.1-0.2-0.2c0.1-0.6,0.3-1.2,0.4-1.7C62.1,143.5,62.1,142.9,62.8,143z"/>
		<path class="st8" d="M142.6,100.7c1.1,0,1.9,0.5,2.5,1.5C144.2,101.6,143.4,101.2,142.6,100.7z"/>
		<path class="st1" d="M115.5,48.2c-0.2-0.2-0.5-0.5-0.7-0.7c0.5-0.2,1-0.5,1.4-0.7C116,47.2,115.8,47.7,115.5,48.2z"/>
		<path class="st8" d="M135.8,97.7c0.8,0.4,2,0,2.5,1.1C137.4,98.7,136.3,99,135.8,97.7z"/>
		<path class="st5" d="M91.3,120.8c0.3-0.1,0.7-0.2,1-0.4c-0.5,0.5-0.9,1-1.4,1.5c0-0.2,0-0.5,0-0.7C91.1,121.1,91.2,121,91.3,120.8
			L91.3,120.8z"/>
		<path class="st8" d="M94.8,100.7c0.6-0.3,1.3-0.5,1.9-0.8C96,100.2,95.4,100.5,94.8,100.7z"/>
		<path class="st7" d="M155.7,69.5c-0.5-0.9,0.1-1,0.7-1.1C156.2,68.7,155.9,69.1,155.7,69.5z"/>
		<path class="st4" d="M62.8,130c-0.1-0.4-0.3-0.7-0.4-1.1C63.2,129,63.4,129.4,62.8,130z"/>
		<path class="st1" d="M108.4,93.7c0.1-1,0.9-0.7,1.4-0.7C109.4,93.2,108.9,93.5,108.4,93.7z"/>
		<path class="st1" d="M147.9,87.1c-0.7-0.3-0.8-0.9-0.7-1.6C147.5,86.1,147.7,86.6,147.9,87.1z"/>
		<path class="st8" d="M103.1,96.3c0.3-0.8,0.9-0.8,1.5-0.8C104.1,95.8,103.6,96,103.1,96.3z"/>
		<path class="st8" d="M168.9,97.4c0.2-0.5,0.5-1,0.7-1.5C169.4,96.4,169.2,96.9,168.9,97.4z"/>
		<path class="st1" d="M105.9,94.4c0.4,0,0.7,0,1.1,0c-0.2,0.2-0.5,0.4-0.7,0.6C106.2,94.8,106,94.6,105.9,94.4z"/>
		<path class="st7" d="M46.5,165.2c0.1-0.3,0.3-0.5,0.4-0.8c0.1,0.1,0.1,0.3,0.2,0.4C46.9,164.9,46.7,165,46.5,165.2z"/>
		<path class="st4" d="M63.7,132.8c-0.1-0.3-0.2-0.6-0.3-1C63.5,132.1,63.6,132.4,63.7,132.8z"/>
		<path class="st8" d="M145.1,102.1c0.2,0.2,0.5,0.5,0.7,0.7C145.5,102.6,145.3,102.4,145.1,102.1z"/>
		<path class="st7" d="M156.5,71c-0.2,0-0.5,0-0.7-0.1c0-0.1,0-0.3,0-0.4C156.1,70.3,156.5,70.3,156.5,71z"/>
		<path class="st8" d="M147.2,104c0.2,0.2,0.4,0.3,0.6,0.5c-0.1,0-0.3,0.1-0.4,0.1C147.3,104.3,147.2,104.2,147.2,104z"/>
		<path class="st5" d="M135.5,70.2c-0.2,0-0.5,0.1-0.7,0.1C135,70.3,135.2,70.3,135.5,70.2z"/>
		<path class="st4" d="M166.9,101.7c0,0,0.1,0,0.1,0c0,0,0,0.1,0,0.1c-0.1,0-0.1,0-0.2,0C166.9,101.8,166.9,101.7,166.9,101.7z"/>
		<path class="st8" d="M145.8,102.9c0.2,0.1,0.5,0.2,0.7,0.4C146.3,103.1,146,103,145.8,102.9z"/>
		<path class="st2" d="M121.2,61.8c-0.1-0.3-0.3-0.6-0.4-0.8C121,61.2,121.1,61.5,121.2,61.8z"/>
		<path class="st8" d="M169.7,95.9c0.1-0.2,0.2-0.5,0.4-0.7C169.9,95.4,169.8,95.7,169.7,95.9z"/>
		<path class="st8" d="M134.4,97c0.2,0.1,0.5,0.2,0.7,0.3C134.9,97.3,134.7,97.1,134.4,97z"/>
		<path class="st1" d="M107,94.4c0.2-0.1,0.5-0.3,0.7-0.4C107.5,94.2,107.2,94.3,107,94.4z"/>
		<path class="st8" d="M135.1,97.4c0.2,0.1,0.5,0.3,0.7,0.4C135.6,97.6,135.3,97.5,135.1,97.4z"/>
		<path class="st1" d="M107.7,94.1c0.2-0.1,0.5-0.2,0.7-0.4C108.2,93.8,107.9,93.9,107.7,94.1z"/>
		<path class="st0" d="M74.8,125.4c0,0,0.1,0,0.1-0.1c0,0.1,0,0.1,0,0.2c-0.1,0-0.1,0-0.2,0C74.8,125.5,74.8,125.4,74.8,125.4z"/>
		<path class="st0" d="M125.1,91.8c0,0,0,0.1,0,0.1c-0.1-0.1-0.1-0.1-0.2-0.2c0,0,0.1-0.1,0.1-0.1C125,91.7,125,91.8,125.1,91.8z"/>
		<path class="st8" d="M172.1,91.1c0.1-0.2,0.2-0.5,0.3-0.7C172.4,90.6,172.3,90.9,172.1,91.1z"/>
		<path class="st4" d="M62,127.6c-0.1-0.3-0.3-0.5-0.4-0.8C61.7,127.1,61.8,127.3,62,127.6z"/>
		<path class="st8" d="M141.9,100.3c0.2,0.1,0.5,0.3,0.7,0.4C142.3,100.5,142.1,100.4,141.9,100.3z"/>
		<path class="st8" d="M168.6,97.7c0.1-0.1,0.2-0.2,0.4-0.3C168.8,97.5,168.7,97.6,168.6,97.7z"/>
		<path class="st7" d="M155.1,72.4c0.1,0,0.2,0,0.3,0l-0.2,0L155.1,72.4z"/>
		<path class="st8" d="M146.5,103.2c0.1,0.1,0.2,0.3,0.4,0.4C146.7,103.5,146.6,103.3,146.5,103.2z"/>
		<path class="st8" d="M146.8,103.6c0.1,0.1,0.3,0.3,0.4,0.4C147.1,103.8,147,103.7,146.8,103.6z"/>
		<path class="st5" d="M133,70.2c0-0.1,0-0.3,0-0.4c0.1,0.1,0.2,0.3,0.4,0.4l0,0C133.2,70.2,133.1,70.2,133,70.2z"/>
		<path class="st11" d="M47.8,110.2c0,0.6,0.1,1.2,0.1,1.8c0,0.7-0.1,1.4-0.1,2.2c0.7,0.4,1.6,0.7,1.5,1.8c0,0.2,0.7,0.5,1,0.8
			c0.3,0.8,0.6,1.7,0.9,2.5c-0.4,0.8-0.9,1.5-0.5,2.5c0.2,0.7-0.2,1.5-0.3,2.3c-0.7,0.5-1.4,1.1-2.1,1.6c-0.6-0.3-1.3-0.5-1.9-0.8
			l0,0c0.2-1.8-1.4-1-2.1-1.5c-0.1,0.1-0.1,0.2-0.2,0.4c0.5,0.2,0.9,0.4,1.6,0.7c-1.1,0-1.9,0-2.6,0c-0.3-0.2-0.6-0.5-1-0.7
			c-0.1-0.7-0.2-1.4-0.3-2.1c0.5,0.3,0.9,0.5,1.4,0.8c-0.1-0.8-0.2-1.3-0.3-1.9c0.2,0,0.4,0,0.6,0.1c0.2,1,1,1,1.5,1.1
			c0.6-0.5,1-0.8,1.2-1.1c-0.1-0.7-0.2-1.3-0.3-1.9c0.1-0.2,0.4-0.4,0.4-0.5c-0.2-1.1-0.5-2.3-0.7-3.4c-0.6,0.2-1.2,0.4-1.7,0.6
			c0-1,0.1-1.9,0.1-2.9c1.3-0.3,0-1.1,0.3-1.5c0.3-0.1,0.7-0.2,0.9-0.4c0.3-0.2,0.5-0.5,0.8-0.8c0.7,0,0.7-0.5,0.7-1
			c0-0.2-0.1-0.5-0.1-0.5c-0.4,0-0.9,0-1.3,0.1c0-0.3,0-0.5,0-0.8l0,0c0.3-0.3,0.6-0.5,0.9-0.8c0.3,0.2,0.6,0.4,1,0.6
			c0.2,0.4,0.4,0.9,0.6,1.3C46.9,109.2,47.4,109.7,47.8,110.2z"/>
		<path class="st3" d="M37.9,116.1c1.1-1.4,2.2-2.9,3.3-4.3c0.4-0.5,0.7-0.9,1.1-1.4c0.1,0.1,0.2,0.2,0.3,0.3
			c-0.3,0.5-0.5,0.9-0.8,1.4l0,0c-0.1,0.4-0.3,0.7-0.4,1.1c-0.2,0.5-0.3,1-0.5,1.5c-0.3,0.4-0.5,0.8-0.8,1.2c-0.9,1.3-1.8,2.7-2.6,4
			c0,0.5,0.2,0.8,0.8,0.5c0.6-0.3,1-0.1,1.1,0.6l0,0c-0.4,0.3-0.9,0.5-1.1,0.9c-0.3,0.8-0.8,1-1.5,0.9c-0.1-0.1-0.2-0.2-0.3-0.3
			c-0.7-0.5-0.4,0.4-0.6,0.5c-0.7,2-0.9,4-0.2,6.1c0,0,0,0,0,0c0.1,0.3,0.2,0.5,0.4,0.8l0,0c-0.2,0.2-0.4,0.5-0.7,0.7
			c-1-0.7-1.5-1.7-1.7-2.9c-0.6-2.6-0.2-5.2,0.7-7.6c0.3-0.6,0.9-1.1,1.3-1.7c0.4-0.6,0.8-1.2,1.2-1.9c0.1,0,0.1,0,0.2-0.1
			C37.4,116.2,37.7,116.1,37.9,116.1z"/>
		<path class="st3" d="M42.1,123.8c0.3,0.2,0.6,0.5,1,0.7c0.2,1.2,1.4,0.5,1.9,1.1c-0.8,0.6-1.6,1.3-2.5,1.9c-0.1-0.3-0.2-0.7-0.4-1
			c-0.7-0.9-1.2-0.7-1.9,0.4c0.4,0.3,0.8,0.5,1.3,0.9c-0.5,0.7-1,1.3-1.5,1.9c-1.3,0.9-2.6,1.4-3.9-0.1c0,0,0,0,0,0
			c-0.1-0.3-0.2-0.5-0.4-0.8c0,0,0,0,0,0c0.1-1.2,0.2-2.5,0.4-3.7c0.5,0.1,0.9,0.3,1.4,0.4c0.6,0.1,1.1,0.2,1.7,0.3
			c0-0.8,0.1-1.2,0.1-1.8c0.6,0.1,1,0.3,1.5,0.4c0-0.1,0.1-0.2,0.1-0.2c-0.2-0.1-0.3-0.3-0.5-0.4c0-0.4,0-0.7,0-1.1c0,0,0,0,0,0
			C41,123.1,41.6,123.4,42.1,123.8z"/>
		<path class="st0" d="M25.3,181.2c-1.2,0.8-2.5,1.6-3.6,2.5c-0.8,0.6-1.5,1.3-2.3,2c-0.8,0-1.7,0-2.5,0c0-0.1,0-0.2,0-0.3
			c0.2-0.2,0.5-0.5,0.7-0.7c0,0,0,0,0,0c1.4-0.2,2.3-1.2,3.2-2.2l0,0c1-0.6,1.9-1.2,2.9-1.8C24.2,180.9,24.8,181,25.3,181.2z"/>
		<path class="st10" d="M25.3,181.2c-0.5-0.2-1.1-0.3-1.7-0.5c-0.9,0.6-1.9,1.2-2.9,1.8c0.4-1.5,1.7-2,2.8-2.4
			c1.3-0.5,2.5-0.8,2.8-2.5c0-0.1,0.3-0.1,0.5-0.1c0.2,0.6,0.5,1.2,0.7,1.8C26.8,179.8,26.1,180.5,25.3,181.2z"/>
		<path class="st1" d="M27.6,179.2c-0.2-0.6-0.5-1.2-0.7-1.8c0.7-0.3,1.4-0.6,2.2-0.9c0.1,0.1,0.1,0.2,0.2,0.3
			c0-0.1,0.1-0.2,0.1-0.3c0-1.5,1.5-1.6,2.2-2.5c0.1,0.4,0.2,0.8,0.3,1.2c0.1,0.3,0.1,0.6,0.1,0.9c-0.2,0.1-0.4,0.1-0.7,0.2
			c0-0.3,0-0.5,0.1-1c-0.8,0.5-1.4,0.9-0.9,1.9c-0.2,0.1-0.5,0.3-0.7,0.4c-0.7,0-1.5-0.1-1.4,1C28,178.9,27.8,179,27.6,179.2z"/>
		<path class="st1" d="M41.1,167.4c-0.8,0.9-1.4,1.8-2.7,2c-0.5,0.1-1,0.8-1.4,1.3c-0.6,0.9-1.3,1.2-2.3,1.1
			c0.1-0.2,0.1-0.5,0.2-0.6c1.8-1.2,3.6-2.4,5.4-3.6C40.5,167.4,40.8,167.4,41.1,167.4z"/>
		<path class="st10" d="M36.1,129.6c1.3,1.5,2.6,1,3.9,0.1c0.1,0.1,0.3,0.3,0.4,0.4c-0.7,0.5-1.4,1-2.1,1.4
			c-0.4,0.2-0.8,0.2-1.2,0.3c-0.6-0.3-1.3-0.6-2-0.9c0,0,0.2-0.3,0.3-0.5C35.7,130.1,35.9,129.9,36.1,129.6z"/>
		<path class="st5" d="M40.4,130.1c-0.1-0.1-0.3-0.3-0.4-0.4c0.5-0.6,0.9-1.2,1.5-1.9c-0.5-0.3-0.9-0.6-1.3-0.9
			c0.7-1.1,1.2-1.3,1.9-0.4c0.2,0.3,0.3,0.6,0.4,1C42.2,128.6,41.5,129.5,40.4,130.1z"/>
		<path class="st1" d="M62.2,133.6c0.1,0,0.2,0,0.3,0.1c0.1,2.1,0.2,4.2,0.3,6.3c0,0.2-0.4,0.5-0.6,0.7
			C62.2,138.3,62.2,135.9,62.2,133.6z"/>
		<path class="st10" d="M31.8,176.1c0-0.3,0-0.6-0.1-0.9c-0.1-0.4-0.2-0.8-0.3-1.2c0.1,0,0.2,0,0.3,0c0.3,0,0.5,0,0.8,0
			c0.4,0.1,0.7,0.2,1.1,0.4c0.1,0.6,0.1,1.1,0.2,1.9C33.1,176.2,32.5,176.2,31.8,176.1z"/>
		<path class="st5" d="M45,125.6c-0.5-0.6-1.7,0.1-1.9-1.1c0.8,0,1.5,0,2.6,0c-0.7-0.3-1.2-0.5-1.6-0.7c0.1-0.2,0.2-0.3,0.2-0.4
			c0.7,0.5,2.2-0.3,2.1,1.5C45.9,125.1,45.5,125.4,45,125.6z"/>
		<path class="st1" d="M32.5,174c-0.3,0-0.5,0-0.8,0c0.4-1.6,1.7-1.8,3-2.2C34,172.5,33.2,173.3,32.5,174z"/>
		<path class="st10" d="M20.8,182.4c-0.9,1-1.8,2-3.2,2.2C18.4,183.5,19.3,182.5,20.8,182.4z"/>
		<path class="st4" d="M44.4,164.9c-0.2,0.8-0.5,1.5-1.5,1.4c0-0.5-0.1-0.9-0.1-1.4C43.4,164.9,43.9,164.9,44.4,164.9z"/>
		<path class="st5" d="M46.4,124.9c0.6,0.3,1.3,0.5,1.9,0.8C47,126.4,46.8,126.3,46.4,124.9z"/>
		<path class="st4" d="M51.5,159.1c-0.2-0.8-0.5-1.5-0.7-2.3c0.1,0,0.3-0.1,0.4-0.1c0.2,0.7,0.4,1.4,0.6,2.1
			C51.7,158.9,51.6,159,51.5,159.1z"/>
		<path class="st8" d="M51.5,159.1c0.1-0.1,0.2-0.2,0.3-0.3c0.2-0.1,0.5-0.1,0.7-0.2c-0.4,0.3-0.8,0.5-1.2,0.8
			C51.4,159.3,51.5,159.2,51.5,159.1z"/>
		<path class="st4" d="M42.6,166.4c-0.3,0.2-0.6,0.4-0.8,0.7C42.1,166.8,42.4,166.6,42.6,166.4z"/>
		<path class="st10" d="M17.6,184.7c-0.2,0.2-0.5,0.5-0.7,0.7C17.1,185.1,17.3,184.9,17.6,184.7z"/>
		<path class="st1" d="M57.5,152.7c-0.2,0.1-0.5,0.3-0.7,0.4C57,153,57.2,152.9,57.5,152.7z"/>
		<path class="st4" d="M52.5,158.2c0.1-0.1,0.2-0.3,0.3-0.4c0,0,0.1,0.1,0.1,0.1c0,0.1,0,0.2,0,0.3l0,0
			C52.7,158.2,52.6,158.2,52.5,158.2z"/>
		<path class="st8" d="M47.5,163c-0.2,0.1-0.5,0.3-0.7,0.4C47,163.2,47.3,163.1,47.5,163z"/>
		<path class="st10" d="M29.3,176.5c0,0.1-0.1,0.2-0.1,0.3c-0.1-0.1-0.1-0.2-0.2-0.3C29.1,176.5,29.2,176.5,29.3,176.5z"/>
		<path class="st8" d="M52.5,158.2c0.1,0,0.2,0,0.4,0c-0.1,0.1-0.3,0.2-0.4,0.4C52.5,158.5,52.5,158.4,52.5,158.2z"/>
		<path class="st8" d="M46.8,163.4c-0.1,0-0.2,0-0.4,0C46.5,163.4,46.7,163.4,46.8,163.4z"/>
		<path class="st2" d="M57.8,98.1c0.1-0.6,0.3-1.2,0.4-1.8c0.3-0.2,0.9-0.4,1-0.7c0.6-1.3,1.1-2.7,1.6-4c0.3-0.9,0.6-1.8,0.9-2.7
			c0.5-0.6,1-1.2,1.5-1.8c0.3,0,0.6,0,1.1-0.1c-0.2,0.3-0.3,0.5-0.3,0.7c0,0.1,0,0.3,0,0.4c0.4,0.5,0.7,1,1.1,1.5
			c0.1,0.3,0.2,0.5,0.3,0.8c0.1,0.5,0.5,1.1,0.4,1.5c-0.5,1.3,0.3,1.4,1.1,1.8c-0.1,0.6-0.1,1.1-0.2,1.7c0.6,0.1,1.2,0.2,1.7,0.3
			c0.1,0.2,0.2,0.4,0.3,0.7c0.8,2.9,0.7,2.9,3.5,2c0.1,0,0.2-0.1,0.3-0.1c1.3-0.5,1.8-1.5,1.7-3c-0.1-0.6,0.1-1.3,0.2-1.9
			c1.1,0.1,1.9-0.4,2.4-1.1c-0.1-0.8-0.2-1.5-0.2-2.2c1.8-0.4,3.7-0.7,5.5-1.1c0.3,0.2,0.5,0.3,0.8,0.5c2.7,0.9,3.8,0,3.7-2.7
			c0.5-0.7,1-1.5,1.4-2.2c0.3-0.4,0.7-0.9,1.1-1.4c0.5-0.1,1,0,1.7,0.2c0.5,0.2,1.3-0.7,2-1.2c0.1,0.3,0.2,0.6,0.3,1.2
			c0.2-0.7,0.3-1.2,0.5-1.8C91,81.8,89,82.4,87,83.3c-0.6,0.7-1.1,1.5-1.8,2.2c-0.2-0.1-0.5-0.2-0.7-0.3c0-0.7-0.1-1.5-0.1-2.6
			c-0.4,0.7-0.7,1.1-1,1.4c-0.4,0.3-0.7,0.5-1.1,0.8c-1.2,0.2-2.4,0.5-3.5,0.7c-0.1-0.3-0.1-0.7-0.2-1.1c-0.7,0.3-1.3,0.5-2.1,0.8
			c-0.5-0.7-1.1-1.4-1.7-2.2c-0.5,0.1-1.3-0.8-2,0.2c-0.3-0.2-0.5-0.4-0.8-0.7c0.2-1.2,0.4-2.5,0.6-3.8c0.2-0.1,0.5-0.3,0.9-0.5
			l0.2,0l0.2-0.1c0.4-0.1,0.7-0.2,1.1-0.4c0.2,0,0.4-0.1,0.7-0.1c0.6-0.1,1.2-0.3,1.9-0.4c0.2-1.7,0.6-3.2,2-4
			c1.6-0.9,2.5-2.4,3.2-4c0.8-1.9,2.6-2.8,3.7-4.3c0.1-0.1,0.3,0,0.5,0c0.5,1.1,0.5,2.2-0.4,3.3c-0.5,0-1,0.1-1.5,0.1
			c-0.6,1.4-2.6,2-2,4c0.5,0.2,1,0.4,1.3,0.6c-0.6,0.7-1.1,1.6-1.8,2.1c-1,0.6-2.3,0.9-3.6,1.4c0.4,0.4,0.7,0.9,1.1,0.9
			c0.8,0.2,1.7,0.2,2.6,0.3c1.8,0.3,3.5,0.5,5.2-0.2c0.5-0.2,1-0.4,1.4-0.6c1.3-0.6,2.6-1.3,3.9-1.9c0,1.3,0,2.5,0,4
			c0.9-0.8,1.5-1.4,2.3-2.1c0.5,0.7,0.8,1.3,1.2,1.9c-0.2,0.5-0.4,1-0.6,1.5c-0.8,0.3-1.6,0.7-2.4,1c0.2,0.8,0.3,1.5,0.5,2.3
			c0.9-0.1,1.4-0.3,1.6-1.2c0.1-0.6,0.5-1.2,0.7-1.8c0.2,0,0.4-0.1,0.6-0.1c0,0.3,0.1,0.5,0.1,0.8c0.1,0,0.1,0,0.2,0
			c0-0.3,0.1-0.5,0.1-0.8c1.4-0.5,2.8-0.9,4.2-1.4c0.3,0,0.7,0.1,1,0.1c0.6,0,1.4,0.8,2-0.3c-0.1,0.6-0.3,1.2-0.4,1.8
			c-0.3,0.2-0.6,0.3-0.5,0.3c-0.1,0.7-0.1,1.1-0.2,1.5c0,0.1,0,0.2-0.1,0.3c-2.2,0.6-4.4,1.2-6.7,1.9c-3.2,1-6.3,2-9.5,2.9
			c-0.3,0.1-0.5,0.2-0.9,0.5c0.5,0.4,0.8,0.7,1.2,1c-0.2,0.5-0.4,1-0.5,1.6c-0.4,1.5-0.1,2.4,1.3,3c1.3,0.6,1.3,1.2,0.3,2.1
			c-1.3,1.1-2.9,1.7-4.6,1.5c-2.9-0.3-5.4,0.8-7.8,2.5c-2.5,1.8-5.1,3.6-7.8,5.1c-2,1.1-4.2,1.9-6.6,1.7c-0.8-0.3-1.7-0.6-2.5-0.8
			c-0.1-0.2-0.2-0.3-0.3-0.5c0-0.4,0-0.7-0.1-1.1c0.1-0.2,0.3-0.5,0.4-0.7c0.2-0.5,0.4-1,0.7-1.5c0.9-0.1,1-0.9,1.2-1.6
			c-0.7,0.3-1.1,0.9-1.1,1.6c-0.3,0.5-0.5,0.9-0.8,1.4c-0.2,0.2-0.4,0.4-0.6,0.5c-0.2-0.6-0.7-1.1-0.7-1.7c-0.1-1,0.1-2.1,0.1-3.1
			C58.2,98.6,57.9,98.3,57.8,98.1z M64.7,103.6c1.1-0.1,2.1-1.1,1.9-1.8c-0.1-0.3-0.6-0.7-0.9-0.7c-1.1,0-2,0.7-1.8,1.5
			C64,103,64.5,103.3,64.7,103.6z M97.2,81.7C97.1,81.9,97,82,97,82.1c0,0.1,0.2,0.1,0.3,0.2C97.3,82.1,97.3,82,97.2,81.7z
			 M94.8,79.3c0,0-0.1,0-0.1,0c0,0.2,0,0.4,0,0.6c0,0,0.1,0,0.1,0C94.8,79.7,94.8,79.5,94.8,79.3z"/>
		<path class="st1" d="M98.8,89.6c-0.3,0-0.6-0.1-1.1-0.1c0.2-1.2,0.4-2.4,0.5-3.3c1.8-1,3.4-1.9,4.9-2.8c0.3,0.2,0.6,0.4,0.9,0.6
			c-1.3,1.3-3,2.3-4.2,4.2c2.7-1,4.9-1.8,7.1-2.7c0.5,0,1.1,0.1,1.1-0.7c0.1-0.1,0.2-0.2,0.3-0.3c0.5,0,1,0,1.5,0c0.2,0,0.5,0,0.7,0
			l0,0c1.3-0.4,2.6-0.7,3.9-1.1c0.2-0.1,0.3-0.5,0.4-0.7l0.2,0l0.1,0c0.7,1.4,1.1,2.9,0.7,4.7c-0.2-0.5-0.5-1.1-0.9-1.9
			c-0.7,0.7-1.3,1.3-2,1.9c-0.2-0.3-0.4-0.7-0.5-0.8c-1.4,0.1-2.7,0.2-3.9,0.3c-0.3,0-0.6,0.3-0.9,0.5c-2.6,1.2-5.2,2.3-7.8,3.5
			c-0.6,0.3-1.2,0.6-2.1,0.7C98.1,90.9,98.4,90.3,98.8,89.6c0.1,0,0.1-0.1,0.2-0.2C98.9,89.5,98.8,89.6,98.8,89.6z"/>
		<path class="st8" d="M76.3,109.6c0.1,1.3,0,2.6,0.9,3.8c0.6,0.7-0.2,1.6-1.2,1.5c-0.6-0.1-1.3-0.2-1.9-0.3
			c-0.8-0.2-1.4-0.2-2.3,0.1c-1,0.4-2.4-0.2-3.6-0.4c-0.5-0.1-1-0.3-1.4-0.4c-0.4,0.6-0.8,1-1.1,1.5c0.1-1.1,0.2-2.2,0.3-3.2
			c1.4-0.2,2.7-0.4,3.9-1.4c0.6-0.5,1.6-0.5,2.5-0.7c0.8,1,1.1,1,1.8-0.4C74.9,109.5,75.6,109.6,76.3,109.6z"/>
		<path class="st11" d="M147.1,92.1c1,1.4,2.6,1.8,4,2.4c0,0.2,0,0.4,0,0.5c-1.4,0.2-2.5,0.9-3.5,1.9c-0.2-0.1-0.6-0.1-0.6-0.2
			c-0.8-1.5-2-1.3-3.4-1.1c-1.1,0.1-2.3,0-3.8,0c0.2-0.8,0.3-1.6,0.5-2.4c1.2,0.4,1.7,2.1,3.5,1.7c-0.2-0.5-0.2-1.1-0.5-1.2
			c-0.8-0.5-1.8-0.9-2.6-1.3C142.7,91.2,144.9,91.3,147.1,92.1z"/>
		<path class="st8" d="M107,85.6c-2.2,0.8-4.5,1.7-7.1,2.7c1.2-1.9,2.8-2.9,4.2-4.2c-0.4-0.2-0.6-0.4-0.9-0.6c0.1-0.3,1.1,0,0.6-0.9
			c0-0.1,0-0.2,0.1-0.3c0.6,0,1.2,0,1.8,0c1.3-0.2,2.6-0.5,3.9-0.7c-0.1,0.3-0.1,0.6-0.3,0.8c-0.7,0.9-1.5,1.7-2.2,2.5
			C107,85.1,107,85.4,107,85.6z"/>
		<path class="st12" d="M117.3,76.8c0.3-0.2,0.5-0.6,0.8-0.7c0.3-0.1,0.7,0,1.3,0c0,0,0.1-0.2,0.3-0.5c0.2,0.3,0.3,0.7,0.6,1.3
			c0.2-0.6,0.3-0.9,0.4-1.2c0.6,0,1.1,0,1.7,0c0-0.2-0.1-0.4-0.1-0.5c0.8-0.3,1.6-0.6,2.6-0.9c0.4,0.3,1,0.7,1.8,1.2
			c-0.5,0.9-1.3,0.9-2.1,1c-0.5,0.1-1.1,0-1.1,0.8c-0.5,0.2-1.1,0.4-1.6,0.6c-1.6,0.4-3.3,0.8-4.9,1.2c-0.6,0.1-1.1,0.2-1.7,0.3
			c-0.4-1.1,0.7-1.2,1.2-1.7C116.6,77.3,117,77.1,117.3,76.8L117.3,76.8z"/>
		<path class="st5" d="M60.7,115.7c-1.3-0.3-1.5,1.2-2.3,1.5c-0.2-0.5-0.4-1.1-0.6-1.6c1-0.7,1.1-1.5,0.4-2.5c0.5-0.5,1-0.9,1.5-1.4
			c0.2-0.4,0.5-0.7,0.7-1.1c0.9-0.1,1.8-0.2,2.7,0.4c-0.1,1.5-1.4,2.2-2,3.2c-0.6,0-1.3,0-1.9,0c0,0.2,0,0.4,0,0.6
			c0.5,0.1,1,0.1,1.6,0.2C60.7,115.2,60.7,115.5,60.7,115.7z"/>
		<path class="st5" d="M115.1,82.7c0,0-0.1,0-0.1,0l-0.2,0c-1.2,0.4-2.5,0.7-3.7,1.1c-0.3,0.1-0.4,0.5-0.6,0.7c0,0,0,0,0,0
			c-0.2,0-0.5,0-0.7,0c-0.5,0-1,0-1.5,0c0.4-0.5,0.9-0.9,1.3-1.5c0.5-0.6,0.9-1.2,1.3-1.8c1.2-0.4,2.5-0.8,3.7-1.1l0.1-0.1
			c0.1,0.1,0.3,0.3,0.4,0.4c-0.2,0.3-0.5,0.5-0.7,0.8c-0.1,0.1-0.1,0.1-0.2,0.2c0.1-0.1,0.1-0.1,0.2-0.2c0.2,0,0.5,0,0.7,0
			C115.2,81.7,115.1,82.2,115.1,82.7z"/>
		<path class="st10" d="M60.4,110.6c-0.2,0.4-0.5,0.7-0.7,1.1l-0.1-0.1c0-0.8-0.6-0.7-1-0.7c0,0-0.1-0.1-0.1-0.1
			c0.1-0.3,0.1-0.7,0.2-1c0.6,0.1,1.1,0,1-0.8c0.3-0.5,0.7-1,1-1.5c0-0.1,0-0.3-0.1-0.3c-0.4-0.4-0.9-0.9-1.4-1.3
			c0.1-0.1,0.2-0.2,0.4-0.3c0.8,0.3,1.7,0.6,2.5,0.8c0.1,0.4,0.2,0.8,0.2,1.3C61.6,108.6,60.3,109.1,60.4,110.6z"/>
		<path class="st4" d="M80.6,122.3c0.5-0.8,0.5-1.6-0.4-2.4c1.5,0,2.6,2.1,4,0.3c0.1,0.5,0.2,1.1,0.4,1.8c-1.1-0.1-1.8-0.2-2.7-0.3
			c-0.2,0.5-0.3,0.9-0.5,1.3c-0.1,0.1-0.3,0.2-0.4,0.3C80.9,122.9,80.8,122.6,80.6,122.3z"/>
		<path class="st4" d="M121.7,77.8c0.5-0.2,1.1-0.4,1.6-0.6c0.2,0,0.5,0,0.7-0.1l0.2,0l0.2,0c0.6,0.2,1.2,0.3,1.8,0.5
			c0,0.2,0,0.5,0,0.7c-0.6,0.1-1.2,0.2-1.7,0.3c-0.6,0.4-1.2,0.8-1.8,1.2c-0.2-0.4-0.4-0.7-0.5-1.1C122,78.4,121.9,78.1,121.7,77.8z
			"/>
		<path class="st5" d="M77.7,106.9c1,0.4,2.4,0.3,2.5,1.9c-1.4-0.1-2.7-0.1-4.4-0.2C76.7,107.9,77.2,107.4,77.7,106.9z"/>
		<path class="st4" d="M66,112.1c-0.1,1.1-0.2,2.2-0.3,3.2c0.3,1.3,0.6,2.6,0.9,3.9c-0.2,0-0.3,0.1-0.5,0.1c-1-2.4-1.7-4.9-0.9-7.6
			C65.5,111.8,65.8,111.9,66,112.1z"/>
		<path class="st5" d="M122.6,79.8c0.6-0.4,1.2-0.8,1.8-1.2c0.2,0.2,0.6,0.4,0.7,0.7c0.2,0.6,0.3,1.2,0.5,2
			C124.5,80.9,123.3,80.9,122.6,79.8z"/>
		<path class="st4" d="M82,118.3c-0.7-0.1-1.5-0.1-2.5-0.2c-0.3-0.5-0.7-1.2-1.1-1.9c0.1-0.1,0.2-0.2,0.3-0.3c1,0.8,2.7,0.5,3.3,2.1
			C82,118,82,118.1,82,118.3z"/>
		<path class="st12" d="M140.6,92.5c0.9,0.4,1.8,0.8,2.6,1.3c0.3,0.2,0.3,0.8,0.5,1.2c-1.8,0.4-2.3-1.3-3.5-1.7
			C140.3,93,140.5,92.7,140.6,92.5z"/>
		<path class="st1" d="M137.5,92.3c0.3-0.3,0.5-0.6,0.8-0.8c0.4,0,0.8,0.1,1.3,0.1c-0.1,0.8-0.3,1.6-1.1,1.7
			C138.3,93.3,137.9,92.6,137.5,92.3z"/>
		<path class="st1" d="M74.2,109.5c-0.7,1.3-1,1.4-1.8,0.4C73,109.8,73.6,109.6,74.2,109.5z"/>
		<path class="st1" d="M60.7,115c-0.5-0.1-1-0.1-1.6-0.2c0-0.2,0-0.4,0-0.6c0.6,0,1.3,0,1.9,0C60.9,114.5,60.8,114.7,60.7,115z"/>
		<path class="st4" d="M84.2,118.3c0.1-0.3,0.2-0.6,0.3-0.9c0.2,0.2,0.3,0.4,0.5,0.5C84.7,118,84.4,118.1,84.2,118.3z"/>
		<path class="st4" d="M86,118.6c0.1,0,0.2,0,0.3,0c-0.1,0.2-0.3,0.4-0.4,0.6C85.9,119,86,118.8,86,118.6z"/>
		<path class="st10" d="M115.2,81.2c-0.2,0-0.5,0-0.7,0l0,0c0.2-0.3,0.5-0.5,0.7-0.8C115.1,80.7,115.2,81,115.2,81.2z"/>
		<path class="st1" d="M91.3,120.8c-0.1,0.1-0.2,0.2-0.3,0.4C91.1,121.1,91.2,121,91.3,120.8z"/>
		<path class="st10" d="M28.3,178.7c-0.1-1.2,0.7-1.1,1.4-1C29.4,179.1,29.3,179.2,28.3,178.7z"/>
		<path class="st10" d="M30.4,177.3c-0.6-1,0.1-1.3,0.9-1.9c0,0.4-0.1,0.7-0.1,1C30.9,176.7,30.6,177,30.4,177.3z"/>
		<path class="st11" d="M104.5,38.3c0.7,0,1.1-0.2,1.5-1c0.7-1.6,1.5-3.1,2.3-4.6c0.6-1,1.3-1.9,1.9-2.8c2-1.1,4-0.8,6-0.1
			c0.1,0.1,0.1,0.3,0.2,0.4c0,0.1,0,0.2,0,0.3c0.1,0.5,0.1,1.1,0.2,1.6c0,0.3,0,0.6,0,1c0,0.1-0.1,0.2,0,0.3c-0.2,0-0.3,0.1-0.5,0.1
			c-0.1-0.1-0.2-0.1-0.3-0.2c-0.4-0.1-0.9-0.2-1.5-0.3c0,0.9,0.1,1.7,0.1,2.6c-0.7,0.2-1.4,0.3-2.1,0.5c-2.4-0.2-3.7,0.9-4,3.1
			c-0.2,0.7-0.4,1.5-0.6,2.1c0.7,0.9,1.4,1.7,2,2.6c-0.5,0.8-1.4,1.4-0.8,2.8c-1.3-0.1-2.3-0.2-3.3-0.3c-0.7,1.5-1.1,3.3-3,4
			c-0.3-1.2-1.1-1.6-2.3-1.6c-0.5,0-1-0.2-1.6-0.3c-1,0.2-0.9-0.8-1.3-1.2c-0.8-0.7-1.7-1.4-2.5-2.1c0.7,0.1,1.4,0.2,2.1,0.3
			c1.5,0.2,2.9,0.4,4.4,0.4c2.2,0.1,3.3-1.1,3.4-3.3c0-0.6,0-1.2,0-1.8c0.3,0.8,0.6,1.6,1.1,2.9c0.6-1.8,1-3.2,1.4-4.5
			c-0.1-0.1-0.2-0.2-0.3-0.3c-0.8,0.6-1.6,1.3-2.4,1.9c-0.7-0.1-0.9-0.5-0.6-1.1C104.1,39.3,104.3,38.8,104.5,38.3z M109.1,33.7
			c1.2,1.5,2.6,1.8,4,0.9c0.9-0.6,0.9-1.8,0-2.4c-1-0.6-2.4-0.4-3.5,0.4c0.4,0,0.7,0,1.4,0C110.2,33,109.7,33.4,109.1,33.7z"/>
		<path class="st8" d="M82.8,77.7c-0.9-0.1-1.8-0.1-2.6-0.3c-0.4-0.1-0.7-0.6-1.1-0.9c1.4-0.5,2.6-0.8,3.6-1.4
			c0.7-0.4,1.2-1.3,1.8-2.1c-0.3-0.1-0.8-0.4-1.3-0.6c-0.7-2,1.3-2.6,2-4c0.5,0,1-0.1,1.5-0.1c0.8-1,0.8-2.1,0.4-3.3
			c-0.1-1.5,1.1-2,1.9-2.8c0.2-0.3,0.9-0.3,0.3-0.9c0-0.5,0.1-1,0.1-1.4c0.9-0.3,0.5-1,0.5-1.6c0-0.1,0-0.2,0.1-0.3
			c0.6,0,1.3,0,2.1,0c-0.2-0.6-0.4-0.9-0.7-1.6c0.7,0.3,1.1,0.5,1.5,0.6c0.4,0.1,0.9,0,1.4,0c0.2,0,0.4,0,0.7,0
			c0.1,1.1-0.7,1.6-1.3,2.2c-0.8,0.8-1,1.8-1.3,2.8c-0.1,0.4-0.3,0.8-0.6,1.6c0,0,0.1,0.4,0.1,0.8c0.1,1.1,0.7,2.2-0.2,3.4
			c-0.6,0.7,0.3,1.7,1.4,1.6c0.5,0,1-0.2,1.4-0.3c0,0.1,0.1,0.3,0.1,0.4c-0.8,0.2-1.5,0.4-2.3,0.7c-0.3,0.1-0.5,0.5-0.8,0.7
			c-0.8,0.1-1.6,0.3-2.5,0.4c-0.8-0.6-1.4-0.4-1.5,0.7c-0.3,0.2-0.7,0.3-1.2,0.6c0.6,0.4,0.9,0.7,1.4,1.1c-0.4,0.1-0.8,0.2-1.4,0.4
			c0.5,0.4,0.8,0.6,1.2,0.9c-1,0.2-1.9,0.4-2.9,0.6c0,0.1,0,0.1,0,0.2c1.7,0.2,3.3,0.5,5,0.7c0,0.1,0,0.3,0,0.4
			c-0.5,0.2-1,0.4-1.4,0.6c-0.2-0.2-0.3-0.6-0.5-0.6c-1.7,0-3.3,0-5,0C82.7,77.3,82.8,77.5,82.8,77.7z"/>
		<path class="st4" d="M94.8,57.1c-0.2,0-0.4,0-0.7,0c-0.3-0.5-0.7-1-1-1.5c0.2,0,0.5,0,0.7,0c1.9,0.6,3.7,0.3,5.5-0.6
			c0.2,0.5,0.3,0.8,0.4,1.1c0.6,1.6,0.6,1.5,2.2,0.7c0.9-0.5,2-0.7,3-0.8c0.8-0.1,1.3,0.4,1.3,1.3c0,0.7,0,1.3,0,2
			c0,0-0.1-0.1-0.1-0.1c-1.1-1.9-2.4-2.6-4.5-0.9c0.1,0.5,0.2,1.1,0.2,1.7c-1.5,1.3-1.4,2.5,0.3,3.3c0.2,2,0.1,2.2-1.7,3v0
			c-0.4-0.5-0.9-1-1.4-1.6c0.2-0.4,0.4-0.9,0.6-1.3c-0.7-0.5-1.5-0.9-2.3-1.4c-0.8,0.5-1.4,2-2.9,1.4c0-0.6,0-1.2,0-1.7
			c1.6-0.2,2.9-1,3.8-2.6C97.1,58.3,95.9,57.7,94.8,57.1z"/>
		<path class="st5" d="M93.8,55.5c-0.2,0-0.5,0-0.7,0c-1,0.4-2,0.5-3-0.2c-0.2-0.2-0.6-0.1-0.9-0.2c0-0.2,0-0.5,0-0.7
			c1.9-1.4,4.1-0.5,6.3-0.4c0.3-0.8,0.5-1.5,0.8-2.2c1.5-0.1,2.9-0.1,4.5-1.2c-0.9-0.3-1.4-0.5-2-0.7c0-0.5,0-0.9,0-1.4
			c0.5,0.1,1,0.3,1.6,0.3c1.1-0.1,1.9,0.4,2.3,1.6c1.9-0.7,2.3-2.5,3-4c1.1,0.1,2.1,0.2,3.3,0.3c-0.6-1.5,0.3-2,0.8-2.8
			c0.8,0.1,1.6,0.2,2.4,0.3c0,0.1,0,0.2,0,0.3c-0.5,0.1-1,0.2-1.5,0.4c-0.4,0.1-0.8,0.3-1.3,0.6c0.7,0.7,1.2,1.3,1.7,1.8
			c-0.1,0.2-0.1,0.3-0.2,0.5c-0.6-0.1-1.1-0.2-1.7-0.3c-1.9,0.3-2.5,2.3-3.9,3.3c-0.6,0.3-1.2,0.8-1.9,0.9c-0.6,0.1-1.2,0-1.8-0.1
			c0,0.1,0,0.2,0,0.3c0.2,0.2,0.4,0.3,0.8,0.6c-0.9,0.2-1.6,0.3-2.3,0.4c-0.6,0.1-1.3,0.2-1.6,0.6c-0.9,1.1-1.9,1.2-3.1,1.3
			C94.6,54.8,93.9,54.6,93.8,55.5z"/>
		<path class="st1" d="M93.8,55.5c0.1-0.9,0.8-0.7,1.4-0.7c1.2,0,2.3-0.2,3.1-1.3c0.3-0.4,1-0.4,1.6-0.6c0.7-0.2,1.5-0.3,2.3-0.4
			c-0.4-0.3-0.6-0.5-0.8-0.6c0-0.1,0-0.2,0-0.3c0.6,0,1.3,0.2,1.8,0.1c0.7-0.2,1.3-0.6,1.9-0.9c-0.3,1.1-0.6,2.1-0.9,3.4
			c1.8,1.1,4.1,1.8,5.1,4.4c-0.1,0.9-0.8,1.6-1.7,2.1c0-1-1-0.7-1.4-1.1c0-0.1,0-0.2,0-0.4c0-0.7,0-1.3,0-2c0-0.9-0.5-1.4-1.3-1.3
			c-1,0.2-2.1,0.4-3,0.8c-1.6,0.8-1.6,0.9-2.2-0.7c-0.1-0.3-0.3-0.7-0.4-1.1C97.5,55.9,95.7,56.2,93.8,55.5z"/>
		<path class="st1" d="M94.8,57.1c1.1,0.6,2.3,1.2,3.4,1.8c-0.9,1.6-2.1,2.4-3.8,2.6c0,0.6,0,1.1,0,1.7c-0.6,0.1-1.3,0.2-2.1,0.3
			c0.4,0.4,0.6,0.7,0.9,1.1c-0.1,0.5-0.2,1.1-0.2,1.6c0,0.4,0.3,0.9,0.5,1c0.7,0.4,1.5,0.6,2.2,0.9c0.1,0.6,0.2,1.3,0.3,1.9
			c-0.4,0.2-0.7,0.5-1,0.7c-1.3,0.1-2.6,0.3-3.9,0.4c0.3-0.3,0.5-0.6,0.8-0.7c0.7-0.3,1.5-0.5,2.3-0.7c0-0.1-0.1-0.3-0.1-0.4
			c-0.5,0.1-0.9,0.3-1.4,0.3c-1.1,0.1-2-0.9-1.4-1.6c0.9-1.2,0.4-2.3,0.2-3.4c0-0.4-0.2-0.8-0.1-0.8c0.3-0.8,0.5-1.2,0.6-1.6
			c0.3-1,0.5-2,1.3-2.8C94.1,58.7,95,58.2,94.8,57.1z"/>
		<path class="st11" d="M96.9,78.6c-0.4-0.6-0.8-1.1-1.2-1.9c-0.7,0.7-1.4,1.3-2.3,2.1c0-1.5,0-2.7,0-4c0.5-0.2,0.9-0.5,1.4-0.7
			c0.3,1.2,1,0.9,1.5,0.4c0.3-0.3,0.5-0.8,0.7-1.2c1.7-0.9,3.3-1.1,4.9,0.2c0,0.1,0,0.3,0,0.4c-0.5,0.7-0.9,1.4-1.5,1.9
			C99.4,76.9,98.1,77.7,96.9,78.6z"/>
		<path class="st1" d="M102,73.9c0-0.1,0-0.3,0-0.4c0.8-0.1,1.7-0.3,2.5-0.4c0.1-0.1,0.2-0.2,0.4-0.4c0.1-1.4,1-0.9,1.8-0.7
			c0.5-0.9,1.1-1.7,1.6-2.5c0.5,0.5,0.9,0.9,1.2,1.3c-0.2,0.3-0.5,0.6-0.7,0.8c-0.3-0.1-0.5-0.3-0.8-0.4c0,0-0.1,0.2-0.1,0.3
			c0.2,0.1,0.4,0.2,0.6,0.4c-0.2,0.2-0.5,0.5-0.8,0.7c-0.9,0.8-2.1,1.4-2.3,2.9c-0.1,0.3-0.5,0.6-0.7,0.9c-0.3,0.5-0.6,1.1-0.9,1.7
			c-0.3,0.2-0.6,0.5-0.8,0.7c-0.3,0-0.7-0.1-1-0.1c0.2-0.2,0.4-0.4,0.6-0.6C104.3,76.7,104.1,75.1,102,73.9z"/>
		<path class="st1" d="M102.7,66.6c0-0.6,0.6-3.2,0.8-3.6c0.4-0.6,0.9-1.3,1.3-1.9c0.9-0.1,1.9,0.8,2.8,0c0,1.1,0,2.3-0.1,3.4
			c0,0.2-0.4,0.4-0.6,0.6c-0.2-0.5-0.4-0.9-0.8-1.6c-0.7,0.7-1.7,1.3-2,2.1C103.9,66.6,103.4,66.5,102.7,66.6z"/>
		<path class="st4" d="M95.2,70.6c0.3-0.2,0.7-0.4,1-0.7c-0.1-0.6-0.2-1.2-0.3-1.9c0.8-0.6,1.4,0.1,2,0.4c0.5,0.3,1,0.6,1.6,0.7
			c1.6,0.2,2.4,1.3,3.2,2.5l0,0c-1.6,0.5-3.1,0.1-4.5-0.5c-0.9-0.3-1.5-0.6-2.4-0.3C95.6,70.9,95.4,70.7,95.2,70.6z"/>
		<path class="st4" d="M113.1,65.1c-0.6-0.1-1.2-0.2-1.9-0.4c-0.7,0.9-0.6,2.7-2.2,3.2c0.6-1.8,1.1-3.4,1.6-5.1
			c0.5-0.4,0.9-0.7,1.4-1.1c0.5,0.2,1.1,0.3,1.4,0.5C113.3,63.3,113.2,64.2,113.1,65.1L113.1,65.1z"/>
		<path class="st4" d="M102.7,66.6c0.7-0.1,1.2,0,1.6-1c0.3-0.8,1.2-1.4,2-2.1c0.3,0.7,0.5,1.1,0.8,1.6c-0.1,0.7-0.2,1.4-0.4,2.2
			c-0.5-0.3-0.8-0.4-1-0.5c-0.8,0.5-1.7,0.9-2.7,1.5C102.8,67.5,102.7,67,102.7,66.6z"/>
		<path class="st1" d="M117.8,40.9c-0.7-0.9-1.3-1.9-2.1-2.8c-0.7-0.8-0.4-1.5,0-2.3c0.9-0.1,1.3,0.4,1.6,1.1c0.3,0.6,0.5,1.1,1.3,1
			C118.3,38.9,118.1,39.9,117.8,40.9z"/>
		<path class="st3" d="M117.8,40.9c0.3-1,0.5-2,0.8-3c0-0.6-0.1-1.2-0.1-1.8c0.3-0.1,0.8-0.1,1-0.3c0.5-0.7,0.8-0.6,1,0.2
			c-0.3,1-0.7,2-1,3c-0.2,0.8-0.5,1.7-0.7,2.5c-0.1,0.5,0,1.2-0.8,1.1C117.9,42.1,117.9,41.5,117.8,40.9z"/>
		<path class="st5" d="M112.4,69.5c0-0.3,0-0.5-0.1-0.8c0.4-1.2,0.9-2.3,0.7-3.6l0,0c0.7-0.3,1.4-0.5,2.1-0.8
			c-0.3,0.9-0.6,1.8-0.9,2.7c-0.3,0.9-0.6,1.8-0.9,2.6C112.9,69.6,112.6,69.6,112.4,69.5z"/>
		<path class="st10" d="M108.3,39.3c0.3-2.3,1.7-3.3,4-3.1c-0.2,0.3-0.5,0.5-0.7,0.8c-1.2,0.1-1.6,1.1-2.2,2c0,0.3,0,0.6-0.1,1
			C109,39.7,108.6,39.5,108.3,39.3z"/>
		<path class="st3" d="M109.5,39c0.5-0.9,0.9-1.9,2.2-2c0.6,0.5,1.1,1,1.9,1.7C112,38.8,110.7,38.9,109.5,39z"/>
		<path class="st1" d="M112,61.8c-0.5,0.4-0.9,0.7-1.4,1.1c0-0.9,0.1-1.7,0.2-2.8c-0.1-0.3-1.3-0.3-0.5-1.2c0.2,0,0.4,0,0.6,0
			C111.7,59.6,112.2,60.6,112,61.8z"/>
		<path class="st10" d="M89.5,76.5c-1.7-0.2-3.3-0.5-5-0.7c0-0.1,0-0.1,0-0.2c1-0.2,1.9-0.4,2.9-0.6C88.4,75.1,89.6,74.8,89.5,76.5z
			"/>
		<path class="st4" d="M107.7,61.1c-0.9,0.8-1.9-0.1-2.8,0c-0.2-1.2,0.3-1.7,1.4-1.5c0.4,0.4,1.4,0.1,1.4,1.1
			C107.7,60.8,107.7,60.9,107.7,61.1z"/>
		<path class="st1" d="M111.9,69.2c-0.8,0.6-1.6,1.2-2.4,1.8C109.9,69.8,110.5,68.9,111.9,69.2z"/>
		<path class="st2" d="M97,73.4c-0.2,0.4-0.3,1-0.7,1.2c-0.6,0.5-1.3,0.8-1.5-0.4C95.6,73.9,96.3,73.6,97,73.4z"/>
		<path class="st10" d="M110.8,58.9c-0.2,0-0.4,0-0.6,0c0.2-0.7,0.4-1.4,0.6-2.1c0.1,0,0.3,0.1,0.4,0.1
			C111.1,57.6,110.9,58.2,110.8,58.9z"/>
		<path class="st1" d="M87.4,72.1c0.1-1.1,0.6-1.2,1.5-0.7C88.7,72.3,87.9,72,87.4,72.1z"/>
		<path class="st4" d="M105.6,69c-0.1,0.4-0.3,0.9-0.4,1.3c-0.1,0-0.2,0-0.3-0.1c0-0.3-0.1-0.6,0-0.9c0-0.2,0.3-0.4,0.4-0.5
			C105.4,69,105.5,69,105.6,69z"/>
		<path class="st4" d="M102.7,71.7c0.2,0.2,0.4,0.3,0.6,0.5c0,0-0.1,0.1-0.1,0.1C103,72.1,102.8,71.9,102.7,71.7L102.7,71.7z"/>
		<path class="st4" d="M100.6,66.2c-0.1,0.2-0.3,0.4-0.4,0.6c0,0-0.1-0.1-0.1-0.1C100.2,66.5,100.4,66.3,100.6,66.2L100.6,66.2z"/>
		<path class="st4" d="M105.7,68.2c0,0-0.1-0.1-0.1-0.1c0.1,0,0.1-0.1,0.2-0.1c0,0.1,0,0.1,0,0.2C105.8,68.1,105.8,68.1,105.7,68.2z
			"/>
		<path class="st4" d="M111.5,66.2c0,0,0,0.1-0.1,0.1c-0.1-0.1-0.1-0.1-0.1-0.2c0,0,0.1-0.1,0.1-0.1
			C111.5,66.1,111.5,66.1,111.5,66.2z"/>
		<path class="st10" d="M111.8,58.3c0,0-0.1-0.1-0.1-0.1c0.1,0,0.1-0.1,0.2-0.1c0,0.1,0,0.1,0,0.2C111.9,58.2,111.8,58.2,111.8,58.3
			z"/>
		<path class="st1" d="M115.9,33.4c0.1,0.1,0.2,0.1,0.3,0.2C116,33.6,115.9,33.5,115.9,33.4z"/>
		<path class="st4" d="M104.8,72.8c-0.1,0.1-0.2,0.2-0.4,0.4C104.6,73,104.7,72.9,104.8,72.8z"/>
		<path class="st9" d="M72.1,82.7c0.3,0.2,0.5,0.4,0.8,0.7c0.7-1,1.5-0.1,2-0.2c0.6,0.8,1.2,1.5,1.7,2.2c0.8-0.3,1.4-0.5,2.1-0.8
			c0.1,0.4,0.1,0.7,0.2,1.1c-0.8,0.4-1.6,0.7-2.4,1c0.1,0.4,0.2,0.8,0.3,1.1c-0.2,0.2-0.5,0.4-0.7,0.6c-0.2,0.5-0.4,1.1-0.6,1.6
			c-1.5-0.2-0.4-1.2-0.7-1.7c0-0.5,0.5-1.4-0.7-1.3c-0.2,0-0.5,0-0.7-0.1c0-0.2-0.1-0.3-0.1-0.5c0-0.4,0-0.7-0.1-1.1
			c0.7-0.3,0.7-0.3,0.2-0.9c-0.1,0.4-0.2,0.7-0.4,1c-0.4,0.3-0.8,0.7-1.2,1c-0.3,0.2-0.7,0.4-1,0.5c-0.8,0.2-1.7,0.5-2.5,0.7
			c-1.5-0.6-3.1-1.3-4.6-1.9c0.6-1,1.1-2,1.7-3c0.2-0.2,0.6-0.3,0.7-0.6c0.2-0.4,0-1,0.2-1.4c1.2-1.9,0.1-3.1-1.2-4.2
			c0.2-2.3,1-4.5,1.8-6.6c0.7-1.7,1.5-3.3,2.9-4.7c1.5-1.5,2.5-3.5,3.9-5.3c1.5-1.9,2.5-4.2,4.3-5.9c0.9-0.8,1.3-2.1,2-3.2
			c0.3,0,0.8,0.2,0.9,0.1c0.6-0.6,0.9,0,1.2,0.3c0,1.2,1.2,0.3,1.6,1.1c-0.8,0.4-1.6,0.9-2.4,1.3c-1.6,0.8-2,1.7-1.9,3.7
			c1.3-0.2,2.5-0.4,3.8-0.7c0.1,0.1,0.1,0.3,0.2,0.4c-0.4,0.4-0.7,1-1.1,1.3c-2.4,2-4.7,4.1-7.3,5.8c-3.4,2.3-4.8,5.5-5.2,9.4
			c-0.1,0.5-0.3,1.2-0.7,1.6c-1.3,1.3-0.8,3.2-1.3,4.8c-0.1,0.3,0.4,0.7,0.6,1.1c0.6-0.3,1.1-0.5,1.6-0.7c0.5,0.9-0.1,2.2,1.3,2.4
			C71.8,82.7,71.9,82.7,72.1,82.7z M67.3,83.3c-0.2,2,0.4,2.5,3,2.6c-0.1-1-0.2-2-0.2-2.9C69.2,83,68.3,83.1,67.3,83.3z"/>
		<path class="st1" d="M63.9,85.6c1.5,0.6,3.1,1.3,4.6,1.9c0,0.6,0,1.1,0,1.7c-1.1-0.4-2.2-0.8-3.5-1.2c0,0.7-0.1,1.2-0.1,1.7
			c0,0,0,0,0,0c-0.4-0.5-0.7-1-1.1-1.5c0.2-0.1,0.3-0.1,0.6-0.2c-0.2-0.1-0.4-0.2-0.6-0.2c0.1-0.2,0.2-0.4,0.3-0.7
			c-0.4,0-0.7,0-1.1,0.1C63.4,86.6,63.7,86.1,63.9,85.6z"/>
		<path class="st1" d="M61.7,88.9c-0.3,0.9-0.6,1.8-0.9,2.7c-0.5,1.4-1,2.7-1.6,4c-0.1,0.3-0.7,0.5-1,0.7c0-0.3-0.2-0.8-0.1-1
			c1-1.5,1.2-3.2,1.1-5c0-0.1,0-0.2,0.1-0.3C60.1,89.7,60.9,89.3,61.7,88.9z"/>
		<path class="st7" d="M82.4,51.2c-0.3-0.4-0.6-0.9-1.2-0.3c-0.1,0.1-0.6-0.1-0.9-0.1c0-0.1,0-0.2,0-0.3c0.5-0.6,1-1.2,1.4-1.9
			c0.2-0.1,0.4-0.3,0.7-0.4c0.1,0,0.2,0,0.3-0.1c0,0,0,0,0,0c0.4,0,0.8-0.2,1.2-0.1c0.2,0,0.4,0.3,0.7,0.5c0,0.7,0,1.3,0,2
			c-0.5-0.1-0.7-0.2-1-0.2c-0.3-0.1-0.5-0.2-0.8-0.3c0,0.1,0,0.2-0.1,0.3c0.3,0,0.5,0.1,0.8,0.1C83.5,51.2,82.9,51.1,82.4,51.2z"/>
		<path class="st8" d="M65.4,76.4c1.2,1.2,2.4,2.3,1.2,4.2c-0.2,0.4-0.1,1-0.2,1.4c-0.1,0.3-0.5,0.4-0.7,0.6
			c-0.3-1.4-0.6-2.8-0.8-4.2C64.8,77.8,65.2,77.1,65.4,76.4z"/>
		<path class="st11" d="M84.5,48.6c-0.2-0.2-0.4-0.5-0.7-0.5c-0.4-0.1-0.8,0.1-1.2,0.1c0.7-0.6,1.4-1.2,2.2-1.8
			c0.1,0.3,0.1,0.7,0.2,1.1c1-0.2,1.9-0.5,2.8-0.6c1.2-0.1,1.4-0.8,1.3-1.9c1.9-1,3.7-1,5.4,0.3c-0.8,0-1.6,0-2.5,0
			c0.5,1.2,0.5,1.2-0.1,2.1c-1.8,0.6-3.5,1.1-5.5,1.8C86,49,85.3,48.8,84.5,48.6z"/>
		<path class="st8" d="M91.9,47.3c0.6-0.9,0.6-0.9,0.1-2.1c0.9,0,1.7,0,2.5,0c0.1,0,0.2,0,0.3,0c0.8,0.7,1.7,1.4,2.5,2.1
			c-0.3,0.1-0.8,0-1,0.2c-0.9,0.9-1.6,0.4-2.3-0.2c-0.5-0.7-1-0.2-1.4,0c-0.2,0-0.5,0-0.7,0L91.9,47.3z"/>
		<path class="st12" d="M89.2,45c0.1,1-0.1,1.8-1.3,1.9c-0.9,0.1-1.8,0.4-2.8,0.6c-0.1-0.4-0.1-0.8-0.2-1.1
			C86.2,45.6,87.5,44.7,89.2,45z"/>
		<path class="st8" d="M104.5,40.9c0.8-0.6,1.6-1.3,2.4-1.9c0.1,0.1,0.2,0.2,0.3,0.3c-0.4,1.4-0.8,2.7-1.4,4.5
			c-0.5-1.3-0.8-2.1-1.1-2.9l-0.1,0.1L104.5,40.9z"/>
		<path class="st11" d="M82.7,48.1c-0.1,0-0.2,0-0.3,0.1C82.5,48.2,82.6,48.1,82.7,48.1z"/>
		<path class="st12" d="M114.1,70.7c2.1-0.9,3.7-1.2,5.3,0c0.5,0.4,1.1,1.2,1,1.5c-0.3,0.9,0.5,0.9,0.9,1.5
			c-1.2,0.3-2.3,0.9-3.3-0.4c-0.5-0.6-1.4-0.7-2.1-1.2C115.3,71.7,114.8,71.3,114.1,70.7z"/>
		<path class="st3" d="M102.9,79c0.3-0.2,0.6-0.5,0.8-0.7c2.7-0.8,5.5-1.5,8.2-2.3c0,0.1-0.1,0.3-0.1,0.4c-0.2,0.1-0.3,0.2-0.5,0.2
			c-1.6,0.5-1.6,0.5-1.7,2.3c-0.7,0.1-1.3,0.1-2.1,0.2c-0.7,1.3-2,1.3-3.3,1.3c0.1-0.6,0.3-1.2,0.4-1.8
			C104.3,79.8,103.6,79,102.9,79z"/>
		<path class="st12" d="M104.5,80.5c1.3,0,2.6-0.1,3.3-1.3c0.8-0.1,1.4-0.1,2.1-0.2c0.2,0.8,1,0.8,1.5,1.2c-0.7,0.2-1.3,0.4-1.9,0.7
			c-1.2,0.6-2.8,0.1-3.8,1.4c-0.6,0-1.2,0-1.8,0c0-0.4,0.1-0.8,0.2-1.5C103.9,80.8,104.2,80.7,104.5,80.5z"/>
		<path class="st10" d="M133,70.2c0.1,0,0.3,0,0.4,0c-0.1,0.8,0.2,1.6-0.7,2.1c-1.3,0.6-2.5,0.3-3.6-0.6c0.4-0.3,0.7-0.5,1.1-0.8
			c0,0.2,0.1,0.3,0.1,0.5c0.1-0.2,0.1-0.4,0.2-0.5c0.3-0.1,0.5-0.2,0.8-0.3c0.7,0.7,0.6,0.1,0.7-0.4C132.2,70.2,132.6,70.2,133,70.2
			z"/>
		<path class="st0" d="M105.5,82.3c1-1.3,2.6-0.8,3.8-1.4c0.6-0.3,1.3-0.4,1.9-0.7c0.8-0.2,1.6-0.4,2.4-0.5c0.3,0,0.6,0.2,0.9,0.4
			c-1.2,0.4-2.5,0.8-3.7,1.1c-0.5,0.1-1,0.2-1.4,0.3C108.1,81.8,106.8,82.1,105.5,82.3z"/>
		<path class="st12" d="M115.7,66.6c0.7-0.7,0.8-1.9,2-1.9c0.7,2.3,0.5,3-1.1,3.2C116.3,67.6,116,67.1,115.7,66.6z"/>
		<path class="st12" d="M139,71.7c0.4,1.1-0.2,1.6-1.1,1.8c-0.8,0.2-1.6,0.3-2.4,0.4C135.9,71.9,137.5,72,139,71.7z"/>
		<path class="st8" d="M114.2,75.8c-0.1-0.5-0.3-0.9-0.4-1.4c0-0.2,0.1-0.5,0.1-0.9c0.8,0.5,1.5,1,2.5,1.6
			C115.5,75.4,114.8,75.6,114.2,75.8z"/>
		<path class="st8" d="M111.9,76.5c0-0.1,0.1-0.3,0.1-0.4c0.1-0.1,0.1-0.1,0.2,0c0,0.5,0,1,0,1.6c0,0-0.1,0-0.1,0
			C112,77.2,112,76.8,111.9,76.5z"/>
		<path class="st12" d="M117.3,76.8c-0.4,0-0.8,0-1.2-0.1c0-0.1,0.1-0.2,0.1-0.3C116.6,76.5,116.9,76.7,117.3,76.8
			C117.3,76.8,117.3,76.8,117.3,76.8z"/>
		<path class="st8" d="M112.9,76c0.3-0.1,0.6-0.1,0.9-0.2C113.6,76.4,113.3,76.5,112.9,76z"/>
		<path class="st8" d="M114.7,76.8c-0.1,0.1-0.1,0.2-0.2,0.2c0-0.1-0.1-0.1-0.1-0.2c0,0,0.1-0.1,0.1-0.1
			C114.5,76.7,114.6,76.8,114.7,76.8z"/>
		<path class="st12" d="M124.4,77.1l-0.2,0l-0.2,0C124.2,77.1,124.3,77.1,124.4,77.1z"/>
		<path class="st3" d="M47.3,107.4c-0.3-0.2-0.6-0.4-1-0.6c0-0.2,0-0.3,0-0.5c-0.1,0-0.2-0.1-0.2-0.1c-0.2,0.5-0.5,0.9-0.7,1.4l0,0
			c-0.3,0.2-0.6,0.3-0.8,0.6c-0.7,0.8-1.3,1.6-2,2.4c-0.1-0.1-0.2-0.2-0.3-0.3c1.2-1.6,2.3-3.2,3.5-4.7c0.7-0.9,1.5-1.5,2.7-1.5
			c-0.3,0.4-0.6,0.9-1,1.3l0,0c-0.2,0-0.4,0.1-0.5,0.1c0,0.1,0,0.1,0,0.2c0.1,0,0.3,0,0.4,0c0.2,0.2,0.3,0.3,0.5,0.5
			C47.7,106.6,47.5,107,47.3,107.4z"/>
		<path class="st10" d="M142.6,68.8c0.5,0.2,0.9,0.5,1.6,0.8c2.1-0.3,2.1-0.3,2.6,0.4c-1.3,0.4-2.5,0.8-4,1.3
			C142.8,70.6,142.7,69.7,142.6,68.8L142.6,68.8z"/>
		<path class="st1" d="M149.7,71.5c-0.6,0.2-1,0.3-1.5,0.5c-0.3-0.5-0.6-1-0.9-1.5C149.1,70,149.1,70,149.7,71.5z"/>
		<path class="st12" d="M167.9,85.3c0.3,0.5,0.6,1,0.9,1.5c0.6-0.3,0.5-1.6,1.6-1.2c-1.4,3.4-2.7,6.8-4.1,10.2
			c-0.3-0.1-0.6-0.2-1-0.4c0.1-0.5,0.3-1,0.4-1.5c0.8,0,0.6-0.6,0.6-1.1c0-0.4,0-0.8,0-0.9c-0.6,0-1.2,0.1-1.7,0.1
			c0.5-1.3,1-2.7,1.5-4C167.3,87.6,167.4,86.3,167.9,85.3z"/>
		<path class="st9" d="M165.4,95.5c0.3,0.1,0.6,0.2,1,0.4c-0.8,2.8-1.7,5.4-3.4,7.9c-1.8,2.6-3.2,5.5-4.7,8.2
			c-0.7,0.1-0.7-0.3-0.6-0.8c0.1-0.6,0.2-1.1,0.3-1.7l0,0c0.9,0.1,0.7-0.6,0.7-1.1l0,0c0.7-0.6,1.2-1.2,1.1-2.2l0,0
			c0.9-0.3,1.2-0.9,1.1-1.9l0,0c0.9,0.1,0.9-0.5,0.7-1.1l0,0c0.8,0,0.9-0.4,0.7-1.1l0,0c1-0.2,1.2-1,1.1-1.8l0,0
			c0.3-0.4,0.6-0.7,0.8-1.2C164.5,97.9,164.9,96.7,165.4,95.5z"/>
		<path class="st1" d="M138.7,86.4c-1-0.3-2.1-0.5-3.1-1c-0.3-0.1-0.4-0.7-0.6-1.3c0.7-0.3,1.1-0.5,1.6-0.7c1.6-0.5,1.7-0.4,2.2,1.3
			c0.1,0.3,0.4,0.5,0.6,0.8C139.1,85.9,138.9,86.1,138.7,86.4z"/>
		<path class="st11" d="M138.7,86.4c0.2-0.3,0.4-0.5,0.6-0.8c0.3-0.1,0.5-0.2,0.8-0.4c0.5-0.2,1-0.5,1.5-0.7c0.1,0,0.2,0,0.3-0.1
			c0.9,0.6,0.9,1.5-0.1,2.2c-0.6,0.4-1.1,0.8-1.7,1.2c-0.6,0.1-1.3,0.1-1.9,0.2c-0.1-0.1-0.1-0.3-0.2-0.4
			C138.2,87.2,138.5,86.8,138.7,86.4z"/>
		<path class="st1" d="M141.6,84.5c-0.5,0.2-1,0.5-1.5,0.7c-0.3-0.2-0.5-0.4-1.1-0.8c0.9-0.3,1.4-0.5,1.8-0.7
			c0.1,0.2,0.2,0.5,0.4,0.7C141.3,84.5,141.4,84.5,141.6,84.5z"/>
		<path class="st8" d="M141.2,84.5c-0.1-0.2-0.2-0.5-0.4-0.7C140.9,84,141,84.3,141.2,84.5z"/>
		<path class="st10" d="M57.8,98.1c0.2,0.3,0.4,0.5,0.5,0.8c0,1-0.1,2.1-0.1,3.1c0.1,0.6,0.5,1.2,0.7,1.7c0.1,0.1,0.2,0.2,0.3,0.3
			c0,0.4,0,0.7,0.1,1.1c-0.6,0-1.1-0.1-1.8-0.1c-0.1-1.1-0.1-2.1-0.2-3.1c-0.2,0-0.4,0-0.5,0c0.1,0.7,0.2,1.4,0.2,2.1
			c-0.4,1.5-0.9,3.1-1.3,4.6c-0.3,0-0.5,0-0.8,0l0,0c-0.1-0.2-0.1-0.4-0.2-0.6c-0.1-0.4-0.1-0.7-0.2-1.1c0.1-0.7,0.1-1.3,0.2-2.1
			c1-0.4,1.1-1.6,1.4-2.8c0.2-1.1,0.5-2.2,0.8-3.3C57.1,98.5,57.5,98.3,57.8,98.1z"/>
		<path class="st11" d="M48.5,112c0-0.1,0-0.1,0.1-0.2c1.1-1.5,2.3-2.9,1.9-5c0-0.2,0.4-0.4,0.9-0.8c0.1,1,0.1,1.8,0.2,2.6
			c0.9-0.1,1.7-0.2,2.4-0.4c0.2,0.1,0.4,0.2,0.6,0.3l0.1,0l0.1,0c0.1,0.8,0.2,1.5,0.3,2.3c-0.1,1.4,0.9,2.1,1.8,2.9
			c0,0.6,0,1.2,0,1.8c-0.8,0.2-1.7,0.5-2.5,0.7c-1,0.2-1.1-0.9-1.7-1.3c0.3-0.7,0.9-1.4,0.3-2.2c-0.7,0.3-1.2,0.6-1.8,0.8
			c0,0-0.1-0.1-0.1-0.1c0-0.9,0.1-1.8,0.1-2.6c-0.1,0-0.2,0-0.3,0c-0.2,0.9-0.3,1.7-0.5,2.6c-0.7,0.6-1.4,0.4-2-0.3
			C48.4,112.8,48.5,112.4,48.5,112z"/>
		<path class="st0" d="M51.2,119.3c-0.3-0.8-0.6-1.7-0.9-2.5c0.3-0.2,0.7-0.3,1.1-0.5c0.4,0.2,0.9,0.5,1.4,0.7
			C53.1,118.4,51.9,118.7,51.2,119.3z"/>
		<path class="st3" d="M56.8,115.6c0-0.6,0-1.2,0-1.8c0.5-0.3,0.9-0.5,1.4-0.8c0.7,1,0.5,1.8-0.4,2.5
			C57.4,115.6,57.1,115.6,56.8,115.6z"/>
		<path class="st8" d="M51,113.6c0.6-0.3,1.1-0.5,1.8-0.8c0.7,0.8,0.1,1.5-0.3,2.2c-1.1,0.2-1.1,0.2-1.2-1.1
			C51.4,113.8,51.2,113.7,51,113.6z"/>
		<path class="st8" d="M50.3,113.5c0.2-0.9,0.3-1.7,0.5-2.6c0.1,0,0.2,0,0.3,0c0,0.9-0.1,1.8-0.1,2.6
			C50.7,113.5,50.5,113.5,50.3,113.5z"/>
		<path class="st8" d="M116.6,33.2c0-0.3,0-0.6,0-1c-0.1-0.5-0.1-1.1-0.2-1.6c0.4,0.7,0.9,1.4,1.4,2.2C117.3,33,117,33.1,116.6,33.2
			z"/>
		<path class="st8" d="M118.6,31.4c-0.1,0.1-0.2,0.1-0.3,0.2c-0.1-0.1-0.1-0.3-0.2-0.4c0.1,0,0.2-0.1,0.3-0.1
			C118.6,31.2,118.6,31.3,118.6,31.4z"/>
		<path class="st8" d="M116.4,30.3c-0.1-0.1-0.1-0.3-0.2-0.4c0.2,0.1,0.4,0.2,0.5,0.3C116.6,30.2,116.5,30.3,116.4,30.3z"/>
		<path class="st4" d="M152.6,101.4c0.6,0,1.3,0,1.9,0c1.9,0.5,2.7,0.3,4-0.6c0.7,0.1,1.3,0.2,1.9,0.2c0,0.3,0,0.5,0,0.8
			c-1.1,1.9-2.2,3.8-3.3,5.7c-0.3,0.4-0.6,0.9-0.9,1.3c-0.3-0.4-0.7-0.8-0.8-1.2c-0.4-2.5-0.6-2.8-3.2-2.9c0-0.1,0-0.3-0.1-0.4
			C152.3,103.3,152.5,102.4,152.6,101.4z"/>
		<path class="st3" d="M152.6,101.4c-0.2,0.9-0.3,1.9-0.5,2.8c-1.2,0.2-1.3-0.6-1.3-1.5c0-0.6,0-1.2,0-2.2c0.3-0.1,0.8-0.4,1.4-0.7
			C152.3,100.4,152.5,100.9,152.6,101.4z"/>
		<path class="st6" d="M159.3,92.9c0.1,0.5-0.3,1.3,0.6,1.5c0.3,0.1,0.5,0.3,0.8,0.4l0,0c0.1,0.1,0.2,0.3,0.4,0.4l0,0
			c0.1,0.9-0.1,1.6-0.8,2.2c-0.3,0.3-0.6,0.7-0.9,1.1c-0.2,0.1-0.3,0.3-0.5,0.4c-0.8,0-1.5,0-2.2,0c-0.8-2.1-0.2-3.9,0.6-5.8
			C157.9,93,158.6,93,159.3,92.9z"/>
		<path class="st10" d="M158.9,98.9c0.2-0.1,0.3-0.3,0.5-0.4c0.9,0.2,1.4-0.1,1.9-0.9c0.5-0.8,1.1-1.6,1.6-2.3c-0.3,2.1-0.7,4.2-2,6
			c-0.1-0.1-0.2-0.2-0.3-0.3c0-0.3,0.1-0.7,0.1-0.9C160.3,99.2,159,100.1,158.9,98.9z"/>
		<path class="st10" d="M160.4,101.8c0-0.3,0-0.5,0-0.8c0-0.1,0.1-0.2,0.2-0.2c0.1,0.1,0.2,0.2,0.3,0.3
			C160.7,101.3,160.6,101.6,160.4,101.8z"/>
		<path class="st3" d="M47.8,110.2c-0.4-0.5-0.9-1,0-1.4C47.8,109.2,47.8,109.7,47.8,110.2z"/>
		<path class="st11" d="M47.9,106.2c-0.2-0.2-0.3-0.3-0.5-0.5c0-0.1,0-0.2,0.1-0.2l0,0c0.3,0,0.6,0,1.2,0
			C48.3,105.8,48.1,106,47.9,106.2z"/>
		<path class="st11" d="M54.8,108c0.1,0.2,0.1,0.4,0.2,0.6c-0.2,0-0.4,0-0.6,0c-0.1-0.1-0.2-0.2-0.2-0.3
			C54.4,108.2,54.6,108.1,54.8,108z"/>
		<path class="st3" d="M54.4,108.6c-0.2-0.1-0.4-0.2-0.6-0.3c0.1,0,0.2,0,0.3-0.1C54.2,108.3,54.3,108.4,54.4,108.6L54.4,108.6z"/>
		<path class="st8" d="M52.8,158.2c0-0.1,0-0.2,0-0.3c0.1,0,0.2,0,0.3,0l0,0C53.1,158,53,158.1,52.8,158.2z"/>
		<path class="st8" d="M53.2,157.9c0.1-0.1,0.1-0.1,0.2-0.2C53.3,157.8,53.3,157.8,53.2,157.9L53.2,157.9z"/>
		<path class="st9" d="M160.4,101.8c0.1-0.2,0.3-0.5,0.4-0.7c1.3-1.8,1.8-3.8,2-6l0,0c0.4-0.5,0.8-1,1.2-1.5
			c0.8-0.2,1.5-0.4,2.3-0.7c0,0.5,0.2,1.1-0.6,1.1c-0.3,0.3-0.8,0.5-0.9,0.8c-0.6,1.8-1.1,3.6-1.6,5.4c0,0,0,0,0,0
			c-0.4,0.6-0.7,1.2-1.1,1.8c0,0,0,0,0,0c-0.2,0.4-0.5,0.7-0.7,1.1c0,0,0,0,0,0c-0.2,0.4-0.5,0.7-0.7,1.1c0,0,0,0,0,0
			c-0.4,0.6-0.7,1.2-1.1,1.9c0,0,0,0,0,0c-0.4,0.7-0.7,1.5-1.1,2.2c0,0,0,0,0,0c-0.2,0.4-0.5,0.7-0.7,1.1c0,0,0,0,0,0
			c-0.4,0.5-0.9,1-1.4,1.6c-0.3-0.5-0.5-0.9-0.7-1.2c0.1-0.4,0.3-0.7,0.4-1.1c0.3-0.4,0.6-0.8,0.9-1.3
			C158.2,105.6,159.3,103.7,160.4,101.8z"/>
		<path class="st3" d="M61.8,145.8c-0.2,0.5-0.3,0.9-0.5,1.4c-0.1-0.1-0.3-0.1-0.4-0.2c0.2-0.5,0.5-0.9,0.7-1.4
			C61.7,145.7,61.8,145.8,61.8,145.8z"/>
		<path class="st3" d="M60.6,148.5c0,0-0.1,0.1-0.1,0.1c0,0-0.1-0.1-0.1-0.1c0,0,0.1-0.1,0.1-0.1C60.5,148.4,60.6,148.5,60.6,148.5z
			"/>
		<path class="st3" d="M60.8,147.7C60.8,147.7,60.9,147.7,60.8,147.7c0.1,0,0.1,0.1,0.1,0.1c-0.1,0-0.1,0-0.2,0
			C60.8,147.8,60.8,147.7,60.8,147.7z"/>
		<path class="st10" d="M164.1,93.6c-0.4,0.5-0.8,1-1.2,1.5c0.4-1.8,0.8-3.6,1.4-5.4c0.2-0.7,0.8-1.3,1.1-2c0.2,0.1,0.5,0.2,0.7,0.4
			c-0.5,1.3-1,2.7-1.5,4C164.5,92.7,164.3,93.2,164.1,93.6z"/>
		<path class="st3" d="M160.8,94.8c-0.3-0.1-0.5-0.3-0.8-0.4c0.1-0.1,0.3-0.2,0.4-0.4C160.5,94.3,160.6,94.5,160.8,94.8z"/>
		<path class="st3" d="M161.1,95.2c-0.1-0.1-0.2-0.3-0.4-0.4C160.9,94.9,161,95,161.1,95.2z"/>
		<path class="st5" d="M131.9,70.2c-0.1,0.5,0,1.1-0.7,0.4C131.4,70.4,131.7,70.3,131.9,70.2z"/>
		<path class="st5" d="M130.4,70.9c-0.1,0.2-0.1,0.4-0.2,0.5c0-0.2-0.1-0.3-0.1-0.5C130.2,70.9,130.3,70.9,130.4,70.9z"/>
		<path class="st4" d="M45,164.8c0.1,0,0.2,0.1,0.3,0.1c-0.1,0-0.1,0.1-0.2,0.1C45.1,165,45.1,164.9,45,164.8
			C45,164.8,45,164.8,45,164.8z"/>
		<path class="st6" d="M43.5,120.6c-0.2,0-0.4,0-0.6-0.1c-1.4,0.1-2.1,0.9-2.5,2.2c0,0,0,0,0,0c-0.4,0-0.7,0-1.1,0
			c-1-0.6,0.1-1.2,0-1.8c0,0,0,0,0,0c0.4-0.4,0.8-0.8,1.2-1.2c0.8-0.8,1.7-1.5,2.5-2.2c0.9,0.1,1.4-0.1,0.9-1.2
			c-0.1-0.3-0.1-0.6-0.1-0.9c0.5-0.2,1.1-0.4,1.7-0.6c0.2,1.1,0.5,2.3,0.7,3.4c0,0.2-0.3,0.4-0.4,0.5c-0.6,0-1.2,0-1.9,0
			C43.8,119.4,43.7,120,43.5,120.6z"/>
		<path class="st4" d="M43.9,115.4c0,0.3,0,0.6,0.1,0.9c0.4,1-0.1,1.3-0.9,1.2c0.1-0.8,0.6-1.7-0.2-2.4c-0.5-1.1-1.3-0.7-2-0.4
			c0.2-0.5,0.3-1,0.5-1.5c0.1-0.4,0.3-0.7,0.4-1.1l0,0c0.8,0.1,1.7-0.4,2.2,0.5C44,113.5,44,114.4,43.9,115.4z"/>
		<path class="st10" d="M43.5,120.6c0.2-0.6,0.4-1.2,0.6-1.9c0.7,0,1.3,0,1.9,0c0.1,0.6,0.2,1.2,0.3,1.9c-0.3,0.2-0.7,0.6-1.2,1.1
			C44.5,121.6,43.7,121.6,43.5,120.6z"/>
		<path class="st1" d="M44.1,112.5c-0.6-0.9-1.5-0.3-2.2-0.5c0.3-0.5,0.5-0.9,0.8-1.4c0.7-0.8,1.3-1.6,2-2.4
			c0.2-0.2,0.5-0.4,0.8-0.6c0,0.3,0,0.5,0,0.8c0,0,0,0,0,0c-0.7,0.3-1.2,0.8-1.1,1.6c-0.3,0.4-0.5,0.7,0.1,1
			C44.1,111.5,45.3,112.3,44.1,112.5z"/>
		<path class="st4" d="M40.4,122.7c0.3-1.3,1.1-2.1,2.5-2.2c0.1,0.6,0.2,1.1,0.3,1.9c-0.5-0.3-0.9-0.5-1.4-0.8
			c0.1,0.8,0.2,1.5,0.3,2.1C41.6,123.4,41,123.1,40.4,122.7z"/>
		<path class="st4" d="M44.4,111c-0.6-0.3-0.3-0.6-0.1-1c0.4-0.5,0.7-1.1,1.1-1.6l0,0c0.4,0,0.9-0.1,1.3-0.1c0,0,0.1,0.3,0.1,0.5
			c-0.9-0.2-0.7,0.5-0.7,1c-0.3,0.3-0.5,0.6-0.8,0.8C45,110.8,44.7,110.9,44.4,111z"/>
		<path class="st3" d="M46.1,109.8c0-0.5-0.2-1.1,0.7-1C46.8,109.4,46.8,109.8,46.1,109.8z"/>
		<path class="st1" d="M45.4,107.6c0.2-0.5,0.5-0.9,0.7-1.4c0.1,0,0.2,0.1,0.2,0.1c0,0.2,0,0.3,0,0.5
			C46,107.1,45.7,107.4,45.4,107.6z"/>
		<path class="st11" d="M42.9,115c0.7,0.8,0.2,1.6,0.2,2.4c-0.8,0.7-1.7,1.5-2.5,2.2c-0.4,0.4-0.8,0.8-1.2,1.2
			c-0.1-0.7-0.4-0.9-1.1-0.6c-0.5,0.3-0.7,0-0.8-0.5c0.7-0.3,1.4-0.5,1.9-1C40.7,117.6,41.8,116.3,42.9,115z"/>
		<path class="st6" d="M42.9,115c-1.1,1.3-2.2,2.6-3.5,3.8c-0.5,0.5-1.3,0.6-1.9,1c0.9-1.3,1.8-2.6,2.6-4c0.3-0.4,0.5-0.8,0.8-1.2
			C41.7,114.3,42.4,113.9,42.9,115z"/>
		<path class="st11" d="M39.4,120.9c0.1,0.6-1,1.2,0,1.8c0,0.1,0,0.2-0.1,0.3c-0.1,0-0.2,0-0.3,0.1c-0.1,0.1-0.3,0.2-0.4,0.4
			c-0.2,0-0.5,0.1-0.7,0.1c-0.4-0.3-0.7-0.6-1.1-0.9l0,0c0.7,0.1,1.2-0.1,1.5-0.9C38.4,121.4,39,121.2,39.4,120.9z"/>
		<path class="st10" d="M36.1,125.2c-0.1,1.2-0.2,2.5-0.4,3.7c-0.8-2-0.5-4.1,0.2-6.1c0.1,0.1,0.1,0.1,0.2,0.2
			C36.1,123.8,36.1,124.5,36.1,125.2z"/>
		<path class="st10" d="M35.9,122.9c0.2-0.2-0.1-1,0.6-0.5c0,0.1,0,0.2,0,0.3c-0.1,0.2-0.3,0.3-0.4,0.5
			C36.1,123,36,122.9,35.9,122.9z"/>
		<path class="st1" d="M41.8,112c-0.1,0.4-0.3,0.7-0.4,1.1C41.5,112.7,41.7,112.4,41.8,112z"/>
		<path class="st10" d="M35.7,128.9c0.1,0.3,0.2,0.5,0.4,0.8C36,129.4,35.9,129.1,35.7,128.9z"/>
		<path class="st11" d="M36.5,122.6c0-0.1,0-0.2,0-0.3c0.1,0.1,0.2,0.2,0.3,0.3l0,0C36.7,122.7,36.6,122.7,36.5,122.6z"/>
		<path class="st10" d="M39,123c0.1,0,0.2-0.1,0.3-0.1c0,0.8,0.6,0.8,1.2,0.8c0.2,0.1,0.3,0.3,0.5,0.4c0,0.1-0.1,0.2-0.1,0.2
			c-0.4-0.1-0.9-0.2-1.5-0.4c0,0.6-0.1,1.1-0.1,1.8c-0.6-0.1-1.2-0.2-1.7-0.3c0.1-0.7,0.2-1.4,0.3-2c0.2,0,0.5-0.1,0.7-0.1
			C38.7,123.3,38.9,123.2,39,123z"/>
		<path class="st6" d="M37.9,123.5c-0.1,0.7-0.2,1.4-0.3,2c-0.5-0.1-0.9-0.3-1.4-0.4c0-0.7,0-1.4,0-2.1c0.1-0.2,0.3-0.3,0.4-0.5
			c0.1,0.1,0.2,0.1,0.3,0.1C37.2,123,37.5,123.3,37.9,123.5z"/>
		<path class="st4" d="M40.4,123.7c-0.5,0-1.1,0.1-1.2-0.8c0-0.1,0.1-0.2,0.1-0.3c0.4,0,0.7,0,1.1,0C40.4,123,40.4,123.4,40.4,123.7
			z"/>
		<path class="st0" d="M89.2,54.5c0,0.2,0,0.5,0,0.7c0.2,1,0.4,2,0.7,3c0,0.1-0.1,0.2-0.1,0.3c-0.9,0.3-0.6,1-0.5,1.6
			c0,0.5-0.1,1-0.1,1.4c-1.2-0.2-2.1,0.2-2.8,1.2c-0.7,0.9-1.3,1.9-2,2.7c-0.7,0.9-1.5,1.7-2.2,2.6c-1.3,1.7-2.5,3.5-3.8,5.2
			c-0.6,0.8-1.2,1.6-1.7,2.5c-0.4,0.7-0.8,1.4-1.2,2.1c-0.2,0-0.4,0.1-0.7,0.1c0.1-1.1,0.2-2.2,0.4-3.2l0,0c0.4-0.7,0.7-1.5,1.1-2.2
			l0,0c0.1-0.1,0.3-0.3,0.4-0.4c0.4-1.2,0.7-2.4,1.1-3.5c0.1-0.2,0.4-0.3,0.7-0.5c0,0.2,0.1,0.3,0.1,0.5c0.1,0,0.1-0.1,0.2-0.1
			c-0.1-0.1-0.2-0.3-0.3-0.4c-0.4-0.3-0.9-0.5-1.2-0.8c-0.9,0.9-1.5,2.1-2,3.3c-1.2,0.1-0.4,1.4-0.9,1.8c-0.6-1.2-1.1-2.5-1.7-3.7
			c0.4-2,1.9-3,3.5-4c3.8-2.4,7.7-4.8,9.3-9.5c0.7,0.1,1.4-0.1,1.8-0.8C88,54.1,88.6,53.8,89.2,54.5z"/>
		<path class="st4" d="M68.5,89.3c0-0.6,0-1.1,0-1.7c0.8-0.2,1.7-0.5,2.5-0.7c0.7,0.5,0.8-0.1,1-0.5c0.4-0.3,0.8-0.7,1.2-1
			c0,0,0.1,0,0.1,0c0,0.4,0,0.7,0.1,1.1c-0.7,0-1.1,0.2-0.7,1.2c0.3-0.3,0.5-0.5,0.8-0.7c0.2,0,0.5,0,0.7,0.1
			c0.1,0.5-0.2,1.2,0.7,1.3c0.3,0.5-0.8,1.5,0.7,1.7c0.2-0.5,0.3-1.1,0.6-1.6c0.1-0.3,0.4-0.4,0.7-0.6c-0.1,0.8-0.2,1.5-0.3,2.3
			c0.1,0.7,0.2,1.4,0.2,2.2c-0.5,0.7-1.3,1.3-2.4,1.1c-0.4,0-0.8-0.1-1.3-0.1c0.2-0.5,0.3-1,0.5-1.6c-1.5,0.8-2.7,1.4-4,2.1
			c-0.9,0-1.9,0-2.8,0c-0.7-0.3-1.6-0.5-1.1-1.8c0.2-0.4-0.2-1-0.4-1.5c0.1-0.1,0.2-0.3,0.3-0.4c0.4,0.2,0.9,0.6,1.3,0.6
			c1.9,0,3.8-0.1,5.5-1.3c-0.6-0.8-1.4-0.1-2.1-0.1c-0.3-0.1-0.6-0.2-0.9-0.3C69.1,89.1,68.8,89.2,68.5,89.3z"/>
		<path class="st10" d="M69.5,93.7c1.3-0.7,2.5-1.3,4-2.1c-0.2,0.7-0.4,1.1-0.5,1.6c0.4,0,0.9,0.1,1.3,0.1c-0.1,0.6-0.3,1.3-0.2,1.9
			c0.2,1.4-0.4,2.5-1.7,3c-0.1,0-0.2,0.1-0.3,0.1c-2.8,0.9-2.8,0.9-3.5-2c-0.1-0.2-0.2-0.4-0.3-0.7C68.8,95.1,69.9,94.9,69.5,93.7z"
			/>
		<path class="st1" d="M75.6,77.8c0.4-0.7,0.8-1.5,1.2-2.1c0.5-0.8,1.1-1.7,1.7-2.5c1.2-1.8,2.5-3.5,3.8-5.2
			c0.7-0.9,1.5-1.7,2.2-2.6c0.7-0.9,1.3-1.8,2-2.7c0.7-1,1.6-1.4,2.8-1.2c0.6,0.5-0.1,0.6-0.3,0.9c-0.8,0.8-2,1.3-1.9,2.8
			c-0.2,0-0.4-0.1-0.5,0c-1.2,1.5-2.9,2.4-3.7,4.3c-0.7,1.6-1.7,3.1-3.2,4c-1.4,0.8-1.8,2.3-2,4C76.8,77.5,76.2,77.6,75.6,77.8z"/>
		<path class="st3" d="M76.4,90c0.1-0.8,0.2-1.5,0.3-2.3c-0.1-0.3-0.2-0.7-0.3-1.1c0.8-0.3,1.6-0.7,2.4-1c1.2-0.2,2.4-0.5,3.5-0.7
			c-0.1,1.4-0.3,2.7-0.4,4.1C80.1,89.3,78.3,89.7,76.4,90z"/>
		<path class="st0" d="M102,73.9c2.1,1.2,2.2,2.7,0.5,4.3c-0.2,0.2-0.4,0.4-0.6,0.6c-1.4,0.5-2.8,0.9-4.2,1.4c-0.1,0-0.3,0-0.4,0.1
			c-0.2,0-0.4,0.1-0.6,0.1c-0.1-0.1-0.2-0.1-0.4-0.2c0.2-0.5,0.4-1,0.6-1.5c1.2-0.9,2.5-1.8,3.6-2.8C101.2,75.3,101.5,74.6,102,73.9
			z"/>
		<path class="st8" d="M83.5,84.1c0.3-0.4,0.5-0.8,1-1.4c0.1,1.1,0.1,1.8,0.1,2.6c-0.2,0.1-0.4,0.2-0.6,0.3c0.5,0.5,0.9,0.8,1.3,1.2
			c-0.9,0.9,0.8,0.6,0.6,1.2c-0.9,0.9-0.9,0.9-1.8,0.7c-0.4-0.1-0.8,0-1.2,0C83,87.1,83.2,85.6,83.5,84.1z"/>
		<path class="st5" d="M57.1,104c-0.1-0.7-0.2-1.4-0.2-2.1c0.2,0,0.4,0,0.5,0c0.1,1,0.1,1.9,0.2,3.1c0.6,0,1.2,0.1,1.8,0.1
			c0.1,0.2,0.2,0.3,0.3,0.5c-0.1,0.1-0.2,0.2-0.4,0.3c-0.2,0.4-0.5,0.7-0.7,1.1c-0.1-0.1-0.3-0.2-0.4-0.2c0,0.6,0,1.3,0,1.9
			c0.1-0.1,0.3-0.2,0.4-0.3c0.4,0.2,0.7,0.5,1.1,0.7c0,0.8-0.4,0.9-1,0.8c-0.9,0-1.8,0.1-2.2-1c0.7-0.1,0.8-0.5,0.8-1.2
			C57.1,106.5,57.1,105.2,57.1,104z"/>
		<path class="st10" d="M72.1,82.7c-0.1,0-0.2,0-0.4,0c-0.1-0.7-0.3-1.4-0.4-2.1c-0.1-0.4-0.1-0.8-0.2-1.2c-0.2-1.2,0.3-2.3,0.6-3.4
			c0.3,0.2,0.5,0.6,0.8,0.7c0.3,0.1,0.7,0,1.1,0.1c0,0.5,0,1,0,1.4c-0.3,0.2-0.7,0.4-0.9,0.5C72.4,80.2,72.2,81.4,72.1,82.7z"/>
		<path class="st7" d="M87,83.3c1.9-1,4-1.5,6.4-1.8c-0.2,0.7-0.3,1.2-0.5,1.8c-0.2-0.6-0.2-0.9-0.3-1.2c-0.7,0.4-1.5,1.3-2,1.2
			c-0.7-0.2-1.2-0.4-1.7-0.2c-0.4,0.5-0.8,1-1.1,1.4C86.9,84.5,87.1,83.9,87,83.3z"/>
		<path class="st7" d="M96.3,80.1c0.1,0.1,0.2,0.1,0.4,0.2c-0.2,0.6-0.6,1.2-0.7,1.8c-0.2,0.9-0.7,1.1-1.6,1.2
			c-0.2-0.8-0.3-1.5-0.5-2.3C94.7,80.8,95.5,80.4,96.3,80.1z"/>
		<path class="st10" d="M64.7,103.6c-0.2-0.3-0.7-0.6-0.8-1.1c-0.2-0.7,0.7-1.4,1.8-1.5c0.3,0,0.9,0.4,0.9,0.7
			C66.9,102.5,65.9,103.5,64.7,103.6z"/>
		<path class="st4" d="M82.8,77.7c-0.1-0.2-0.1-0.4-0.3-0.9c1.7,0,3.4,0,5,0c0.2,0,0.3,0.4,0.5,0.6C86.4,78.2,84.6,78.1,82.8,77.7z"
			/>
		<path class="st10" d="M87,83.3c0,0.5-0.1,1.2,0.8,1.2c-0.5,0.7-1,1.5-1.4,2.2c-0.4,0-0.7,0-1.1,0c-0.4-0.4-0.8-0.7-1.3-1.2
			c0.2-0.1,0.4-0.2,0.6-0.3c0.3,0.1,0.5,0.2,0.7,0.3C85.9,84.8,86.5,84.1,87,83.3z"/>
		<path class="st8" d="M69.5,93.7c0.3,1.2-0.8,1.3-1.2,1.9c-0.5-0.1-1.1-0.2-1.7-0.3c0.1-0.5,0.1-1.1,0.2-1.7
			C67.7,93.7,68.6,93.7,69.5,93.7z"/>
		<path class="st0" d="M85.2,86.7c0.4,0,0.7,0,1.1,0c0.1,2.7-1,3.5-3.7,2.7c0-0.3,0.1-0.5,0.1-0.8c0.4,0,0.8-0.1,1.2,0
			c0.9,0.1,0.9,0.2,1.8-0.7C86,87.3,84.4,87.6,85.2,86.7z"/>
		<path class="st10" d="M82.8,88.6c0,0.3-0.1,0.5-0.1,0.8c-0.3-0.2-0.5-0.3-0.8-0.5c0.1-1.4,0.3-2.7,0.4-4.1
			c0.4-0.3,0.7-0.5,1.1-0.8C83.2,85.6,83,87.1,82.8,88.6z"/>
		<path class="st1" d="M75.3,74.6c-0.1,1.1-0.2,2.2-0.4,3.2c-0.4,0.1-0.7,0.2-1.1,0.4c0.1-0.7,0.3-1.4,0.4-2.1l0,0
			C74.6,75.6,74.9,75.1,75.3,74.6z"/>
		<path class="st8" d="M60.3,101.8c0.1-0.8,0.4-1.4,1.1-1.6C61.3,100.9,61.2,101.6,60.3,101.8L60.3,101.8z"/>
		<path class="st8" d="M60.3,101.8c-0.2,0.5-0.4,1-0.7,1.5l-0.1-0.1C59.8,102.7,60.1,102.2,60.3,101.8L60.3,101.8z"/>
		<path class="st8" d="M59.2,104c-0.1-0.1-0.2-0.2-0.3-0.3c0.2-0.2,0.4-0.4,0.6-0.5l0.1,0.1C59.5,103.5,59.4,103.7,59.2,104z"/>
		<path class="st1" d="M65.6,90c-0.1,0.1-0.2,0.3-0.3,0.4c-0.1-0.3-0.2-0.5-0.3-0.8l0,0C65.2,89.8,65.4,89.9,65.6,90z"/>
		<path class="st7" d="M97.2,81.7c0,0.3,0,0.4,0.1,0.6c-0.1-0.1-0.2-0.1-0.3-0.2C97,82,97.1,81.9,97.2,81.7z"/>
		<path class="st7" d="M97.3,80.3c0.1,0,0.3,0,0.4-0.1c0,0.3-0.1,0.5-0.1,0.8c-0.1,0-0.1,0-0.2,0C97.4,80.8,97.4,80.5,97.3,80.3z"/>
		<path class="st11" d="M94.8,79.3c0,0.2,0,0.4,0,0.6c0,0-0.1,0-0.1,0c0-0.2,0-0.4,0-0.6C94.7,79.3,94.7,79.3,94.8,79.3z"/>
		<path class="st3" d="M63.9,87.8c0.2,0.1,0.3,0.1,0.6,0.2c-0.2,0.1-0.4,0.1-0.6,0.2C63.9,88.1,63.9,87.9,63.9,87.8z"/>
		<path class="st10" d="M109.5,81.6c0.5-0.1,1-0.2,1.4-0.3c-0.4,0.6-0.8,1.2-1.3,1.8c-0.4,0.5-0.8,1-1.3,1.5
			c-0.1,0.1-0.2,0.2-0.3,0.3c-0.4,0-0.7,0-1.1,0c0.7-0.8,1.5-1.6,2.2-2.5C109.4,82.2,109.4,81.9,109.5,81.6z"/>
		<path class="st10" d="M110.5,84.5c0.2-0.2,0.4-0.6,0.6-0.7c1.2-0.4,2.4-0.8,3.7-1.1c-0.1,0.2-0.2,0.7-0.4,0.7
			C113.1,83.8,111.8,84.1,110.5,84.5z"/>
		<path class="st5" d="M107,84.9c0.4,0,0.7,0,1.1,0c0,0.8-0.5,0.8-1.1,0.7C107,85.4,107,85.1,107,84.9z"/>
		<path class="st10" d="M109.8,84.5c0.2,0,0.5,0,0.7,0C110.3,84.5,110.1,84.5,109.8,84.5z"/>
		<path class="st0" d="M98.8,89.6c0.1-0.1,0.1-0.1,0.2-0.2C98.9,89.5,98.8,89.6,98.8,89.6C98.8,89.7,98.8,89.6,98.8,89.6z"/>
		<path class="st10" d="M58.2,113.1c-0.5,0.3-0.9,0.5-1.4,0.8c-0.9-0.8-1.9-1.5-1.8-2.9c0.5,0.5,1.1,1.1,1.6,1.6
			c0.6-0.6,1.2-1.2,1.8-1.8l0.1,0.1c0,0.8,0.5,0.8,1,0.7l0.1,0.1C59.2,112.2,58.7,112.6,58.2,113.1z"/>
		<path class="st10" d="M114.5,81.2c-0.1,0.1-0.1,0.1-0.2,0.2C114.3,81.3,114.4,81.3,114.5,81.2L114.5,81.2z"/>
		<path class="st3" d="M58.4,110.8c-0.6,0.6-1.2,1.1-1.8,1.8c-0.6-0.6-1.1-1.1-1.6-1.6c-0.1-0.8-0.2-1.5-0.3-2.3l0.2,0l0.2,0
			c0.3,0,0.5,0,0.8,0c0.2,0.1,0.4,0.2,0.6,0.2c0.5,1,1.4,1,2.2,1C58.5,110.2,58.5,110.5,58.4,110.8z"/>
		<path class="st5" d="M59.6,111.6c-0.5,0.1-1,0.1-1-0.7C59,111,59.6,110.8,59.6,111.6z"/>
		<path class="st1" d="M89.2,54.5c-0.6-0.7-1.2-0.3-1.8-0.1c-0.3-1.2,1.1-1.1,1.4-1.8c1.1,0,2.2,0,3.4,0c0.5,0,1.1,0.1,1.4-0.1
			c1.3-0.9,2.5-2,4.1-3.3C96.7,49.1,96,49,95.4,49c-0.8,0-1.7,0-2-1.1c0.3-0.1,0.5-0.3,0.8-0.4c0.7,0.6,1.4,1.1,2.3,0.2
			c0.2-0.2,0.7-0.2,1-0.2c0.4,0.4,0.3,1.5,1.3,1.2c0,0.5,0,0.9,0,1.4c-0.8,0.6-1.7,1.2-2.5,1.8c-0.3,0.7-0.5,1.4-0.8,2.2
			C93.3,53.9,91.2,53.1,89.2,54.5z"/>
		<path class="st10" d="M109.1,33.7c0.6-0.3,1.1-0.6,1.9-1.1c-0.7,0-1,0-1.4,0c1.1-0.8,2.5-0.9,3.5-0.4c0.9,0.5,0.9,1.7,0,2.4
			C111.8,35.5,110.3,35.2,109.1,33.7z"/>
		<path class="st1" d="M89.9,58.1c-0.2-1-0.4-2-0.7-3c0.3,0,0.6,0,0.9,0.2c1,0.7,2,0.6,3,0.2c0.3,0.5,0.7,1,1,1.5
			c-0.5,0-0.9,0.1-1.4,0c-0.4-0.1-0.8-0.3-1.5-0.6c0.3,0.7,0.4,1.1,0.7,1.6C91.2,58.1,90.5,58.1,89.9,58.1z"/>
		<path class="st1" d="M89.3,60c-0.1-0.6-0.4-1.3,0.5-1.6C89.8,59,90.1,59.7,89.3,60z"/>
		<path class="st11" d="M96.3,51.9c0.8-0.6,1.7-1.2,2.5-1.8c0.6,0.2,1.1,0.4,2,0.7C99.2,51.8,97.8,51.8,96.3,51.9z"/>
		<path class="st0" d="M108.5,72c-0.2-0.1-0.4-0.2-0.6-0.4c0.1-0.1,0.1-0.3,0.1-0.3c0.3,0.1,0.5,0.2,0.8,0.4
			C108.6,71.9,108.6,72,108.5,72z"/>
		<path class="st5" d="M71.7,76.1c-0.3,1.1-0.8,2.2-0.6,3.4c0.1,0.4,0.1,0.8,0.2,1.2c0.1,0.7,0.3,1.4,0.4,2.1
			c-1.4-0.2-0.8-1.5-1.3-2.4c-0.5,0.2-1,0.4-1.6,0.7c-0.2-0.4-0.6-0.8-0.6-1.1c0.5-1.6,0-3.4,1.3-4.8c0.4-0.4,0.7-1,0.7-1.6
			c0.4-3.9,1.8-7.1,5.2-9.4c2.6-1.7,4.9-3.8,7.3-5.8c0.4-0.4,0.7-0.9,1.1-1.3c-0.1-0.1-0.1-0.3-0.2-0.4c-1.3,0.2-2.6,0.4-3.8,0.7
			c-0.1-2,0.3-2.9,1.9-3.7c0.8-0.4,1.5-0.8,2.4-1.3c-0.4-0.8-1.6,0-1.6-1.1c0.4-0.1,1,0,1-0.7l0.1-0.1c0.3,0.1,0.6,0.1,1,0.2
			c0-0.7,0-1.4,0-2c0.7,0.2,1.4,0.4,1.9,0.5c1.9-0.6,3.7-1.2,5.5-1.8l0.1,0.1c-0.3,0.3-0.6,1-0.8,0.9c-1.1-0.3-1.4,0.4-1.8,1.2
			c-0.8,0.6-1.7,1.2-2.5,1.8c0-0.4-0.1-0.8-0.1-1.2c-0.8-0.1-0.9,1.5-1.8,0.4c-0.1,0.5-0.4,0.9-0.3,1.3c0.1,0.4,0.5,0.7,0.7,1.1
			c-1.8,1.5-1.8,1.5-2.2,2.6c0.8-0.1,1.6-0.2,2.4-0.3c-1.6,4.7-5.5,7.1-9.3,9.5c-1.6,1-3,2-3.5,4c-0.1,0.6-0.4,1.3-0.3,1.9
			C73,72.6,72,74.3,71.7,76.1z"/>
		<path class="st5" d="M67.3,83.3c1-0.1,1.9-0.2,2.7-0.4c0.1,0.9,0.2,1.9,0.2,2.9C67.6,85.8,67.1,85.3,67.3,83.3z"/>
		<path class="st1" d="M73.5,86.8c-0.2,0.2-0.5,0.4-0.8,0.7c-0.4-1,0-1.2,0.7-1.2C73.4,86.5,73.4,86.7,73.5,86.8z"/>
		<path class="st1" d="M74.8,88.2c-0.8-0.1-0.6-0.8-0.7-1.3C75.3,86.8,74.8,87.7,74.8,88.2z"/>
		<path class="st1" d="M73.3,85.3l-0.1,0c0.1-0.3,0.2-0.6,0.4-1C74.1,85,74.1,85,73.3,85.3z"/>
		<path class="st1" d="M72,86.3c-0.2,0.5-0.3,1.1-1,0.5C71.4,86.6,71.7,86.5,72,86.3z"/>
		<path class="st3" d="M65.6,90c-0.2-0.1-0.4-0.2-0.7-0.4c0-0.5,0.1-0.9,0.1-1.7c1.3,0.5,2.4,0.9,3.5,1.2c0.3-0.1,0.6-0.1,0.9-0.2
			c0.3,0.1,0.6,0.2,0.9,0.3c0.7,0,1.5-0.7,2.1,0.1c-1.7,1.1-3.6,1.2-5.5,1.3C66.5,90.7,66.1,90.3,65.6,90z"/>
		<path class="st5" d="M83.4,50.5c-0.3,0-0.5-0.1-0.8-0.1c0-0.1,0-0.2,0.1-0.3C83,50.2,83.2,50.3,83.4,50.5L83.4,50.5z"/>
		<path class="st1" d="M89.5,49.6c0.4-0.7,0.7-1.5,1.8-1.2c0.1,0,0.5-0.6,0.8-0.9c0.2,0,0.5,0,0.7,0c0,0.1,0,0.3,0,0.4
			c-0.4,0.5-0.8,0.9-1.2,1.4c-0.3,0.3-0.6,0.5-0.9,0.7C90.2,49.9,89.9,49.7,89.5,49.6z"/>
		<path class="st5" d="M92.7,47.9c0-0.1,0-0.3,0-0.4c0.5-0.2,0.9-0.7,1.4,0c-0.3,0.1-0.5,0.3-0.8,0.4C93.2,47.9,93,47.9,92.7,47.9z"
			/>
		<path class="st6" d="M47.5,105.4c0,0.1-0.1,0.2-0.1,0.2c-0.1,0-0.3,0-0.4,0c0-0.1,0-0.1,0-0.2C47.1,105.5,47.3,105.5,47.5,105.4z"
			/>
		<path class="st10" d="M163.2,100.3c0.5-1.8,1-3.6,1.6-5.4c0.1-0.3,0.6-0.6,0.9-0.8c-0.1,0.5-0.3,1-0.4,1.5
			c-0.4,1.2-0.9,2.4-1.3,3.6C163.8,99.6,163.5,99.9,163.2,100.3z"/>
		<path class="st2" d="M164.1,93.6c0.2-0.5,0.4-0.9,0.6-1.4c0.5,0,1.1-0.1,1.7-0.1c0,0.1,0,0.5,0,0.9
			C165.6,93.2,164.8,93.4,164.1,93.6z"/>
		<path class="st10" d="M158.6,108.4c0.4-0.7,0.7-1.5,1.1-2.2C159.8,107.1,159.3,107.8,158.6,108.4z"/>
		<path class="st10" d="M162.2,102.1c0.4-0.6,0.7-1.2,1.1-1.8C163.3,101.2,163.1,101.9,162.2,102.1z"/>
		<path class="st10" d="M159.7,106.2c0.4-0.6,0.7-1.2,1.1-1.9C160.9,105.2,160.6,105.9,159.7,106.2z"/>
		<path class="st10" d="M157.9,109.5c0.2-0.4,0.5-0.7,0.7-1.1C158.6,108.9,158.7,109.5,157.9,109.5z"/>
		<path class="st10" d="M161.5,103.2c0.2-0.4,0.5-0.7,0.7-1.1C162.4,102.8,162.3,103.3,161.5,103.2z"/>
		<path class="st10" d="M160.7,104.3c0.2-0.4,0.5-0.7,0.7-1.1C161.6,103.9,161.6,104.4,160.7,104.3z"/>
		<path class="st6" d="M54.9,108.6l-0.2,0l-0.2,0l-0.1,0l-0.1,0l-0.1-0.1C54.6,108.5,54.8,108.5,54.9,108.6L54.9,108.6z"/>
		<path class="st11" d="M45.4,108.4c-0.4,0.5-0.7,1.1-1.1,1.6C44.2,109.2,44.7,108.7,45.4,108.4z"/>
		<path class="st3" d="M39,123c-0.1,0.1-0.3,0.2-0.4,0.4C38.7,123.3,38.9,123.2,39,123z"/>
		<path class="st4" d="M89.5,49.6c0.4,0.1,0.7,0.3,1.1,0.4c0,1.2-1.2,0.5-1.7,1.1c0,0.4,0,0.9-0.1,1.5c-0.3,0.8-1.7,0.6-1.4,1.8
			c-0.4,0.7-1.1,0.8-1.8,0.8c-0.8,0.1-1.6,0.2-2.4,0.3c0.4-1.1,0.4-1.1,2.2-2.6c-0.2-0.4-0.6-0.7-0.7-1.1c-0.1-0.4,0.2-0.8,0.3-1.3
			c0.9,1.1,1-0.5,1.8-0.4c0,0.4,0.1,0.8,0.1,1.2C87.8,50.8,88.6,50.2,89.5,49.6z"/>
		<path class="st4" d="M71.7,76.1c0.3-1.8,1.3-3.5,0.8-5.5c-0.1-0.6,0.2-1.2,0.3-1.9c0.6,1.2,1.1,2.4,1.7,3.7
			c0.5-0.5-0.4-1.7,0.9-1.8c0,1.7,0.1,3.4-1.6,4.4c0.2,0.4,0.4,0.8,0.6,1.2c0,0,0,0,0,0c-0.2,0.2-0.5,0.5-0.7,0.7
			c-0.4,0-0.7,0.1-1.1-0.1C72.2,76.7,72,76.3,71.7,76.1z"/>
		<path class="st1" d="M75.3,74.6c0.4-0.7,0.7-1.5,1.1-2.2C76,73.1,75.6,73.9,75.3,74.6z"/>
		<path class="st1" d="M76.3,72.4c0.1-0.1,0.3-0.3,0.4-0.4C76.6,72.2,76.5,72.3,76.3,72.4z"/>
		<path class="st1" d="M70.3,89.4c-0.3-0.1-0.6-0.2-0.9-0.3C69.7,89.2,70,89.3,70.3,89.4z"/>
		<path class="st10" d="M58.5,106.9c0,0.5,0,0.9,0,1.4c-0.1,0.1-0.3,0.2-0.4,0.3c0-0.6,0-1.3,0-1.9
			C58.3,106.7,58.4,106.8,58.5,106.9z"/>
		<path class="st0" d="M88.8,52.6c0-0.5,0-1.1,0.1-1.5c0.5-0.6,1.7,0.1,1.7-1.1c0.3-0.2,0.6-0.5,0.9-0.7c0.4-0.4,0.8-0.9,1.2-1.4
			c0.2,0,0.4,0,0.6,0c0.3,1,1.2,1,2,1.1c0.7,0,1.3,0.1,2.2,0.2c-1.5,1.3-2.8,2.3-4.1,3.3c-0.3,0.2-0.9,0.1-1.4,0.1
			C91.1,52.6,89.9,52.6,88.8,52.6z"/>
	</g>
</g>
</svg>
