<?xml version="1.0" encoding="utf-8"?>
<!-- Generator: Adobe Illustrator 23.0.3, SVG Export Plug-In . SVG Version: 6.00 Build 0)  -->
<svg version="1.1" id="Layer_1" xmlns="http://www.w3.org/2000/svg" xmlns:xlink="http://www.w3.org/1999/xlink" x="0px" y="0px"
	 viewBox="0 0 200 200" style="enable-background:new 0 0 200 200;" xml:space="preserve">
<style type="text/css">
	.st0{fill:#FB0000;}
	.st1{fill:#F90000;}
</style>
<path class="st0" d="M139.5,55.2c0.1,3.6-0.7,7-1.1,10.6c-0.4,3.7-1.2,7.3-1.3,11c-0.1,1.9-1.3,3.3-3.3,3.9c-2.6,0.8-5.3,0.4-7.9,0
	c-0.8-0.1-1.1-0.9-0.8-1.6c0.9-2.5,1.6-5.1,2.9-7.4c0.8-1.4,0.5-3,0.7-4.5c0-0.3-0.2-0.7-0.6-0.9c-0.4-0.2-0.7,0.1-0.9,0.4
	c-0.1,0.1-0.1,0.1-0.2,0.2c-1.2,2.1-2.9,3.8-4.8,5.4c-1.3,1.1-1.3,3-2.1,4.4c-0.1,0.2-0.1,0.4-0.3,0.6c-0.2,0.3-0.2,0.9-0.8,0.8
	c-0.4-0.1-0.2-0.6-0.3-1c-0.2-2.3-0.7-4.5-1.9-6.5c-0.3-0.4-0.6-0.8-1.1-1c-0.3-0.1-0.5-0.2-0.8,0c-0.2,0.2-0.1,0.5-0.1,0.8
	c0.5,1.9,0.3,3.8,0,5.7c-0.3,1.8-0.7,3.6-0.9,5.5c-0.1,0.8-0.5,1.4-0.7,2c-0.1,0.5-0.5,0.4-0.9,0.3c-1-0.2-1.9-0.4-2.9-0.6
	c-1.3-0.2-2.7-0.3-4,0.3c-0.8,0.4-1.4,0.1-1.3-1c0.1-1.1,0-2.2,0-3.3c-0.1-1.9,0.2-3.6,1.3-5.3c2.1-3.3,2.1-6.9,1.4-10.7
	c-0.5-2.4-0.5-4.8,0.7-7.1c0.5-1,0.8-2.1,1-3.2c0.2-1.2,0.8-1.9,2-2c1.7-0.2,3.5-0.4,5.2-0.8c1.4-0.3,2.3,0.5,3,1.5
	c1.3,1.8,2.6,3.7,3.8,5.5c0.8,1.2,1.1,1.2,1.8,0c1.2-2.2,2.3-4.6,4.3-6.3c1.1-0.9,2.3-1.4,3.8-1c1.8,0.4,3.6,0.3,5.4,0.2
	c1.3-0.1,1.8,0.4,1.6,1.7C139.4,53.1,139.5,54.1,139.5,55.2z"/>
<path class="st0" d="M86.1,80.6c0,1.6,0,3.3,0,4.9c0,1.1-0.4,1.7-1.6,2c-1.3,0.4-2.5,0.8-3.7,0c-0.3-0.2-0.7-0.3-0.7-0.7
	c0-1.3-0.6-2.5-0.7-3.8c-0.1-2.2-0.6-4.5-1.4-6.6c-0.5-1.5-0.7-3.1-1-4.6c-0.6-4.1-0.7-8.3-0.2-12.4c0.3-2-0.2-4-0.5-6
	c-0.2-1.3,0.4-1.7,1.5-1.5c2.1,0.4,4.3,0.3,6.5,0.5c2,0.2,2.1,2,2.7,3.2c0.7,1.6,1.5,3.1,2.2,4.8c0.3,0.8,0.8,0.9,1.3,0.1
	c0.9-1.3,1.6-2.7,2.5-4c2.6-3.7,5.8-5.5,10.4-4.8c2.5,0.4,2.5,0.4,2,2.8c-0.5,2.1-1.5,4-1.3,6.3c0.1,1.3,0.4,2.5,0.7,3.7
	c0.7,2.9,0.2,5.5-1.3,7.9c-1.4,2.5-1.5,5.2-1.2,7.9c0.1,1.1,0.2,2.3,0.3,3.4c0.1,0.9-0.3,1.6-1.2,1.9c-1.4,0.6-2.8,1.2-4.4,0.8
	c-0.8-0.2-1.2-0.6-1-1.4c0.4-1.5-0.1-2.9-0.6-4.2c-0.8-2.3-1.2-4.6-0.4-7c0.1-0.4,0.5-1,0-1.2c-0.6-0.3-0.8,0.4-1.1,0.8
	c-1,1.4-1.6,2.9-2,4.5c-0.4,1.5-1.2,2.9-1.7,4.4c-0.3,0.6-0.6,0.5-0.8,0.1c-0.2-0.3-0.3-0.7-0.3-1c0.2-2.2-0.8-4.1-1.4-6.1
	c-0.1-0.5-0.5-1-1-1c-0.6,0-0.6,0.7-0.6,1.2C86.2,77.1,86.2,78.9,86.1,80.6C86.2,80.6,86.2,80.6,86.1,80.6z"/>
<path class="st0" d="M48.1,52.9c3.5-0.6,6.3,1.3,9.1,2.9c1.8,1,1.7,1.5,0.3,3c-1.3,1.3-2.6,2.6-3.9,4c-0.8,0.8-1.5,0.8-2.4,0.3
	c-2-1.1-4.3-1.1-6.3-0.3c-1.9,0.8-3.2,2.4-3.5,4.6c-0.5,3.7,1,6.1,4.3,7.5c1.6,0.7,3,1.6,4.8,1.9c1.3,0.2,3.6-0.5,4.1-1.7
	c0.3-0.6,0.4-1.5-0.3-2c-0.6-0.4-1.5-0.6-2,0.3c-0.4,0.7-0.8,0.7-1.4,0.3c-1.5-0.8-2.3-1.8-2.2-3.6c0.1-3.5,0-3.5,3.5-3.6
	c2.9-0.1,5.7-0.4,8.6-0.4c1.9,0.1,2.4,0.4,3,2.2c1,2.8,1.4,5.7,1.3,8.7c-0.1,2.9-2.2,6.4-4.9,7.1c-4.2,1.1-8.4,2.5-12.7,1.3
	c-3.8-1.1-7.3-2.6-10.4-5.2c-3.2-2.8-4.6-6.4-5-10.4c-0.2-2.3,0.3-4.6,1.2-6.8c2.2-5.4,6.4-8.3,11.8-10C45.9,52.7,47,52.9,48.1,52.9
	z"/>
<path class="st0" d="M152,50.4c3.1,0,6.2,0,9.4,0c1,0,1.2,0.4,1.2,1.3c0,1.3,0,2.7,0.2,4c0.3,1.7-0.6,2.5-2.6,2.5
	c-2.7,0-5.4,0-8.1-0.2c-1-0.1-1.1,0.5-1.2,1.2c-0.2,0.8,0.4,1.1,1,1.1c1,0.1,2,0,3,0c0.5,0,1,0,1.5,0.1c2.1,0.5,2.9,2,3.1,4
	c0.1,0.9,0.5,1.5,1.2,2c0.3,0.2,0.6,0.3,0.5,0.7c-0.1,0.4-0.5,0.3-0.8,0.3c-2.5,0-5.1,0.2-7.6,0.1c-1.3,0-1.2,0.8-1.3,1.6
	c-0.1,0.9,0.4,1.1,1.2,1.1c2.8,0,5.7,0,8.5,0c1.3,0,1.8,0.6,2,1.9c0.3,1.5,0,3.1,0.1,4.6c0.1,0.9-0.3,1.6-1.4,1.5
	c-0.5,0-1,0.1-1.5,0c-5-0.4-10,0.6-15,0.6c-1.4,0-2.9-0.2-4.3,0c-1,0.1-1.5-0.3-1.4-1.4c0.4-3.6,1.1-7.2,1.8-10.7
	c0.3-1.8,0.4-3.6,0.4-5.4c0-3.2,0-6.4,0-9.6c0-1.1,0.3-1.3,1.3-1.3C146.1,50.4,149.1,50.4,152,50.4C152,50.4,152,50.4,152,50.4z"/>
<path class="st1" d="M90.4,102.7c0.5-0.2,0.6-0.5,0.6-0.8c-0.2-3.9,0.5-7.7,1.1-11.6c0.2-1.1,0.6-1.6,1.5-1.7
	c1.6-0.2,3.2-0.3,4.8-0.6c1.5-0.3,4.2,1.8,4.7,3.3c1.2,3.3,0.4,6.2-1.5,9c-1,1.5-2.7,1.1-4,1.6c-1.8,0.6-3.7,1.2-5.6,1.5
	c-0.8,0.1-1.2,0.7-1.7,1.3c-0.9,1.1-1.9,1.1-2.8-0.1c-0.4-0.5-0.7-1.1-1-1.6c-1.1-1.8-4-2-5.4-0.3c-0.8,0.9-1.9,1.4-2.4,2.6
	c-0.5,1.2-0.5,2.6-1,3.8c-0.1,0.2,0,0.6-0.4,0.7c-0.4,0.1-0.5-0.3-0.6-0.6c-0.3-2.3-1.4-4.3-0.5-6.8c1.6-4.2,3.1-8.4,4.9-12.5
	c0.3-0.6,0.5-0.8,1.1-0.7c1.2,0,2.4,0,3.7,0c0.9,0,1.3,0.3,1.4,1.2C88.2,94.5,89.7,98.5,90.4,102.7z M99.4,95.8
	c0-1.3-0.9-2.4-2.2-2.7c-0.7-0.2-1.4,0.1-1.4,0.9c0,1.3-0.3,2.6-0.4,3.9c-0.1,0.9,0.4,1.1,1.1,1.1C98.1,98.9,99.4,97.4,99.4,95.8z
	 M84.6,97.1c0-0.5-0.2-0.9-0.7-1c-0.5-0.1-0.7,0.4-0.8,0.8c-0.1,0.5,0.1,0.9,0.7,1C84.3,97.9,84.5,97.5,84.6,97.1z"/>
<path class="st0" d="M74,65.4c-0.4,3.6,0.3,7.1,0.6,10.6c0.3,2.7,1,5.4,1.5,8.1c0.1,0.3,0.2,0.5,0.2,0.8c0.2,2.1-0.1,2-1.7,1.9
	c-1.7-0.1-3.3-0.7-5-0.4c-0.6,0.1-0.9-0.6-1-1.1c-0.5-2.2-1-4.4-1.4-6.6c-0.5-2.8-0.6-5.7-1.4-8.3c-0.6-2-1.2-4.1-1.5-6
	c-0.5-3.6-1.5-7.3-0.2-11c0.1-0.3,0.1-0.6,0.5-0.6c2.1-0.1,4.1-0.8,6.2-0.6c1,0.1,1.6,0.6,1.8,1.6C73.7,57.6,74.5,61.4,74,65.4z"/>
<path class="st1" d="M132.7,86.4c0-0.8,0.1-1.4,0-1.9c-0.1-1,0.3-1.5,1.3-1.6c2.4-0.3,3-0.8,3.1,2.4c0.1,1.7,0.7,3.3,0.7,4.9
	c0,0.5,0.1,1.1,0.7,1.2c0.6,0.1,0.7-0.5,0.9-0.8c0.7-1.2,1.4-2.4,2.1-3.6c0.6-1,1-1,1.5,0c0.5,1.2,1.5,2.1,2.1,3.3
	c0.3,0.6,0.8,0.6,1.1-0.1c0.3-0.9,0.8-1.8,0.7-2.7c-0.2-1.7,0.3-3.3,0.6-4.9c0.2-1.1,1.7-0.6,2.5-1.1c0.4-0.2,1.2-0.3,1.5,0.2
	c0.3,0.6,0.3,1.4,0.1,2c-0.7,2.6-0.4,5.3-1,7.9c-0.4,1.4-0.4,2.8-0.7,4.2c-0.2,1.2-0.7,2.2-2.2,1.9c-0.3,0-0.6,0-0.9,0.1
	c-1.4,0.4-2.3-0.1-3-1.4c-1.2-2.3-1.7-2.8-3,0.1c-1,2.3-2.9,2.6-4.9,2.9c-0.9,0.1-1.7-0.3-1.8-1.4C133.5,94.1,133.1,90.2,132.7,86.4
	z"/>
<path class="st1" d="M107.5,111.3c-0.3-0.6-0.2-1,0-1.3c1.5-1.5,1.1-3.2,0.4-4.9c-1.1-2.8-1.4-5.6-0.8-8.6c0.5-2.1,0.9-4.3,0.9-6.6
	c0-2.7,1-3.8,3.5-4c0.9-0.1,1.5,0.3,1.8,1c0.5,1.2,1,2.4,1.5,3.6c0.2,0.4,0.2,1.2,0.8,1.1c0.6-0.1,0.7-0.8,0.7-1.3
	c0-1.3,0.4-2.5,0.6-3.7c0.2-1.4,2.2-2.6,3.6-2.2c0.5,0.2,0.8,0.5,0.7,1.1c-0.7,2.2-0.7,4.5-1,6.8c-0.3,2.5-0.8,5-1,7.5
	c-0.2,1.7-1.4,1.8-2.6,2c-1.2,0.2-2.1-0.1-2.6-1.5c-0.4-1.2-1.3-2.2-1.7-3.5c-0.1-0.3-0.3-0.5-0.6-0.4c-0.5,0.1-0.6,0.5-0.6,1
	c-0.1,1.6,0,3.3-0.1,4.9c-0.1,2-0.5,4-1,6C109.5,109.5,108.4,110.3,107.5,111.3z"/>
<path class="st1" d="M158.9,80.1c0.5,0,1.1,0,1.6,0c1.1,0.1,1.7,0.8,1.6,1.9c0,0.4-0.1,0.8-0.1,1.2c-0.2,1.9-0.7,2.3-2.5,2.1
	c-0.6-0.1-1.3-0.1-1.9-0.1c-0.6,0-1.1,0.1-1.1,0.9c0,0.7,0.6,0.6,1.1,0.8c1.4,0.4,2.8,0.3,4.1,1.2c2.7,1.9,2.6,5.5,0.9,7.4
	c-1.7,1.8-2.5,4-3.6,6.1c-0.5,0.9-1,1.7-1.7,2.5c-0.1,0.2-0.3,0.4-0.6,0.3c-0.3-0.1-0.2-0.4-0.2-0.6c0-0.5,0-1.1,0.2-1.5
	c0.8-1.3-0.1-2.4-0.4-3.6c-0.2-0.6-0.9-0.9-1.6-1c-1.3-0.2-1.7-0.8-1.4-2.2c0.1-0.3,0.1-0.5,0.1-0.8c0.2-1.7,0.6-2,2.3-1.8
	c0.8,0.1,1.5,0.3,2.3,0.1c0.5-0.1,1.1-0.1,1.1-0.7c0-0.7-0.6-1-1.2-1.1c-0.6-0.1-1.3-0.1-1.9-0.1c-2.6-0.3-3.8-1.5-3.9-4.1
	c-0.1-3.1,1-5.2,3.9-6.5C156.9,80,157.9,80.2,158.9,80.1z"/>
<path class="st1" d="M63.7,97.7c-0.3-3-0.7-6-0.6-9c0.1-1.1,0.4-1.4,1.4-1.3c2.4,0.2,4.8,0.3,7.1,0.6c2.2,0.3,3.7,2.3,3.6,4.6
	c-0.1,1.3,0,2.4,1,3.6c1,1.1,0.5,2.8,0,4.2c-0.7,1.9-1.7,2.3-3.7,2.2c-2.5-0.2-5-0.6-7.5-1.1c-0.9-0.2-1.2-0.9-1.3-1.7
	C63.6,99,63.7,98.4,63.7,97.7z M71.3,98.9c0.8,0.1,1.2-0.4,1.3-1c0.1-0.8-0.5-1.1-1.1-1.3c-0.6-0.1-1.3-0.1-2-0.2
	c-0.7-0.1-1.3,0-1.4,0.8c-0.1,0.8,0.4,1.4,1.2,1.5C70,98.8,70.7,98.7,71.3,98.9z M69.8,92.8c0.7,0,1.4-0.1,1.5-0.8
	c0.1-0.6-0.5-0.9-1.1-1c-0.4-0.1-0.9-0.2-1.3-0.3c-0.5-0.1-0.8,0.2-1,0.5c-0.3,0.4-0.1,0.8,0.2,1C68.7,92.6,69.2,92.9,69.8,92.8z"/>
<path class="st1" d="M130.4,98c0,2.3,0,2.2-2.1,2.7c-2.3,0.7-4.6,0.5-6.9,1c-1,0.2-1.4-0.3-1.4-1.2c-0.1-2,0.6-3.9,0.8-5.9
	c0.2-2.9,0.7-5.7,1.1-8.6c0.1-0.9,0.6-1.6,1.7-1.6c2.1,0,4.1-0.5,6.1-0.7c1.6-0.2,1.9,0.2,1.8,1.9c0,1.9-0.6,2.6-2.4,3.1
	c-0.8,0.2-1.6,0.6-2.5,0.5c-0.6-0.1-1.4,0.1-1.3,0.8c0.1,0.5,1,0.9,1.6,0.6c1-0.5,2-0.2,2.9-0.3c0.3,0,0.8-0.1,0.8,0.3
	c0.2,1,0.3,2.1,0,3.1c-0.3,0.7-1.1,1.1-1.9,1c-1.2-0.1-2.2,0.4-3.3,0.7c-0.5,0.1-0.9,0.4-0.6,1c0.2,0.5,0.6,0.6,1.1,0.4
	c1.1-0.5,2.4-0.4,3.6-0.5C131,96.2,130.1,97.5,130.4,98z"/>
<path class="st1" d="M52.1,94.5c0.2,1-0.1,1.9,0.4,2.9c0.2,0.5,0,1.2-0.7,1.4c-1,0.4-2.3,0-2.6-0.8c-0.2-0.7-0.3-1.4-0.5-2.1
	c-0.2-0.8-0.7-1.2-1.5-1.1c-0.8,0.1-1.2,0.6-1.1,1.4c0,0.2,0,0.4,0,0.5c-0.1,0.6,0.3,1.5-0.8,1.6c-1.4,0.1-2.1-0.3-2.2-1.5
	c-0.1-1.7-0.5-3.4-0.5-5.1c0-0.6,0-1.3-1-1.3c-0.7,0.1-1.6,0-1.6,1.1c0,3.4,0,6.8,1.4,10c0.4,1,0.8,2,1,3c0.2,1.4-0.8,2.5-1.4,3.7
	c-0.3,0.6-0.8,1.2-1,1.9c-0.1,0.3-0.2,0.7-0.6,0.6c-0.4-0.1-0.2-0.5-0.1-0.8c0.4-1.1,0.7-2.2,1-3.3c0.5-1.6,0.3-3-0.6-4.1
	c-2.5-3.1-3-6.8-2.8-10.6c0-1.1-0.1-1.8-1.4-1.8c-0.6,0-1.1-0.4-1.4-1c-0.3-0.5-0.1-0.9,0.1-1.3c0.2-0.4,0.6-0.4,1-0.3
	c1,0.3,2.1,0.3,3.1,0.2c2.1-0.2,4,0.9,6.1,0.8c0.8,0,1.7,0.6,1.5,1.9c-0.1,0.7,0.1,1.4,1.1,1.2c0.8-0.1,1.8,0.1,1.6-1.3
	c-0.1-0.7,0-1.5,0.8-1.3c0.7,0.2,2-0.6,2.1,1.1C51.6,91.7,52.4,93.1,52.1,94.5z"/>
<path class="st1" d="M57.6,98.9c-0.5,0-1.1,0-1.6,0c-2.2-0.1-3.2-1-3.2-3.2c0-1.7-0.1-3.3-0.5-5c-0.4-1.6,0.1-2.1,1.8-2.1
	c1.7,0,3.3,0.8,5.1,0.7c0.6,0,0.9,0.6,0.8,1.2c0,0.7-0.5,1.1-1.2,1.1c-0.7,0-1.3-0.1-2-0.2c-0.3,0-0.7,0.1-0.8,0.4
	c-0.1,0.5,0.4,0.4,0.7,0.4c0.7,0.1,1.4,0.2,2.1,0.4c0.8,0.2,1.3,0.7,1.2,1.6c-0.1,1-0.9,0.9-1.5,0.9c-0.4,0-0.7-0.1-1.1-0.2
	c-0.4,0-0.9-0.1-1,0.4c-0.1,0.6,0.5,0.5,0.9,0.5c0.9,0.1,1.8-0.1,2.6,0.7c0.6,0.6,0.9,1.1,0.7,1.9c-0.3,0.7-1,0.5-1.5,0.5
	C58.6,99,58.1,99,57.6,98.9C57.6,98.9,57.6,98.9,57.6,98.9z"/>
</svg>
