<?xml version="1.0" encoding="utf-8"?>
<!-- Generator: Adobe Illustrator 22.1.0, SVG Export Plug-In . SVG Version: 6.00 Build 0)  -->
<svg version="1.1" id="Layer_1" xmlns="http://www.w3.org/2000/svg" xmlns:xlink="http://www.w3.org/1999/xlink" x="0px" y="0px"
	 viewBox="0 0 200 200" style="enable-background:new 0 0 200 200;" xml:space="preserve">
<style type="text/css">
	.st0{fill:#E8E973;}
	.st1{fill:#DADD61;}
	.st2{fill:#525059;}
	.st3{fill:#D9323A;}
	.st4{fill:#D22C32;}
	.st5{fill:#D8463C;}
	.st6{fill:#D78F44;}
	.st7{fill:#D6C03F;}
	.st8{fill:#D57641;}
</style>
<g id="LRQO9Q_1_">
	<g>
		<path class="st0" d="M99.2,55.2c0.4-0.7,0.8-1.3,1.2-2.1c0.7-1.3,1.5-2.5,2.2-3.8c0.1-0.1,0.2-0.2,0.2-0.4c0.6-1.2,1.3-2.2,2-3.4
			c0.1-0.1,0.2-0.2,0.1-0.4c0.7-0.4,1.3-1.3,2.1-1.3c5.6-0.1,11.4,0,17,0c-0.1,0.1-0.1,0.2,0,0.4c-0.2,0.3-0.4,0.4-0.6,0.7
			c-0.1,0.2-0.3,0.4-0.4,0.5c-0.4,1.3-0.9,2.4-1.3,3.7c-1.3,3-2.8,6-4.3,9.3c2.9,0,5.4,0.1,7.9-0.1c0.5,0,1.3-0.7,1.5-1.3
			c1.8-4.4,3.4-8.9,5.1-13.3c5.9,0,11.7-0.1,17.6-0.1c-1.5,4.7-3,9.3-4.5,14c-0.1,0.2-0.1,0.4-0.3,0.9c4.2,0,8.2,0,12.6,0
			c-0.7,3-1.3,5.9-2.1,8.7c-1.3,5.1-2.5,10.2-3.8,15.4c-0.2,0.5-0.3,1.1-0.4,1.6c-0.4,1.6-0.7,3.1-1.1,4.7c-0.1,0.4-0.2,0.6-0.3,1
			c-0.6,2.3-1.3,4.7-1.9,7c-0.1,0.4-0.1,0.7-0.2,1c-0.2,0.5-0.4,1-0.6,1.5l0.1-0.1c-6.6,0-13.3,0-20.2,0c0.9-3,1.6-5.4,2.3-7.7
			c0.7-2,1.3-3.9,2.1-5.9c0.1-0.1,0.2-0.2,0.1-0.3c0.1-0.3,0.2-0.5,0.2-0.9c0.1-0.1,0.1-0.2,0-0.3v-0.1c0.1,0,0.2-0.1,0.3-0.2
			c1.3-3.5,2.5-7,3.8-10.5l0.1-0.1v-0.2c0.2-0.6,0.3-1.3,0.4-1.9c0.4,0,1,0,1.4,0c-3,8.8-6,17.5-9,26.5c6.2,0,11.9,0,17.8,0
			c2-8.1,3.9-15.8,5.9-23.7c0.9-3.8,1.7-7.5,2.6-11.3l0,0c0.2-0.4,0.4-0.8,0.5-1.2c0-0.4,0-0.6,0-1c-0.3-0.4-0.4-0.9-0.7-0.9
			c-2.8-0.1-5.5-0.1-8.2-0.2c-3,0-3.2-0.3-2.2-3.2c0.4-1.1,0.6-2.1,1-3.2c0.2-0.9,0.4-1.8,0.6-2.6c0.9-1.9,1.7-3.7,2.8-5.8
			c-5.1,0-9.8,0-14.4,0c-0.5,0-1,0.6-1.5,1c-0.2,0.7-0.4,1.4-0.5,2.1c-0.6,1.3-1.3,2.4-1.9,3.7c-1.6,2.9-1.4,6.5-4.5,8.6
			c-3.1,0-6.4-0.1-9.5-0.1c0.2-1.1,0.3-2.2,0.6-3.2c1-2.4,2.1-4.8,3.2-7.2c0.7-1.4,1.3-3,2.1-4.4c-0.5-0.1-1.1-0.3-1.6-0.4
			c-0.4,0-0.8,0-1.3,0c-2.7-0.1-5.4-0.2-8.1-0.2c-1.7,0-3.4,0.4-5,0.5c-0.4,0.9-0.8,1.7-1.2,2.6c-0.5,0.9-1,1.8-1.5,2.7
			c-0.1,0.2-0.3,0.4-0.4,0.5c-0.8,1.4-1.5,2.8-2.3,4.2c-0.5,0.7-1.1,1.4-1.6,2.1c-0.2-0.4-0.4-0.7-0.4-1.1
			C98.9,56.3,99,55.7,99.2,55.2z"/>
		<path class="st1" d="M62.6,43.6c0.2-0.1,0.4-0.2,0.5-0.2c6,0.2,12,0.4,18,0.6c0,0.4,0,0.6,0,1c-0.2,0.8-0.4,1.6-0.5,2.4
			c-0.1,3.8-0.1,7.7-0.2,11.5c-0.1,0-0.2,0.1-0.3,0.2c0-3,0-6-0.1-8.9c0-0.4-0.4-0.8-0.6-1.2c-0.2-0.1-0.3-0.1-0.4-0.1
			c-0.4-0.4-0.8-0.7-1.2-1.1c0-0.8,0.1-1.7,0.2-2.8c-5,0-9.8,0-14.1,0c-1.5,2.9-3,5.5-4.4,8.3c0-1,0-2,0-3
			C60.6,48,61.6,45.8,62.6,43.6z"/>
		<path class="st0" d="M81.2,45c0-0.4,0-0.6,0-1c5.6,0,11.3,0.1,16.9,0.1c0,0.2,0.1,0.4,0.1,0.5c-0.2,4-0.4,8.1-0.6,12.2
			c-0.1,0-0.2,0.1-0.3,0.1c-0.1,0-0.2-0.1-0.2-0.1c-0.2-2.4-0.4-4.9-0.4-7.3c-0.1-1.2-0.2-2.4-0.4-3.6C91.3,45.5,86.2,45.3,81.2,45z
			"/>
		<path class="st1" d="M42.5,97.1c-0.4-0.1-0.6-0.1-1-0.2c0-0.2,0-0.3-0.1-0.4c0.2-3.2,0.4-6.4,0.5-9.6c0.4,0,0.6,0,1,0
			c0,3,0,5.9,0,8.8c2.6,0.2,5.4,0.4,8.1,0.7c-1.1,0-2.1,0-3.1,0.1C46.1,96.7,44.4,96.9,42.5,97.1z"/>
		<path class="st1" d="M135.3,71.7c-0.5,0-1.1,0-1.6,0c-0.5,0-1.1-0.1-1.5-0.1c-2.2-0.1-4.6-0.3-6.8-0.4c-0.3-0.1-0.6-0.2-0.9-0.3
			c0.7-0.4,1.3-1.2,2.1-1.3c2.5-0.2,5-0.1,7.4-0.2c0.7,0,1.5,0.1,2.2,0.1c0.6,0.1,1.2,0.2,2,0.4c-0.2,0.5-0.4,1.1-0.5,1.6
			c-0.4,0-1,0-1.4,0C136,71.7,135.6,71.7,135.3,71.7z"/>
		<path class="st1" d="M99.1,58.3c-0.7,1-1.3,2-2.4,3.5c0-4.6,0-8.5,0-12.4c0.2,2.4,0.4,4.9,0.4,7.3c0,0,0.1,0.1,0.2,0.1
			c0.1,0,0.2-0.1,0.3-0.1c0.4,0,0.7,0,1.1,0c0.2,0.4,0.4,0.7,0.4,1.1C99.1,58,99.1,58.1,99.1,58.3z"/>
		<path class="st1" d="M119.3,45.3c-4.4,0.1-8.8,0.2-13.2,0.4c1.7-0.2,3.4-0.4,5-0.5C113.9,45.1,116.6,45.3,119.3,45.3z"/>
		<path class="st1" d="M122.1,45.6c-0.5-0.1-1.1-0.3-1.6-0.4C121.1,45.3,121.6,45.5,122.1,45.6z"/>
		<path class="st1" d="M123.5,45.2c-0.1,0.2-0.3,0.4-0.4,0.5C123.2,45.4,123.3,45.3,123.5,45.2z"/>
		<path class="st0" d="M120.6,84.1c-0.3,0.8-0.5,1.6-0.8,2.3c-0.4,1-0.8,2.1-1.2,3c-1,2.5-2,5-3,7.5c-0.1,0.1-0.2,0.3-0.1,0.4
			c-0.2,0.4-0.4,0.7-0.5,1.1l0,0c-6.1-0.1-12.2-0.2-18.2-0.3c-3.9-0.1-8,0-11.9-0.1c-7.1-0.1-14.1-0.2-21.2-0.3
			c-0.2-0.6-0.4-1.2-0.5-1.8c0.1-1.9,0.4-3.8,0.3-5.7c-0.6-4.8-2.1-9.4-5.2-13.3c0.3-0.2,0.4-0.4,0.7-0.6c0.8,0.9,1.6,1.7,2.4,2.6
			l0,0c0.7,2,1.4,3.8,2.2,5.8c-0.1,0.2,0,0.3,0.1,0.4c0.2,0.9,0.4,1.8,0.5,2.6c0,0.4,0,0.7,0,1.1c0.2,0.3,0.3,0.5,0.4,0.8v0.2
			c0,2.1,0.1,4.3,0.1,6.4c0.5,2,1.7,0.4,2.6,0.4c1.7,0,3.3,0.2,5,0.1c2.2-0.1,4.5-0.4,6.6-0.5l0,0c0.2-0.2,0.4-0.4,0.4-0.5
			c4.4,2,9,0.7,13.6,1.1c0.8,0.1,1.7-0.6,2.3-0.8c1,0.4,2,0.9,2.9,0.9c5.1,0.1,10.2,0,15.8,0c3.2-8.4,6.7-17.4,10.1-26.2
			c0.3,0.1,0.6,0.2,0.9,0.3c0,0.3-0.1,0.6-0.1,0.9c-0.1,0.1-0.2,0.3-0.1,0.4c-0.1,0.3-0.3,0.4-0.4,0.7c-0.1,0.4-0.3,0.6-0.4,1
			c-0.8,2.1-1.6,4.3-2.3,6.4C121.5,81.8,121.1,82.9,120.6,84.1z"/>
		<path class="st0" d="M59,45.1c-0.2-0.2-0.4-0.3-0.5-0.4c-4.8,0-9.7,0-14.6,0C43.6,58.7,43.3,72.8,43,87c-0.4,0-0.6,0-1,0
			c0.2-12.2,0.4-24.4,0.5-36.6c0.1-2.4,0.4-4.9,0.5-7.3c0.4,0.2,0.7,0.3,1.1,0.4c3.3,0,6.7,0.1,10,0.1c1,0,1.9,0,2.9-0.1
			c0.3,0,0.4,0,0.7,0s0.6,0,0.9,0s0.5,0,0.8,0C59.3,44,59.1,44.5,59,45.1z"/>
		<path class="st0" d="M58.8,96.4c-0.1,0.4-0.2,0.7-0.3,1.1c-5.3-0.2-10.7-0.4-15.9-0.4c1.8-0.2,3.7-0.4,5.5-0.5
			c1.1-0.1,2.1-0.1,3.1-0.1c2.1,0,4.1,0,6.3,0c0-3.2,0-6.1,0-8.9c0.1-0.2,0.2-0.4,0.3-0.5c0-0.9,0.1-1.8,0.1-2.7
			c0-0.7,0.1-1.4,0.1-2.1c0.1-0.9,0.2-1.8,0.3-2.6c0.4,0,0.6,0,1,0c0,1.8,0,3.5,0,5.3c-0.1,3.8-0.2,7.4-0.3,11.2
			C58.6,96.2,58.6,96.4,58.8,96.4z"/>
		<path class="st0" d="M79.2,48.8c-1.1,3.3-2.1,6.6-3.3,9.9l0,0c-0.2,0.4-0.4,0.7-0.6,1.1v-0.1c-0.2,0.4-0.4,0.7-0.5,1.1l0.1-0.1
			c-0.2,0.2-0.3,0.4-0.4,0.6l0,0c-0.4,0.6-0.8,1.3-1.3,1.9l0,0c-0.2,0.2-0.4,0.4-0.5,0.6l0,0c-0.4,0.4-0.7,0.8-1.2,1.2
			c-0.4-0.1-0.9-0.2-1.3-0.2c3.9-5.2,6.8-10.8,7.9-17.3C78.4,48.1,78.7,48.5,79.2,48.8z"/>
		<path class="st0" d="M79.3,62.6c0.1-4.6,0.3-9.1,0.4-13.7c0.2,0.4,0.5,0.8,0.6,1.2c0.1,3,0.1,6,0.1,8.9c0.1,0.8,0.1,1.6,0.2,2.4
			c0,0.7,0,1.4-0.1,2.2c0,0.7,0,1.3,0,2.1c-0.1,0.2-0.1,0.4-0.2,0.5c-0.4,0-0.7,0-1,0c0-0.7,0-1.4,0-2.1
			C79.2,63.7,79.2,63.2,79.3,62.6z"/>
		<path class="st0" d="M59.6,53.3c-0.4-0.2-0.9-0.3-0.9-0.4c0.1-2.4,0.2-4.8,0.4-7.2c0.2,1,0.4,2,0.5,3c0,0.5,0.1,1.2,0.1,1.7
			C59.6,51.2,59.6,52.3,59.6,53.3z"/>
		<path class="st2" d="M80.4,61.4c-0.1-0.8-0.1-1.6-0.2-2.4c0.1-0.1,0.2-0.1,0.3-0.2C80.5,59.7,80.4,60.6,80.4,61.4z"/>
		<path class="st1" d="M59.5,48.6c-0.2-1-0.4-2-0.5-3c0-0.2,0-0.4,0-0.5c0.2-0.5,0.4-1.1,0.5-1.6c0.2,0,0.4,0,0.5,0
			C59.8,45.3,59.7,46.9,59.5,48.6z"/>
		<path class="st1" d="M57.1,43.5c-1,0-1.9,0-2.9,0.1C55.1,43.5,56.1,43.5,57.1,43.5z"/>
		<path class="st1" d="M58.7,43.5c-0.3,0-0.6,0-0.9,0C58,43.5,58.3,43.5,58.7,43.5z"/>
		<path class="st3" d="M75.4,51.5c-0.1,0.1-0.2,0.2-0.1,0.3c-0.2,0.4-0.3,0.8-0.4,1.3c-1.7,3-3.4,6.1-5,9.1
			c-0.6,0.8-1.2,1.5-1.8,2.3c0,0.2-0.2,0.3-0.4,0.4c-0.8,0.6-1.6,1.3-2.6,2.1c0.1,0-0.1,0-0.3,0c-2.8-0.3-5.5-3.2-8.5-0.4
			c-0.4,0.4-2.5,0.1-3-0.5c-1.3-1.7-2.6-1.5-4.2-1c-1.9,0.6-2.8-0.3-2.9-1.9c-0.2-2,0.2-4,0.1-6c0-0.6-0.5-1.3-0.8-2
			c0-0.9,0-1.8,0-2.7c1.7-0.8,1.6-1.7,0.1-2.6c0.2-1.3-0.9-3.1,1.3-3.3c3.1-0.3,6.4-0.1,9.6-0.1c0.1,1.4,0.2,2.4,0.3,3.3
			c0,0.4,0,0.7,0,1.1c-0.2,2.5-0.3,5.1-0.4,7.6c0.4,0.2,0.6,0.4,1,0.5c1.6-1.8,3.2-3.7,4.7-5.5c0.2-0.1,0.3-0.3,0.3-0.4
			c0.3-0.5,0.5-1.2,0.9-1.7c0.4-0.8,0.7-1.6,1.1-2.4c1.2-1.9,2.6-2.6,4.7-1.6c0.8,0.4,1.9,0.1,2.9,0.2
			C75.7,47.8,75.7,47.8,75.4,51.5z"/>
		<path class="st4" d="M141.5,59.9c-0.2,0.2-0.3,0.4-0.4,0.6c-1.1,1.5,0,1.5,1.1,1.5c3.7,0,7.2,0,11.2,0c-0.5,2.8-1.1,5.1-1.5,7.4
			c-0.2,0.2-0.4,0.4-0.5,0.5c-0.2,0.7-0.4,1.4-0.5,2.1l0.1,0.1c-2.3-0.4-4.7-1.1-7-1.1c-1.8,0-2.8-0.5-3.1-2.1
			c0-0.2-0.1-0.4-0.1-0.5c0-0.3,0-0.4,0-0.7c0.3-0.1,0.6-0.2,0.9-0.4c0-0.2,0-0.4,0-0.6c-4.9,0-9.8,0-14.7,0c0.6-2,1.3-3.8,2-5.8
			c1.2-3.1,2.3-6.4,3.5-9.5c0.8-1.3,1.6-2.7,2.5-4c3.3,0,6.7,0,10.6,0C144,51.9,142.8,55.9,141.5,59.9z"/>
		<path class="st3" d="M104,53.6c0.1-0.2,0.2-0.4,0.3-0.4c0.4-0.7,0.7-1.3,1.1-2.1c0.2-0.4,0.4-0.7,0.5-1.1c0.8-0.8,1.5-2.1,2.3-2.2
			c3.5-0.3,7-0.1,10.6-0.1c-0.3,1-0.4,1.6-0.5,2.1c-0.9,1.8-1.7,3.6-2.6,5.5c-0.4,0.9-0.6,1.7-1,2.6c-0.2,0.4-0.3,0.6-0.4,1
			c-0.4,0.9-1,1.8-1.8,3.2c3.9,0,7.4,0,10.9,0c1.1,0,2.4-0.2,1.3,1.6c-0.2,0.4-0.4,0.9-0.5,1.3c-0.2,0.4-0.4,0.8-0.4,1.3
			c-0.2,0.5-0.4,1.2-0.6,1.7l0,0c-0.2,0.4-0.4,0.7-0.5,1.1l0,0c-0.2,0.4-0.4,0.7-0.5,1.1l0.1,0.1c-2.7-0.4-5.4-1-8.3-1.4
			c-0.4,0.4-1.2,1.1-2,1.8c-0.2-0.2-0.4-0.4-0.5-0.5c0.5-0.8,1.1-1.6,2.1-3.1c-2.9,0.2-5.1,0.4-7.4,0.4c-3.1,0-6.4,0-9.5,0
			c0-0.2,0-0.4,0-0.4c0.3-0.4,0.5-0.7,0.8-1c0.1-0.2,0.2-0.4,0.3-0.6c1.3-2.5,2.5-4.9,3.8-7.4l0,0c0.5-0.9,1-1.8,1.5-2.7l0,0
			C103.2,54.6,103.6,54.1,104,53.6z"/>
		<path class="st3" d="M95,55.2c0,2.3-0.1,4.6-0.1,6.9c-0.4,2.5-0.7,5-1.1,7.4c-0.3,0.4-0.6,0.8-0.5,0.7c-1.6-0.4-2.9-1-4.2-1.2
			c-2.2-0.3-4.6-0.4-6.8-0.5c0-3.7,0-7.4,0-11.1c0.3,0.2,0.5,0.4,1,0.8c0-3.6,0-7,0-10.3c0.7-0.2,1.3-0.4,2.1-0.4c3.1,0,6.3,0,9.6,0
			C95,50.2,95,52.7,95,55.2z"/>
		<path class="st5" d="M45.7,55.2c0.3,0.6,0.8,1.3,0.8,2c0.1,2-0.3,4-0.1,6c0.1,1.6,1.1,2.5,2.9,1.9c1.5-0.5,3-0.7,4.2,1
			c0.4,0.6,2.5,1,3,0.5c3-2.9,5.6,0,8.5,0.4c0.2,0,0.4,0,0.3,0c1-0.8,1.8-1.4,2.6-2.1c0.2,0.7,0.1,1.5,0.4,2.1
			c1.8,2.7,3.7,5.3,5.5,7.9c-0.3,0.6-0.5,1.2-0.4,1.2c-4,0-7.5,0-11.1,0h0.1c-0.2-0.2-0.4-0.4-0.5-0.5h0.1c-0.2-0.2-0.4-0.4-0.6-0.6
			c-1.4-1.3-2.8-2.7-4.5-4.3c-0.3,1.6-0.4,2.7-0.6,3.8c-0.3,0.5-0.4,1.1-0.7,1.6C55,76,54.3,76.5,54,76.3c-2.9-1.6-5.8-0.2-8.7-0.4
			c0.1-4,0.3-8.1,0.4-12.1c0-0.8-0.2-1.5-0.3-2.3C45.3,59.4,45.5,57.3,45.7,55.2z"/>
		<path class="st6" d="M101.8,88.5c1.3-2.8,2.5-5.5,3.8-8.3c1.1,2.1,3.5,2.5,5,2.1c2.7-0.8,4.7,0,6.7,1.3c-0.6,1.7-1.3,3.4-2,5.1
			c-1.2,0.4-2.3,1.3-3.5,1.3c-1.9,0.1-3.8-0.2-5.7-0.4C104.8,89.2,103.3,88.8,101.8,88.5z"/>
		<path class="st7" d="M146.3,89.6c-0.4,1.8-0.5,3.6-1,5.4c-0.1,0.4-0.8,0.9-1.3,1c-3.4,0.2-6.8,0.4-10.2,0.4c-2.2,0.1-2.8-1-1.9-3
			c0.8-1.9,1.5-3.8,2.2-5.7c0.4,0.5,0.8,1.1,1.1,1.3c2.6-0.1,4.9-0.1,7.2-0.4C144.1,88.3,145.2,88.6,146.3,89.6z"/>
		<path class="st6" d="M75.9,80.2c0.7,2.5,1.4,4.9,2.2,7.4c-0.9,2-2.1,3.1-4.5,1.9c-0.3-0.2-0.8,0.2-1.3,0.1
			c-1.6-0.3-3.2-0.6-4.8-0.9c-0.1-0.4-0.2-0.8-0.3-1.4c-0.3,0.8-0.5,1.3-0.7,2c-0.8-3.1-1.6-6.3-2.4-9.4c1,0.5,1.9,1.3,3,1.4
			C70,81.5,73,81.4,75.9,80.2z"/>
		<path class="st8" d="M117.4,83.6c-2.1-1.3-4-2.1-6.7-1.3c-1.5,0.4-3.9,0.1-5-2.1c1-2.1,2.1-4.1,3-6.1c0.3,0.5,0.6,1.1,1,1.8
			c1.6-2.1,8.1-1.8,10.5,0.4C119.2,78.5,118.3,81.1,117.4,83.6z"/>
		<path class="st5" d="M140.7,69c0.4,1.6,1.3,2.1,3.1,2.1c2.3,0,4.7,0.7,7,1.1c-0.5,2.2-1.1,4.5-1.7,6.7c-0.4,0.1-0.8,0.2-1.3,0.2
			c-2.6-0.2-5.2-0.4-7.9-0.7c-0.9-0.1-1.8,0-2.7,0c0.5-2.2,1.1-4.5,1.7-6.7c0.2-0.2,0.4-0.4,0.5-0.6l0,0c0.2-0.4,0.4-0.7,0.5-1.1
			C140.3,69.7,140.5,69.3,140.7,69z"/>
		<path class="st7" d="M101.8,88.5c1.4,0.4,2.9,0.7,4.4,1c1.9,0.3,3.8,0.5,5.7,0.4c1.2-0.1,2.3-0.8,3.5-1.3
			c-0.9,2.2-1.8,4.5-2.6,6.6c-4.8,0-9.4,0-14.6,0C99.6,92.8,100.7,90.6,101.8,88.5z"/>
		<path class="st6" d="M146.3,89.6c-1.1-1.1-2.2-1.3-3.8-1.1c-2.3,0.4-4.7,0.3-7.2,0.4c-0.2-0.3-0.6-0.8-1.1-1.3
			c0.8-2.4,1.7-4.8,2.5-7.2c0.1,0.6,0.2,1.3,0.3,1.9c2.5,0,4.9-0.4,7.2,0.1c2.1,0.4,3.4,0.1,4.5-1.7
			C147.9,83.6,147.1,86.6,146.3,89.6z"/>
		<path class="st7" d="M93.3,87.5c0,0.4,0.1,0.6,0.1,1c0,1.9,0,3.8,0,5.7c-3.9,0-7.4,0-10.8,0c-0.3-2.3-0.5-4.5-0.8-6.6
			c0-0.4,0-0.7,0-1.1C85.6,86.9,89.5,87.2,93.3,87.5z"/>
		<path class="st5" d="M120.1,76.1c-2.3-2.1-8.9-2.5-10.5-0.4c-0.4-0.7-0.6-1.3-1-1.8c0.8-1.8,1.5-3.7,2.3-5.5
			c-0.2-0.4-0.3-1-0.5-1.1c-1.4-0.2-2.9-0.2-4.4-0.2c2.3-0.2,4.6-0.3,7.4-0.4c-1.1,1.5-1.6,2.3-2.1,3.1c0.2,0.2,0.4,0.4,0.5,0.5
			c0.7-0.7,1.5-1.3,2-1.8c3,0.5,5.6,1,8.3,1.4c-0.5,1.5-1.1,3.1-1.6,4.7C120.4,75.2,120.2,75.7,120.1,76.1
			C120.1,76,120.1,76.1,120.1,76.1z"/>
		<path class="st8" d="M94.5,74.2c-0.4,3.5-0.7,7.1-1.1,10.6c-0.5-0.5-1-1.6-1.5-1.7c-3.3-0.6-6.7-1-10-1.4c0-1.4,0-2.8-0.1-4.2
			c2.3,0,4.6,0,6.9-0.1c4.3-0.2,4.9,1.3,5.3-4.5c0-0.3,0.2-0.4,0.4-0.7C94.4,72.9,94.4,73.6,94.5,74.2z"/>
		<path class="st8" d="M63.4,78.5c-0.4-0.9-0.9-1.7-1.4-2.6c3.6,0,7.2,0,11.1,0c0,0.1,0.3-0.5,0.4-1.2c0.7,1.8,1.4,3.6,2.1,5.3
			c-2.8,1.3-5.8,1.3-8.8,1c-1.1-0.2-2-0.9-3-1.4H64C64,79.3,63.7,78.9,63.4,78.5z"/>
		<path class="st1" d="M109.2,69.6c-4.4,8.5-8.9,17-13.2,25.5c-0.2-0.1-0.4-0.1-0.5-0.2c0.2-2,0.3-3.9,0.4-5.9
			c0.4-0.2,0.8-0.4,1.3-0.5c0.5-0.8,1.1-1.7,1.6-2.5c2.6-4.8,5.2-9.7,7.8-14.4c-1.4-0.7-2.2-1.1-3.1-1.4c0.4-0.4,0.7-0.7,1.1-1.1
			c1.4,0.2,2.9,0.3,4.3,0.4C108.9,69.5,109.1,69.5,109.2,69.6z"/>
		<path class="st7" d="M67.5,88.6c1.6,0.3,3.2,0.6,4.8,0.9c0.4,0.1,0.9-0.3,1.3-0.1c2.3,1.3,3.6,0.2,4.5-1.9c0.4,2.1,0.6,4.2,1,6.4
			c-3.6,0.2-7.2,0.4-10.8,0.6C68,92.1,67.7,90.4,67.5,88.6z"/>
		<path class="st6" d="M81.8,81.7c3.3,0.4,6.7,0.9,10,1.4c0.6,0.1,1.1,1.1,1.5,1.7c0,0.9,0,1.8,0,2.7c-3.8-0.4-7.7-0.7-11.5-1.1
			C81.8,84.9,81.8,83.3,81.8,81.7z"/>
		<path class="st1" d="M79.2,66.3c0.4,0,0.7,0,1,0c0,0.7,0.1,1.4,0.1,2.1c-0.1,0.2-0.1,0.3,0,0.4c-0.2,4.3-0.4,8.7-0.6,13
			c-3.1-5.2-6.4-10.4-9.5-15.6c0-0.4,0-0.8,0-1.3l0,0c0.4,0.1,0.9,0.2,1.3,0.2c0.3,0.3,0.4,0.5,0.7,0.8c0.1,0.1,0.1,0.2,0.2,0.3
			c0.6,0.7,1.2,1.5,1.8,2.2c0.4,0.6,0.8,1.3,1.2,2c0.2,0.4,0.4,0.7,0.5,1.1c0.2,0.2,0.3,0.4,0.4,0.6l0,0c0.7,1.6,1.4,3.2,2.1,4.8
			c0.2,0,0.4-0.1,0.6-0.1C79.2,73.4,79.2,69.9,79.2,66.3z"/>
		<path class="st8" d="M148.7,80.6c-1,1.8-2.4,2.1-4.5,1.7c-2.2-0.4-4.7-0.1-7.2-0.1c-0.1-0.5-0.2-1.2-0.3-1.9
			c0.2-0.6,0.4-1.3,0.6-1.9c0.9,0,1.8,0,2.7,0c2.6,0.2,5.2,0.4,7.9,0.7c0.4,0,0.8-0.1,1.3-0.2C149,79.5,148.8,80.1,148.7,80.6z"/>
		<path class="st0" d="M97.2,88.5c-0.4,0.2-0.8,0.4-1.3,0.5c0-0.7,0-1.4,0-2.1c0-2.1,0.1-4.3,0.1-6.4c0-3.8,0-7.5,0-11.5
			c3,0,5.7,0,8.5,0c-0.4,0.4-0.7,0.7-1.1,1.1c-1.6,0-3.1,0.1-4.7,0.1c-0.4,0.5-1.2,1.1-1.2,1.6C97.3,77.4,97.2,82.9,97.2,88.5z"/>
		<path class="st1" d="M67.5,88.6c0.3,1.8,0.4,3.6,0.7,6c3.6-0.2,7.2-0.4,10.8-0.6c-0.5,0.4-1,1-1.5,1C74.2,95,70.8,95,67.4,95
			c-0.3-2-0.6-3.9-0.9-5.9c0.2-0.5,0.4-1.1,0.7-2C67.4,87.8,67.4,88.1,67.5,88.6z"/>
		<path class="st0" d="M81.3,94c0.2-2.1,0.4-4.3,0.5-6.4c0.3,2.1,0.5,4.3,0.8,6.6c3.4,0,6.9,0,10.8,0c0-1.9,0-3.8,0-5.7
			c0.3,2.1,0.5,4.1,0.8,6.5c-4.4,0-8.3,0-12.4,0C81.7,94.9,81.5,94.3,81.3,94z"/>
		<path class="st5" d="M126.8,66.8c4.9,0,9.8,0,14.7,0c0,0.2,0,0.4,0,0.6c-0.3,0.1-0.6,0.2-0.9,0.4c-0.5,0-1.1,0-1.6,0
			c-0.2,0-0.4,0-0.5,0c-0.2,0.1-0.4,0.2-0.5,0.3c-0.2-0.1-0.4-0.2-0.6-0.3c-3.4-0.1-6.8-0.2-10.2-0.3C127,67.2,126.9,67,126.8,66.8z
			"/>
		<path class="st4" d="M127.1,67.4c3.4,0.1,6.8,0.2,10.2,0.3c-0.4,0.1-0.6,0.2-1,0.3C133.2,67.8,130.2,67.6,127.1,67.4z"/>
		<path class="st1" d="M96,80.4c0,2.1-0.1,4.3-0.1,6.4C95.9,84.7,96,82.6,96,80.4z"/>
		<path class="st5" d="M68.1,64.5c0.6-0.8,1.2-1.5,1.8-2.3C69.2,63,68.6,63.7,68.1,64.5z"/>
		<path class="st5" d="M150.7,72.2c0.2-0.7,0.4-1.4,0.5-2.1C151,70.8,150.9,71.5,150.7,72.2z"/>
		<path class="st2" d="M80.3,65.7c0-0.7,0-1.3,0-2.1C80.3,64.4,80.3,65,80.3,65.7z"/>
		<path class="st0" d="M70.1,65c0,0.4,0,0.8,0,1.3C70.1,65.9,70.1,65.5,70.1,65z"/>
		<path class="st8" d="M120.1,76c0.2-0.4,0.4-0.8,0.4-1.3c0,0.4-0.1,0.7-0.1,1.1C120.4,76,120.2,76,120.1,76z"/>
		<path class="st2" d="M80.2,68.9c-0.1-0.2-0.1-0.3,0-0.4C80.2,68.5,80.3,68.6,80.2,68.9C80.4,68.8,80.3,68.9,80.2,68.9z"/>
		<path class="st5" d="M123.1,68c0.2-0.5,0.4-1.2,0.6-1.7C123.6,66.8,123.3,67.4,123.1,68z"/>
		<path class="st5" d="M124.2,65c0.2-0.4,0.4-0.9,0.5-1.3C124.5,64.1,124.4,64.6,124.2,65z"/>
		<path class="st5" d="M122.7,69.1c0.2-0.4,0.4-0.7,0.5-1.1C122.9,68.3,122.8,68.7,122.7,69.1z"/>
		<path class="st5" d="M122.1,70.1c0.2-0.4,0.4-0.7,0.5-1.1C122.5,69.4,122.3,69.8,122.1,70.1z"/>
		<path class="st1" d="M79.3,62.6c0,0.5,0,1.1,0,1.5C79.2,63.7,79.2,63.2,79.3,62.6z"/>
		<path class="st6" d="M55.9,74.2c0,2.9,0,5.7,0,8.5c-0.2,1.6-0.3,3.1-0.4,4.7c-1.6-1.2-0.4,1.3-1.3,1.1c-2.1-1.8-4.4-3.4-7.4-2.1
			c-0.3,0.1-0.7,0.1-1,0.1c-0.2,0-0.4,0-0.6-0.1c0-1.6,0-3.2,0-4.7c2.5-0.4,5-0.9,7.5-1c1.5-0.1,2.3-0.4,2.4-2
			c0.1-1,0.2-1.9,0.3-2.9C55.4,75.3,55.6,74.8,55.9,74.2z"/>
		<path class="st8" d="M55.2,75.9c-0.1,1-0.2,1.9-0.3,2.9c-0.1,1.5-0.9,2-2.4,2c-2.5,0.1-5,0.6-7.5,1c0-2,0-3.8,0.1-5.8
			c2.9,0.2,5.8-1.3,8.7,0.4C54,76.4,54.7,75.9,55.2,75.9z"/>
		<path class="st0" d="M45.1,86.4c0.2,0,0.4,0,0.6,0.1c-0.1,1.8-0.3,3.5-0.2,5.3c0,0.5,0.6,1.4,1,1.4c2.7,0.1,5.4,0.1,8.5,0.1
			c-0.4-1.9-0.6-3.3-0.8-4.7c0.9,0.2-0.3-2.1,1.3-1.1c0,0.5,0,1.1,0,1.6c-0.1,1.3-0.1,2.4-0.2,3.7c-0.2,0.5-0.4,1.1-0.6,1.7
			c-3.2-0.3-6.4-0.4-10.2-0.7C44.7,91.3,44.9,88.9,45.1,86.4z"/>
		<path class="st6" d="M55.6,92.7c-0.1,0.1-0.2,0.1-0.3,0.2c0.1-1.3,0.1-2.4,0.2-3.7C55.5,90.4,55.5,91.5,55.6,92.7z"/>
		<path class="st5" d="M45.7,52.5c0-0.9,0-1.7,0.1-2.6C47.3,50.8,47.4,51.7,45.7,52.5z"/>
		<path class="st5" d="M93.9,69.5c0.1,0.9,0.3,1.8,0.4,2.7c-0.1,0.3-0.3,0.4-0.4,0.7c-0.4,5.8-1,4.3-5.3,4.5
			c-2.3,0.1-4.6,0.1-6.9,0.1c0.2-3,0.4-6,0.6-9c2.2,0.2,4.6,0.3,6.8,0.5c1.3,0.2,2.6,0.7,4.2,1.2C93.3,70.2,93.6,69.9,93.9,69.5z"/>
		<path class="st5" d="M82.3,57.3c0.1-2.9,0.1-5.7,0.2-8.6c0.3-0.4,0.5-0.7,0.8-1l0.1,0.1c0,3.3,0,6.7,0,10.3
			C82.8,57.7,82.6,57.5,82.3,57.3z"/>
		<path class="st5" d="M83.3,47.3c0.7,0,1.4,0,2.1,0c-0.7,0.2-1.3,0.4-2.1,0.4l-0.1-0.1C83.3,47.6,83.3,47.5,83.3,47.3z"/>
		<path class="st8" d="M61.5,75.4c-0.2-0.2-0.4-0.4-0.6-0.6C61.2,75,61.4,75.1,61.5,75.4z"/>
		<path class="st8" d="M62.1,75.9c-0.2-0.2-0.4-0.4-0.5-0.5C61.7,75.6,61.9,75.8,62.1,75.9z"/>
		<path class="st6" d="M63.4,78.5c0.3,0.4,0.5,0.7,0.8,1.1C64,79.3,63.7,78.9,63.4,78.5z"/>
		<path class="st3" d="M83.3,47.3c0,0.2,0,0.3,0,0.4c-0.3,0.4-0.5,0.7-0.8,1C82.7,48.3,83,47.8,83.3,47.3z"/>
		<path class="st4" d="M139,67.7c-0.2,0-0.4,0-0.5,0C138.6,67.7,138.8,67.7,139,67.7z"/>
		<path class="st7" d="M54.1,88.6c0.3,1.4,0.5,2.9,0.8,4.7c-3.1,0-5.8,0.1-8.5-0.1c-0.4,0-1-0.9-1-1.4c-0.1-1.8,0.1-3.5,0.2-5.3
			c0.4,0,0.7,0.1,1-0.1C49.7,85.1,52,86.8,54.1,88.6z"/>
	</g>
</g>
</svg>
