<?xml version="1.0" encoding="utf-8"?>
<!-- Generator: Adobe Illustrator 22.1.0, SVG Export Plug-In . SVG Version: 6.00 Build 0)  -->
<svg version="1.1" id="Layer_1" xmlns="http://www.w3.org/2000/svg" xmlns:xlink="http://www.w3.org/1999/xlink" x="0px" y="0px"
	 viewBox="0 0 200 200" style="enable-background:new 0 0 200 200;" xml:space="preserve">
<style type="text/css">
	.st0{fill:#FFFFFF;}
</style>
<path class="st0" d="M36.3,112.6c-0.3-0.7,1.3-1.7,1.4-1.6l0,0c0.2,0.2,0.2,0.1,0.2-0.1l0,0c0.2-0.2,0.2-0.2-0.1-0.2
	c-0.1-0.5-0.2-2.6-1.5-2c0-0.7-1-4.2-2.5-2.9c0-0.7-0.3-1.8-1.1-1.2c-0.2-0.7-0.7-2.4,0-2.3c-0.2-1.2,0-2,1.2-2.4
	c-0.1,0.3,1.8,0.9,2.2,0.3c-0.1,0.7,2.2,0.2,2.5,0.1c-0.1,0.3,7.5,0.3,8.3-0.8c-0.2,1.6,8.6-4.1,6.9-5.3c0.5,0.1-0.2-0.4,0.5-0.6
	c-0.3-0.1,0.4-2.1,0.7-2c-1.1-2.2,0,0,0-0.7c-0.2-0.2-0.5-0.2-0.8,0c0-0.3-2.4-0.8-1.5-0.8c-0.5-0.3-1.3-0.8-0.7-0.2
	c-0.9,0-2.5-1.4-3.2-0.5c0.1-0.6-1.4-0.3-1.8-0.1c0.2-1-1.7,0-2.1-0.6c-0.4,0.8-1.1,0.3-1.9,0.1c-0.1,0.4-5.4,1.7-6.5,1.8
	c0.2-0.5,0.8-0.1,0.1-0.6c-0.1,0,3.7-3.5,3.3-2.3c0.8-0.5,1.5-1.1,2.3-1.7c1.6-1,1.8,0.1,3-0.5c-0.6,1.6,2-0.5,2.5-0.7
	c1.1-0.5,2.2-0.9,3.3-1.4c0.6-0.2,3.7-1.3,3.1-1.8c1.2,0.3-0.4-0.6,0.8-0.4c-0.8-0.5,1.2-1,0.2-1.7l0,0c-0.2-0.2-1.8,1.2-1.7,0.6
	c-0.5,0.1-0.9,1.1-0.7,1c-0.4,0.3-1.2,0-1.3,0.8c-0.7-0.9-0.8-0.8,0-1.5c-0.5-0.1-0.7-0.3-0.6-0.6c-0.5,0.5-0.8,0.4-0.9-0.2
	c-0.1,0.5-0.3,0.7-0.7,0.4c0.2-0.6-1-0.1-1.3-1.8c-0.8,0.1-0.3,0.3-1.2,0l0,0c-0.2-0.1-0.4-0.3-0.6-0.4c-0.8,2.9-3.2-1.4-1.6-1.1
	c0.1-0.3,1,0.7,1.1,0.8c0.2-0.2,0.4-0.5,0.7-0.7c-0.2,1,1.1-0.9,1.2-0.9c0.1-0.1,1.3-1.2,1.4-1.2c0.3,0.3,0.1,0.7-0.4,1.2
	c0.5,0.3,0.9,0.1,1.2-0.7c-0.6,1.6,0.9,0.1,1.3-0.2c0.4,0.1,0.5,0.4,0.4,0.7c1.1-0.1,3-3.9,3.8-1.9c-1.3-0.3-2,2.9-2,3.9
	c-0.4,0,0.1-0.2-0.2-0.4c-0.1,0.7-0.3,0.7-0.8,0.2c-0.4,1,0.9,0.1,0.2,1.5c1,0,1.2-0.1,0.6-0.5c0.7,0.1,3.3-3.4,4.2-2.9
	c-0.4,1,0.6,1.2,1.1,0.4c0.1-0.1,0.1-1.2,0.1-1.5c-0.3,0.6-0.4,0.4-0.3-0.6c0.8,0.6,2.3,0.3,2.7-0.9c0.3,1-0.3,1.9,0.7,1.3
	c0.4,1.6-0.7-1.4,0.2,1.5c-0.8,0-1.1,0.2-1.7,0.4c0.4,1-1.3,1.1-0.6,1.4c-0.3,0.1-0.7-0.3-1-0.3c-0.2,1.3,0.7,0.2,0.7,0.7
	c0,0.3-0.3,1.1-0.2,1.3c0.3,1.5,0.5,2.8,0.9,3.8c0.5-0.1,2.1,0.1,1.9,0.9c0.6-0.6,1.6,0.4,2.2,0.7c0.3-0.6,0.5-1.6,1-2
	c0.2,0.1,0.2,0.2,0,0.4c0.5-0.1,1.3-1.1,1.2-1.9c0.2,0.2,0.4,0.2,0.5,0c-0.6-0.2-0.1-0.3-0.2-1.6c1.3-0.5,1.7-0.1,1.4,1
	c0.3-0.8,1.7,1.2,1.4,1.8c0.7,0.5,0.1,0.3,0,0.6c1.2,0.7,0.4,0.4,0.3,0.7c0.4,0.3,0.7,0.4,0.2,0.3c1,1.4-0.4,0.4,0.7,1.1
	c-0.2,0.5-1.4-0.9,0.2,0.8c-0.5-0.1-0.3,0,0.2,0.3c0,0.2-1,1.6-1,1.8c-1-1.2-0.1,0.3-0.7-0.3c0,0-1.5,0.1-2.4,1.2
	c-0.2-0.1-0.2-0.2-0.1-0.4c-0.4-0.1-0.9,1.1-0.7,0.2c-1.6,1.1-3.2,0-5.1,1.8c0.1-0.3-1.3,1-1.5,1.7c-0.3,1.3,0.2,3.5,0.9,4.6
	c1.1,1.7,3,2.7,4.6,3.5c1.3,0.6,3.9,1.6,5.2,1.4c0.4,0,1.5-0.9,2.2-1c2.7-0.3,3.5,3.1,4.2,4.6c-1.6,0.3-0.2,0-0.5,0.4
	c-1.2,0-1.1,1-1.9,0.7c0,0.7-0.5,3.5-1.4,3.3c0.6,0.5,0,0.2,0.2,1.5c-1.8-0.7,2.5,2.3,0.8,2.1c1.1,0.8-0.3,4.4,0,4.7
	c-0.2,0-0.9,1.7-1,1.8c-0.4,0.6-0.7,0.9-1.6,1.4c-0.9,0.5-3,1.1-3.2,1.5c0.1-1.2-0.3-1.6-0.9-1.1c0.8,0.3-0.1,3,0.2,3.2
	c-0.8,0.2-0.2-0.1-1-0.3c0.2,0.1,0.3,0.2,0.5,0.3c-2.1,0.4,0.4,0-1,0.5c0.1-0.3,0-0.5-0.5-0.5c-0.3,2.3-0.2-0.4-0.9,0.8
	c0.1-0.7-2.4,0.9-2.1-0.9c-1,1.4-2.6-0.9-4.1-1.3c-0.9-0.3-1.9-0.1-2.7,0.1c-0.6,0.2-2.7,1.2-3.1,1c0.5,0.4,0.3,0.5-0.5,0.4
	c0.2,0.1,0.3,0.2,0.2,0.3c-0.6-0.3-1.7,0.1-1,0.2c-0.2,0.3-3.8,0.2-4.3,0.1c-1.1-0.3-2.6-2.1-1.8-2c-0.2-0.2-0.2-0.2-0.4-0.4
	c0.9,0.2-0.6-0.8-0.7-0.8c-0.6-0.8-2,0.9-0.7-1.6c-0.6,0-3.7-1.4-4-0.9c-0.3-0.9-0.8-2-1.6-1.8c0.4-1.1-2.5-2.7-0.8-4.4
	C35.5,112.9,36.6,113.4,36.3,112.6z M68.4,108.8c-1-0.1-2.3-4.9-4.6-5.4c0.2,0.2,0.1,0.5-0.1,0.8c-0.2,0-0.3-0.1,0-0.4
	c-0.3,0.3-1-0.2-1.4-0.4c-1.6-0.9-1.6-1.7-3.5-1.9c-0.6-0.1-3.1,0.2-3-0.4c-0.8,0.9-3.8,1.8-4.4,2.1c-1.2,0.5-1.5,0.8-2.5,1
	c-0.1,0-0.9-0.3-1.9,0.3c-1.1,0.7-2,2.1-2.6,2.9c-0.6,0.7-1.1,2.2-1.9,2.8c0.1,0.2,0.3,0.1,0.4-0.3c0.1,1.8,1.2,0.3,1,0.2
	c0.2-0.1,2.9-2,2.4-2.5c0.8,0.1,1.5-2,1.8-2.2c1.4-0.6,1.3,0.8,1.5,1.1c0.9,1.6,1.2,2,2.4,2.5c0.5,0.2,1.8-0.5,2.4,0.4
	c0.8,1.3-0.5,1.7-0.5,1.3c-0.1,0.2-0.2,0.4-0.4,0.5c-0.6-0.4-2.5,0.5-2.1,0.6c-0.8,0.5-0.9-0.5-1.6,0.5c0.1-0.7-2.7,2.3-3.1,2.7
	c3.6-2,6-3.5,10.2-2.9c1.4,0.2,5.3,1.6,5.4,1.5c-0.2,0.7,1.6,1.3,2.2,1.2c-0.3-0.4-2.4-3.1-2.4-2.9c-0.4,0.6-1.4-1.6-1-1.2
	c2.7-0.1,1.7-0.9,2.4-2.5c1-2-0.8-1.4,0.9-1.3c0,0,1,1.2,0.9,1.1c0.4,0.4,1.2,1.9,2,2.2C69,110.9,69.3,109.9,68.4,108.8z
	 M60.7,116.2c0.2-0.1,0.4-0.2,0.5-0.3c0,0-0.5-0.7-0.4-0.9c-0.4,0.3-0.5-0.2-0.9-0.3c-0.1,0.1,0,0.2,0.2,0.2c-0.1,0-4.1-0.7-4-1.1
	c-0.1,0.2-0.5,0.5-0.4,0.4c0.1-0.3-0.1-0.3-0.7,0c-0.8-0.1-1,0.2-0.6,0.9c-0.5,0.4-1.1,0.9-1.6,1.4c0.1-0.3,0.1-0.4-0.1-0.3
	c0,0.7,0.4,1.5,0.4,1.9c0.2-0.3,5.3-0.7,5,0.3c0.5-0.4,1.3,0.4,1.4-0.1c0.4,0.3,2.2,0.3,2.5-0.7C61.1,117.3,62,116.9,60.7,116.2z"/>
<path class="st0" d="M155.8,111.6c-0.1,0.5,1.2,4-0.9,2.6c-0.1,0.3-0.2,0.7-0.1,1c0.1-0.4,0.5-0.2,0.7,0c-0.6,0.9-2,2.4-0.7,2.7
	c-0.1,0.4-0.4,0.6-0.8,0.5c0.1,0.1,0.3,0.2,0.6,0.4c-1.6-0.2-1.8,1.5-3.6-0.2c0.1,0.1-0.8-1.6-1.5-2.1c-0.5-0.4-1.6-0.7-1.6-0.7
	c-0.9-0.5-1.2-1.1-2.1-1.5c-0.8-0.3-1.4-0.4-2.1-0.6c-1.6-0.5-3.7-0.2-4-2c0.3,0.1,3.9-2,3.7-1.8c-0.6-0.2-0.1-5.4-0.5-6.3
	c-1.3-2.5-3.4-2.6-5.7-2.6c0-0.3,0.3,0.1,0.3-0.2c-3.2,0-6.1,1.1-6.9,4.8c-0.2,1,0,1.3,0,2.5c0.1,1.8,0.4,1.6,1.2,2.7
	c0.5,0.8,1.8,0.6,1.1,2.2c-0.2,0.6-2.4,0.2-1.5,0.3c-0.3,0.4-3.1,1.2-3.2,1.5c-0.4,0.7-2.1,0.6-1.1,1.2c-1.3,0.5-3.1,1.8-3.1,2.8
	c-0.4-0.4-0.7-0.3-0.8,0.2c-0.4-0.2,0.1-0.1-0.5-0.2c-0.4-0.6,0.5-0.6-0.8-0.6c0.2-0.1,0.6-0.4,0.7-0.5c-1.7-1.2,0.3-1.6,0.3-3l0,0
	c0-0.7-0.3-1.2-0.9-1.6c-0.2,1.2-1.2-0.6-1.2-0.6c-0.2-0.1-1-0.8-1.1-0.9c0.4,0.4-0.9,0.6-0.9,0.6c0.2-0.6,0.4-1.1,0.5-1.8
	c0.1,0.4,0.4,0.3,0.8-0.3c0-0.3-0.2-0.4-0.5-0.3c0.7-0.8-0.4-1.6-0.7-2.6c2.9,0-1.5-2.2-0.7-1.2c0,0-1.3-1.8,0.3-1.6
	c0.1,0.1,5-4.2,5.7-4.6c1.7-0.8,3.6-0.2,4.6-0.4c0.3,0,4.3-1.7,3.5-2.6c1.3,0.6,1.3-4,0.9-4.5c0.9,0.2,0.1-1.1,0.6-1
	c-0.4-1.2-1.5-1.3-2.9-0.8c0.1-0.4-4.7,0.3-4.8,0.4c-1.6,0-5.5-0.2-6.2,1.1c-0.5-1.6,1.2-1.3,1.4-2c0.1-0.4-0.6-2.5-0.7-3
	c0.3,0,0.6,0,1,0c-0.2-0.1-0.3-0.2-0.5-0.3c0.4,0,1.2-0.9,1.4-1.1c-0.1-0.2-0.7-1.2,0-1.1c0-0.5-0.2-0.7-0.7-0.7
	c0.2-0.9,0.6,0.3,0.6-1c-0.4,0-0.6,0.1-0.6,0.5c0.2,0.1,0.1-2.3,0-2.5c0.5,0.3,0.8-1.5,1.3-2.1c0.7-0.8,3.3-3.7,4.6-3.3
	c-0.7-0.8,6.4-2.3,7.6-2.2c0.9,0,6.2,0.5,6.1,1.5c1-0.6,8.1,4.6,7.4,6c0.2,0.1,0.4,0.2,0.6,0.4c-0.5-0.1-0.1,1.7,0,1.8
	c1-0.2,0.1,0.4,1.8,0.6c-0.1,0.3-0.7,0.2,0.3,0.8c-0.9,0-0.5,0.1,0.3,0.4c-0.1,0.4-0.9-0.5,0,0.4c-0.7-0.2-0.1,4.1,1.3,4.5
	c-0.8,0.4-0.2,0.3-0.3,0.9c-1.1,0-5.1-1.1-5.7,0c-0.4-0.2-0.5-0.3-0.3-0.4c-2-0.2-4.4-0.5-6.8-0.3c0,0-1.9,1.5-1.8,1
	c-0.4,0.3-0.4,0.6,0.2,0.7c0-0.1-0.1,1.2-0.6,1.1c0.7,1.3,2.4,3.7,2.9,4.3c2,2.1,2.3,1.6,4.9,1.3c1.5-0.2,3.3,0,4.6,0.5
	c1.6,0.6,1.1,0.4,1.8,1.1c0.1,0.1,0.4,1.2,0.3,1.2c0.1-0.3,0.3-0.3,0.6,0c-0.9-0.1,2.6,1.9,2.7,1.4c0.4-0.4,1.4,0.9,0.7,0.7
	c2.1,1.6,0.2,6.9-0.5,8.1l0,0C155.8,111.3,155.4,111.4,155.8,111.6z"/>
<path class="st0" d="M131.2,120.3c-1,0.1-3.1,1.3-4,1c-0.1,0.2-0.2,0.4-0.3,0.6c0-0.2,0-0.3,0-0.5c-0.2,0.6-0.5,0.7-1,0.2
	c0,0.1-0.2,1.3-0.4-0.4c-0.2,0.5-0.4,0.5-0.4-0.1c1.9-1.4,3-2.7,5-4.4c-0.1,0.2-0.1,0.2-0.1,0.3c2.8-4.2,13.3-2.3,16.1-0.5
	c0.3,0.2,2.5,2.6,2.9,3c0.3,0.3,1.4,0.1,1.8,1.1c1.1,2.9-0.9,0.9-1.9,1.8c0.1-0.6-0.2-0.2-1.1-0.6c-0.1,0.3,0.8,1.4,1.1,1.7
	c-1.1-0.3,0.4,0.3,0.4,0.7c0.1,1.2-1,0.1-0.4,1.5c-0.4-0.2-5,1.5-5.2,0.5c-0.1,0.2-0.9,0.8-1,0.7c-0.5-0.2-0.4-0.4-0.8-0.7
	c-0.1,0.2-0.3,0.5-0.4,0.7c0-0.9-1.5-0.6-1.7-0.3c-1.6-0.8-3.6-0.2-5.5-1.1c0.2,0.1,0.3,0.2,0.5,0.3c-0.1,0.3-0.2-0.2-0.6,0.5
	c-0.2,0-0.2-0.2,0-0.4c-0.9,0.6-2.5,0.1-3.3-0.3c-0.1,0.3-0.4,0.5-0.7,0.5c0.4,0,0.5,0,0.2,0.2c-0.3-0.6-1.5-1.5-1.7-1.4
	c2-3.9,4.9-3.7,8.8-3.8c1.8,0,5.2,0.8,7-0.4c1.1-0.7,0.6-2.5,1.5-3c-0.3-0.4-0.4,0.8-0.3-0.3c-0.7,0.9-5.4-2.1-6.5-0.8
	c-0.4-1.3-7.1,0-6.8,0.3c-0.2-0.1-0.4-0.1-0.5,0.1c0-0.1,0-0.2,0-0.3c-0.3,0.4-1.7,0.7-1.2,0.9c-0.6,0-1.2,0.2-1.6,0.7
	c0.4,0.2,1.4,0.4,1.1,1.1c0.6-0.5,0.3,0.4,0.7,0.5C130.2,119.6,131.4,119.8,131.2,120.3z"/>
<path class="st0" d="M137.7,45.5c2.1,0.5,7-3,8,0.8c1.4,5.2-6-1.1-7.4,2.7c-0.6,1.6,6.5,2,7.6,3.7c3.1,4.9-3.1,6.6-6.6,6.6
	c-1,0-3.1,0.1-3.9-0.4c-1.1-0.7-1.7-3.2-0.6-4.2c1.9-1.7,1.5,0.8,2.5,1.4c0.9,0.6,3.5,0.8,4.5,0.1c3.9-2.5-4-2.7-5.3-3.1
	C132.4,51.9,134.1,46.6,137.7,45.5z"/>
<path class="st0" d="M55.3,58.8c-1.7,0.2-3.1,0.7-3.4-1.3c-0.1-0.9,0.8-3,0.9-4c0.1-1,0-2-0.1-2.9c-0.1-1.4-1.4-3.9-1-4.7
	c0.4-0.8,5-0.3,5.6,0.3c1.2,1.2,2.4,9.3,5.4,7.6c2.1-1.1-0.7-5.6-0.3-6.7c0.5-1.2,3.3-1.9,4.1-0.9c0.9,1.1-0.4,1.1-0.7,2.2
	c-0.4,1.6-0.4,6.3,0,7.8c0.3,1.1,1.6,1.4,0.7,2.5c-0.7,0.8-4,0.1-4.4-0.3c-0.2-0.2-0.4-1.9-0.6-2.2c-0.4-0.7-1.2-1.4-1.7-2
	c-0.7-0.9-2.7-4.4-4-3.2c-1.4,1.3,0.6,4.9,0.5,6.3c0,0.3,0.8,0.9,0.4,1.3C56.7,58.8,55.3,59.1,55.3,58.8z"/>
<path class="st0" d="M173,51.1c0.4,5.7-3.3,6.5-8.2,7.6c-1,0.2-5.5,1.2-5.9,0.1c-0.4-1.1,0.9-0.8,1-1.5c0.2-1.3,0.5-2.2,0.4-3.6
	c-0.1-0.9-0.3-2.3-0.5-3.2c-0.2-0.7-0.8-1.8-0.9-2.2c-0.2-0.6-1.4-0.4-0.5-1.5c0.6-0.7,2.9-0.4,3.6-0.5c2.7-0.2,5.1-0.5,7.5,0.7
	C169.6,46.9,174.1,50.5,173,51.1z M168.8,52c-0.3-1.9-2.6-3.8-4.7-3.4c-2.1,0.5-1.6,2.1-1.5,4.1c0.1,1.7,0,3.7,1.8,4
	C166.8,57.2,168.8,54,168.8,52z"/>
<path class="st0" d="M118.3,52.8c1.6,9.3-11.9,8.5-11.9,0.7c0-3.8,1-7.4,5.4-8.1c2.2-0.4,3.6,0.5,4.9,2.3
	C116.8,47.9,119.3,52.8,118.3,52.8z M115.6,52.2c0-5-5.5-4.4-5.7,0.6C109.6,58.4,115.6,57.7,115.6,52.2z"/>
<path class="st0" d="M120.7,52.6c-0.2-2.3-1.8-5.1-0.2-6.3c0.4-0.3,3.1-1,3.6-0.6c0.9,0.7-0.1,1.1,0,1.6c-0.7,0.4-1,1-0.6,1.8
	c0.3,1.1,0.4,2.2,0.5,3.3c0.3,1.3,0.3,2.9,1.8,3.2c4.3,1,2.9-5.8,2.9-7.6c0-1.7-0.6-1.7,1.5-2.2c1-0.3,3.1-0.2,3.4,1
	c0.1,0.5-0.9,1.7-1.1,2.2c-0.3,1.3-0.1,2.7-0.2,4.1c-0.3,3.8-3.1,6-7,5.6c-1.6-0.2-3.2-0.8-4-2.2C121.1,56.1,120.6,52.6,120.7,52.6z
	"/>
<path class="st0" d="M46.3,56.6c1.7,0,3.7-1.9,3.9,0.6c0.1,2.1-1.8,1.8-3.3,1.6c-1.8-0.2-3.8-0.1-5.5-0.4c-2.6-0.5-1.5-0.4-1.1-2.4
	c0.4-2,0.3-4.4,0.3-6.4c0-0.4-0.8-3.8-0.9-3.5c0.6-1.4,8.6-1.2,9.8-0.7c1.2,0.5,1.9,1.1,0.6,2.3c-1.3,1.1-0.7,0.1-1.8-0.1
	c-1-0.1-2.2-1.4-3.6-0.2c-0.5,0.4-1.3,2.2-0.6,2.9c1,1,1.9-0.9,2.9,0.5c1,1.4-0.7,2.9-1.7,3.2c-0.9,0.3-1.9-1.9-1.9,0.6
	C43.4,56.7,44.7,56.5,46.3,56.6z"/>
<path class="st0" d="M86.8,52.2c0.1,3.5,1.9,5.1,5.3,4.9c1-0.1,6.5-1.5,4,1.4c-1.3,1.6-5.8,1.2-7.5,0.8c-3.1-0.7-4.6-2.4-5-5.6
	c-0.3-2.6,0.3-5.6,2.4-7.4c1.7-1.4,6.6-2.5,8.7-1.3c1,0.6,1.5,0.9,1.1,2c-0.8,1.9-2.6,0.9-3.9,0.7C88.3,47.3,87.5,48.4,86.8,52.2z"
	/>
<path class="st0" d="M33,48c-0.4,1.9-1,4-0.6,5.9c0.2,0.8,1.6,2.6,1.3,3.3c-0.5,1.3-6.4,1.1-6.6,0c-0.1-0.7,1.3-0.7,1.5-1.3
	c0.2-0.7,0.3-2.5,0.3-3.2c0-0.8,0.5-4.7,0-5.4c-1.1-1.5-3.7,0-4.8,0c-1.9,0-2.5-1.4-0.3-2.4c2.9-1.4,9.7-0.3,12.8,0.5
	c0.7,0.2,2.3,0,2.5,1.1c0.2,1.2-1.6,1.5-2.3,1.6C36.2,48.2,32.7,45.3,33,48z"/>
<path class="st0" d="M71.4,58.9c-0.4,0-2.4,0.5-2.7-0.4c-0.2-0.8,1.1-0.9,1.3-1.3c1.1-2.3,2.2-4.7,3.1-7.1c1.2-3.3,2.2-4.8,4.2-1
	c1.4,2.6,2.7,5.2,4.3,7.6c1.4,2.1,2,3.3-1.6,2.7c-4-0.7,0-1.4-1.3-4c-0.9-1.9-4.4-1.7-5.5,0.2c-0.3,0.5,0.1,1.7-0.2,2.1
	C73.6,56.9,71.6,61.6,71.4,58.9z M76.6,52.9c1.6-0.1-0.4-2.2-0.5-2C75.3,52.1,75.3,52.5,76.6,52.9z"/>
<path class="st0" d="M100.9,44.7c4.4,1,1.8,0.9,1.6,4.5c-0.1,1.6-0.4,5.7,0,7.2c0.4,1.3,1.7,1.2,0.7,2.3c-0.4,0.4-2,0.4-2.5,0.3
	c-1.4-0.5-1,0-1.2-1.4c-0.2-1.2,0.4-3.9,0.4-5.1c0-1.8-0.1-3.7-0.1-5.5C99.9,45.8,98.2,45,100.9,44.7z"/>
<path class="st0" d="M42.1,96.4c0.1-0.2-0.4,0-0.6-0.3c1.5-1.3,1.8-1,3.3-0.5c-0.5-0.2-0.5-0.1,0,0.3C43.1,96.4,43.4,96.2,42.1,96.4
	z"/>
<path class="st0" d="M51.8,72.9c0.3-0.2,0.7-0.3,1-0.5c0.3,0.9-1.7,1.8-2.5,2.2C50.9,72.4,50.7,74.9,51.8,72.9z"/>
<path class="st0" d="M63.4,81.1c-0.8-0.4,0.1-0.7-1.1-0.2c0.2-0.4,0.6-2.2,0.7-2.1C64.1,78.5,63.5,80.5,63.4,81.1z"/>
<path class="st0" d="M44.5,75.2c-0.1-0.1-0.2-0.2-0.4-0.4c0.4,0.1,1.5-0.5,1.8-0.7c-0.2,0.3-0.1,0.5,0.1,0.7c-0.4,0-0.8,0.5-0.6,1
	C44.1,76,45.5,74.5,44.5,75.2z"/>
<path class="st0" d="M44.5,75.2c1-0.6-0.1,0.9-0.6,1.1c0-0.2-0.3-0.9-0.4-1.2c0.3,0.2,0.5,0.1,0.5-0.4C44,75.1,44.3,75.1,44.5,75.2z
	"/>
<path class="st0" d="M62.3,75.7c0.4-1,0.6-1.2,1.1-0.9C62.8,74.9,63.5,75.5,62.3,75.7z"/>
<path class="st0" d="M155.8,114.4c0.1-0.2,0.3-0.3,0.4-0.5c0.6,0.4,0.2,1-0.1,1.3C156,114.8,155.8,114.9,155.8,114.4z"/>
<path class="st0" d="M119.6,108.7c0.1,0.2,0.3,0.4,0.4,0.6c-0.7,0.1-1-0.2-0.8-1C119.4,108.5,119.5,108.6,119.6,108.7z"/>
<path class="st0" d="M156.2,113.6c-0.3-0.3-0.3-0.7-0.1-1.1c0.7,0,0.1,0.2,0.7,0.4C156.8,113.3,156.6,113.5,156.2,113.6z"/>
<path class="st0" d="M42.2,97.8c0.4-0.7,0.8-0.8,1.3-0.4c-0.1,0.2-0.9,0,0,0.3C42.8,98.2,42.4,98.2,42.2,97.8z"/>
<path class="st0" d="M117.8,105.6c0,0.4-0.2,0.6-0.6,0.6c0.1-1.1-0.1-0.5,0.6-1.3C117.8,105.2,117.8,105.4,117.8,105.6z"/>
<path class="st0" d="M45.6,77.1c-0.3,0-0.4-0.2-0.2-0.5c0.1,0,0.5-0.1,0.8,0c-0.2,0.1-0.1,0.2,0.1,0.3C46.1,77,45.8,77.1,45.6,77.1z
	"/>
<path class="st0" d="M154.4,117.7c-0.2,0.1-0.4-1,0.2-1C155.1,117.1,155,117.5,154.4,117.7z"/>
<path class="st0" d="M49,82.2c0.4,0.5,0,0.3-0.7,0.8c0.2-0.5,0.4-0.5,0.7-1C49.3,82.2,49.5,82.3,49,82.2z"/>
<path class="st0" d="M120.8,89.7c0.1,0.1-0.2-0.8,0.1-0.6c0.4,0,0.6,0.3,0.6,0.7C121.3,89.8,121,89.8,120.8,89.7z"/>
<path class="st0" d="M49.1,74.9C49.1,74.9,49.1,74.9,49.1,74.9c-0.3-0.1-0.4-0.3-0.3-0.6C49.2,74.4,50.1,75.2,49.1,74.9z"/>
<path class="st0" d="M57.5,71.9c0.1,0.5-0.2,0.8-0.7,0.7C56.8,72.1,57,71.9,57.5,71.9z"/>
<path class="st0" d="M47.7,75c-0.1,0.4-0.4,0.6-0.9,0.4C46.8,75.2,47.4,74.7,47.7,75z"/>
<path class="st0" d="M62.6,77c-0.7-0.3-0.2-0.5-0.1-0.8C63,76.3,63.1,76.6,62.6,77z"/>
<path class="st0" d="M55.5,80c0.3,0.4-0.6,0-0.1,0.2c0,0.2-1.1-0.5-0.1-0.4c0,0,0,0,0,0C55.3,79.9,55.4,80,55.5,80z"/>
<path class="st0" d="M152.2,90.3c1.1,0.6,0.1,0.4,0.1,0.3C152.6,90.5,152.3,90.6,152.2,90.3z"/>
<path class="st0" d="M156.2,113.6c0.3-0.2,0.5-0.2,0.4,0.2c-0.3,0.3-0.3,0.2-0.1-0.3C156.3,113.9,156.2,113.9,156.2,113.6z"/>
<path class="st0" d="M36,113.3c-1.1-0.2-0.1-0.1-0.2-0.5c0,0.2,0.1,0.3,0.1,0.2C35.6,113.1,35.9,113,36,113.3z"/>
<path class="st0" d="M122.9,115c-0.4,0.2-0.4,0.1-0.1-0.4C122.9,114.9,122.6,114.8,122.9,115z"/>
<path class="st0" d="M34.6,105.8C35.7,105.7,34.6,106.1,34.6,105.8z"/>
<path class="st0" d="M122.5,119.3c0.3-0.2,0.4-0.3,0.3-0.5C122.7,119.5,122.7,119,122.5,119.3z"/>
<path class="st0" d="M156.5,110.3c0-0.3,0.3-0.1,0.4-0.1C157.6,110.5,156.6,110.3,156.5,110.3z"/>
<path class="st0" d="M156.6,112.7c0.9,0.2,0.3,0.2,0.1,0.2C156.7,112.6,156.7,112.6,156.6,112.7z"/>
<path class="st0" d="M156.9,112.2C156.2,112.7,156.6,111.8,156.9,112.2z"/>
<path class="st0" d="M156.1,111.7c0-0.2,0.1-0.3,0.1-0.5C156.4,111.3,156.4,111.4,156.1,111.7z"/>
<path class="st0" d="M151.3,86.8c0.3-0.1,0.5-0.3,0.5,0.1C151.9,86.8,151.7,86.8,151.3,86.8z"/>
<path class="st0" d="M51.4,81C51.3,81.5,50.8,81.2,51.4,81z"/>
<path class="st0" d="M156.8,110.2c-0.1-0.1-0.2-0.3-0.3-0.4C157,110.1,157.2,110.1,156.8,110.2z"/>
<path class="st0" d="M151.8,86.7c0.7-0.1,0,0.8,0,0.2C151.8,87,151.7,87,151.8,86.7z"/>
<path class="st0" d="M131.2,120.3C131.3,119.9,131.7,119.7,131.2,120.3z"/>
<path class="st0" d="M122,113.4C122.4,113.4,122.8,113.7,122,113.4z"/>
<path class="st0" d="M51.1,81.3C51,81.4,50.8,81,51.1,81.3z"/>
<path class="st0" d="M155.4,116.8C155.2,116.4,155.7,116.6,155.4,116.8z"/>
<path class="st0" d="M155.4,116.8C155.5,117.1,155.1,116.9,155.4,116.8z"/>
<path class="st0" d="M37.6,110.9c0.2-0.7,0-0.1,0.2-0.1C37.6,110.8,37.6,110.9,37.6,110.9z"/>
<path class="st0" d="M35.6,113.4C35.9,113.5,35.6,113.7,35.6,113.4z"/>
<path class="st0" d="M35.6,113.6C35.7,113.8,35.6,114.1,35.6,113.6z"/>
<path class="st0" d="M156.6,112.5c0,0.2,0,0.3,0.1,0.2C156.3,112.9,156.4,112.5,156.6,112.5z"/>
<path class="st0" d="M47,78.5C47.2,78.9,47,78.7,47,78.5z"/>
<path class="st0" d="M35.9,112.5c0,0.2,0.1,0.2,0.1,0.2C35.7,112.8,35.8,112.8,35.9,112.5z"/>
<path class="st0" d="M156.5,114.6c0-0.1,0-0.2-0.1-0.3C156.5,114.4,156.5,114.5,156.5,114.6z"/>
<path class="st0" d="M119.1,110.9c-0.1,0-0.1,0-0.2,0.1C119,111,119.1,110.9,119.1,110.9z"/>
<path class="st0" d="M122.3,118.8C122.6,118.9,122.5,119.1,122.3,118.8z"/>
<path class="st0" d="M155,116.2c0-0.1,0-0.2,0-0.2C155,116.1,155,116.2,155,116.2z"/>
<path class="st0" d="M152.8,90.5C152.8,90.3,153.1,90.7,152.8,90.5z"/>
<path class="st0" d="M36,112.7c0.3,0-0.1,0.8-0.1,0.3C35.8,113,35.9,112.9,36,112.7L36,112.7z"/>
<path class="st0" d="M68.4,109C68.2,108.7,68.4,108.8,68.4,109z"/>
<path class="st0" d="M155.3,114.6c-0.4,0.3-0.3-0.2-0.4,0.5C154.6,114.5,154.8,114.3,155.3,114.6z"/>
<path class="st0" d="M151.4,87.2C151.4,86.9,152.6,87.5,151.4,87.2z"/>
<path class="st0" d="M35.7,113.7c0.2,0,0.3,0.1,0.5,0.1C36.1,114.1,36,114.1,35.7,113.7z"/>
<path class="st0" d="M155.8,111.3C156.1,111.5,156,111.5,155.8,111.3z"/>
<path class="st0" d="M155.2,114.4c0.5-0.2,0.6,0.4,0.2,0.6C155.4,114.6,155.3,114.7,155.2,114.4z"/>
<path class="st0" d="M155.1,114.2C155.2,114.5,155,114.4,155.1,114.2z"/>
</svg>
