<?xml version="1.0" encoding="utf-8"?>
<!-- Generator: Adobe Illustrator 23.0.3, SVG Export Plug-In . SVG Version: 6.00 Build 0)  -->
<svg version="1.1" id="Layer_1" xmlns="http://www.w3.org/2000/svg" xmlns:xlink="http://www.w3.org/1999/xlink" x="0px" y="0px"
	 viewBox="0 0 200 200" style="enable-background:new 0 0 200 200;" xml:space="preserve">
<style type="text/css">
	.st0{fill:#010101;}
	.st1{fill:#FCFAF6;}
	.st2{fill:#211710;}
</style>
<g id="_x39_M3mHc_1_">
	<g>
		<path class="st0" d="M73.1,54.4L73.1,54.4c0.1,1.7-0.3,3.4,0.2,5.1c0.5,1,1.5,0.4,2.3,0.4c0.6,0,0.4-0.7,0.4-1.1
			c0.2-4.1-0.3-8.1,0-12.2c0-0.4,0.2-1.1-0.4-1.3c-1-0.2-2.1-0.3-3,0c-0.8,0.2-0.5,1.1-0.7,1.7c-0.5,2.1-0.5,4.4-1.2,6.7
			c-1-2.5-1.1-4.9-1.6-7.3c-0.2-1-0.6-1.1-1.5-1.1c-2.6,0-2.6,0-2.4,2.3c0,0.1,0,0.2,0,0.4c0,3.6,0.1,7.2,0,10.9c0,1,0.6,1,1.4,1.1
			c1,0.1,1-0.5,1-1.1c0-1.5,0-3,0-4.5c0-0.2-0.2-0.6,0.2-0.7c0.2,0.1,0.2,0.2,0.3,0.4c0.3,1.6,0.6,3.2,0.9,4.8
			c0.2,1.1,0.8,1.2,1.8,1.2c1.1,0,1.2-0.5,1.4-1.3c0.3-1.5,0.2-3,0.8-4.4C72.9,54.4,73,54.4,73.1,54.4z M74.5,86.3
			C74.5,86.3,74.5,86.2,74.5,86.3c0-0.2,0-0.2,0.1-0.3c0.4-0.4,0.6-0.9,0.4-1.6c-0.5,0.6-0.8,1-0.9,1.6c-0.5,0.5-0.8,1-0.9,2.1
			c0.6-0.6,0.9-1,1.2-1.4C74.6,86.6,74.6,86.4,74.5,86.3z M97.8,115.6c0.1,0,0.2,0,0.2,0.1c0.1,0.2,0.5,0.6,0.1,0.7
			c-1,0.1-0.6,0.4-0.3,0.8c0.2,0.2,0.1,0.7,0.8,0.7c-0.1-0.9,0.6-1.4,1-2c0.9-0.6,1.4,0.7,2.1,0.4c0.2-1.8-0.8-3.1-1.6-4.6
			c-0.1-0.2,0-0.5,0-0.7c0.3-0.6,0.8-0.9,1.5-0.8c0.1-1,1.2-1.6,1.2-2.6c1.1-0.1,2.2-0.1,3.3-0.7c0.5-0.2,1.5-1.2,1.9-0.6
			c0.4,0.6-0.5,1.4-0.9,2.1c-0.3,0.5-0.8,1-1.3,0.9c-1.4-0.4-1.7,0.4-1.8,1.3c-0.1,0.5-0.4,0.4-0.7,0.5c0.8,0.6,1.6,0.1,2-0.4
			c1-1.2,2.5-1.7,3.5-2.8c0.3-0.3,0.7-0.6,0.8-1.1c0.2-0.9,0.9-1.1,1.7-0.8c0.4,0.3,0,1.1,0.8,1.2c0.4,0.3,0.6,0.7,0.6,1.5
			c1.2-1.7,1.5-3.6,2.9-4.9c0.2-0.2,0.1-0.6-0.4-0.5c-0.3,0.1-0.5,0.4-0.8,0.1c0.2-0.8,1.7-0.5,1.6-1.8c-0.9,0.7-2,1.1-2.7,1.9
			c-0.7,0.7-1.7,0.8-2.5,1.1c-0.5,0.2-0.8-0.2-0.7-0.7c0-0.6,0.1-1.2,0.1-1.8c0-0.4,0.2-0.8-0.2-1.2c-0.1,0-0.1,0-0.1-0.1
			c-0.2-0.3-0.4-0.4-0.8-0.4c0-0.6-0.3-1.1-0.5-1.6c-0.6-1.5-2.1-2.3-3-3.5c-0.3-0.4-0.4-0.5,0.1-0.9c0.8-0.4,1.5-1.3,1.5-2
			c0.1-2-0.9-3.9-0.9-5.9c0-0.2-0.1-0.5-0.1-0.5c1.4-0.3,1.6-1.6,2.2-2.6c0.1,0.2,0.2,0.3,0.2,0.4c0.1,0.5,0,1.3,0.8,1.3
			c0.5,0,1.5,0.1,1.4-0.9c0-0.2,0.2-0.2,0.4-0.1c1.4,0.6,2.5-0.1,3.4-0.9c0.3-0.3,0.4-0.2,0.7,0c0.5,0.5,1.7,0.2,1.7,0
			c-0.1-1.1,0.8-0.7,1.2-0.8c0.4-0.2,1-0.2,1.3-0.5c0.8-0.7,2.5-0.3,2.6-1.7c0.9,0.8,0.9-0.3,1.3-0.5c1.7-0.8,2.9-2.2,4.7-2.9
			c2.1-0.9,3.8-2.4,5.4-4c0.7-0.7,1.5-1.1,2.2-1.6c0.5-0.3,0.7,0.3,1.2,0.1c0.1,0,0.1,0.3,0,0.5c-0.8,1.2-1.7,2.3-2.9,3.2
			c-0.8,0.6-0.3,1,0,1.6c0.4,0.8,0.9,0.3,1.3,0.2c0.6-0.2,1.1-0.4,1.5-0.9c0.8-0.7,1.8-1,2.8-0.3c0.4,0.3,0.8,0.4,1.2,0.2
			c0.6-0.4,1-0.1,1.3,0.3c0.4,0.6,0.7,1.2,1.8,1.3c0.5,0,1.6,0.4,1.6,1.3c0.2-0.3,0.7-0.4,0.4-0.9c-0.2-0.2-0.4-0.5-0.1-0.7
			c0.3-0.3,0.6,0,1,0.1c0.7,0.3,1.5,0.5,2.1-0.1c1.3-1.4,3.4-1.3,5-2.2c-0.7-0.2-0.7-0.2-1.1-0.9c-0.2-0.4-0.5-0.6-1-0.7
			c-2.6-0.4-5.2,0-7.7-1.4c-1.3-0.7-2.3-1.6-2.8-2.7c-0.4-1-1-1-1.8-0.7c-1.6,0.5-3.1,1.1-4.8,1.2c-1,0.1-2,0.5-2.9,1.1
			c-2.5,1.6-5,3.3-7.9,4.2c-1.6,0.5-2.8,1.4-4.4,2c-1.3,0.5-2.8,0.4-4.1,1c-0.6,0.3-1.6-0.4-1.5-0.8c0.2-0.8-0.4-1.1-0.7-1.6
			c-1.1-1.4-3-1.7-4.7-1.9c-1.2-0.1-1.4-0.7-1.8-1.5c2.9-0.2,5,1.1,7.2,2.6c-0.1-0.7-0.7-1-1-1.3c-2.5-2.1-5.8-2.9-8.4-4.7
			c-0.5-0.3-1-0.3-1.6-0.2c-2.3,0.5-4.6,0.7-6.9,1.1c-3.1,0.5-5.7,2-8,3.9c-0.4,0.3-0.6,0.7-1.3,0.4c-2.2-1-4.5-1.8-6.5-3.3
			c-1.6-1.2-3-2.6-5.2-3.1c-1-0.2-1.8-0.6-2.7-1c-0.8-0.4-1.7-1.2-2.6-0.7c-1.2,0.6-2.6,0.9-3.8,1.7c-1.5,1.1-3.4,1.5-5.1,1.6
			c-2.2,0.2-4.5,0.1-6.7,0.1c-0.9,0-1.8,0.7-1.8,1.5c0,0.2-0.1,0.7,0.6,0.6c0.9-0.1,1.7,0.1,2.2,0.9c0.4,0.6,1,0.9,1.8,0.9
			c0.6,0,1.1-0.3,1.7-0.1c-0.3,0.5,0.4,2,1,2.1c0.6,0.1,1.3-0.5,1.1-0.8c-0.4-0.6-0.1-0.7,0.3-0.9c0.3-0.1,0.5-0.3,0.7-0.1
			c0.3,0.3,0.1,0.7-0.1,1C61,75,62,75.2,62.4,75.7c0.4,0.5,0.9,0.1,1.2-0.2c0.6-0.6,1.4-1.1,0.1-1.8c-0.2-0.1-0.3-0.4-0.6-0.6
			c-0.6-0.5,0.2-0.7,0.4-1c0.2-0.2,0.9-0.3,0.9-0.1c-0.2,0.8,0.7,1.2,0.6,1.9c-0.1,0.4,1.5,1.8,1.9,1.8c0.1,0,0.2-0.1,0.3-0.2
			c0.4-0.4,0-1.5-0.3-1.9c-0.3-0.4-1.2-0.9-0.8-1.5c0.6-0.9,2.6-0.8,3.4,0c0.8,0.9,1.6,2.1,2.7,2.3c1.9,0.3,2.9,2.1,4.9,2.1
			c0.2,0,0.4,0.2,0.5,0.4c0.3,1,1.6,1.2,2.1,2.1c0.2,0.3,0.7,0.6,1.2,0.7c0.4,0.1,0.9,0.2,1.2-0.2c0.3-0.4-0.2-0.5-0.4-0.8
			c-0.5-0.8-1.5-1.1-1.8-2c0.9-0.2,1,0.7,1.6,0.9c1.3,0.3,2.2,0.9,2.1,2.3c-0.1,0.5,0.2,0.5,0.6,0.6c0.8,0,1.6,0,2.4,0.1
			c0.4,0.1,1.5,0.1,0.6,1c-0.4,0.4,0,0.6,0.2,0.8c0.1,0.1,0.2,0.4,0.5,0.3c0.5-0.2,0.2-0.6,0.3-0.8c0.1-0.1,0.2-0.1,0.3-0.2
			c0.7,0,1.4,0,1.8,0.8c0.2,0.4,1,0.9,1.7,0.1c0.4-0.4,0.8-0.1,1.1,0.2c1,1.4,0.7,3.4-0.6,4.7c-0.3,0.4-0.8,0.7-1,1.2
			c-0.7,1.5-2.3,1.9-3.8,0.6c-0.3-0.2-0.4-0.7-0.9-0.6c-0.2,0.8,0.3,1.4,0.6,2.1c0.8,2.2,0.7,4.2-1.4,5.8c-0.3,0.2-0.5,0.4-0.8,0.7
			c-0.5,0.4-0.6,1-0.3,1.4c0.4,0.6,0.7,1.3,1.2,2c0.1-1.2,1.2-1.5,1.9-2.2c0.2-0.2,0.6-0.1,0.6,0.2c0.1,0.7,0.7,1.2,0.5,1.9
			c0.1,0.7-0.6,1.3,0,2c0,0.6-0.1,1.2-0.6,1.7c-0.2,0-0.5,0-0.7,0l-0.1,0l0-0.1c0-0.4,0-0.9-0.6-1.1c0,0.4-0.2,0.7-0.5,1
			c0,2.7-1.6,4.8-3.4,6.8c-0.8,1-0.9,0.9-0.4,1.9c0.3,0.7,0,1.4-0.5,2c-0.8,1.1-0.8,1.1-0.1,2.3c0.8-0.4-0.3-1,0.2-1.4
			c0.6,0.3,1.6-0.2,2,0.9c0.3-0.7-0.3-1.2,0.3-1.7c0.7,0.4,1.2,1.3,2.3,0.9c0.3-0.1,0.7,0.6,0.6,1c-0.1,0.4,0.2,0.2,0.3,0.2
			c0.5,0,0.5-0.4,0.7-0.7c0.6-0.6,1-1.5,2.2-0.9c0.5,0.2,0.5-0.2,0.5-0.6c0.1-0.1,0.1-0.1,0.2-0.2c0.3-0.1,0.7,0.1,0.8-0.2
			c0.2-0.8,0.5-0.6,1-0.3c0.7,0.4,1.7-0.2,1.6-1c-0.2-0.9,0.1-1.2,1-1.1c0.3,0,0.4-0.2,0.4-0.5c0-0.3-0.3-0.8,0.4-0.8
			c0.6,0,0.6,0.5,0.6,1c-0.1,0.8-0.3,1.6,0.6,2.2c0.2,0.1,0.1,0.3,0,0.4c-0.9,0.2-0.1,0.9-0.4,1.2C97.7,115.5,97.7,115.5,97.8,115.6
			z M164.7,89.1C164.7,89.1,164.7,89.2,164.7,89.1c0.1,0.1,0.1,0.1,0.1,0.1C164.8,89.2,164.7,89.1,164.7,89.1
			c-0.1-0.6-0.5-0.9-1.1-1c-0.2-1.5,0.8-0.9,1.9-0.5c-0.8-0.8-0.4-1.7-1.4-2.1c-0.6-0.3-1.4-0.8-0.7-1.7c0.2-0.3,0.3-0.9-0.5-0.8
			c-0.3,0-0.4-0.2-0.6-0.4c-1-0.8-2-1.6-3.1-2.2c-0.2-0.1-0.6-0.7-0.9-0.3c-0.3,0.3-0.2,0.7-0.1,1.1c0.1,0.6,0.2,1.1,1.1,1.1
			c0.6,0,0.7,0.5,1,0.9c-0.1,0.2-0.3,0.2-0.5,0.3c-0.4-0.1-0.7-0.2-1.1-0.2c-0.2-0.9-1-0.7-1.7-0.7c-0.9-0.2-1,0.3-1,0.9
			c-0.2,0.1-0.3,0.3-0.3,0.5c-0.4,0.2-1-0.3-1.3,0.2c-0.4,0.6-0.4,0.6-0.8,0c-0.1-0.2-0.2-0.5-0.4-0.4c-1.1,0.5-1.2-0.5-1.7-0.9
			c-0.2-0.2-0.3-0.7-0.7-0.4c-0.4,0.3,0,0.5,0.2,0.8c0.2,0.5,0.9,0.8,0.5,1.5c-0.1-0.1-0.2-0.2-0.3-0.2c-2.4-1.6-1.8-2-5-2
			c-1.7,0-1.2,0.7-1.3,1.4c-0.6,0.3-1.2-2.2-1.7,0.1c-0.5-0.2-0.5-0.6-0.6-0.9c-0.1-0.4-0.6-0.5-0.7-0.2c-0.5,1.2-1.4,0.1-2,0.3
			c0,0.4,0,0.7-0.1,1.1c-0.6-0.4-0.7-1.1-1.5-1c-0.9,0.1,0.3,0.8-0.5,1c0.3-2-1.7-1.8-2.9-2.4c-0.6-0.4-1,0.2-1.5,0.3
			c-1.3,0.2-2.5,0.4-3.7,0.9c-0.1-1.1-0.6-0.5-1.1-0.2c-1.2,1.1-2.2,2.3-2.4,3.9c-0.2,1.2-1.1,2.3-0.3,3.6c-1,2,0.7,3.7,0.7,5.6
			c0,0,0.2,0.1,0.4,0.1c0.1-0.8,0.2-1.6-0.3-2.4c-0.2-0.3-0.1-0.8,0.3-1.1c0.1-0.1,0.3-0.1,0.5,0c0.5,0.2,0.3,0.6,0.3,0.9
			c0.3,1.4,0.2,2.8,0.2,4.1c-0.1,0-0.1,0.1-0.2,0.1c-0.7-0.2-0.7,0.1-0.5,0.6c0.3,1-0.3,1.7-1.2,2.2c-0.3,0.2-0.8,0.2-0.5,0.7
			c0.2,0.4,0.1,0.9,0.7,1.1c0.4,0.1,0.7,0,0.5-0.5c-0.1-0.4-0.5-0.7-0.2-1.1c0.8,0.2,1.3,0.6,1.3,1.3c0,0.6,0.2,1.2-0.3,1.9
			c1.2-0.4,1.5-1.1,1.6-1.9c0-0.3-0.2-0.6,0.2-0.8c0.4-0.1,0.6,0.2,0.8,0.5c0.1,0.2,0.3,0.5,0.6,0.4c0.4-0.1,0.3-0.4,0.3-0.6
			c0-0.3,0-0.5,0-0.9c1.6,1.9,1.4-0.5,2.1-0.7c1.1-0.4-0.7-1-0.1-1.5c0.7,0,1.2,0.9,1.9,0.3c0.5-0.4-0.6-0.6-0.5-1.1
			c1.8,0.4,2.2,0.3,2.2-0.9c0-0.4,0-0.4,0.4-0.6c0.9-0.5,1.6-1.2,2.4-1.8c0.1-0.1,0.1-0.1,0.2-0.2c1-0.3,1.7-0.9,2.3-1.6
			c0.4-0.5-0.2-1.4,0.9-1.6c1.1-0.2,2.1,0,1.8,0.6c-0.3,0.8-0.1,1,0.7,1.2c0.4,0.1,0.6,0.5,1,0.6c1.1,0.4,2.4,0.2,3.4,1
			c0.8-0.7,1.5-0.2,2.2,0.2c0.6,0.3,1.1,0.1,1.5-0.2c0.5-0.3,0.7-0.5,1.2,0c0.3,0.3,0.8,0.8,1.3,0.4c0.5-0.4-0.3-0.6-0.4-0.9
			c0-0.2-0.2-0.4,0.1-0.6c0.3-0.1,0.6-0.2,0.7,0.2c0.1,0.2,0.1,0.5,0.2,0.8c0.8-1.5,1.7,0.3,2.5-0.1c0-0.5-0.5-0.7-0.7-1.1
			c-0.1-0.3-0.6-0.7-0.3-0.8c1-0.7,0.1-1-0.2-1.5c-0.3-0.8-1-1.3-1.6-1.9c-1.1-1.2-1.6-2.2-1.3-3.1c1.2,1.3,2.4,2.5,3.1,3.9
			c0.6,1.1,1.4,1.2,2.4,1.1c0.1,0,0.3,0,0.4,0c0.6,0.6,1.4,0.8,2.3,0.9c-0.5-0.7-0.9-1.3-1.3-1.9c-0.3-0.4,0-0.5,0.4-0.5
			c0.7,0.1,1.5-0.3,2,0.5C164.3,89.6,164.5,89.1,164.7,89.1z M49.4,79.6c0.4-0.6,1-1.2,1.7-1.5c1.2-0.4,0.7-1.3,0.7-1.9
			c0-1-0.7-0.1-1-0.3c-0.2-0.1-0.2-0.2-0.3-0.3c-0.5-0.3-1.1-0.5-1.7-0.1c0.3,0.6,0.8,0.8,1.4,0.4c0.1,0.1,0.1,0.2,0.2,0.3
			c-0.3,0.6,0.8,0.8,0.5,1.3c-3,0.4-12.3,8.6-12,10.6c0.6-0.8,1.7-1.9,2.4-2c1.4-0.3,1.8-1.2,2.5-2c0.6-0.7,1.3-1.3,2.2-1.7
			c0.7-0.3,1.2-0.7,1.7-1.1c0.2,0,0.4,0.1,0.4,0.4c-1.1,1.3-2.3,2.4-3.6,3.5c-1.4,1.2-2.7,2.4-2.8,4.6c1-1.2,0.8-3,2.8-2.9
			c0.1,0.1,0.1,0.1,0.2,0.2c-0.1,0.6-0.8,1.6-0.1,1.8c0.6,0.2,0.7-1.1,1.2-1.6c0.9-0.9,1-2.5,2.8-2.7c0.3,0,0.6-0.3,0.6-0.6
			c-0.1-1.2,1-1.2,1.9-1.6c-0.4,1.2-1.4,1.9-1.9,2.8c1.4,1-0.9,1.9-0.3,2.7c1.8-0.8,2.9-2.2,4.2-3.6c-0.1,1.7-2,2.5-2.2,4.3
			c1-0.6,1.9-0.7,2.4-1.6c0.7-1.2,2-1.2,2.8-0.4c-0.3,1.3,0.6,1,1.4,0.9c-0.1,0.2-0.4,0.4-0.1,0.6c0.2,0.2,0.4,0.1,0.6,0
			c0.7-0.6,1.5-1.1,2.1-1.7c0.3-0.4,0.5-0.7,1.1-0.8c-0.1,0.7-0.2,1.4,0.9,1.3c1.3,0,2.5,0.6,3.6,0.5c1.3-0.1,2.2,0,3.2,0.7
			c0.3,0.2,0.9-0.1,1.2,0.2c0.9,0.8,1.8,1.5,2.7,2.3c1.3,1.3,3.2,2,4.7,3c0.2,0.1,0.4,0,0.5-0.2c0.5-0.9,0.9-1.8,1.4-2.9
			c-1.1,0.4-1.2,1.7-2.4,1.6c0-0.9,1-1.4,0.7-2.4c-0.4,0.4-0.7,0.7-1,1c-0.3,0-0.7,0.4-0.8-0.2c0.4-0.7,0.6-1.5,1.2-2.1
			c0.2-0.2,0.3-0.9-0.2-0.7c-0.8,0.3-0.7-0.1-0.7-0.5c-0.1-0.4,0.3-0.9-0.3-1.2c-0.8,1-1.6,2-2.3,3c-0.4,0.5-0.5,0.7-1,0
			c-0.3-0.4-0.5-1.1-1.2-0.9c-0.8,0.2-0.6-0.2-0.7-0.5c0-0.4-0.2-0.9-0.4-1.3c-0.5-0.8-1.3-1.5-1.1-2.6c0.1-0.2-0.3-0.4-0.6-0.3
			c-1.3,0.6-1.1-0.3-1.2-1c-0.1-0.4,0.3-1-0.5-1c-1.2,0-1.7-0.5-1.6-1.5c-0.8-0.2-0.6,1.2-1.4,0.5c-0.5-0.4-1.2-0.1-1.7-0.5
			c-0.7-0.6-0.7-0.6-1.3,0.1c-0.4,0.4-0.8,0.9-1.2,1.3c-0.2,0.2-0.4,0.5-0.8,0.6C59.1,81.8,58,82,58,81.5c0.1-1-0.6-1-1.3-0.9
			c-1.2,0.2-1.5-0.3-1.1-1.3c0.1-0.2,0.1-0.4,0.2-0.6c0.1-0.3,0.2-0.7-0.1-0.9c-0.4-0.2-0.5,0.2-0.8,0.5c-0.4,0.4-0.7,0.7-1.1,1
			c-1.2,1-1.7,0.8-2.1-0.7c-0.6,0.4-1.2,0.8-1.8,1.2C49.8,79.9,49.6,79.8,49.4,79.6z M89.6,53.5c-0.5-0.1-0.4-0.3-0.5-0.5
			c-0.4-2.2-0.7-4.4-1.2-6.5c-0.2-1.3-0.7-1.4-3-1.3c-1.3,0.1-1,0.9-1.1,1.6c-0.1,1.5,0,3.1,0,4.6c0,2.5,0,5.1,0,7.6
			c0,0.8,0.2,1.4,1.4,1.2c1.1-0.1,1.2-0.6,1.2-1.4c0-1.8,0-3.6,0-5.5c0.9,1.7,1,3.5,1.3,5.3c0.2,1.2,0.8,1.6,2,1.5
			c1.3-0.1,1.2-0.9,1.3-1.8c0.2-1.6,0.5-3.1,1-4.6c0.4,1.7,0,3.5,0.1,5.2c0.1,1.3,0.9,1.1,1.8,1.1c1,0,1.1-0.5,1.1-1.3
			c0-3.6,0-7.3,0-10.9c0-2.6,0-2.6-2.9-2.7c-0.8,0-1,0.2-1.2,0.9C90.6,48.6,90.1,51.1,89.6,53.5z M108.4,52.3c0,2,0,4,0,6.1
			c0,0.7-0.1,1.5,1.2,1.4c1,0,1.7-0.1,1.6-1.3c-0.1-1.2,0-2.3,0.1-3.5c0-0.5-0.4-1.2,0.6-1.2c0.7,0,1.3,0.3,1.4,1.1
			c0.2,1.3,0.1,2.6,0.2,3.9c0.1,1.4,1.4,0.8,2.2,0.9c0.9,0.1,0.8-0.6,0.8-1.1c-0.2-1-0.1-1.9-0.1-2.9c0-1,0-2.1-1-2.9
			c-0.2-0.2-0.2-0.4,0-0.6c1.2-1.4,1-3,0.9-4.6c-0.1-1.7-1.1-2.5-3-2.6c-1.2-0.1-2.3,0-3.5-0.1c-1.1-0.1-1.4,0.4-1.4,1.3
			C108.4,48.2,108.4,50.3,108.4,52.3z M147.3,52.1C147.3,52.1,147.3,52.1,147.3,52.1c0,1.4-0.1,2.8,0,4.2c0,1.2,0.7,2.3,1.9,2.6
			c2.5,0.8,5.9,0.2,6.2-3.4c0.2-2.7,0.2-5.3,0.1-8c0-1.4-0.5-2.9-2.3-3.3c-3.2-0.8-5.7,0.3-6,3.6C147.2,49.3,147.3,50.7,147.3,52.1z
			 M97.7,52.4c0,1.5-0.1,3.1,0,4.6c0.1,1.8,1.6,3,3.7,3.1c2.2,0.1,3.7-0.9,4.1-2.7c0.5-3,0.3-6.1,0.2-9.2c0-0.9-0.2-2-1.2-2.6
			c-1.6-1-3.3-0.9-5-0.3c-1.3,0.5-1.8,1.7-1.8,3C97.7,49.6,97.7,51,97.7,52.4z M62.1,52.9c0,0,0.1,0,0.1,0c0-0.8,0-1.5,0-2.3
			c0-0.8,0-1.5-0.1-2.3c-0.2-1.8-1.8-3.1-3.8-3c-2.8,0.1-4,1-4.1,3.1c-0.1,2.7-0.1,5.5,0,8.2c0,2.4,2.3,4,4.9,3.4
			c1.7-0.3,2.9-1.4,2.9-2.7C62.1,55.9,62.1,54.4,62.1,52.9z M119.1,52.1C119.1,52.1,119.1,52.1,119.1,52.1c-0.1,2.1-0.1,4.3,0,6.4
			c0,0.4-0.2,1,0.7,1c1.8,0,3.7,0,5.5,0c0.7,0,1-0.3,1-1c0-1.7,0-1.7-1.8-1.5c-0.5,0-1.1,0.1-1.6,0.1c-0.2,0-0.6,0.1-0.7-0.2
			c-0.4-1.1-0.3-2.3,0-3.3c0.2-0.7,1.2-0.3,1.8-0.3c1.4-0.1,1.7-0.3,1.7-1.6c0-1.1-0.8-1.1-1.6-1c-0.4,0-0.8,0-1.2,0
			c-0.5,0-0.7-0.1-0.7-0.5c0-0.8-0.1-1.5-0.1-2.3c0-0.5,0.3-0.8,0.9-0.8c0.8,0,1.7,0,2.5,0c1.2-0.1,0.9-0.9,0.9-1.5
			c0-0.6,0-1.1-0.9-1c-1.7,0-3.4,0.1-5.1,0c-1,0-1.3,0.3-1.3,1.2C119.2,47.9,119.1,50,119.1,52.1z M129,51.6c0,2.3-0.4,4.6-0.1,6.9
			c0,0.4,0,0.8,0.7,0.8c1.9-0.1,3.7,0,5.6-0.2c0.6-0.1,0.8-0.3,0.8-0.8c0.1-1.6-0.1-1.7-1.9-1.6c-2.3,0.2-2.4,0.2-2.3-1.9
			c0-2.9,0.1-5.8,0.2-8.7c0-0.8,0.1-1.6-1.3-1.6c-1.2,0-1.8,0.3-1.7,1.5C129.1,47.8,129,49.7,129,51.6z M138.3,52
			c-0.1,0-0.1,0-0.2,0c0,2.1,0,4.1,0,6.2c0,0.7,0.3,1,1.1,1c1.6,0,3.2-0.1,4.8,0c1.3,0.1,1.3-0.7,1.4-1.4c0-0.9-0.5-1.2-1.4-1.1
			c-0.6,0.1-1.2-0.1-1.7,0c-1,0.1-1.1-0.3-1.1-1c0.1-3.3-0.1-6.6,0.2-9.9c0.1-0.8,0.1-1.5-1.1-1.5c-1.1,0-1.9,0.1-1.9,1.4
			C138.4,47.7,138.3,49.8,138.3,52z M49,45.4c-1.2-0.2-2.6,0.3-3.9,0.2c-0.9,0-1.2,0.3-1.1,1.1c0.1,0.7,0.2,1.3,1.3,1
			c0.9-0.2,1.4,0,1.3,1c-0.2,1.9,0.2,3.8,0.2,5.8c0,1.5-0.3,3-0.2,4.6c0.1,1.2,1,1,1.8,1.1c0.9,0.1,1-0.4,1-1
			c0.3-3.4,0.2-6.8,0.1-10.1c0-0.9,0.1-1.4,1.3-1.2c1.2,0.2,1.6-0.3,1.4-1.4c-0.1-0.8-0.5-1.2-1.4-1.1C50.2,45.4,49.7,45.4,49,45.4z
			 M49.3,74.2c0-0.1-0.1-0.2-0.1-0.4c-0.4,0-0.9,0-1.1-0.1c-1.3-0.8-2.2-0.1-3.2,0.5c-2.2,1.3-4.3,2.7-6.4,4.1
			c-1.8,1.3-3.7,2.4-4.9,4.6C39.2,80.3,43.8,76.6,49.3,74.2z M49.2,77c-0.2,0-0.4-0.1-0.5,0c-2.2,1.4-4.4,2.9-6.7,4.3
			c-2,1.2-3.4,3-5.2,4.4c-0.6,0.5-0.9,1.3-1,2.1c-0.1,0.4,0.3,0.7,0.6,0.4c0.5-0.7,1.8-0.9,1.5-2.1c-0.1-0.4,0.2-0.6,0.6-0.5
			c0.7,0.2,1.2-0.2,1.5-0.7c0.3-0.4,0.6-0.7,0.9-1c1.5-1.2,2.5-2.7,4.3-3.7C46.6,79.3,48.1,78.4,49.2,77z M42.7,79.6
			c0-0.1-0.1-0.2-0.1-0.3c-2.8,1.3-5.5,2.8-7.6,4.9c-0.3,0.3-0.8,0.9-0.4,1.3c0.5,0.4,1-0.2,1.4-0.5c0.4-0.2,0.7-0.5,0.7-1
			c0-0.4,0.2-0.7,0.6-0.3c0.3,0.3,0.4,0.1,0.6-0.1C39.5,82.3,41.1,81,42.7,79.6z M83.1,90.8c-0.9,0.6-1,1.5-1.5,2.2
			c-0.4,0.5-0.3,1.2,0.2,1.3c0.5,0.1,0.7-0.5,0.7-1c0-0.3,0.1-0.6,0.6-0.5c0.4,0.1,0.6,0.3,0.4,0.6c-0.2,0.4-0.1,1-0.6,1.3
			c-0.2,0.1-0.1,0.3,0,0.4c0.1,0.1,0.3,0.1,0.3,0.1c0.4-0.3,0.7-0.9,1.4-0.8c-0.9-0.6,0.2-1.8-0.4-2C83.1,92.2,83.5,91.4,83.1,90.8z
			 M69.2,76.6c0.5-0.6,0.9-1.1,1.3-1.5c0.5-0.6-0.1-1-0.4-1.4c-0.3-0.6-1-0.3-1.3-0.2c-0.5,0.2-0.3,0.8-0.3,1.2
			C68.6,75.2,68.9,75.8,69.2,76.6z M117.5,106.9c-0.7,0.9-1.7,1.4-1.6,2.3c0.1,0.7,0.1,1.3-0.2,1.9c-0.1,0.2-0.1,0.7,0.3,0.7
			c0.5,0,0.3-0.4,0.3-0.7c0-0.4,0.3-0.8,0.3-1.2C116.6,108.9,117.8,108.2,117.5,106.9z M142.1,77.9c-1,0.1-0.6,1.1-1.2,1.6
			c-0.1,0.1,0.6,0.7,0.8,0.6c0.6-0.3,1.2-0.8,1.3-1.5C142.9,78.3,142.8,77.8,142.1,77.9z M115.4,116.6c-1.3,0.3,0,1.4-0.6,2.1
			c-0.1,0.1,0,0.2,0.2,0.2c0.3,0,0.4-0.1,0.4-0.3C115.4,117.8,115.4,117.1,115.4,116.6z M120,102.9c0.6-0.6,0.6-1.2,0.3-1.9
			c-0.1-0.2-0.5-0.1-0.7,0.1C118.8,101.8,120.1,102.2,120,102.9z M47.1,88.7c0.9-0.6,1.5-1.3,1.5-2.4C47.6,86.9,46.9,87.5,47.1,88.7
			z M43,79c1.1-0.2,2.2-0.4,2.5-1.6C44.7,77.9,43.9,78.5,43,79z M79.8,93.1c-0.5,0.5-0.8,0.8-1.1,1.1c-0.2,0.2-0.4,0.5,0,0.7
			c0.4,0.2,0.7,0,0.8-0.4C79.6,94.1,79.6,93.7,79.8,93.1z M138.5,79.2c1.3-0.2,1.3-0.2,1.3-1.4C139.5,78.6,138.8,78.5,138.5,79.2z
			 M138.5,79.5c0-0.2-0.1-0.3-0.2-0.2c-0.2,0-0.3,0.1-0.3,0.3c0,0.1,0,0.3,0.2,0.2C138.3,79.7,138.4,79.6,138.5,79.5z"/>
		<path class="st1" d="M88.6,104.1c0.4-0.5,0.6-1.1,0.6-1.7c0.3-1.1,0.8-2.2,1.3-3.2c0.2-0.4,0.7-0.7,0.5-1.2
			c-1.1,0.6-0.7,1.9-1.8,2.5c0.2-0.7-0.5-1.2-0.5-1.9c0-0.2-0.4-0.4-0.6-0.2c-0.6,0.7-1.7,1-1.9,2.2c-0.5-0.7-0.8-1.4-1.2-2
			c-0.3-0.4-0.2-1,0.3-1.4c0.2-0.2,0.5-0.5,0.8-0.7c2.1-1.6,2.2-3.6,1.4-5.8c-0.2-0.7-0.7-1.3-0.6-2.1c0.5-0.1,0.7,0.3,0.9,0.6
			c1.4,1.3,3,0.9,3.8-0.6c0.2-0.5,0.7-0.8,1-1.2c1.2-1.3,1.5-3.4,0.6-4.7c-0.3-0.4-0.7-0.6-1.1-0.2c-0.7,0.8-1.5,0.3-1.7-0.1
			c-0.4-0.8-1.1-0.8-1.8-0.8c0-0.2,0.1-0.4-0.3-0.4c-0.1,0-0.3,0.1-0.3,0.1c-0.1,0.2,0.1,0.3,0.3,0.5c-0.1,0.3,0.2,0.7-0.3,0.8
			c-0.3,0.1-0.3-0.2-0.5-0.3c-0.2-0.2-0.6-0.5-0.2-0.8c0.9-0.9-0.2-0.9-0.6-1c-0.8-0.1-1.6-0.1-2.4-0.1c-0.4,0-0.7-0.1-0.6-0.6
			c0.2-1.4-0.8-2-2.1-2.3c-0.7-0.2-0.7-1.1-1.6-0.9c0.3,0.9,1.3,1.3,1.8,2c0.2,0.3,0.7,0.4,0.4,0.8c-0.3,0.4-0.8,0.3-1.2,0.2
			c-0.4-0.1-1-0.4-1.2-0.7c-0.5-0.9-1.8-1-2.1-2.1c0-0.2-0.3-0.4-0.5-0.4c-2,0.1-3-1.7-4.9-2.1c-1-0.2-1.8-1.5-2.7-2.3
			c-0.8-0.8-2.8-0.9-3.4,0c-0.4,0.6,0.5,1.1,0.8,1.5c0.3,0.5,0.8,1.5,0.3,1.9c-0.1,0.1-0.2,0.1-0.3,0.2c-0.5,0-2-1.4-1.9-1.8
			c0.2-0.7-0.8-1.1-0.6-1.9c0.1-0.2-0.6-0.2-0.9,0.1c-0.3,0.3-1,0.4-0.4,1c0.2,0.2,0.3,0.5,0.6,0.6c1.3,0.7,0.4,1.3-0.1,1.8
			c-0.3,0.3-0.9,0.7-1.2,0.2C62,75.2,61,75,61.5,74.1c0.2-0.3,0.4-0.7,0.1-1c-0.2-0.2-0.4-0.1-0.7,0.1c-0.4,0.2-0.7,0.3-0.3,0.9
			c0.2,0.4-0.5,0.9-1.1,0.8c-0.6-0.1-1.3-1.6-1-2.1c-0.6-0.2-1.1,0.1-1.7,0.1c-0.8,0-1.4-0.3-1.8-0.9c-0.5-0.9-1.3-1.1-2.2-0.9
			c-0.7,0.1-0.6-0.3-0.6-0.6c-0.1-0.8,0.8-1.5,1.8-1.5c2.2,0,4.5,0.1,6.7-0.1c1.7-0.1,3.6-0.6,5.1-1.6c1.1-0.8,2.5-1,3.8-1.7
			c0.9-0.4,1.8,0.3,2.6,0.7c0.8,0.5,1.7,0.8,2.7,1c2.1,0.5,3.6,1.9,5.2,3.1c1.9,1.5,4.2,2.3,6.5,3.3c0.7,0.3,1-0.1,1.3-0.4
			c2.3-1.9,4.9-3.4,8-3.9c2.3-0.4,4.6-0.6,6.9-1.1c0.5-0.1,1.1-0.1,1.6,0.2c2.7,1.8,6,2.6,8.4,4.7c0.4,0.3,0.9,0.5,1,1.3
			c-2.2-1.5-4.4-2.7-7.2-2.6c0.4,0.8,0.6,1.4,1.8,1.5c1.7,0.2,3.5,0.5,4.7,1.9c0.4,0.4,0.9,0.8,0.7,1.6c-0.1,0.5,0.9,1.1,1.5,0.8
			c1.3-0.5,2.8-0.5,4.1-1c1.5-0.5,2.8-1.5,4.4-2c2.9-0.9,5.4-2.6,7.9-4.2c0.9-0.6,1.9-1,2.9-1.1c1.7-0.1,3.3-0.7,4.8-1.2
			c0.8-0.3,1.4-0.3,1.8,0.7c0.5,1.2,1.4,2,2.8,2.7c2.5,1.4,5.1,1,7.7,1.4c0.5,0.1,0.8,0.3,1,0.7c0.4,0.7,0.4,0.7,1.1,0.9
			c-1.6,0.9-3.7,0.8-5,2.2c-0.6,0.6-1.4,0.4-2.1,0.1c-0.3-0.1-0.6-0.4-1-0.1c-0.3,0.2,0,0.5,0.1,0.7c0.3,0.5-0.2,0.6-0.4,0.9
			c0-1-1.1-1.3-1.6-1.3c-1.1-0.1-1.4-0.6-1.8-1.3c-0.3-0.4-0.6-0.7-1.3-0.3c-0.4,0.2-0.7,0.2-1.2-0.2c-1-0.7-2.1-0.4-2.8,0.3
			c-0.5,0.4-1,0.7-1.5,0.9c-0.4,0.1-0.9,0.7-1.3-0.2c-0.3-0.6-0.7-1.1,0-1.6c1.2-0.9,2.2-2,2.9-3.2c0.1-0.2,0.1-0.5,0-0.5
			c-0.4,0.2-0.7-0.4-1.2-0.1c-0.8,0.5-1.6,1-2.2,1.6c-1.6,1.6-3.3,3.1-5.4,4c-1.8,0.7-3,2.1-4.7,2.9c-0.4,0.2-0.4,1.3-1.3,0.5
			c-0.2,1.4-1.8,1.1-2.6,1.7c-0.4,0.3-0.9,0.3-1.3,0.5c-0.4,0.2-1.3-0.2-1.2,0.8c0,0.3-1.1,0.5-1.7,0c-0.3-0.3-0.4-0.3-0.7,0
			c-1,0.8-2,1.5-3.4,0.9c-0.2-0.1-0.4-0.1-0.4,0.1c0,1-1,0.9-1.4,0.9c-0.8,0-0.7-0.8-0.8-1.3c0-0.1-0.1-0.2-0.2-0.4
			c-0.7,1-0.8,2.3-2.2,2.6c0,0,0.1,0.3,0.1,0.5c0.1,2,1,3.9,0.9,5.9c0,0.7-0.7,1.6-1.5,2c-0.6,0.3-0.5,0.4-0.1,0.9
			c0.9,1.2,2.4,2,3,3.5c0.2,0.5,0.5,1,0.5,1.6c-1.3-0.6-2.5-1.2-3.1-2.5c-1,0.7-1.7,1.6-3,1.3c-0.8-0.1-1.5,0-1,1
			c0.2,0.4-0.1,0.8-0.5,1c-0.6,0.4,0.2,0.9-0.2,1.3c0.4,0.1,0.7,0,1.1,0c0.8-0.2,1.5-0.6,2.4-0.5c0.6,0.1,1-0.1,0.8-0.8
			c-0.2-0.6,0.3-1.2,0.8-0.9c0.5,0.4,0.8,0.1,1.2,0.2c0.4,0,0.8,0.2,1.1,0.4c0.7,0.5,0.7,0.6,1.3,0c0,0.1,0,0.1,0.1,0.1
			c0.1,0.4-0.3,0.8,0.2,1.2c0,0.6,0,1.2-0.1,1.8c0,0.5,0.2,0.9,0.7,0.7c0.9-0.3,1.9-0.4,2.5-1.1c0.7-0.8,1.8-1.2,2.7-1.9
			c0.2,1.2-1.4,0.9-1.6,1.8c0.3,0.3,0.6-0.1,0.8-0.1c0.5-0.1,0.6,0.3,0.4,0.5c-1.5,1.3-1.7,3.1-2.9,4.9c0-0.8-0.2-1.2-0.6-1.5
			c0.1-0.4,0.2-0.7,0.7-0.6c0.2,0,0.4-0.2,0.3-0.4c-0.1-0.3-0.4-0.1-0.5,0c-0.6,0.6-0.9-0.2-1.3-0.2c-0.9-0.3-1.5-0.1-1.7,0.8
			c-0.1,0.5-0.5,0.7-0.8,1.1c-1,1.1-2.5,1.7-3.5,2.8c-0.4,0.5-1.1,1-2,0.4c0.3-0.1,0.6,0.1,0.7-0.5c0.2-0.8,0.4-1.7,1.8-1.3
			c0.5,0.1,1-0.3,1.3-0.9c0.4-0.7,1.3-1.6,0.9-2.1c-0.4-0.6-1.4,0.4-1.9,0.6c-1.1,0.5-2.2,0.5-3.3,0.7c-0.5,0-1,0.8-1.4,0.2
			c-0.4-0.5-1.2-0.5-1.2-1.2c0.1-0.8,0.2-1.6,0-2.4c0,0,0.1,0,0.1-0.1c-0.7,0.3-1.5-0.1-2.1,0.5c-1,1.3-1.6,2.7-1.6,4.3
			c0,0.5,0.2,0.6,0.7,0.7c1,0.2,2.1,0.5,2.7,1.3c0,0.2-0.1,0.5,0,0.7c0.8,1.4,1.7,2.8,1.6,4.6c-0.7,0.3-1.2-1.1-2.1-0.4
			c-0.2-0.1-0.3-0.3-0.5-0.4c-0.1,1.3-0.8,0-1.1,0.2c0-0.1-0.1-0.1-0.2-0.1c0-0.1,0-0.1-0.1-0.2c0.3-0.4-0.6-1,0.4-1.2
			c0.2,0,0.2-0.3,0-0.4c-0.9-0.6-0.7-1.4-0.6-2.2c0-0.5,0-1-0.6-1c-0.7,0-0.4,0.5-0.4,0.8c0,0.3-0.1,0.5-0.4,0.5
			c-1-0.1-1.2,0.1-1,1.1c0.2,0.8-0.8,1.4-1.6,1c-0.6-0.3-0.8-0.5-1,0.3c-0.1,0.3-0.5,0.1-0.8,0.2c-0.1,0-0.3,0-0.3,0
			c-0.1,0.1,0,0.2,0.1,0.2c0,0.3,0,0.8-0.5,0.6c-1.2-0.6-1.6,0.3-2.2,0.9c-0.2,0.2-0.2,0.6-0.7,0.7c-0.1,0-0.4,0.1-0.3-0.2
			c0.1-0.3-0.3-1-0.6-1c-1.1,0.3-1.6-0.6-2.3-0.9c-0.6,0.5,0,1-0.3,1.7c-0.4-1-1.4-0.6-2-0.9c-0.5,0.5,0.6,1-0.2,1.4
			c-0.7-1.2-0.8-1.2,0.1-2.3c0.5-0.6,0.8-1.3,0.5-2c-0.4-1-0.4-0.9,0.4-1.9c1.8-2,3.4-4.1,3.4-6.8c0.4-0.1,0.8-0.1,1.1,0.1l0,0.1
			c0,0,0.1,0,0.1,0c-0.3,2.1-1.1,4.1-2.5,5.8c-0.4,0.5,0.2,0.7,0.1,1.1c0,0.1,0,0.5,0.4,0.3c0.3-0.1,0.7-0.3,0.7-0.5
			c-0.1-1.3,0.8-2.4,0.9-3.7C87.7,106.1,88.2,105.1,88.6,104.1z M98.1,99.5c-0.6,0.4-1.6,0.3-1.7,1.3c0,0.2-0.2,0.4-0.3,0.2
			c-0.5-0.7-1.3,0-1.4,0.1c-0.9,0.6-1-0.2-1.1-0.6c-0.2-0.9,0.1-1.7,0.3-2.6c0.3-1.3-0.5-2.8-1.7-3c-0.9-0.2-1.3,0.5-1.9,0.8
			c-0.3,0.1-0.7,0.6-0.4,0.9c0.3,0.3,0.7,0.1,1.1-0.1c0.2-0.1,0.4-0.2,0.5-0.4c0.3-0.6,0.9-0.6,1.2,0c0.7,1.3,0.4,2.8,0,4
			c-0.3,1-0.5,1.6,0.3,2.3c0.5,0.5,1,1.1,1.8,1.3c0.2,0.1,0.4,0.2,0.3,0.4c-0.1,0.3-0.3,0.2-0.5,0.2c-0.3,0-0.5,0-0.8-0.1
			c-0.2-0.1-0.5-0.3-0.7,0c-0.2,0.3,0.1,0.7,0.3,0.9c0.4,0.4,2.6,0.1,3-0.4c0.1-0.2,0.3-0.4,0.2-0.5c-0.5-0.7-0.1-1.1,0.6-1.4
			c0.2-0.1,0.6-0.3,0.4-0.7c-0.2-0.3-0.5-0.5-0.9-0.3c-0.2,0.1-0.4,0.2-0.5-0.2C97.4,101.3,98.5,100.9,98.1,99.5z M101.9,96
			c1,0.4,1-0.2,0.8-0.9c-0.2-0.5-0.3-1.2-1.3-1c-0.3,0.1-0.7-0.2-0.8-0.5c-0.1-0.5,0.5-0.3,0.7-0.5c0.6-0.3,1.3-0.1,1.8-0.6
			c0.2,0.3,0.4,0.7,0.6,0.1c0.2-0.7-0.1-1.2-0.8-1.7c-0.6-0.4-1.1-0.3-1.6,0.1c-0.5,0.5-0.9,1-0.9,1.7c0,0.4-0.2,0.5-0.5,0.6
			c-0.3,0-0.5,0.1-0.7-0.2c-0.3-0.4-1.9-0.1-2,0.3c-0.1,0.3,0,0.4,0.3,0.4c0.4,0,0.5,0.3,0.7,0.4C99.4,95,100.2,96.2,101.9,96z
			 M72.5,68.5c0,0.2-0.1,0.4-0.1,0.6c-0.2,0.6-0.3,1.2,0.7,1.5c0.9,0.2,0.2,1.2,0.8,1.5c1.5,0.8,2.5,2.1,3.7,3.2
			c0.8,0.8,1.3,0.6,1.7-0.3C78.3,74.6,72.6,69.1,72.5,68.5z M95.9,90.6c-0.7,0.4-1.3,0.3-1.7,0.5c-0.8,0.4-1.1,0-1.2-0.5
			c-0.1-0.6-0.5-1.2-1-0.9c-0.5,0.3-0.7,1.4-0.4,1.7c0.6,0.5,1.1,1.7,2.1,1.3C94.4,92.4,95.6,92,95.9,90.6z M100.4,88.9
			c0.6-0.9-0.5-0.8-0.8-1c-0.5-0.2-0.7,0.2-0.9,0.6c-0.5,1,0.5,1.5,0.8,2.1c0.1,0.1,1.1,0.5,1.6,0.1c0.4-0.3-0.2-0.6-0.3-0.9
			C100.6,89.6,100.5,89.3,100.4,88.9z M99.9,84.5c-0.9,0.4-1.6,0.9-1.8,1.3c-0.2,0.3-0.2,0.5,0.1,0.7c0.2,0.1,0.3,0.4,0.5,0.2
			c0.3-0.3,0.2-1,1.1-0.9C99.8,85.4,99.9,85,99.9,84.5z M94.7,109.6c0-0.5-0.1-1-0.6-1.1c-0.5-0.1-0.6,0.5-0.6,0.9
			c0.1,0.4,0,1,0.7,1.1C94.8,110.5,94.6,109.9,94.7,109.6z M85.4,78.5c-0.1-0.7-0.4-1.2-0.2-1.7c0.1-0.3-0.2-0.3-0.4-0.3
			c-0.3,0-0.6,0.4-0.4,0.4C85,77.2,84.5,78.1,85.4,78.5z M102.7,87.8c-0.2-0.3-0.4-0.4-0.8-0.2c-0.3,0.1-0.8-0.1-0.8,0.5
			c0,0.3,0.5,0.6,0.6,0.5C102,88.3,102.6,88.3,102.7,87.8z M89.6,92.7c-0.2-0.2-0.4-0.6-0.8-0.5c-0.3,0-0.5,0.3-0.5,0.6
			c0.1,0.3,0.2,0.6,0.6,0.3C89.1,92.9,89.6,93.2,89.6,92.7z"/>
		<path class="st1" d="M129.6,83c1.2-0.5,2.4-0.7,3.7-0.9c0.5-0.1,0.9-0.6,1.5-0.3c1.1,0.7,3.1,0.4,2.9,2.4c0.9-0.2-0.3-0.9,0.5-1
			c0.8-0.1,0.9,0.7,1.5,1c0-0.5,0-0.8,0.1-1.1c0.7-0.1,1.5,1,2-0.3c0.1-0.2,0.5-0.2,0.7,0.2c0.1,0.3,0.1,0.7,0.6,0.9
			c0.5-2.3,1.1,0.2,1.7-0.1c0.1-0.6-0.4-1.3,1.3-1.4c3.2,0,2.7,0.4,5,2c0.1,0.1,0.2,0.1,0.3,0.2c0.3-0.7-0.3-1-0.5-1.5
			c-0.1-0.3-0.6-0.5-0.2-0.8c0.4-0.3,0.5,0.2,0.7,0.4c0.5,0.4,0.5,1.4,1.7,0.9c0.2-0.1,0.3,0.2,0.4,0.4c0.4,0.6,0.4,0.6,0.8,0
			c0.3-0.5,0.9-0.1,1.3-0.2c0.2,0.1,0.4,0.2,0.5,0.4c0.5,1.7,1.7,2.8,3.2,3.8c0.2,0.1,0.3,0.3,0.4,0.5c0.3,0.5,1,0.9,0.8,1.7
			c-1.1,0.1-1.8,0.1-2.4-1.1c-0.7-1.4-1.9-2.6-3.1-3.9c-0.2,1,0.2,2,1.3,3.1c0.6,0.6,1.2,1.1,1.6,1.9c0.2,0.5,1.2,0.9,0.2,1.5
			c-0.2,0.2,0.2,0.6,0.3,0.8c0.2,0.4,0.7,0.6,0.7,1.1c-0.9,0.4-1.7-1.4-2.5,0.1c-0.1-0.4-0.1-0.6-0.2-0.8c-0.1-0.4-0.4-0.3-0.7-0.2
			c-0.3,0.2-0.1,0.4-0.1,0.6c0.1,0.4,0.9,0.5,0.4,0.9c-0.5,0.4-1-0.1-1.3-0.4c-0.5-0.5-0.7-0.3-1.2,0c-0.4,0.3-0.9,0.5-1.5,0.2
			c-0.7-0.4-1.4-1-2.2-0.2c-1-0.8-2.3-0.6-3.4-1c-0.4-0.1-0.6-0.5-1-0.6c-0.8-0.2-1-0.4-0.7-1.2c0.3-0.6-0.7-0.9-1.8-0.6
			c-1.1,0.2-0.5,1.1-0.9,1.6c-0.6,0.8-1.3,1.4-2.3,1.6c0-0.1,0-0.3-0.2-0.2c0,0,0,0.3,0,0.4c-0.8,0.6-1.5,1.3-2.4,1.8
			c-0.4,0.2-0.4,0.2-0.4,0.6c0,1.2-0.4,1.3-2.2,0.9c-0.1,0.5,1,0.7,0.5,1.1c-0.6,0.5-1.2-0.3-1.9-0.3c-0.5,0.6,1.2,1.2,0.1,1.5
			c-0.7,0.3-0.5,2.6-2.1,0.7c0,0.4,0,0.6,0,0.9c0,0.2,0.1,0.5-0.3,0.6c-0.3,0.1-0.4-0.2-0.6-0.4c-0.2-0.3-0.4-0.6-0.8-0.5
			c-0.3,0.1-0.1,0.5-0.2,0.8c-0.1,0.8-0.4,1.5-1.6,1.9c0.6-0.7,0.4-1.3,0.3-1.9c0-0.7-0.6-1.1-1.3-1.3c-0.3,0.4,0,0.8,0.2,1.1
			c0.2,0.5-0.1,0.6-0.5,0.5c-0.6-0.1-0.5-0.7-0.7-1.1c-0.3-0.4,0.2-0.5,0.5-0.7c0.9-0.5,1.5-1.2,1.2-2.2c-0.1-0.5-0.2-0.8,0.5-0.6
			c0,0,0.1,0.1,0.1,0.1c0-0.1,0-0.2,0.1-0.3c0-1.4,0.1-2.8-0.2-4.1c-0.1-0.3,0.2-0.8-0.3-0.9c-0.1,0-0.4-0.1-0.5,0
			c-0.3,0.3-0.5,0.8-0.3,1.1c0.4,0.8,0.3,1.6,0.3,2.4c-0.1,0-0.4-0.1-0.4-0.1c0-1.9-1.8-3.6-0.7-5.6c-0.8-1.3,0.1-2.4,0.3-3.6
			c0.3-1.6,1.2-2.8,2.4-3.9c0.2,0.3-0.3,0.9,0.2,1c0.6,0.2,0.4-0.5,0.7-0.8C129.5,83,129.6,83,129.6,83z M128,88.5
			c-0.5,1.6-0.1,3,0.4,4.3C128.5,91.4,128.7,90.1,128,88.5z M144,86.2c-0.4,1.1,0.3,2.2,0.1,3.3c0,0.2-0.2,0.5,0.3,0.5
			c0.4,0,0.3-0.3,0.3-0.5C144.4,88.4,144.2,87.3,144,86.2z M128.3,93.3c0,0.4,0,0.8,0.2,1c0.3,0.3-0.4,0.7,0.2,0.9
			c0.2,0.1,0.5,0.1,0.6-0.1c0.2-0.4,0.1-0.8-0.1-1.1C129,93.7,128.8,93.4,128.3,93.3z M154.4,89.3c0.4,0.7,0.7,1.2,1,1.7
			c0.1,0.3,0.4,0.3,0.6,0.2c0.3-0.2,0.1-0.4-0.1-0.6C155.5,90.3,155,89.9,154.4,89.3z M153,87c0.2,0.6,0.1,1.3,0.9,1.6
			C154,87.9,153.7,87.3,153,87z"/>
		<path class="st1" d="M50,79.9c0.6-0.4,1.2-0.8,1.8-1.2c0.4,1.5,0.9,1.7,2.1,0.7c0.4-0.3,0.8-0.6,1.1-1c0.2-0.2,0.3-0.7,0.8-0.5
			c0.3,0.2,0.2,0.6,0.1,0.9c-0.1,0.2-0.1,0.4-0.2,0.6c-0.4,1-0.1,1.4,1.1,1.3c0.7-0.1,1.3-0.1,1.3,0.9c0,0.5,1.1,0.3,1.1,0.9
			c0.4-0.1,0.6-0.3,0.8-0.6c0.4-0.4,0.8-0.9,1.2-1.3c0.6-0.7,0.6-0.7,1.3-0.1c0.5,0.4,1.2,0.1,1.7,0.5c0.7,0.6,0.6-0.8,1.4-0.5
			c-0.1,1,0.4,1.5,1.6,1.5c0.8,0,0.4,0.6,0.5,1c0.1,0.6-0.1,1.6,1.2,1c0.3-0.1,0.6,0,0.6,0.3c-0.2,1.1,0.6,1.8,1.1,2.6
			c0.2,0.4,0.3,0.8,0.4,1.3c0,0.3-0.1,0.7,0.7,0.5c0.7-0.2,1,0.5,1.2,0.9c0.4,0.7,0.6,0.5,1,0c0.7-1,1.5-1.9,2.3-3
			c0.5,0.3,0.2,0.8,0.3,1.2c0.1,0.4-0.1,0.8,0.7,0.5c0.4-0.2,0.3,0.5,0.2,0.7c-0.7,0.6-0.8,1.4-1.2,2.1c0,0.5-1.1,0.7-0.7,1
			c0.6,0.5,0.9-0.5,1.4-0.7c0.1,0,0.1-0.1,0.1-0.2c0.3-0.3,0.6-0.6,1-1c0.3,1-0.8,1.5-0.7,2.4c1.2,0.1,1.3-1.2,2.4-1.6
			c-0.5,1.1-1,2-1.4,2.9c-0.1,0.2-0.3,0.4-0.5,0.2c-1.5-1-3.4-1.7-4.7-3c-0.8-0.8-1.8-1.5-2.7-2.3c-0.4-0.3-1,0-1.2-0.2
			c-1-0.7-1.9-0.8-3.2-0.7c-1.1,0.1-2.4-0.6-3.6-0.5c-1.1,0-1-0.7-0.9-1.3c-0.7,0-0.8,0.4-1.1,0.8c-0.6,0.7-1.4,1.2-2.1,1.7
			c-0.2,0.1-0.4,0.2-0.6,0c-0.3-0.2,0.1-0.4,0.1-0.6c0.5-0.1,0.9-0.7,0.6-0.9c-0.2-0.2-0.8-0.7-1.4-0.3c-0.2,0.1-0.4,0.2-0.6,0.2
			c-0.8-0.8-2.2-0.8-2.8,0.4c-0.6,1-1.5,1.1-2.4,1.6c0.3-1.8,2.2-2.6,2.2-4.3c-1.2,1.3-2.4,2.7-4.2,3.6c-0.6-0.8,1.7-1.7,0.3-2.7
			c0.5-0.9,1.5-1.6,1.9-2.8c-0.9,0.4-2,0.5-1.9,1.6c0,0.3-0.2,0.6-0.6,0.6c-1.8,0.1-2,1.7-2.8,2.7c-0.4,0.5-0.6,1.7-1.2,1.6
			c-0.8-0.2,0-1.2,0.1-1.8c0.3-0.2,0.4-0.4,0.1-0.6c-0.2-0.1-0.2,0.2-0.3,0.4c-2-0.1-1.8,1.7-2.8,2.9c0.1-2.2,1.4-3.5,2.8-4.6
			c1.3-1.1,2.5-2.2,3.6-3.5C48.7,81.1,49.1,80.3,50,79.9z"/>
		<path class="st1" d="M89.6,53.5c0.5-2.5,1-4.9,1.4-7.4c0.1-0.7,0.3-0.9,1.2-0.9c2.9,0.1,2.9,0,2.9,2.7c0,3.6,0,7.3,0,10.9
			c0,0.7,0,1.3-1.1,1.3c-0.9,0-1.7,0.2-1.8-1.1c-0.1-1.7,0.3-3.5-0.1-5.2c-0.5,1.5-0.9,3.1-1,4.6c-0.1,0.8,0,1.7-1.3,1.8
			c-1.2,0.1-1.8-0.4-2-1.5c-0.3-1.8-0.4-3.6-1.3-5.3c0,1.8,0,3.6,0,5.5c0,0.8-0.1,1.3-1.2,1.4c-1.2,0.1-1.4-0.5-1.4-1.2
			c0-2.5,0-5.1,0-7.6c0-1.5,0-3.1,0-4.6c0-0.7-0.2-1.5,1.1-1.6c2.3-0.1,2.8,0,3,1.3c0.4,2.2,0.8,4.3,1.2,6.5
			C89.2,53.2,89.1,53.4,89.6,53.5z"/>
		<path class="st1" d="M72.8,54.4c-0.6,1.4-0.5,2.9-0.8,4.4c-0.2,0.7-0.3,1.2-1.4,1.3c-1.1,0-1.7-0.1-1.8-1.2
			c-0.2-1.6-0.6-3.2-0.9-4.8c0-0.2,0-0.3-0.3-0.4c-0.4,0.1-0.2,0.4-0.2,0.7c0,1.5,0,3,0,4.5c0,0.7,0,1.2-1,1.1
			c-0.8,0-1.5-0.1-1.4-1.1c0-3.6,0-7.2,0-10.9c0-0.1,0-0.2,0-0.4c-0.2-2.3-0.2-2.3,2.4-2.3c0.9,0,1.3,0.2,1.5,1.1
			c0.6,2.3,0.6,4.8,1.6,7.3c0.7-2.4,0.7-4.6,1.2-6.7c0.1-0.6-0.1-1.5,0.7-1.7c1-0.3,2.1-0.2,3,0c0.6,0.1,0.5,0.9,0.4,1.3
			c-0.2,4.1,0.2,8.1,0,12.2c0,0.4,0.2,1.1-0.4,1.1c-0.7,0-1.7,0.5-2.3-0.4c-0.1-1.7,0.3-3.4-0.2-5.1c0,0,0,0,0,0
			c0-0.1,0-0.2-0.1-0.2C72.8,54.2,72.8,54.3,72.8,54.4z"/>
		<path class="st1" d="M108.4,52.3c0-2.1,0-4.1,0-6.2c0-0.9,0.3-1.3,1.4-1.3c1.2,0.1,2.3,0,3.5,0.1c1.9,0.1,2.9,1,3,2.6
			c0.1,1.6,0.3,3.2-0.9,4.6c-0.2,0.2-0.2,0.4,0,0.6c1,0.8,0.9,1.9,1,2.9c0,1-0.1,1.9,0.1,2.9c0.1,0.5,0.2,1.2-0.8,1.1
			c-0.8-0.1-2,0.5-2.2-0.9c-0.1-1.3,0-2.6-0.2-3.9c-0.1-0.9-0.7-1.1-1.4-1.1c-1,0-0.6,0.7-0.6,1.2c-0.1,1.2-0.2,2.3-0.1,3.5
			c0.1,1.2-0.6,1.2-1.6,1.3c-1.3,0.1-1.2-0.7-1.2-1.4C108.4,56.4,108.4,54.3,108.4,52.3z M111.3,49.3
			C111.3,49.3,111.3,49.3,111.3,49.3c0,0.4-0.1,0.7-0.1,1.1c0,1.1,0.6,1.3,1.6,0.8c0.9-0.5,1-3.2,0.1-3.7c-0.8-0.5-1.5-0.2-1.5,0.7
			C111.3,48.5,111.3,48.9,111.3,49.3z"/>
		<path class="st1" d="M147.3,52.1c0-1.4-0.1-2.8,0-4.2c0.3-3.3,2.8-4.4,6-3.6c1.8,0.5,2.2,1.9,2.3,3.3c0.1,2.7,0.1,5.3-0.1,8
			c-0.3,3.6-3.7,4.2-6.2,3.4c-1.3-0.4-1.9-1.4-1.9-2.6C147.2,54.9,147.3,53.5,147.3,52.1C147.3,52.1,147.3,52.1,147.3,52.1z
			 M150.3,51.7C150.3,51.7,150.3,51.7,150.3,51.7c-0.1,1.3-0.1,2.7-0.1,4c0,0.6,0.4,1,1.1,1c0.5,0,1-0.3,1.1-0.9
			c0.1-2.7,0.2-5.3,0.2-8c0-0.6-0.2-1.3-1.2-1.3c-0.9,0-1.1,0.7-1.1,1.3C150.3,49.2,150.3,50.5,150.3,51.7z"/>
		<path class="st1" d="M97.7,52.4c0-1.4,0-2.7,0-4.1c0-1.3,0.5-2.5,1.8-3c1.6-0.6,3.4-0.7,5,0.3c1,0.6,1.2,1.7,1.2,2.6
			c0.1,3.1,0.3,6.1-0.2,9.2c-0.3,1.8-1.8,2.8-4.1,2.7c-2.2-0.1-3.6-1.3-3.7-3.1C97.6,55.4,97.7,53.9,97.7,52.4z M102.8,52.4
			C102.8,52.4,102.8,52.4,102.8,52.4c0-1.3,0-2.6,0-3.9c0-0.6-0.1-1.1-0.9-1.1c-0.8-0.1-1.2,0.3-1.3,0.9c-0.1,0.4-0.1,0.9-0.1,1.3
			c0,2.1-0.1,4.2-0.1,6.3c0,0.7,0.2,1.6,1.2,1.6c0.9,0,1.1-0.7,1.1-1.5C102.8,54.8,102.8,53.6,102.8,52.4z"/>
		<path class="st1" d="M62.1,52.9c0,1.5,0.1,3,0,4.5c-0.1,1.4-1.3,2.4-2.9,2.7c-2.6,0.5-4.9-1-4.9-3.4c0-2.7,0-5.5,0-8.2
			c0-2.2,1.3-3.1,4.1-3.1c2-0.1,3.6,1.2,3.8,3c0.1,0.8,0.1,1.5,0.1,2.3c0,0.8,0,1.5,0,2.3C62.1,52.9,62.1,52.9,62.1,52.9z
			 M59.4,52.7C59.4,52.7,59.4,52.7,59.4,52.7c0-1.2,0-2.4,0-3.6c0-0.8-0.3-1.4-1.3-1.4c-0.9,0-1.1,0.6-1.1,1.4c0,2.5,0,4.9,0,7.4
			c0,0.7,0.3,1.3,1.2,1.3c0.8,0,1.2-0.5,1.2-1.3C59.3,55.2,59.4,53.9,59.4,52.7z"/>
		<path class="st1" d="M119.1,52.1c0-2.1,0-4.2,0-6.3c0-0.9,0.4-1.2,1.3-1.2c1.7,0,3.4,0,5.1,0c0.9,0,0.9,0.5,0.9,1
			c0,0.6,0.2,1.5-0.9,1.5c-0.8,0-1.7,0-2.5,0c-0.6,0-0.9,0.3-0.9,0.8c0,0.8,0,1.5,0.1,2.3c0,0.4,0.2,0.6,0.7,0.5c0.4,0,0.8,0,1.2,0
			c0.8-0.1,1.6-0.1,1.6,1c0,1.3-0.2,1.5-1.7,1.6c-0.6,0-1.6-0.4-1.8,0.3c-0.3,1.1-0.4,2.2,0,3.3c0.1,0.3,0.5,0.2,0.7,0.2
			c0.5,0,1.1,0,1.6-0.1c1.9-0.1,1.9-0.2,1.8,1.5c0,0.7-0.3,1-1,1c-1.8,0-3.7,0-5.5,0c-0.9,0-0.7-0.6-0.7-1
			C119.1,56.4,119.1,54.3,119.1,52.1C119.1,52.1,119.1,52.1,119.1,52.1z"/>
		<path class="st1" d="M129,51.6c0-1.9,0.1-3.8,0-5.7c-0.1-1.2,0.5-1.5,1.7-1.5c1.4,0,1.3,0.8,1.3,1.6c-0.1,2.9-0.1,5.8-0.2,8.7
			c0,2.1,0,2.1,2.3,1.9c1.8-0.1,2,0,1.9,1.6c0,0.5-0.2,0.8-0.8,0.8c-1.9,0.2-3.7,0.2-5.6,0.2c-0.7,0-0.6-0.4-0.7-0.8
			C128.7,56.2,129.1,53.9,129,51.6z"/>
		<path class="st1" d="M138.3,52c0-2.1,0-4.3,0-6.4c0-1.3,0.8-1.4,1.9-1.4c1.2,0,1.2,0.7,1.1,1.5c-0.3,3.3-0.2,6.6-0.2,9.9
			c0,0.7,0.1,1.1,1.1,1c0.6-0.1,1.2,0,1.7,0c1-0.1,1.5,0.2,1.4,1.1c0,0.8-0.1,1.5-1.4,1.4c-1.6-0.1-3.2,0-4.8,0
			c-0.8,0-1.1-0.2-1.1-1c0-2.1,0-4.1,0-6.2C138.2,52,138.3,52,138.3,52z"/>
		<path class="st1" d="M49,45.4c0.7,0,1.2,0,1.8,0c0.9-0.1,1.3,0.3,1.4,1.1c0.1,1-0.2,1.6-1.4,1.4c-1.2-0.2-1.3,0.3-1.3,1.2
			c0,3.4,0.2,6.8-0.1,10.1c-0.1,0.6-0.1,1.2-1,1c-0.8-0.1-1.7,0.2-1.8-1.1c-0.1-1.5,0.2-3.1,0.2-4.6c0.1-1.9-0.3-3.9-0.2-5.8
			c0.1-1-0.4-1.3-1.3-1c-1.1,0.3-1.2-0.3-1.3-1c-0.1-0.8,0.2-1.1,1.1-1.1C46.4,45.7,47.8,45.3,49,45.4z"/>
		<path class="st1" d="M49.3,74.2c-5.5,2.3-10.1,6-15.7,8.8c1.2-2.2,3.1-3.3,4.9-4.6c2-1.5,4.1-2.9,6.4-4.1c1-0.6,1.9-1.3,3.2-0.5
			c0.3,0.2,0.8,0.1,1.1,0.1C49.2,74,49.3,74.1,49.3,74.2z"/>
		<path class="st1" d="M50.2,76c-0.6,0.3-1.1,0.2-1.4-0.4c0.6-0.4,1.2-0.2,1.7,0.1c0.1,0.1,0.2,0.2,0.3,0.3c0.4,0.1,1.1-0.7,1,0.3
			c0,0.6,0.5,1.5-0.7,1.9c-0.7,0.2-1.3,0.8-1.7,1.5c-0.6,0.6-1.2,1.2-1.8,1.7c-0.5,0.4-1,0.8-1.7,1.1c-0.9,0.4-1.6,1-2.2,1.7
			c-0.7,0.8-1.1,1.7-2.5,2c-0.7,0.2-1.8,1.2-2.4,2c-0.3-2,9-10.1,12-10.6c0.2-0.6-0.8-0.7-0.5-1.3c0.1-0.1,0.3-0.1,0.2-0.3
			C50.4,75.8,50.3,75.9,50.2,76z"/>
		<path class="st1" d="M160.2,83.3c-0.2-0.4-0.4-0.9-1-0.9c-0.9,0-1-0.5-1.1-1.1c-0.1-0.4-0.2-0.8,0.1-1.1c0.4-0.4,0.8,0.2,0.9,0.3
			c1.1,0.6,2.1,1.4,3.1,2.2c0.2,0.2,0.3,0.4,0.6,0.4c0.9-0.1,0.8,0.5,0.5,0.8c-0.7,0.9,0,1.4,0.7,1.7c1,0.4,0.6,1.3,1.4,2.1
			c-1.1-0.4-2.1-1-1.9,0.5c-1.8-1.5-3.5-3.1-5-4.8c0.4,0.1,0.7,0.2,1.1,0.2c0.5,0.5,1.2,0.4,1.8,0.8
			C161.4,83.4,160.5,83.6,160.2,83.3z"/>
		<path class="st2" d="M100.1,111c-0.7-0.8-1.7-1.1-2.7-1.3c-0.5-0.1-0.7-0.2-0.7-0.7c0-1.6,0.6-3,1.6-4.3c0.5-0.7,1.4-0.3,2.1-0.5
			c0,0-0.1,0-0.1,0.1c0.1,0.8,0.1,1.6,0,2.4c-0.1,0.6,0.8,0.7,1.2,1.2c0.5,0.6,0.9-0.2,1.4-0.2c-0.1,1-1.2,1.6-1.2,2.6
			C100.9,110.1,100.4,110.4,100.1,111z M97.6,109c0.1-0.6,0.5-0.9,0.9-1.2c0.3-0.2,0.4-0.4,0-0.7c-0.5-0.3-0.5,0-0.6,0.3
			C97.5,107.8,97.3,108.4,97.6,109z"/>
		<path class="st1" d="M49.2,77c-1.1,1.4-2.5,2.3-3.9,3.1c-1.8,1-2.8,2.5-4.3,3.7c-0.4,0.3-0.7,0.6-0.9,1c-0.3,0.5-0.8,0.9-1.5,0.7
			c-0.5-0.1-0.7,0.1-0.6,0.5c0.4,1.2-0.9,1.4-1.5,2.1c-0.3,0.4-0.6,0-0.6-0.4c0.1-0.8,0.3-1.5,1-2.1c1.8-1.4,3.2-3.2,5.2-4.4
			c2.2-1.4,4.5-2.9,6.7-4.3C48.8,76.9,48.9,77,49.2,77z"/>
		<path class="st2" d="M109.5,100.9c-0.5,0.5-0.6,0.5-1.3,0c-0.3-0.2-0.7-0.4-1.1-0.4c-0.4,0-0.7,0.2-1.2-0.2
			c-0.5-0.3-1,0.3-0.8,0.9c0.2,0.7-0.2,0.9-0.8,0.8c-0.9-0.1-1.6,0.4-2.4,0.5c-0.4,0.1-0.8,0.1-1.1,0c0.5-0.4-0.4-0.9,0.2-1.3
			c0.4-0.2,0.7-0.6,0.5-1c-0.5-1.1,0.2-1.2,1-1c1.4,0.3,2.1-0.6,3-1.3c0.6,1.3,1.8,2,3.1,2.5C109.1,100.5,109.3,100.6,109.5,100.9z"
			/>
		<path class="st1" d="M155.9,83.5c0-0.6,0.1-1.2,1-0.9c0.5,0.6,1.5,1,1.2,1.8c-0.2,0.5-0.2,0.5,0.3,0.6c1.5,0.6,2.8,1.6,3.7,2.8
			c0.3,0.3,0.5,0.7,0.1,1.1c-0.4,0-0.6,0.1-0.4,0.5c0.4,0.6,0.8,1.2,1.3,1.9c-0.9-0.1-1.7-0.3-2.3-0.9c0.1-0.3,0-0.5,0-0.8
			c-0.1-1.1-1.3-1.5-1.7-2.3C158.3,85.7,157,84.7,155.9,83.5z"/>
		<path class="st1" d="M42.7,79.6c-1.6,1.4-3.2,2.7-4.7,4.1c-0.2,0.2-0.3,0.4-0.6,0.1c-0.4-0.4-0.6-0.1-0.6,0.3c0,0.5-0.3,0.7-0.7,1
			c-0.4,0.3-0.9,0.9-1.4,0.5c-0.5-0.4,0-0.9,0.4-1.3c2.1-2.2,4.8-3.7,7.6-4.9C42.6,79.4,42.6,79.5,42.7,79.6z"/>
		<path class="st1" d="M83.1,90.8c0.5,0.6,0.1,1.4,1.1,1.8c0.6,0.2-0.5,1.4,0.4,2c-0.7-0.1-0.9,0.5-1.4,0.8c-0.1,0-0.3,0-0.3-0.1
			c-0.1-0.1-0.2-0.3,0-0.4c0.5-0.3,0.4-0.9,0.6-1.3c0.1-0.3-0.1-0.5-0.4-0.6c-0.4-0.1-0.5,0.1-0.6,0.5c0,0.5-0.2,1.1-0.7,1
			c-0.6-0.2-0.6-0.8-0.2-1.3C82,92.4,82.2,91.4,83.1,90.8z"/>
		<path class="st2" d="M162.2,88.8c0.4-0.4,0.2-0.7-0.1-1.1c-1-1.2-2.2-2.2-3.7-2.8c-0.4-0.2-0.5-0.1-0.3-0.6
			c0.3-0.8-0.8-1.2-1.2-1.8c0.7,0,1.4-0.1,1.7,0.7c1.5,1.7,3.2,3.4,5,4.8c0.6,0.1,1,0.4,1.1,1l0,0c-0.2,0-0.4,0.4-0.5,0.2
			C163.7,88.5,162.9,88.9,162.2,88.8z"/>
		<path class="st2" d="M155.9,83.5c1.2,1.2,2.5,2.2,3.2,3.7c0.4,0.8,1.6,1.3,1.7,2.3c0,0.3,0.1,0.5,0,0.8c-0.1,0-0.3,0-0.4,0
			c0.2-0.7-0.4-1.1-0.8-1.7c-0.1-0.2-0.2-0.4-0.4-0.5c-1.5-1-2.8-2.1-3.2-3.8c0-0.2-0.3-0.3-0.5-0.4
			C155.6,83.8,155.7,83.6,155.9,83.5z"/>
		<path class="st2" d="M88.6,104.1c-0.4,1-0.9,2-1,3c-0.2,1.3-1,2.4-0.9,3.7c0,0.2-0.4,0.4-0.7,0.5c-0.4,0.2-0.4-0.2-0.4-0.3
			c0.1-0.4-0.5-0.6-0.1-1.1c1.4-1.7,2.1-3.7,2.5-5.8C88.1,104.1,88.3,104.1,88.6,104.1z"/>
		<path class="st1" d="M69.2,76.6c-0.3-0.8-0.6-1.4-0.7-1.9c-0.1-0.4-0.2-1,0.3-1.2c0.3-0.1,1-0.4,1.3,0.2c0.3,0.5,0.9,0.8,0.4,1.4
			C70.1,75.5,69.7,76,69.2,76.6z"/>
		<path class="st1" d="M117.5,106.9c0.2,1.3-0.9,2-0.9,3c0,0.4-0.3,0.8-0.3,1.2c0,0.3,0.2,0.7-0.3,0.7c-0.3,0-0.4-0.5-0.3-0.7
			c0.3-0.6,0.2-1.2,0.2-1.9C115.8,108.3,116.8,107.8,117.5,106.9z"/>
		<path class="st1" d="M142.1,77.9c0.7-0.1,0.9,0.4,0.8,0.7c-0.1,0.7-0.7,1.1-1.3,1.5c-0.2,0.1-0.9-0.5-0.8-0.6
			C141.5,79,141.1,78,142.1,77.9z"/>
		<path class="st2" d="M89.1,100.5c1-0.6,0.7-1.9,1.8-2.5c0.2,0.5-0.3,0.9-0.5,1.2c-0.5,1-1,2.1-1.3,3.2
			C88.5,101.8,89.3,101.2,89.1,100.5z"/>
		<path class="st2" d="M56.1,86.7c0.2-0.1,0.4-0.1,0.6-0.2c0.6-0.4,1.2,0,1.4,0.3c0.3,0.3-0.1,0.8-0.6,0.9
			C56.8,87.7,55.8,88,56.1,86.7z"/>
		<path class="st2" d="M98,115.7c0.3-0.2,1,1,1.1-0.2c0.2,0.1,0.3,0.3,0.5,0.4c-0.5,0.6-1.2,1.1-1,2c-0.7,0-0.5-0.5-0.8-0.7
			c-0.4-0.3-0.8-0.7,0.3-0.8C98.5,116.3,98,115.9,98,115.7z"/>
		<path class="st1" d="M115.4,116.6c0,0.5,0,1.3,0,2c0,0.2-0.1,0.4-0.4,0.3c-0.2,0-0.2-0.2-0.2-0.2
			C115.5,118,114.1,116.9,115.4,116.6z"/>
		<path class="st1" d="M120,102.9c0.1-0.6-1.2-1.1-0.4-1.8c0.2-0.2,0.6-0.3,0.7-0.1C120.6,101.6,120.6,102.3,120,102.9z"/>
		<path class="st1" d="M47.1,88.7c-0.2-1.2,0.5-1.8,1.5-2.4C48.5,87.4,47.9,88,47.1,88.7z"/>
		<path class="st1" d="M43,79c0.8-0.5,1.7-1.1,2.5-1.6C45.2,78.6,44.2,78.9,43,79z"/>
		<path class="st2" d="M47.7,81.4c0.6-0.6,1.2-1.2,1.8-1.7c0.1,0.2,0.3,0.2,0.5,0.3c-0.9,0.4-1.3,1.2-1.9,1.8
			C48.1,81.5,47.9,81.4,47.7,81.4z"/>
		<path class="st1" d="M74.6,86c0,0.1-0.1,0.1-0.1,0.2c0,0,0,0.1,0,0.1c0,0.1,0,0.3-0.1,0.4c-0.3,0.4-0.7,0.8-1.2,1.4
			c0.1-1,0.4-1.6,0.9-2.1C74.3,86,74.5,86,74.6,86z"/>
		<path class="st2" d="M73.1,54.4c0.5,1.7,0.1,3.4,0.2,5.1C72.7,57.8,73.1,56.1,73.1,54.4z"/>
		<path class="st2" d="M111.1,105.9c0.5,0,0.8,0.8,1.3,0.2c0.1-0.1,0.4-0.3,0.5,0c0.1,0.2-0.1,0.4-0.3,0.4c-0.5-0.1-0.7,0.2-0.7,0.6
			C111.1,107,111.5,106.2,111.1,105.9z"/>
		<path class="st2" d="M129.6,83c0,0-0.1,0-0.1,0c-0.3,0.2-0.1,0.9-0.7,0.8c-0.5-0.1,0-0.7-0.2-1C129,82.5,129.5,81.9,129.6,83z"/>
		<path class="st1" d="M79.8,93.1c-0.1,0.7-0.2,1.1-0.3,1.4c-0.1,0.4-0.4,0.6-0.8,0.4c-0.4-0.2-0.2-0.5,0-0.7
			C78.9,93.8,79.3,93.5,79.8,93.1z"/>
		<path class="st2" d="M76.8,91.1c0,0.1-0.1,0.2-0.1,0.2c-0.5,0.2-0.8,1.1-1.4,0.7c-0.4-0.3,0.7-0.6,0.7-1
			C76.1,91.4,76.5,91.1,76.8,91.1z"/>
		<path class="st2" d="M160.2,83.3c0.4,0.4,1.3,0.1,1.3,1.1c-0.6-0.4-1.4-0.3-1.8-0.8C159.8,83.5,160.1,83.5,160.2,83.3z"/>
		<path class="st2" d="M74.6,86c-0.2,0-0.3,0-0.5,0c0.1-0.6,0.4-1,0.9-1.6C75.2,85.1,75,85.6,74.6,86z"/>
		<path class="st1" d="M138.5,79.2c0.3-0.6,1.1-0.6,1.3-1.4C139.8,78.9,139.8,78.9,138.5,79.2z"/>
		<path class="st2" d="M87.8,104.1c-0.3-0.2-0.7-0.2-1.1-0.1c0.3-0.3,0.5-0.6,0.5-1C87.9,103.2,87.8,103.6,87.8,104.1z"/>
		<path class="st2" d="M109.8,102.2c-0.4-0.4-0.1-0.8-0.2-1.2C110,101.4,109.8,101.8,109.8,102.2z"/>
		<path class="st1" d="M138.5,79.5c-0.1,0.1-0.2,0.2-0.4,0.3c-0.2,0.1-0.2-0.1-0.2-0.2c0-0.2,0.1-0.3,0.3-0.3
			C138.4,79.3,138.5,79.4,138.5,79.5z"/>
		<path class="st2" d="M74.4,86.7c0-0.1,0-0.3,0.1-0.4C74.6,86.4,74.6,86.6,74.4,86.7z"/>
		<path class="st2" d="M164.7,89.1c0,0,0.1,0.1,0.1,0.1C164.8,89.2,164.8,89.2,164.7,89.1C164.7,89.2,164.7,89.1,164.7,89.1
			C164.7,89.1,164.7,89.1,164.7,89.1z"/>
		<path class="st2" d="M72.8,54.4c0-0.1,0-0.2,0.2-0.2c0,0,0.1,0.1,0.1,0.2C73,54.4,72.9,54.4,72.8,54.4z"/>
		<path class="st2" d="M97.7,115.4c0.1,0,0.1,0.1,0.1,0.2C97.7,115.5,97.7,115.5,97.7,115.4z"/>
		<path class="st2" d="M98.1,99.5c0.4,1.5-0.8,1.8-1.7,2.2c0.1,0.4,0.3,0.3,0.5,0.2c0.4-0.2,0.7,0,0.9,0.3c0.2,0.3-0.2,0.5-0.4,0.7
			c-0.6,0.3-1.1,0.7-0.6,1.4c0.1,0.1-0.1,0.4-0.2,0.5c-0.4,0.5-2.5,0.8-3,0.4c-0.2-0.2-0.5-0.5-0.3-0.9c0.2-0.3,0.4-0.1,0.7,0
			c0.3,0.1,0.5,0.1,0.8,0.1c0.2,0,0.5,0,0.5-0.2c0.1-0.3-0.1-0.4-0.3-0.4c-0.8-0.2-1.3-0.8-1.8-1.3c-0.8-0.7-0.6-1.4-0.3-2.3
			c0.4-1.2,0.7-2.7,0-4c-0.4-0.7-0.9-0.7-1.2,0c-0.1,0.3-0.3,0.3-0.5,0.4c-0.4,0.2-0.8,0.4-1.1,0.1c-0.3-0.3,0.1-0.8,0.4-0.9
			c0.6-0.3,1-1,1.9-0.8c1.2,0.3,2,1.7,1.7,3c-0.2,0.9-0.5,1.7-0.3,2.6c0.1,0.4,0.2,1.2,1.1,0.6c0.1-0.1,0.9-0.8,1.4-0.1
			c0.1,0.2,0.3,0,0.3-0.2C96.5,99.8,97.5,99.9,98.1,99.5z"/>
		<path class="st2" d="M101.9,96c-1.7,0.2-2.5-1-3.7-1.7c-0.2-0.1-0.3-0.4-0.7-0.4c-0.3,0-0.4-0.1-0.3-0.4c0.2-0.4,1.8-0.7,2-0.3
			c0.2,0.3,0.4,0.2,0.7,0.2c0.4-0.1,0.5-0.2,0.5-0.6c0-0.7,0.4-1.2,0.9-1.7c0.5-0.5,1-0.6,1.6-0.1c0.6,0.4,1,1,0.8,1.7
			c-0.2,0.6-0.4,0.2-0.6-0.1c-0.5,0.5-1.2,0.3-1.8,0.6c-0.3,0.1-0.8,0-0.7,0.5c0.1,0.3,0.5,0.6,0.8,0.5c1-0.2,1.1,0.4,1.3,1
			C102.9,95.8,102.9,96.4,101.9,96z"/>
		<path class="st2" d="M72.5,68.5c0,0.6,5.8,6.1,6.7,6.4c-0.4,0.9-0.9,1.1-1.7,0.3c-1.2-1.1-2.2-2.4-3.7-3.2c-0.6-0.3,0-1.3-0.8-1.5
			c-1-0.2-0.8-0.8-0.7-1.5C72.4,68.9,72.5,68.7,72.5,68.5z"/>
		<path class="st2" d="M95.9,90.6c-0.3,1.4-1.5,1.7-2.3,2c-1,0.4-1.4-0.8-2.1-1.3c-0.4-0.3-0.1-1.4,0.4-1.7c0.5-0.3,0.9,0.3,1,0.9
			c0.1,0.5,0.4,0.9,1.2,0.5C94.6,90.9,95.2,91,95.9,90.6z"/>
		<path class="st2" d="M100.4,88.9c0.1,0.3,0.2,0.7,0.3,1c0.1,0.3,0.7,0.7,0.3,0.9c-0.5,0.4-1.5,0-1.6-0.1c-0.3-0.7-1.3-1.2-0.8-2.1
			c0.2-0.5,0.5-0.8,0.9-0.6C99.9,88.1,101,88,100.4,88.9z"/>
		<path class="st2" d="M99.9,84.5c0,0.5-0.1,0.9-0.1,1.3c-0.8-0.2-0.7,0.5-1.1,0.9c-0.2,0.2-0.3-0.1-0.5-0.2
			c-0.3-0.2-0.3-0.5-0.1-0.7C98.3,85.4,99,84.9,99.9,84.5z"/>
		<path class="st2" d="M94.7,109.6c-0.1,0.3,0.2,0.9-0.5,0.9c-0.7,0-0.6-0.7-0.7-1.1c0-0.4,0.1-0.9,0.6-0.9
			C94.6,108.6,94.7,109.1,94.7,109.6z"/>
		<path class="st2" d="M85.4,78.5c-0.9-0.4-0.3-1.2-1-1.5c-0.2-0.1,0.1-0.4,0.4-0.4c0.2,0,0.5-0.1,0.4,0.3
			C85,77.3,85.2,77.8,85.4,78.5z"/>
		<path class="st2" d="M102.7,87.8c0,0.5-0.6,0.5-0.9,0.7c-0.1,0.1-0.6-0.2-0.6-0.5c0-0.5,0.5-0.3,0.8-0.5
			C102.3,87.4,102.5,87.6,102.7,87.8z"/>
		<path class="st2" d="M89.6,92.7c0,0.5-0.5,0.3-0.7,0.4c-0.4,0.3-0.5,0-0.6-0.3c-0.1-0.3,0.1-0.6,0.5-0.6
			C89.2,92.1,89.4,92.4,89.6,92.7z"/>
		<path class="st0" d="M88.1,81.7c-0.2-0.1-0.4-0.2-0.3-0.5c0-0.1,0.2-0.1,0.3-0.1c0.3,0,0.3,0.2,0.3,0.4
			C88.3,81.6,88.2,81.7,88.1,81.7z"/>
		<path class="st0" d="M91.5,114.6c-0.1,0-0.2-0.1-0.1-0.2c0.1-0.1,0.2,0,0.3,0C91.6,114.5,91.5,114.6,91.5,114.6z"/>
		<path class="st2" d="M128,88.5c0.6,1.6,0.5,2.9,0.4,4.3C127.9,91.5,127.5,90.1,128,88.5z"/>
		<path class="st2" d="M144,86.2c0.2,1.1,0.5,2.2,0.7,3.3c0,0.2,0.1,0.5-0.3,0.5c-0.4,0-0.3-0.4-0.3-0.5
			C144.2,88.4,143.6,87.3,144,86.2z"/>
		<path class="st2" d="M128.3,93.3c0.4,0.1,0.7,0.4,0.8,0.7c0.2,0.4,0.3,0.8,0.1,1.1c-0.1,0.2-0.4,0.2-0.6,0.1
			c-0.6-0.2,0.1-0.6-0.2-0.9C128.3,94.1,128.4,93.7,128.3,93.3z"/>
		<path class="st2" d="M154.4,89.3c0.6,0.5,1.1,0.9,1.5,1.3c0.2,0.2,0.4,0.4,0.1,0.6c-0.2,0.1-0.5,0.1-0.6-0.2
			C155.1,90.5,154.8,90.1,154.4,89.3z"/>
		<path class="st2" d="M153,87c0.7,0.3,1,0.9,0.9,1.6C153.1,88.3,153.2,87.6,153,87z"/>
		<path class="st0" d="M139.4,94.1c0-0.1-0.1-0.4,0-0.4c0.2-0.1,0.2,0.1,0.2,0.2C139.5,94,139.4,94,139.4,94.1z"/>
		<path class="st0" d="M127.9,97.5c0,0.1,0,0.2-0.1,0.3c0,0-0.1-0.1-0.1-0.1C127.8,97.6,127.8,97.5,127.9,97.5z"/>
		<path class="st0" d="M44.5,87c0.1-0.2,0.2-0.5,0.3-0.4c0.3,0.2,0.2,0.5-0.1,0.6C44.6,87.1,44.5,87.1,44.5,87z"/>
		<path class="st2" d="M111.3,49.3c0-0.4,0-0.8,0.1-1.2c0.1-0.8,0.8-1.1,1.5-0.7c0.9,0.5,0.8,3.3-0.1,3.7c-1,0.5-1.5,0.3-1.6-0.8
			C111.2,50,111.3,49.7,111.3,49.3C111.3,49.3,111.3,49.3,111.3,49.3z"/>
		<path class="st0" d="M150.3,51.7c0-1.3,0-2.6,0-3.9c0-0.6,0.1-1.3,1.1-1.3c1,0,1.2,0.7,1.2,1.3c0,2.7-0.1,5.3-0.2,8
			c0,0.6-0.5,0.9-1.1,0.9c-0.7,0-1-0.4-1.1-1C150.2,54.4,150.2,53.1,150.3,51.7C150.3,51.7,150.3,51.7,150.3,51.7z"/>
		<path class="st0" d="M102.8,52.4c0,1.2,0,2.4,0,3.6c0,0.8-0.2,1.5-1.1,1.5c-1,0-1.2-0.9-1.2-1.6c0-2.1,0-4.2,0.1-6.3
			c0-0.4,0-0.9,0.1-1.3c0.1-0.7,0.5-1,1.3-0.9c0.8,0.1,0.9,0.5,0.9,1.1C102.8,49.8,102.8,51.1,102.8,52.4
			C102.8,52.4,102.8,52.4,102.8,52.4z"/>
		<path class="st0" d="M59.4,52.7c0,1.3,0,2.5,0,3.8c0,0.8-0.4,1.3-1.2,1.3c-0.9,0-1.2-0.6-1.2-1.3c0-2.5,0-4.9,0-7.4
			c0-0.8,0.3-1.3,1.1-1.4c0.9,0,1.3,0.6,1.3,1.4C59.3,50.3,59.4,51.5,59.4,52.7C59.4,52.7,59.4,52.7,59.4,52.7z"/>
		<path class="st0" d="M50.2,76c0.1-0.1,0.3-0.2,0.4,0c0.1,0.2-0.1,0.2-0.2,0.3C50.3,76.2,50.2,76.1,50.2,76z"/>
		<path class="st1" d="M97.6,109c-0.3-0.7-0.1-1.2,0.3-1.7c0.2-0.3,0.2-0.6,0.6-0.3c0.4,0.3,0.3,0.5,0,0.7
			C98.1,108.1,97.7,108.5,97.6,109z"/>
	</g>
</g>
</svg>
