<?xml version="1.0" encoding="utf-8"?>
<!-- Generator: Adobe Illustrator 23.0.3, SVG Export Plug-In . SVG Version: 6.00 Build 0)  -->
<svg version="1.1" id="hand" xmlns="http://www.w3.org/2000/svg" xmlns:xlink="http://www.w3.org/1999/xlink" x="0px" y="0px"
	 viewBox="0 0 197 276" style="enable-background:new 0 0 197 276;" xml:space="preserve">
<style type="text/css">
	.st0{fill:#001013;}
	.st1{fill:#D9C6B6;}
	.st2{fill:#FFE9D8;}
	.st3{fill:none;stroke:#001013;stroke-width:2;stroke-miterlimit:1;}
</style>
<path class="st0" d="M74.5,300.5c0,0,0,0.1-0.1,0.1c0,0,0,0,0,0C74.5,300.6,74.5,300.6,74.5,300.5C74.5,300.5,74.5,300.5,74.5,300.5
	L74.5,300.5L74.5,300.5z"/>
<path class="st1" d="M124.7,216.4c-3.6-0.4-11.5,3.6-13.8,2.7c3.6,1.5,7.9,1.5,11.6,0.8c0.9-0.2,5.3-2.4,6.2-1.9
	C127.6,217.1,126.3,216.5,124.7,216.4L124.7,216.4z M111.5,219C111.5,219,111.5,219,111.5,219L111.5,219z"/>
<path class="st0" d="M112.3,193.9c-0.4,6.2-7,19.3-13.5,20.6C110,211.5,110.6,203.5,112.3,193.9L112.3,193.9z"/>
<path class="st0" d="M81.2,213.4c0.2,0.4,1.3,3.3,0.3,3.6c-1.2,0.4-1.6-2.6-1.8-3.1C81.4,216.7,80.3,211.5,81.2,213.4L81.2,213.4z"
	/>
<g>
	<path class="st2" d="M89.5,14.1C89.4,14.4,89.1,14.1,89.5,14.1L89.5,14.1z"/>
	<path class="st2" d="M131.2,92.3C131.2,94.2,131.2,92.1,131.2,92.3L131.2,92.3z"/>
	<path class="st2" d="M11.4,128.2c1.9,1.8,3.8,4.2,6,5.8C15.1,132.3,13.3,130.2,11.4,128.2L11.4,128.2z"/>
	<path class="st2" d="M195.4,72.9c-1.1-2.1-6.8-5-9.2-5c-6.7-0.1-10.8,8-13.2,13.2c-1.8,3.9-1.6,7.6-2.8,11.3
		c-1.5,4.6-5.2,7-7.9,10.4c-4.6,5.9-5,15.1-10,19.9c-5.6-8.9,2.3-25.4,4.6-34.8c2.9-11.7,5.3-23.5,8.2-35.2c2.1-8.2,5.5-16.6,3-25.2
		c-1.9-6.5-8-11.1-14.1-8.9c-7.8,2.8-7,9.1-7.4,15.6c-0.7,9.4-0.1,20.5-3.6,29.2c-3.9,9.6-8.4,18.3-9.8,28.7
		c-0.3,2.2-0.7,15.3-3.3,16.5c-2.6,1.2-1.4-3.2-1.4-4c-0.9-7.9,2.3-17.6,2.6-25.5c0.5-15.3,2.6-30.5,3.5-45.8
		c0.4-7.5,4.7-28.4-6.1-30c-1.6-0.2-4.1-0.3-5.6,0.1c-10,2.3-11.2,16.2-11.9,24.6c-0.6,6.9-0.3,13.7-0.3,20.5
		c0,11.4-2.8,22.7-3.4,34.1c0,0.7,2.3,17.9-1.1,19.4c-9.7,4.1-6.6-27.3-6.6-29.1c0.3-11.8,1.9-23.7,2.1-35.5
		c0.1-8,0.7-18.5-8.6-21.9C77.8,10.3,78.1,43,78.1,51.5c0,7.5-1.3,15-2,22.5c-1,9.9,1,17.3,2,27.2c1.2,11.7-0.8,24.4-5.2,36.3
		c-3,8.2-11.5,18.7-19.8,8.5c-5-6.1-5.6-11.5-12.1-17.2c-3.4-2.9-8.3-6.4-13.5-9c-3.9-3.1-7-4.4-11.1-5.4c-5-1.3-14.9,0.8-15.2,7.2
		c-0.2,3.5,5.5,8.9,10.7,11.6c4,3.8,6.8,5.7,11.1,10c4.2,4.2,4.4,7,7.3,11.8c1.6,2.7,7.3,15.4,7.3,15.3c1,2.9,2.1,8.5,4.6,10.4
		c0.9,0.7,2.2,1.3,3.2,1.4c3.2,2.7,6.3,4.5,9.5,6.8c5.8,4.1,10.8,9.4,14.8,14.7c3.2,4.2,9.7,7.6,11.2,11.4c1.6,4.1,0.1,14,0.1,17.6
		c0,5.1,0.2,10.2,0.1,15.3c-0.3,14.9-4.9,25.3-7.3,39.8c26.4,1.2,52.8,2.4,79.2,3.6c-0.7-7.8-3.3-16.2-4.3-24.3
		c-1-8.3-1.7-16.8-2.4-25.1c-0.8-9.3-2.3-22.9,1.2-31.8c2-4.9,6-8.9,8.6-13.3c2.9-4.7,6.2-9.8,8.4-14.8c0.5-1.2,3.5-12.5,4.1-11.7
		c-0.1-22.5,6.3-44.2,16.4-64.9C186.9,100.8,198.7,79.1,195.4,72.9z M46.3,176.3c0,0-0.1,0-0.1,0c0-0.1,0-0.1,0-0.2
		C46.2,176.2,46.3,176.3,46.3,176.3z M78,148.3C78,148.4,78,148.4,78,148.3L78,148.3z M79.3,104.5c-0.2,0.2-0.3-1.1-0.3-1.3
		c0.4,0.5,0.6,0.7,0.7,0.8C79.6,104,79.5,104.1,79.3,104.5z M110.9,87.2c-0.2-2.6,0.2-3.2,0.2-5.3C112.1,83.1,111,85.2,110.9,87.2z
		 M147.3,30.7c-0.2,0.6-0.3,1.3-0.5,1.9c0.1-1.1,0.6-2.3,0.9-3.4C147.6,29.7,147.4,30.2,147.3,30.7z"/>
	<path class="st2" d="M46.1,172.4c-3.6,11.5,8.6,19.2,15.8,26c4.3,4,8.6,11.1,14,12.6c3.6,1,9-1.4,12.4-0.1
		c-13.4-3.2-9.7-5.4-19.8-14.3C62.3,191.2,42.6,182.2,46.1,172.4L46.1,172.4z M45.6,173.9C45.6,173.9,45.6,173.9,45.6,173.9
		L45.6,173.9z M76.3,205.9C76.4,206.1,76.4,206.1,76.3,205.9L76.3,205.9z"/>
	<path class="st2" d="M112.3,78.3c-0.5-2.6-2.5-0.3-3.1,0.4c-1.1,1.1-0.4,5.6-0.2,7.3c0.5,3.9,2,7.6,4.5,2.4
		C114.6,85.8,112.7,80.6,112.3,78.3L112.3,78.3z M113.4,86.1C113.4,86.1,113.4,86.1,113.4,86.1L113.4,86.1z"/>
	<g>
		<path class="st1" d="M48.4,178.4c0.2,0.2,0.4,0.3,0.5,0.5c-0.5-1.6-0.3-3.1-0.2-6.1c0.3,2.3,0.7,4.7,1.3,7.1
			c1.6,1.3,2.2,2.5,3.8,3.6c-0.5-1.9-0.5-3.8,0.3-5.8c0.1-0.2,1.7-3.8,1.9-3.1c0.1,0.9-0.7,6.6-0.9,9.8c1.9,1.4,3.9,2.9,5.7,4.5
			c2.4,2.2,4.7,4.4,6.6,7c0.6,0.8,1.3,2.3,2.1,4c5.4,5,16,13.4,19.9,11.4c-2,1.3-3.8,1.9-5.4,1.9c-3.8,2.9,19,6.2,19.7,7.5
			c0.5,1-2.9,1.1-2.8,1.1c-3.3,0.2-21.3-5.7-16.9-8.6c-6.4,0.2-10.5-7.8-14.4-13c1,2.2,2.1,4.5,3.1,5.6c-6-4.6-11.7-9.9-17.4-14.8
			c-10-8.6-16.1-13-15.2-28.2C40.3,168.2,44.4,174.9,48.4,178.4z"/>
		<path class="st1" d="M72.9,205.7c0.2,0.2,0.5,0.4,0.7,0.6C73.4,206.2,73.1,206,72.9,205.7z"/>
		<polygon class="st1" points="99.9,244.8 99.9,244.8 99.9,244.8 		"/>
		<path class="st1" d="M82.3,218.9c-0.8,3.5-1.9,7-2.1,10.6c-0.3,7,0.2,14.1,0.4,21.1c0.3,9.3-0.3,18.5-0.7,27.8
			c-0.2,0.5-0.3,1-0.5,1.6c-0.1,0.2-0.1,0.4-0.2,0.6c-0.1,0.5-0.2,1-0.2,1.5c0,0.7,0.1,1.4,0.3,2.1c0.1,0.4,0.3,0.8,0.4,1.1
			c0,0.6,0,1.2,0,1.9l0.2,0.1c0,0,0,0,0,0c-0.1,0.1-0.2,0.2-0.2,0.3c0,0,0,0-0.1,0c-0.3,0.2-0.1,0.2-0.3,0.5l5.9-0.1l12.6,1
			c0.2-0.3,0.9-0.1,0.9-0.4c0-0.1,0-0.1,0-0.2c0.1-0.4-0.1-0.8-0.4-1.1c-0.2-0.2-0.4-0.3-0.6-0.4c-0.9-0.4-1.8-0.7-2.8-1.1
			c-0.5-0.2-0.9-0.4-1.4-0.5c0.2,0,0.3,0,0.5,0.1c0.7,0.1,1.4-0.4,1.6-1c0.1-0.3,0.1-0.5,0-0.8c-0.1-0.3-0.2-0.5-0.4-0.7
			c-0.4-0.5-0.9-0.7-1.4-1c-0.1-0.1-0.2-0.1-0.3-0.2c0.1-0.1,0.2-0.2,0.3-0.3c0.1-0.1,0.2-0.4,0.3-0.5c0.2-0.5,0.2-1-0.1-1.5
			c-0.2-0.3-0.4-0.5-0.6-0.7c0,0-0.1-0.1-0.1-0.1c0.1,0,0.2,0.1,0.3,0.1c0.4,0.1,0.7,0.1,1.1,0.2c0.6,0.1,1.2-0.4,1.4-0.9
			c0.1-0.2,0.1-0.5,0-0.7c-0.1-0.2-0.2-0.4-0.3-0.6c-0.2-0.3-0.4-0.6-0.7-0.8c0,0-0.1-0.1-0.1-0.1c0.1,0,0.2,0,0.3,0
			c0.1,0,0.2,0,0.3,0c0.3-0.1,0.6-0.3,0.8-0.5c0.1-0.2,0.3-0.4,0.3-0.6c0.1-0.3,0.1-0.5,0-0.8c-0.1-0.4-0.3-0.7-0.6-1
			c-0.2-0.2-0.4-0.4-0.7-0.7c-0.3-0.3-0.5-0.6-0.8-0.9c0.1,0,0.2,0.1,0.4,0.1c0.4,0.1,0.9-0.1,1.2-0.4c0.2-0.2,0.4-0.5,0.4-0.8
			c0-0.3-0.1-0.6-0.3-0.9c-1.5-1.9-2.8-3.9-4.3-5.8c0.4,0.3,0.8,0.5,1.2,0.7c0.8,0.5,2.1,0.2,2.4-0.8c0.1-0.3,0.2-0.6,0.2-0.8
			c0-0.2,0-0.3,0-0.5c0-0.2-0.1-0.3-0.2-0.5c-0.1-0.4-0.4-0.7-0.7-1c-0.7-1-1.3-2-1.9-3.1c0.1,0,0.1,0,0.2-0.1
			c0.1,0,0.1-0.1,0.2-0.1c0.2-0.1,0.4-0.3,0.6-0.5c0.1-0.1,0.1-0.2,0.2-0.3c0.1-0.4,0.1-0.8-0.1-1.1c-0.2-0.4-0.4-0.7-0.6-1.1
			c-0.2-0.3-0.3-0.5-0.5-0.8c-0.1-0.2-0.3-0.5-0.4-0.7c-0.2-0.3-0.4-0.6-0.6-1c0.2,0.1,0.4,0.1,0.6,0.1c0.5,0.1,1-0.2,1.3-0.6
			c0.3-0.4,0.3-1,0.1-1.4c-0.3-0.4-0.5-0.9-0.8-1.3c0,0,0,0,0,0c0.2,0,0.4-0.1,0.6-0.2c0.2-0.1,0.4-0.3,0.6-0.5
			c0.2-0.2,0.2-0.5,0.3-0.8c0.1-0.5,0-0.9-0.3-1.3c-0.1-0.2-0.3-0.4-0.5-0.6c-0.2-0.3-0.4-0.7-0.7-1c-0.2-0.3-0.4-0.6-0.6-0.9
			c0.5,0,1-0.3,1.3-0.7c0.2-0.4,0.3-0.8,0.2-1.2c-0.1-0.3-0.2-0.5-0.4-0.7c-0.2-0.3-0.4-0.6-0.6-0.9c-0.1-0.1-0.1-0.2-0.2-0.3
			c0.1-0.1,0.2-0.2,0.3-0.3c0.1-0.1,0.2-0.2,0.3-0.4c0,0.1,0.1,0.1,0.1,0.2c0.2,0.3,0.4,0.5,0.6,0.7c0.6,0.7,1.2,1.3,1.8,2
			c0.6,0.6,1.2,1.3,1.8,1.9c0.4,0.4,0.7,0.7,1.1,1.1c0.3,0.3,0.6,0.5,0.9,0.8c0.2,0.1,0.3,0.3,0.5,0.4c0.1,0,0.2,0.1,0.2,0.1
			c0.2,0.1,0.1,0,0.3,0.1c0,0,0,0,0,0c0,0-0.1,0-0.1,0c0,0-0.1-0.1-0.1-0.1c-0.3-0.2-0.5-0.5-0.6-0.8c0,0,0,0,0,0c0,0,0,0,0,0
			c0,0,0,0,0,0c0,0,0,0,0,0c-0.5-0.7-1-1.4-1.4-2.1c-0.5-0.7-1-1.4-1.5-2.1c-0.7-1-1.4-2-2.1-2.9c-0.8-1.2-1.6-2.3-2.4-3.5
			c-0.4-0.5-0.7-1-1.1-1.6c0,0,0,0,0,0c-0.4-0.6-0.8-1.2-1.1-1.7c3.3,3.8,6.9,7.3,7.9,7.7c6.1,2.7,1.1-2.5-1.3-5.1
			c5.3,1.7,0.8-4.3-0.4-5.3c-3.1-2.8-6.5-4.8-9.7-7.4c-0.6-1.8-1.1-3.8-2.2-4.6c-0.7-0.5-1.3-0.6-1.7-0.5c0-0.3,0-0.5,0-0.8
			c0,0.3,0,0.5-0.1,0.8C82.1,216.1,82.1,217.5,82.3,218.9z M92.8,254.5C92.8,254.5,92.8,254.5,92.8,254.5
			C92.8,254.5,92.8,254.5,92.8,254.5C92.8,254.5,92.8,254.5,92.8,254.5z M89.3,287.2c0-0.1,0.1-0.1,0.1-0.2c0-0.1,0.1-0.3,0.1-0.4
			c0.6,0.2,1.2,0.5,1.8,0.7C90.5,287.3,89.9,287.2,89.3,287.2z M88.5,269.1C88.5,269.1,88.5,269,88.5,269.1c0-0.4,0.1-0.8,0.1-1.2
			c0.8,0.8,1.6,1.7,2.4,2.5c0.1,0.1,0.3,0.3,0.4,0.4c-0.2-0.1-0.3-0.2-0.5-0.3c-0.5-0.3-0.9-0.6-1.4-0.9
			C89.1,269.4,88.8,269.2,88.5,269.1z M88.8,262.6c0.1,0.1,0.2,0.2,0.3,0.3c0.4,0.5,0.8,1,1.1,1.5c-0.5-0.4-0.9-0.7-1.4-1.1
			C88.8,263.1,88.8,262.9,88.8,262.6z M87.6,277.1c0,0,0-0.1,0-0.1c0.1,0.1,0.2,0.2,0.2,0.2C87.8,277.2,87.7,277.1,87.6,277.1z
			 M88.6,256.5c0.1,0.1,0.1,0.2,0.2,0.3c0.1,0.1,0.2,0.3,0.3,0.4c-0.1-0.1-0.3-0.2-0.4-0.3c0,0,0,0-0.1-0.1
			C88.6,256.7,88.6,256.6,88.6,256.5z M82.7,284.2c0.1-0.5,0.3-1,0.4-1.5c0.1,0.2,0.2,0.3,0.3,0.4c0,0.3,0.1,0.6,0.1,0.9
			c0-0.1,0-0.1,0-0.2c0,0.1,0,0.2,0,0.3c0,0,0,0.1,0,0.1c0,0,0,0,0,0c-0.3,0.1-0.5,0.3-0.6,0.5C82.8,284.6,82.8,284.4,82.7,284.2z"
			/>
		<path class="st1" d="M89.5,211.1c0.2-0.1,0.3-0.2,0.5-0.3C89.9,210.9,89.7,211.1,89.5,211.1z"/>
	</g>
	<path class="st1" d="M107.2,127.5c7.8,2.6,15.2,6.9,21.6,11.8c8.9,6.7,18.2,10.9,28.2,15.8c-1.4-1-7.9-0.7-9.8-1
		c-3.3-0.6-6.4-1.4-9.3-2.8c-4.5-2.2-7.7-5.6-11.4-9C121.3,137.6,113.9,129.7,107.2,127.5L107.2,127.5z"/>
	<path class="st1" d="M81,131.1c7.3,2.4,14.5,2.1,21.8,4.8c9,3.3,15,9,21.5,15.7c-3.6-6.1-19.3-10.8-25.4-13.1
		C92.9,136.3,86.8,133.1,81,131.1L81,131.1z"/>
	<path class="st1" d="M181.6,72.6c-4.5,8.9-4.4,19.3-10,27.7c-5.5,8.2-16.2,16.7-16.8,27.6c0.8-5.6-0.2-12,2.2-17.3
		c2.2-5,6.2-8.8,9-13.5c2.7-4.4,3.6-9.5,5.9-14C174.2,78.7,179.5,76.4,181.6,72.6L181.6,72.6z"/>
	<path class="st1" d="M153.5,20.9c-7.3,13-2,27-6.2,40c-4.6,14.1-12.1,24.5-13,40.1c0.7-7.5,1.3-15.2,3.6-22.4
		c1.8-5.6,5-10.6,6.9-16.1c2.2-6.6,0.4-12.6,0.7-19.4C145.8,34,150.4,28.7,153.5,20.9L153.5,20.9z"/>
	<path class="st1" d="M119.5,6.8c-5.4,9.3-5.1,26.7-5.3,37.4c0.4-6.5-3.1-13.1-2.2-20C112.8,16.7,116.1,12.7,119.5,6.8L119.5,6.8z"
		/>
	<path class="st1" d="M114.2,45.8c-0.6,10-4.7,19.8-5,30.2c-0.3,9.6,3.8,21.8,0.9,31c2.6-6,2.4-11.9,2-18
		C110.9,74.5,113.8,60.1,114.2,45.8L114.2,45.8z M110.7,98.9C110.7,99,110.7,99,110.7,98.9L110.7,98.9z M110.7,99
		C110.7,99.1,110.7,99.1,110.7,99L110.7,99z"/>
	<path class="st1" d="M88.4,18.3c-4.3,6.4-5,18.2-6,25.9c-0.6,4.1-0.6,8.2-1.3,12.3c-0.6,3.1-2.7,7.9-2.1,10.9
		c0.3-9.9-0.7-20,0.9-29.9C81.2,29.2,84.6,24.9,88.4,18.3L88.4,18.3z"/>
	<path class="st1" d="M80.1,58.9C79.6,68,77.1,76.7,77.8,86c0-0.1,0-0.2,0-0.3c0,1,0.1,1,0.2,2.2c0.6,7.4,3.2,17.4,4,25.8
		c-0.9-4.9,0.9-11.2,0.2-16.4c-0.5-3.6-1.6-7-2-10.6C79,77.8,79.5,68,80.1,58.9L80.1,58.9z M77.8,85.9
		C77.8,85.9,77.8,85.9,77.8,85.9C77.8,85.9,77.8,85.9,77.8,85.9L77.8,85.9z M77.8,85.9C77.8,86,77.8,86,77.8,85.9L77.8,85.9z
		 M77.8,86C77.8,86.1,77.8,86.1,77.8,86L77.8,86z M77.8,85.7C77.8,85.7,77.8,85.7,77.8,85.7L77.8,85.7z"/>
	<path class="st1" d="M92.4,103.6c-2.8,3.2-7.5,6.4-11.7,3.4C81.9,107.7,91.8,104.7,92.4,103.6L92.4,103.6z"/>
	<path class="st1" d="M114.7,104.7c1.2,0.5,2.5,2.1,3.8,2.1c-3.5,0.6-4.5-2.9-7.1-3C112.5,104.1,113.6,104.4,114.7,104.7
		L114.7,104.7z"/>
	<path class="st1" d="M117.5,101c1.6,0.2,3.2,0.6,4.7,1.4c-2-0.8-7.9-0.9-10.1-1C113.8,101,115.8,100.8,117.5,101L117.5,101z"/>
	<path class="st1" d="M134.3,108.9c3.3,0.8,6.4,2.6,9.8,3.4c-3-1.2-6.5-0.9-9.7-2.7c0.4,0.4,1.6,1.1,2,1.3
		C136.4,110.8,132.1,108.4,134.3,108.9L134.3,108.9z"/>
	<path class="st1" d="M132.1,111.8c3.7,2,7.8,5,11.7,6.5C138.6,117.5,136.2,114.2,132.1,111.8L132.1,111.8z"/>
	<path class="st1" d="M139.5,83.4c2.4,2.3,12.2,6.8,15.6,7C148.2,90.5,144.5,87,139.5,83.4L139.5,83.4z"/>
	<path class="st1" d="M146.8,81.4c-0.9-0.1-1.8,0-2.7,0.1c1.4-0.4,8.9,3,10.8,3.4C152.5,84.8,149.7,81.6,146.8,81.4L146.8,81.4z
		 M152.7,84.5C152.8,84.5,152.8,84.5,152.7,84.5L152.7,84.5z"/>
	<path class="st1" d="M130.5,75c-5.6,4.1-12.5,2.9-18-0.5C114.1,75.7,129,75.9,130.5,75L130.5,75z"/>
	<path class="st1" d="M122.8,68.5c1.4-0.4,2.1-0.2,2.1,0.5c-2.3,0.2-3.1,0.3-2.3,0.2c-2.1,0.2-4.1,0-6.1-0.4
		C117.6,69.2,121.1,68.2,122.8,68.5L122.8,68.5z"/>
	<path class="st1" d="M131.9,40.7c-4.2,3.9-9.9,3.2-14.6,0.9C119.5,42.4,130.2,42.2,131.9,40.7L131.9,40.7z"/>
	<path class="st1" d="M94.7,50.1c-3,2.7-9.7,1.2-13.2,1.4C85.4,49.8,90.5,56.6,94.7,50.1L94.7,50.1z M92.7,50.9
		C92.6,50.9,92.6,50.9,92.7,50.9L92.7,50.9z"/>
	<path class="st1" d="M86,82.1C85.5,83,85,83,84.6,82C85.1,81.1,85.6,81.1,86,82.1L86,82.1z"/>
	<path class="st1" d="M93.4,76.2c0.3,0,3.6,1.1,4.1,1c-3.1,0.5-6.2,1.3-9.3,1.1c-1.3-0.1-5.2-1.5-6-1.3
		C85.9,76.1,89.7,75.7,93.4,76.2L93.4,76.2z"/>
	<path class="st1" d="M169.2,114.9c0.5,0.2,9.5,2.5,9.3,2.8C173.9,122.4,172.1,116.5,169.2,114.9L169.2,114.9z"/>
	<path class="st1" d="M170.7,140.6c-2,16.6-4.1,31.3-9.2,47.4c2.8-11.5,3.7-23.7,5.9-35.1c0-0.1,0-0.2,0.1-0.3
		C168.2,149,170.5,144.2,170.7,140.6L170.7,140.6z"/>
	<path class="st1" d="M168.2,147.4c1.3,2.3-4.3,19.5-5.4,24.1c-1.6,6.6-4.7,11.7-7.9,17.7c-3.9,7.3-3.2,12.9-5.5,20
		c2.9-10.5,11.6-18.7,15.3-28.9c2-5.4,2.6-11.6,3.1-17.3C168,159.4,169.9,150.6,168.2,147.4L168.2,147.4z M168.1,147.7
		C168.1,147.7,168.1,147.7,168.1,147.7L168.1,147.7z"/>
	<path class="st1" d="M166.1,167.2c-0.8,2.5-3.8,5.5-5.3,7.9c-4,6.2-7.6,12.7-10.9,19.3c-3.8,7.6-6,17.2-4.8,26.8
		c-1.4-4.9,6.3-18.7,8.3-23.3C157.6,187.5,162.6,177.9,166.1,167.2L166.1,167.2z M150,194.1C150.1,193.7,150.1,193.7,150,194.1
		L150,194.1z"/>
	<path class="st0" d="M84.9,78.5c1.6,0.2,3.1,0.5,4.6,0.9c-2.8-1.1-7.5,0.2-10.8-1C79.3,78.6,83.5,78.3,84.9,78.5L84.9,78.5z"/>
	<path class="st0" d="M118.9,75.8c-2.5-0.3-5.1-0.2-7.7-0.4c4.7,0.3,10.5,4.6,15.3,0.9C125.2,77.4,120.3,75.9,118.9,75.8L118.9,75.8
		z M125.6,76.5C125.5,76.5,125.5,76.5,125.6,76.5L125.6,76.5z"/>
	<path class="st0" d="M123.8,69.1c-3.1-0.2-6.4,0.3-9.6,0.1C117.4,69,120.6,68.8,123.8,69.1L123.8,69.1z"/>
	<path class="st0" d="M147,81.4c1.7,0.2,3.3,0.6,4.8,1.2c-1-0.4-10.1-1-10.9-0.8C142.8,81.4,145,81.1,147,81.4L147,81.4z"/>
	<path class="st0" d="M141.9,84.3c4,0.6,7.9,1.2,11.8,2.2C150,85.3,145.8,85.5,141.9,84.3L141.9,84.3z"/>
	<path class="st0" d="M136.6,85c6.3,1.3,12.7,3.7,19.1,2.9C147.1,90.2,144.3,87.1,136.6,85L136.6,85z"/>
	<path class="st0" d="M166.2,110.3c2.7,0.5,4.9,2,6.7,4c-1.8-2-7.5-2.8-9.8-4.4C163,109.8,186.3,114.2,166.2,110.3L166.2,110.3z"/>
	<path class="st0" d="M106.2,126.7c6.5,3.3,12.8,8.7,19.4,12.9c4.4,2.8,9.2,5,13.9,7.2c6.2,2.9,12.7,7.8,19.1,9.8
		c-11.7-4.7-23.9-8.8-34.3-16.1C118.8,136.6,110.9,129.1,106.2,126.7L106.2,126.7z"/>
	<g>
		<path class="st0" d="M128.1,114.8c0,0,0,0.1,0,0.1C128,115,128,114.9,128.1,114.8z"/>
		<path class="st0" d="M2.1,126.2c3.3,6.2,8.7,7.3,14,11.4c4.9,3.7,5.9,7.4,9.7,12.2c3.5,5.2,6.7,10.7,9.5,15.3
			c1.2,3.4,2.2,7,3.9,10.8c3.8,8.5,14.7,14.3,20.7,21.4c3.2,3.7,6.2,8.1,9.7,11.5c2,2,6.7,3.7,8,5.6c1.4,2,2,10.1,2,12.6
			c0.1,19.8-3.4,39.8-5.9,59.5l-0.2,1.4c28.3,1.6,53,3,81.2,4.6c-0.8-5.8-4.5-14.2-4.2-19c-1.3-4.7-0.7-12.3-1-17.3
			c-0.6-11-0.8-22.2-0.4-33.2c0.6-14.6,8.7-28.7,15.4-41.6c-0.7,0.8-1.1,1.5-1.7,2.2c7.4-15.3,8.5-33.7,12-50.2
			c2.8-13.2,9.1-24.5,14.6-36.6c4-8.9,10.4-19.1,2.5-27.7c0.3,0.5,0.5,1.1,0.8,1.6c-16-12.8-20,14.8-25.2,23.5
			c-6.2,10.5-12.1,15.9-14.7,28.6c-1.7-1.6-2.4-1.6-1.6-4.1c0,0.5-0.1,0.9-0.1,1.4c2.8-17.9,8.9-34.7,12.2-52.3
			c1.4-7.7,2.9-15.4,4.3-23.1c1.2-6.4,3.4-13.3,0.3-19.6c0,0.1,0,0.3,0,0.4c-2.4-7.8-10.6-10.6-17.2-5.5c-5,3.9-5.9,11.1-6.6,16.9
			c-2.3,19-9.3,36.1-12.8,54.8c3.1-17.7,4-35.6,4.7-53.6C136.6,27.6,141.5,2.2,125,1c-20.5-1.2-15.1,43.8-16.6,56
			c-1.9,15.1,1.4,31.3-1.5,46.1c-10.1-2.2-5.6-32-4.5-39.7c1.5-10.8,2.6-21.2,1-32.1c-1.1-7.7-5-16.5-13.8-16.6
			c0.5-0.1,1-0.1,1.4-0.1c-6.5-0.8-11,8.6-12.6,14.3c-3.2,11.9-2.5,26.5-3.1,38.9c-0.4,8.6,0.1,17.2,1.1,25.7
			c1.3,11.3,1.7,23.4-0.5,34.5c-1.2,6.2-2.1,8.8-6.9,12.6c-3.8,2.9-5.8,7.3-9.4,10.1c0.3-0.1-0.7,0.3-1.7-0.5
			c-3.3-2.5-8.1-11-8.7-11.7c-4.3-5-6.6-8-11.3-12.5c-7.7-7.3-15.8-12.9-27.2-11.8C3.9,114.8-1.4,119.6,2.1,126.2z M71.8,141.7
			c-0.5,1-0.8,2-1.8,2.6C70.6,143.4,71.2,142.5,71.8,141.7z M88.2,15.9c-0.7,0.3-1.3,0.9-2,1.4C87.1,16.6,87,15.9,88.2,15.9z
			 M97.1,19.8c-0.4-0.5-0.9-1-1.3-1.5C96.4,18.7,96.7,19.3,97.1,19.8z M133.3,41.4c-2.8,1.2-18.3,3.4-21.2,0.8
			c-1.8-1.6,1.3-18.5,1.6-20.4c0.4-3.4,0.6-7.2,1.7-10.5c3.2-10.1,14.7-10.6,18.1-0.8C136.5,19.1,134.6,31.8,133.3,41.4z
			 M130.9,95.8c-0.5,4.4-0.4,8.8-1.3,13.1C125.9,106.8,130.2,98.9,130.9,95.8z M3.3,121.5c1.1-4.3,6.5-5.4,10.3-5.4
			c11.1,0,20.2,7.6,27.7,14.7c-1.1,2.3-3.4,7.2-4.6,10.3c2.7-2.3,4.8-5.5,4.8-9.1c6.7,6.7,9.2,12.7,15.6,19.5
			c-0.2,0-0.4,0.1-0.6,0.1c1.4,0.6,2.4,0.5,1.7,1.7c1.6-0.6,3.2,0.3,4.8-0.6c-0.4-0.2-0.9-0.3-1.3-0.5c5.8-2.1,14.2-9.2,18.2-13.8
			c-2.8,1.5-5.3,3.4-8.1,4.9c1.2-1.6,2.9-3,4-4.5c0.9-1.3,2-5.4,3-6.3c2-1.7,5.7-0.3,8.4,0.4c5.7,1.4,11.6,3.1,16.9,5.8
			c13.2,6.8,22.4,18.2,32.4,28.9c-8.3-10.2-16.4-20.5-27.8-27.5c-7.8-4.8-20.6-10.4-29.7-8.3c1.3-14.3,0.6-28.8-0.8-43
			C77,76.4,78.4,64.2,79,51.8c0,0.3,0.1,0.7,0.1,1c0-0.9,0.1-1.8,0.1-2.7c5.4,3.3,11.8,2.8,17.4,1.3c-3.6-0.4-17.3,0-17.3-3.3
			c-0.2-5.7,1.5-35,13.8-30.6c9.6,3.5,7.8,27.7,6.9,36c0-0.8,0-1.6,0-2.5c-1.2,8.1-2.2,16.3-2.3,24.5c-5.3-0.8-10.2,0-15.4,1.2
			c2.5,0.3,3.4,0.4,2.5,0.4c4.2,0.3,8.7-0.5,12.9-1.1c-0.6,12.8,1.8,22.5,7.3,33.7c-0.5-2.1-0.9-4.2-1.3-6.3c0.8,0.3,2.2,0.2,3,0.5
			c-0.6,2.2-1.1,4.4-1.6,6.7c6-10.1,5.1-20.8,5.8-32.3c0.7-12.1,1-24.1,1.3-36.1c5.4,3.8,16.6,2,21.2-0.8c-0.2,1.3-0.3,2.5-0.4,3.6
			c-1.2,11.1-0.4,22.4-2.6,33.4c-0.9,4.4-6.7,34.7-3.4,34.9c0,0,0.5-3.5,0.5-3.6c0.4,0.4,0.3,0.5,0.6,0.9c0,0,0.8,1.8,0.1,4.2
			c0.3-0.7,2-3.7,2.7-4.1c-0.2-2,4.9-25.4,5.8-28.2c3.5-10.6,8.4-20.6,9.6-31.9c4,1.1,7.9,2.4,12.2,2.2c-3.7-1.2-8.2-2.5-12.2-2.5
			c0.7-8.7-0.2-21.3,6.3-28.2c5.3-5.7,11.6-2.6,12.8,4.4c1.6,9.7,0,19.8-2.3,29.1c-3,12.6-5.9,25.2-8.6,37.8
			c-2.6,11.7-6.2,20.9-3.9,33.2c0.1-0.9,0.2-1.8,0.2-2.6c1.9,2.2,1.3,2.6,0.5,5.5c0.4-0.9,0.9-1.9,1.3-2.8c-0.3,0.9-0.5,1.8-0.8,2.6
			c0.8-0.9,1.5-2,2.1-3.1c1.8,0.7,3.9,6,6,7.6c1.9,1.5,4.5,2.7,6.9,3.4c-4-3.2-7.4-7.1-11.1-10.6c0.2,0,0.4,0,0.6,0
			c-3-2.1,4.9-19.2,7.1-22.2c6.1-8.4,10-15.5,14.3-25.1c2-4.3,2.9-9,8.5-8.9c3.2,0,5.7,1.8,6.8,4.9c2.6,7.3-5.9,20.3-8.5,26.9
			c-1.1-0.5-11.9-6.1-12.1-5.2c0,0.3,0.2,0.1,0.2,0.1c4.1,0.8,7,5.2,11.7,5.6c-2.3,5.7-6.2,10.7-8.5,16.5
			c-2.6,6.7-2.6,13.7-4.5,20.6c-5.4,20.1-7,40-18.1,58.2c-3.2,5.3-4.9,9-7,14.7c-1.8,4.8-1.9,5.5-8.1,5.4
			c-7.2-0.2-14.2-1.5-21.5-1.6c8.5,1.8,20.4,6.6,28.6,1.8c-3,24.6,0.7,47.4,6,71.2l-72.9-4.8c3.7-22.6,5.1-43.1,3.5-66
			c0.3,0,0.5,0,0.7,0c0,0,0.1,0.1,0.1,0.2c0-0.1,4.8,3.4,5.4,3.9c5.9,4.3,12.6,8.9,20.3,8.4c-8.1-1.3-14.7-6.5-21.8-10.4
			c3.5,1.5,7.5,2.2,11.3,2.1c-1.8-0.6-9.4-3.3-13.7-5.4c0.3-0.6,0.3-1.4,0-2.2c5,0.5,10.1,0.7,15,0.1c-9-1.5-20.9-3.3-27.4-9.7
			c-1.7-1.7-3.5-3.3-5.2-4.9c-2.1-3.1-4.3-6.2-7.1-8.8c-3.9-3.7-7.3-6.1-11.9-8.7c-4.1-4.5-6.2-9.4-8-15.7c-1.7-5.9-5-9.9-8.6-14.1
			c-1-2.4-0.1-2.6-1.5-4.6c-3.4-4.7-7.6-10.8-13.4-13.4l-0.4-0.2c-1-0.4,0.1-0.8-0.9-1.1C9.3,130.5,2.1,126.4,3.3,121.5z
			 M127.8,108.6C127.6,108.4,127.6,108.4,127.8,108.6L127.8,108.6z"/>
		<path class="st0" d="M131.1,110.8c0,0,0,0.1,0,0.2c0.1,0.2-0.3-0.1-0.2,0c0,0,0-0.1,0-0.1C130.9,110.7,131,110.7,131.1,110.8z"/>
		<path class="st0" d="M150,123.3C149.6,122.5,149.9,122.4,150,123.3L150,123.3z"/>
	</g>
	<g>
		<path class="st3" d="M2.1,126.2c3.3,6.2,8.7,7.3,14,11.4c4.9,3.7,5.9,7.4,9.7,12.2c3.5,5.2,6.7,10.7,9.5,15.3
			c1.2,3.4,2.2,7,3.9,10.8c3.8,8.5,14.7,14.3,20.7,21.4c3.2,3.7,6.2,8.1,9.7,11.5c2,2,6.7,3.7,8,5.6c1.4,2,2,10.1,2,12.6
			c0.1,19.8-3.4,39.8-5.9,59.5l-0.2,1.4c28.3,1.6,53,3,81.2,4.6c-0.8-5.8-4.5-14.2-4.2-19c-1.3-4.7-0.7-12.3-1-17.3
			c-0.6-11-0.8-22.2-0.4-33.2c0.6-14.6,8.7-28.7,15.4-41.6c-0.7,0.8-1.1,1.5-1.7,2.2c7.4-15.3,8.5-33.7,12-50.2
			c2.8-13.2,9.1-24.5,14.6-36.6c4-8.9,10.4-19.1,2.5-27.7c0.3,0.5,0.5,1.1,0.8,1.6c-16-12.8-20,14.8-25.2,23.5
			c-6.2,10.5-12.1,15.9-14.7,28.6c-1.7-1.6-2.4-1.6-1.6-4.1c0,0.5-0.1,0.9-0.1,1.4c2.8-17.9,8.9-34.7,12.2-52.3
			c1.4-7.7,2.9-15.4,4.3-23.1c1.2-6.4,3.4-13.3,0.3-19.6c0,0.1,0,0.3,0,0.4c-2.4-7.8-10.6-10.6-17.2-5.5c-5,3.9-5.9,11.1-6.6,16.9
			c-2.3,19-9.3,36.1-12.8,54.8c3.1-17.7,4-35.6,4.7-53.6C136.6,27.6,141.5,2.2,125,1c-20.5-1.2-15.1,43.8-16.6,56
			c-1.9,15.1,1.4,31.3-1.5,46.1c-10.1-2.2-5.6-32-4.5-39.7c1.5-10.8,2.6-21.2,1-32.1c-1.1-7.7-5-16.5-13.8-16.6
			c0.5-0.1,1-0.1,1.4-0.1c-6.5-0.8-11,8.6-12.6,14.3c-3.2,11.9-2.5,26.5-3.1,38.9c-0.4,8.6,0.1,17.2,1.1,25.7
			c1.3,11.3,1.7,23.4-0.5,34.5c-1.2,6.2-2.1,8.8-6.9,12.6c-3.8,2.9-5.8,7.3-9.4,10.1c0.3-0.1-0.7,0.3-1.7-0.5
			c-3.3-2.5-8.1-11-8.7-11.7c-4.3-5-6.6-8-11.3-12.5c-7.7-7.3-15.8-12.9-27.2-11.8C3.9,114.8-1.4,119.6,2.1,126.2z M130.9,95.8
			c-0.5,4.4-0.4,8.8-1.3,13.1C125.9,106.8,130.2,98.9,130.9,95.8z"/>
	</g>
</g>
</svg>
