<?xml version="1.0" encoding="utf-8"?>
<!-- Generator: Adobe Illustrator 23.0.3, SVG Export Plug-In . SVG Version: 6.00 Build 0)  -->
<svg version="1.1" id="hand" xmlns="http://www.w3.org/2000/svg" xmlns:xlink="http://www.w3.org/1999/xlink" x="0px" y="0px"
	 viewBox="0 0 197 276" style="enable-background:new 0 0 197 276;" xml:space="preserve">
<style type="text/css">
	.st0{fill:#FFF1D3;stroke:#000000;stroke-width:9;stroke-miterlimit:10;}
	.st1{fill:#FFFFFF;}
	.st2{fill:#FFF1D3;}
</style>
<polyline class="st0" points="156.5,276 148.5,207.5 79.2,207.5 76.2,276 "/>
<g id="IdHnhL.tif">
	<g>
		<path class="st1" d="M59.1,121.7c-0.3,0.2-0.6,0.4-0.9,0.6c-0.6-0.8-1.1-1.7-1.8-2.4c-7-7-13.7-14.1-21-20.8
			C23.9,88.4,5.5,93.9,2,109c-1.7,7.5,0.3,14.2,5.9,19.5c17.9,16.9,32.6,36.1,43,58.6c7.5,16.3,19.9,28,36.1,35.5
			c30.6,14.2,65.6,6,85.7-19.9c7.5-9.7,11.7-21.1,15.4-32.6c6-18.5,8.1-37.5,7.8-56.9c-0.2-15.8,0-31.6,0-47.4
			c-0.1-17.1-15.8-26.5-30.8-18.4c-0.3,0.2-0.8,0.2-1.4,0.4c0-5.6,0.1-10.9,0-16.2c-0.3-9.9-8.1-18.2-18-19.2
			c-5.4-0.5-10.1,1-14.6,4c-3.5-9.2-9.7-14.8-19.7-14.8c-10.1,0-16.3,5.6-19.7,14.7C76.1,5.7,58.3,17.6,58.9,35.1
			c0.8,28,0.2,56,0.2,84C59.1,119.9,59.1,120.8,59.1,121.7z"/>
		<path d="M59.1,121.7c0-0.9,0-1.8,0-2.6c0-28,0.6-56-0.2-84C58.3,17.6,76.1,5.7,91.7,16.4c3.4-9.1,9.7-14.8,19.7-14.7
			c10,0,16.2,5.6,19.7,14.8c4.5-3,9.3-4.5,14.6-4c9.8,1,17.7,9.3,18,19.2c0.1,5.3,0,10.6,0,16.2c0.6-0.2,1-0.2,1.4-0.4
			c15-8,30.8,1.3,30.8,18.4c0.1,15.8-0.2,31.6,0,47.4c0.3,19.4-1.8,38.4-7.8,56.9c-3.7,11.5-7.9,22.9-15.4,32.6
			c-20.1,25.9-55,34.1-85.7,19.9c-16.2-7.5-28.6-19.3-36.1-35.5c-10.4-22.5-25.1-41.7-43-58.6c-5.6-5.3-7.7-12-5.9-19.5
			c3.5-15.1,21.9-20.6,33.4-9.9c7.2,6.7,14,13.8,21,20.8c0.7,0.7,1.2,1.6,1.8,2.4C58.5,122.1,58.8,121.9,59.1,121.7z M67.3,141.7
			c-0.2,0.1-0.4,0.2-0.7,0.2c-3.9-4-7.9-8-11.8-11.9c-8.1-8.1-16.2-16.3-24.3-24.3c-4-3.9-9.2-4.9-14-2.7c-4.5,2.1-7.2,6.7-6.8,11.9
			c0.3,3.4,2.1,6.1,4.5,8.4c18.2,17.1,33.1,36.7,43.6,59.5c7,15.1,18.3,26,33.5,32.9c30.4,13.7,65.5,2.2,80.4-26.6
			c8.9-17.3,14.3-35.8,15.2-55.2c1-23.2,0.6-46.4,0.7-69.6c0-5.1-3.6-9.6-8.6-10.9c-7.8-2.2-15.2,3.5-15.2,11.8
			c-0.1,21,0,41.9,0,62.9c0,3.1-1.1,4.7-3.3,5.1c-2.9,0.5-4.8-1.4-4.8-5c0-18.4,0-36.9,0-55.3c0-13.2,0.1-26.4,0-39.6
			c0-8.9-8.1-14.8-16.1-11.9c-4.9,1.8-7.8,6.1-7.8,11.8c0,28.2,0,56.4,0,84.6c0,1,0.1,2-0.1,3c-0.5,2.2-1.9,3.6-4.2,3.5
			c-2.3-0.1-3.7-1.4-3.9-3.7c-0.1-1.3-0.1-2.5-0.1-3.8c0-27.7,0-55.5,0-83.2c0-4.4,0.1-8.9-0.2-13.3c-0.5-5.5-5.2-9.8-10.6-10.3
			c-5.8-0.5-11.2,3.1-12.5,8.6c-0.5,2.1-0.5,4.3-0.5,6.5c0,31.1,0,62.1,0,93.2c0,0.9,0,1.8-0.2,2.7c-0.4,2-1.8,3.2-3.8,3.3
			c-2,0.1-3.5-1-4.1-2.9c-0.3-1-0.3-2.1-0.3-3.2c0-15.3,0-30.5,0-45.8c0-13.3,0.1-26.6,0-39.8c0-5.8-4.4-10.8-9.8-11.7
			C75.4,19.8,69.8,23,68,28.6c-0.6,1.9-0.7,4.1-0.7,6.1c0,31.4,0,62.9,0,94.3C67.3,133.2,67.3,137.4,67.3,141.7z"/>
		<path class="st2" d="M67.3,141.7c0-4.2,0-8.4,0-12.6c0-31.4,0-62.9,0-94.3c0-2.1,0.1-4.2,0.7-6.1c1.7-5.5,7.4-8.8,13.3-7.9
			c5.4,0.8,9.8,5.8,9.8,11.7c0.1,13.3,0,26.6,0,39.8c0,15.3,0,30.5,0,45.8c0,1.1,0,2.2,0.3,3.2c0.6,1.9,2,3,4.1,2.9
			c2-0.1,3.4-1.2,3.8-3.3c0.2-0.9,0.2-1.8,0.2-2.7c0-31.1,0-62.1,0-93.2c0-2.2,0-4.4,0.5-6.5c1.4-5.5,6.8-9.1,12.5-8.6
			c5.4,0.4,10.1,4.8,10.6,10.3c0.4,4.4,0.2,8.8,0.2,13.3c0,27.7,0,55.5,0,83.2c0,1.3,0,2.5,0.1,3.8c0.2,2.3,1.7,3.7,3.9,3.7
			c2.3,0.1,3.7-1.3,4.2-3.5c0.2-1,0.1-2,0.1-3c0-28.2,0-56.4,0-84.6c0-5.7,2.9-10,7.8-11.8c8-2.9,16,2.9,16.1,11.9
			c0.1,13.2,0,26.4,0,39.6c0,18.4,0,36.9,0,55.3c0,3.5,1.9,5.4,4.8,5c2.3-0.4,3.3-2,3.3-5.1c0-21,0-41.9,0-62.9
			c0-8.4,7.4-14,15.2-11.8c4.9,1.4,8.6,5.8,8.6,10.9c-0.1,23.2,0.3,46.4-0.7,69.6c-0.8,19.4-6.3,37.9-15.2,55.2
			c-14.8,28.8-50,40.3-80.4,26.6c-15.2-6.8-26.5-17.7-33.5-32.9c-10.5-22.8-25.4-42.3-43.6-59.5c-2.4-2.3-4.2-4.9-4.5-8.4
			c-0.4-5.2,2.2-9.8,6.8-11.9c4.7-2.2,10-1.2,14,2.7c8.2,8.1,16.2,16.2,24.3,24.3c4,4,7.9,8,11.8,11.9
			C66.8,141.8,67,141.7,67.3,141.7z M80.9,141c0.4,0,0,0-0.3,0c-3.5-0.1-5.3,1.2-5.4,3.9c-0.1,2.7,1.8,4.1,5.3,4.3
			c17.8,1,30.7,9.6,38.7,25.4c2.8,5.6,4,11.7,4.2,18c0.1,3.1,1.9,4.9,4.4,4.7c2.4-0.1,3.9-2,3.9-4.9c0-1.6-0.2-3.2-0.4-4.9
			C128.8,162.3,106.9,141.7,80.9,141z"/>
		<path d="M80.9,141c26.1,0.8,48,21.3,50.4,46.6c0.2,1.6,0.3,3.2,0.4,4.9c0,2.9-1.5,4.8-3.9,4.9c-2.5,0.1-4.3-1.6-4.4-4.7
			c-0.2-6.3-1.3-12.4-4.2-18c-8-15.9-20.9-24.4-38.7-25.4c-3.6-0.2-5.4-1.6-5.3-4.3c0.1-2.6,1.9-3.9,5.4-3.9
			C80.9,141,81.3,141,80.9,141z"/>
	</g>
</g>
</svg>
