<?xml version="1.0" encoding="utf-8"?>
<!-- Generator: Adobe Illustrator 23.0.3, SVG Export Plug-In . SVG Version: 6.00 Build 0)  -->
<svg version="1.1" id="Layer_1" xmlns="http://www.w3.org/2000/svg" xmlns:xlink="http://www.w3.org/1999/xlink" x="0px" y="0px"
	 viewBox="0 0 200 200" style="enable-background:new 0 0 200 200;" xml:space="preserve">
<style type="text/css">
	.st0{fill:#FFFFFF;}
</style>
<g id="UpwKZG.tif">
	<g>
		<path d="M52.6,54.3c-0.2,0.4-0.4,0.7-0.7,1.1c-0.4,0.5-0.7,1-1.1,1.5c-0.1,0.1-0.4,0.2-0.5,0.3c-0.2,0.1-0.3,0.1-0.2,0.4
			c0.1,0.4,0.1,0.4-0.3,0.4c-0.1,0-0.1,0-0.3,0c0,0.2,0,0.4,0.1,0.5c0.1,0.5,0.1,0.5-0.4,0.7c-0.3,0.1-0.3,0.2-0.1,0.5
			c0.2,0.4,0.4,0.7,0.3,1.2c-0.1,0.3-0.1,0.4-0.5,0.4c-0.5-0.1-0.7,0.1-0.6,0.7c0.1,0.4,0.1,0.7,0.1,1.2c0,0.1-0.1,0.4-0.1,0.4
			c-0.1,0-0.3-0.1-0.4-0.1c-0.1-0.1-0.1-0.1-0.2-0.3c-0.1-0.3-0.4-0.6-0.6-0.9c0.1-0.1,0.1-0.1,0.2-0.3c0.2-0.3,0.3-0.5,0.1-0.9
			c-0.1-0.1-0.1-0.2-0.2-0.3c-0.4-0.4-0.4-0.5,0-0.9c0.1-0.1,0.2-0.3,0.1-0.4c-0.4-0.4-0.5-1-0.6-1.6c0-0.1-0.1-0.2-0.1-0.3
			c-0.5-0.3-0.8-0.8-1.1-1.2c-0.1-0.3-0.3-0.5-0.4-0.8h-0.1c0,0.4,0.1,0.8,0.1,1.3c-0.5-0.2-0.7-0.6-0.7-1c-0.7,0.1-1.4,0.1-2.1,0.2
			c-0.4,0.1-0.5-0.1-0.5-0.4c-0.1-0.2-0.1-0.4-0.1-0.7c0-0.1-0.1-0.2-0.3-0.2c-0.4,0-0.9,0-1.4,0c-0.6,0.1-1-0.1-1.4-0.6
			c-0.3-0.3-0.5-0.7-0.7-1c-0.2-0.3-0.4-0.4-0.7-0.4c-0.1,0-0.2,0.1-0.4,0.1c-0.4,0.1-0.7,0.1-0.9-0.1c-0.2-0.1-0.4-0.1-0.7-0.2
			c-0.1-0.1-0.4-0.1-0.4-0.2c-0.3-0.2-0.5-0.5-0.7-0.7c-0.1-0.1-0.4-0.2-0.6-0.1c-0.2,0.1-0.4,0.1-0.7-0.1c-0.7-0.4-1.5-0.9-2.3-1.3
			c-0.3-0.1-0.6-0.3-1-0.1c0.1,0.1,0.2,0.3,0.3,0.5c-0.3,0.2-0.5,0.1-0.7-0.1c-0.4-0.3-0.7-0.4-1.2-0.3c0.1,0.1,0.2,0.1,0.4,0.2
			c0.4,0.2,0.9,0.4,1.3,0.7c0.3,0.2,0.5,0.4,0.7,0.7c0.6,0.8,1.1,1.6,2,2.1c0.5,0.4,0.9,0.8,1,1.4c0.1,0.2,0.1,0.3,0.4,0.4
			c0.7,0.1,0.8,0.2,0.9,0.9c0,0.1,0.1,0.4,0.1,0.5c0.1,0.4,0.3,0.7,0.7,0.9c0.1,0.1,0.4,0.3,0.4,0.4c0.2,0.3,0.4,0.3,0.8,0.2
			c0.1,0,0.2-0.1,0.4-0.1c0,0.9,0.6,1.5,1.4,1.9c0.2,0.1,0.4,0.3,0.4,0.5c0,0.6,0,1.2,0,1.8c0,0.7-0.1,1.4-0.6,1.9
			c-0.2,0.2-0.1,0.4,0,0.7c0.4,0.7,0.7,1.5,0.1,2.4c0,0.1,0,0.1,0,0.2c0.1,0.2,0.1,0.4-0.1,0.5c-0.5,0.6-0.6,1.2-0.6,1.9
			c0,0.3-0.1,0.7-0.2,0.9c-0.2,0.4-0.3,0.7-0.3,1c0,0.5,0,1.1,0,1.6c0.3-0.1,0.4,0.2,0.5,0.4c0.1,0.3-0.1,0.4-0.2,0.6
			c-0.1,0.1-0.1,0.1-0.2,0.2c-0.2,0.2-0.3,0.4-0.1,0.7c0.1,0.2,0.1,0.4,0.1,0.6c-0.1,0.7-0.1,1.3,0.1,1.9c0.1,0.1,0,0.3-0.1,0.4
			c-0.4,0.5-0.7,1-1,1.5c-0.3,0.4-0.4,0.8-0.4,1.2c0,0.2,0,0.4-0.1,0.7c0,0.1,0,0.3,0.2,0.3c0.4,0,0.6,0.1,0.7,0.6
			c0.1,0.4,0.3,0.9-0.2,1.2c-0.1,0.1-0.1,0.1-0.1,0.2c-0.3,0.6-0.3,1.2-0.2,1.7c0,0.4-0.1,0.6-0.3,0.9c-0.1,0.1-0.3,0.3-0.4,0.4
			c-0.1,0.1-0.1,0.4-0.1,0.5c0,0.3,0,0.7-0.1,0.9c-0.1,0.3-0.2,0.6-0.2,0.9c-0.1,0.2,0,0.4,0.4,0.5c0.1,0,0.3,0.1,0.4,0.2
			c0.2,0.3,0.2,0.8-0.1,1.2c-0.2,0.2-0.4,0.4-0.7,0.6c0,0,0,0.1,0.1,0.1c0.6,1,0.6,2,0,3c-0.1,0.1-0.1,0.3,0.1,0.4
			c0.2,0.1,0.3,0.4,0.3,0.7s0,0.6,0.1,0.9c-0.1,0.1-0.4,0.2-0.5,0.4c-0.3,0.2-0.5,0.5-0.8,0.8c-0.1,0.2-0.2,0.4,0,0.7
			c0.1,0.2,0.2,0.5,0.2,0.7c0.1,0.4,0,0.7,0.1,1.1c0.1,0.5,0.1,1-0.3,1.5c-0.1,0.1-0.1,0.4-0.1,0.4c0.3,0.5,0.1,1.1,0.1,1.6
			c-0.1,0.5-0.1,0.9-0.2,1.5c0.4-0.4,0.8-0.7,1.2-1.2c0,0.4,0.1,0.7,0.1,1c0.1,0,0.1,0,0.1,0c0.1-0.1,0.2-0.3,0.2-0.5
			c0.1-0.4,0.3-0.9,0.4-1.4c0.1-0.1,0.2-0.3,0.3-0.3c0.3,0.1,0.4-0.1,0.6-0.4c0.2-0.2,0.4-0.5,0.7-0.7c0.3-0.2,0.7-0.4,1.1-0.5
			c0-0.1-0.1-0.3,0-0.4c0.1-0.2,0.1-0.4,0.4-0.6c0.1-0.1,0.4,0.1,0.5,0.1s0.3,0.2,0.4,0.3c0,0,0.1,0,0.1-0.1c0-0.4,0.1-0.9,0.1-1.4
			c0-0.4,0.1-0.7,0.4-0.9c0.4-0.2,0.7-0.4,0.9-0.5c0.2,0.1,0.4,0.2,0.6,0.4c0.1-0.1,0.1-0.4,0.2-0.5l0,0c0.1-0.4,0.4-0.7,0.8-0.8
			c0.6-0.1,1.2-0.3,1.4-0.9c0.1-0.3,0.3-0.4,0.6-0.6c0.4-0.1,0.7-0.5,0.8-0.9c0.1-0.2,0.1-0.4,0.2-0.7c0.2-0.4,0.4-0.4,0.8-0.2
			c0.1,0.1,0.3,0.1,0.5,0.3c-0.1-0.6,0.1-0.8,0.4-1c0.3-0.1,0.4-0.4,0.3-0.7c-0.1-0.4,0-0.5,0.4-0.6c0.2,0,0.4,0.1,0.7,0.1
			c0.2,0,0.4,0.1,0.6,0.1c0.4-0.1,0.9-0.9,0.9-1.2c0-0.5,0.3-0.9,0.9-0.9c0.2,0,0.4,0,0.6,0c0-0.3,0-0.5,0-0.8
			c0.2,0.1,0.4,0.1,0.6,0.1c0.4,0.1,0.7,0.2,1,0.3c0.3,0.1,0.5,0,0.7-0.4s0.4-0.5,0.8-0.4s0.7,0.1,1.1,0.3c0.1,0.1,0.2,0.1,0.4,0.2
			c0-0.3,0-0.5,0-0.7c0-0.1,0.1-0.4,0.2-0.4c0.1-0.1,0.3,0,0.4,0.1c0.5,0.4,1.1,0.4,1.4-0.1c0.1-0.2,0.4-0.3,0.6-0.3
			c0.4,0.1,0.8,0.1,1.2,0.1c0-0.3,0-0.5,0.1-0.8c0.2,0.1,0.4,0.1,0.7,0.1c0.4,0.1,0.8,0.1,1.2-0.1c0.1-0.1,0.3-0.1,0.4-0.1
			c0.3,0.1,0.5,0,0.7-0.4c0.1-0.4,0.4-0.5,0.7-0.5c0.8,0.1,1.6,0.1,2.4,0.2c0.1,0,0.2,0.1,0.3,0c0.5-0.2,1-0.4,1.5-0.8
			c0.4-0.4,0.8-0.4,1.2-0.1c0.1,0,0.1,0.1,0.2,0.1c0.4,0.2,0.8,0.1,1.1-0.3c0.3-0.4,0.7-0.5,1.2-0.6c0.4,0,0.7,0,1,0.1
			c0.3,0.1,0.5,0,0.8-0.1c0.1-0.1,0.4-0.1,0.5-0.1c0.2,0,0.3-0.1,0.4-0.2c0.3-0.5,0.5-0.6,1-0.3c0.2,0.1,0.4,0.1,0.6-0.1
			c0.5-0.3,1-0.4,1.6-0.4c0.5,0,0.9,0,1.5,0c0.5,0,1,0,1.5-0.1c0.3,0,0.4-0.1,0.4-0.5c-0.7,0.4-1.3,0.2-1.9-0.1
			c-0.2-0.1-0.4-0.1-0.7-0.1c-0.1,0-0.1-0.1-0.2-0.1c0.1-0.1,0.1-0.1,0.2-0.1c0.4-0.1,0.7-0.3,1.1-0.4c0.3-0.1,0.3-0.2,0.1-0.4
			c-1.1,0.5-2.3,0.7-3.5,0.7c-0.3,0-0.7,0-0.7-0.4c-0.2,0.2-0.4,0.4-0.7,0.2c-0.5-0.3-1-0.5-1.6-0.7c-0.1,0-0.1,0-0.2,0
			c-0.4,0.2-0.7,0.5-1.1,0.7c-0.1,0.1-0.2,0.1-0.3,0.1c-0.7-0.1-1.3-0.3-1.9-0.4c-0.4-0.1-0.6-0.1-0.9,0.1c-0.5,0.4-0.7,0.4-1-0.2
			c-0.1-0.1-0.1-0.2-0.2-0.4c-0.2,0.1-0.4,0.3-0.7,0.4c-0.2,0.1-0.4,0.1-0.7,0.1c-0.5-0.1-0.5-0.1-0.7,0.4c0,0.1-0.1,0.1-0.1,0.2
			c-0.6-0.1-1.2-0.4-1.8,0.1c-0.1-0.1-0.3-0.4-0.4-0.5c-0.1-0.1-0.2-0.3-0.4-0.4c-0.1-0.2-0.4-0.1-0.4,0.1c-0.1,0.4-0.1,0.4-0.6,0.4
			c-0.3,0-0.5,0.1-0.8,0.1c-0.1,0-0.4,0-0.4-0.1c-0.2-0.2-0.2-0.6-0.1-0.9c0.1,0.1,0.3,0.1,0.5,0.1c0-0.4,0-0.9,0-1.3
			c0.7-0.2,1.5-0.3,2.1,0.1c0.1,0.1,0.2,0.1,0.3,0.1c0.4-0.2,0.9-0.1,1.3,0.1c0.4,0.2,0.8,0.2,1.2,0c1-0.4,2-0.6,3.1-0.1
			c0.1,0.1,0.4,0,0.7-0.1c0.5-0.2,0.7-0.2,1,0.2c0.1,0.1,0.2,0.3,0.4,0.4c0.1,0,0.1,0,0.1,0c0.1-0.6,0.1-1.2,0.2-1.7
			c0.4,0.1,0.8,0.1,1.2,0.1c0.3,0,0.4,0,0.4-0.3c-0.5,0-0.5-0.1-0.4-0.5c0-0.1,0-0.2-0.1-0.4C72.2,78.8,72.1,79,72,79
			c-0.1,0-0.3,0-0.4-0.1c-0.1-0.1-0.1-0.2,0-0.4c0.1-0.2,0.1-0.5,0.1-0.7c0.1-0.7,0.5-1.2,0.4-1.8c-0.1-0.4,0.1-0.6,0.4-0.7
			c0.1-0.1,0.3-0.1,0.4-0.1s0.1-0.1,0.2-0.1C73,75,72.9,75,72.8,75C72.4,75,72,75,71.6,75C71.1,75,71,75,71,74.4
			c0-0.4-0.1-0.4-0.4-0.3c-0.2,0.1-0.4,0.1-0.7,0c-0.4-0.2-0.9-0.2-1.4,0c-0.4,0.2-0.8,0.1-1.2-0.1c-0.1-0.1-0.1-0.3-0.1-0.4
			c0-0.6,0.5-1,1-0.9c0.4,0.1,0.7,0.2,0.9,0.4c0.1,0.1,0.3,0.1,0.4,0.1c0.8-0.3,1.6-0.4,2.5-0.3c0.1,0,0.2,0,0.4,0
			c-0.1-0.2-0.2-0.3-0.3-0.4c-0.1-0.3,0-0.4,0.3-0.4c0.1,0,0.2,0,0.3,0c0-0.1,0-0.1,0-0.1c-0.1-0.1-0.3-0.1-0.4-0.1
			c-0.2,0-0.4,0.1-0.6,0.1c-0.4,0.1-0.7,0-0.9-0.4c-0.2-0.4,0.1-0.5,0.3-0.7c0.4-0.4,0.4-0.7,0.2-1.2c-0.1-0.1-0.1-0.2-0.1-0.3
			c-0.2-0.4-0.2-0.4,0.2-0.6c0.4-0.2,0.5-0.3,0.4-0.7c-0.1-0.3-0.1-0.5-0.2-0.8c0-0.1,0-0.1,0-0.2c0.5,0,1,0,1.5,0
			c0.3,0,0.4-0.1,0.4-0.4c-0.3-0.1-0.6-0.1-0.9-0.1c0.1-0.2,0.2-0.4,0.3-0.6c-0.5,0-0.9,0-1.4,0c-0.4,0-0.9,0-1.2-0.4
			c-0.9,0.6-1.7,0.5-2.6,0.3c-0.1-0.7-0.1-1.2-0.1-1.8c1.1,0,2.2-0.1,3,0.9c0.1-0.3,0.1-0.5,0.1-0.7c0.1-0.1,0.2-0.3,0.3-0.3
			c0.1,0,0.3,0.1,0.4,0.2c0.1,0.1,0,0.2,0,0.3c0,0.2-0.1,0.5-0.1,0.7c0.1,0,0.1,0,0.1,0c0.7-0.1,1.3-0.3,2-0.4
			c0.4-0.1,0.7,0.1,0.6,0.6c-0.1,0.4-0.1,0.9-0.1,1.4c0,0.5,0.1,0.9,0.1,1.4S74,68.7,74,69.1c0,0.4-0.1,0.9-0.4,1.2
			c-0.2,0.2-0.2,0.4-0.1,0.7c0.2,0.4,0.5,0.9,0.5,1.5s0.1,1.2,0.1,1.8c0.1-0.1,0.4-0.1,0.5-0.1c0.1,0.4-0.1,0.7-0.3,1
			c-0.1,0.1-0.2,0.5-0.1,0.6c0.2,0.3,0.1,0.5,0,0.8c-0.1,0.1-0.1,0.2-0.1,0.4c0.1,0.7,0.1,1.2,0.2,1.9c0.1,0.4-0.1,0.6-0.4,0.5
			c-0.2,0-0.4-0.1-0.7,0c-0.1,0-0.1,0.1-0.2,0.2c0,0.1,0.1,0.1,0.2,0.2c0.2,0.1,0.4,0.1,0.6,0.1s0.3,0.1,0.3,0.3
			c0,0.5,0.1,0.9,0.1,1.5c0,0.1,0,0.3,0.1,0.4h0.1c0.1-0.1,0.1-0.3,0.1-0.4c0.2,0,0.4,0,0.6,0c0,0.9,0,0.9,0.3,0.9
			c0-0.2-0.1-0.4-0.1-0.6c0-0.3,0-0.6,0.1-0.8c0.1-0.4,0.4-0.4,0.6-0.1c0.1,0.4,0.4,0.4,0.7,0.3c0.5-0.1,0.9-0.2,1-0.8
			c0-0.2,0.1-0.4,0.4-0.5c0.7-0.1,1.5-0.1,2.1,0.1c0.5,0.1,0.6,0.4,0.5,0.9c0,0.2-0.1,0.4-0.1,0.6c0,0.3,0.2,0.5,0.5,0.5
			c0.3,0,0.4-0.1,0.4-0.4c0-0.2,0.1-0.4,0.1-0.7c0.1-0.7,0.2-1.2,0.9-1.3c0.1,0,0.2-0.3,0.4-0.4c-0.1-0.1-0.2-0.1-0.4-0.2
			c-0.1-0.3-0.1-0.7-0.1-1c0-0.2-0.1-0.5-0.1-0.7c0-0.3-0.1-0.6-0.4-0.7c-0.2-0.1-0.4-0.2-0.7-0.4c0.2-0.3,0.4-0.6,0.7-0.8
			c0.3-0.4,0.3-0.6,0-0.9c-0.3-0.3-0.4-0.5-0.1-0.8c0.1-0.2,0.4-0.4,0.5-0.6c-0.7-0.6-0.7-1.4,0.1-2c0.2-0.2,0.4-0.5,0.5-0.8
			c0.1-0.7,0.2-1.5,0-2.3c-0.1-0.5-0.1-0.9-0.1-1.5c0-0.1-0.1-0.2-0.1-0.3c-0.1-0.1-0.4-0.3-0.4-0.4c-0.1-0.7-0.1-1.5-0.2-2.2
			c0.9-0.1,1.2,0,1.2,0.9c0,0.1,0,0.1,0,0.3c0,0.2,0,0.4,0,0.7c0.4-0.2,0.7-0.1,1.2,0.1c0-0.4,0-0.7-0.1-1c-0.1-0.7-0.1-1.5,0.5-2
			c0.1-0.2,0.1-0.4,0-0.5c0.3-0.1,0.3-0.3,0.3-0.5s0.1-0.4,0.1-0.6c0.1-0.1,0.1-0.4,0.3-0.5c0.2-0.2,0.4-0.4,0.4-0.7
			c0-0.4,0.1-0.8,0.1-1.2c0-0.2,0.1-0.4,0.2-0.6c0.1,0,0.1,0,0.1,0c0.1,0.1,0.1,0.3,0.1,0.4c0.1,0.6-0.1,1-0.3,1.6
			c-0.1,0.2-0.1,0.4-0.1,0.6c0.1,0.4,0.1,0.7-0.1,0.9c-0.4,0.4-0.4,0.8-0.2,1.3c0.2,1,0.2,2-0.6,2.8c-0.1,0.1-0.1,0.2-0.1,0.3
			c0.3,1.1,0.1,2.2-0.5,3.1c-0.2,0.3-0.2,0.5,0,0.8c0.4,0.4,0.4,0.8,0.1,1.3c-0.2,0.4-0.3,0.8-0.1,1.1c-0.3,0.4-0.6,0.9-0.9,1.2
			c-0.1,0.2-0.1,0.4,0.1,0.5c0.1,0.1,0.1,0.1,0.3,0.3c0.3,0.2,0.4,0.6,0.2,0.9c-0.1,0.3-0.3,0.6-0.4,0.9c-0.3,0.5-0.3,0.5,0.1,0.9
			c0.4,0.4,0.4,0.9,0.1,1.4c-0.1,0.1-0.2,0.4-0.3,0.5c-0.1,0.2-0.1,0.4-0.1,0.7c0,0.1,0.1,0.3,0.3,0.2c0.4-0.1,0.5,0.1,0.7,0.3
			c0.3,0.4,0.4,0.8,0.3,1.2c-0.1,0.3-0.1,0.7-0.1,0.9c0,0.1,0.1,0.2,0.1,0.3c0.1-0.1,0.1-0.1,0.1-0.3c0.1-0.6,0.3-1.2,0.7-1.7
			c0.4-0.5,0.5-0.5,0.9-0.1c0.4,0.4,0.9,0.3,1.3-0.1c0.3-0.4,0.7-0.5,1.1-0.4s0.5,0.5,0.5,0.9c0,0.1,0.1,0.3,0.1,0.5
			c0.5-0.5,0.3-1.1,0.4-1.6c0.2,0,0.4,0.1,0.6,0c0.1-0.1,0.4-0.2,0.4-0.3c0-0.3,0.1-0.4,0.4-0.6c0.1-0.1,0.3-0.3,0.4-0.4
			c0.1-0.1,0.2-0.2,0.4-0.4c0.1,0.6,0.3,1.1,0.5,1.6c0.1-0.1,0.4-0.1,0.5-0.2c0.2-0.1,0.4-0.1,0.4,0.1c0.1,0.2,0.1,0.5,0.2,0.7
			c0.1,0.2,0.1,0.4,0.2,0.6c0.1-0.4,0-0.7,0.1-0.9c0.1-0.2,0.5-0.3,0.8-0.4l0.1,0.1c-0.1,0.3-0.1,0.5-0.1,0.8c0.2,0,0.4,0,0.7,0
			c0.7,0,1.3-0.1,1.9,0c0.8,0.1,0.9,0.4,0.9,1.2c0,0.1,0,0.2,0,0.3c0.1,0.1,0.1,0.1,0.2,0.3c0-0.5,0.1-0.9,0.1-1.3
			c0.4,0.3,0.6,0.5,0.9,0.7c0-0.3,0.1-0.4,0-0.6c-0.1-0.2-0.2-0.4-0.3-0.7c-0.1-0.1,0-0.3,0-0.4c0.1,0.1,0.4,0.1,0.4,0.1
			c0.4,0.4,0.6,0.8,0.7,1.4c0,0.3,0,0.6,0.1,0.9c0,0.2,0.1,0.4,0.2,0.6c0.1-0.7,0.1-1.2,0.1-1.9c0-0.5,0.2-0.8,0.7-0.9
			c0.1,0,0.3-0.1,0.4-0.1c0.1,0.2,0.3,0.4,0.5,0.6c0.2,0.1,0.5,0.4,0.8,0.3c1.7-0.1,3.3-0.4,5-0.4c0.1,0,0.3-0.1,0.4-0.1
			c0-0.1,0-0.1,0-0.1c-0.5-0.1-1.1-0.1-1.6-0.2c-0.2,0-0.4,0-0.5-0.4c0.7,0.1,1.4,0.1,2.1,0.2c0.7,0.1,0.7,0.1,0.7,0.7
			c0,0.2,0.1,0.4,0.1,0.7c0.4-0.3,0.4-0.6,0.5-0.9c0.1-0.7,0.7-1.3,1.3-1.3c0,0.3,0,0.6,0,0.9c0,0.1,0.1,0.4,0.1,0.4
			c0.3,0.2,0.5,0.5,0.4,0.9c0,0.1,0.1,0.1,0.1,0.1c0.1-0.1,0.1-0.1,0.1-0.1c0-0.2,0-0.4,0-0.6c0.1-0.3,0.1-0.6,0.2-0.8
			c0.2-0.4,0.4-0.4,0.8-0.2c0.1,0.1,0.4,0.2,0.5,0.3c0.2,0.1,0.4,0.1,0.6,0c0.6-0.4,1.2-0.4,1.8,0c0.1,0.1,0.1,0.1,0.3,0.2
			c-0.5,0.1-1-0.3-1.3,0.4c0.1,0,0.1,0.1,0.1,0.1c0.1,0,0.2,0,0.4,0c0.9-0.1,1.7-0.1,2.6,0.2c0.6,0.2,1.1,0.1,1.5-0.2
			c0.2-0.1,0.5-0.4,0.7-0.5c0-0.2,0-0.4,0-0.5c0.1,0.1,0.4,0.1,0.4,0.2c0.1,0.2,0.1,0.4,0.2,0.7c0.1,0.2,0.1,0.4,0.3,0.5
			c0.1-0.1,0.2-0.4,0.3-0.4c0.2,0.1,0.2-0.1,0.3-0.2c0.1-0.3,0.1-0.7,0.3-0.9c0.1-0.1,0.2-0.3,0.4-0.4c0.1,0.1,0.3,0.4,0.4,0.5
			c0.1,0.1,0,0.2,0,0.4c-0.1,0.8-0.1,0.9,0.7,0.8h0.1c0.1,0.4-0.1,0.7,0.2,1c0.1-0.6,0.1-1.2,0.1-1.8c0-0.1,0.1-0.2,0.1-0.4
			c0.1,0.1,0.3,0.1,0.4,0.1c0.1,0.1,0.4,0.1,0.5,0.1c0.4,0,0.9-0.1,1.2,0c0.5,0.1,1,0.1,1.5,0.1c0.1,0,0.3-0.1,0.5-0.1
			c0,0.2-0.1,0.4-0.1,0.5c0,0.1,0.1,0.2,0.1,0.3c0.4,0.3,0.6,0.6,0.4,1.1c-0.1,0.4-0.1,0.5-0.6,0.4c-0.4-0.1-0.7-0.2-1.2-0.1
			c-0.5,0.1-1,0.1-1.5-0.2c-0.3-0.2-0.5-0.2-0.7,0c-0.3,0.1-0.7,0.3-0.9,0.4c-0.1,0-0.1,0.1-0.1,0.1c-0.3,0.1-0.7,0.3-0.9,0.2
			c-0.6-0.1-1,0.1-1.6,0.1c-0.3,0-0.6,0.1-0.9,0c-0.5-0.1-1-0.2-1.6-0.3c0,0.1,0,0.3,0,0.4c0.2,0.1,0.4,0.1,0.7,0.1
			c0.1,0.1,0.2,0.2,0.3,0.3c0,0.2-0.1,0.2-0.3,0.2c-0.4,0-0.7,0-1.1,0.1c-0.1,0-0.3,0.1-0.4,0.1c0,0.1,0,0.1,0,0.1
			c1.3-0.1,2.6,0.3,3.9,0.1c0.1,0.4,0.4,0.4,0.7,0.4c0.4,0,0.8,0.1,1.2,0.1c0.4,0,0.6,0.1,0.7,0.5c0.1,0.3,0.3,0.4,0.7,0.4
			c0.1,0,0.4,0.1,0.5,0.1c0.3,0.1,0.5,0.1,0.8,0c0.1-0.1,0.3-0.1,0.4-0.2c0.3-0.1,0.6-0.1,0.8,0.1c0.3,0.4,0.7,0.5,1.1,0.4
			c0.4-0.1,0.7,0,1,0.2c0.5,0.3,1.1,0.4,1.7,0.7c0.1,0,0.1-0.1,0.2-0.1c-0.1-0.1-0.1-0.1-0.2-0.2h-0.1c-0.1-0.1-0.1-0.1-0.1-0.1
			c0.1-0.1,0.1-0.1,0.1-0.1c0.1,0,0.2,0.1,0.4,0.1c1.2,0.7,2.4,0.9,3.8,1c0.4,0,0.7,0.1,0.9,0.4c0.2,0.3,0.7,0.4,0.9,0.1
			c0.1-0.1,0.3-0.1,0.5-0.1c0.6,0.1,1.2,0.4,1.7,0.4c0.7,0,1.1,0.1,1.4,0.7c0.4-0.1,0.9-0.1,1.4-0.3c0.9-0.4,1.8,0.3,2,1
			c0,0.1,0.1,0.2,0.1,0.3c0.1,0,0.1,0,0.2-0.1c0.6-0.1,1.1-0.3,1.7-0.4c0.2-0.1,0.4,0,0.7,0.2c0.1,0.1,0.3,0.2,0.5,0.2
			c0.5,0,0.5,0.1,0.7,0.5c0.1,0.2,0.1,0.4,0.2,0.5c0.7,0.5,1.5,0.9,2.2,1.4c0.1,0.1,0.2,0.1,0.2,0.2c0.3,0.6,0.7,1.2,0.9,1.8
			c0.2,0.4,0.4,0.6,0.9,0.5c0.6-0.1,0.9,0.1,1.2,0.7c0.4,0.8,1,1.5,1.9,2c0.1,0.1,0.1,0.1,0.1,0.1c0,0.7,0.4,0.9,0.9,1.1
			c0.1,0.1,0.3,0.2,0.4,0.4c0.1,0.1,0.1,0.3,0.1,0.4s0.1,0.2,0.2,0.3c0.7,0.1,1.2,0.3,1.9,0.4c0.2,0.1,0.4,0.2,0.4,0.4
			c0.1,0.6,0.4,0.9,0.9,1.2c0.4,0.1,0.5,0.3,0.6,0.7s0.3,0.5,0.7,0.5c0.1,0,0.3,0,0.4,0.1c0.6,0.5,1.2,1.1,1.2,2
			c0,0.1,0.1,0.4,0.1,0.5c0.1,0,0.1,0,0.1,0c0.1-0.1,0.1-0.4,0.2-0.5c0.1-0.1,0.1-0.1,0.2-0.1c0.1,0.1,0.1,0.1,0.2,0.2
			c0,0.1,0,0.2,0,0.4c0.1,0.1,0.1,0.3,0.2,0.4c0.1,0,0.1,0,0.1,0c0-0.2,0.1-0.5,0.1-0.7c0-0.3-0.1-0.5-0.1-0.9
			c0.8,0.2,1.2,0.9,1.9,1.1c-0.1-0.1-0.2-0.2-0.3-0.2c-0.8-0.6-1.2-1.3-1.5-2.3c-0.1-0.7-0.3-1.3-0.5-1.9c-0.2-0.5-0.1-0.9,0.1-1.3
			c0.1-0.2,0.1-0.4,0.1-0.7c0-0.4,0-0.9-0.1-1.3c-0.4-0.1-0.7-0.5-0.7-0.9c-0.1-0.6-0.2-1.2-0.4-1.7c-0.1-0.2,0-0.4,0.1-0.6
			c0.3-0.4,0.3-0.7,0-1.1c-0.1-0.1-0.1-0.1-0.2-0.2c0.3-0.4,0.3-0.7,0.1-1.1c-0.2-0.5-0.2-0.9-0.2-1.5c0-0.1-0.1-0.4-0.2-0.5
			c-0.4-0.4-0.4-0.8,0.1-1.2c0.1-0.1,0.2-0.3,0.1-0.3c-0.3-0.4-0.1-0.6,0.1-0.9c0.1-0.1,0.1-0.3-0.1-0.4c-0.3-0.3-0.6-0.6-0.8-0.9
			c-0.6-0.7-0.9-1.5,0-2.3c0.2-0.2,0.1-0.4,0.1-0.7c-0.2-0.6-0.4-1.1-0.6-1.7c-0.1-0.1-0.1-0.3-0.2-0.4c-0.5-0.4-0.6-0.7-0.4-1.3
			c0.1-0.3,0.1-0.7-0.1-0.9c-0.2-0.2-0.1-0.4-0.1-0.6c0.3-0.7,0.4-1.5,0.1-2.3c-0.1-0.3-0.1-0.7-0.1-1c0-0.2-0.1-0.4-0.3-0.4
			c-0.1-0.1-0.2-0.1-0.3-0.1c-0.3-0.1-0.3-0.4-0.1-0.6c0.1-0.3,0.4-0.4,0.8-0.3c-0.1-0.9-0.1-1.8-0.1-2.7c-0.3,0.1-0.4,0.1-0.7,0.2
			c0-0.1,0-0.3,0-0.4c0.1-0.7,0.1-1.3,0.1-2c0-0.4-0.1-0.7-0.6-0.7c-0.1,0-0.1,0-0.2,0c-0.1-0.7-0.1-0.9,0.4-1.4
			c0.5-0.4,0.4-0.8-0.2-1H160c-0.2-0.1-0.4-0.2-0.2-0.5c0-0.1,0-0.3-0.1-0.4c-0.3-0.3-0.4-0.4-0.2-0.8c0.1-0.2,0.1-0.4,0.3-0.5
			c0.1-0.3,0.1-0.5-0.1-0.7c-0.1-0.1-0.1-0.3-0.1-0.5c0.1-0.2,0.3-0.5,0.4-0.7c0.3-0.4,0.2-0.5-0.2-0.8c-0.4-0.2-0.4-0.3-0.1-0.7
			c0.1-0.2,0.2-0.4,0.3-0.7c0.1-0.1,0.1-0.3,0.1-0.4c0.4-0.3,0.5-0.7,0.4-1.1c0-0.1,0-0.1,0-0.3c0.1,0,0.1,0,0.1,0
			c0.7,0.1,0.7,0.1,1.1-0.5c0.1-0.1,0.1-0.2,0.2-0.3c0.1-0.2,0.2-0.2,0.4-0.1c0.3,0.1,0.5,0.1,0.7-0.1c0.1-0.1,0.2-0.2,0.4-0.4
			c0.4-0.4,0.7-0.7,0.6-1.4c-0.1-0.2,0.1-0.4,0.4-0.5c0.7-0.2,0.7-0.2,0.7-0.9c0-0.1,0-0.1,0-0.1c0.6-0.1,0.6-0.1,0.9-0.5
			c0.4-0.5,0.9-1,1.3-1.6c0.4-0.5,0.8-0.8,1.4-1.1c0.4-0.2,0.8-0.4,1.2-0.5c0.1,0,0.1-0.1,0.2-0.1c0.1-0.1,0.1-0.1,0.1-0.2
			c-0.1,0-0.1-0.1-0.2-0.1c-0.2,0.1-0.4,0.1-0.7,0.2c-0.2,0.1-0.4,0.1-0.6,0.1c0-0.2,0.1-0.4,0.1-0.5c-0.2,0-0.5,0-0.8,0
			c-0.1-0.4,0.6-0.5,0.6-1.1c-0.2,0.1-0.4,0.2-0.5,0.4c-0.7,0.8-1.7,1.2-2.8,1.2c-0.4,0-0.7,0.1-0.9,0.6c0,0.1-0.3,0.3-0.3,0.2
			c-0.4-0.1-0.6,0.1-0.9,0.2c-0.2,0.1-0.4,0.2-0.7,0.2c-0.5,0-0.9,0-1.5,0c-0.2,0.2-0.4,0.5-0.6,0.7c-0.7,0.4-1.3,0.7-2,1.1
			c-0.1,0.1-0.2,0-0.3-0.1c-0.2-0.1-0.4-0.3-0.7-0.5c-0.1,0.2-0.2,0.4-0.3,0.5c-0.3,0.4-0.6,0.7-0.9,0.9c-0.2,0.1-0.5,0.3-0.5,0.7
			c-0.9,0.1-0.9,0.1-0.9-0.4c-0.2,0-0.4,0-0.7,0c-0.4,0-0.7,0.1-0.9,0.6c-0.1,0.2-0.2,0.4-0.4,0.6c-0.3,0.4-0.7,0.4-1.1,0
			c-0.1-0.1-0.1-0.1-0.2-0.2c-0.5,0.3-1,0.6-1.6,0.9c-0.1-0.5-0.2-0.9-0.3-1.3c-0.1-0.4-0.1-0.8-0.1-1.3c-0.3,0.4-0.4,0.4-0.9,0.3
			c-0.1,0.2-0.1,0.4-0.1,0.7c-0.1,0.4-0.1,0.7-0.4,1c-0.8,0.7-1,2.1-0.5,3c0.4,0.6,0.2,1.2-0.2,1.7c-0.5,0.4-0.5,0.6-0.2,1.2
			c0.1,0.2,0.2,0.4,0.1,0.7c-0.1,0.7-0.4,1.5-0.6,2.2c0,0.1,0,0.1,0,0.1c0,0.6-0.1,1.2-0.1,1.7c0,0.4-0.1,0.4-0.5,0.4
			c-0.3,0-0.4-0.2-0.4-0.5c0.1-0.4,0.1-0.7,0.2-1c0.1-0.4,0.1-0.7-0.1-1.2c-0.1-0.3-0.1-0.6-0.2-0.9c0-0.7,0-1.2,0-1.9
			c0-0.1-0.1-0.1-0.2-0.3c-0.1,0.1-0.1,0.1-0.2,0.2c-0.1,0.1-0.1,0.2-0.2,0.3c-0.1,0-0.1,0-0.1-0.1c-0.1-0.7-0.2-1.3-0.3-1.9
			c-0.1-0.7-0.1-1.3-0.1-2c0-0.4-0.1-0.4-0.3-0.5c0,0.3,0,0.7,0,0.9c0,0.1-0.1,0.1-0.1,0.2c-0.1-0.1-0.1-0.1-0.1-0.2s0-0.1-0.1-0.2
			c-0.3-0.5-0.5-1-0.8-1.5c-0.1-0.2-0.2-0.4-0.4-0.7c-0.1,0.2-0.1,0.2,0.1,1.1c-0.6-0.1-1.1-0.1-1.7-0.2c-0.1,0-0.4-0.1-0.5-0.1
			c-0.4,0.1-0.7,0.1-1,0.1c-0.6,0.1-1.1,0-1.5-0.6c-0.1-0.2-0.4-0.2-0.6-0.1c-0.8,0.3-1.7,0.4-2.6,0.4c-0.2,0-0.4,0.1-0.6,0.2
			c-0.4,0.4-0.8,0.7-1.5,0.7c0-0.2,0.1-0.4,0.1-0.5c0-0.1-0.1-0.1-0.1-0.2c-0.1,0.1-0.1,0.1-0.1,0.1c-0.1,0.3-0.3,0.6-0.4,0.9
			c-0.1,0.2-0.3,0.5-0.4,0.8c-0.1,0.4-0.3,0.8-0.5,1.1c-0.3,0.4-0.5,0.8-0.6,1.3c-0.1,0.3-0.1,0.6-0.1,0.9c-0.1,0.7-0.3,1.3-0.7,1.9
			c-0.1,0.1-0.2,0.1-0.3,0.2c0-0.1-0.1-0.2-0.1-0.3c0.1-0.8,0.2-1.6,0.4-2.5c0-0.2,0-0.4,0-0.6c-0.1-0.5-0.3-1-0.1-1.7
			c0.5,0.1,0.8-0.1,1-0.5c0.1-0.1,0.1-0.1,0.2-0.2c0.1-0.1,0.2-0.3,0.4-0.5c-0.4,0-0.7,0-0.9,0c-1,0-1.2-0.1-1.3-1.1
			c0-0.3-0.1-0.6-0.4-0.7c0,0.3,0.1,0.6,0.1,0.8c0,0.1-0.1,0.3-0.3,0.3c-0.2,0.1-0.2-0.1-0.2-0.3c0-0.4,0-0.7,0-1
			c0-0.1-0.1-0.3-0.1-0.5c-0.1,0.5-0.1,0.9-0.3,1.4c-0.1,0.6-0.2,0.6-0.9,0.6c-0.1,0-0.4,0-0.5,0c-1-0.1-2-0.2-2.8-0.7
			c-0.2-0.1-0.3-0.2-0.3-0.4c0-0.3,0-0.6-0.1-0.9c0-0.4-0.1-0.7-0.1-1c-0.2,0.9-0.3,1.9-0.4,2.8c0,0.1-0.1,0.1-0.1,0.2
			c-0.1-0.1-0.1-0.1-0.1-0.1c-0.1-0.1-0.1-0.3-0.1-0.5c-0.4,0.8-0.7,1.6-1.9,1.7c0.1,0.1,0.2,0.2,0.3,0.2c0.3,0,0.4,0.2,0.4,0.4
			c0,0.1,0.1,0.2,0.1,0.3c0.7,1.1,0.7,2.3,0.4,3.5c-0.1,0.2-0.1,0.4,0,0.7c0.1,0.7,0.1,1.5-0.1,2.2c-0.1,0.1-0.1,0.3,0,0.4
			c0.1,0.5,0.3,0.9,0.1,1.5c-0.1,0.3-0.1,0.5,0.1,0.8c0.2,0.4,0.2,0.7,0,1c-0.1,0.3-0.4,0.6-0.4,0.9c-0.1,0.1,0,0.4,0.1,0.5
			c0,0.1,0.1,0.3,0.1,0.4c0,0.5,0,0.9,0.4,1.4c0.3,0.3,0.2,0.7,0.1,1c-0.1,0.2-0.1,0.4-0.3,0.7c0,0.1-0.1,0.2-0.1,0.3
			c-0.1,0.1-0.1,0.2-0.1,0.4c-0.1-0.1-0.1-0.2-0.1-0.4c0.1-0.7,0-1.3-0.2-1.9c0-0.1-0.1-0.1-0.2-0.2c-0.1,0.1-0.1,0.1-0.1,0.2
			c-0.1,0.5-0.1,1-0.1,1.5c0,0.1-0.1,0.3-0.3,0.4c-0.7,0.3-1.5,0.2-2.2,0c-0.1,0-0.2-0.1-0.2-0.2c-0.1-0.7-0.1-1.4-0.2-2
			c0-0.1,0.1-0.4,0.1-0.4c0.4-0.5,0.4-1,0.3-1.6c-0.1-0.2-0.1-0.4-0.1-0.6c-0.2-0.6,0.1-1,0.5-1.3c0.1-0.1,0.2-0.3,0.1-0.4
			c-0.1-0.4-0.3-0.9-0.4-1.4c-0.1-0.3-0.1-0.5,0.1-0.7c0.3-0.4,0.2-0.8-0.1-1.1c-0.1-0.1-0.2-0.2-0.3-0.2c0.3-0.9,0.5-1.7,0.8-2.5
			c0.1-0.3,0.1-0.6-0.1-0.8c-0.4-0.4-0.5-0.9-0.4-1.5c0-0.1,0-0.1,0-0.3c0-0.3,0.1-0.4,0.4-0.4c0.3-0.1,0.4-0.2,0.4-0.5
			c-0.3,0.1-0.5,0.1-0.8,0.1c0-0.2,0-0.4,0-0.6c0-0.1-0.1-0.3-0.1-0.4s-0.3,0-0.4,0.1c-0.1,0.1-0.2,0.1-0.4,0.2c0-0.2,0-0.4,0-0.5
			c0-0.4,0-0.9-0.1-1.4c0-0.1-0.1-0.4-0.2-0.5c-0.1,0-0.1,0-0.1,0c-0.1,0.7-0.4,1.5-0.5,2.2c-0.8-0.1-1.5-0.1-2.3,0.2
			c-0.3-0.5-0.5-0.9-0.8-1.5c-0.4,0.2-0.7,0.4-0.9,0.6c-0.4,0.2-0.7,0.4-1.2,0.4c-0.1,0-0.3-0.1-0.3-0.2c0-0.2,0-0.4,0-0.6
			c-0.1-0.3-0.2-0.4-0.4-0.4c0,0.6-0.1,1.1-0.1,1.6c0,0.4-0.2,0.6-0.5,0.7c-0.2,0.1-0.4,0.1-0.6,0.1c-0.3,0-0.5,0.1-0.5,0.5
			c0.2,0,0.4-0.1,0.7-0.1c0.4,0,0.5,0.1,0.5,0.5c0,0.1-0.1,0.4,0,0.4c0.3,0.3,0.1,0.6,0,0.9c-0.2,0.4-0.3,0.9-0.1,1.5
			c0.1,0.2,0.1,0.4,0.1,0.7c0.1,0.7,0.2,1.5,0,2.3c-0.3,1-0.4,2,0.2,3c0.1,0.1,0.1,0.3,0.1,0.4c0.1,1,0.1,2-0.2,2.9
			c-0.1,0.4-0.1,0.7,0.1,0.9c0.1,0.1,0.2,0.4,0.2,0.6c0.1,0.6,0.1,1.1,0.1,1.7c0,0.3-0.1,0.5-0.4,0.5c-0.3,0.1-0.4-0.1-0.5-0.4
			s-0.3-0.4-0.4-0.6c-0.1-0.1-0.1-0.2-0.1-0.3c0-0.2,0-0.4,0-0.6c0-0.1-0.1-0.3-0.1-0.4h-0.1c0,0.1,0,0.2,0,0.4c0,0.4,0,0.9-0.1,1.3
			c0,0.1-0.1,0.4-0.3,0.4c-0.3,0.1-0.6,0.1-0.9,0.2c-0.1,0-0.3-0.1-0.4-0.1c-0.5-0.4-0.7-1.2-0.4-1.7c0.1-0.3,0.1-0.5-0.1-0.7
			c-0.1-0.1-0.2-0.3-0.2-0.4c0.1-0.4,0.1-0.9,0.3-1.2c0.2-0.5,0.1-0.9-0.3-1.2c-0.1-0.1-0.4-0.4-0.4-0.6c-0.4-0.9-0.3-1.9,0.3-2.7
			c0.2-0.4,0.3-0.7,0.2-1c-0.1-0.5-0.1-0.5,0.4-0.8c0.1-0.1,0.2-0.2,0.2-0.3c-0.1-0.9,0.1-2,0.3-2.9c0-0.1,0-0.2-0.1-0.4
			c-0.1-0.6-0.4-1.1-0.5-1.7c-0.1-0.7-0.1-1.4-0.1-2.1c-0.6,0.1-0.4,0.9-1,0.9c-0.1-1-0.3-2-0.4-3c-0.1-0.3,0-0.4-0.2-0.4
			c-0.1,0.7-0.2,1.2-0.2,1.9c0,0.3,0,0.6,0,0.9c0.1,0.4-0.1,0.7-0.6,0.6c-0.4-0.1-0.7-0.3-1.1-0.5c-0.3-0.1-0.5-0.3-0.9-0.2
			c-0.2,0.1-0.5,0.1-0.7,0.1c-0.5-0.2-1-0.3-1.5-0.1c0,0,0,0-0.1-0.1c0.2-0.7-0.2-1.2-0.2-1.8c-0.4,0.1-0.5,0.1-0.5,0.5
			c0,0.3,0,0.6-0.1,0.9c-0.1,0.6-0.4,1-0.9,1.2c-0.2,0.1-0.4,0.1-0.5,0.3c-0.3,0.3-0.7,0.2-1,0.1c0.1-0.3,0.1-0.5,0.1-0.8
			c-0.1,0-0.2,0-0.4,0c-0.4,0-0.7,0-0.9-0.5c-0.1-0.2-0.2-0.2-0.4,0c-0.1,0.1-0.2,0.2-0.3,0.4c-0.4-0.5-0.4-1.3-1.2-1.7
			c0.1,0.5,0.1,1,0.1,1.5c-0.1,0-0.2,0.1-0.3,0.1c-0.4,0.2-0.7,0.1-0.9-0.1c0.1,0.2-0.1,0.1-0.3,0.2c-0.2,0.1-0.4,0.1-0.7,0.3
			c-0.3,0.1-0.6,0.2-0.9,0.1C91,56.6,90.5,56.3,90,56c-0.3-0.1-0.4-0.1-0.7-0.1c-0.1,0.1-0.4,0.1-0.7,0.2c0.1-0.8,0.2-1.6,0.3-2.3
			c-0.4,0.2-0.6,0.7-0.7,1c-0.1,0.7-0.2,0.7-0.9,0.6c-0.3-0.1-0.5,0.1-0.5,0.3c0,0.1,0.2,0.2,0.3,0.4s0.1,0.3,0.2,0.4
			c-0.1,0.1-0.3,0.2-0.4,0.2c-0.5-0.1-0.9,0-1.2,0.4c-0.1-0.1-0.2-0.2-0.3-0.2c-0.5-0.1-0.9-0.3-1-0.9c0-0.1-0.2-0.1-0.4-0.1
			c0,0.1-0.1,0.2-0.1,0.3c0.1,0.4-0.1,0.5-0.4,0.7C82.9,57,82.4,57,82,56.7c-0.4-0.3-0.5-0.2-0.7,0.1c-0.1,0.1-0.1,0.1-0.2,0.1
			c-1-0.1-2-0.3-3-0.4c-0.1,0-0.3,0-0.4,0.1c-0.7,0.3-1.2,0.4-1.9-0.1c0-0.1-0.2-0.1-0.4,0c-0.1,0-0.3,0.1-0.4,0.1
			c-0.4,0.1-0.6,0.1-0.8-0.2c-0.1-0.2-0.4-0.3-0.6-0.3c-0.1,0-0.3,0-0.4,0c-0.7,0-0.8-0.1-0.7-0.7v-0.1c0-0.3-0.1-0.4-0.4-0.4
			c0,0.3,0,0.6,0,0.9c0,0.5-0.4,0.9-0.9,0.9c-0.1,0-0.1,0.1-0.2,0.1C70.9,57,71,57,71.1,57c0.2,0.1,0.3,0.1,0.1,0.4
			c-0.1,0.1-0.4,0.2-0.5,0.2c-0.1,0-0.4-0.2-0.4-0.4c-0.1-0.4-0.1-0.9-0.2-1.4c0-0.2,0-0.4-0.4-0.3c0,0.2,0.1,0.4,0.1,0.7
			s0,0.6-0.3,0.8c-0.3,0.2-0.6,0.1-0.9-0.1c-0.2-0.1-0.4-0.3-0.6-0.3c-0.5,0.1-1.1,0.2-1.6,0.4c-0.1,0-0.4,0.1-0.5,0
			c-0.4-0.1-0.7-0.1-1.1,0c-0.1,0.1-0.2,0.1-0.4,0.1c-0.3,0.1-0.6,0-0.7-0.4c-0.1-0.3-0.1-0.5-0.1-0.8c-0.1,0-0.1,0-0.1,0
			c-0.6,0.2-1.2,0.3-1.7,0.7c-0.4,0.3-0.7,0.2-0.9-0.3c-0.1-0.2-0.1-0.4-0.1-0.6c-0.1-0.3-0.1-0.5-0.1-0.8c-0.4,0.4-0.4,0.7-0.3,1.1
			c0.1,0.2,0.1,0.4,0,0.7c-0.1,0.3-0.1,0.5-0.3,0.7c-0.1,0.1-0.2,0.1-0.4,0.2c-0.1-0.1-0.1-0.2-0.1-0.3c0-0.1,0-0.3,0-0.4
			c-0.2,0-0.4,0-0.6,0c-0.7,0-1-0.2-0.9-0.9c0.1-0.4-0.2-0.7-0.4-0.9c-0.1-0.1-0.3-0.1-0.3,0.1c-0.1,0.2-0.1,0.4-0.1,0.7
			c0,0.3,0,0.5,0,0.8c-0.3-0.1-0.6-0.2-0.8-0.3c-0.2-0.1-0.4-0.1-0.4,0.1s-0.3,0.3-0.5,0.3c-0.8,0.1-1.7,0.1-2.5,0.3
			c-0.4,0.1-0.6-0.1-0.6-0.5c0-0.2,0.1-0.4,0.1-0.6C52.4,55.3,52.5,54.7,52.6,54.3c0.1,0,0.3,0,0.3,0c0-0.1,0-0.3,0-0.5
			c0,0-0.1-0.1-0.1-0.1c-0.1,0-0.1,0.1-0.1,0.1C52.6,54,52.6,54.1,52.6,54.3z M84.1,65.8c-0.1,0.2-0.2,0.4-0.4,0.6
			C84.3,66.4,84.3,66.3,84.1,65.8z M34.7,106.4c0.1,0.1,0.1,0.3,0.1,0.4c0.1-0.1,0.1-0.2,0.1-0.4c0-0.1-0.1-0.1-0.1-0.2
			C34.8,106.3,34.7,106.4,34.7,106.4z"/>
		<path class="st0" d="M52.6,54.2c-0.1,0.5-0.1,1-0.2,1.5c0,0.2-0.1,0.4-0.1,0.6c0,0.4,0.1,0.6,0.6,0.5c0.8-0.1,1.7-0.2,2.5-0.3
			c0.2,0,0.4-0.1,0.5-0.3c0.1-0.2,0.3-0.2,0.4-0.1c0.2,0.1,0.5,0.1,0.8,0.3c0-0.3,0-0.6,0-0.8s0-0.4,0.1-0.7
			c0.1-0.1,0.2-0.2,0.3-0.1c0.2,0.3,0.5,0.5,0.4,0.9c-0.1,0.7,0.2,0.9,0.9,0.9c0.2,0,0.4,0,0.6,0c0,0.1,0,0.3,0,0.4
			c0,0.1,0.1,0.2,0.1,0.3c0.1-0.1,0.3-0.1,0.4-0.2c0.1-0.2,0.2-0.5,0.3-0.7c0.1-0.2,0.1-0.4,0-0.7c-0.1-0.4-0.1-0.7,0.3-1.1
			c0.1,0.3,0.1,0.6,0.1,0.8c0.1,0.2,0.1,0.4,0.1,0.6c0.1,0.4,0.5,0.6,0.9,0.3c0.5-0.4,1.2-0.5,1.7-0.7c0.1,0,0.1,0,0.1,0
			c0.1,0.3,0.1,0.6,0.1,0.8c0.1,0.4,0.4,0.4,0.7,0.4c0.1,0,0.3-0.1,0.4-0.1c0.4-0.1,0.7-0.1,1.1,0c0.1,0.1,0.4,0,0.5,0
			c0.5-0.1,1.1-0.3,1.6-0.4c0.2,0,0.4,0.1,0.6,0.3c0.3,0.1,0.5,0.3,0.9,0.1c0.3-0.2,0.3-0.5,0.3-0.8c0-0.2,0-0.4-0.1-0.7
			c0.3-0.1,0.4,0.1,0.4,0.3c0.1,0.4,0.1,0.9,0.2,1.4c0.1,0.1,0.2,0.4,0.4,0.4c0.1,0,0.4-0.1,0.5-0.2c0.2-0.1,0.1-0.3-0.1-0.4
			c-0.1,0-0.1-0.1-0.2-0.1c0.1-0.1,0.1-0.1,0.2-0.1c0.5,0,0.9-0.4,0.9-0.9c0-0.3,0-0.6,0-0.9c0.3,0,0.4,0.1,0.4,0.4v0.1
			c-0.1,0.7,0.1,0.8,0.7,0.7c0.1,0,0.3,0,0.4,0c0.3,0,0.4,0.1,0.6,0.3c0.2,0.4,0.4,0.4,0.8,0.2c0.1-0.1,0.3-0.1,0.4-0.1
			s0.3,0,0.4,0.1c0.7,0.4,1.2,0.4,1.9,0.1c0.1-0.1,0.3-0.1,0.4-0.1c1,0.1,2,0.3,3,0.4c0.1,0,0.1-0.1,0.2-0.1
			c0.3-0.4,0.4-0.4,0.7-0.1c0.4,0.3,0.9,0.4,1.4,0.2c0.3-0.1,0.5-0.3,0.4-0.7c0-0.1,0.1-0.2,0.1-0.3c0.1,0.1,0.3,0.1,0.4,0.1
			c0.1,0.5,0.5,0.7,1,0.9c0.1,0,0.1,0.1,0.3,0.2c0.2-0.4,0.7-0.6,1.2-0.4c0.1,0,0.3-0.1,0.4-0.2C87,56.2,87,56,86.9,55.9
			c-0.1-0.1-0.3-0.2-0.3-0.4c-0.1-0.2,0.2-0.4,0.5-0.3c0.7,0.1,0.7,0.1,0.9-0.6c0.1-0.4,0.3-0.8,0.7-1c-0.1,0.7-0.2,1.5-0.3,2.3
			c0.2-0.1,0.4-0.1,0.7-0.2c0.3-0.1,0.4-0.1,0.7,0.1c0.5,0.3,1.1,0.5,1.7,0.8c0.3,0.1,0.6,0.1,0.9-0.1c0.2-0.1,0.4-0.2,0.7-0.3
			c0.1,0,0.4,0,0.4,0.1c0.3,0.3,0.6,0.4,0.9,0.1c0.1-0.1,0.2-0.1,0.3-0.1c-0.1-0.4-0.1-0.9-0.1-1.5c0.7,0.4,0.7,1.2,1.2,1.7
			c0.1-0.1,0.2-0.2,0.3-0.4c0.1-0.1,0.3-0.1,0.4,0c0.1,0.4,0.5,0.4,0.9,0.5c0.1,0,0.2,0,0.4,0c-0.1,0.3-0.1,0.5-0.1,0.8
			c0.4,0.1,0.7,0.1,1-0.1c0.1-0.1,0.4-0.2,0.5-0.3c0.6-0.2,0.9-0.7,0.9-1.2c0-0.3,0.1-0.6,0.1-0.9c0-0.4,0.1-0.5,0.5-0.5
			c0.1,0.6,0.4,1.2,0.2,1.8l0.1,0.1c0.5-0.1,1-0.1,1.5,0.1c0.1,0.1,0.4,0,0.7-0.1c0.3-0.1,0.6,0,0.9,0.2c0.4,0.2,0.7,0.4,1.1,0.5
			c0.4,0.1,0.6-0.1,0.6-0.6c-0.1-0.3-0.1-0.6,0-0.9c0.1-0.7,0.1-1.2,0.2-1.9c0.2,0,0.1,0,0.2,0.4c0.1,0.9,0.3,2,0.4,3
			c0.6-0.1,0.4-0.9,1-0.9c0.1,0.7,0,1.4,0.1,2.1c0.1,0.6,0.3,1.2,0.5,1.7c0,0.1,0.1,0.3,0.1,0.4c-0.2,0.9-0.4,1.9-0.3,2.9
			c0,0.1-0.1,0.3-0.2,0.3c-0.4,0.3-0.5,0.3-0.4,0.8c0.1,0.4,0,0.7-0.2,1c-0.6,0.8-0.7,1.7-0.3,2.7c0.1,0.2,0.3,0.4,0.4,0.6
			c0.4,0.4,0.5,0.7,0.3,1.2c-0.1,0.4-0.2,0.8-0.3,1.2c0,0.1,0.1,0.3,0.2,0.4c0.2,0.2,0.2,0.4,0.1,0.7c-0.3,0.6-0.1,1.3,0.4,1.7
			c0.1,0.1,0.3,0.1,0.4,0.1c0.3,0,0.6-0.1,0.9-0.2c0.1-0.1,0.3-0.2,0.3-0.4c0.1-0.4,0.1-0.9,0.1-1.3c0-0.1,0-0.2,0-0.4h0.1
			c0.1,0.1,0.1,0.3,0.1,0.4c0,0.2,0,0.4,0,0.6c0,0.1,0.1,0.2,0.1,0.3c0.1,0.2,0.3,0.4,0.4,0.6s0.2,0.4,0.5,0.4
			c0.3-0.1,0.4-0.2,0.4-0.5c-0.1-0.6-0.1-1.1-0.1-1.7c0-0.2-0.1-0.4-0.2-0.6c-0.1-0.3-0.2-0.6-0.1-0.9c0.2-0.9,0.3-2,0.2-2.9
			c0-0.1-0.1-0.3-0.1-0.4c-0.6-0.9-0.5-2-0.2-3c0.2-0.8,0.2-1.5,0-2.3c-0.1-0.2-0.1-0.4-0.1-0.7c-0.2-0.5-0.1-0.9,0.1-1.5
			c0.1-0.3,0.3-0.6,0-0.9c-0.1-0.1,0-0.3,0-0.4c0-0.4-0.1-0.5-0.5-0.5c-0.2,0-0.4,0.1-0.7,0.1c0-0.4,0.2-0.4,0.5-0.5
			c0.2,0,0.4-0.1,0.6-0.1c0.3-0.1,0.5-0.4,0.5-0.7c0-0.5,0.1-1,0.1-1.6c0.2-0.1,0.4,0.1,0.4,0.4c0,0.2,0,0.4,0,0.6
			c0,0.2,0.1,0.2,0.3,0.2c0.4,0,0.8-0.1,1.2-0.4c0.3-0.1,0.6-0.4,0.9-0.6c0.3,0.5,0.6,0.9,0.8,1.5c0.7-0.4,1.5-0.4,2.3-0.2
			c0.1-0.7,0.4-1.5,0.5-2.2c0.1,0,0.1,0,0.1,0c0.1,0.1,0.2,0.4,0.2,0.5c0,0.4,0,0.9,0.1,1.4c0,0.1,0,0.3,0,0.5
			c0.2-0.1,0.3-0.1,0.4-0.2c0.1-0.1,0.3-0.1,0.4-0.1c0.1,0.1,0.1,0.2,0.1,0.4c0,0.1,0,0.4,0,0.6c0.3-0.1,0.5-0.1,0.8-0.1
			c0.1,0.3,0,0.5-0.4,0.5c-0.3,0.1-0.4,0.1-0.4,0.4c0,0.1,0,0.2,0,0.3c-0.1,0.6-0.1,1.1,0.4,1.5c0.2,0.2,0.2,0.5,0.1,0.8
			c-0.3,0.8-0.5,1.6-0.8,2.5c0.1,0.1,0.2,0.1,0.3,0.2c0.4,0.4,0.4,0.7,0.1,1.1c-0.1,0.2-0.2,0.4-0.1,0.7c0.1,0.4,0.3,0.9,0.4,1.4
			c0.1,0.2,0.1,0.4-0.1,0.4c-0.4,0.4-0.7,0.7-0.5,1.3c0.1,0.2,0.1,0.4,0.1,0.6c0.1,0.6,0.1,1.1-0.3,1.6c-0.1,0.1-0.1,0.3-0.1,0.4
			c0.1,0.7,0.1,1.4,0.2,2c0,0.1,0.1,0.2,0.2,0.2c0.7,0.2,1.5,0.2,2.2,0c0.1-0.1,0.3-0.2,0.3-0.4c0.1-0.5,0.1-1,0.1-1.5
			c0-0.1,0.1-0.1,0.1-0.2c0.1,0.1,0.1,0.1,0.2,0.2c0.2,0.6,0.3,1.2,0.2,1.9c0,0.1,0.1,0.2,0.1,0.4c0.1-0.1,0.1-0.2,0.1-0.4
			c0-0.1,0-0.2,0.1-0.3c0.1-0.2,0.2-0.4,0.3-0.7c0.1-0.4,0.1-0.7-0.1-1c-0.4-0.4-0.4-0.9-0.4-1.4c0-0.1-0.1-0.3-0.1-0.4
			c0-0.1-0.1-0.4-0.1-0.5c0.1-0.3,0.3-0.7,0.4-0.9c0.2-0.4,0.3-0.7,0-1c-0.2-0.2-0.2-0.5-0.1-0.8c0.1-0.5,0-1-0.1-1.5
			c-0.1-0.1-0.1-0.3,0-0.4c0.2-0.7,0.2-1.5,0.1-2.2c-0.1-0.2,0-0.4,0-0.7c0.3-1.2,0.2-2.4-0.4-3.5c-0.1-0.1-0.1-0.2-0.1-0.3
			c-0.1-0.2-0.1-0.4-0.4-0.4c-0.1,0-0.1-0.1-0.3-0.2c1.1-0.1,1.4-0.9,1.9-1.7c0,0.2,0,0.4,0.1,0.5c0,0.1,0.1,0.1,0.1,0.1
			c0.1-0.1,0.1-0.1,0.1-0.2c0.1-0.9,0.2-1.9,0.4-2.8c0.1,0.4,0.1,0.7,0.1,1c0,0.3,0,0.6,0.1,0.9c0,0.2,0.1,0.4,0.3,0.4
			c0.9,0.5,1.9,0.7,2.8,0.7c0.1,0,0.4,0,0.5,0c0.7,0,0.7,0,0.9-0.6c0.1-0.4,0.1-0.9,0.3-1.4c0.1,0.1,0.1,0.3,0.1,0.5
			c0,0.4,0,0.7,0,1c0,0.1,0,0.4,0.2,0.3c0.1,0,0.3-0.2,0.3-0.3c0-0.3,0-0.5-0.1-0.8c0.4,0.1,0.4,0.4,0.4,0.7
			c0.1,0.9,0.3,1.1,1.3,1.1c0.3,0,0.6,0,0.9,0c-0.1,0.2-0.3,0.4-0.4,0.5c-0.1,0.1-0.1,0.1-0.2,0.2c-0.2,0.4-0.5,0.7-1,0.5
			c-0.1,0.6,0,1.1,0.1,1.7c0.1,0.1,0.1,0.4,0,0.6c-0.1,0.8-0.2,1.6-0.4,2.5c0,0.1,0.1,0.2,0.1,0.3c0.1-0.1,0.3-0.1,0.3-0.2
			c0.4-0.6,0.5-1.2,0.7-1.9c0.1-0.3,0.1-0.6,0.1-0.9c0.1-0.5,0.3-0.9,0.6-1.3c0.3-0.3,0.4-0.7,0.5-1.1c0.1-0.3,0.2-0.5,0.4-0.8
			s0.3-0.6,0.4-0.9c0-0.1,0.1-0.1,0.1-0.1c0.1,0.1,0.1,0.1,0.1,0.2c0,0.1,0,0.4-0.1,0.5c0.6-0.1,1-0.4,1.5-0.7
			c0.1-0.1,0.3-0.2,0.6-0.2c0.9,0,1.7-0.1,2.6-0.4c0.3-0.1,0.4-0.1,0.6,0.1c0.4,0.6,0.9,0.7,1.5,0.6c0.3-0.1,0.7-0.1,1-0.1
			c0.1,0,0.4,0,0.5,0.1c0.6,0.1,1.1,0.1,1.7,0.2c-0.2-0.9-0.2-0.9-0.1-1.1c0.1,0.2,0.3,0.4,0.4,0.7c0.3,0.5,0.5,1,0.8,1.5
			c0.1,0.1,0,0.1,0.1,0.2c0,0.1,0.1,0.1,0.1,0.2c0.1-0.1,0.1-0.1,0.1-0.2c0-0.3,0-0.7,0-0.9c0.3,0.1,0.3,0.2,0.3,0.5
			c0,0.7,0,1.3,0.1,2c0.1,0.7,0.1,1.3,0.3,1.9c0.1,0,0.1,0,0.1,0.1c0.1-0.1,0.1-0.2,0.2-0.3c0.1-0.1,0.1-0.1,0.2-0.2
			c0.1,0.1,0.2,0.1,0.2,0.3c0,0.7,0,1.2,0,1.9c0,0.3,0.1,0.7,0.2,0.9c0.2,0.4,0.2,0.7,0.1,1.2c-0.1,0.4-0.1,0.7-0.2,1
			c-0.1,0.3,0.1,0.4,0.4,0.5c0.4,0,0.4-0.1,0.5-0.4c0-0.6,0.1-1.2,0.1-1.7c0-0.1,0-0.1,0-0.1c0.2-0.7,0.4-1.5,0.6-2.2
			c0.1-0.2-0.1-0.4-0.1-0.7c-0.3-0.7-0.3-0.7,0.2-1.2c0.5-0.4,0.6-1.1,0.2-1.7c-0.5-0.9-0.3-2.3,0.5-3c0.3-0.3,0.4-0.7,0.4-1
			c0-0.2,0.1-0.4,0.1-0.7c0.6,0.1,0.6,0.1,0.9-0.3c0,0.4,0.1,0.9,0.1,1.3c0.1,0.4,0.1,0.8,0.3,1.3c0.6-0.3,1.1-0.6,1.6-0.9
			c0.1,0.1,0.1,0.1,0.2,0.2c0.4,0.4,0.8,0.4,1.1,0c0.1-0.1,0.3-0.4,0.4-0.6c0.2-0.4,0.5-0.6,0.9-0.6c0.2,0,0.4,0,0.7,0
			c0,0.5,0,0.5,0.9,0.4c0-0.3,0.3-0.4,0.5-0.7c0.4-0.3,0.7-0.7,0.9-0.9c0.1-0.1,0.2-0.3,0.3-0.5c0.2,0.1,0.4,0.4,0.7,0.5
			c0.1,0.1,0.2,0.1,0.3,0.1c0.7-0.4,1.4-0.7,2-1.1c0.2-0.1,0.4-0.4,0.6-0.7c0.4,0,0.9,0,1.5,0c0.2,0,0.4-0.1,0.7-0.2
			c0.3-0.1,0.5-0.4,0.9-0.2c0.1,0,0.3-0.1,0.3-0.2c0.1-0.4,0.4-0.6,0.9-0.6c1.1,0.1,2-0.4,2.8-1.2c0.1-0.1,0.4-0.2,0.5-0.4
			c0.1,0.5-0.6,0.7-0.6,1.1c0.3,0,0.5,0,0.8,0c0,0.1,0,0.3-0.1,0.5c0.2-0.1,0.4-0.1,0.6-0.1c0.2-0.1,0.4-0.1,0.7-0.2
			c0.1,0,0.1,0,0.2,0.1c-0.1,0.1-0.1,0.1-0.1,0.2c-0.1,0.1-0.1,0.1-0.2,0.1c-0.4,0.1-0.8,0.4-1.2,0.5c-0.5,0.2-1,0.6-1.4,1.1
			c-0.4,0.6-0.9,1.1-1.3,1.6c-0.4,0.4-0.4,0.4-0.9,0.5c0,0.1,0,0.1,0,0.1c0,0.7,0,0.7-0.7,0.9c-0.3,0.1-0.4,0.3-0.4,0.5
			c0.1,0.6-0.1,1-0.6,1.4c-0.1,0.1-0.2,0.2-0.4,0.4c-0.2,0.2-0.4,0.3-0.7,0.1c-0.1-0.1-0.3-0.1-0.4,0.1c-0.1,0.1-0.1,0.2-0.2,0.3
			c-0.4,0.6-0.4,0.6-1.1,0.5c-0.1,0-0.1,0-0.1,0c0,0.1,0,0.2,0,0.3c0.1,0.4-0.1,0.8-0.4,1.1c-0.1,0.1-0.1,0.2-0.1,0.4
			c-0.1,0.2-0.1,0.4-0.3,0.7c-0.2,0.4-0.2,0.4,0.1,0.7c0.4,0.3,0.4,0.4,0.2,0.8c-0.1,0.2-0.3,0.5-0.4,0.7c-0.1,0.1-0.1,0.3,0.1,0.5
			c0.2,0.2,0.2,0.5,0.1,0.7c-0.1,0.1-0.2,0.4-0.3,0.5c-0.1,0.4-0.1,0.6,0.2,0.8c0.1,0.1,0.1,0.2,0.1,0.4c-0.1,0.3,0,0.4,0.2,0.5h0.1
			c0.6,0.2,0.7,0.6,0.2,1c-0.4,0.4-0.6,0.7-0.4,1.4c0.1,0,0.1,0,0.2,0c0.4,0.1,0.7,0.3,0.6,0.7c-0.1,0.7-0.1,1.3-0.1,2
			c0,0.1,0,0.2,0,0.4c0.2-0.1,0.4-0.1,0.7-0.2c0.1,0.9,0.1,1.7,0.1,2.7c-0.4-0.1-0.6,0-0.8,0.3c-0.1,0.3-0.1,0.4,0.1,0.6
			c0.1,0.1,0.2,0.1,0.3,0.1c0.2,0.1,0.2,0.2,0.3,0.4c0,0.4,0,0.7,0.1,1c0.3,0.8,0.1,1.6-0.1,2.3c-0.1,0.2-0.1,0.4,0.1,0.6
			c0.2,0.2,0.2,0.5,0.1,0.9c-0.2,0.6-0.1,0.9,0.4,1.3c0.1,0.1,0.2,0.2,0.2,0.4c0.2,0.6,0.4,1.2,0.6,1.7c0.1,0.3,0.1,0.5-0.1,0.7
			c-0.8,0.7-0.5,1.5,0,2.3c0.2,0.3,0.5,0.6,0.8,0.9c0.1,0.1,0.2,0.3,0.1,0.4c-0.2,0.3-0.4,0.6-0.1,0.9c0,0.1-0.1,0.3-0.1,0.3
			c-0.5,0.3-0.6,0.7-0.1,1.2c0.1,0.1,0.2,0.4,0.2,0.5c0,0.5,0,1,0.2,1.5c0.1,0.4,0.1,0.7-0.1,1.1c0.1,0.1,0.1,0.1,0.2,0.2
			c0.3,0.4,0.3,0.7,0,1.1c-0.1,0.1-0.2,0.4-0.1,0.6c0.1,0.6,0.2,1.2,0.4,1.7c0.1,0.4,0.4,0.8,0.7,0.9c0,0.5,0.1,0.9,0.1,1.3
			c0,0.2,0,0.4-0.1,0.7c-0.2,0.4-0.3,0.8-0.1,1.3c0.3,0.6,0.4,1.2,0.5,1.9c0.2,0.9,0.7,1.7,1.5,2.3c0.1,0.1,0.1,0.1,0.3,0.2
			c-0.8-0.2-1.2-0.9-1.9-1.1c0.1,0.4,0.1,0.6,0.1,0.9c0,0.2,0,0.5-0.1,0.7c-0.1,0-0.1,0-0.1,0c-0.1-0.1-0.1-0.2-0.2-0.4
			c0-0.1,0-0.2,0-0.4c0-0.1-0.1-0.2-0.2-0.2c-0.1,0-0.1,0.1-0.2,0.1c-0.1,0.1-0.1,0.4-0.2,0.5c-0.1,0-0.1,0-0.1,0
			c0-0.1-0.1-0.4-0.1-0.5c-0.1-0.9-0.6-1.5-1.2-2c-0.1-0.1-0.2-0.1-0.4-0.1c-0.4,0-0.6-0.1-0.7-0.5s-0.2-0.5-0.6-0.7
			c-0.6-0.1-0.9-0.5-0.9-1.2c0-0.2-0.1-0.4-0.4-0.4c-0.7-0.1-1.2-0.3-1.9-0.4c-0.1-0.1-0.2-0.1-0.2-0.3c0-0.1,0-0.3-0.1-0.4
			c-0.1-0.1-0.2-0.3-0.4-0.4c-0.5-0.2-0.9-0.4-0.9-1.1c0-0.1-0.1-0.1-0.1-0.1c-0.9-0.4-1.5-1.1-1.9-2c-0.3-0.5-0.7-0.7-1.2-0.7
			c-0.4,0.1-0.7-0.1-0.9-0.5c-0.3-0.6-0.6-1.2-0.9-1.8c-0.1-0.1-0.1-0.1-0.2-0.2c-0.7-0.4-1.5-0.9-2.2-1.4c-0.1-0.1-0.2-0.4-0.2-0.5
			c-0.1-0.4-0.2-0.5-0.7-0.5c-0.1,0-0.4-0.1-0.5-0.2c-0.2-0.1-0.4-0.3-0.7-0.2c-0.6,0.1-1.1,0.3-1.7,0.4c-0.1,0-0.1,0-0.2,0.1
			c0-0.1-0.1-0.2-0.1-0.3c-0.2-0.8-1.2-1.4-2-1c-0.4,0.1-0.9,0.2-1.4,0.3c-0.3-0.6-0.7-0.7-1.4-0.7c-0.6,0-1.2-0.2-1.7-0.4
			c-0.2-0.1-0.3-0.1-0.5,0.1c-0.3,0.3-0.7,0.2-0.9-0.1c-0.2-0.4-0.5-0.4-0.9-0.4c-1.3-0.1-2.6-0.3-3.8-1c-0.1-0.1-0.2-0.1-0.4-0.1
			c-0.1,0-0.1,0.1-0.1,0.1c0.1,0.1,0.1,0.1,0.1,0.1h0.1c0.1,0.1,0.1,0.1,0.2,0.2c-0.1,0-0.1,0.1-0.2,0.1c-0.6-0.2-1.1-0.4-1.7-0.7
			c-0.4-0.1-0.7-0.3-1-0.2c-0.4,0.1-0.8,0-1.1-0.4c-0.2-0.3-0.5-0.3-0.8-0.1c-0.1,0.1-0.3,0.1-0.4,0.2c-0.3,0.1-0.5,0.1-0.8,0
			c-0.1-0.1-0.4-0.1-0.5-0.1c-0.4,0-0.5-0.1-0.7-0.4c-0.1-0.4-0.3-0.5-0.7-0.5c-0.4,0-0.8-0.1-1.2-0.1c-0.4,0-0.7-0.1-0.7-0.4
			c-1.3,0.2-2.6-0.1-3.9-0.1c0-0.1,0-0.1,0-0.1c0.1-0.1,0.3-0.1,0.4-0.1c0.4-0.1,0.7-0.1,1.1-0.1c0.1,0,0.4-0.1,0.3-0.2
			c0-0.1-0.1-0.3-0.3-0.3c-0.1-0.1-0.4-0.1-0.7-0.1c0-0.1,0-0.3,0-0.4c0.6,0.1,1.1,0.2,1.6,0.3c0.3,0.1,0.6,0,0.9,0
			c0.5-0.1,1-0.3,1.6-0.1c0.2,0.1,0.6-0.1,0.9-0.2c0.1,0,0.1-0.1,0.1-0.1c0.3-0.1,0.7-0.2,0.9-0.4c0.3-0.1,0.5-0.1,0.7,0
			c0.4,0.4,0.9,0.4,1.5,0.2c0.4-0.1,0.7-0.1,1.2,0.1c0.4,0.1,0.5,0.1,0.6-0.4c0.1-0.5-0.1-0.8-0.4-1.1c-0.1-0.1-0.1-0.2-0.1-0.3
			c0-0.1,0.1-0.3,0.1-0.5c-0.2,0-0.4,0.1-0.5,0.1c-0.5,0.1-0.9,0.1-1.5-0.1c-0.4-0.1-0.8-0.1-1.2,0c-0.2,0-0.4,0.1-0.5-0.1
			c-0.1-0.1-0.3-0.1-0.4-0.1c0,0.1-0.1,0.2-0.1,0.4c0,0.6,0,1.2-0.1,1.8c-0.4-0.3-0.1-0.7-0.2-1h-0.1c-0.8,0-0.9,0-0.7-0.8
			c0-0.1,0.1-0.2,0-0.4c-0.1-0.2-0.3-0.4-0.4-0.5c-0.1,0.1-0.3,0.3-0.4,0.4c-0.1,0.3-0.2,0.7-0.3,0.9c-0.1,0.1-0.1,0.3-0.3,0.2
			c-0.1,0-0.1,0.2-0.3,0.4c-0.2-0.1-0.3-0.3-0.3-0.5c-0.1-0.2-0.1-0.5-0.2-0.7c-0.1-0.1-0.3-0.1-0.4-0.2c0,0.1,0,0.3,0,0.5
			c-0.1,0.1-0.4,0.4-0.7,0.5c-0.5,0.3-0.9,0.4-1.5,0.2c-0.8-0.3-1.7-0.2-2.6-0.2c-0.1,0-0.2,0-0.4,0c0,0-0.1,0-0.1-0.1
			c0.3-0.7,0.8-0.3,1.3-0.4c-0.1-0.1-0.2-0.2-0.3-0.2c-0.6-0.4-1.2-0.4-1.8,0c-0.2,0.1-0.4,0.1-0.6,0c-0.1-0.1-0.4-0.2-0.5-0.3
			c-0.4-0.1-0.6-0.1-0.8,0.2c-0.1,0.2-0.2,0.5-0.2,0.8c0,0.2,0,0.4,0,0.6c0,0.1-0.1,0.1-0.1,0.1c-0.1-0.1-0.1-0.1-0.1-0.1
			c0.1-0.4-0.1-0.7-0.4-0.9c-0.1-0.1-0.1-0.3-0.1-0.4c0-0.3,0-0.6,0-0.9c-0.7,0-1.2,0.6-1.3,1.3c0,0.4-0.1,0.7-0.5,0.9
			c-0.1-0.3-0.1-0.5-0.1-0.7c0-0.7-0.1-0.7-0.7-0.7c-0.7-0.1-1.4-0.1-2.1-0.2c0.1,0.4,0.3,0.3,0.5,0.4c0.5,0.1,1.1,0.1,1.6,0.2
			c0,0.1,0,0.1,0,0.1c-0.1,0.1-0.3,0.1-0.4,0.1c-1.7-0.1-3.3,0.2-5,0.4c-0.2,0-0.6-0.1-0.8-0.3c-0.2-0.1-0.4-0.4-0.5-0.6
			c-0.1,0.1-0.3,0.1-0.4,0.1c-0.5,0.1-0.7,0.4-0.7,0.9c0,0.6-0.1,1.2-0.1,1.9c-0.1-0.2-0.2-0.4-0.2-0.6c-0.1-0.3-0.1-0.6-0.1-0.9
			c0-0.5-0.3-1-0.7-1.4c-0.1-0.1-0.3-0.1-0.4-0.1c0,0.1-0.1,0.3,0,0.4c0.1,0.2,0.2,0.4,0.3,0.7c0.1,0.1,0,0.3,0,0.6
			c-0.3-0.3-0.6-0.4-0.9-0.7c0,0.4-0.1,0.9-0.1,1.3c-0.1-0.1-0.2-0.2-0.2-0.3s0-0.1,0-0.3c0-0.8-0.2-1.1-0.9-1.2
			c-0.7-0.1-1.2,0-1.9,0c-0.2,0-0.4,0-0.7,0c0.1-0.3,0.1-0.6,0.1-0.8L95.3,80c-0.3,0.1-0.7,0.2-0.8,0.4c-0.1,0.2-0.1,0.6-0.1,0.9
			c-0.1-0.2-0.1-0.4-0.2-0.6C94,80.5,94,80.2,93.9,80c-0.1-0.2-0.2-0.3-0.4-0.1c-0.2,0.1-0.4,0.1-0.5,0.2c-0.1-0.6-0.3-1-0.5-1.6
			c-0.2,0.1-0.3,0.3-0.4,0.4c-0.1,0.1-0.3,0.4-0.4,0.4c-0.2,0.1-0.4,0.2-0.4,0.6c0,0.1-0.2,0.2-0.4,0.3s-0.4,0-0.6,0
			c-0.1,0.5,0.1,1.2-0.4,1.6c-0.1-0.2-0.1-0.4-0.1-0.5c0-0.4-0.1-0.8-0.5-0.9c-0.4-0.1-0.8,0-1.1,0.4c-0.4,0.4-0.9,0.4-1.3,0.1
			c-0.5-0.4-0.7-0.4-0.9,0.1c-0.4,0.5-0.6,1.1-0.7,1.7c0,0.1-0.1,0.1-0.1,0.3c0-0.1-0.1-0.2-0.1-0.3c0-0.3,0.1-0.7,0.1-0.9
			c0.1-0.4,0-0.9-0.3-1.2c-0.1-0.2-0.4-0.5-0.7-0.3c-0.2,0.1-0.3-0.1-0.3-0.2c0-0.2,0.1-0.5,0.1-0.7s0.2-0.4,0.3-0.5
			c0.3-0.5,0.2-0.9-0.1-1.4c-0.4-0.4-0.4-0.4-0.1-0.9c0.1-0.3,0.3-0.6,0.4-0.9c0.1-0.4,0.1-0.7-0.2-0.9c-0.1-0.1-0.1-0.1-0.3-0.3
			c-0.1-0.1-0.2-0.3-0.1-0.5c0.3-0.4,0.5-0.8,0.9-1.2c-0.1-0.3-0.1-0.7,0.1-1.1c0.2-0.4,0.2-0.9-0.1-1.3c-0.2-0.2-0.2-0.5,0-0.8
			c0.6-0.9,0.8-2,0.5-3.1c0-0.1,0-0.2,0.1-0.3c0.7-0.8,0.8-1.8,0.6-2.8c-0.1-0.5-0.1-0.9,0.2-1.3c0.2-0.3,0.3-0.6,0.1-0.9
			c-0.1-0.2,0-0.4,0.1-0.6c0.1-0.5,0.4-1,0.3-1.6c0-0.1-0.1-0.3-0.1-0.4c-0.1,0-0.1,0-0.1,0c-0.1,0.2-0.2,0.4-0.2,0.6
			C86,59.1,86,59.5,86,59.9c0,0.3-0.1,0.5-0.4,0.7c-0.1,0.1-0.2,0.3-0.3,0.5c-0.1,0.1-0.1,0.4-0.1,0.5c0,0.2,0,0.4,0.1,0.6
			c0.1,0.2,0.2,0.4,0,0.5c-0.5,0.6-0.7,1.2-0.5,2c0.1,0.3,0.1,0.7,0.1,1c-0.4-0.3-0.7-0.4-1.2-0.1c0-0.2,0-0.4,0-0.7
			c0-0.1,0-0.1,0-0.3c0-0.9-0.2-1-1.2-0.9c0.1,0.7,0.1,1.5,0.2,2.2c0,0.1,0.3,0.3,0.4,0.4c0.1,0.1,0.1,0.2,0.1,0.3
			c-0.1,0.5-0.1,0.9,0.1,1.5c0.2,0.8,0.1,1.5,0,2.3c-0.1,0.3-0.3,0.7-0.5,0.8c-0.7,0.6-0.7,1.5-0.1,2c-0.1,0.2-0.4,0.4-0.5,0.6
			c-0.3,0.4-0.3,0.5,0.1,0.8c0.3,0.3,0.3,0.5,0,0.9c-0.2,0.3-0.4,0.5-0.7,0.8c0.3,0.1,0.5,0.3,0.7,0.4c0.3,0.1,0.4,0.4,0.4,0.7
			c0,0.2,0,0.5,0.1,0.7c0.1,0.4,0.1,0.7,0.1,1c0.1,0.1,0.2,0.1,0.4,0.2c-0.1,0.1-0.2,0.4-0.4,0.4c-0.8,0.1-0.9,0.7-0.9,1.3
			c0,0.2-0.1,0.4-0.1,0.7s-0.1,0.4-0.4,0.4s-0.5-0.2-0.5-0.5c0-0.2,0.1-0.4,0.1-0.6c0.1-0.5-0.1-0.7-0.5-0.9
			c-0.7-0.2-1.4-0.2-2.1-0.1c-0.3,0-0.4,0.2-0.4,0.5c-0.1,0.6-0.4,0.8-1,0.8c-0.3,0.1-0.6,0.1-0.7-0.3c-0.1-0.3-0.5-0.2-0.6,0.1
			c-0.1,0.3-0.1,0.6-0.1,0.8c0,0.2,0,0.4,0.1,0.6c-0.3-0.1-0.3-0.1-0.3-0.9c-0.2,0-0.4,0-0.6,0c-0.1,0.1-0.1,0.2-0.1,0.4h-0.1
			c0-0.1-0.1-0.3-0.1-0.4c0-0.5-0.1-0.9-0.1-1.5c0-0.2-0.1-0.3-0.3-0.3s-0.4,0-0.6-0.1c-0.1,0-0.2-0.1-0.2-0.2
			c0-0.1,0.1-0.2,0.2-0.2c0.2,0,0.4,0,0.7,0c0.4,0,0.5-0.1,0.4-0.5c-0.1-0.7-0.1-1.2-0.2-1.9c0-0.1,0.1-0.2,0.1-0.4
			c0.1-0.3,0.3-0.5,0-0.8c-0.1-0.1,0.1-0.4,0.1-0.6c0.1-0.3,0.4-0.6,0.3-1c-0.2,0.1-0.4,0.1-0.5,0.1c-0.1-0.6-0.1-1.2-0.1-1.8
			s-0.2-1-0.5-1.5c-0.1-0.2-0.1-0.4,0.1-0.7c0.3-0.4,0.4-0.8,0.4-1.2s0.1-0.8,0.1-1.2c0-0.5-0.1-0.9-0.1-1.4s-0.1-0.9,0.1-1.4
			c0.1-0.4-0.2-0.7-0.6-0.6c-0.7,0.1-1.3,0.3-2,0.4c0,0-0.1,0-0.1,0c0-0.3,0.1-0.5,0.1-0.7c0-0.1,0.1-0.2,0-0.3
			c-0.1-0.1-0.2-0.3-0.4-0.2c-0.1,0-0.3,0.2-0.3,0.3c-0.1,0.2-0.1,0.4-0.1,0.7c-0.8-1-1.9-0.9-3-0.9c0.1,0.6,0.1,1.2,0.1,1.8
			c0.8,0.2,1.7,0.3,2.6-0.3c0.3,0.5,0.7,0.4,1.2,0.4c0.4,0,0.9,0,1.4,0c-0.1,0.2-0.2,0.4-0.3,0.6c0.4,0.1,0.7,0.1,0.9,0.1
			c0,0.4-0.2,0.4-0.4,0.4c-0.5,0-0.9,0-1.5,0c0,0.1,0,0.1,0,0.2c0.1,0.3,0.1,0.5,0.2,0.8c0.1,0.4,0.1,0.6-0.4,0.7
			c-0.4,0.1-0.4,0.1-0.2,0.6c0.1,0.1,0.1,0.2,0.1,0.3c0.2,0.5,0.2,0.8-0.2,1.2c-0.2,0.2-0.4,0.4-0.3,0.7c0.2,0.3,0.5,0.4,0.9,0.4
			c0.2,0,0.4-0.1,0.6-0.1c0.1,0,0.3,0.1,0.4,0.1c0,0.1,0,0.1,0,0.1c-0.1,0-0.2,0-0.3,0c-0.3,0-0.4,0.1-0.3,0.4
			c0.1,0.1,0.1,0.3,0.3,0.4c-0.1,0-0.2,0-0.4,0c-0.8-0.1-1.7,0.1-2.5,0.3c-0.1,0.1-0.3,0-0.4-0.1c-0.3-0.1-0.7-0.3-0.9-0.4
			c-0.6-0.1-1,0.4-1,0.9c0,0.1,0.1,0.4,0.1,0.4c0.4,0.2,0.7,0.3,1.2,0.1c0.4-0.2,0.9-0.2,1.4,0c0.2,0.1,0.4,0.1,0.7,0
			c0.4-0.1,0.4-0.1,0.4,0.3c0,0.5,0.1,0.6,0.6,0.6c0.4,0,0.8,0,1.2-0.1c0.1,0,0.1,0.1,0.2,0.1c-0.1,0.1-0.1,0.1-0.2,0.1
			c-0.1,0.1-0.3,0.1-0.4,0.1c-0.4,0.1-0.5,0.3-0.4,0.7c0.1,0.7-0.3,1.2-0.4,1.8C72,78.1,72,78.4,72,78.6c0,0.1,0,0.3,0,0.4
			C72,79,72.2,79,72.4,79s0.2-0.1,0.4-0.1c0,0.1,0.1,0.3,0.1,0.4c-0.1,0.4-0.1,0.5,0.4,0.5c0,0.3-0.1,0.4-0.4,0.3
			c-0.4-0.1-0.9-0.1-1.2-0.1c-0.1,0.6-0.1,1.2-0.2,1.7c-0.1,0-0.1,0-0.1,0c-0.1-0.1-0.2-0.3-0.4-0.4c-0.4-0.4-0.5-0.4-1-0.2
			c-0.2,0.1-0.5,0.1-0.7,0.1c-1-0.5-2-0.4-3.1,0.1c-0.4,0.2-0.8,0.1-1.2,0c-0.4-0.2-0.9-0.4-1.3-0.1c-0.1,0-0.2,0-0.3-0.1
			c-0.7-0.4-1.4-0.4-2.1-0.1c0,0.4,0,0.9,0,1.3C61.2,82,61,82,60.8,82c-0.1,0.3-0.1,0.7,0.1,0.9c0.1,0.1,0.3,0.1,0.4,0.1
			c0.3,0,0.5-0.1,0.8-0.1c0.4,0,0.5,0,0.6-0.4c0.1-0.2,0.3-0.3,0.4-0.1c0.1,0.1,0.2,0.3,0.4,0.4c0.1,0.1,0.3,0.3,0.4,0.5
			c0.6-0.4,1.2-0.1,1.8-0.1c0.1-0.1,0.1-0.1,0.1-0.2c0.2-0.5,0.2-0.4,0.7-0.4c0.2,0.1,0.4,0,0.7-0.1c0.2-0.1,0.4-0.2,0.7-0.4
			c0.1,0.1,0.1,0.2,0.2,0.4c0.4,0.5,0.5,0.6,1,0.2c0.3-0.2,0.5-0.2,0.9-0.1c0.7,0.1,1.3,0.3,1.9,0.4c0.1,0,0.2-0.1,0.3-0.1
			c0.4-0.2,0.7-0.5,1.1-0.7c0.1,0,0.1,0,0.2,0c0.5,0.2,1.1,0.4,1.6,0.7c0.4,0.1,0.5,0,0.7-0.2c0.1,0.4,0.4,0.4,0.7,0.4
			c1.2,0,2.4-0.1,3.5-0.7c0.1,0.2,0.1,0.4-0.1,0.4c-0.4,0.1-0.7,0.3-1.1,0.4c-0.1,0-0.1,0.1-0.2,0.1c0.1,0.1,0.1,0.1,0.2,0.1
			c0.2,0.1,0.4,0.1,0.7,0.1c0.6,0.3,1.2,0.4,1.9,0.1c0.1,0.4-0.1,0.4-0.4,0.5c-0.5,0-1,0.1-1.5,0.1s-0.9,0-1.5,0
			c-0.6,0-1.2,0.1-1.6,0.4c-0.2,0.1-0.4,0.1-0.6,0.1c-0.6-0.2-0.7-0.2-1,0.3c-0.1,0.1-0.2,0.2-0.4,0.2c-0.1,0-0.4,0.1-0.5,0.1
			c-0.2,0.1-0.5,0.2-0.8,0.1c-0.3-0.1-0.7-0.1-1-0.1c-0.4,0-0.9,0.1-1.2,0.6s-0.7,0.5-1.1,0.3c-0.1,0-0.1-0.1-0.2-0.1
			c-0.4-0.2-0.8-0.1-1.2,0.1c-0.4,0.4-0.9,0.6-1.5,0.8c-0.1,0.1-0.2,0-0.3,0c-0.8-0.1-1.6-0.2-2.4-0.2c-0.3,0-0.5,0.1-0.7,0.5
			c-0.1,0.3-0.4,0.4-0.7,0.4c-0.1,0-0.4,0-0.4,0.1c-0.4,0.2-0.7,0.3-1.2,0.1c-0.1-0.1-0.4-0.1-0.7-0.1c0,0.3,0,0.5-0.1,0.8
			c-0.4-0.1-0.8-0.1-1.2-0.1c-0.2,0-0.4,0-0.6,0.3c-0.4,0.5-0.9,0.6-1.4,0.1c-0.1-0.1-0.3-0.1-0.4-0.1c-0.1,0.1-0.2,0.2-0.2,0.4
			c0,0.2,0,0.4,0,0.7c-0.1-0.1-0.2-0.1-0.4-0.2c-0.4-0.1-0.7-0.2-1.1-0.3c-0.4,0-0.7,0.1-0.8,0.4c-0.1,0.4-0.4,0.4-0.7,0.4
			c-0.4-0.1-0.7-0.2-1-0.3c-0.2-0.1-0.4-0.1-0.6-0.1c0,0.3,0,0.5,0,0.8c-0.2,0-0.4,0-0.6,0c-0.5,0-0.9,0.4-0.9,0.9
			c0,0.4-0.4,1.2-0.9,1.2c-0.1,0.1-0.4-0.1-0.6-0.1c-0.2-0.1-0.5-0.1-0.7-0.1c-0.4,0-0.4,0.1-0.4,0.6c0.1,0.3,0,0.6-0.3,0.7
			c-0.4,0.2-0.6,0.4-0.4,1c-0.2-0.1-0.4-0.2-0.5-0.3c-0.4-0.2-0.6-0.1-0.8,0.2c-0.1,0.2-0.1,0.4-0.2,0.7c-0.1,0.5-0.4,0.8-0.8,0.9
			c-0.3,0.1-0.4,0.3-0.6,0.6c-0.3,0.6-0.8,0.8-1.4,0.9c-0.4,0.1-0.7,0.3-0.8,0.8l0,0c-0.1,0.1-0.1,0.4-0.2,0.5
			c-0.1-0.1-0.3-0.2-0.6-0.4c-0.3,0.1-0.7,0.3-0.9,0.5c-0.4,0.2-0.4,0.6-0.4,0.9c0,0.4,0,0.9-0.1,1.4c0,0-0.1,0-0.1,0.1
			c-0.1-0.1-0.3-0.2-0.4-0.3c-0.1-0.1-0.4-0.2-0.5-0.1c-0.1,0.1-0.3,0.4-0.4,0.6c-0.1,0.1,0,0.4,0,0.4c-0.4,0.1-0.7,0.3-1.1,0.5
			c-0.3,0.1-0.5,0.4-0.7,0.7c-0.1,0.2-0.3,0.4-0.6,0.4c-0.1,0-0.2,0.1-0.3,0.3c-0.1,0.4-0.3,0.9-0.4,1.4c-0.1,0.1-0.1,0.4-0.2,0.5
			c-0.1,0-0.1,0-0.1,0c0-0.3,0-0.6-0.1-1c-0.4,0.4-0.9,0.8-1.2,1.2c0.1-0.5,0.1-0.9,0.2-1.5c0.1-0.5,0.1-1.1-0.1-1.6
			c-0.1-0.1,0-0.3,0.1-0.4c0.3-0.4,0.4-0.9,0.3-1.5c-0.1-0.4-0.1-0.7-0.1-1.1c-0.1-0.2-0.1-0.5-0.2-0.7c-0.1-0.3-0.1-0.4,0-0.7
			c0.2-0.3,0.5-0.5,0.8-0.8c0.1-0.1,0.4-0.3,0.5-0.4c0-0.4-0.1-0.7-0.1-0.9s0-0.5-0.3-0.7c-0.1-0.1-0.1-0.2-0.1-0.4c0.6-1,0.6-2,0-3
			c0-0.1-0.1-0.1-0.1-0.1c0.2-0.2,0.5-0.4,0.7-0.6c0.3-0.3,0.4-0.8,0.1-1.2c-0.1-0.1-0.2-0.2-0.4-0.2c-0.4,0-0.4-0.2-0.4-0.5
			c0.1-0.3,0.2-0.6,0.2-0.9c0.1-0.3,0.1-0.7,0.1-0.9c0-0.1,0.1-0.4,0.1-0.5s0.2-0.3,0.4-0.4c0.2-0.3,0.3-0.5,0.3-0.9
			c-0.1-0.6-0.1-1.2,0.2-1.7c0-0.1,0.1-0.1,0.1-0.2c0.4-0.4,0.3-0.8,0.2-1.2c-0.1-0.4-0.2-0.6-0.7-0.6c-0.2,0-0.2-0.1-0.2-0.3
			c0.1-0.2,0.1-0.4,0.1-0.7c-0.1-0.5,0.1-0.9,0.4-1.2c0.4-0.4,0.7-0.9,1-1.5c0.1-0.1,0.1-0.3,0.1-0.4c-0.2-0.7-0.2-1.2-0.1-1.9
			c0.1-0.2,0-0.4-0.1-0.6c-0.1-0.3-0.1-0.5,0.1-0.7c0.1-0.1,0.1-0.1,0.2-0.2c0.1-0.1,0.4-0.3,0.2-0.6c-0.1-0.3-0.2-0.5-0.5-0.4
			c0-0.6,0-1.1,0-1.6c0-0.4,0.1-0.7,0.3-1c0.1-0.2,0.2-0.6,0.2-0.9c-0.1-0.7,0.1-1.4,0.6-1.9c0.1-0.1,0.1-0.4,0.1-0.5
			c0-0.1,0-0.1,0-0.2c0.5-0.8,0.3-1.6-0.1-2.4c-0.1-0.2-0.1-0.4,0-0.7c0.5-0.5,0.7-1.2,0.6-1.9c0-0.6,0-1.2,0-1.8
			c0-0.2-0.1-0.4-0.4-0.5c-0.8-0.4-1.4-0.9-1.4-1.9c-0.1,0.1-0.2,0.1-0.4,0.1c-0.3,0.1-0.6,0-0.8-0.2c-0.1-0.1-0.3-0.3-0.4-0.4
			c-0.4-0.2-0.6-0.5-0.7-0.9c0-0.1-0.1-0.4-0.1-0.5c-0.1-0.7-0.3-0.8-0.9-0.9c-0.2,0-0.3-0.1-0.4-0.4c-0.1-0.6-0.5-1-1-1.4
			c-0.8-0.5-1.4-1.3-2-2.1c-0.2-0.3-0.4-0.5-0.7-0.7c-0.4-0.3-0.9-0.5-1.3-0.7c-0.1-0.1-0.2-0.1-0.4-0.2c0.5-0.1,0.9,0,1.2,0.3
			c0.2,0.1,0.4,0.3,0.7,0.1c-0.1-0.1-0.2-0.3-0.3-0.5c0.4-0.1,0.7,0,1,0.1c0.7,0.4,1.5,0.9,2.3,1.3c0.2,0.1,0.4,0.1,0.7,0.1
			c0.2-0.1,0.4-0.1,0.6,0.1c0.2,0.2,0.5,0.5,0.7,0.7c0.1,0.1,0.3,0.1,0.4,0.2c0.2,0.1,0.5,0.1,0.7,0.2c0.3,0.1,0.6,0.2,0.9,0.1
			c0.1-0.1,0.2-0.1,0.4-0.1c0.4-0.1,0.5,0.1,0.7,0.4c0.2,0.4,0.4,0.7,0.7,1c0.4,0.4,0.8,0.6,1.4,0.6c0.4,0,0.9,0,1.4,0
			c0.2,0,0.3,0.1,0.3,0.2c0.1,0.2,0.1,0.4,0.1,0.7c0.1,0.3,0.2,0.4,0.5,0.4c0.7-0.1,1.4-0.1,2.1-0.2c0.1,0.4,0.1,0.8,0.7,1
			c-0.1-0.4-0.1-0.9-0.1-1.3h0.1c0.1,0.3,0.3,0.5,0.4,0.8c0.3,0.5,0.6,0.9,1.1,1.2C47,58,47,58.1,47,58.2c0,0.6,0.1,1.2,0.6,1.6
			c0.1,0.1,0.1,0.3-0.1,0.4c-0.3,0.4-0.3,0.5,0,0.9c0.1,0.1,0.1,0.2,0.2,0.3c0.2,0.3,0.1,0.6-0.1,0.9c-0.1,0.1-0.1,0.2-0.2,0.3
			c0.2,0.3,0.4,0.7,0.6,0.9c0.1,0.1,0.1,0.2,0.2,0.3c0.1,0.1,0.3,0.1,0.4,0.1c0.1,0,0.1-0.2,0.1-0.4c0-0.4,0-0.7-0.1-1.2
			c-0.1-0.5,0.1-0.7,0.6-0.7c0.4,0.1,0.4-0.1,0.5-0.4c0.1-0.4-0.1-0.9-0.3-1.2c-0.1-0.2-0.1-0.4,0.1-0.5c0.4-0.2,0.4-0.2,0.4-0.7
			c0-0.1,0-0.4-0.1-0.5c0.1,0,0.2,0,0.3,0c0.4,0,0.4-0.1,0.3-0.4c-0.1-0.2,0-0.3,0.2-0.4s0.4-0.1,0.5-0.3c0.4-0.5,0.7-1,1.1-1.5
			C52.1,54.9,52.4,54.6,52.6,54.2L52.6,54.2z M52.4,69.2c0.4,0.1,0.9,0.9,0.8,1.2C53,70.6,53,70.9,53,71.1c0,0.5,0,1.1,0,1.6
			c0,1.7-0.1,3.4,0.1,5c0,0.1,0,0.1,0,0.3c-0.1,0.2-0.1,0.4-0.1,0.7c-0.1,0.6,0,0.7,0.6,0.6c1.1-0.1,2.2-0.1,3.3,0.1
			c0.5,0.1,0.6,0,0.6-0.5c-0.1-6.8-0.1-13.6-0.2-20.4c0-0.2-0.1-0.4-0.3-0.4c-1.7,0-3.4,0-5,0c-0.2,0-0.4,0.1-0.4,0.3
			c-0.7,1.7-1.2,3.4-1.7,5.2c-0.1,0.4-0.1,0.9-0.5,1.2c-0.1,0.1-0.1,0.2-0.1,0.3c-0.3,0.7-0.5,1.5-0.8,2.3c-0.1,0.1-0.1,0.3-0.2,0.4
			c-0.1-0.1-0.3-0.3-0.4-0.4c0-0.1-0.1-0.1-0.1-0.1c-1-3-2.1-6-3.1-9c-0.1-0.1-0.1-0.3-0.3-0.4c-2.7-1.3-5.4-2.6-8.1-4
			c-1.1-0.6-2.3-1.2-3.4-1.7c-0.1-0.1-0.2,0-0.4,0c0.1,0.1,0.1,0.2,0.1,0.4c0.3,0.3,0.7,0.6,0.9,0.9c1.2,1.2,2.3,2.5,3.6,3.6
			c0.4,0.4,0.7,0.7,0.9,1.2c0.1,0.2,0.2,0.4,0.4,0.5c0.2,0.3,0.6,0.6,0.8,0.9c0.3,0.4,0.4,0.9,0.7,1.3c0.1,0.1,0.1,0.4,0.1,0.5
			c-0.2,2.2-0.4,4.4-0.7,6.6c-0.2,2.4-0.5,4.7-0.8,7.1c-0.2,2.1-0.4,4.3-0.7,6.4c-0.3,2.4-0.5,4.7-0.8,7.1c-0.2,2.2-0.4,4.3-0.7,6.5
			c-0.2,2.1-0.4,4.3-0.7,6.4c0,0.1,0.1,0.3,0.1,0.4c0.1-0.1,0.3-0.1,0.4-0.1c2.4-2.1,4.8-4.2,7.2-6.3c1.2-1.1,2.4-2.1,3.6-3.1
			c1.2-0.9,2.5-1.8,3.6-2.8c0.5-0.4,1.1-0.7,1.7-0.9c0.3-0.1,0.5-0.1,0.8-0.2c1.7-0.4,3.4-0.8,5.1-1.2c1-0.3,2-0.7,3.1-0.7
			c1,0,2-0.1,2.8-0.7c0.1-0.1,0.1-0.1,0.2-0.1c1.5-0.2,3-0.4,4.4-0.7c1.2-0.2,2.5-0.5,3.7-0.8c0.1,0,0.1-0.1,0.1-0.1
			c-0.1-0.1-0.1-0.1-0.2-0.1s-0.1,0-0.1,0c-7.9,0.1-15.9,0.3-23.8,0.4c-0.2,0-0.5,0.1-0.7,0.2c-2.1,1.3-4.2,2.6-6.3,3.9
			c-0.1,0.1-0.2,0.1-0.4,0.2c0.1-0.8,0.1-1.5,0.1-2.3c0.1-1.1,0.2-2.1,0.4-3.2c0.1-1.7,0.3-3.6,0.5-5.3c0.3-2.6,0.6-5.1,0.9-7.7
			c0.1-0.4,0.1-0.9,0.2-1.4c0.1,0,0.1-0.1,0.2-0.1c0.1,0.1,0.1,0.2,0.1,0.3c0.2,0.4,0.5,0.7,0.7,1.2c0.1,0.2,0.1,0.5,0.2,0.8
			c0,0.1,0.1,0.2,0.1,0.3c0.4,0.4,0.7,1,0.6,1.7c0,0.2,0,0.4,0.1,0.6c0.5,1.5,1,3,1.5,4.5c0.1,0.4,0.1,0.8,0.4,0.9
			c0.3,0.1,0.7,0.1,1.1,0.1c0.3,0,0.4-0.1,0.5-0.4c0.9-2.3,1.7-4.7,2.6-7.1C51.7,71.1,52,70.2,52.4,69.2z M165.9,51.4
			c-0.2,0-0.3,0-0.4,0.1c-0.9,0.4-1.7,0.7-2.6,1.1c-0.2,0.1-0.4,0.1-0.6,0.2c-0.4,0.1-0.9,0.3-1.4,0.4c-1.4,0.5-2.8,0.9-4,2
			c-0.3,0.2-0.7,0.4-1,0.4c-0.4,0.1-0.7,0-0.9,0.4c0,0.1-0.1,0.1-0.2,0.1c-1.3,0-2.6,0.5-3.8,0.9c-0.7,0.3-1,0.8-1,1.5
			c-0.1,2.4-0.4,4.7-1.2,7c-0.1,0.1-0.1,0.4,0,0.5c0.2,1.1,0.1,2.2-0.4,3.2c-0.1,0.1-0.1,0.2-0.1,0.3c-0.1,1.4-0.3,2.8-0.4,4.1
			c-0.2,1.6-0.4,3.2-0.6,4.7c0,0.2,0,0.3,0.2,0.3c0.9,0,1.7,0,2.6,0.1c0.4,0,0.8,0,1.2,0c0.2-1.3,0.5-2.6,0.7-3.8c1.2,0,2.2,0,3.3,0
			c0.4,0,0.6,0.2,0.7,0.6c0.1,0.3,0.1,0.7,0.1,0.9c0.4,3.4,0.7,6.6,1.1,10c0.1,0.4,0.1,0.9,0.1,1.5c-0.3-0.1-0.6-0.1-0.8-0.3
			c-1.9-1.2-3.8-2.5-5.7-3.6c-0.1-0.1-0.3-0.1-0.5-0.1c-7.8,0-15.6,0-23.4,0.1c-0.2,0-0.5,0.1-0.7,0.1c0.1,0.1,0.1,0.1,0.2,0.1
			c0.7,0.1,1.5,0.3,2.2,0.4c1.8,0.4,3.6,0.8,5.5,1.2c0.9,0.2,1.8,0.3,2.8,0.5c2.4,0.7,4.8,1.2,7.3,1.2c0.1,0,0.3,0.1,0.4,0.1
			c1.2,0.4,2.3,0.7,3.4,1c0.4,0.1,0.7,0.2,0.9,0.4c4.9,4.4,9.7,8.7,14.6,13.1c0.1,0.1,0.1,0.1,0.2,0.2c0-0.1,0-0.1,0-0.1
			c-0.4-2.3-0.7-4.5-1-6.8c-0.1-0.7-0.4-1.4-0.4-2c0-2.3-0.3-4.6-0.7-6.8c-0.4-1.7-0.7-3.5-0.7-5.3c0-0.3-0.1-0.6-0.1-0.9
			c-0.4-3.2-0.9-6.4-1.3-9.6c-0.5-3.5-0.9-6.9-1.5-10.4c0-0.1,0-0.2,0.1-0.4c0.4-0.8,0.9-1.5,1.6-2.2c2-2,4-4,6-6
			C165.7,51.6,165.8,51.5,165.9,51.4z M144.8,65.9c0-0.1,0-0.1,0-0.1c-0.1-1.5-0.1-3.1-0.1-4.7c0-0.1-0.1-0.3-0.1-0.4
			c-0.4-0.8-0.9-1.5-1.4-2.3c-0.1-0.1-0.1-0.1-0.2-0.2c-2.3-1.1-4.6-1.3-7.1-0.8c-1.7,0.4-2.7,1.5-3.2,3c-0.4,1.4-0.6,2.8-0.6,4.3
			c0,2,0,3.9,0,6c0,0.9,0,1.9,0.1,2.8c0.1,1.5,0.6,2.9,1.5,4.2c0.4,0.4,0.7,0.8,1.3,1c1.5,0.5,2.9,0.9,4.4,0.8
			c2.4-0.1,4.2-1.2,5.1-3.4c0.6-1.4,0.4-2.8,0.4-4.2c-0.5,0-0.9,0-1.4,0c-1.2,0-2.3,0-3.4,0.1c-0.2,0-0.4,0.1-0.4,0.4
			c0,0.9-0.1,1.7-0.1,2.6c0,0.5-0.2,0.8-0.7,0.9c-0.8,0.3-1.6-0.4-1.6-1.3c0-4.1,0.1-8.1,0.1-12.2c0-0.3,0.1-0.7,0.4-0.7
			c0.4-0.1,0.9-0.1,1.3-0.1c0.1,0,0.1,0.1,0.1,0.2c0.1,0.4,0.4,0.9,0.4,1.3c0.1,0.9,0,1.7,0,2.6c0,0.4,0.1,0.6,0.5,0.6
			C141.7,65.9,143.3,65.9,144.8,65.9z M98.5,79c0-0.1,0-0.1,0-0.2c-0.1-1.7-0.6-3.3-1-4.9c-0.1-0.4-0.2-0.7,0-1.1
			c0.1-0.1,0.1-0.4,0-0.5c-0.1-0.4-0.1-0.7-0.1-1c-0.4-2.6-0.8-5.1-1.2-7.7c-0.1-0.6-0.3-1.1-0.4-1.7c-0.1-0.6-0.1-1.2-0.2-1.9
			c-0.1-0.7-0.1-1.4-0.2-2c-0.7,0-1.3,0-2,0c-1.5,0-2.9,0.1-4.3,0.1c-0.2,0-0.3,0.1-0.4,0.3c-0.2,1.2-0.4,2.4-0.6,3.6
			c-0.1,1.3-0.1,2.6-0.5,3.9c-0.1,0.1-0.1,0.4-0.1,0.6c-0.1,1.2-0.1,2.3-0.4,3.4c-0.1,0.3-0.1,0.6-0.1,0.9c-0.1,2.1-0.4,4.1-0.9,6.1
			c-0.1,0.7-0.2,1.5-0.4,2.3c0.1,0.1,0.1,0.1,0.1,0.1c1.4-0.1,2.8-0.1,4.2-0.2c0.1,0,0.3-0.1,0.3-0.3c0.1-0.9,0.4-1.7,0.2-2.7
			c-0.1-0.3,0.3-0.8,0.5-0.8c0.7,0,1.5,0,2.3,0c0.5,0,0.7,0.2,0.7,0.7c0.1,0.9,0.2,2,0.3,2.9c0,0.1,0.1,0.3,0.3,0.2
			c0.6,0,1.1-0.1,1.7-0.1C96.9,79,97.7,79,98.5,79z M66.1,75.5c0-1,0-2,0-2.9c0-0.3,0.1-0.6,0.1-0.9c0-0.2,0.1-0.2,0.3-0.2
			c0.9,0.2,1.7,0.1,2.7,0c0.7-0.1,0.7-0.1,0.7-0.9c0-1-0.1-2-0.1-3c0-0.1-0.1-0.4-0.1-0.5c-0.1-0.2-0.1-0.4-0.4-0.4
			c-0.7,0-1.3,0-1.9,0c-0.4,0-0.9-0.1-1.4-0.1c0-1.3,0-2.5,0-3.7c0-0.3,0.1-0.4,0.4-0.4c0.8,0,1.6,0,2.5,0c0.2,0,0.5,0,0.7-0.1
			c0.1,0,0.2-0.2,0.2-0.3c-0.1-1.3-0.1-2.6-0.1-3.9c-0.1,0-0.1-0.1-0.2-0.1c-0.7,0-1.5-0.1-2.2-0.1c-2,0-4,0.1-6,0.1
			c-0.3,0-0.4,0.1-0.4,0.5c0,0.3,0.1,0.7,0.1,0.9c0.1,1.5,0.1,3,0.2,4.5c0,0.5,0.1,1,0.1,1.6c-0.1,2-0.2,3.9-0.2,5.8
			c0,2.4,0.1,4.8,0.2,7.2c0,0.1,0,0.1,0,0.2c0,0.4,0.1,0.4,0.5,0.4c0.3,0,0.5,0,0.8,0c1.7,0,3.6-0.1,5.3-0.1c0.6,0,1.2,0.1,1.7,0.1
			c0.5,0,0.5-0.1,0.5-0.5c0-0.9,0-1.9,0-2.9c0-0.1,0-0.3,0-0.4C68.7,75.5,67.4,75.5,66.1,75.5z M75.8,62.5c0,1.5,0,2.8,0,4.2
			c0.1,1.5,0.1,2.9,0.2,4.4c0,0.2,0,0.5-0.1,0.7c-0.2,0.9-0.2,1.9,0.1,2.8c0.1,0.1,0.1,0.3,0,0.5c-0.3,1.3-0.3,2.6-0.2,3.9
			c0,0.1,0.1,0.2,0.2,0.2c0.9,0.1,1.8,0.1,2.7-0.2c0.1-0.1,0.3,0,0.4,0.1c0.5,0.2,1,0.3,1.5,0.1c0.2-0.1,0.3-0.1,0.3-0.4
			c0-0.7,0.1-1.4,0-2.1c-0.1-4.2-0.1-8.4-0.2-12.5c0-0.4,0-0.9,0.1-1.3c0-0.3,0.1-0.4,0.4-0.4c0.7,0,1.5,0,2.2,0
			c0.4,0,0.5-0.1,0.5-0.6c0-0.9,0-1.9-0.1-2.8c0-0.4,0-0.7-0.1-1c-0.5,0-1,0.1-1.5,0.1c-2.3,0-4.6,0-6.8,0c-0.3,0-0.6,0.1-0.9,0.1
			c-0.1,0-0.4,0.1-0.5,0c-0.5-0.1-0.9-0.1-1.5-0.2c-0.2,0-0.4,0.1-0.4,0.4c0.1,1.2,0.1,2.4,0.1,3.6c0,0.4,0.1,0.5,0.5,0.5
			c0.5,0,1-0.1,1.5-0.1C74.9,62.5,75.3,62.5,75.8,62.5z M112.5,57.8C112.5,57.9,112.5,57.9,112.5,57.8c-0.1,0.6-0.1,1.1-0.1,1.6
			c-0.1,3.6-0.1,7.2,0.2,10.8c0.1,0.7,0.1,1.5,0.1,2.3c-0.1,0.5,0,1,0.1,1.5c0.1,0.3,0.1,0.5-0.1,0.8c-0.1,0.1-0.1,0.2-0.1,0.3
			c0,1,0,2.1,0,3.1c0,0.7,0.4,0.8,0.9,0.6c0.2-0.1,0.5-0.1,0.8-0.1c1.2,0.1,2.3,0.1,3.6,0.2c1,0,2.1,0,3.1,0c0.3,0,0.5-0.1,0.5-0.4
			c-0.1-0.9-0.1-1.8-0.2-2.8c-0.1-0.7-0.3-0.7-0.9-0.7c-0.5,0.1-1.1,0.1-1.6,0.1c-0.4,0-0.8-0.1-1.2-0.1c0-0.2,0-0.4,0-0.5
			c-0.1-2.2-0.1-4.4-0.1-6.5c0-0.9-0.4-2,0-2.9V65c-0.1-0.9-0.1-1.8-0.1-2.8c-0.1-0.9-0.1-1.7,0-2.7c0.1-0.4-0.1-0.9-0.1-1.4
			c0-0.3-0.2-0.4-0.5-0.4c-0.8,0-1.5,0-2.3-0.1C113.8,57.8,113.2,57.8,112.5,57.8z M106.1,75.2c0-1.5,0-2.9,0-4.3c0-1-0.1-2-0.4-3.1
			c-0.1-0.1-0.1-0.4,0-0.5c0.3-1.2,0.4-2.6,0.1-3.9c-0.1-0.2-0.1-0.5-0.1-0.7c0.3-1.2,0.2-2.3,0.2-3.5c0-0.4-0.1-0.7-0.1-1
			c0-0.2-0.1-0.3-0.3-0.3c-1.2,0-2.3,0-3.5,0c-0.4,0-0.8,0-1.2,0c0,0.1,0,0.1,0,0.2c0,1.3,0,2.7,0,4c0,0.4,0.1,0.7,0.1,1
			c0,0.2,0.1,0.4,0.1,0.6c0,0.9-0.1,1.8-0.1,2.7c0,4.2,0.1,8.2,0.1,12.4c0,0.1,0,0.1,0,0.1c0.7,0,1.5,0,2.2,0c2-0.1,4-0.1,6-0.2
			c0.2,0,0.3-0.1,0.3-0.4c-0.1-0.9-0.1-1.9-0.1-2.8c0-0.3-0.2-0.4-0.5-0.4C108.2,75.2,107.1,75.2,106.1,75.2z M128.8,78.7
			c-0.1-1.2-0.2-2.3-0.3-3.4c-0.1-0.4-0.1-0.8,0.1-1.2c0.1-0.1,0.1-0.3,0.1-0.4c0-1.6,0.1-3.3,0-4.9c0-1.4-0.1-2.8-0.1-4.2
			c0-0.4-0.1-0.9,0-1.2c0-0.4,0.1-0.9,0.1-1.4c0-0.5,0.1-1,0.1-1.5c0-0.7,0-1.4,0-2.1c0-0.6-0.2-0.7-0.7-0.7c-1.2,0-2.5,0-3.7,0
			c-0.4,0-0.5,0.1-0.5,0.5c0,1,0,2,0,3.1c0,0.4,0,0.7,0.2,1c0.1,0.1,0.1,0.4,0.1,0.5c-0.1,0.7-0.2,1.5-0.1,2.3
			c0.1,0.3,0.1,0.6,0.1,0.8c-0.2,1.7-0.2,3.4-0.1,5.2c0.1,2.3,0.1,4.6,0.1,6.8c0,0.2,0,0.4,0.1,0.7c0,0.1,0.2,0.2,0.3,0.2
			C125.8,78.9,127.3,78.9,128.8,78.7z M145.4,82.8c0.5-0.1,1-0.2,1.5-0.3c0.1,0,0.3,0,0.4,0.1c0.3,0.2,0.5,0.1,0.7,0
			c0.2-0.2,0.5-0.4,0.7-0.7c0.1-0.1,0.4-0.1,0.5,0c0.4,0.3,0.8,0.4,1.2,0.4c0.3,0,0.6,0.1,0.9,0.1c0.2,0.1,0.4,0.1,0.2,0.4
			c-0.1,0.4,0.1,0.7,0.4,0.7c0.1,0,0.3,0,0.4,0c0.7-0.1,0.8,0,0.9,0.7c0.1,0.5,0.4,0.7,0.9,0.7c0.1,0,0.4,0,0.5,0
			c0.2,0.4,0.4,0.8,1,0.9c0-0.2-0.1-0.4-0.1-0.5c0.1-0.6-0.2-1-0.6-1.3c-0.1-0.1-0.3-0.4-0.4-0.5c0.2-0.2,0.4-0.4,0.6-0.7
			c0.2-0.3,0.3-0.6,0.1-1c-0.1-0.2-0.1-0.5-0.1-0.7c0.1-0.4,0.2-0.7,0.4-1c-0.1-0.1-0.2-0.3-0.4-0.4s-0.2-0.4-0.4-0.5
			c-0.4-0.7-0.4-0.7,0.3-1l0,0c-0.1-0.3-0.1-0.5-0.1-0.7c-0.1-0.3-0.1-0.6-0.1-0.8c0-0.1-0.1-0.1-0.3-0.1c-0.3,0-0.5,0-0.8,0
			c-0.2,0-0.4,0-0.7-0.1c0.1,0.1,0.1,0.3,0.1,0.4c0.3,0.5,0.3,0.9-0.2,1.4c-0.1,0.1-0.1,0.3-0.1,0.5c0.1,0,0.3,0.1,0.4,0.1
			c0.2,0,0.4-0.1,0.5,0.3c-0.6,0.1-0.8,0.1-0.9,0.3c-0.2,0.5-0.4,1-0.7,1.5c-0.3,0.1-0.7,0.2-1,0.4c-0.1-0.1-0.3-0.2-0.4-0.3
			c-0.2-0.1-0.4-0.2-0.6-0.1c-0.2,0-0.4-0.1-0.5-0.2c-0.1-0.1-0.2-0.3-0.4-0.3c-0.4-0.1-0.9-0.1-1.4-0.1c-0.7-0.1-0.7-0.1-0.8,0.5
			c0,0.1-0.1,0.1-0.1,0.3c-0.1,0.3-0.1,0.6-0.1,0.9c0,0.1-0.1,0.3-0.3,0.3c-0.2,0.1-0.2-0.1-0.2-0.3c0-0.2,0-0.5,0-0.7
			c-0.4,0-0.4,0.7-0.8,0.4c-0.1-0.3-0.1-0.5-0.3-0.7c-0.1-0.2-0.1-0.3,0-0.4c0.1-0.1,0.1-0.3-0.1-0.4c-0.4-0.3-1.1-0.4-1.3,0.3
			c-0.1,0.3-0.2,0.6-0.6,0.7c0.1-0.7,0.5-1.2,0.4-2c-0.2,0.3-0.4,0.6-0.6,0.8c-0.2,0.2-0.4,0.4-0.7,0.4c-0.6,0.1-0.7,0.4-0.7,0.9
			c-1.2,0.1-2.6-0.3-3.6,0.7c-0.1-0.2-0.3-0.4-0.5-0.5c-0.4-0.4-0.9-0.7-1.6-0.6c-0.5,0.1-0.9-0.1-1.2-0.4c-0.4-0.4-0.8-0.4-1.3-0.3
			c-0.1,0.4,0.4,0.8,0.1,1.4c-0.1-0.2-0.2-0.4-0.3-0.5c-0.6-1.2-1.2-2.3-2-3.3c-0.3-0.4-0.4-0.8-0.4-1.2c0.1-0.5-0.1-0.8-0.5-1.1
			c-0.3-0.2-0.4-0.5-0.4-0.9c0-0.1,0-0.3-0.1-0.4c-0.4,0.7-0.4,1.5,0,2c0.3,0.5,0.3,0.9,0.2,1.5c-0.1,0.3-0.1,0.7-0.1,0.9
			c-0.1,0.5,0,0.6,0.5,0.7c0.4,0,0.9,0,1.3,0c0,0.4-0.4,0.7-1,0.6c-0.1,0-0.3-0.1-0.4,0c-0.1,0.1-0.1,0.2-0.1,0.4c0.1,0,0.3,0,0.4,0
			c0.1,0,0.2,0.1,0.3,0.1v0.1c-0.1,0.1-0.2,0.1-0.3,0.1c-0.1,0-0.4,0-0.5,0.1c-0.3,0.1-0.3,0.4-0.3,0.7c0,0.1-0.1,0.1-0.1,0.2
			c-0.1-0.1-0.1-0.1-0.1-0.2c0-0.1,0-0.3,0-0.5c-0.4,0.2-0.4,0.4-0.4,0.7c0.1,0.3,0.1,0.6,0.1,0.9c0,0.1,0.1,0.4,0.1,0.4
			c0.1,0,0.3-0.1,0.4-0.1c0.1-0.1,0.1-0.2,0.3-0.2c0.1-0.1,0.2-0.1,0.3-0.1c0.4,0.1,0.8,0.4,1.2,0.6c0.1,0,0.1,0.1,0.2,0.1
			c1-0.3,2-0.6,3-0.8c0.3,0.1,0.6,0.4,0.9,0.5c0.6,0.2,1.2,0.3,1.7-0.1c0.1-0.1,0.1-0.1,0.2-0.1c0.3,0,0.6,0,0.9,0
			c0.4,0,0.9,0.1,1.2,0.1c0.1,0,0.2-0.1,0.3-0.1c0.4-0.5,0.5-0.5,1.1-0.2c0.1,0.1,0.2,0.1,0.3,0.1c0.2,0.1,0.4,0.1,0.6,0
			c0.6-0.2,1.2-0.1,1.7,0.2c0.1,0.1,0.3,0.1,0.5,0.1c0.1-0.1,0.3-0.1,0.5-0.1C145.5,82.5,145.5,82.6,145.4,82.8z M58,81.6
			c0,0.1,0,0.2,0,0.3c-0.1,0.1-0.1,0.1-0.2,0.2c-0.1-0.1-0.1-0.1-0.1-0.2c0-0.1,0-0.3,0-0.4c0-0.2-0.1-0.3-0.3-0.2s-0.2,0.1-0.3,0.2
			c-0.1,0-0.3,0.1-0.4,0c-0.4-0.3-0.7-0.2-1-0.1c-0.3,0.1-0.4,0.1-0.7-0.1c-0.1-0.1-0.3-0.1-0.4-0.1c-0.4,0.1-0.6,0-0.9-0.2
			c-0.1-0.1-0.4-0.3-0.6-0.4c-0.1,0.3-0.1,0.6-0.1,0.8c-0.1,0.4-0.1,0.4-0.6,0.4c0-0.1,0-0.3,0-0.4c0-0.1-0.1-0.3-0.2-0.2
			c-0.3,0.1-0.3-0.1-0.3-0.4s0-0.4,0-0.6c-0.4-0.1-0.7-0.1-1.2-0.2c0.2-0.1,0.4-0.2,0.5-0.4c0.3-0.2,0.4-0.5,0.4-0.9
			c-0.1-0.6,0-1.1,0.4-1.5c0.1-0.1,0-0.3-0.1-0.4c-0.1-0.1-0.6-0.1-0.9,0.1c-0.3,0.1-0.4,0.4-0.3,0.7c0.1,0.3,0.1,0.5-0.2,0.7
			c-0.1,0.1-0.4,0.3-0.4,0.4c0,0.4-0.1,0.4-0.5,0.4c0,0.1,0,0.2,0,0.3s0,0.2,0,0.3c0.6-0.1,0.6-0.1,0.5,0.3c-0.4,0-0.4,0-0.4,0.5
			c-0.7,0.3-0.7,0.3-1.3,1c-0.1,0.1-0.3,0.2-0.4,0.1c0.2-0.6-0.1-1.1-0.7-1.2c0.1,0.5,0.3,1.1,0.4,1.7c-0.2-0.1-0.4-0.1-0.5-0.2
			c-0.1-0.1-0.4-0.2-0.4-0.4c-0.1-0.4-0.3-0.6-0.7-0.6c-0.1,0-0.3-0.1-0.3-0.2c0-0.4-0.2-0.5-0.5-0.6C45.2,80,45,80,44.8,80
			c-0.1,0-0.4,0-0.4-0.3c0.3,0,0.6,0,0.9,0c0.1,0,0.3-0.1,0.3-0.2c0-0.1-0.1-0.3-0.1-0.4c-0.1-0.1-0.3-0.2-0.5-0.4
			c0.1-0.1,0.1-0.4,0.1-0.6c0.1-0.5,0-0.7-0.5-0.8c-0.2-0.1-0.5-0.1-0.7-0.2c0.1-0.4,0.4-0.7,0.4-1.1c0.1-0.4,0-0.9-0.4-1.2
			c-0.1-0.1-0.2-0.1-0.3-0.1c0,0.1-0.1,0.2-0.1,0.3c0.2,0.4,0.1,0.8-0.1,1.2c-0.1,0-0.3,0-0.4-0.1c-0.3,0-0.3,0.1-0.2,0.4
			c0.2,0.7,0.5,1.3,0.7,1.9c0.1,0.1,0,0.3-0.1,0.4c-0.1,0.3-0.2,0.6-0.3,0.9c0,0.4,0,0.9,0.1,1.3c-0.1,0-0.4,0-0.5,0.1
			c-0.2,0.1-0.4,0.1-0.4,0.4c0,0.2,0.1,0.4,0.4,0.4c0.1,0,0.3,0,0.4,0.1c0.1,0,0.2,0.1,0.2,0.1c0,0.9,0.3,1.9-0.6,2.7
			c-0.2,0.2-0.4,0.6-0.4,0.9c0,0.1,0.1,0.2,0.2,0.4c0.1-0.1,0.2-0.2,0.2-0.4c0-0.2,0.1-0.3,0.2-0.4c0.4-0.2,0.7-0.4,1.1-0.6
			c0.3-0.1,0.5-0.4,0.8,0.1c0.1-0.4,0.2-0.7,0.4-0.9c0.4,0,0.7,0,1.2,0c0.4,0,0.6-0.1,0.7-0.4s0.4-0.6,0.7-0.5s0.4-0.1,0.6-0.3
			c0.1-0.3,0.4-0.4,0.7-0.3c0.4,0.1,0.9,0.4,1.4,0.5c0.7,0.2,0.8,0.2,0.9-0.5l0,0c0.5,0.1,0.9,0.1,1.4,0.1c0.1,0,0.2,0.1,0.3,0.1
			c0.3,0.4,0.7,0.3,1.1,0.2c0.1-0.1,0.4,0,0.5,0.1c0.3,0.2,0.4,0.1,0.7-0.1c0.1-0.1,0.1-0.1,0.2-0.2c0.2-0.2,0.4-0.2,0.6,0
			c0.1,0.1,0.2,0.1,0.3,0.1c0.4,0,0.8-0.1,1.2-0.1c0.2-0.1,0.4-0.2,0.5-0.4C58.6,82,58.4,81.6,58,81.6z M139.6,68.5
			c0.1,0,0.1,0.1,0.1,0.1c0,0.2,0,0.4,0,0.6c0,0.4,0.1,0.7,0.4,0.8c0.1,0.1,0.3,0.1,0.4,0.1c0.4-0.3,0.7-0.2,1.1,0
			c0.6,0.4,1.2,0.4,1.7,0.1c0.9-0.3,1.7-0.6,2.7-0.9l0,0c-0.3,0.2-0.5,0.4-0.8,0.7c1.2,0.5,1.8,0.1,1.8-1c0-0.6-0.2-1.2-0.4-1.7
			c-0.1-0.4-0.4-0.4-0.7-0.4c-0.3,0.1-0.5,0.3-0.5,0.7c0,0.2,0,0.4,0,0.7s-0.1,0.4-0.4,0.4c0-0.3-0.1-0.5-0.1-0.8
			c-0.1-0.3-0.2-0.4-0.5-0.4c-0.4,0.1-0.8,0.1-1.2,0.1c-0.5,0-0.9,0.1-1.2,0.5h-0.1c-0.1-0.1-0.2-0.2-0.3-0.3
			c-0.5-0.4-1.1-0.6-1.7-0.3c-0.4,0.1-0.4,0.1-0.7-0.2c-0.1-0.1-0.1-0.2-0.2-0.2c-0.3-0.1-0.4,0-0.4,0.3c-0.1,0.5-0.1,1.1-0.1,1.6
			c-0.1,0.9-0.4,1.7-0.5,2.7c-0.1,0.4,0.1,0.8,0.5,0.9c-0.1-1.2,0.2-2.4,0.7-3.5C139.4,68.9,139.5,68.7,139.6,68.5z M99.2,69.5
			c0-0.1,0.1-0.1,0.1-0.2c0.1-0.4,0.1-0.7,0.2-1c0.1-1,0.1-2.1-0.1-3.1c-0.1-0.6-0.1-1.2,0.2-1.7c0.1-0.2,0.1-0.5,0.1-0.7
			c-0.1-0.4-0.2-0.9-0.4-1.2c-0.1-0.3-0.1-0.5-0.1-0.8c0.3-0.9,0.3-1.7,0-2.6c-0.1-0.1-0.1-0.3-0.3-0.2c-0.5,0.1-1,0.4-1.5,0.5
			c-0.1,0.1-0.2,0.1-0.1,0.4c0.2,0.5,0.4,1.1,0.6,1.6c0.1,0.1,0.1,0.3,0,0.4c-0.3,0.9-0.3,1.7,0.3,2.5c0.1,0.1,0.1,0.1,0,0.3
			c-0.1,0.1-0.1,0.3-0.1,0.4c-0.5,0.8-0.6,1.5,0,2.3c0.1,0.2,0.2,0.5,0.2,0.8c0,0.5,0.1,1,0.3,1.5C98.8,68.7,99.1,69.1,99.2,69.5z
			 M130,71.9L130,71.9c0,0.3,0,0.6,0,0.9c0,0.2,0.1,0.4,0.2,0.6c0.1,0.3,0.3,0.3,0.4,0c0.1-0.3,0.2-0.7,0.4-0.9s0.1-0.6-0.2-0.8
			c-0.2-0.1-0.2-0.3-0.1-0.6c0.3-1,0.4-2,0-3.1c-0.1-0.2-0.1-0.5,0.1-0.7c0.3-0.5,0.1-0.9,0.1-1.5c0-0.1-0.2-0.1-0.3-0.2
			c-0.1,0.1-0.1,0.2-0.1,0.3c0,0.2,0.1,0.5-0.1,0.7c-0.6,0.7-0.5,1.3-0.3,2c0.1,0.5,0.2,0.9,0.3,1.5c0,0.2-0.1,0.4-0.1,0.7
			c-0.1,0.2-0.1,0.4-0.1,0.6C130,71.5,130,71.7,130,71.9z M59.1,71.6c0.5-0.4,0.7-0.7,0.6-1.3c-0.1-0.3-0.1-0.6-0.2-0.9
			c-0.1-0.3-0.1-0.6,0.1-0.9s0.3-0.7,0.3-1.1c0-0.6-0.1-1.2-0.2-1.7c-0.1-0.2-0.3-0.4-0.4-0.6c0,0-0.3,0.1-0.3,0.1
			c0,0.2,0,0.4,0.1,0.7c0.2,0.4,0.3,0.9,0.2,1.3c-0.1,1.2-0.2,2.3-0.3,3.4C59,71,59.1,71.2,59.1,71.6z M58.9,61.2
			c0.6-0.5,0.8-1.1,0.7-1.8c-0.1-0.3,0-0.4,0.1-0.7c0.1-0.1,0.2-0.4,0.4-0.7c-0.4,0-0.7,0-1,0c-0.2,0-0.4,0.1-0.4,0.3
			C58.5,59.4,58.6,60.2,58.9,61.2z M59.9,82.5c-0.1-0.9-0.3-1.8-0.4-2.6c0-0.1-0.1-0.2-0.2-0.1c-0.1,0-0.4,0.1-0.4,0.2
			c-0.1,0.1,0,0.4,0.1,0.4c0.4,0.3,0.4,0.7,0.3,1.1C59.1,81.7,59,82,59,82.2c-0.1,0.4,0.1,0.6,0.5,0.6
			C59.6,82.7,59.7,82.6,59.9,82.5z M59,75.4c0,0.4-0.1,0.7-0.1,1c0,0.7,0.2,1.4,0.1,2c0,0.1,0,0.1,0.1,0.2c0.1,0.1,0.1,0.1,0.2,0.1
			s0.1-0.1,0.1-0.1c0.1-0.9,0.1-1.8,0-2.8C59.4,75.6,59.3,75.5,59,75.4z M99.4,77.9c0.1-0.4,0-0.8,0.1-1.1c0.4-0.7,0.4-1.5,0.2-2.3
			c0-0.2-0.1-0.4-0.4-0.4c0,0.1,0,0.3,0,0.4c0.1,0.4,0.1,0.9,0.1,1.4c0,0.2,0,0.5-0.1,0.7c-0.3,0.3-0.3,0.6-0.2,0.9
			C99.1,77.7,99.3,77.8,99.4,77.9z M144.7,78.9c0.3-0.1,0.5-0.1,0.7-0.1c0.3,0,0.4-0.1,0.4-0.4c0-0.2,0-0.5-0.1-0.7
			c0-0.1-0.2-0.3-0.3-0.4c-0.1,0-0.2,0.1-0.2,0.1c-0.1,0.1-0.1,0.3-0.2,0.4C144.9,78.1,144.6,78.5,144.7,78.9z M111.7,78.6
			c-0.1-0.3-0.1-0.7-0.3-0.9c-0.1-0.2-0.2-0.2-0.4-0.1c-0.4,0.2-0.2,0.6-0.1,0.9c0.1,0.3,0.2,0.4,0.5,0.5
			C111.6,79,111.7,78.8,111.7,78.6z M59.3,63.2c0.2-0.7,0-1.2-0.2-1.7c-0.1-0.1-0.2-0.1-0.4-0.2l-0.1,0.1C59,62,58.7,62.7,59.3,63.2
			z M71,62.4c0.1,0,0.1-0.1,0.1-0.1c-0.1-0.4-0.1-0.9-0.1-1.3c0-0.1-0.1-0.1-0.3-0.2c-0.1,0.1-0.2,0.2-0.2,0.3
			c0,0.3,0.1,0.7,0.1,0.9C70.8,62.1,70.9,62.2,71,62.4z M99.6,71.7L99.6,71.7c0.1-0.1,0-0.2,0-0.2c-0.1,0-0.2,0-0.3,0.1
			c-0.2,0.1-0.3,0.4-0.1,0.7c0.1,0.1,0.1,0.3,0.2,0.4c0.1,0.1,0.2,0.1,0.3,0.2c0.1-0.1,0.1-0.2,0.1-0.4
			C99.7,72.2,99.6,71.9,99.6,71.7z M70.9,59.5c0.4-0.3,0.5-0.9,0.3-1.2c-0.1-0.2-0.3-0.2-0.5-0.1C70.7,58.6,70.8,59.1,70.9,59.5z
			 M99.7,78.7c0,0.4-0.1,0.7,0.1,0.9c0.1,0.1,0.3,0,0.3,0c0.1-0.2,0.1-0.4,0.1-0.6C100.2,78.7,99.9,78.7,99.7,78.7z M122.7,77.2
			c-0.1,0.3-0.1,0.6-0.1,0.8c0,0.1,0.1,0.1,0.2,0.2l0.1-0.1C123,77.9,123,77.4,122.7,77.2z M110.9,74.6c0,0.1-0.1,0.1-0.1,0.1
			c0.1,0.1,0.1,0.3,0.3,0.4c0.1,0.2,0.3,0.1,0.4-0.1c0.1-0.1,0.1-0.4,0-0.4C111.2,74.7,111,74.7,110.9,74.6z"/>
		<path class="st0" d="M84.1,65.8c0.2,0.5,0.1,0.7-0.4,0.6C83.9,66.2,84,66,84.1,65.8z"/>
		<path class="st0" d="M52.6,54.3c0-0.1,0-0.3,0.1-0.4c0-0.1,0.1-0.1,0.1-0.1c0,0,0.1,0,0.1,0.1c0,0.1,0,0.3,0,0.5
			C52.9,54.2,52.6,54.2,52.6,54.3C52.6,54.2,52.6,54.3,52.6,54.3z"/>
		<path class="st0" d="M34.7,106.4c0.1-0.1,0.1-0.1,0.2-0.2c0.1,0.1,0.1,0.1,0.1,0.2c0,0.1-0.1,0.2-0.1,0.4
			C34.7,106.7,34.7,106.6,34.7,106.4z"/>
		<path d="M52.4,69.2c-0.4,0.9-0.7,1.8-1,2.8c-0.9,2.3-1.7,4.7-2.6,7.1c-0.1,0.3-0.2,0.4-0.5,0.4c-0.4,0-0.8,0.1-1.1-0.1
			c-0.2-0.1-0.3-0.6-0.4-0.9c-0.5-1.5-1-3-1.5-4.5c-0.1-0.2-0.1-0.4-0.1-0.6c0.1-0.7-0.1-1.2-0.6-1.7c-0.1,0.1-0.1,0-0.1-0.1
			c-0.1-0.3-0.1-0.6-0.2-0.8c-0.2-0.4-0.5-0.8-0.7-1.2c-0.1-0.1-0.1-0.2-0.1-0.3c-0.1,0-0.1,0.1-0.2,0.1c-0.1,0.4-0.1,0.9-0.2,1.4
			c-0.3,2.6-0.6,5.1-0.9,7.7c-0.2,1.7-0.4,3.6-0.5,5.3c-0.1,1.1-0.3,2.1-0.4,3.2c-0.1,0.7-0.1,1.5-0.1,2.3c0.2-0.1,0.3-0.1,0.4-0.2
			c2.1-1.3,4.2-2.6,6.3-3.9c0.2-0.1,0.4-0.2,0.7-0.2c7.9-0.1,15.9-0.3,23.8-0.4c0.1,0,0.1,0,0.1,0c0.1,0.1,0.1,0.1,0.2,0.1
			c-0.1,0.1-0.1,0.1-0.1,0.1c-1.2,0.3-2.5,0.6-3.7,0.8c-1.5,0.3-3,0.5-4.4,0.7c-0.1,0-0.1,0-0.2,0.1c-0.9,0.5-1.9,0.7-2.8,0.7
			c-1.1-0.1-2.1,0.4-3.1,0.7c-1.7,0.4-3.4,0.8-5.1,1.2c-0.3,0.1-0.5,0.1-0.8,0.2c-0.7,0.1-1.2,0.4-1.7,0.9c-1.2,0.9-2.5,1.8-3.6,2.8
			c-1.2,1-2.5,2.1-3.6,3.1c-2.4,2.1-4.8,4.2-7.2,6.3c-0.1,0.1-0.2,0.1-0.4,0.1c0-0.1-0.1-0.3-0.1-0.4c0.2-2.1,0.4-4.3,0.7-6.4
			c0.2-2.2,0.4-4.3,0.7-6.5c0.3-2.4,0.5-4.7,0.8-7.1c0.2-2.1,0.4-4.3,0.7-6.4c0.3-2.4,0.5-4.7,0.8-7.1c0.2-2.2,0.4-4.4,0.7-6.6
			c0-0.1-0.1-0.4-0.1-0.5c-0.2-0.4-0.4-0.9-0.7-1.3c-0.2-0.4-0.5-0.6-0.8-0.9c-0.1-0.1-0.3-0.4-0.4-0.5c-0.2-0.5-0.5-0.9-0.9-1.2
			c-1.2-1.2-2.3-2.4-3.6-3.6c-0.3-0.3-0.7-0.6-0.9-0.9c-0.1-0.1-0.1-0.2-0.1-0.4c0.1,0,0.3-0.1,0.4,0c1.1,0.6,2.3,1.2,3.4,1.7
			c2.7,1.3,5.4,2.6,8.1,4c0.1,0.1,0.2,0.2,0.3,0.4c1.1,3,2.1,6,3.1,9c0,0.1,0,0.1,0.1,0.1c0.1,0.1,0.3,0.3,0.4,0.4
			c0.1-0.1,0.2-0.3,0.2-0.4c0.3-0.7,0.5-1.5,0.8-2.3c0-0.1,0.1-0.2,0.1-0.3c0.4-0.3,0.4-0.7,0.5-1.2c0.4-1.7,1-3.5,1.7-5.2
			c0.1-0.2,0.2-0.3,0.4-0.3c1.7,0,3.4,0,5,0c0.2,0,0.3,0.1,0.3,0.4c0.1,6.8,0.1,13.6,0.2,20.4c0,0.5-0.1,0.6-0.6,0.5
			c-1.1-0.2-2.2-0.1-3.3-0.1c-0.6,0.1-0.7,0-0.6-0.6c0-0.2,0.1-0.5,0.1-0.7c0-0.1,0.1-0.1,0-0.3c-0.3-1.7-0.2-3.4-0.1-5
			c0-0.5,0-1.1,0-1.6c0-0.2,0-0.5,0.1-0.7C53.4,70.1,52.8,69.3,52.4,69.2z"/>
		<path d="M165.9,51.4c-0.1,0.1-0.2,0.2-0.3,0.4c-2,2-4,4.1-6,6c-0.7,0.7-1.2,1.4-1.6,2.2c-0.1,0.1-0.1,0.2-0.1,0.4
			c0.5,3.5,0.9,6.9,1.5,10.4c0.4,3.2,0.9,6.4,1.3,9.6c0.1,0.3,0.1,0.6,0.1,0.9c-0.1,1.8,0.3,3.6,0.7,5.3c0.5,2.3,0.7,4.5,0.7,6.8
			c0,0.7,0.3,1.4,0.4,2c0.4,2.3,0.7,4.5,1,6.8v0.1c-0.1-0.1-0.1-0.1-0.2-0.2c-4.9-4.4-9.7-8.7-14.6-13.1c-0.3-0.2-0.6-0.4-0.9-0.4
			c-1.2-0.3-2.3-0.7-3.4-1c-0.1-0.1-0.3-0.1-0.4-0.1c-2.5-0.1-4.9-0.6-7.3-1.2c-0.9-0.2-1.8-0.3-2.8-0.5c-1.8-0.4-3.6-0.8-5.5-1.2
			c-0.7-0.1-1.5-0.3-2.2-0.4c-0.1,0-0.1-0.1-0.2-0.1c0.2,0,0.5-0.1,0.7-0.1c7.8,0,15.6-0.1,23.4-0.1c0.1,0,0.4,0.1,0.5,0.1
			c1.9,1.2,3.8,2.5,5.7,3.6c0.2,0.1,0.5,0.2,0.8,0.3c-0.1-0.6-0.1-1-0.1-1.5c-0.4-3.4-0.7-6.6-1.1-10c0-0.3-0.1-0.7-0.1-0.9
			c-0.1-0.4-0.3-0.6-0.7-0.6c-1.1,0-2.2,0-3.3,0c-0.2,1.2-0.4,2.5-0.7,3.8c-0.3,0-0.7,0-1.2,0c-0.9,0-1.7-0.1-2.6-0.1
			c-0.2,0-0.3-0.1-0.2-0.3c0.2-1.6,0.4-3.2,0.6-4.7c0.1-1.4,0.3-2.8,0.4-4.1c0-0.1,0.1-0.2,0.1-0.3c0.5-1,0.6-2.1,0.4-3.2
			c0-0.1,0-0.4,0-0.5c0.7-2.3,1.1-4.6,1.2-7c0-0.7,0.3-1.2,1-1.5c1.2-0.5,2.5-0.9,3.8-0.9c0.1,0,0.2,0,0.2-0.1
			c0.2-0.4,0.6-0.3,0.9-0.4c0.4-0.1,0.8-0.2,1-0.4c1.2-1,2.6-1.5,4-2c0.4-0.1,0.9-0.3,1.4-0.4c0.2-0.1,0.4-0.1,0.6-0.2
			c0.9-0.4,1.7-0.7,2.6-1.1C165.7,51.4,165.7,51.4,165.9,51.4z M154,62.2c-0.5,3.1-0.9,6.3-1.5,9.5c0.9,0,1.8,0,2.8,0
			c0-0.1,0-0.2,0-0.4c-0.2-2.5-0.5-4.9-0.7-7.4c-0.1-0.4-0.1-0.7-0.1-1.2C154.4,62.5,154.3,62.2,154,62.2z"/>
		<path d="M144.8,65.9c-1.6,0.1-3.1,0.1-4.7,0.2c-0.4,0-0.5-0.2-0.5-0.6c0-0.9,0.1-1.7,0-2.6c0-0.4-0.2-0.9-0.4-1.3
			c0-0.1-0.1-0.2-0.1-0.2c-0.4,0-0.9,0-1.3,0.1c-0.3,0.1-0.4,0.4-0.4,0.7c0,4.1-0.1,8.1-0.1,12.2c0,0.9,0.8,1.5,1.6,1.3
			c0.4-0.1,0.7-0.4,0.7-0.9c0-0.9,0.1-1.7,0.1-2.6c0-0.3,0.1-0.4,0.4-0.4c1.2,0,2.3,0,3.4-0.1c0.4,0,0.9,0,1.4,0
			c0,1.5,0.3,2.9-0.4,4.2c-1,2.3-2.8,3.3-5.1,3.4c-1.5,0.1-3-0.3-4.4-0.8c-0.6-0.2-0.9-0.5-1.3-1c-0.9-1.2-1.3-2.7-1.5-4.2
			c-0.1-0.9-0.1-1.8-0.1-2.8c0-2,0-3.9,0-6c0-1.5,0.1-2.9,0.6-4.3c0.5-1.5,1.5-2.6,3.2-3c2.5-0.6,4.8-0.3,7.1,0.8
			c0.1,0.1,0.2,0.1,0.2,0.2c0.4,0.8,0.9,1.5,1.4,2.3c0.1,0.1,0.1,0.2,0.1,0.4c0.1,1.5,0.1,3.1,0.1,4.7
			C144.9,65.7,144.9,65.8,144.8,65.9z"/>
		<path d="M98.5,79c-0.8,0-1.5,0.1-2.3,0.1c-0.6,0-1.1,0-1.7,0.1c-0.2,0-0.3-0.1-0.3-0.2c-0.1-0.9-0.2-2-0.3-2.9
			c-0.1-0.5-0.2-0.7-0.7-0.7c-0.7-0.1-1.5,0-2.3,0c-0.2,0-0.5,0.5-0.5,0.8c0.2,0.9-0.1,1.8-0.2,2.7c0,0.1-0.2,0.2-0.3,0.3
			c-1.4,0.1-2.8,0.1-4.2,0.2c0,0,0,0-0.1-0.1c0.1-0.7,0.2-1.5,0.4-2.3c0.4-2,0.8-4.1,0.9-6.1c0-0.3,0.1-0.6,0.1-0.9
			c0.4-1.1,0.3-2.3,0.4-3.4c0-0.2,0-0.4,0.1-0.6c0.4-1.2,0.4-2.6,0.5-3.9c0.1-1.2,0.4-2.4,0.6-3.6c0-0.2,0.1-0.3,0.4-0.3
			c1.5-0.1,2.9-0.1,4.3-0.1c0.7,0,1.3,0,2,0c0.1,0.7,0.1,1.4,0.2,2c0.1,0.7,0.1,1.2,0.2,1.9c0.1,0.6,0.4,1.1,0.4,1.7
			c0.4,2.6,0.8,5.1,1.2,7.7c0.1,0.4,0.1,0.7,0.1,1c0,0.1,0.1,0.4,0,0.5c-0.1,0.4-0.1,0.7,0,1.1c0.4,1.6,0.8,3.2,1,4.9
			C98.4,78.8,98.5,78.9,98.5,79z M90.8,72C90.9,72,90.9,72.1,90.8,72c0.6,0.1,1.1,0.1,1.7,0.1c0.8,0,0.8-0.1,0.7-0.8
			c-0.1-1-0.4-2.1-0.5-3.1c0-0.2-0.1-0.4-0.1-0.6c0-0.4,0.1-0.7-0.2-1c-0.1,0,0-0.1-0.1-0.2c-0.1-0.7-0.1-1.5-0.2-2.2
			c0-0.4-0.1-0.7-0.1-1c0-0.1-0.1-0.2-0.1-0.2c-0.1,0-0.2,0.1-0.2,0.1c-0.1,0.1-0.1,0.1-0.1,0.3c-0.2,2.3-0.4,4.5-0.7,6.8
			C90.9,70.7,90.9,71.4,90.8,72z"/>
		<path d="M66.1,75.5c1.3,0.1,2.6,0.1,3.9,0.1c0,0.1,0,0.3,0,0.4c0,0.9,0,1.9,0,2.9c0,0.4-0.1,0.6-0.5,0.5c-0.6,0-1.2-0.1-1.7-0.1
			c-1.7,0-3.6,0.1-5.3,0.1c-0.3,0-0.5,0-0.8,0s-0.5-0.1-0.5-0.4c0-0.1,0-0.1,0-0.2c-0.1-2.4-0.2-4.8-0.2-7.2c0-2,0.1-3.9,0.2-5.8
			c0-0.5-0.1-1-0.1-1.6c-0.1-1.5-0.1-3-0.2-4.5c0-0.3-0.1-0.7-0.1-0.9c0-0.4,0.1-0.5,0.4-0.5c2,0,4-0.1,6-0.1c0.7,0,1.5,0,2.2,0.1
			c0.1,0,0.1,0,0.2,0.1c0.1,1.3,0.1,2.6,0.1,3.9c0,0.1-0.1,0.3-0.2,0.3c-0.2,0.1-0.5,0.1-0.7,0.1c-0.8,0-1.6,0-2.5,0
			c-0.3,0-0.4,0.1-0.4,0.4c0,1.2,0,2.4,0,3.7c0.4,0.1,0.9,0.1,1.4,0.1c0.7,0,1.3,0,1.9,0c0.3,0,0.4,0.1,0.4,0.4
			c0.1,0.1,0.1,0.4,0.1,0.5c0.1,1,0.1,2,0.1,3c0,0.7-0.1,0.7-0.7,0.9c-0.9,0.1-1.7,0.2-2.7,0c-0.1-0.1-0.3,0-0.3,0.2
			C66,72,66,72.3,66,72.6C66.1,73.5,66.1,74.4,66.1,75.5z"/>
		<path d="M75.8,62.5c-0.4,0-0.8,0-1.2,0c-0.5,0-1,0.1-1.5,0.1c-0.4,0-0.5-0.1-0.5-0.5c-0.1-1.2-0.1-2.4-0.1-3.6
			c0-0.3,0.1-0.4,0.4-0.4c0.5,0.1,0.9,0.1,1.5,0.2c0.1,0,0.4,0,0.5,0c0.3-0.1,0.6-0.1,0.9-0.1c2.3,0,4.6,0,6.8,0
			c0.5,0,0.9-0.1,1.5-0.1c0,0.4,0.1,0.7,0.1,1c0,0.9,0,1.9,0.1,2.8c0,0.4-0.1,0.6-0.5,0.6c-0.7,0-1.5,0-2.2,0
			c-0.4,0-0.4,0.1-0.4,0.4c0,0.4-0.1,0.9-0.1,1.3c0.1,4.2,0.1,8.4,0.2,12.5c0,0.7,0,1.4,0,2.1c0,0.2-0.1,0.4-0.3,0.4
			c-0.5,0.1-1,0.1-1.5-0.1C79.2,79,79,79,78.9,79c-0.9,0.3-1.8,0.2-2.7,0.2c-0.1,0-0.2-0.1-0.2-0.2c-0.1-1.3-0.1-2.6,0.2-3.9
			c0-0.1,0-0.4,0-0.5c-0.3-0.9-0.3-1.8-0.1-2.8c0.1-0.2,0.1-0.5,0.1-0.7c-0.1-1.5-0.1-2.9-0.2-4.4C75.7,65.3,75.8,64,75.8,62.5z"/>
		<path d="M112.5,57.8c0.7,0,1.2,0,1.9,0c0.8,0,1.5,0.1,2.3,0.1c0.3,0,0.4,0.1,0.5,0.4c0.1,0.4,0.2,0.9,0.1,1.4
			c-0.2,0.9-0.1,1.7,0,2.7c0.1,0.9,0.1,1.8,0.1,2.8v0.1c-0.4,0.9,0,2,0,2.9c0.1,2.2,0.1,4.4,0.1,6.5c0,0.1,0,0.3,0,0.5
			c0.4,0,0.8,0.1,1.2,0.1c0.5,0,1.1-0.1,1.6-0.1c0.6-0.1,0.8,0,0.9,0.7c0.1,0.9,0.1,1.8,0.2,2.8c0,0.4-0.1,0.4-0.5,0.4
			c-1,0-2.1,0.1-3.1,0c-1.2-0.1-2.3-0.1-3.6-0.2c-0.3,0-0.6,0-0.8,0.1c-0.4,0.3-0.9,0.1-0.9-0.6c0.1-1,0-2.1,0-3.1
			c0-0.1,0-0.3,0.1-0.3c0.3-0.2,0.1-0.5,0.1-0.8c-0.1-0.5-0.2-1-0.1-1.5c0.1-0.7,0-1.5-0.1-2.3c-0.3-3.6-0.3-7.2-0.2-10.8
			c0-0.5,0-1,0.1-1.5C112.5,57.9,112.5,57.9,112.5,57.8z"/>
		<path d="M106.1,75.2c1,0,2,0.1,3,0.1c0.3,0,0.5,0.1,0.5,0.4c0.1,0.9,0.1,1.9,0.1,2.8c0,0.2-0.1,0.3-0.3,0.4c-2,0.1-4,0.1-6,0.2
			c-0.7,0-1.5,0-2.2,0c0,0,0-0.1,0-0.1c-0.1-4.2-0.1-8.2-0.1-12.4c0-0.9,0.1-1.8,0.1-2.7c0-0.2-0.1-0.4-0.1-0.6
			c-0.1-0.4-0.1-0.7-0.1-1c0-1.3,0-2.7,0-4c0-0.1,0-0.1,0-0.2c0.4,0,0.8,0,1.2,0c1.2,0,2.3,0,3.5,0c0.2,0,0.3,0.1,0.3,0.3
			c0,0.4,0.1,0.7,0.1,1c-0.1,1.2,0,2.3-0.2,3.5c-0.1,0.2,0,0.4,0.1,0.7c0.3,1.3,0.2,2.6-0.1,3.9c-0.1,0.1,0,0.4,0,0.5
			c0.3,1,0.4,2,0.4,3.1C106.1,72.3,106.1,73.6,106.1,75.2z"/>
		<path d="M128.8,78.7c-1.5,0.1-3.1,0.1-4.5,0c-0.1,0-0.3-0.1-0.3-0.2c-0.1-0.2-0.1-0.4-0.1-0.7c-0.1-2.3-0.1-4.6-0.1-6.8
			c-0.1-1.7-0.1-3.5,0.1-5.2c0-0.3,0-0.6-0.1-0.8c-0.1-0.7-0.1-1.5,0.1-2.3c0-0.1,0.1-0.4-0.1-0.5c-0.1-0.3-0.2-0.7-0.2-1
			c0-1,0-2,0-3.1c0-0.4,0.1-0.5,0.5-0.5c1.2,0,2.5,0,3.7,0c0.5,0,0.7,0.1,0.7,0.7c0,0.7,0,1.4,0,2.1c0,0.5,0,1-0.1,1.5
			c0,0.4-0.1,0.9-0.1,1.4c0,0.4,0,0.9,0,1.2c0.1,1.4,0.1,2.8,0.1,4.2c0,1.6,0,3.3,0,4.9c0,0.1,0,0.3-0.1,0.4
			c-0.2,0.4-0.1,0.8-0.1,1.2C128.6,76.6,128.7,77.7,128.8,78.7z"/>
		<path d="M145.4,82.8c0.1-0.2,0.1-0.4,0.2-0.6c-0.2,0.1-0.4,0.1-0.5,0.1s-0.3,0.1-0.5-0.1c-0.5-0.4-1.1-0.5-1.7-0.2
			c-0.2,0.1-0.4,0.1-0.6,0c-0.1-0.1-0.2-0.1-0.3-0.1c-0.6-0.3-0.7-0.3-1.1,0.2c-0.1,0.1-0.2,0.1-0.3,0.1c-0.4,0-0.9-0.1-1.2-0.1
			c-0.3,0-0.6,0-0.9,0c-0.1,0-0.2,0-0.2,0.1c-0.6,0.4-1.2,0.3-1.7,0.1c-0.4-0.1-0.7-0.4-0.9-0.5c-1,0.3-2,0.6-3,0.8
			c-0.1,0-0.1,0-0.2-0.1c-0.4-0.2-0.8-0.4-1.2-0.6c-0.1,0-0.2,0-0.3,0.1s-0.1,0.2-0.3,0.2c-0.1,0.1-0.3,0.1-0.4,0.1
			c-0.1,0-0.1-0.2-0.1-0.4c-0.1-0.3-0.1-0.6-0.1-0.9c-0.1-0.3,0-0.6,0.4-0.7c0,0.2,0,0.4,0,0.5c0,0.1,0.1,0.1,0.1,0.2
			c0.1-0.1,0.1-0.1,0.1-0.2c0-0.3,0-0.6,0.3-0.7c0.1-0.1,0.4-0.1,0.5-0.1c0.1,0,0.2,0,0.3-0.1c0,0,0.1-0.1,0-0.1
			c-0.1-0.1-0.1-0.1-0.3-0.1s-0.2,0-0.4,0c0-0.1,0-0.3,0.1-0.4c0.1-0.1,0.2-0.1,0.4,0c0.6,0.1,1-0.1,1-0.6c-0.4,0-0.9,0-1.3,0
			c-0.5-0.1-0.6-0.1-0.5-0.7c0.1-0.3,0.1-0.7,0.1-0.9c0.1-0.5,0.1-0.9-0.2-1.5c-0.4-0.7-0.4-1.4,0-2c0,0.1,0.1,0.3,0.1,0.4
			c0,0.4,0.1,0.7,0.4,0.9c0.4,0.3,0.6,0.6,0.5,1.1c-0.1,0.4,0.1,0.9,0.4,1.2c0.8,1,1.5,2.1,2,3.3c0.1,0.1,0.1,0.3,0.3,0.5
			c0.2-0.5-0.2-0.9-0.1-1.4c0.4-0.1,0.9-0.1,1.3,0.3c0.3,0.4,0.6,0.5,1.2,0.4c0.6-0.1,1.2,0.2,1.6,0.6c0.1,0.1,0.3,0.3,0.5,0.5
			c1-1,2.3-0.6,3.6-0.7c-0.1-0.7,0.1-0.8,0.7-0.9c0.3-0.1,0.5-0.3,0.7-0.4c0.2-0.2,0.4-0.4,0.6-0.8c0.1,0.7-0.4,1.4-0.4,2
			c0.4-0.1,0.5-0.4,0.6-0.7c0.3-0.7,0.9-0.6,1.3-0.3c0.1,0.1,0.2,0.3,0.1,0.4s-0.1,0.3,0,0.4c0.1,0.2,0.1,0.4,0.3,0.7
			c0.4,0.1,0.4-0.5,0.8-0.4c0,0.2,0,0.4,0,0.7c0,0.1,0,0.4,0.2,0.3c0.1,0,0.2-0.2,0.3-0.3c0.1-0.3,0.1-0.6,0.1-0.9
			c0-0.1,0.1-0.1,0.1-0.3c0.2-0.6,0.2-0.6,0.8-0.5c0.4,0.1,0.9,0.1,1.4,0.1c0.1,0,0.3,0.1,0.4,0.3c0.1,0.1,0.2,0.3,0.5,0.2
			c0.2,0,0.4,0.1,0.6,0.1c0.2,0.1,0.4,0.2,0.4,0.3c0.4-0.1,0.7-0.3,1-0.4c0.2-0.4,0.4-0.9,0.7-1.5c0.1-0.2,0.3-0.3,0.9-0.3
			c-0.1-0.3-0.3-0.2-0.5-0.3c-0.1,0-0.3-0.1-0.4-0.1c0.1-0.1,0-0.4,0.1-0.5c0.4-0.4,0.5-0.9,0.2-1.4c-0.1-0.1-0.1-0.2-0.1-0.4
			c0.2,0,0.4,0.1,0.7,0.1c0.3,0,0.5,0,0.8,0c0.1,0,0.2,0.1,0.3,0.1c0.1,0.3,0.1,0.5,0.1,0.8c0.1,0.2,0.1,0.5,0.1,0.7l0,0
			c-0.7,0.4-0.7,0.4-0.3,1c0.1,0.1,0.2,0.4,0.4,0.5s0.2,0.3,0.4,0.4c-0.1,0.4-0.3,0.7-0.4,1c-0.1,0.2,0,0.5,0.1,0.7
			c0.2,0.4,0.1,0.7-0.1,1c-0.1,0.2-0.4,0.4-0.6,0.7c0.1,0.1,0.2,0.4,0.4,0.5c0.4,0.4,0.7,0.8,0.6,1.3c0,0.1,0,0.3,0.1,0.5
			c-0.5-0.1-0.7-0.5-1-0.9c-0.1,0-0.4,0-0.5,0c-0.5,0-0.8-0.3-0.9-0.7c-0.1-0.7-0.3-0.7-0.9-0.7c-0.1,0-0.3,0.1-0.4,0
			c-0.4-0.1-0.6-0.3-0.4-0.7c0.1-0.3,0-0.4-0.2-0.4c-0.3-0.1-0.6-0.1-0.9-0.1c-0.4,0-0.9-0.1-1.2-0.4c-0.1-0.1-0.4-0.1-0.5,0
			c-0.2,0.2-0.5,0.4-0.7,0.7c-0.2,0.2-0.4,0.3-0.7,0c-0.1-0.1-0.3-0.1-0.4-0.1C146.3,82.6,145.9,82.8,145.4,82.8z"/>
		<path d="M58,81.6c0.4,0.1,0.6,0.4,0.4,0.7c-0.1,0.1-0.3,0.4-0.5,0.4c-0.4,0.1-0.8,0.1-1.2,0.1c-0.1,0-0.2-0.1-0.3-0.1
			c-0.2-0.2-0.4-0.2-0.6,0c-0.1,0.1-0.1,0.1-0.2,0.2c-0.2,0.2-0.4,0.3-0.7,0.1c-0.1-0.1-0.4-0.1-0.5-0.1c-0.4,0.1-0.7,0.2-1.1-0.2
			c-0.1-0.1-0.2-0.1-0.3-0.1c-0.4-0.1-0.9-0.1-1.4-0.1l0,0c-0.1,0.7-0.2,0.8-0.9,0.5c-0.4-0.1-0.9-0.3-1.4-0.5
			c-0.3-0.1-0.5,0-0.7,0.3c-0.1,0.2-0.2,0.4-0.6,0.3c-0.4-0.1-0.6,0.2-0.7,0.5c-0.1,0.4-0.4,0.4-0.7,0.4c-0.4,0-0.8,0-1.2,0
			c-0.1,0.3-0.2,0.6-0.4,0.9c-0.3-0.4-0.5-0.3-0.8-0.1c-0.4,0.2-0.7,0.4-1.1,0.6C43,85.4,43,85.5,43,85.7s-0.1,0.2-0.2,0.4
			c-0.1-0.1-0.2-0.3-0.2-0.4c0.1-0.4,0.2-0.7,0.4-0.9c0.9-0.8,0.6-1.7,0.6-2.7c0-0.1-0.1-0.1-0.2-0.1c-0.1-0.1-0.3,0-0.4-0.1
			c-0.2-0.1-0.4-0.2-0.4-0.4c0-0.2,0.1-0.4,0.4-0.4c0.1,0,0.4-0.1,0.5-0.1c0-0.4-0.1-0.9-0.1-1.3c0-0.3,0.2-0.6,0.3-0.9
			c0.1-0.1,0.1-0.3,0.1-0.4c-0.2-0.7-0.4-1.3-0.7-1.9c-0.1-0.2,0-0.4,0.2-0.4c0.1,0,0.3,0,0.4,0.1c0.1-0.4,0.3-0.8,0.1-1.2
			c-0.1-0.1,0-0.2,0.1-0.3c0.1,0,0.2,0,0.3,0.1c0.4,0.3,0.5,0.7,0.4,1.2c-0.1,0.4-0.3,0.7-0.4,1.1c0.2,0.1,0.4,0.1,0.7,0.2
			c0.5,0.1,0.6,0.3,0.5,0.8c0,0.2-0.1,0.4-0.1,0.6c0.1,0.1,0.4,0.2,0.5,0.4c0.1,0.1,0.1,0.2,0.1,0.4c0,0.1-0.2,0.2-0.3,0.2
			c-0.3,0-0.6,0-0.9,0c0,0.3,0.1,0.3,0.4,0.3c0.2,0,0.4,0,0.7,0.1c0.3,0.1,0.5,0.2,0.5,0.6c0,0.1,0.1,0.2,0.3,0.2
			c0.4,0.1,0.7,0.1,0.7,0.6c0,0.1,0.2,0.3,0.4,0.4s0.3,0.1,0.5,0.2c-0.1-0.6-0.3-1.1-0.4-1.7c0.7,0.1,0.9,0.6,0.7,1.2
			c0.1,0.1,0.3,0.1,0.4-0.1c0.6-0.7,0.6-0.7,1.3-1c0-0.5,0-0.5,0.4-0.5c0.1-0.3,0.1-0.3-0.5-0.3c0-0.1,0-0.2,0-0.3s0-0.1,0-0.3
			c0.3,0,0.5-0.1,0.5-0.4c0-0.1,0.2-0.3,0.4-0.4c0.3-0.1,0.4-0.4,0.2-0.7c-0.2-0.4,0-0.5,0.3-0.7c0.4-0.2,0.7-0.3,0.9-0.1
			c0.1,0.1,0.1,0.3,0.1,0.4c-0.4,0.4-0.4,1-0.4,1.5c0.1,0.4-0.1,0.7-0.4,0.9c-0.1,0.1-0.3,0.2-0.5,0.4c0.4,0.1,0.8,0.1,1.2,0.2
			c0,0.2,0,0.4,0,0.6c0,0.1,0,0.4,0.3,0.4c0.1,0,0.2,0.1,0.2,0.2c0.1,0.1,0,0.3,0,0.4c0.4,0.1,0.5,0,0.6-0.4c0-0.2,0.1-0.5,0.1-0.8
			c0.2,0.2,0.4,0.4,0.6,0.4c0.2,0.2,0.5,0.3,0.9,0.2c0.1,0,0.3,0.1,0.4,0.1c0.2,0.1,0.4,0.2,0.7,0.1c0.4-0.1,0.7-0.2,1,0.1
			c0.1,0.1,0.2,0,0.4,0s0.2-0.1,0.3-0.2c0.1-0.1,0.3-0.1,0.3,0.2c0,0.1,0,0.3,0,0.4c0,0.1,0.1,0.1,0.1,0.2c0.1-0.1,0.2-0.1,0.2-0.2
			C58,81.8,58,81.7,58,81.6z"/>
		<path d="M139.6,68.5c-0.1,0.2-0.4,0.4-0.4,0.7c-0.4,1.1-0.8,2.3-0.7,3.5c-0.4-0.1-0.6-0.4-0.5-0.9c0.1-0.9,0.4-1.7,0.5-2.7
			c0.1-0.5,0.1-1.1,0.1-1.6c0.1-0.3,0.2-0.4,0.4-0.3c0.1,0,0.1,0.1,0.2,0.2c0.2,0.4,0.3,0.4,0.7,0.2c0.7-0.3,1.2-0.1,1.7,0.3
			c0.1,0.1,0.2,0.1,0.3,0.3h0.1c0.3-0.4,0.7-0.5,1.2-0.5c0.4,0,0.8,0,1.2-0.1c0.3,0,0.4,0.1,0.5,0.4s0.1,0.5,0.1,0.8
			c0.3,0,0.4-0.2,0.4-0.4c0-0.2,0-0.4,0-0.7c0-0.4,0.2-0.6,0.5-0.7s0.7,0.1,0.7,0.4c0.1,0.6,0.4,1.1,0.4,1.7c0.1,1-0.6,1.5-1.8,1
			c0.3-0.3,0.5-0.5,0.8-0.7l0,0c-0.9,0.3-1.7,0.6-2.7,0.9c-0.7,0.2-1.2,0.2-1.7-0.1c-0.4-0.2-0.7-0.3-1.1,0c-0.1,0.1-0.3,0-0.4-0.1
			c-0.3-0.2-0.4-0.5-0.4-0.8c0-0.2,0-0.4,0-0.6C139.7,68.5,139.7,68.5,139.6,68.5z"/>
		<path d="M99.2,69.5c-0.2-0.4-0.4-0.7-0.6-1.1c-0.2-0.4-0.3-0.9-0.3-1.5c0-0.3-0.1-0.6-0.2-0.8c-0.6-0.8-0.5-1.6,0-2.3
			c0.1-0.1,0.1-0.3,0.1-0.4c0-0.1,0-0.2,0-0.3c-0.7-0.7-0.6-1.6-0.3-2.5c0.1-0.1,0-0.3,0-0.4c-0.1-0.5-0.4-1.1-0.6-1.6
			c-0.1-0.1,0-0.3,0.1-0.4c0.5-0.1,1-0.4,1.5-0.5c0.2-0.1,0.3,0.1,0.3,0.2c0.3,0.9,0.3,1.7,0,2.6c-0.1,0.3-0.1,0.5,0.1,0.8
			c0.1,0.4,0.3,0.8,0.4,1.2c0,0.2,0,0.5-0.1,0.7c-0.3,0.6-0.3,1.1-0.2,1.7c0.2,1,0.3,2.1,0.1,3.1c-0.1,0.4-0.1,0.7-0.2,1
			C99.4,69.3,99.3,69.4,99.2,69.5z"/>
		<path d="M130,71.9c0-0.2,0-0.4,0-0.7s0.1-0.4,0.1-0.6c0.1-0.2,0.1-0.4,0.1-0.7c-0.1-0.5-0.2-1-0.3-1.5c-0.2-0.7-0.2-1.5,0.3-2
			c0.1-0.1,0.1-0.4,0.1-0.7c0-0.1,0.1-0.2,0.1-0.3c0.1,0.1,0.3,0.1,0.3,0.2c0.1,0.5,0.2,0.9-0.1,1.5c-0.1,0.2-0.1,0.5-0.1,0.7
			c0.3,1,0.3,2.1,0,3.1c-0.1,0.2-0.1,0.4,0.1,0.6c0.3,0.2,0.3,0.4,0.2,0.8c-0.1,0.3-0.2,0.7-0.4,0.9s-0.3,0.3-0.4,0
			c-0.1-0.1-0.1-0.4-0.2-0.6C130,72.5,130,72.2,130,71.9L130,71.9z"/>
		<path d="M59.1,71.6C59,71.3,58.9,71,59,70.7c0.1-1.2,0.1-2.3,0.3-3.4c0-0.4-0.1-0.9-0.2-1.3C59,65.8,59,65.6,59,65.3
			c0-0.1,0.2-0.1,0.3-0.1c0.1,0.1,0.4,0.4,0.4,0.6c0.1,0.6,0.2,1.2,0.2,1.7c0,0.4-0.1,0.7-0.3,1.1c-0.2,0.3-0.2,0.6-0.1,0.9
			s0.1,0.6,0.2,0.9C59.8,70.9,59.6,71.2,59.1,71.6z"/>
		<path d="M58.9,61.2c-0.4-0.9-0.5-1.8-0.3-2.8c0.1-0.2,0.1-0.3,0.4-0.3c0.3,0,0.7,0,1,0c-0.1,0.2-0.2,0.4-0.4,0.7s-0.2,0.4-0.1,0.7
			C59.7,60.1,59.5,60.7,58.9,61.2z"/>
		<path d="M59.9,82.5c-0.1,0.1-0.2,0.1-0.3,0.1c-0.3,0-0.6-0.3-0.5-0.6c0-0.2,0.1-0.4,0.1-0.7c0.1-0.4,0.1-0.8-0.3-1.1
			c-0.1-0.1-0.1-0.4-0.1-0.4c0.1-0.1,0.3-0.1,0.4-0.2c0.1,0,0.1,0.1,0.2,0.1C59.6,80.7,59.7,81.6,59.9,82.5z"/>
		<path d="M59,75.4c0.3,0,0.4,0.2,0.4,0.4c0.1,0.9,0.1,1.8,0,2.8c0,0.1-0.1,0.1-0.1,0.1c-0.1,0-0.1-0.1-0.2-0.1
			C59,78.6,59,78.5,59,78.5c0.1-0.7-0.1-1.4-0.1-2C58.9,76.1,58.9,75.8,59,75.4z"/>
		<path d="M99.4,77.9c-0.1-0.1-0.3-0.3-0.3-0.4c-0.1-0.3-0.1-0.6,0.2-0.9c0.1-0.1,0.1-0.4,0.1-0.7c0-0.4-0.1-0.9-0.1-1.4
			c0-0.1,0-0.3,0-0.4c0.3,0,0.4,0.1,0.4,0.4c0.1,0.8,0.2,1.5-0.2,2.3C99.4,77.1,99.5,77.5,99.4,77.9z"/>
		<path d="M144.7,78.9c-0.1-0.4,0.2-0.8,0.4-1.2c0.1-0.1,0.1-0.3,0.2-0.4c0.1-0.1,0.2-0.1,0.2-0.1c0.1,0.1,0.3,0.2,0.3,0.4
			c0.1,0.2,0.1,0.5,0.1,0.7c0,0.3-0.1,0.4-0.4,0.4C145.2,78.7,145,78.8,144.7,78.9z"/>
		<path d="M111.7,78.6c0,0.2-0.1,0.4-0.3,0.3c-0.3-0.1-0.4-0.2-0.5-0.5c-0.1-0.3-0.3-0.7,0.1-0.9c0.2-0.1,0.3-0.1,0.4,0.1
			C111.5,77.9,111.6,78.3,111.7,78.6z"/>
		<path d="M59.3,63.2c-0.6-0.5-0.3-1.2-0.7-1.8l0.1-0.1c0.1,0.1,0.3,0.1,0.4,0.2C59.3,62.1,59.5,62.6,59.3,63.2z"/>
		<path d="M71,62.4c-0.1-0.1-0.3-0.3-0.3-0.4c-0.1-0.3-0.1-0.6-0.1-0.9c0-0.1,0.1-0.2,0.2-0.3c0.1,0.1,0.2,0.1,0.3,0.2
			c0.1,0.4,0.1,0.9,0.1,1.3C71.1,62.3,71.1,62.4,71,62.4z"/>
		<path d="M99.6,71.7c0.1,0.2,0.1,0.5,0.1,0.8c0,0.1-0.1,0.2-0.1,0.4c-0.1-0.1-0.2-0.1-0.3-0.2c-0.1-0.1-0.1-0.3-0.2-0.4
			c-0.1-0.3,0-0.5,0.1-0.7c0.1-0.1,0.2-0.1,0.3-0.1S99.6,71.6,99.6,71.7C99.6,71.7,99.6,71.7,99.6,71.7z"/>
		<path d="M70.9,59.5c-0.1-0.4-0.1-0.9-0.1-1.4c0.2-0.1,0.4-0.1,0.5,0.1C71.4,58.6,71.2,59.3,70.9,59.5z"/>
		<path d="M99.7,78.7c0.2,0.1,0.5,0.1,0.6,0.3c0.1,0.1,0,0.4-0.1,0.6c0,0.1-0.2,0.1-0.3,0C99.5,79.3,99.6,79,99.7,78.7z"/>
		<path d="M122.7,77.2c0.2,0.1,0.4,0.7,0.2,0.9c0,0.1-0.1,0.1-0.1,0.1c-0.1-0.1-0.2-0.1-0.2-0.2C122.6,77.8,122.7,77.5,122.7,77.2z"
			/>
		<path d="M110.9,74.6c0.2,0.1,0.4,0.1,0.5,0.1c0.1,0,0.1,0.2,0,0.4c-0.1,0.2-0.2,0.2-0.4,0.1c-0.1-0.1-0.1-0.3-0.3-0.4
			C110.8,74.7,110.8,74.6,110.9,74.6z"/>
		<path class="st0" d="M154,62.2c0.4,0,0.4,0.3,0.4,0.6c0.1,0.4,0.1,0.7,0.1,1.2c0.2,2.5,0.5,4.9,0.7,7.4c0,0.1,0,0.2,0,0.4
			c-0.9,0-1.8,0-2.8,0C153,68.5,153.5,65.3,154,62.2z"/>
		<path class="st0" d="M90.8,72c0-0.7,0.1-1.3,0.1-2c0.2-2.3,0.4-4.5,0.7-6.8c0-0.1,0.1-0.2,0.1-0.3c0.1-0.1,0.1-0.1,0.2-0.1
			c0.1,0,0.1,0.1,0.1,0.2c0.1,0.4,0.1,0.7,0.1,1c0.1,0.7,0.1,1.5,0.2,2.2c0,0.1,0,0.1,0.1,0.2c0.4,0.3,0.2,0.7,0.2,1
			c0,0.2,0,0.4,0.1,0.6c0.1,1,0.4,2.1,0.5,3.1c0.1,0.8,0.1,0.8-0.7,0.8C92,72,91.5,72,90.8,72C91,72,90.9,72,90.8,72z"/>
	</g>
</g>
</svg>
