<?xml version="1.0" encoding="utf-8"?>
<!-- Generator: Adobe Illustrator 23.0.3, SVG Export Plug-In . SVG Version: 6.00 Build 0)  -->
<svg version="1.1" id="Layer_1" xmlns="http://www.w3.org/2000/svg" xmlns:xlink="http://www.w3.org/1999/xlink" x="0px" y="0px"
	 viewBox="0 0 200 200" style="enable-background:new 0 0 200 200;" xml:space="preserve">
<style type="text/css">
	.st0{fill:#FFFFFF;}
</style>
<g id="xAYID2_1_">
	<g>
		<path d="M161.6,39c-1.1,0.4-1.8,0.9-2.4,1.6c-2,2.8-3.1,5.8-2.6,9.3c0.2,1.7-0.4,3.1-1.5,4.4c-1.5,1.7-3.5,2.7-5.4,3.8
			c-1.1,0.6-2.5,1-3.8,0.4c-0.4-0.2-0.8-0.7-0.9-1.1c-0.1-0.7,0-1.5,0.1-2.2c0-0.3,0.1-0.5,0.2-0.8c-0.1,0-0.1-0.1-0.2-0.1
			c-0.2,0.1-0.4,0.3-0.6,0.4c-1.2,1.1-1.3,2.5-1.4,4c-0.1,2.2-1.7,3.4-3.7,2.9c-0.3-0.1-0.6-0.1-0.9-0.2c-1.5-0.5-2.7-1.2-2.7-3
			c0-0.2-0.2-0.4-0.3-0.7c-0.2,0.3-0.3,0.4-0.4,0.5c-0.6,1.6-1,3.4-0.7,5.1c0.2,1.4-0.1,2.5-1,3.5c-1.6,1.7-4.4,2.5-6.3,0.1
			c-0.6-0.7-0.7-1.4-0.3-2.2c0.4-0.9,0.8-1.8,1.3-2.6c0.8-1.4,1.5-2.8,1.4-4.4c0-0.8-0.1-1.6-0.7-2.4c-0.1,0.2-0.2,0.3-0.2,0.4
			c0,0.2-0.1,0.4-0.1,0.7c-0.2,1.7-1,3.1-2.4,4.1c-0.4,0.3-1,0.4-1.4,0.3c-1.6-0.5-2.4-2-1.8-3.6c0.2-0.4,0.3-0.8,0.5-1.2
			c0.5-1.4,0.6-2.7-0.2-4c-0.7-1.3-1.4-2.7-2-4c-1-2.2-0.8-4.3,0.9-6.2c0.1-0.2,0.2-0.4,0.4-0.6c-0.1-0.1-0.1-0.2-0.2-0.3
			c-1,0.3-2.1,0.6-3.1,1c-1.4,0.6-2.2,1.7-2.6,3.2c-0.5,1.6-0.3,3.1,0.5,4.5c0.6,1,0.3,2.2-0.7,3.2c-0.8,0.8-1.8,0.9-2.8,0.3
			c-1.4-0.8-1.9-2-2.1-3.4c-0.3-2.7-1.4-4.9-3.9-6.2c-0.2-0.1-0.5-0.2-0.8-0.4c0.1,0.3,0.1,0.4,0.1,0.5c1.4,1.9,1.3,3.8,0.2,5.9
			c-0.4,0.8-0.8,1.7-0.9,2.6c-0.1,0.9,0.1,1.9,0.2,2.9c0.2,1.1-0.4,2-1.5,1.9c-0.9-0.1-2-0.3-2.8-0.7c-1.5-0.8-2.8-2.1-3.5-3.7
			c-0.1-0.2-0.2-0.3-0.4-0.5c-0.8,1.5-0.7,3,0.1,4.3c0.8,1.3,1.7,2.6,2.6,3.9c1.9,2.8,1.3,6.3-1.7,8.1c-0.4,0.3-1.2,0.5-1.5,0.3
			c-0.4-0.3-0.8-1-0.8-1.5c0-0.7,0.2-1.5,0.4-2.3c-0.3,0.4-0.7,0.7-0.9,1c-1.2,1.8-1.4,3.8-1.6,5.8c0,0.6-0.2,1.2-0.4,1.8
			c-0.2,0.5-0.5,1-1.1,0.8c-0.6-0.2-0.9-0.7-0.8-1.4c0-0.3,0-0.6-0.1-0.9c-0.3,0.1-0.4,0.2-0.5,0.2c-1.4,1.2-2.2,4.2-1.6,6
			c0.5,1.7,0.9,3.5-0.3,5c-1.4,1.7-2.2,3.7-2.6,5.8c-0.4,1.6-0.6,3.3-0.9,4.9C86,94.7,85,95.6,84,96.4c-0.2,0.1-0.5,0.2-0.7,0.2
			c-1.4,0-3.5-1.7-3.7-3c-0.3-1.9-0.1-3.7,0.9-5.3c0.1-0.2,0.2-0.5,0.3-0.9c-0.4,0.1-0.6,0.1-0.7,0.1c-3.1,0.8-4.5,3.2-4.9,6.1
			c-0.2,1.3-0.1,2.7,0.1,4.1c0.4,3.5-1,6.4-3.2,8.9c-0.7,0.8-1.5,1.5-1.9,2.4c-0.5,1.2-0.8,2.5-1,3.8c-0.3,2-2.4,3.2-3.9,2.1
			c-0.8-0.6-1.4-1.4-1.4-2.4c0-1.9,0.2-3.7,1.4-5.3c0.3-0.4,0.5-0.8,0.8-1.2c-3,1.3-4.6,3.8-5.6,6.8c-0.9,2.6-0.9,5.2-0.3,7.8
			c0.5,2.3,1.1,4.5,0.8,6.9c-0.1,1.3-0.5,2.5-1.6,3.3c-0.5,0.4-1.2,0.5-1.7,0c-0.5-0.5-0.5-1.1-0.1-1.8c0.2-0.3,0.3-0.6,0.5-1
			c-0.1,0-0.1-0.1-0.2-0.1c-0.3,0.3-0.7,0.5-0.9,0.8c-0.9,1.3-1.1,2.9-0.9,4.4c0.2,1.8,0.4,3.5-0.1,5.3c0,0.1,0,0.2,0.1,0.5
			c0.3-0.2,0.5-0.4,0.7-0.5c0.8-0.7,1.6-1.4,0.8-2.7c-0.2-0.3,0-1,0.3-1.3c1.6-1.3,2.5-3.2,3.7-4.7c0.4-0.5,0.9-1,1.5-1.4
			c0.6-0.4,1.3-0.7,2-1c0.2-0.1,0.4,0,0.7-0.1c0,0.3,0,0.5-0.2,0.7c-0.1,0.2-0.3,0.2-0.5,0.3c-1.1,0.7-2.2,1.4-2.9,2.6
			c-0.7,1.2-1.5,2.2-2.2,3.3c-0.7,1-0.6,1.3,0.4,2c1.6,1.2,3.2,2.4,4.7,3.6c0.9,0.7,1.6,0.7,1.8-0.5c0.2-1.1,0.2-2.3,0.3-3.5
			c0-0.7-0.3-0.7-0.8-0.4c-0.5,0.3-0.9,0.7-1.4,1c-0.2,0.1-0.5,0-0.7,0c0-0.3,0-0.6,0.1-0.8c0.3-0.4,0.7-0.7,1.1-0.9
			c1.5-0.8,2.5-1.9,2.9-3.5c0.3-1,1-1.7,2.2-1.8c0.8-0.1,1.5-0.6,1.8-1.4c0.7-1.9,2.3-2.6,4-3.2c0.1,0,0.2,0.1,0.4,0.2
			c-0.6,0.4-1.1,0.8-1.6,1.2c-0.5,0.5-1.1,1-1.4,1.6c-0.7,1.5-1.7,2.5-3.3,2.9c-0.7,0.1-0.9,0.6-1.2,1.2c-0.4,0.7-0.7,1.5-1.2,2.1
			c-0.7,0.9-0.6,1.1,0.5,1.5c0-0.1,0.1-0.1,0.2-0.2c0.3-0.4,0.5-1,0.8-1.3c0.5-0.5,1,0,1.5,0.1c0.6,0.1,1.5-0.6,1.4-1.1
			c-0.2-1.2-0.1-1.2,1-1.6c0.7-0.3,1.4-0.7,1.2-1.6c-0.1-0.6,0.3-0.9,0.8-1c1.2-0.2,2.3-0.4,3.5-0.3c1.8,0.1,3.4-0.2,5-0.9
			c0.2-0.1,0.3-0.3,0.6-0.5c-0.5-0.1-0.7-0.3-1-0.3c-0.9,0-1.8,0.2-2.7,0.2c-0.3,0-0.6-0.2-0.9-0.3c0.1-0.2,0.2-0.6,0.4-0.7
			c0.8-0.4,1.6-0.9,2.5-1.1c1.3-0.4,2.7-0.6,4-0.9c1.4-0.3,2.7-0.8,4.1-0.9c2.7-0.2,5.2-0.9,7.5-2.3c1.8-1.1,3.6-2.2,5.4-3.3
			c0.6-0.3,1.2-0.5,1.8-0.8c0.4-0.2,1-0.5,1.2-0.9c0.4-0.7,0.7-1.5,0.8-2.2c0.2-1.3,0.2-2.6,0.3-3.9c0.1-1.1,0-2.1,0.2-3.2
			c0.1-0.6,0.5-1,0.9-1.7c-1.9,0.2-3.9-0.4-5.6,1.1c0-0.4,0.1-0.7,0.2-0.8c0.9-1,2-1.5,3.4-1.6c0.4,0,1.1-0.2,1.2-0.6
			c0.3-0.6,0.8-0.9,1.4-1c1-0.1,1.6-0.6,1.9-1.5c0.3-0.8,0.8-1.6,1.7-2c0.3-0.1,0.6-0.4,0.8-0.7c0.6-0.7,1.1-1.4,1.6-2.1
			c0.2-0.2,0.5-0.3,0.7-0.5c0.1,0.1,0.1,0.1,0.2,0.2c-0.4,1.5-1.1,2.7-2,3.9c-0.1,0.1-0.3,0.2-0.5,0.3c-0.4,0.4-0.9,0.7-1.2,1.1
			c-0.7,1.3-1.3,2.7-3.1,3.2c0.7,0.7,0.5,1.3,0.1,2c-0.3,0.5-0.4,1.2,0.4,1.8c0.1-0.3,0.2-0.6,0.2-0.8c0.2-1.5,0.7-2.8,2.1-3.7
			c0.3-0.2,0.7-0.4,1-0.6c1.1-0.6,1.7-1.7,2.2-2.9c0.5-1.4,1.1-2.7,1.7-4c0.4-0.9,0.8-1.7,0.5-2.7c-0.1-0.5-0.1-1-0.2-1.5
			c-0.2-1.2-0.4-2.4-0.8-3.6c-0.4-1-1.2-1.7-1.8-2.6c-0.9-1.4-0.5-3.1,0.9-3.9c0.4-0.3,0.8-0.6,1.2-0.9c-0.1-0.1-0.1-0.2-0.2-0.4
			c-0.5,0.1-1,0.1-1.5,0.4c-2.3,1.2-4.8,2-7.4,2.2c-1.7,0.2-3.3,0.3-4.8,0.9c-0.6,0.2-1.1,0.1-1.6-0.3c-0.4-0.3-0.8-0.8-1.1-0.8
			c-0.4,0-0.7,0.6-1,0.9c0,0,0,0.1-0.1,0.1c-0.9,0.1-1.8,0.5-2.6,0.2c-1.2-0.4-1.4-1.5-0.7-2.6c0.1-0.2,0.3-0.4,0.5-0.7
			c0.6-0.8,1.1-1.5,1.1-2.6c0-0.5,0.3-1.1,0.6-1.5c0.7-0.9,1.7-1.4,2.8-1.6c0.2-0.1,0.4-0.1,0.6-0.2c-1.1-0.6-2-0.7-3,0
			c-0.2,0.1-0.5,0.1-0.8,0.1c0-0.3,0-0.6,0.1-0.8c0.4-0.7,1-1.2,1.8-1.3c1.5-0.1,2.8,0.6,3.9,1.6c0.4,0.4,0.5,1,0.8,1.5
			c-0.2,0.2-0.4,0.3-0.6,0.5c1,0.6,3.8,0.7,4.7,0c-0.6-0.1-1.1-0.1-1.6-0.1c-1.7,0-2.3-0.8-1.8-2.4c0.3-0.9,0.5-1.7,0.8-2.6
			c0-0.1,0.3-0.3,0.4-0.3c0.9,0.3,1.8,0.7,2.7,0.9c0.6,0.2,1.2,0.2,1.8,0.3c0.1,0,0.2-0.6,0.2-0.6c-0.7-0.4-1.2-1.2-2.2-1.1
			c-0.5,0-0.9-0.1-1.4-0.2c-0.2-0.1-0.5-0.3-0.5-0.5c0-0.4-0.1-1,0.2-1.3c0.5-0.8,0.1-1.2-0.5-1.5c-0.6-0.4-0.9-0.9-0.6-1.6
			c0.1-0.3,0.1-0.7,0.3-1c0.1-0.2,0.2-0.5,0.4-0.7c1.6-1,1.7-1.8,0.6-3.3c-0.1-0.2-0.2-0.3-0.3-0.5c-0.7-0.9-0.9-1.8-0.4-2.8
			c0.6-1.1,1.6-1.6,2.8-1.6c2.7,0,5.2,0.9,6.9,3c1,1.2,1.6,2.8,2.5,4.1c0.2,0.3,0.4,0.5,0.6,0.7c0.1-0.3,0.3-0.6,0.3-0.9
			c0-0.6-0.2-1.2-0.3-1.7c-0.1-0.9-0.6-1.5-1.4-1.9c-0.4-0.2-0.8-0.6-1.3-0.9c0.8-0.4,2.1-0.1,2.8,0.6c1.7,1.8,1.5,4,0.9,6.1
			c-0.2,0.9-0.9,1.7-1,2.5c-0.1,1.9-1,3.2-2.5,4.2c-0.3,0.2-0.6,0.2-1.1,0.4c0.1-0.5,0.1-0.9,0.1-1.5c-1,0.3-2,0.1-2.7,0.9
			c-0.9,1-1.8,1.9-3.2,2.2c-0.8,0.2-1.1,1.1-1.4,1.9c1.3,0.3,2.1-0.2,2.6-1.1c0.1-0.3,0.5-0.5,0.8-0.7c0.1,0.1,0.2,0.2,0.3,0.2
			c-0.2,0.5-0.3,1-0.6,1.5c-0.3,0.6-0.1,1,0.5,1.1c1,0.1,1.9,0.2,2.8-0.4c1.6-1.1,3.3-1.3,5.2-0.9c0.2,0.1,0.4,0.2,0.7,0.3
			c0,0.1,0,0.2,0,0.3c-0.7,0-1.5,0.1-2.2,0.1c-1,0-1.6,0.6-2,1.4c-0.1,0.2-0.1,0.7,0,0.9c0.1,0.2,0.6,0.2,0.8,0.1
			c0.9-0.3,1.5,0.2,2,0.8c0.2,0.3,0.4,0.7,0.7,1c0.2,0.2,0.5,0.4,0.8,0.6c0.1-0.1,0.1-0.1,0.2-0.2c-0.1-0.2-0.4-0.5-0.4-0.7
			c0-0.4,0.1-0.7,0.1-1.1c0.4,0.2,0.8,0.3,1.1,0.5c0.1,0.1,0.2,0.3,0.4,0.7c0.1-1.7,0.1-1.7,1.4-0.8c-0.1-0.4-0.2-0.6-0.2-0.8
			c-0.2-0.4-0.4-0.9,0.1-1.1c0.3-0.1,0.8,0.2,1.1,0.4c0.3,0.2,0.4,0.5,0.6,0.9c0.6-1.1-0.1-2.2-1.3-2.5c-0.6-0.1-1.1-0.3-1.8-0.5
			c0.9-1.3,2-1.4,3-0.3c0.5,0.5,0.9,0.7,1.6,0.2c0.2-0.2,0.6-0.2,0.9-0.2c0,0.1,0.1,0.2,0.1,0.3c-0.3,0.3-0.7,0.5-1,0.8
			c-0.2,0.2-0.2,0.5-0.2,0.7c0.2,0,0.5,0.2,0.7,0.1c1.2-0.6,2.3-1.2,3.5-1.8c1.9-1,3.8-2.1,5.8-2.8c4.2-1.4,7.9-3.8,11.7-6
			c2.3-1.4,4.6-2.8,6.8-4.2c1.1-0.7,2.2-1.3,3.3-2.1c0.2-0.1,0.2-0.5,0.3-0.8c-0.3-0.1-0.7-0.3-0.9-0.2c-1.7,0.7-3.5,1.4-5.1,2.3
			c-2.4,1.5-4.6,3.2-6.9,4.8c-0.7,0.5-1.6,0.9-2.4,1.3c-0.1-0.1-0.2-0.2-0.2-0.3c0.3-0.3,0.6-0.5,0.9-0.8c1.8-1.4,3.5-2.8,5.3-4.2
			c0.9-0.7,1.7-1.5,2.7-2c1.6-0.9,3.2-1.9,4.9-2.5c2.1-0.8,3.8-0.4,4.6,1.6c0.4,1,0.2,1.9-0.6,2.5c-0.6,0.5-1.3,1-2,1.4
			c-1.7,0.8-3.4,1.4-5,2.3c-2,1.1-3.9,2.3-5.9,3.4c-2.6,1.5-5.3,3-8.2,4c-2.3,0.8-4.6,1.6-6.8,2.6c-1.6,0.7-3.2,1.7-4.8,2.4
			c-2,0.8-3.7,2.2-5.7,2.8c-0.2,0.1-0.4,0.4-0.6,0.6c0.2,0.1,0.4,0.2,0.6,0.4c0.5,0.5,1.2,1,1.4,1.6c0.6,1.7,0.9,3.4,1.4,5.2
			c0.1,0.3,0.4,0.5,0.5,0.7c0.1-0.3,0.4-0.6,0.3-0.8c-0.3-1.5-0.6-3.1-1-4.6c-0.1-0.5-0.4-1-0.7-1.5c-0.6-1-0.6-1.2,0.4-1.7
			c1.2-0.6,2.4-1.2,3.6-1.7c3.1-1.3,6.1-2.7,9.2-4c2.5-1.1,5-2,7.4-3.2c1.9-0.9,3.6-2.1,5.4-3c2.2-1.1,4.4-2.1,6.6-3.1
			c2-1,4.2-1.9,5.3-4c0.4-0.7,0.6-1.6,1-2.4c0.9-1.7,0.9-3.4,0.5-5.2c-0.2-0.8-0.5-1.6-0.9-2.4c-0.7-1.3-1.6-2.6-2.3-3.9
			c-1-1.9-1.4-3.9-0.9-6C160.8,40.6,161.2,39.9,161.6,39z M109.6,110.6c-0.1,0-0.2,0-0.3,0c0,0.3-0.1,0.6-0.1,0.9
			c-0.3,1.7-0.5,3.4-1,5.1c-0.4,1.1-1.2,2-1.9,2.9c-0.3,0.4-1,0.5-1.4,0.8c-2,1.8-4.4,3-6.9,4.1c-0.3,0.1-0.5,0.4-0.7,0.6
			c0.2,0.2,0.4,0.4,0.6,0.6c1.5,0.8,2.8,1.9,3.8,3.3c0.1,0.2,0.1,0.5,0.2,0.8c-0.3,0-0.6,0.1-0.8,0.1c-0.3-0.1-0.6-0.3-0.8-0.4
			c-0.5-0.2-1.1-0.4-1.6-0.6c-0.1,0.1-0.1,0.2-0.2,0.2c0.2,0.4,0.3,0.7,0.5,1.1c0.2,0.3,0.4,0.6,0.6,0.9c0.2,0.5,0.2,0.7-0.5,0.7
			c-0.6,0-0.8,0.3-0.4,0.8c0.2,0.4,0.6,0.7,0.8,1.1c0.1,0.2,0.1,0.5,0.2,0.7c-0.2-0.1-0.6-0.1-0.7-0.2c-0.9-0.8-1.9-1.6-2.5-2.6
			c-1-1.5-1.7-3.2-2.5-4.9c-0.2-0.4-0.4-0.8-0.9-0.6c-0.2,0.1-0.5,0.7-0.4,0.9c0.5,1.7,0.9,3.5,1.7,5c0.9,1.8,2.2,3.3,3.1,5.1
			c0.8,1.5,1.6,3.1,1.9,4.8c0.3,1.8,1.3,2.6,2.8,3.1c2.1,0.7,4.2,1.3,6.3,2c0.3,0.1,0.7,0.1,1,0.1c-1.8-1.7-4.3-1.4-6.1-2.9
			c0.4-0.2,0.7-0.3,1.1-0.3c1.5,0.4,2.9,0.7,4.3,1.2c0.7,0.3,1.5,0.9,1.6,1.9c0,0.3,0.4,0.6,0.7,0.7c1.3,0.3,2.7,0.5,4,0.7
			c1.7,0.2,3.5,0.3,5.3,0.2c1.4,0,2.2-1,2.2-2.5c0-1.1,0.2-2,1-2.8c0.4-0.4,0.6-0.8,0.1-1.2c-1.8-1.8-4-2.9-6.5-3.4
			c-1.9-0.3-3.7-0.7-5.3-2c-0.8-0.7-2.1-0.9-3.2-1.3c-1.4-0.5-2.7-1.1-3.6-2.4c-0.2-0.3-0.3-0.6-0.5-0.9c1.5,0.9,1.5,0.9,2,0.8
			c0-0.1,0-0.2-0.1-0.3c-0.9-1.3-1.2-2.7-1.3-4.2c-0.1-1.3-0.2-2.5-0.9-3.6c-0.2-0.3-0.3-0.9-0.1-1.2c0.3-0.7,0.8-1.2,1.2-1.8
			c0.1,0,0.2,0.1,0.3,0.1c-0.1,0.4-0.1,0.9-0.2,1.3c0,0.5-0.2,1,0,1.4c1.5,2.4,0.7,5.3,1.8,7.8c-0.4,1,0.3,1.3,1.1,1.6
			c0.4,0.1,0.7,0.3,1.1,0.4c1.5,0.4,3,0.8,4.2,2c0.3,0.3,0.7,0.5,1,0.5c2.1,0.3,4,0.7,5.9,1.6c1.6,0.7,3,1.6,4,3.2
			c0.5,0.8,1.2,1.4,2.2,1.6c0.6,0.1,1.2,0.6,1.7,1.1c0.2,0.2,0.3,0.7,0.2,1c-0.5,1.4-0.8,2.9-2.2,3.9c-0.1,0.1-0.2,0.4-0.2,0.6
			c0,0.1,0.3,0.2,0.5,0.3c1.1,0.2,1.8-0.1,2.4-1.4c0.3-0.6,0.5-1.4,0.7-2c0.2-0.5,0.4-1.2,1.2-1.1c1,0,2.1,0.1,3.1,0.2
			c0.7,0,1.3,0.3,2,0.2c2.3-0.4,4.1,0.7,5.5,2.3c1,1,0.8,2.3-0.1,3.4c-1.6,1.7-2.6,3.6-3.1,5.8c-0.2,0.8-0.6,1.6-1.1,2.2
			c-0.7,1-1.5,1.8-2.2,2.7c0,0.1,0.1,0.2,0.1,0.2c0.5-0.2,1-0.4,1.5-0.7c1.8-1.3,2.8-3.1,3.1-5.3c0.3-1.7,0.9-3.4,2.4-4.6
			c1.1-0.9,1.3-2.2,0.7-3.5c-1.4-2.9-2.7-5.9-4.6-8.5c-1.4-1.9-1.8-3.9-0.6-6.1c0.5-0.8,1.2-1.4,1.9-2.1c0.5-0.5,1-1,1.1-1.8
			c-1.4,0.9-2.9,1.8-3.9,3.2c-1.7,2.2-2.5,4.6-0.9,7.3c0.2,0.3,0.2,0.6,0.3,0.9c0.2,0.7-0.2,1.3-0.9,1.3c-1.8,0.1-3.5-0.4-4.9-1.7
			c-1.5-1.5-1.6-3.8-0.5-5.9c0.7-1.3,1.5-2.7,1.4-4.2c-0.1-1.3-0.2-2.5-0.5-3.8c-0.1-0.4-0.5-0.8-0.7-1.2c-0.1,0-0.2,0.1-0.3,0.1
			c0,0.3-0.1,0.6-0.1,0.9c-0.1,2.1-1,3.7-2.6,5.1c-1.8,1.5-3.8,1.6-5.9,1.2c-0.6-0.1-1.3-0.5-1.7-0.9c-1-1.3-1.4-2.8-0.9-4.4
			c0.7-2.2,1.8-4.1,3.9-5.2c0.8-0.5,1.7-1,2.5-1.6c-0.4-0.2-0.8-0.3-1.2-0.2c-1.2,0.2-2.3,0.5-3.5,0.8c-1.9,0.5-3.3,1.7-4.5,3.2
			c-1,1.3-2.2,2.4-3.7,3.1c-1.9,1-4.3,0-4.7-2.2c-0.2-0.8-0.3-1.8-0.1-2.6c0.3-1.6,0.8-3.1,1.4-4.6c0.8-2.2,1.1-4.5,1-6.9
			C109.8,111,109.7,110.8,109.6,110.6z M75.3,53.2c-0.7-1.1-1.6-1.5-2.6-1.6c-1.1-0.1-2.1-0.2-3.2-0.3c-0.3,0-0.7-0.2-0.8-0.5
			c-0.9-1.5-2.3-2.3-3.9-2.7c-1.8-0.5-3.4,0-5.1,0.6c-2.7,1-4.7,3.9-4.9,6.8c-0.2,4,3.1,7.8,6.4,9.1c0.7,0.3,1.4,0.6,2.2,0.8
			c0.2,0.1,0.5-0.1,0.7-0.1c-0.1-0.2-0.1-0.4-0.2-0.6c0-0.1-0.1-0.2-0.1-0.3c1.5-0.7,2.9-0.4,3.6,0.8c0.7,1.3,1.8,2.4,3.4,2.7
			c0.9,0.2,1.8,0.5,2.7,0.7c0.1,0,0.3,0,0.5,0c0-0.1,0.1-0.1,0.1-0.2c-0.4-0.3-0.9-0.6-1.3-0.9c-0.2-0.1-0.3-0.3-0.4-0.4
			c0.2-0.2,0.3-0.4,0.5-0.5c0.5-0.1,1-0.1,1.5,0c0.6,0.2,1.1,0.7,1.6,1c0.3,0.2,0.6,0.2,0.9,0.4c0-0.1,0.1-0.2,0.1-0.3
			c-1.2-0.4-1.6-1.4-2-2.3c-0.5-1-1.2-1.6-2.4-1.7c-0.4,0-0.9-0.1-1.2-0.3c-0.4-0.3-0.6-0.7-0.9-1.1c0.4-0.2,0.8-0.7,1.2-0.7
			c1.3,0.1,2.6,0.3,3.5,1.5c0.9,1.2,2,1.7,3.5,1.3c0.5-0.1,1,0,1.5,0c0.3,0,0.6-0.1,0.9-0.1c0-0.1,0-0.2,0-0.3
			c-0.4-0.1-0.9-0.3-1.3-0.3c-0.7-0.1-1.3-0.3-1.7-0.9c-0.4-0.7-0.9-1.3-1.4-2c-0.1-0.2-0.2-0.5-0.1-0.7c0.1-0.2,0.5-0.4,0.7-0.4
			c0.6,0.1,1.1,0.3,1.7,0.5c1,0.4,2.1,0.6,3.4,0.2c-0.3-0.2-0.4-0.3-0.5-0.3c-1.6-0.4-2.5-1.5-3.1-3c-0.6-1.5-2.1-2.2-3.7-1.9
			c-0.6,0.1-1.3,0.1-1.9-0.1c-0.4-0.1-0.6-0.7-0.9-1c0.4-0.3,0.7-0.7,1.1-0.8C73.9,53.2,74.5,53.3,75.3,53.2z M110.2,64.5
			c-1,0.5-1.7,0.1-2.2-0.7c-0.8,1.8-0.8,2.5,0.7,2.7c-0.2,0.7-0.3,1.3,0.6,1.5c0.1,0,0.1,0.1,0.2,0.2c0.7,0.6,2.2,0.4,2.7-0.4
			c0.4-0.6,0.8-1.3,1.2-2c-0.3-0.3-0.8-0.7-1.2-1.1c-0.6-0.5-0.7-1.5-0.1-1.8c0.5-0.3,1.2-0.6,1.9-0.6c0.8,0,1.7,0.8,1.8,1.5
			c0.2,1-0.2,1.5-1.2,2c-0.2,0.1-0.4,0.3-0.6,0.4c0,0.1,0,0.2,0.1,0.2c0.5,0.1,1.1,0.1,1.6,0.3c0.5,0.2,1,0.5,1.4,0.8
			c0.4,0.4,0.7,0.8,0.3,1.5c-0.3-0.3-0.6-0.5-0.9-0.7c-0.2-0.1-0.5-0.1-0.6,0c-0.1,0.2-0.2,0.6-0.2,0.7c0.5,0.4,1.1,0.8,1.7,1.1
			c0,0,0.2-0.1,0.2-0.1c1-0.8,1.5-3.7,1-5c-0.8-2.1-2.6-3.2-4.4-4.2c-1.3-0.7-2.6-0.6-3.9-0.1c-0.5,0.2-0.8,0.6-1.2,1
			c0.5,0.2,0.9,0.1,1.2,0.2c0.7,0.1,1.2,0.8,0.8,1.3c-0.7,0.9-0.3,1.5,0.3,2.1c0.1,0.1,0.3,0.4,0.3,0.5c-0.1,0.2-0.3,0.6-0.4,0.6
			c-0.5,0-0.9-0.2-1.3-0.4c0.1-0.3,0.2-0.6,0.3-0.9C110.1,65,110.1,64.8,110.2,64.5z M149.3,53.4c0.8-0.7,1.5-1.4,2.3-1.9
			c2.2-1.4,2.3-3.7,1.6-5.9c-0.1-0.2-0.2-0.4-0.3-0.6c-0.1-0.1-0.4-0.2-0.6-0.2c-0.1,0-0.2,0.3-0.2,0.5c0.2,1.2-0.6,1.9-1.2,2.7
			c-0.7,0.9-1.4,1.8-1.8,2.8C148.7,51.6,148.6,52.6,149.3,53.4z M122,81.4c-0.1,0.3-0.2,0.5-0.2,0.8c0,0.7,0.1,1.5,0.1,2.2
			c0,1.2,0,2.4,0,3.6c0,0.8,0.5,1.1,1.2,0.8c0.3-0.1,0.6-0.2,1-0.3c0,0.3,0.1,0.5,0.1,0.7c0.7-0.3,0.8-1.1,0.5-1.8
			c-0.5-1.2-0.8-2.5-1.2-3.7c-0.1-0.4-0.4-0.9-0.6-1.2C122.7,82.1,122.4,81.9,122,81.4z M53,142.6c0.4,0.3,0.8,0.5,1,0.8
			c0.7,1,1.6,1.7,2.6,2.3c0.6,0.4,1,0.4,1.4-0.1c0.5-0.6,0.1-0.9-0.3-1.2c-0.9-0.7-1.8-1.4-2.6-2.2c-1-1-0.9-1-1.8,0
			C53.2,142.3,53.2,142.5,53,142.6z M50.5,144.9c-1.1,0.2-1.3,1.2-1.6,1.9c-0.6,1.2-0.6,1.2-1.7,0.6c-0.5,0.4-1.1,0.8-1.7,1.3
			c1.2,0,2.3,0,3.3,0c0.1,0,0.2-0.1,0.3-0.2C50.3,147.6,50.6,146.3,50.5,144.9z M117.3,86.2c0.5,1.1,0.9,2,1.4,3
			c0.1,0.2,0.5,0.3,0.7,0.3c0.4-0.1,0.8-0.3,1.2-0.6c0.1-0.1,0.3-0.5,0.2-0.6c-0.3-0.4-0.6-0.9-1-1.2
			C118.9,86.6,118.1,86.4,117.3,86.2z M41.2,149.6c0-0.6,0.1-0.9,0-1.3c-0.1-0.3-0.3-0.7-0.5-0.8c-0.8-0.5-1.6-0.8-2.4-1.2
			c-0.2-0.1-0.5-0.2-0.7-0.1c-0.2,0.1-0.4,0.5-0.3,0.6c0.2,0.6,1.2,1,1.8,0.9c0.5-0.1,0.9,0,0.8,0.6
			C39.7,149.2,40.5,149.2,41.2,149.6z M134.8,147c0.2,0.8,0.4,1.6,0.7,2.3c0.1,0.2,0.3,0.4,0.5,0.6c0.2-0.2,0.4-0.4,0.5-0.7
			c0.2-0.7,0.4-1.4,0.5-2.1c0-0.2-0.1-0.6-0.2-0.6c-0.6,0-1.2,0.1-1.8,0.1C134.9,146.7,134.8,146.9,134.8,147z M109.4,72.9
			c-0.2-0.1-0.5-0.4-0.8-0.6c-0.6-0.3-1.3,0-1.5,0.6c-0.1,0.5-0.3,0.9-0.3,1.4c0,0.3,0.3,0.7,0.5,0.9c0.1,0.1,0.6-0.2,0.8-0.4
			C108.5,74.3,108.9,73.7,109.4,72.9z M117.2,81.7c0.2,0.5,0.3,0.8,0.4,1.2c0.1,0.6,0.4,0.6,0.8,0.4c0.5-0.2,0.9-0.3,1.4-0.4
			c0.2-0.1,0.4-0.2,0.5-0.4c0-0.1-0.2-0.3-0.3-0.5c-0.4-0.4-0.8-0.8-1.1-1.2c-0.1-0.1-0.2-0.2-0.6-0.4c0,0.5,0.1,0.8,0.1,1.1
			c0,0.2-0.1,0.5-0.2,0.6c0,0.1-0.4-0.1-0.5-0.2C117.5,81.9,117.4,81.8,117.2,81.7z M116.8,85.8c0.1-0.5,0.2-0.8,0.3-1.2
			c0.3-1,0.2-1.2-0.7-1.5c-0.1,0-0.5,0.2-0.5,0.3C115.7,84.3,116,85.1,116.8,85.8z M138.1,146.6c-0.1,0.1-0.2,0.2-0.2,0.3
			c0.2,0.2,0.4,0.4,0.6,0.5c0.2,0.2,0.4,0.3,0.6,0.5c0.3,0.4,0.6,0.9,1,1.2c0.2,0.2,0.5,0.1,0.8,0.2c0-0.3,0-0.7-0.1-0.8
			C139.9,147.8,139,147.3,138.1,146.6z M82.3,67.7c0.9,0.6,1.6,1.5,2.8,1.4C84.2,67.5,83.4,67.1,82.3,67.7z M86.4,80.2
			c-0.4-0.5-0.7-1.2-1-1.2c-0.7,0.1-0.4,0.8-0.4,1.3c0,0,0,0.1,0,0.1c0.2,0.3,0.4,0.5,0.6,0.8C85.9,80.9,86.1,80.6,86.4,80.2z
			 M125.7,93.2c0.1,0,0.2-0.1,0.3-0.1c-0.2-0.6-0.3-1.2-0.5-1.8c-0.1-0.1-0.4-0.2-0.6-0.2c0,0-0.2,0.3-0.2,0.4
			C125.1,92,125.4,92.6,125.7,93.2z M67.6,69.2c0.4,1,1.1,1.3,2.1,1.2C69.2,69.6,68.6,69.2,67.6,69.2z M138.5,53.3
			c-0.1,0-0.3-0.1-0.4-0.1c-0.2,0.4-0.4,0.8-0.6,1.2c0,0.1,0.1,0.3,0.1,0.5c0.2-0.1,0.5-0.1,0.5-0.2
			C138.3,54.2,138.4,53.7,138.5,53.3z M131.7,121.3c-0.7,0.8-0.7,1.6,0,2.1C131.7,122.7,131.7,122.1,131.7,121.3z"/>
		<path class="st0" d="M161.6,39c-0.4,0.9-0.8,1.6-1,2.3c-0.5,2.1-0.1,4.1,0.9,6c0.7,1.3,1.6,2.6,2.3,3.9c0.4,0.7,0.7,1.6,0.9,2.4
			c0.4,1.8,0.3,3.5-0.5,5.2c-0.4,0.8-0.5,1.6-1,2.4c-1.2,2.1-3.3,3-5.3,4c-2.2,1-4.4,2-6.6,3.1c-1.8,0.9-3.5,2.2-5.4,3
			c-2.4,1.2-4.9,2.1-7.4,3.2c-3.1,1.3-6.2,2.6-9.2,4c-1.2,0.5-2.4,1.1-3.6,1.7c-1,0.5-1,0.7-0.4,1.7c0.3,0.5,0.6,1,0.7,1.5
			c0.4,1.5,0.7,3,1,4.6c0,0.3-0.2,0.6-0.3,0.8c-0.2-0.2-0.5-0.4-0.5-0.7c-0.5-1.7-0.8-3.5-1.4-5.2c-0.2-0.6-0.9-1.1-1.4-1.6
			c-0.2-0.2-0.4-0.3-0.6-0.4c0.2-0.2,0.3-0.6,0.6-0.6c2.1-0.6,3.8-2,5.7-2.8c1.6-0.7,3.2-1.7,4.8-2.4c2.2-0.9,4.5-1.8,6.8-2.6
			c2.9-1,5.5-2.5,8.2-4c2-1.1,3.9-2.3,5.9-3.4c1.6-0.9,3.4-1.5,5-2.3c0.7-0.4,1.4-0.9,2-1.4c0.8-0.6,1-1.5,0.6-2.5
			c-0.8-2-2.6-2.4-4.6-1.6c-1.7,0.6-3.3,1.6-4.9,2.5c-1,0.6-1.8,1.3-2.7,2c-1.8,1.4-3.6,2.8-5.3,4.2c-0.3,0.3-0.6,0.5-0.9,0.8
			c0.1,0.1,0.2,0.2,0.2,0.3c0.8-0.4,1.6-0.8,2.4-1.3c2.3-1.6,4.5-3.3,6.9-4.8c1.6-1,3.3-1.6,5.1-2.3c0.2-0.1,0.6,0.1,0.9,0.2
			c-0.1,0.3-0.1,0.7-0.3,0.8c-1.1,0.7-2.2,1.4-3.3,2.1c-2.3,1.4-4.5,2.8-6.8,4.2c-3.8,2.2-7.5,4.6-11.7,6c-2,0.7-3.9,1.9-5.8,2.8
			c-1.2,0.6-2.3,1.2-3.5,1.8c-0.2,0.1-0.5,0-0.7-0.1c0.1-0.2,0.1-0.6,0.2-0.7c0.3-0.3,0.7-0.5,1-0.8c0-0.1-0.1-0.2-0.1-0.3
			c-0.3,0.1-0.7,0.1-0.9,0.2c-0.6,0.6-1.1,0.3-1.6-0.2c-1-1-2.1-1-3,0.3c0.6,0.2,1.2,0.3,1.8,0.5c1.2,0.3,1.8,1.3,1.3,2.5
			c-0.2-0.3-0.4-0.7-0.6-0.9c-0.3-0.2-0.8-0.5-1.1-0.4c-0.6,0.2-0.3,0.7-0.1,1.1c0.1,0.2,0.1,0.4,0.2,0.8c-1.3-0.9-1.3-0.9-1.4,0.8
			c-0.2-0.4-0.3-0.6-0.4-0.7c-0.3-0.2-0.7-0.4-1.1-0.5c-0.1,0.4-0.2,0.7-0.1,1.1c0,0.3,0.3,0.5,0.4,0.7c-0.1,0.1-0.1,0.1-0.2,0.2
			c-0.3-0.2-0.6-0.3-0.8-0.6c-0.3-0.3-0.4-0.7-0.7-1c-0.5-0.7-1-1.2-2-0.8c-0.2,0.1-0.7,0-0.8-0.1c-0.1-0.2-0.1-0.6,0-0.9
			c0.4-0.8,1-1.4,2-1.4c0.7,0,1.5-0.1,2.2-0.1c0-0.1,0-0.2,0-0.3c-0.2-0.1-0.4-0.2-0.7-0.3c-1.9-0.4-3.6-0.2-5.2,0.9
			c-0.9,0.6-1.9,0.5-2.8,0.4c-0.6-0.1-0.7-0.5-0.5-1.1c0.2-0.5,0.4-1,0.6-1.5c-0.1-0.1-0.2-0.2-0.3-0.2c-0.3,0.2-0.7,0.4-0.8,0.7
			c-0.4,0.9-1.3,1.4-2.6,1.1c0.4-0.8,0.6-1.7,1.4-1.9c1.4-0.3,2.3-1.1,3.2-2.2c0.7-0.8,1.7-0.5,2.7-0.9c-0.1,0.6-0.1,0.9-0.1,1.5
			c0.4-0.2,0.8-0.2,1.1-0.4c1.5-1,2.4-2.3,2.5-4.2c0.1-0.9,0.7-1.7,1-2.5c0.6-2.2,0.7-4.3-0.9-6.1c-0.7-0.8-1.9-1.1-2.8-0.6
			c0.5,0.3,0.9,0.7,1.3,0.9c0.9,0.4,1.3,1,1.4,1.9c0.1,0.6,0.3,1.2,0.3,1.7c0,0.3-0.2,0.6-0.3,0.9c-0.2-0.2-0.4-0.4-0.6-0.7
			c-0.8-1.4-1.5-2.9-2.5-4.1c-1.7-2.2-4.2-3-6.9-3c-1.2,0-2.2,0.5-2.8,1.6c-0.5,1-0.3,2,0.4,2.8c0.1,0.2,0.2,0.3,0.3,0.5
			c1.1,1.5,1,2.3-0.6,3.3c-0.2,0.1-0.3,0.4-0.4,0.7c-0.1,0.3-0.1,0.7-0.3,1c-0.3,0.7-0.1,1.2,0.6,1.6c0.6,0.4,1.1,0.7,0.5,1.5
			c-0.2,0.3-0.2,0.9-0.2,1.3c0,0.2,0.3,0.4,0.5,0.5c0.5,0.1,0.9,0.2,1.4,0.2c1-0.1,1.5,0.7,2.2,1.1c0.1,0-0.1,0.6-0.2,0.6
			c-0.6,0-1.3-0.1-1.8-0.3c-0.9-0.3-1.8-0.6-2.7-0.9c-0.1,0-0.4,0.2-0.4,0.3c-0.3,0.9-0.5,1.7-0.8,2.6c-0.5,1.6,0.1,2.4,1.8,2.4
			c0.5,0,1,0.1,1.6,0.1c-0.9,0.7-3.7,0.6-4.7,0c0.2-0.2,0.4-0.4,0.6-0.5c-0.3-0.5-0.4-1.2-0.8-1.5c-1.1-1-2.4-1.7-3.9-1.6
			c-0.8,0.1-1.4,0.6-1.8,1.3c-0.1,0.2-0.1,0.5-0.1,0.8c0.3,0,0.6,0,0.8-0.1c1-0.7,2-0.6,3,0c-0.2,0.1-0.4,0.2-0.6,0.2
			c-1.1,0.3-2.1,0.7-2.8,1.6c-0.3,0.4-0.6,1-0.6,1.5c0,1.1-0.5,1.9-1.1,2.6c-0.2,0.2-0.4,0.4-0.5,0.7c-0.7,1.1-0.5,2.2,0.7,2.6
			c0.8,0.3,1.7-0.1,2.6-0.2c0,0,0,0,0.1-0.1c0.3-0.3,0.7-0.9,1-0.9c0.4,0,0.8,0.5,1.1,0.8c0.5,0.4,1,0.5,1.6,0.3
			c1.5-0.6,3.2-0.8,4.8-0.9c2.6-0.3,5.1-1,7.4-2.2c0.4-0.2,1-0.3,1.5-0.4c0.1,0.1,0.1,0.2,0.2,0.4c-0.4,0.3-0.8,0.6-1.2,0.9
			c-1.4,0.9-1.8,2.6-0.9,3.9c0.6,0.9,1.4,1.7,1.8,2.6c0.5,1.1,0.6,2.4,0.8,3.6c0.1,0.5,0.1,1,0.2,1.5c0.3,1-0.1,1.8-0.5,2.7
			c-0.6,1.3-1.2,2.6-1.7,4c-0.4,1.2-1,2.2-2.2,2.9c-0.3,0.2-0.7,0.4-1,0.6c-1.3,0.9-1.9,2.1-2.1,3.7c0,0.2-0.1,0.5-0.2,0.8
			c-0.8-0.5-0.7-1.2-0.4-1.8c0.4-0.7,0.6-1.3-0.1-2c1.8-0.5,2.4-1.8,3.1-3.2c0.2-0.5,0.8-0.8,1.2-1.1c0.1-0.1,0.4-0.2,0.5-0.3
			c0.9-1.2,1.7-2.5,2-3.9c-0.1-0.1-0.1-0.1-0.2-0.2c-0.2,0.2-0.6,0.3-0.7,0.5c-0.6,0.7-1.1,1.4-1.6,2.1c-0.2,0.3-0.5,0.6-0.8,0.7
			c-0.9,0.4-1.4,1.1-1.7,2c-0.4,0.9-1,1.4-1.9,1.5c-0.6,0.1-1.1,0.4-1.4,1c-0.2,0.3-0.8,0.5-1.2,0.6c-1.4,0.1-2.5,0.6-3.4,1.6
			c-0.2,0.2-0.2,0.5-0.2,0.8c1.7-1.5,3.6-0.9,5.6-1.1c-0.4,0.7-0.8,1.2-0.9,1.7c-0.2,1-0.2,2.1-0.2,3.2c-0.1,1.3-0.1,2.6-0.3,3.9
			c-0.1,0.8-0.4,1.6-0.8,2.2c-0.2,0.4-0.8,0.6-1.2,0.9c-0.6,0.3-1.2,0.5-1.8,0.8c-1.8,1.1-3.6,2.2-5.4,3.3c-2.3,1.4-4.8,2.1-7.5,2.3
			c-1.4,0.1-2.7,0.6-4.1,0.9c-1.3,0.3-2.7,0.5-4,0.9c-0.9,0.2-1.7,0.7-2.5,1.1c-0.2,0.1-0.3,0.5-0.4,0.7c0.3,0.1,0.6,0.3,0.9,0.3
			c0.9,0,1.8-0.2,2.7-0.2c0.3,0,0.6,0.2,1,0.3c-0.3,0.3-0.4,0.4-0.6,0.5c-1.6,0.7-3.3,1-5,0.9c-1.1-0.1-2.3,0.1-3.5,0.3
			c-0.5,0.1-0.9,0.4-0.8,1c0.1,1-0.5,1.4-1.2,1.6c-1.1,0.4-1.1,0.4-1,1.6c0.1,0.5-0.8,1.2-1.4,1.1c-0.5-0.1-1-0.6-1.5-0.1
			c-0.3,0.4-0.5,0.9-0.8,1.3c0,0.1-0.1,0.1-0.2,0.2c-1.1-0.4-1.2-0.6-0.5-1.5c0.5-0.6,0.9-1.4,1.2-2.1c0.3-0.6,0.5-1,1.2-1.2
			c1.6-0.4,2.7-1.4,3.3-2.9c0.3-0.6,0.9-1.1,1.4-1.6c0.5-0.4,1-0.8,1.6-1.2c-0.2-0.1-0.3-0.2-0.4-0.2c-1.7,0.6-3.3,1.3-4,3.2
			c-0.3,0.8-0.9,1.3-1.8,1.4c-1.2,0.1-1.9,0.8-2.2,1.8c-0.5,1.6-1.5,2.7-2.9,3.5c-0.4,0.2-0.8,0.5-1.1,0.9c-0.1,0.2-0.1,0.5-0.1,0.8
			c0.3,0,0.6,0.1,0.7,0c0.5-0.3,0.9-0.6,1.4-1c0.5-0.3,0.8-0.3,0.8,0.4c-0.1,1.2-0.1,2.3-0.3,3.5c-0.2,1.2-0.9,1.2-1.8,0.5
			c-1.5-1.2-3.1-2.4-4.7-3.6c-1-0.7-1.1-1-0.4-2c0.8-1.1,1.5-2.2,2.2-3.3c0.7-1.2,1.9-1.8,2.9-2.6c0.2-0.1,0.4-0.2,0.5-0.3
			c0.1-0.2,0.1-0.5,0.2-0.7c-0.2,0-0.5,0-0.7,0.1c-0.7,0.3-1.4,0.6-2,1c-0.5,0.4-1.1,0.8-1.5,1.4c-1.2,1.6-2.1,3.4-3.7,4.7
			c-0.3,0.2-0.4,1-0.3,1.3c0.8,1.3-0.1,2-0.8,2.7c-0.2,0.2-0.4,0.3-0.7,0.5c0-0.3-0.1-0.4-0.1-0.5c0.5-1.8,0.3-3.5,0.1-5.3
			c-0.2-1.6,0-3.1,0.9-4.4c0.2-0.3,0.6-0.5,0.9-0.8c0.1,0,0.1,0.1,0.2,0.1c-0.2,0.3-0.3,0.7-0.5,1c-0.4,0.6-0.4,1.2,0.1,1.8
			c0.5,0.5,1.2,0.4,1.7,0c1.2-0.8,1.5-2,1.6-3.3c0.2-2.3-0.4-4.6-0.8-6.9c-0.6-2.7-0.6-5.3,0.3-7.8c1-2.9,2.6-5.4,5.6-6.8
			c-0.3,0.4-0.5,0.8-0.8,1.2c-1.1,1.6-1.4,3.4-1.4,5.3c0,1.1,0.6,1.9,1.4,2.4c1.6,1.1,3.6,0,3.9-2.1c0.2-1.3,0.5-2.6,1-3.8
			c0.4-0.9,1.2-1.6,1.9-2.4c2.2-2.6,3.6-5.4,3.2-8.9c-0.2-1.3-0.3-2.8-0.1-4.1c0.4-3,1.8-5.3,4.9-6.1c0.2,0,0.4-0.1,0.7-0.1
			c-0.1,0.4-0.2,0.7-0.3,0.9c-1,1.7-1.2,3.5-0.9,5.3c0.2,1.3,2.3,3,3.7,3c0.2,0,0.5-0.1,0.7-0.2c1.1-0.8,2.1-1.7,2.3-3.2
			c0.3-1.7,0.5-3.3,0.9-4.9c0.5-2.1,1.2-4.1,2.6-5.8c1.2-1.4,0.9-3.3,0.3-5c-0.6-1.8,0.1-4.8,1.6-6c0.1-0.1,0.2-0.1,0.5-0.2
			c0,0.4,0.1,0.6,0.1,0.9c-0.1,0.7,0.2,1.2,0.8,1.4c0.6,0.2,0.9-0.3,1.1-0.8c0.2-0.6,0.4-1.2,0.4-1.8c0.2-2,0.4-4.1,1.6-5.8
			c0.2-0.4,0.6-0.7,0.9-1c-0.2,0.9-0.4,1.6-0.4,2.3c0,0.5,0.4,1.2,0.8,1.5c0.3,0.2,1.1,0,1.5-0.3c2.9-1.8,3.6-5.2,1.7-8.1
			c-0.9-1.3-1.8-2.5-2.6-3.9c-0.8-1.3-0.9-2.8-0.1-4.3c0.2,0.2,0.3,0.3,0.4,0.5c0.7,1.6,1.9,2.9,3.5,3.7c0.8,0.4,1.8,0.7,2.8,0.7
			c1.1,0.1,1.7-0.8,1.5-1.9c-0.2-1-0.4-1.9-0.2-2.9c0.1-0.9,0.5-1.8,0.9-2.6c1.1-2,1.2-4-0.2-5.9c-0.1-0.1-0.1-0.2-0.1-0.5
			c0.4,0.2,0.6,0.3,0.8,0.4c2.5,1.3,3.6,3.5,3.9,6.2c0.2,1.5,0.7,2.7,2.1,3.4c1,0.6,2,0.5,2.8-0.3c1-1,1.3-2.1,0.7-3.2
			c-0.8-1.4-1-2.9-0.5-4.5c0.4-1.5,1.3-2.6,2.6-3.2c1-0.4,2.1-0.7,3.1-1c0.1,0.1,0.1,0.2,0.2,0.3c-0.1,0.2-0.2,0.4-0.4,0.6
			c-1.7,1.9-1.9,4-0.9,6.2c0.6,1.4,1.3,2.7,2,4c0.7,1.3,0.7,2.7,0.2,4c-0.2,0.4-0.3,0.8-0.5,1.2c-0.6,1.6,0.1,3.2,1.8,3.6
			c0.4,0.1,1,0,1.4-0.3c1.4-1,2.2-2.4,2.4-4.1c0-0.2,0-0.4,0.1-0.7c0-0.1,0.1-0.1,0.2-0.4c0.6,0.8,0.7,1.6,0.7,2.4
			c0,1.6-0.6,3-1.4,4.4c-0.5,0.8-0.9,1.7-1.3,2.6c-0.4,0.8-0.2,1.5,0.3,2.2c2,2.4,4.8,1.6,6.3-0.1c0.9-1,1.2-2.1,1-3.5
			c-0.2-1.7,0.1-3.4,0.7-5.1c0.1-0.1,0.2-0.3,0.4-0.5c0.1,0.3,0.3,0.5,0.3,0.7c0.1,1.8,1.3,2.5,2.7,3c0.3,0.1,0.6,0.1,0.9,0.2
			c2.1,0.5,3.6-0.7,3.7-2.9c0.1-1.5,0.2-2.9,1.4-4c0.2-0.2,0.4-0.3,0.6-0.4c0.1,0,0.1,0.1,0.2,0.1c-0.1,0.3-0.2,0.5-0.2,0.8
			c-0.1,0.7-0.2,1.5-0.1,2.2c0.1,0.4,0.5,0.9,0.9,1.1c1.3,0.7,2.7,0.2,3.8-0.4c1.9-1.1,3.9-2.1,5.4-3.8c1.1-1.3,1.7-2.7,1.5-4.4
			c-0.4-3.5,0.6-6.6,2.6-9.3C159.7,39.9,160.5,39.4,161.6,39z M79,123.2c0,0.5,0.1,0.8,0.1,1.1c0.3-0.1,0.7-0.2,1-0.4
			c0.8-0.6,1.7-0.8,2.7-0.7c1.3,0.1,2.6,0.1,3.9-0.1c2.9-0.5,5.9-1.1,8.8-1.7c1-0.2,2.1-0.4,2.9-1.4c0.4-0.5,1.2-0.8,1.8-1.1
			c0.4-0.2,0.9-0.3,1.3-0.5c0.2-0.1,0.7-0.4,0.6-0.5c-0.1-0.3-0.3-0.7-0.5-0.8c-0.7-0.2-1.5-0.4-2.2-0.4c-2.1-0.1-4.1,0-6.2-0.1
			c-0.3,0-0.5-0.2-0.8-0.4c0.2-0.2,0.4-0.6,0.7-0.7c1.3-0.2,2.7-0.3,4.1-0.4c0.2,0,0.3,0.1,0.5,0.1c1.5,0.7,3.1,0.3,4.6,0
			c0.2,0,0.4-0.2,0.6-0.3c0.3-0.3,0.3-0.6-0.2-0.8c-0.3-0.1-0.7-0.1-1-0.1c-1.1,0-2.1-0.3-3-1c-0.6-0.4-0.6-0.6,0-1
			c0.5-0.4,1.1-0.8,1.6-1.2c0.5-0.4,1-0.7,1.4-0.9c0.5,0.4,0.8,0.7,1.2,0.8c0.6,0.1,1.3,0.1,1.9,0.1c0.2,0,0.6-0.2,0.6-0.3
			c0-0.2-0.1-0.6-0.3-0.7c-0.6-0.2-1.2-0.3-1.8-0.5c-0.2-0.1-0.5-0.1-0.7-0.2c0.1-0.2,0.2-0.4,0.3-0.7c0.1-0.2,0.2-0.4,0.3-0.6
			c-0.1-0.1-0.1-0.1-0.2-0.2c-0.2,0.1-0.5,0.2-0.7,0.4c-1,0.7-1.9,1.5-2.9,2.2c-2,1.3-3.7,3.2-6.1,4c-0.4,0.1-0.8,0.2-1.1,0.5
			c-1.7,1.6-3.9,1-5.8,1.4c-1,0.2-2.1,0.5-3.1,0.8c-0.2,0.1-0.3,0.6-0.4,0.9c0.3,0.1,0.6,0.2,0.9,0.2c0.6-0.1,1.2-0.3,1.7-0.3
			c0.3,0,0.6,0.3,0.9,0.5c-0.2,0.3-0.4,0.8-0.6,0.9c-0.5,0.2-1,0.1-1.6,0.1c-0.4,0-0.8,0.1-1.2,0.2c0,0.1,0,0.2,0,0.3
			c0.2,0.2,0.5,0.4,0.7,0.6c0,0.1,0,0.2,0,0.3c-0.6,0.2-1.2,0.5-1.8,0.6c-1.6,0.1-3.3,0.1-4.8,0.8c-0.2,0.1-0.4,0.4-0.6,0.6
			c0.2,0.1,0.5,0.4,0.7,0.4C77.9,123.3,78.5,123.2,79,123.2z M66.2,125.7c0.3-0.1,0.5-0.2,0.5-0.2c0.8-1.1,2-2,2.2-3.6
			c0.1-0.6,0.4-1.2,0.8-1.6c1.9-1.7,4.2-2.9,6.6-4c2.1-1,4.3-1.9,6.4-3c3.1-1.6,6.1-3.4,9.1-5.2c0.7-0.4,1.4-1,2-1.6
			c0.2-0.2,0.1-0.6,0.2-1c-0.4,0.1-0.7,0-1,0.2c-0.7,0.3-1.3,0.8-1.9,1.2c-0.2,0.1-0.7-0.1-0.8-0.3c-0.5-1,0.3-2.7,1.3-3.1
			c0.4-0.2,0.8-0.4,1.1-0.7c0.1-0.2,0.1-0.5,0.1-0.8c-0.3,0-0.5,0-0.8,0.1c-0.4,0.2-0.8,0.4-1.2,0.6c-0.3,0.2-0.7,0.5-0.8,0.8
			c-0.2,1-0.4,2-0.3,2.9c0.1,0.8,0,1.3-0.7,1.7c-1.6,1-3.2,2-4.9,2.9c-2.9,1.5-5.9,3-8.9,4.4c-2.4,1.2-4.8,2.4-6.7,4.3
			c-0.4,0.4-0.6,1.1-0.8,1.7c-0.2,0.7-0.3,1.5-0.6,2.2c-0.1,0.4-0.5,0.7-0.7,1.2C66.1,125.1,66.2,125.4,66.2,125.7z M102.5,97.1
			c0.1,0.1,0.1,0.1,0.2,0.2c0.3-0.2,0.6-0.3,0.9-0.5c2.4-1.5,4.9-2.8,7.7-3.3c0.6-0.1,1.2-0.3,1.8-0.5c0.2-0.1,0.4-0.3,0.6-0.5
			c-0.2-0.2-0.4-0.4-0.6-0.5c-0.3-0.1-0.7-0.2-1.1-0.1c-1.8,0.2-3.6,0.3-5.4,0.7c-3.5,0.8-6.5,2.6-8.7,5.5c-0.1,0.2-0.1,0.5-0.2,0.7
			c0.3,0,0.6,0,0.8-0.1c1.3-0.9,2.6-1.8,3.9-2.6c0.3-0.2,0.6-0.2,0.9-0.4c0,0.1,0.1,0.2,0.1,0.2C103.1,96.3,102.8,96.7,102.5,97.1z
			 M95.9,85.9c0.4-0.2,0.7-0.4,1.1-0.6c-0.3-0.2-0.6-0.5-0.9-0.6c-1-0.3-1.4-0.8-1.2-1.8c0.1-0.5,0.3-1.1,0.5-1.6
			c0.3-1.3,0.7-2.6,1-3.9c0.2-1,0-2.2,0.8-3.1c0.9-1.1,1.7-2.4,3.4-2.2c1,0.1,2,0,2.8,0.7c0.2,0.2,0.5,0.2,0.8,0.2
			c0.2,0,0.4-0.1,0.6-0.2c-0.1-0.2-0.1-0.4-0.3-0.5c-0.3-0.3-0.7-0.5-1.1-0.7c-2.2-1.2-4.3-1.2-5.9,0.8c-0.3,0.3-0.7,0.6-0.9,1
			c-0.3,0.4-0.7,0.9-0.8,1.4c-0.3,1.3-0.5,2.7-0.8,4.1c-0.3,1.3-0.6,2.7-1,4C93.3,84,94.4,85.7,95.9,85.9z M106.4,99
			c0,0.1,0.1,0.1,0.1,0.2c-0.2,0.3-0.4,0.6-0.6,0.9c-0.1,0.2-0.1,0.4-0.1,0.6c0.2,0,0.5,0.1,0.7,0c0.7-0.3,1.3-0.7,2-1
			c1.2-0.5,2.5-1,3.7-1.5c0.4-0.2,0.9-0.6,0.9-1c0-0.3-0.5-0.8-0.9-0.9c-0.4-0.2-0.9-0.2-1.4-0.2c-0.7,0-1.4,0.2-2.1,0.3
			c-2.2,0.3-4.2,1.2-6,2.5c-0.2,0.1-0.2,0.5-0.3,0.7c0.2,0.1,0.5,0.2,0.7,0.2c0.8-0.1,1.6-0.3,2.4-0.5
			C105.8,99.2,106.1,99.1,106.4,99z M106.9,90.9c1.4-0.2,2.6-0.5,3.9-0.7c1.6-0.2,3.2-0.3,4.7-0.5c0.4-0.1,0.9-0.5,1.1-0.8
			c0.1-0.3-0.3-1-0.6-1.1c-0.7-0.3-1.6-0.6-2.3-0.4c-1.6,0.3-3.2,0.7-4.7,1.3c-0.8,0.3-1.5,0.9-2.2,1.5c-0.1,0.1-0.2,0.4-0.2,0.6
			C106.6,90.8,106.8,90.8,106.9,90.9z M102.6,90.9c0.1,0.1,0.2,0.2,0.3,0.3c0.8-0.5,1.5-1.1,2.3-1.6c2.3-1.6,4.6-3.1,6.9-4.7
			c0.2-0.1,0.3-0.4,0.4-0.6c-0.3,0-0.5-0.1-0.8-0.1c-0.2,0-0.4,0.1-0.5,0.2c-1.9,1.3-3.8,2.4-5.6,3.8C104.5,89,103.6,90,102.6,90.9z
			 M102.8,103c0.6,0,1,0,1.3,0c0.3,0,0.5-0.2,0.8-0.3c-0.2-0.2-0.4-0.5-0.6-0.7c-1.6-0.8-3.3-0.4-5-0.4c-0.1,0-0.2,0.2-0.4,0.3
			c0.8,0.4,0.8,1.6,2,1.7c0.8,0,1.7,0.3,2.5,0.5c0-0.1,0.1-0.2,0.1-0.3C103.3,103.6,103.1,103.4,102.8,103z M96.6,86.7
			c-1.5,0.4-3,4.8-2.2,6.6C95.5,91.2,96.1,89,96.6,86.7z M101.9,88.7c0.2-0.2,0.4-0.3,0.7-0.5c1.6-1.1,3.2-2.2,4.8-3.4
			c0.2-0.1,0.2-0.4,0.3-0.6c-0.2-0.1-0.5-0.1-0.7-0.2c-0.1,0-0.3,0.1-0.4,0.2c-1,0.7-2.1,1.3-3.1,2
			C102.7,86.8,102.1,87.6,101.9,88.7z M95.2,99.9c0.1,0,0.2,0.1,0.3,0.1c0.3-0.6,0.6-1.1,0.8-1.7c0.3-1.1,0.9-1.9,1.6-2.7
			c0.2-0.2,0.2-0.4,0.3-0.7c-0.3,0-0.6-0.1-0.8,0c-1.4,0.7-2.6,2.9-2.4,4.5C95.1,99.6,95.2,99.8,95.2,99.9z M104.4,113.1
			c0,0.1,0.1,0.1,0.1,0.2c0.2-0.2,0.5-0.3,0.5-0.5c0-0.2-0.3-0.6-0.5-0.6c-1.1-0.1-2.1-0.1-3.2-0.1c-0.3,0-0.6,0.3-1,0.4
			c0.3,0.2,0.5,0.5,0.8,0.7c0.1,0.1,0.4,0.1,0.6,0.1C102.6,113.2,103.5,113.2,104.4,113.1z M96.9,89.5c0.1,0.1,0.3,0.1,0.4,0.2
			c0.1-0.1,0.1-0.3,0.2-0.4c0.7-1.1,1.4-2.3,2.1-3.4c0.1-0.2,0.1-0.5,0.1-0.8c-0.3,0.1-0.7,0.1-0.9,0.3c-0.6,0.9-1.2,1.9-1.8,2.8
			C96.9,88.5,97,89,96.9,89.5z M99.4,105.7c0,0,0,0.1,0,0.1c0.4,0,0.8,0.1,1.2,0c0.2,0,0.4-0.3,0.6-0.5c-0.2-0.2-0.3-0.4-0.5-0.5
			c-0.9-0.1-1.8-0.2-2.7-0.1c-0.3,0-0.6,0.2-0.9,0.5c-0.1,0.2-0.2,0.5-0.1,0.7c0,0.1,0.4,0.2,0.6,0.1
			C98.2,106,98.8,105.9,99.4,105.7z M138,70.1c0-0.1-0.1-0.2-0.1-0.3c-0.8-0.2-5.1,1.8-5.6,2.9C134.2,71.8,136.1,71,138,70.1z
			 M115,72.5c0.1,0,0.1,0,0.2-0.1c-0.1-0.2-0.3-0.5-0.4-0.7c-0.2,0.1-0.5,0.2-0.6,0.4c-0.7,0.8-0.5,1.7,0,2.6
			c0.1,0.2,0.4,0.3,0.6,0.4c0.1-0.3,0.3-0.5,0.4-0.8C115.2,73.8,115.1,73.1,115,72.5z M99.6,88.8c-0.1,0-0.2-0.1-0.3-0.1
			c-1.1,0.7-1.9,2.5-1.4,3.6C98.5,91.1,99.1,90,99.6,88.8z M93,100.4c0-0.8,0-1.5,0-2.4C92.2,98.6,92.2,99.7,93,100.4z"/>
		<path class="st0" d="M109.6,110.6c0.1,0.2,0.2,0.5,0.2,0.7c0.1,2.4-0.2,4.7-1,6.9c-0.6,1.5-1,3.1-1.4,4.6
			c-0.2,0.8-0.1,1.7,0.1,2.6c0.4,2.1,2.8,3.1,4.7,2.2c1.5-0.8,2.6-1.8,3.7-3.1c1.2-1.5,2.6-2.7,4.5-3.2c1.1-0.3,2.3-0.6,3.5-0.8
			c0.4-0.1,0.8,0,1.2,0.2c-0.8,0.5-1.6,1.1-2.5,1.6c-2.1,1.2-3.1,3.1-3.9,5.2c-0.5,1.6-0.1,3.1,0.9,4.4c0.4,0.5,1.1,0.8,1.7,0.9
			c2.1,0.4,4.1,0.3,5.9-1.2c1.6-1.4,2.4-3,2.6-5.1c0-0.3,0.1-0.6,0.1-0.9c0.1,0,0.2-0.1,0.3-0.1c0.2,0.4,0.6,0.8,0.7,1.2
			c0.2,1.3,0.4,2.5,0.5,3.8c0.1,1.6-0.7,2.9-1.4,4.2c-1.2,2.1-1,4.4,0.5,5.9c1.3,1.3,3,1.7,4.9,1.7c0.7,0,1.1-0.6,0.9-1.3
			c-0.1-0.3-0.2-0.6-0.3-0.9c-1.6-2.7-0.8-5,0.9-7.3c1-1.4,2.5-2.3,3.9-3.2c0,0.8-0.6,1.3-1.1,1.8c-0.6,0.7-1.4,1.3-1.9,2.1
			c-1.3,2.1-0.8,4.2,0.6,6.1c1.9,2.6,3.3,5.6,4.6,8.5c0.6,1.3,0.4,2.6-0.7,3.5c-1.4,1.2-2.1,2.8-2.4,4.6c-0.4,2.2-1.4,4-3.1,5.3
			c-0.4,0.3-1,0.5-1.5,0.7c0-0.1-0.1-0.2-0.1-0.2c0.7-0.9,1.6-1.8,2.2-2.7c0.5-0.7,0.9-1.4,1.1-2.2c0.4-2.3,1.5-4.2,3.1-5.8
			c1-1,1.1-2.3,0.1-3.4c-1.5-1.6-3.2-2.6-5.5-2.3c-0.6,0.1-1.3-0.1-2-0.2c-1-0.1-2.1-0.1-3.1-0.2c-0.8,0-1,0.6-1.2,1.1
			c-0.3,0.7-0.4,1.4-0.7,2c-0.6,1.3-1.3,1.7-2.4,1.4c-0.2,0-0.5-0.2-0.5-0.3c0-0.2,0.1-0.4,0.2-0.6c1.3-1,1.7-2.5,2.2-3.9
			c0.1-0.3,0-0.8-0.2-1c-0.5-0.4-1.1-0.9-1.7-1.1c-1-0.2-1.7-0.8-2.2-1.6c-0.9-1.6-2.4-2.4-4-3.2c-1.9-0.9-3.9-1.3-5.9-1.6
			c-0.4,0-0.8-0.3-1-0.5c-1.1-1.2-2.6-1.7-4.2-2c-0.4-0.1-0.7-0.2-1.1-0.4c-0.7-0.3-1.4-0.6-1.1-1.6c-1-2.5-0.2-5.4-1.8-7.8
			c-0.2-0.3,0-0.9,0-1.4c0-0.4,0.1-0.9,0.2-1.3c-0.1,0-0.2-0.1-0.3-0.1c-0.4,0.6-0.9,1.2-1.2,1.8c-0.1,0.3-0.1,0.9,0.1,1.2
			c0.7,1.1,0.9,2.4,0.9,3.6c0.1,1.5,0.4,2.9,1.3,4.2c0.1,0.1,0,0.2,0.1,0.3c-0.5,0.1-0.5,0.1-2-0.8c0.2,0.3,0.3,0.6,0.5,0.9
			c0.9,1.2,2.2,1.8,3.6,2.4c1.1,0.4,2.4,0.6,3.2,1.3c1.6,1.3,3.4,1.7,5.3,2c2.5,0.4,4.7,1.6,6.5,3.4c0.4,0.4,0.2,0.9-0.1,1.2
			c-0.8,0.8-1,1.8-1,2.8c0,1.4-0.8,2.4-2.2,2.5c-1.8,0-3.5-0.1-5.3-0.2c-1.4-0.1-2.7-0.4-4-0.7c-0.3-0.1-0.7-0.4-0.7-0.7
			c-0.1-1-0.9-1.6-1.6-1.9c-1.4-0.6-2.9-0.9-4.3-1.2c-0.3-0.1-0.7,0.1-1.1,0.3c1.8,1.6,4.4,1.3,6.1,2.9c-0.3,0-0.7,0-1-0.1
			c-2.1-0.6-4.2-1.3-6.3-2c-1.5-0.5-2.5-1.3-2.8-3.1c-0.3-1.7-1.1-3.3-1.9-4.8c-0.9-1.7-2.2-3.3-3.1-5.1c-0.8-1.6-1.2-3.3-1.7-5
			c-0.1-0.3,0.1-0.8,0.4-0.9c0.5-0.3,0.7,0.1,0.9,0.6c0.8,1.6,1.5,3.3,2.5,4.9c0.6,1,1.7,1.8,2.5,2.6c0.2,0.2,0.5,0.1,0.7,0.2
			c0-0.2,0-0.5-0.2-0.7c-0.2-0.4-0.6-0.7-0.8-1.1c-0.4-0.5-0.2-0.9,0.4-0.8c0.6,0,0.7-0.3,0.5-0.7c-0.2-0.3-0.4-0.6-0.6-0.9
			c-0.2-0.3-0.3-0.7-0.5-1.1c0.1-0.1,0.1-0.2,0.2-0.2c0.5,0.2,1.1,0.4,1.6,0.6c0.3,0.1,0.5,0.3,0.8,0.4c0.3,0,0.6-0.1,0.8-0.1
			c-0.1-0.3,0-0.6-0.2-0.8c-1-1.4-2.2-2.5-3.8-3.3c-0.2-0.1-0.4-0.4-0.6-0.6c0.2-0.2,0.4-0.5,0.7-0.6c2.5-1,4.9-2.2,6.9-4.1
			c0.4-0.4,1.1-0.4,1.4-0.8c0.7-0.9,1.6-1.8,1.9-2.9c0.5-1.6,0.7-3.4,1-5.1c0.1-0.3,0.1-0.6,0.1-0.9
			C109.4,110.6,109.5,110.6,109.6,110.6z M102,134.4c-0.1,0-0.2,0-0.3,0.1c0,0.2-0.1,0.5-0.1,0.7c0.3,0.9,0.6,1.7,1,2.5
			c0.7,1.3,1.9,1.7,3.2,2.1c0.9,0.3,1,0.4,0.4,1.1c-0.4,0.5-0.3,0.8,0.3,0.9c0.2,0,0.5,0.1,0.7,0c2.1-0.7,3.8,0.1,5.2,1.6
			c0.1,0.1,0.3,0.2,0.4,0.4c0.3,0.4,0.6,0.8,0.9,1.2c-0.4,0.2-0.9,0.4-1.3,0.6c-0.2,0.1-0.6,0.3-0.6,0.5c-0.1,0.2,0.2,0.6,0.4,0.7
			c0.7,0.4,1.5,0.9,2.2,0.9c2.1,0.1,4.1,0.1,6.2,0c0.2,0,0.6-0.3,0.6-0.5c0-0.3-0.1-0.7-0.4-0.8c-0.5-0.3-1.1-0.6-1.7-0.8
			c-1.1-0.2-2.2-0.3-3.2-0.5c-0.3-0.1-0.6-0.5-0.9-0.7c0.3-0.2,0.5-0.5,0.9-0.6c1.4-0.3,2.9-0.4,4.3-0.7c0.3,0,0.5-0.3,0.7-0.4
			c-0.2-0.2-0.4-0.4-0.7-0.5c-1.9-0.5-3.7-0.3-5.4,0.6c-0.5,0.3-0.9,0.3-1.3-0.1c-0.2-0.2-0.5-0.4-0.7-0.6c-0.1-0.2-0.3-0.4-0.2-0.6
			c0-0.1,0.3-0.2,0.5-0.3c0.6-0.1,1.3-0.2,1.9-0.3c0.1,0,0.2-0.2,0.4-0.4c-0.1-0.1-0.3-0.3-0.4-0.3c-1.6-0.2-3.3-0.4-4.9-0.6
			c-0.5-0.1-1-0.2-1.5-0.3c-1.1-0.4-2.1-0.9-3.2-1.1c-1.3-0.2-1.9-0.8-2.3-1.8C102.7,135.8,102.3,135.1,102,134.4z M101.4,125.3
			c-0.4,0.2-0.7,0.3-0.9,0.5c0,0,0.1,0.4,0.2,0.5c0.7,0.3,1.4,0.5,2.2,0.8c0.1,0,0.4-0.1,0.5-0.2c0.1-0.1,0-0.4-0.1-0.5
			C102.6,126,102,125.6,101.4,125.3z"/>
		<path class="st0" d="M75.3,53.2c-0.8,0.1-1.4,0.1-2,0.2c-0.4,0.1-0.7,0.6-1.1,0.8c0.3,0.3,0.6,0.9,0.9,1c0.6,0.2,1.3,0.2,1.9,0.1
			c1.6-0.2,3.1,0.5,3.7,1.9c0.6,1.4,1.5,2.6,3.1,3c0.1,0,0.2,0.1,0.5,0.3c-1.3,0.4-2.3,0.2-3.4-0.2c-0.5-0.2-1.1-0.4-1.7-0.5
			c-0.2,0-0.5,0.2-0.7,0.4c-0.1,0.1,0,0.5,0.1,0.7c0.4,0.7,0.9,1.3,1.4,2c0.4,0.6,1,0.8,1.7,0.9c0.5,0.1,0.9,0.2,1.3,0.3
			c0,0.1,0,0.2,0,0.3c-0.3,0-0.6,0.1-0.9,0.1c-0.5,0-1-0.1-1.5,0c-1.5,0.4-2.6-0.2-3.5-1.3c-0.9-1.2-2.2-1.4-3.5-1.5
			c-0.4,0-0.8,0.4-1.2,0.7c0.3,0.4,0.5,0.8,0.9,1.1c0.3,0.2,0.8,0.3,1.2,0.3c1.2,0.1,1.9,0.6,2.4,1.7c0.4,1,0.8,2,2,2.3
			c0,0.1-0.1,0.2-0.1,0.3c-0.3-0.1-0.7-0.2-0.9-0.4c-0.6-0.3-1-0.8-1.6-1c-0.4-0.2-1-0.1-1.5,0c-0.2,0-0.3,0.3-0.5,0.5
			c0.1,0.2,0.3,0.3,0.4,0.4c0.4,0.3,0.9,0.6,1.3,0.9c0,0.1-0.1,0.1-0.1,0.2c-0.2,0-0.3,0-0.5,0c-0.9-0.2-1.8-0.5-2.7-0.7
			c-1.6-0.3-2.7-1.4-3.4-2.7c-0.7-1.2-2.2-1.5-3.6-0.8c0,0.1,0.1,0.2,0.1,0.3c0.1,0.2,0.1,0.4,0.2,0.6c-0.2,0-0.5,0.2-0.7,0.1
			c-0.7-0.2-1.4-0.6-2.2-0.8c-3.3-1.2-6.6-5.1-6.4-9.1c0.2-2.9,2.2-5.7,4.9-6.8c1.6-0.6,3.3-1.1,5.1-0.6c1.6,0.4,3,1.2,3.9,2.7
			c0.1,0.2,0.5,0.4,0.8,0.5c1.1,0.1,2.1,0.2,3.2,0.3C73.8,51.7,74.7,52,75.3,53.2z M57.4,56.9c0,0.2,0,0.4,0.1,0.5
			c0.5,0.3,1.1,0.7,1.7,0.8c0.2,0,0.6-0.6,0.8-1c0.1-0.2,0.2-0.4,0.2-0.6c0.2-0.6,0.5-0.8,1.1-0.6c1.4,0.4,1.6,0.2,2.6-2.3
			c0.5-1,0.3-1.8-0.7-2.4c-0.6-0.4-1.4-0.6-2-0.9c-0.9-0.4-1.1-0.3-1.5,0.6c-0.8,1.8-1.5,3.7-2.3,5.5C57.5,56.7,57.5,56.8,57.4,56.9
			z M64.1,60.6c1,0,1.3-0.8,1.6-1.5c0.6-1.8,1.3-3.6,1.8-5.5c0.1-0.3-0.1-1-0.2-1c-0.4-0.1-0.9,0-1.4,0.1c-0.2,0.1-0.3,0.4-0.4,0.7
			c-0.5,1.3-1,2.6-1.5,3.9c-0.2,0.4-0.5,0.8-0.7,1.2c-0.3,0.4-0.6,0.9-0.9,1.3c0.4,0.2,0.9,0.5,1.3,0.7C63.9,60.6,64,60.6,64.1,60.6
			z M72.4,60c0.1-0.1,0.4-0.1,0.5-0.3c0.1-0.2,0-0.5-0.2-0.6c-0.3-0.2-0.7-0.4-1-0.4c-0.9,0-1.7,0-2.4-0.5c-0.1-0.1-0.4,0-0.6,0
			c0,0.2,0,0.5,0.1,0.6c0.2,0.3,0.5,0.7,0.8,0.7C70.5,59.8,71.4,59.8,72.4,60z M70.6,64.4c-0.1-0.8-1.3-1.8-1.9-1.7
			c-0.1,0-0.3,0.6-0.3,0.6C69,63.7,69.5,64.5,70.6,64.4z"/>
		<path class="st0" d="M110.2,64.5c-0.1,0.3-0.1,0.5-0.2,0.6c-0.1,0.3-0.2,0.6-0.3,0.9c0.4,0.1,0.9,0.3,1.3,0.4
			c0.1,0,0.4-0.4,0.4-0.6c0-0.1-0.1-0.4-0.3-0.5c-0.6-0.6-1-1.2-0.3-2.1c0.4-0.5,0-1.2-0.8-1.3c-0.3-0.1-0.7,0-1.2-0.2
			c0.4-0.3,0.7-0.8,1.2-1c1.3-0.6,2.6-0.7,3.9,0.1c1.8,1,3.6,2.1,4.4,4.2c0.5,1.3,0,4.2-1,5c-0.1,0-0.2,0.1-0.2,0.1
			c-0.6-0.4-1.2-0.7-1.7-1.1c-0.1-0.1,0-0.5,0.2-0.7c0.1-0.1,0.4-0.1,0.6,0c0.3,0.2,0.6,0.5,0.9,0.7c0.4-0.7,0.1-1.2-0.3-1.5
			c-0.4-0.3-0.9-0.7-1.4-0.8c-0.5-0.2-1.1-0.2-1.6-0.3c0-0.1,0-0.2-0.1-0.2c0.2-0.1,0.4-0.3,0.6-0.4c1-0.5,1.4-1,1.2-2
			c-0.1-0.6-1.1-1.5-1.8-1.5c-0.6,0-1.3,0.3-1.9,0.6c-0.6,0.4-0.5,1.3,0.1,1.8c0.4,0.4,0.9,0.8,1.2,1.1c-0.4,0.7-0.8,1.4-1.2,2
			c-0.5,0.8-2,1-2.7,0.4c-0.1-0.1-0.1-0.1-0.2-0.2c-0.9-0.2-0.8-0.8-0.6-1.5c-1.5-0.2-1.4-0.9-0.7-2.7
			C108.5,64.5,109.2,65,110.2,64.5z M116.6,63.8c-0.2,0.6-0.4,1.1-0.5,1.7c0,0.3,0.2,0.6,0.3,0.8c0,0.1,0.3,0.1,0.4,0
			C117.3,66,117.1,64.2,116.6,63.8z"/>
		<path class="st0" d="M149.3,53.4c-0.7-0.8-0.6-1.8-0.2-2.7c0.5-1,1.1-1.9,1.8-2.8c0.7-0.8,1.4-1.5,1.2-2.7c0-0.2,0.1-0.5,0.2-0.5
			c0.2,0,0.4,0.1,0.6,0.2c0.2,0.1,0.3,0.4,0.3,0.6c0.7,2.2,0.6,4.5-1.6,5.9C150.8,52.1,150.1,52.8,149.3,53.4z"/>
		<path class="st0" d="M122,81.4c0.4,0.5,0.8,0.7,1,1c0.2,0.4,0.5,0.8,0.6,1.2c0.4,1.2,0.7,2.5,1.2,3.7c0.3,0.8,0.2,1.5-0.5,1.8
			c0-0.2-0.1-0.4-0.1-0.7c-0.4,0.1-0.7,0.2-1,0.3c-0.8,0.2-1.2,0-1.2-0.8c0-1.2,0-2.4,0-3.6c0-0.7-0.1-1.5-0.1-2.2
			C121.8,81.9,121.9,81.7,122,81.4z"/>
		<path class="st0" d="M53,142.6c0.1-0.2,0.2-0.3,0.3-0.4c0.9-1.1,0.8-1,1.8,0c0.8,0.8,1.7,1.5,2.6,2.2c0.4,0.3,0.8,0.7,0.3,1.2
			c-0.5,0.5-0.9,0.5-1.4,0.1c-1-0.6-1.9-1.3-2.6-2.3C53.8,143.1,53.4,142.9,53,142.6z"/>
		<path class="st0" d="M50.5,144.9c0.1,1.5-0.2,2.7-1.4,3.6c-0.1,0.1-0.2,0.2-0.3,0.2c-1.1,0-2.1,0-3.3,0c0.6-0.5,1.1-0.9,1.7-1.3
			c1.1,0.7,1.2,0.6,1.7-0.6C49.2,146.1,49.4,145.1,50.5,144.9z"/>
		<path class="st0" d="M117.3,86.2c0.9,0.3,1.7,0.5,2.4,0.8c0.4,0.2,0.7,0.7,1,1.2c0.1,0.1,0,0.5-0.2,0.6c-0.4,0.3-0.8,0.5-1.2,0.6
			c-0.2,0.1-0.6-0.1-0.7-0.3C118.1,88.2,117.7,87.2,117.3,86.2z"/>
		<path class="st0" d="M41.2,149.6c-0.7-0.3-1.5-0.4-1.4-1.4c0-0.6-0.3-0.7-0.8-0.6c-0.6,0.2-1.6-0.3-1.8-0.9
			c-0.1-0.2,0.2-0.5,0.3-0.6c0.2-0.1,0.5,0,0.7,0.1c0.8,0.4,1.7,0.7,2.4,1.2c0.3,0.2,0.5,0.5,0.5,0.8
			C41.3,148.6,41.2,149,41.2,149.6z"/>
		<path class="st0" d="M134.8,147c0-0.1,0.1-0.3,0.2-0.3c0.6-0.1,1.2-0.1,1.8-0.1c0.1,0,0.2,0.4,0.2,0.6c-0.1,0.7-0.3,1.4-0.5,2.1
			c-0.1,0.3-0.3,0.5-0.5,0.7c-0.2-0.2-0.4-0.3-0.5-0.6C135.2,148.6,135,147.8,134.8,147z"/>
		<path class="st0" d="M109.4,72.9c-0.5,0.7-0.9,1.4-1.3,1.9c-0.2,0.2-0.7,0.4-0.8,0.4c-0.3-0.2-0.5-0.6-0.5-0.9
			c0-0.5,0.2-0.9,0.3-1.4c0.2-0.6,0.9-0.9,1.5-0.6C108.9,72.5,109.2,72.8,109.4,72.9z"/>
		<path class="st0" d="M117.2,81.7c0.2,0.2,0.3,0.2,0.4,0.3c0.2,0.1,0.5,0.2,0.5,0.2c0.1-0.2,0.2-0.4,0.2-0.6c0-0.3,0-0.6-0.1-1.1
			c0.3,0.2,0.5,0.3,0.6,0.4c0.4,0.4,0.8,0.8,1.1,1.2c0.1,0.2,0.3,0.4,0.3,0.5c0,0.2-0.3,0.3-0.5,0.4c-0.5,0.2-0.9,0.3-1.4,0.4
			c-0.4,0.1-0.8,0.2-0.8-0.4C117.5,82.5,117.4,82.2,117.2,81.7z"/>
		<path class="st0" d="M116.8,85.8c-0.8-0.7-1.1-1.5-1-2.4c0-0.1,0.4-0.4,0.5-0.3c1,0.3,1,0.5,0.7,1.5C117,84.9,117,85.3,116.8,85.8
			z"/>
		<path class="st0" d="M138.1,146.6c0.9,0.6,1.7,1.2,2.6,1.8c0.2,0.1,0.1,0.5,0.1,0.8c-0.3,0-0.6,0-0.8-0.2c-0.4-0.4-0.6-0.8-1-1.2
			c-0.2-0.2-0.4-0.3-0.6-0.5c-0.2-0.2-0.4-0.3-0.6-0.5C138,146.8,138.1,146.7,138.1,146.6z"/>
		<path class="st0" d="M82.3,67.7c1.1-0.6,1.9-0.2,2.8,1.4C83.8,69.2,83.2,68.3,82.3,67.7z"/>
		<path class="st0" d="M86.4,80.2c-0.3,0.4-0.6,0.7-0.8,1c-0.2-0.3-0.4-0.5-0.6-0.8c0,0,0-0.1,0-0.1c-0.1-0.5-0.3-1.2,0.4-1.3
			C85.7,79,86.1,79.8,86.4,80.2z"/>
		<path class="st0" d="M125.7,93.2c-0.3-0.6-0.7-1.1-1-1.7c0-0.1,0.1-0.4,0.2-0.4c0.2,0,0.6,0.1,0.6,0.2c0.2,0.6,0.4,1.2,0.5,1.8
			C126,93.1,125.8,93.1,125.7,93.2z"/>
		<path class="st0" d="M67.6,69.2c1,0,1.6,0.4,2.1,1.2C68.7,70.6,68,70.2,67.6,69.2z"/>
		<path class="st0" d="M138.5,53.3c-0.1,0.5-0.2,0.9-0.3,1.4c0,0.1-0.3,0.1-0.5,0.2c-0.1-0.2-0.2-0.4-0.1-0.5
			c0.2-0.4,0.4-0.8,0.6-1.2C138.2,53.2,138.3,53.2,138.5,53.3z"/>
		<path class="st0" d="M131.7,121.3c0,0.8,0,1.4,0,2.1C131,122.9,130.9,122,131.7,121.3z"/>
		<path d="M79,123.2c-0.5,0-1.1,0-1.7,0c-0.3,0-0.5-0.3-0.7-0.4c0.2-0.2,0.4-0.5,0.6-0.6c1.5-0.7,3.2-0.7,4.8-0.8
			c0.6-0.1,1.2-0.4,1.8-0.6c0-0.1,0-0.2,0-0.3c-0.2-0.2-0.5-0.4-0.7-0.6c0-0.1,0-0.2,0-0.3c0.4-0.1,0.8-0.2,1.2-0.2
			c0.5-0.1,1.1,0,1.6-0.1c0.3-0.1,0.4-0.6,0.6-0.9c-0.3-0.2-0.6-0.5-0.9-0.5c-0.6,0-1.1,0.2-1.7,0.3c-0.3,0-0.6-0.1-0.9-0.2
			c0.1-0.3,0.2-0.8,0.4-0.9c1-0.3,2.1-0.6,3.1-0.8c2-0.4,4.1,0.1,5.8-1.4c0.3-0.2,0.7-0.4,1.1-0.5c2.4-0.7,4.1-2.6,6.1-4
			c1-0.7,1.9-1.4,2.9-2.2c0.2-0.2,0.5-0.2,0.7-0.4c0.1,0.1,0.1,0.1,0.2,0.2c-0.1,0.2-0.2,0.4-0.3,0.6c-0.1,0.2-0.2,0.4-0.3,0.7
			c0.2,0.1,0.4,0.1,0.7,0.2c0.6,0.2,1.2,0.3,1.8,0.5c0.2,0.1,0.3,0.5,0.3,0.7c0,0.1-0.4,0.3-0.6,0.3c-0.6,0-1.3,0-1.9-0.1
			c-0.4-0.1-0.7-0.5-1.2-0.8c-0.4,0.2-0.9,0.6-1.4,0.9c-0.5,0.4-1.1,0.8-1.6,1.2c-0.6,0.4-0.6,0.6,0,1c0.9,0.7,1.9,1,3,1
			c0.3,0,0.7,0,1,0.1c0.4,0.1,0.5,0.4,0.2,0.8c-0.2,0.1-0.4,0.3-0.6,0.3c-1.5,0.3-3.1,0.7-4.6,0c-0.2-0.1-0.3-0.2-0.5-0.1
			c-1.4,0.1-2.7,0.2-4.1,0.4c-0.3,0-0.5,0.4-0.7,0.7c0.3,0.1,0.5,0.4,0.8,0.4c2.1,0,4.1,0,6.2,0.1c0.7,0,1.5,0.2,2.2,0.4
			c0.2,0.1,0.5,0.5,0.5,0.8c0,0.1-0.4,0.4-0.6,0.5c-0.4,0.2-0.9,0.3-1.3,0.5c-0.6,0.3-1.4,0.6-1.8,1.1c-0.8,1-1.9,1.2-2.9,1.4
			c-2.9,0.7-5.8,1.3-8.8,1.7c-1.3,0.2-2.6,0.2-3.9,0.1c-1.1-0.1-1.9,0.1-2.7,0.7c-0.3,0.2-0.6,0.3-1,0.4
			C79.1,124.1,79,123.7,79,123.2z M93.8,120c-0.1-0.1-0.1-0.2-0.2-0.2c-2-0.2-4-0.4-6-0.6c-0.2,0-0.4,0.3-0.7,0.5
			c0.2,0.2,0.4,0.5,0.6,0.5c1.1,0.1,2.3,0.1,3.4,0C92,120.2,92.8,120.1,93.8,120z"/>
		<path d="M66.2,125.7c0-0.4-0.1-0.6,0-0.8c0.2-0.4,0.5-0.7,0.7-1.2c0.2-0.7,0.4-1.5,0.6-2.2c0.2-0.6,0.4-1.3,0.8-1.7
			c2-1.9,4.3-3.1,6.7-4.3c3-1.4,6-2.9,8.9-4.4c1.7-0.9,3.2-2,4.9-2.9c0.7-0.4,0.8-0.9,0.7-1.7c-0.1-1,0.1-2,0.3-2.9
			c0.1-0.3,0.5-0.6,0.8-0.8c0.4-0.2,0.8-0.5,1.2-0.6c0.2-0.1,0.5-0.1,0.8-0.1c0,0.3,0,0.6-0.1,0.8c-0.3,0.3-0.7,0.6-1.1,0.7
			c-1,0.4-1.8,2.1-1.3,3.1c0.1,0.2,0.6,0.3,0.8,0.3c0.7-0.3,1.3-0.8,1.9-1.2c0.3-0.2,0.7-0.1,1-0.2c-0.1,0.3,0,0.8-0.2,1
			c-0.6,0.6-1.2,1.2-2,1.6c-3,1.8-6,3.5-9.1,5.2c-2.1,1.1-4.2,2-6.4,3c-2.3,1.1-4.6,2.2-6.6,4c-0.4,0.4-0.7,1-0.8,1.6
			c-0.2,1.6-1.4,2.4-2.2,3.6C66.6,125.6,66.5,125.6,66.2,125.7z"/>
		<path d="M102.5,97.1c0.3-0.4,0.6-0.8,0.9-1.2c0-0.1-0.1-0.1-0.1-0.2c-0.3,0.1-0.6,0.2-0.9,0.4c-1.3,0.9-2.6,1.8-3.9,2.6
			c-0.2,0.1-0.5,0.1-0.8,0.1c0.1-0.2,0.1-0.5,0.2-0.7c2.2-2.9,5.2-4.7,8.7-5.5c1.8-0.4,3.6-0.5,5.4-0.7c0.4,0,0.7,0,1.1,0.1
			c0.2,0.1,0.4,0.3,0.6,0.5c-0.2,0.2-0.4,0.4-0.6,0.5c-0.6,0.2-1.2,0.4-1.8,0.5c-2.8,0.4-5.3,1.8-7.7,3.3c-0.3,0.2-0.6,0.3-0.9,0.5
			C102.6,97.2,102.5,97.2,102.5,97.1z"/>
		<path d="M95.9,85.9c-1.4-0.2-2.5-1.8-2.1-3.2c0.4-1.3,0.7-2.6,1-4c0.3-1.4,0.5-2.7,0.8-4.1c0.1-0.5,0.5-1,0.8-1.4
			c0.3-0.4,0.6-0.6,0.9-1c1.7-2,3.8-2,5.9-0.8c0.4,0.2,0.8,0.4,1.1,0.7c0.1,0.1,0.2,0.4,0.3,0.5c-0.2,0.1-0.4,0.2-0.6,0.2
			c-0.3,0-0.6-0.1-0.8-0.2c-0.8-0.7-1.8-0.6-2.8-0.7c-1.7-0.2-2.5,1.1-3.4,2.2c-0.7,0.9-0.5,2.1-0.8,3.1c-0.3,1.3-0.7,2.6-1,3.9
			c-0.1,0.5-0.4,1.1-0.5,1.6c-0.2,1,0.2,1.5,1.2,1.8c0.3,0.1,0.6,0.4,0.9,0.6C96.6,85.5,96.2,85.7,95.9,85.9z"/>
		<path d="M106.4,99c-0.3,0.1-0.6,0.1-0.9,0.2c-0.8,0.2-1.6,0.4-2.4,0.5c-0.2,0-0.4-0.1-0.7-0.2c0.1-0.2,0.1-0.6,0.3-0.7
			c1.8-1.3,3.7-2.2,6-2.5c0.7-0.1,1.4-0.2,2.1-0.3c0.5,0,1,0,1.4,0.2c0.4,0.2,0.9,0.7,0.9,0.9c-0.1,0.4-0.5,0.8-0.9,1
			c-1.2,0.6-2.5,1-3.7,1.5c-0.7,0.3-1.3,0.7-2,1c-0.2,0.1-0.5,0-0.7,0c0-0.2,0-0.4,0.1-0.6c0.2-0.3,0.4-0.6,0.6-0.9
			C106.5,99.2,106.4,99.1,106.4,99z"/>
		<path d="M106.9,90.9c0,0-0.3-0.1-0.3-0.2c0-0.2,0-0.5,0.2-0.6c0.7-0.5,1.4-1.2,2.2-1.5c1.5-0.6,3.1-1,4.7-1.3
			c0.7-0.1,1.6,0.1,2.3,0.4c0.3,0.1,0.7,0.8,0.6,1.1c-0.1,0.4-0.7,0.8-1.1,0.8c-1.6,0.2-3.2,0.3-4.7,0.5
			C109.5,90.3,108.3,90.6,106.9,90.9z"/>
		<path d="M102.6,90.9c1-0.9,1.9-2,3-2.8c1.8-1.3,3.7-2.5,5.6-3.8c0.2-0.1,0.3-0.2,0.5-0.2c0.3,0,0.5,0.1,0.8,0.1
			c-0.1,0.2-0.2,0.5-0.4,0.6c-2.3,1.6-4.6,3.1-6.9,4.7c-0.8,0.5-1.5,1.1-2.3,1.6C102.8,91.1,102.7,91,102.6,90.9z"/>
		<path d="M102.8,103c0.3,0.4,0.5,0.7,0.6,0.9c0,0.1-0.1,0.2-0.1,0.3c-0.8-0.2-1.7-0.5-2.5-0.5c-1.2-0.1-1.2-1.2-2-1.7
			c0.2-0.2,0.3-0.3,0.4-0.3c1.7,0,3.4-0.4,5,0.4c0.2,0.1,0.4,0.4,0.6,0.7c-0.3,0.1-0.5,0.2-0.8,0.3C103.8,103,103.4,103,102.8,103z"
			/>
		<path d="M96.6,86.7c-0.5,2.3-1,4.4-2.2,6.6C93.5,91.5,95,87.1,96.6,86.7z"/>
		<path d="M101.9,88.7c0.1-1.1,0.7-1.9,1.6-2.4c1-0.7,2-1.3,3.1-2c0.1-0.1,0.3-0.2,0.4-0.2c0.2,0,0.5,0.1,0.7,0.2
			c-0.1,0.2-0.2,0.5-0.3,0.6c-1.6,1.1-3.2,2.3-4.8,3.4C102.4,88.4,102.1,88.5,101.9,88.7z"/>
		<path d="M95.2,99.9c-0.1-0.1-0.2-0.3-0.2-0.4c-0.2-1.5,1-3.8,2.4-4.5c0.2-0.1,0.5,0,0.8,0c-0.1,0.2-0.1,0.5-0.3,0.7
			c-0.7,0.8-1.4,1.6-1.6,2.7c-0.2,0.6-0.5,1.1-0.8,1.7C95.4,100,95.3,99.9,95.2,99.9z"/>
		<path d="M104.4,113.1c-0.9,0.1-1.8,0.1-2.6,0.2c-0.2,0-0.4,0-0.6-0.1c-0.3-0.2-0.6-0.5-0.8-0.7c0.3-0.1,0.6-0.4,1-0.4
			c1.1,0,2.1,0,3.2,0.1c0.2,0,0.4,0.4,0.5,0.6c0,0.2-0.3,0.3-0.5,0.5C104.4,113.3,104.4,113.2,104.4,113.1z"/>
		<path d="M96.9,89.5c0.1-0.5,0-1,0.2-1.4c0.5-1,1.1-1.9,1.8-2.8c0.1-0.2,0.6-0.2,0.9-0.3c0,0.3,0,0.6-0.1,0.8
			c-0.7,1.1-1.4,2.3-2.1,3.4c-0.1,0.1-0.1,0.3-0.2,0.4C97.2,89.6,97,89.6,96.9,89.5z"/>
		<path d="M99.4,105.7c-0.6,0.1-1.2,0.3-1.8,0.4c-0.2,0-0.6,0-0.6-0.1c-0.1-0.2-0.1-0.6,0.1-0.7c0.2-0.2,0.6-0.4,0.9-0.5
			c0.9,0,1.8,0,2.7,0.1c0.2,0,0.3,0.3,0.5,0.5c-0.2,0.2-0.4,0.4-0.6,0.5c-0.4,0.1-0.8,0-1.2,0C99.4,105.8,99.4,105.8,99.4,105.7z"/>
		<path d="M138,70.1c-1.9,0.9-3.8,1.7-5.7,2.6c0.5-1.1,4.8-3.1,5.6-2.9C137.9,69.9,138,70,138,70.1z"/>
		<path d="M115,72.5c0,0.6,0.1,1.3,0.1,1.9c0,0.3-0.2,0.5-0.4,0.8c-0.2-0.1-0.5-0.2-0.6-0.4c-0.5-0.8-0.7-1.7,0-2.6
			c0.2-0.2,0.4-0.3,0.6-0.4c0.1,0.2,0.3,0.5,0.4,0.7C115.2,72.4,115.1,72.5,115,72.5z"/>
		<path d="M99.6,88.8c-0.5,1.1-1.1,2.2-1.7,3.4c-0.5-1,0.3-2.8,1.4-3.6C99.4,88.8,99.5,88.8,99.6,88.8z"/>
		<path d="M93,100.4c-0.9-0.7-0.9-1.7,0-2.4C93,98.8,93,99.6,93,100.4z"/>
		<path d="M102,134.4c0.4,0.7,0.8,1.4,1.1,2.1c0.4,1.1,1.1,1.7,2.3,1.8c1.1,0.1,2.2,0.7,3.2,1.1c0.5,0.2,1,0.2,1.5,0.3
			c1.6,0.2,3.3,0.4,4.9,0.6c0.2,0,0.3,0.2,0.4,0.3c-0.1,0.1-0.2,0.4-0.4,0.4c-0.6,0.1-1.3,0.2-1.9,0.3c-0.2,0-0.5,0.1-0.5,0.3
			c0,0.2,0.1,0.4,0.2,0.6c0.2,0.2,0.5,0.4,0.7,0.6c0.4,0.4,0.8,0.4,1.3,0.1c1.7-1,3.5-1.1,5.4-0.6c0.3,0.1,0.5,0.3,0.7,0.5
			c-0.2,0.1-0.5,0.4-0.7,0.4c-1.4,0.2-2.9,0.4-4.3,0.7c-0.3,0.1-0.6,0.4-0.9,0.6c0.3,0.3,0.6,0.7,0.9,0.7c1.1,0.2,2.2,0.3,3.2,0.5
			c0.6,0.1,1.1,0.4,1.7,0.8c0.2,0.1,0.4,0.6,0.4,0.8c0,0.2-0.4,0.5-0.6,0.5c-2.1,0-4.1,0.1-6.2,0c-0.8,0-1.5-0.6-2.2-0.9
			c-0.2-0.1-0.4-0.5-0.4-0.7c0.1-0.2,0.4-0.4,0.6-0.5c0.4-0.2,0.9-0.4,1.3-0.6c-0.3-0.4-0.6-0.8-0.9-1.2c-0.1-0.1-0.2-0.2-0.4-0.4
			c-1.4-1.6-3.1-2.3-5.2-1.6c-0.2,0.1-0.5,0.1-0.7,0c-0.6-0.1-0.7-0.4-0.3-0.9c0.6-0.7,0.5-0.8-0.4-1.1c-1.3-0.4-2.5-0.9-3.2-2.1
			c-0.4-0.8-0.7-1.7-1-2.5c-0.1-0.2,0-0.5,0.1-0.7C101.8,134.5,101.9,134.4,102,134.4z"/>
		<path d="M101.4,125.3c0.6,0.3,1.2,0.7,1.7,1c0.1,0.1,0.2,0.4,0.1,0.5c-0.1,0.1-0.3,0.3-0.5,0.2c-0.7-0.2-1.5-0.5-2.2-0.8
			c-0.1,0-0.2-0.4-0.2-0.5C100.7,125.6,101,125.5,101.4,125.3z"/>
		<path d="M57.4,56.9c0-0.2,0.1-0.3,0.1-0.4c0.8-1.9,1.5-3.7,2.3-5.5c0.4-0.9,0.6-1,1.5-0.6c0.7,0.3,1.4,0.6,2,0.9
			c1,0.6,1.1,1.3,0.7,2.4c-1.1,2.4-1.3,2.6-2.6,2.3c-0.6-0.2-1,0-1.1,0.6c-0.1,0.2-0.1,0.5-0.2,0.6c-0.3,0.4-0.6,1-0.8,1
			c-0.6-0.1-1.1-0.5-1.7-0.8C57.4,57.3,57.5,57.1,57.4,56.9z"/>
		<path d="M64.1,60.6c-0.1,0-0.3,0-0.4-0.1c-0.4-0.2-0.9-0.5-1.3-0.7c0.3-0.4,0.6-0.9,0.9-1.3c0.3-0.4,0.6-0.7,0.7-1.2
			c0.5-1.3,1-2.6,1.5-3.9c0.1-0.3,0.2-0.6,0.4-0.7c0.4-0.1,0.9-0.2,1.4-0.1c0.1,0,0.3,0.7,0.2,1c-0.6,1.8-1.2,3.6-1.8,5.5
			C65.5,59.8,65.1,60.6,64.1,60.6z"/>
		<path d="M72.4,60c-1-0.1-1.9-0.2-2.8-0.4c-0.3-0.1-0.6-0.5-0.8-0.7c-0.1-0.1-0.1-0.4-0.1-0.6c0.2,0,0.5-0.1,0.6,0
			c0.7,0.5,1.5,0.6,2.4,0.5c0.3,0,0.7,0.2,1,0.4c0.1,0.1,0.2,0.4,0.2,0.6C72.8,59.8,72.6,59.9,72.4,60z"/>
		<path d="M70.6,64.4c-1.1,0.1-1.6-0.7-2.3-1.1c0,0,0.2-0.5,0.3-0.6C69.3,62.5,70.5,63.6,70.6,64.4z"/>
		<path d="M116.6,63.8c0.5,0.4,0.7,2.2,0.3,2.5c-0.1,0.1-0.4,0.1-0.4,0c-0.2-0.3-0.4-0.6-0.3-0.8C116.2,64.9,116.5,64.4,116.6,63.8z
			"/>
		<path class="st0" d="M93.8,120c-1,0.1-1.9,0.2-2.8,0.2c-1.1,0-2.3,0-3.4,0c-0.2,0-0.4-0.3-0.6-0.5c0.2-0.2,0.5-0.5,0.7-0.5
			c2,0.2,4,0.4,6,0.6C93.7,119.8,93.7,119.9,93.8,120z"/>
	</g>
</g>
</svg>
