<?xml version="1.0" encoding="utf-8"?>
<!-- Generator: Adobe Illustrator 23.0.3, SVG Export Plug-In . SVG Version: 6.00 Build 0)  -->
<svg version="1.1" id="Layer_1" xmlns="http://www.w3.org/2000/svg" xmlns:xlink="http://www.w3.org/1999/xlink" x="0px" y="0px"
	 viewBox="0 0 200 200" style="enable-background:new 0 0 200 200;" xml:space="preserve">
<style type="text/css">
	.st0{fill:#FFFFFF;}
</style>
<path d="M50.2,95.8c0.1,0,0.2,0,0.4,0c0,0.5,0,0.9,0,1.4c0,4.1,0,8.2-0.1,12.4c0,0.7,0.2,0.9,0.9,0.9c0.9,0,1.7,0,2.6,0
	c0.7,0,1-0.3,0.9-1c0-1.2,0-2.5,0-3.7c0-5,0-10.1,0-15.1c0-0.6-0.2-0.9-0.9-0.9c-1.8,0-3.7,0-5.5,0c-0.6,0-0.9,0.2-1,0.7
	c-0.4,1.9-0.8,3.8-1.2,5.7c-0.3,1.6-0.7,3.3-1,4.9c0,0.2-0.3,0.4-0.5,0.6c-0.1-0.2-0.3-0.4-0.4-0.6c-0.2-0.8-0.3-1.6-0.5-2.3
	c-0.6-2.8-1.2-5.6-1.8-8.4c-0.1-0.2-0.5-0.6-0.7-0.6c-1.6,0-3.2,0-4.8,0c-1.8,0.1-1.7-0.4-1.7,1.7c0,6,0,12.1,0,18.1
	c0,0.7,0.2,1.1,1,1c0.8-0.1,1.6,0,2.4,0c1.1,0,1.1,0,1.1-1.1c0-4,0-7.9,0-11.9c0-0.4,0.1-0.9,0.2-1.3c0.1,0,0.2,0,0.3,0
	c0.1,0.3,0.2,0.5,0.2,0.8c0.3,1.7,0.6,3.3,1,5c0.6,2.6,1.2,5.2,1.7,7.8c0.1,0.5,0.4,0.7,0.9,0.7c0.8,0,1.7,0,2.5,0
	c0.6,0,0.9-0.2,1-0.8c0.8-3.9,1.6-7.8,2.4-11.7C49.7,97.3,50,96.6,50.2,95.8z"/>
<path d="M45,53.1c-0.1,0-0.2,0-0.4,0c-0.1-0.6-0.2-1.1-0.3-1.7c-0.7-3.1-1.4-6.3-2.1-9.4c-0.1-0.6-0.4-0.8-1-0.8
	c-1.8,0-3.5,0.1-5.3,0c-0.8,0-1,0.2-1,1c0,4.7,0,9.4,0,14.2c0,1.6,0,3.2,0,4.8c0,0.4,0,0.8,0.6,0.8c1,0,2.1,0,3.1,0
	c0.5,0,0.7-0.3,0.7-0.8c0-1,0-1.9,0-2.9c0-3.3,0-6.5,0-9.8c0-0.3,0.1-0.7,0.2-1c0.1,0,0.2,0,0.3,0c0.1,0.7,0.3,1.4,0.4,2.1
	c0.8,3.9,1.7,7.8,2.5,11.7c0.1,0.5,0.4,0.8,0.9,0.7c0.8,0,1.5-0.1,2.3,0c0.9,0.1,1.1-0.4,1.3-1.1c0.9-4.3,1.8-8.5,2.7-12.8
	c0.1-0.3,0.2-0.5,0.3-0.8c0.1,0,0.2,0,0.2,0c0,0.4,0.1,0.8,0.1,1.2c0,4.1,0,8.2-0.1,12.4c0,1,0.1,1.1,1.1,1.1c0.8,0,1.5-0.1,2.3,0
	c0.8,0.1,1-0.2,1-1c0-6.3,0-12.6,0-18.9c0-0.7-0.2-0.9-0.9-0.9c-1.7,0-3.5,0.1-5.2,0c-0.8,0-1.1,0.3-1.3,1c0,0.2-0.1,0.4-0.1,0.6
	c-0.7,3.2-1.3,6.3-2,9.5C45.3,52.6,45.1,52.9,45,53.1z"/>
<path d="M67.1,110.8c1.5,0.2,3.1-0.2,4.4-1.1c1.9-1.3,2.9-3.2,3.4-5.4c0-0.2-0.1-0.6-0.3-0.6c-1.2-0.5-2.4-0.9-3.7-1.4
	c-0.6-0.2-0.7,0.1-0.9,0.6c-0.3,0.9-0.7,1.9-1.4,2.5c-1.6,1.4-4.2,0.8-4.9-1.5c-0.7-2.4-0.7-4.8,0-7.2c0.6-2.2,2.8-3.2,4.6-2.1
	c0.6,0.4,1,1.1,1.5,1.7c0.3,0.3,0.3,0.9,0.9,0.7c1.2-0.3,2.3-0.6,3.5-1c0.4-0.1,0.7-0.4,0.5-0.8c-0.6-1.6-1.3-3.1-2.7-4.2
	c-1.6-1.3-3.5-1.5-5.4-1.5c-3,0-5.5,1.1-7.1,3.7c-0.8,1.3-1.3,2.8-1.5,4.4c-0.4,3-0.3,6,1.1,8.8c0.6,1.2,1.6,2.3,2.6,3.2
	C63.1,110.7,65,110.9,67.1,110.8z"/>
<path d="M144.7,71.4c-0.2-0.1-0.3-0.2-0.4-0.2c-1.5,0-3,0.1-4.5,0c-0.7,0-1.1,0.2-1.5,0.8c-0.8,1.2-1.6,2.3-2.4,3.4
	c-0.1,0.2-0.4,0.2-0.6,0.3c-0.1-0.2-0.2-0.4-0.2-0.6c0-0.7,0-1.4,0-2.1c0-2.2,0-4.4,0-6.6c0-0.7-0.2-0.9-0.9-0.9c-1,0-2,0-2.9,0
	c-0.8,0-1.1,0.2-1.1,1c0,2.5,0,5,0,7.5c0,3.8,0,7.6,0,11.5c0,0.6,0.2,1,0.9,0.9c0.9-0.1,1.7-0.1,2.6,0c1.4,0,1.5,0,1.4-1.4
	c-0.1-1.5,0-2.9,1.2-3.9c0.5-0.4,0.8-0.5,1.1,0c0.7,1.5,1.4,3,1.9,4.5c0.3,0.7,0.6,0.8,1.2,0.8c1.2,0,2.3,0,3.5,0
	c0.3,0,0.7,0,0.7-0.2c0.1-0.2,0-0.6-0.1-0.8c-1.4-2.7-2.8-5.5-4.2-8.2c-0.1-0.3,0-0.8,0.2-1.1c1-1.2,2-2.3,3-3.5
	C144,72.2,144.3,71.8,144.7,71.4z"/>
<path d="M81,47c-2,0-3.7,0-5.4,0c-0.3,0-0.7,0.3-0.9,0.5c-0.9,1.2-1.8,2.5-2.7,3.7c-0.1,0.2-0.3,0.3-0.6,0.6c-0.1-0.5-0.1-0.7-0.1-1
	c0-2.9,0-5.9,0-8.8c0-0.6-0.2-0.8-0.8-0.8c-1.1,0-2.1,0-3.2,0c-0.8-0.1-1,0.3-1,1.1c0,3.1,0,6.3,0,9.4c0,3.1,0,6.3,0,9.4
	c0,0.6,0.1,1,0.8,1c1.1,0,2.3-0.1,3.4,0c0.5,0,0.7-0.1,0.7-0.6c0-0.3,0-0.7,0-1c-0.1-1.4-0.1-2.6,1.2-3.6c0.8-0.6,0.9-0.7,1.3,0.3
	c0.6,1.4,1.2,2.8,1.8,4.2c0.2,0.5,0.4,0.8,1.1,0.7c1.3-0.1,2.6,0,3.8,0c0.7,0,0.8-0.1,0.5-0.7c-0.3-0.6-0.6-1.2-1-1.8
	c-1.1-2.2-2.3-4.4-3.3-6.6c-0.1-0.3,0-0.9,0.2-1.2c0.2-0.4,0.7-0.7,1-1.1C78.9,49.4,79.9,48.3,81,47z"/>
<path d="M113.4,79c0,0.4,0.1,1.2,0.2,2c0.4,2,1.3,3.7,3.2,4.7c1.9,1,4,1.2,6.1,0.8c2.7-0.5,4.3-2.2,5.2-4.7c0.2-0.6-0.1-0.7-0.6-0.8
	c-1-0.1-2-0.3-3-0.4c-0.5-0.1-1,0-1.2,0.6c-0.4,1.1-1.3,1.7-2.5,1.6c-1.1-0.1-1.8-0.7-2.1-1.6c-0.5-1.6-0.6-3.2,0.1-4.8
	c0.4-1,1.2-1.5,2.2-1.5c1-0.1,1.8,0.4,2.2,1.4c0.1,0.3,0.6,0.5,0.9,0.5c1-0.1,2-0.3,3.1-0.4c0.7-0.1,0.9-0.4,0.6-1.1
	c-1-2.1-2.3-3.7-4.7-4c-2.3-0.3-4.7-0.4-6.7,1.1C114.1,73.8,113.5,76.1,113.4,79z"/>
<path d="M63.2,54.5C63.2,54.5,63.2,54.5,63.2,54.5c0-2.3,0-4.5,0-6.8c0-0.5-0.2-0.7-0.7-0.7c-1.2,0-2.3,0-3.5,0
	c-0.5,0-0.7,0.2-0.7,0.7c0,4.5,0,9.1,0,13.6c0,0.5,0.2,0.7,0.7,0.7c1.1,0,2.2,0,3.4,0c0.6,0,0.8-0.2,0.8-0.8
	C63.1,58.9,63.2,56.7,63.2,54.5z"/>
<path d="M73.2,76.4C73.2,76.4,73.2,76.4,73.2,76.4c-1,0-1.9,0-2.9,0c-0.5,0-0.7,0.2-0.7,0.7c0,1,0,2,0,3c0,0.5,0.2,0.7,0.7,0.7
	c2,0,3.9,0,5.9,0c0.2,0,0.5-0.3,0.5-0.5c0-1.1,0-2.2,0-3.3c0-0.5-0.2-0.7-0.7-0.7C75,76.5,74.1,76.4,73.2,76.4z"/>
<path d="M96.7,107.7c0,0.6,0,1.3,0,1.9c0,0.7,0.2,1,0.9,1c1.2,0,2.3,0,3.5,0c0.5,0,0.8-0.2,0.8-0.7c0-1.4,0-2.8,0-4.3
	c0-0.5-0.2-0.8-0.8-0.8c-1.2,0-2.4,0-3.6,0c-0.6,0-0.9,0.3-0.8,0.9C96.7,106.3,96.7,107,96.7,107.7z"/>
<path d="M60.7,41.2C60.7,41.2,60.7,41.2,60.7,41.2c-0.6,0-1.2,0-1.8,0c-0.5,0-0.6,0.2-0.6,0.6c0,0.8,0,1.7,0,2.5
	c0,0.5,0.2,0.7,0.7,0.7c1.1,0,2.3,0,3.4,0c0.6,0,0.8-0.3,0.8-0.8c0-0.8,0-1.5,0-2.3c0-0.6-0.2-0.8-0.8-0.8
	C61.8,41.2,61.3,41.2,60.7,41.2z"/>
<path class="st0" d="M50.2,95.8c-0.2,0.7-0.4,1.4-0.6,2.2c-0.8,3.9-1.6,7.8-2.4,11.7c-0.1,0.6-0.4,0.8-1,0.8c-0.8,0-1.7,0-2.5,0
	c-0.5,0-0.8-0.2-0.9-0.7c-0.5-2.6-1.1-5.2-1.7-7.8c-0.4-1.7-0.7-3.3-1-5c-0.1-0.3-0.2-0.5-0.2-0.8c-0.1,0-0.2,0-0.3,0
	c-0.1,0.4-0.2,0.9-0.2,1.3c0,4,0,7.9,0,11.9c0,1.1,0,1.1-1.1,1.1c-0.8,0-1.6-0.1-2.4,0c-0.8,0.1-1-0.2-1-1c0-6,0-12.1,0-18.1
	c0-2.1-0.1-1.6,1.7-1.7c1.6,0,3.2-0.1,4.8,0c0.2,0,0.6,0.3,0.7,0.6c0.6,2.8,1.2,5.6,1.8,8.4c0.2,0.8,0.3,1.6,0.5,2.3
	c0,0.2,0.2,0.4,0.4,0.6c0.2-0.2,0.4-0.4,0.5-0.6c0.4-1.6,0.7-3.3,1-4.9c0.4-1.9,0.8-3.8,1.2-5.7c0.1-0.6,0.4-0.7,1-0.7
	c1.8,0,3.7,0,5.5,0c0.7,0,0.9,0.3,0.9,0.9c0,5,0,10.1,0,15.1c0,1.2,0,2.5,0,3.7c0,0.7-0.2,1-0.9,1c-0.9,0-1.7,0-2.6,0
	c-0.7,0-0.9-0.3-0.9-0.9c0-4.1,0-8.2,0.1-12.4c0-0.5,0-0.9,0-1.4C50.4,95.8,50.3,95.8,50.2,95.8z"/>
<path class="st0" d="M45,53.1c0.1-0.3,0.3-0.5,0.3-0.8c0.7-3.2,1.3-6.3,2-9.5c0-0.2,0.1-0.4,0.1-0.6c0.1-0.7,0.4-1,1.3-1
	c1.7,0.1,3.5,0,5.2,0c0.7,0,0.9,0.2,0.9,0.9c0,6.3,0,12.6,0,18.9c0,0.8-0.2,1-1,1c-0.8-0.1-1.5,0-2.3,0c-1,0-1.1-0.1-1.1-1.1
	c0-4.1,0-8.2,0.1-12.4c0-0.4-0.1-0.8-0.1-1.2c-0.1,0-0.2,0-0.2,0c-0.1,0.3-0.3,0.5-0.3,0.8c-0.9,4.3-1.8,8.5-2.7,12.8
	c-0.2,0.7-0.4,1.2-1.3,1.1c-0.8-0.1-1.5,0-2.3,0c-0.5,0-0.8-0.2-0.9-0.7c-0.8-3.9-1.6-7.8-2.5-11.7c-0.1-0.7-0.3-1.4-0.4-2.1
	c-0.1,0-0.2,0-0.3,0c-0.1,0.3-0.2,0.7-0.2,1c0,3.3,0,6.5,0,9.8c0,1,0,1.9,0,2.9c0,0.5-0.2,0.8-0.7,0.8c-1,0-2.1,0-3.1,0
	C35,62,35,61.6,35,61.1c0-1.6,0-3.2,0-4.8c0-4.7,0-9.4,0-14.2c0-0.7,0.2-1,1-1c1.8,0.1,3.5,0,5.3,0c0.6,0,0.9,0.2,1,0.8
	c0.7,3.1,1.4,6.3,2.1,9.4c0.1,0.6,0.2,1.1,0.3,1.7C44.8,53.1,44.9,53.1,45,53.1z"/>
<path class="st0" d="M67.1,110.8c-2.1,0.1-4-0.1-5.4-1.4c-1-0.9-2-2-2.6-3.2c-1.4-2.8-1.4-5.8-1.1-8.8c0.2-1.6,0.6-3,1.5-4.4
	c1.6-2.6,4.1-3.7,7.1-3.7c1.9,0,3.8,0.2,5.4,1.5c1.4,1.1,2.1,2.6,2.7,4.2c0.2,0.5-0.1,0.7-0.5,0.8c-1.2,0.3-2.3,0.6-3.5,1
	c-0.6,0.2-0.7-0.3-0.9-0.7c-0.5-0.6-0.9-1.4-1.5-1.7c-1.8-1.1-4-0.1-4.6,2.1c-0.7,2.4-0.7,4.8,0,7.2c0.7,2.3,3.4,2.9,4.9,1.5
	c0.7-0.6,1.1-1.6,1.4-2.5c0.2-0.5,0.3-0.8,0.9-0.6c1.2,0.4,2.5,0.9,3.7,1.4c0.2,0.1,0.3,0.4,0.3,0.6c-0.5,2.2-1.5,4.1-3.4,5.4
	C70.1,110.7,68.6,111.1,67.1,110.8z"/>
<path class="st0" d="M144.7,71.4c-0.4,0.4-0.7,0.8-1,1.1c-1,1.1-2,2.3-3,3.5c-0.2,0.2-0.3,0.8-0.2,1.1c1.4,2.8,2.8,5.5,4.2,8.2
	c0.1,0.2,0.2,0.6,0.1,0.8c0,0.1-0.5,0.1-0.7,0.2c-1.2,0-2.3,0-3.5,0c-0.6,0-1-0.1-1.2-0.8c-0.5-1.5-1.2-3-1.9-4.5
	c-0.2-0.5-0.6-0.4-1.1,0c-1.2,1.1-1.3,2.5-1.2,3.9c0.1,1.4,0,1.5-1.4,1.4c-0.9,0-1.7,0-2.6,0c-0.7,0-0.9-0.3-0.9-0.9
	c0-3.8,0-7.6,0-11.5c0-2.5,0-5,0-7.5c0-0.8,0.3-1,1.1-1c1,0.1,2,0.1,2.9,0c0.7,0,0.9,0.2,0.9,0.9c0,2.2,0,4.4,0,6.6
	c0,0.7,0,1.4,0,2.1c0,0.2,0.1,0.4,0.2,0.6c0.2-0.1,0.5-0.1,0.6-0.3c0.8-1.1,1.7-2.2,2.4-3.4c0.4-0.6,0.8-0.8,1.5-0.8
	c1.5,0.1,3,0,4.5,0C144.4,71.2,144.4,71.3,144.7,71.4z"/>
<path class="st0" d="M81,47c-1.1,1.3-2.1,2.4-3,3.5c-0.3,0.4-0.8,0.7-1,1.1c-0.2,0.4-0.4,0.9-0.2,1.2c1.1,2.2,2.2,4.4,3.3,6.6
	c0.3,0.6,0.7,1.2,1,1.8c0.3,0.6,0.2,0.7-0.5,0.7c-1.3,0-2.6-0.1-3.8,0c-0.7,0.1-0.9-0.2-1.1-0.7c-0.6-1.4-1.2-2.8-1.8-4.2
	c-0.4-1-0.5-0.9-1.3-0.3c-1.3,1-1.3,2.2-1.2,3.6c0,0.3,0,0.7,0,1c0,0.5-0.2,0.6-0.7,0.6c-1.1,0-2.3,0-3.4,0c-0.7,0-0.8-0.4-0.8-1
	c0-3.1,0-6.3,0-9.4c0-3.1,0-6.3,0-9.4c0-0.8,0.2-1.1,1-1.1c1.1,0.1,2.1,0,3.2,0c0.6,0,0.8,0.2,0.8,0.8c0,2.9,0,5.9,0,8.8
	c0,0.3,0.1,0.5,0.1,1c0.3-0.3,0.5-0.4,0.6-0.6c0.9-1.2,1.8-2.5,2.7-3.7c0.2-0.2,0.6-0.5,0.9-0.5C77.3,47,79,47,81,47z"/>
<path class="st0" d="M113.4,79c0.1-2.9,0.7-5.2,2.9-6.8c2-1.5,4.4-1.4,6.7-1.1c2.4,0.3,3.8,2,4.7,4c0.3,0.7,0.1,0.9-0.6,1.1
	c-1,0.2-2,0.4-3.1,0.4c-0.3,0-0.8-0.2-0.9-0.5c-0.5-1-1.2-1.4-2.2-1.4c-1,0.1-1.8,0.5-2.2,1.5c-0.7,1.6-0.6,3.2-0.1,4.8
	c0.3,0.9,1,1.6,2.1,1.6c1.3,0.1,2.1-0.5,2.5-1.6c0.3-0.7,0.7-0.7,1.2-0.6c1,0.1,2,0.3,3,0.4c0.5,0.1,0.8,0.2,0.6,0.8
	c-0.9,2.5-2.5,4.3-5.2,4.7c-2.1,0.4-4.2,0.2-6.1-0.8c-1.8-1-2.8-2.7-3.2-4.7C113.5,80.2,113.4,79.4,113.4,79z"/>
<path class="st0" d="M63.2,54.5c0,2.2,0,4.4,0,6.6c0,0.6-0.2,0.8-0.8,0.8c-1.1,0-2.2,0-3.4,0c-0.5,0-0.8-0.2-0.7-0.7
	c0-4.5,0-9.1,0-13.6c0-0.5,0.2-0.7,0.7-0.7c1.2,0,2.3,0,3.5,0c0.5,0,0.7,0.2,0.7,0.7C63.2,50,63.2,52.2,63.2,54.5
	C63.2,54.5,63.2,54.5,63.2,54.5z"/>
<path class="st0" d="M73.2,76.4c0.9,0,1.9,0,2.8,0c0.5,0,0.7,0.2,0.7,0.7c0,1.1,0,2.2,0,3.3c0,0.2-0.3,0.5-0.5,0.5c-2,0-3.9,0-5.9,0
	c-0.5,0-0.7-0.3-0.7-0.7c0-1,0-2,0-3c0-0.5,0.2-0.7,0.7-0.7C71.3,76.5,72.2,76.5,73.2,76.4C73.2,76.4,73.2,76.4,73.2,76.4z"/>
<path class="st0" d="M96.7,107.7c0-0.7,0-1.3,0-2c0-0.6,0.2-0.9,0.8-0.9c1.2,0,2.4,0,3.6,0c0.6,0,0.8,0.3,0.8,0.8c0,1.4,0,2.8,0,4.3
	c0,0.6-0.3,0.7-0.8,0.7c-1.2,0-2.3,0-3.5,0c-0.7,0-1-0.3-0.9-1C96.7,108.9,96.7,108.3,96.7,107.7z"/>
<path class="st0" d="M60.7,41.2c0.5,0,1.1,0,1.6,0c0.6-0.1,0.8,0.2,0.8,0.8c0,0.8,0,1.5,0,2.3c0,0.5-0.2,0.8-0.8,0.8
	c-1.1,0-2.3,0-3.4,0c-0.5,0-0.7-0.2-0.7-0.7c0-0.8,0-1.7,0-2.5c0-0.4,0.2-0.6,0.6-0.6C59.5,41.2,60.1,41.2,60.7,41.2
	C60.7,41.2,60.7,41.2,60.7,41.2z"/>
<path class="st0" d="M96.6,86.2c-1.5,0-2.7,0-3.9,0c-2.5,0-1.9,0.4-3-1.9c-0.8-1.6-1.5-3.2-2.2-4.8c-0.3-0.7-0.7-1.4-1.6-1.7
	c-0.9-0.3-1.2-0.1-1.2,0.8c0,1.9,0,3.9,0,5.8c0,0.2,0,0.5,0,0.7c0,1-0.1,1-1.1,1c-1.1,0-2.2,0-3.3,0c-1,0-1.1,0-1.1-1
	c0-5.9,0-11.8,0-17.7c0-2.1,0-2.1,2.1-2c2.8,0,5.7,0,8.5,0.1c1.6,0.1,3.2,0.4,4.2,1.9c1.2,1.8,1.3,3.7,0.8,5.7
	c-0.4,1.7-1.4,3.1-3.2,3.6c-0.1,0-0.2,0.6-0.2,0.6c1.6,0.8,2.2,2.4,2.9,3.9C95.1,82.9,95.8,84.5,96.6,86.2z M84.6,73.3
	c0,0.5,0.2,0.7,0.7,0.7c1-0.1,2-0.1,3-0.3c1.1-0.2,1.6-1,1.4-2.2c-0.1-1.1-0.8-1.7-1.9-1.8c-0.4,0-0.7,0-1.1,0
	c-2.6,0-2.1-0.1-2.2,2.2C84.6,72.3,84.6,72.8,84.6,73.3z"/>
<path class="st0" d="M107.4,51.5c0-3.1,0-6.3,0-9.4c0-0.7,0.2-0.9,0.9-0.9c2.8,0.1,5.6-0.1,8.3,0.1c2.7,0.2,4.7,1.6,5.8,4.2
	c1,2.4,1.2,5,1.1,7.6c-0.1,1.7-0.3,3.4-1.1,4.9c-1.2,2.1-2.8,3.6-5.3,3.8c-2.6,0.1-5.2,0.2-7.8,0.2c-1.9,0-1.9-0.1-1.9-2
	C107.4,57.2,107.4,54.3,107.4,51.5C107.4,51.5,107.4,51.5,107.4,51.5z M112.7,51.5c0,1.2,0,2.4,0,3.6c0,2.5-0.5,2.4,2.5,2.1
	c1.3-0.1,2.2-0.8,2.5-2c0.7-2.4,0.6-4.9-0.1-7.3c-0.2-0.5-0.6-1-1-1.4c-0.9-0.8-2-0.8-3.2-0.8c-0.7,0-0.9,0.3-0.9,0.9
	C112.7,48.3,112.7,49.9,112.7,51.5C112.7,51.5,112.7,51.5,112.7,51.5z"/>
<path class="st0" d="M147.1,81.3c0.1-3.2,1.3-5.1,3.7-6.3c0.6-0.3,0.7-0.6,0.2-1.2c-1.8-2.4-1.5-5.9,0.6-7.6c1.3-1,2.8-1.1,4.4-1.1
	c1.3,0.1,2.7,0.3,3.8,1.2c2,1.7,1.8,4.6,0.7,6.1c-0.5,0.7-1.2,1.4-1.9,2c-0.9,0.7-0.9,0.7-0.1,1.5c0.5,0.5,0.9,1,1.3,1.4
	c0.6,0.6,1.1,0.4,1.1-0.4c0.1-0.7,0.5-0.8,1-0.7c0.8,0.2,1.5,0.5,2.3,0.6c0.8,0.2,0.7,0.6,0.5,1.2c-0.3,0.8-0.6,1.5-0.9,2.3
	c-0.2,0.4-0.1,0.7,0.3,1c0.6,0.4,1.1,0.9,1.7,1.3c0.3,0.3,0.4,0.5,0.1,0.9c-0.7,0.8-1.3,1.7-2,2.5c-0.1,0.1-0.5,0.2-0.7,0.1
	c-0.6-0.4-1.1-0.7-1.6-1.2c-0.6-0.5-1.1-0.4-1.7,0c-2.9,1.8-5.9,2-9.1,1C148.7,85.5,147,82.9,147.1,81.3z M157,82.2
	c0.7-0.3,0.7-0.6,0.1-1.1c-0.8-0.8-1.7-1.6-2.5-2.5c-1.1-1.3-1.1-1.3-2.2,0c0,0,0,0-0.1,0.1c-0.7,0.9-0.7,1.8-0.2,2.8
	c0.5,0.9,1.3,1.4,2.5,1.5C155.3,82.8,156.2,82.6,157,82.2z M155.1,68.3c-1.1,0.6-1.4,1.3-0.9,2.6c0.7,1.8,1.3,1.9,2.5,0.4
	c0.2-0.3,0.4-0.6,0.5-0.9c0.4-1.1-0.4-2.3-1.7-2.3C155.5,68.1,155.3,68.2,155.1,68.3z"/>
<path class="st0" d="M145.7,58.8c-0.8,1.1-1.6,2.1-2.4,3.1c-0.1,0.1-0.5,0.2-0.7,0.1c-0.6-0.4-1.1-0.8-1.6-1.2
	c-0.5-0.4-0.9-0.4-1.5-0.1c-3.3,2-6.8,2.3-10.3,0.5c-2-1.1-3.1-4.2-2.3-6.4c0.6-1.8,1.7-3.1,3.4-3.9c0.6-0.3,0.7-0.6,0.3-1.2
	c-1.1-1.5-1.5-3.2-1.1-5c0.4-1.9,1.6-3,3.4-3.5c2-0.5,3.9-0.5,5.8,0.5c1.9,1.1,2.6,3.6,1.7,5.7c-0.6,1.3-1.5,2.2-2.6,3
	c-0.6,0.4-0.6,0.8-0.1,1.3c0.5,0.5,1,1.1,1.5,1.6c0.2,0.2,0.5,0.4,0.7,0.3c0.2,0,0.4-0.4,0.4-0.6c0.1-0.8,0.4-0.9,1.1-0.7
	c0.7,0.2,1.5,0.3,2.2,0.5c0.6,0.1,0.7,0.5,0.5,1c-0.3,0.8-0.7,1.6-1,2.5c-0.1,0.3,0,0.8,0.2,0.9C144.1,57.7,144.9,58.2,145.7,58.8z
	 M136.7,57.8c0.4-0.2,0.4-0.5,0-0.8c-1.1-1.1-2.2-2.2-3.3-3.3c-0.2-0.2-0.6-0.1-0.9-0.1c-0.2,0.1-0.3,0.3-0.5,0.5
	c-0.8,0.8-0.9,1.9-0.5,2.9c0.4,1.1,1.4,1.7,2.6,1.9C135.1,58.5,135.9,58.2,136.7,57.8z M135.7,43.9c-0.7-0.2-1.6,0.2-1.9,0.9
	c-0.5,0.8,0.1,2.8,1,3.3c0.2,0.1,0.4,0.1,0.6,0c0.6-0.2,1.7-1.9,1.6-2.5C136.9,44.8,136.3,44.1,135.7,43.9z"/>
<path class="st0" d="M42.9,65.5c0.7,0,1.4,0,2,0c0.6,0,0.9,0.1,1.1,0.7c0.8,2.6,1.7,5.1,2.5,7.7c0.7,2.2,1.4,4.3,2.1,6.5
	c0.5,1.7,1.1,3.4,1.6,5c0.2,0.8,0.1,0.9-0.7,0.9c-1.3,0-2.6,0-3.9,0c-0.6,0-0.9-0.2-1-0.7c-0.2-0.7-0.4-1.4-0.5-2.1
	c-0.1-0.5-0.4-0.7-0.9-0.7c-1.6,0-3.2,0-4.8,0c-0.5,0-0.8,0.2-0.9,0.7c-0.1,0.7-0.3,1.4-0.5,2.1c-0.1,0.4-0.3,0.7-0.7,0.7
	c-1.5,0-2.9,0-4.4,0c-0.5,0-0.6-0.2-0.4-0.7c0.9-2.6,1.7-5.3,2.5-7.9c0.8-2.6,1.7-5.1,2.5-7.7c0.4-1.3,0.8-2.6,1.2-3.8
	c0.1-0.3,0.5-0.6,0.8-0.6C41.3,65.5,42.1,65.5,42.9,65.5C42.9,65.5,42.9,65.5,42.9,65.5z M42.3,72.4c-0.5,1.8-0.9,3.5-1.4,5.3
	c-0.1,0.5,0,0.8,0.6,0.8c0.8,0,1.7,0,2.5,0c0.6,0,0.7-0.3,0.5-0.8c-0.5-1.9-0.9-3.8-1.4-5.7c0-0.1-0.2-0.3-0.4-0.6
	C42.6,71.8,42.4,72.1,42.3,72.4z"/>
<path class="st0" d="M85.7,89.8c0.8,0,1.5,0,2.3,0c0.3,0,0.6,0.3,0.7,0.5c1,3,2,6.1,2.9,9.1c1.1,3.5,2.2,6.9,3.4,10.4
	c0.2,0.5,0,0.7-0.5,0.7c-1.4,0-2.8,0-4.3,0c-0.3,0-0.8-0.4-0.9-0.7c-0.3-0.6-0.3-1.4-0.6-2c-0.1-0.3-0.5-0.6-0.7-0.6
	c-1.7,0-3.4,0-5.1,0c-0.5,0-0.7,0.2-0.8,0.7c-0.1,0.3-0.2,0.7-0.3,1c-0.4,1.6-0.4,1.6-2.1,1.6c-1,0-2,0-3,0c-0.4,0-0.8-0.1-0.6-0.7
	c0.8-2.5,1.6-5.1,2.5-7.6c1-3.1,2-6.2,3-9.3c0.3-0.8,0.5-1.7,0.8-2.5c0.1-0.3,0.5-0.6,0.8-0.6C84,89.8,84.9,89.8,85.7,89.8
	C85.7,89.8,85.7,89.8,85.7,89.8z M85.6,102.7c0.3,0,0.7,0,1,0c0.9,0,1-0.2,0.8-1c-0.5-1.8-0.9-3.5-1.4-5.3c-0.1-0.2-0.3-0.4-0.5-0.7
	c-0.1,0.2-0.3,0.4-0.4,0.7c-0.5,1.7-0.9,3.5-1.3,5.2c-0.2,0.9-0.1,1.1,0.9,1.1C85,102.7,85.3,102.7,85.6,102.7
	C85.6,102.7,85.6,102.7,85.6,102.7z"/>
<path class="st0" d="M62.6,84.5c-0.4,0.4-0.7,0.9-1.2,1.3c-2.2,1.7-5.3,1-6.6-1.5c-1.7-3.3-1.8-6.7-0.5-10.1c1-2.6,3.5-3.8,6-3
	c0.5,0.2,0.9,0.5,1.4,0.8c0.2,0.1,0.5,0.2,0.8,0.3c0-0.3,0.1-0.5,0.1-0.8c0-1.7,0-3.4-0.1-5.2c0-0.6,0.3-0.8,0.9-0.8
	c1.1,0,2.1,0,3.2,0c0.6,0,0.9,0.2,0.9,0.8c0,4,0,8,0,11.9c0,2.4,0,4.7,0,7.1c0,0.7-0.2,0.9-0.9,0.9c-1,0-2,0-2.9,0
	c-0.6,0-0.8-0.2-0.8-0.8c0-0.3,0-0.6-0.1-0.9C62.7,84.5,62.7,84.5,62.6,84.5z M61.9,76c-0.7-1.3-2.6-1.1-3.2,0.2
	c-0.8,1.7-0.7,3.4,0,5c0.6,1.4,2.3,1.6,3.1,0.3c0.5-0.8,0.6-1.8,0.9-2.7C62.5,77.9,62.4,76.9,61.9,76z"/>
<path class="st0" d="M91.3,55.8c-1.4,0-2.7,0-4.1,0c-0.8,0-0.9,0.4-0.8,1c0.3,1,0.8,1.8,1.9,2.2c1,0.3,1.8-0.1,2.5-0.8
	c0.3-0.2,0.8-0.4,1.1-0.4c1.1,0,2.2,0.2,3.3,0.3c0.6,0.1,0.6,0.3,0.3,0.8c-1.2,1.8-2.6,3.2-4.9,3.3c-1.2,0.1-2.5,0.1-3.7,0
	c-2.6-0.2-4.2-1.9-5.1-4.2c-0.8-2.1-0.8-4.3-0.2-6.4c0.9-3,3.2-4.8,6.4-4.9c1.6,0,3.2,0.1,4.7,0.9c1.8,1,2.6,2.6,3,4.4
	c0.2,0.9,0.2,1.9,0.3,2.9c0.1,0.7-0.2,0.9-0.9,0.9C94.1,55.8,92.7,55.8,91.3,55.8C91.3,55.8,91.3,55.8,91.3,55.8z M88.8,53.2
	c0.3,0,0.7,0,1,0c1.8,0.1,1.9,0,1.2-1.7c-0.3-0.8-0.9-1.4-1.8-1.5c-1.5-0.2-2.6,1.4-2.7,2.7c0,0.2,0.4,0.5,0.7,0.5
	C87.7,53.2,88.2,53.2,88.8,53.2C88.8,53.2,88.8,53.2,88.8,53.2z"/>
<path class="st0" d="M111.5,78.8c-0.1,3.2-1.1,5.9-4.3,7.2c-2,0.9-4.1,0.9-6.2,0c-3-1.3-4.5-4.6-4.1-8.4c0.2-2.3,1.2-4.1,3-5.5
	c1.8-1.3,3.9-1.4,6-1.1c3.3,0.5,5.5,3.7,5.6,7C111.5,78.3,111.5,78.6,111.5,78.8z M101.6,78.8c0.2,0.9,0.4,1.9,0.7,2.7
	c0.6,1.3,2.9,1.9,3.8,0.1c0.9-1.9,0.9-3.8-0.1-5.7c-0.8-1.5-2.6-1.5-3.6-0.1c-0.2,0.3-0.4,0.7-0.5,1.1c-0.1,0.6-0.2,1.2-0.3,1.9
	C101.7,78.8,101.6,78.8,101.6,78.8z"/>
</svg>
