<?xml version="1.0" encoding="utf-8"?>
<!-- Generator: Adobe Illustrator 23.0.3, SVG Export Plug-In . SVG Version: 6.00 Build 0)  -->
<svg version="1.1" id="Layer_1" xmlns="http://www.w3.org/2000/svg" xmlns:xlink="http://www.w3.org/1999/xlink" x="0px" y="0px"
	 viewBox="0 0 200 200" style="enable-background:new 0 0 200 200;" xml:space="preserve">
<style type="text/css">
	.st0{fill:#FFFFFF;}
</style>
<g id="UpwKZG.tif">
	<g>
		<path d="M36.1,60.1c-0.3,0.5-0.6,1-0.9,1.5c-0.5,0.7-1,1.4-1.5,2.1c-0.2,0.2-0.5,0.3-0.7,0.4c-0.3,0.1-0.4,0.2-0.3,0.5
			c0.2,0.5,0.1,0.6-0.4,0.6c-0.1,0-0.2,0-0.4,0c0,0.3,0,0.5,0.1,0.7c0.1,0.7,0.1,0.7-0.5,1c-0.4,0.2-0.4,0.3-0.2,0.7
			c0.3,0.5,0.5,1,0.4,1.7c-0.1,0.4-0.2,0.6-0.7,0.6c-0.7-0.1-0.9,0.2-0.8,0.9c0.1,0.5,0.1,1,0.1,1.6c0,0.2-0.1,0.5-0.2,0.5
			c-0.2,0-0.4-0.1-0.6-0.2c-0.1-0.1-0.2-0.2-0.3-0.4c-0.2-0.4-0.5-0.8-0.8-1.3c0.1-0.1,0.2-0.2,0.3-0.4c0.3-0.4,0.4-0.7,0.1-1.2
			c-0.1-0.2-0.2-0.3-0.3-0.4c-0.5-0.6-0.5-0.7,0-1.2c0.1-0.2,0.3-0.4,0.1-0.6c-0.5-0.6-0.7-1.4-0.8-2.2c0-0.1-0.1-0.3-0.2-0.4
			c-0.7-0.4-1.1-1.1-1.5-1.7c-0.2-0.4-0.4-0.7-0.6-1.1c0,0-0.1,0-0.1,0c0,0.6,0.1,1.1,0.1,1.8c-0.7-0.3-0.9-0.8-0.9-1.4
			c-1,0.1-1.9,0.1-2.9,0.3c-0.5,0.1-0.7-0.1-0.7-0.5c-0.1-0.3-0.1-0.6-0.2-0.9c0-0.2-0.1-0.3-0.4-0.3c-0.6,0-1.3,0-1.9,0
			c-0.8,0.1-1.4-0.2-1.9-0.8c-0.4-0.4-0.7-0.9-1-1.4c-0.3-0.4-0.5-0.6-1-0.5c-0.2,0-0.3,0.1-0.5,0.1c-0.5,0.2-0.9,0.1-1.3-0.1
			c-0.3-0.2-0.6-0.2-1-0.3c-0.2-0.1-0.5-0.1-0.6-0.3c-0.4-0.3-0.7-0.7-1-1c-0.2-0.2-0.5-0.3-0.8-0.1c-0.3,0.2-0.6,0.1-0.9-0.1
			c-1-0.6-2.1-1.2-3.1-1.8c-0.4-0.2-0.8-0.4-1.4-0.2c0.2,0.2,0.3,0.4,0.4,0.7c-0.4,0.3-0.7,0.1-1-0.1c-0.5-0.4-1-0.6-1.7-0.4
			c0.2,0.1,0.3,0.2,0.5,0.3c0.6,0.3,1.2,0.6,1.8,1c0.4,0.3,0.7,0.6,1,1c0.8,1.1,1.5,2.2,2.7,2.9c0.7,0.5,1.2,1.1,1.4,1.9
			c0.1,0.3,0.2,0.4,0.5,0.5c0.9,0.1,1.1,0.3,1.3,1.2c0,0.2,0.1,0.5,0.1,0.7c0.1,0.6,0.4,1,0.9,1.3c0.2,0.1,0.5,0.4,0.6,0.6
			c0.3,0.4,0.6,0.4,1.1,0.3c0.1,0,0.3-0.1,0.5-0.1c0,1.3,0.8,2.1,1.9,2.6c0.3,0.2,0.5,0.4,0.5,0.7c0,0.8,0,1.7,0,2.5
			c0,1-0.1,1.9-0.8,2.6c-0.3,0.3-0.2,0.6,0,0.9c0.6,1,0.9,2.1,0.2,3.3c0,0.1,0,0.2,0,0.3c0.2,0.3,0.1,0.5-0.1,0.7
			c-0.7,0.8-0.8,1.6-0.8,2.6c0,0.4-0.1,0.9-0.3,1.2c-0.3,0.5-0.4,0.9-0.4,1.4c0,0.7,0,1.5,0,2.2c0.4-0.1,0.6,0.3,0.7,0.6
			c0.1,0.4-0.1,0.6-0.3,0.8c-0.1,0.1-0.2,0.2-0.3,0.3c-0.3,0.3-0.4,0.6-0.2,1c0.1,0.3,0.1,0.6,0.1,0.8c-0.2,0.9-0.1,1.8,0.1,2.6
			c0.1,0.2,0,0.4-0.1,0.6c-0.5,0.7-0.9,1.4-1.4,2c-0.4,0.5-0.6,1.1-0.5,1.7c0,0.3,0,0.6-0.1,1c0,0.2,0,0.4,0.3,0.4
			c0.6,0,0.8,0.2,1,0.8c0.1,0.6,0.4,1.2-0.3,1.7c-0.1,0.1-0.1,0.2-0.2,0.3c-0.4,0.8-0.4,1.6-0.3,2.4c0,0.5-0.1,0.8-0.4,1.2
			c-0.2,0.2-0.4,0.4-0.5,0.6c-0.1,0.2-0.1,0.5-0.2,0.7c0,0.4,0,0.9-0.1,1.3c-0.1,0.4-0.3,0.8-0.3,1.2c-0.1,0.3,0,0.6,0.5,0.7
			c0.2,0,0.4,0.2,0.5,0.3c0.3,0.4,0.3,1.1-0.1,1.6c-0.3,0.3-0.6,0.6-1,0.8c0,0,0,0.1,0.1,0.1c0.8,1.4,0.8,2.7,0,4.1
			c-0.1,0.2-0.2,0.4,0.1,0.5c0.3,0.2,0.4,0.5,0.4,0.9c0,0.4,0,0.8,0.1,1.3c-0.2,0.1-0.5,0.3-0.7,0.5c-0.4,0.3-0.7,0.7-1.1,1.1
			c-0.2,0.3-0.3,0.6,0,0.9c0.2,0.3,0.3,0.7,0.3,1c0.1,0.5,0,1,0.1,1.5c0.1,0.7,0.1,1.4-0.4,2.1c-0.1,0.2-0.2,0.5-0.1,0.6
			c0.4,0.7,0.2,1.5,0.2,2.2c-0.1,0.7-0.2,1.3-0.3,2c0.6-0.5,1.1-1,1.7-1.6c0,0.6,0.1,1,0.1,1.4c0.1,0,0.1,0,0.2,0
			c0.1-0.2,0.3-0.4,0.3-0.7c0.2-0.6,0.4-1.3,0.6-1.9c0.1-0.2,0.3-0.4,0.4-0.4c0.4,0.1,0.6-0.2,0.8-0.5c0.3-0.3,0.6-0.7,0.9-0.9
			c0.4-0.3,1-0.5,1.5-0.7c0-0.2-0.1-0.4,0-0.6c0.1-0.3,0.2-0.6,0.5-0.8c0.1-0.1,0.5,0.1,0.7,0.2c0.2,0.1,0.4,0.3,0.6,0.4
			c0,0,0.1,0,0.1-0.1c0-0.6,0.1-1.3,0.1-1.9c0-0.5,0.1-1,0.5-1.3c0.5-0.3,1-0.5,1.3-0.7c0.3,0.2,0.5,0.3,0.8,0.5
			c0.1-0.2,0.2-0.5,0.3-0.7c0,0,0,0,0,0c0.1-0.6,0.5-1,1.1-1.1c0.8-0.1,1.6-0.4,1.9-1.2c0.2-0.4,0.4-0.6,0.8-0.8
			c0.6-0.2,1-0.7,1.1-1.3c0.1-0.3,0.2-0.6,0.3-0.9c0.3-0.5,0.6-0.5,1.1-0.3c0.2,0.1,0.4,0.2,0.7,0.4c-0.2-0.8,0.1-1.1,0.6-1.4
			c0.4-0.2,0.5-0.6,0.4-1c-0.1-0.5,0-0.7,0.6-0.8c0.3,0,0.6,0.1,1,0.2c0.3,0,0.5,0.2,0.8,0.1c0.5-0.1,1.2-1.2,1.2-1.7
			c0-0.7,0.4-1.2,1.2-1.2c0.3,0,0.5,0,0.8,0c0-0.4,0-0.7,0-1.1c0.3,0.1,0.6,0.2,0.8,0.2c0.5,0.1,0.9,0.3,1.4,0.4
			c0.4,0.1,0.7,0,0.9-0.5c0.2-0.5,0.6-0.7,1.1-0.6c0.5,0.1,1,0.2,1.5,0.4c0.2,0.1,0.3,0.2,0.5,0.3c0-0.4,0-0.7,0-1
			c0-0.2,0.1-0.5,0.3-0.5c0.1-0.1,0.4,0,0.6,0.1c0.7,0.5,1.5,0.5,1.9-0.2c0.2-0.3,0.5-0.4,0.8-0.4c0.5,0.1,1.1,0.1,1.6,0.2
			c0-0.4,0-0.7,0.1-1.1c0.3,0.1,0.6,0.1,0.9,0.2c0.6,0.2,1.1,0.2,1.6-0.1c0.2-0.1,0.4-0.1,0.6-0.1c0.4,0.1,0.7,0,0.9-0.5
			c0.1-0.5,0.5-0.7,0.9-0.7c1.1,0.1,2.2,0.2,3.3,0.3c0.1,0,0.3,0.1,0.4,0c0.7-0.3,1.4-0.6,2-1.1c0.6-0.5,1.1-0.5,1.7-0.2
			c0.1,0,0.2,0.1,0.3,0.1c0.6,0.3,1.1,0.2,1.5-0.4c0.4-0.6,1-0.7,1.6-0.8c0.5,0,0.9,0,1.4,0.1c0.4,0.1,0.7,0,1.1-0.2
			c0.2-0.1,0.5-0.2,0.7-0.2c0.3,0,0.4-0.1,0.6-0.3c0.4-0.7,0.7-0.8,1.4-0.4c0.3,0.1,0.5,0.1,0.8-0.1c0.7-0.4,1.4-0.6,2.2-0.6
			c0.7,0,1.3,0,2,0c0.7,0,1.4,0,2.1-0.1c0.4,0,0.6-0.2,0.6-0.7c-0.9,0.5-1.8,0.3-2.6-0.1c-0.3-0.1-0.6-0.2-0.9-0.2
			c-0.1,0-0.2-0.1-0.3-0.2c0.1-0.1,0.2-0.2,0.3-0.2c0.5-0.2,1-0.4,1.5-0.6c0.4-0.1,0.4-0.3,0.2-0.6c-1.5,0.7-3.2,0.9-4.8,0.9
			c-0.4,0-0.9,0-1-0.5c-0.3,0.3-0.5,0.5-1,0.3c-0.7-0.4-1.4-0.7-2.2-1c-0.1,0-0.2,0-0.3,0c-0.5,0.3-1,0.7-1.5,1
			c-0.1,0.1-0.3,0.2-0.4,0.1c-0.9-0.2-1.8-0.4-2.6-0.6c-0.5-0.1-0.8-0.1-1.2,0.2c-0.7,0.5-0.9,0.5-1.4-0.3c-0.1-0.1-0.2-0.3-0.3-0.5
			c-0.3,0.2-0.6,0.4-1,0.5c-0.3,0.1-0.6,0.2-0.9,0.1c-0.7-0.2-0.7-0.2-1,0.5c0,0.1-0.1,0.2-0.1,0.3c-0.8-0.1-1.7-0.5-2.5,0.1
			c-0.2-0.2-0.4-0.5-0.6-0.7c-0.2-0.2-0.3-0.4-0.5-0.6c-0.2-0.3-0.6-0.2-0.6,0.1c-0.1,0.6-0.2,0.6-0.8,0.5c-0.4,0-0.7,0.1-1.1,0.1
			c-0.2,0-0.5,0-0.6-0.2c-0.3-0.3-0.3-0.8-0.1-1.2c0.2,0.1,0.4,0.1,0.7,0.2c0-0.6,0-1.2,0-1.8c1-0.3,2-0.4,2.9,0.2
			c0.1,0.1,0.3,0.1,0.4,0.1c0.6-0.3,1.2-0.1,1.8,0.2c0.6,0.3,1.1,0.3,1.7,0c1.4-0.6,2.8-0.8,4.2-0.1c0.2,0.1,0.6,0,0.9-0.1
			c0.7-0.3,0.9-0.3,1.4,0.3c0.2,0.2,0.3,0.4,0.5,0.6c0.1,0,0.1,0,0.2,0c0.1-0.8,0.2-1.6,0.3-2.4c0.6,0.1,1.1,0.1,1.7,0.2
			c0.4,0,0.5,0,0.5-0.4c-0.7,0-0.7-0.1-0.6-0.7c0-0.2,0-0.3-0.1-0.5C63,93.8,62.9,94,62.7,94c-0.2,0-0.4,0-0.6-0.1
			c-0.1-0.1-0.1-0.3,0-0.5c0.1-0.3,0.2-0.7,0.2-1c0.1-0.9,0.7-1.6,0.5-2.5c-0.1-0.5,0.2-0.8,0.6-0.9c0.2-0.1,0.4-0.1,0.5-0.1
			c0.1,0,0.2-0.1,0.3-0.2c-0.1-0.1-0.2-0.2-0.3-0.2c-0.6,0-1.1,0.1-1.7,0.1c-0.7,0-0.8-0.1-0.8-0.8c0-0.5-0.2-0.6-0.6-0.4
			c-0.3,0.1-0.6,0.2-0.9,0c-0.6-0.3-1.2-0.3-1.9,0c-0.6,0.3-1.1,0.1-1.6-0.1c-0.1-0.1-0.2-0.4-0.2-0.5c0-0.8,0.7-1.4,1.4-1.3
			c0.5,0.1,0.9,0.3,1.3,0.5c0.2,0.1,0.4,0.1,0.5,0.1c1.1-0.4,2.2-0.5,3.4-0.4c0.1,0,0.3,0,0.5,0c-0.2-0.3-0.3-0.4-0.4-0.6
			c-0.2-0.4,0-0.5,0.4-0.6c0.1,0,0.3,0,0.4,0c0-0.1,0-0.1,0-0.2c-0.2-0.1-0.4-0.2-0.6-0.2c-0.3,0-0.5,0.1-0.8,0.1
			c-0.5,0.1-0.9,0-1.2-0.5c-0.3-0.5,0.1-0.7,0.4-1c0.5-0.6,0.6-0.9,0.3-1.6c-0.1-0.1-0.1-0.3-0.2-0.4c-0.3-0.6-0.3-0.6,0.3-0.8
			c0.6-0.3,0.7-0.4,0.5-1c-0.1-0.4-0.2-0.7-0.3-1.1c0-0.1,0-0.2,0-0.3c0.7,0,1.4,0,2,0c0.4,0,0.6-0.2,0.6-0.6
			c-0.4-0.1-0.8-0.1-1.3-0.2c0.2-0.3,0.3-0.5,0.4-0.8c-0.7,0-1.3,0-1.9,0c-0.6,0-1.2,0-1.6-0.6c-1.2,0.8-2.4,0.7-3.5,0.4
			c-0.1-0.9-0.1-1.7-0.2-2.5c1.5,0,3-0.2,4.1,1.2c0.1-0.4,0.1-0.7,0.2-1c0.1-0.2,0.3-0.4,0.4-0.4c0.2,0,0.4,0.2,0.5,0.3
			c0.1,0.1,0,0.3,0,0.4c0,0.3-0.1,0.7-0.1,1c0.2,0,0.2,0,0.2,0c0.9-0.2,1.8-0.4,2.8-0.5c0.5-0.1,0.9,0.2,0.8,0.8
			c-0.1,0.6-0.1,1.2-0.1,1.9c0,0.7,0.2,1.3,0.2,1.9c0,0.6-0.1,1.1-0.1,1.7c0,0.6-0.1,1.2-0.6,1.7c-0.3,0.3-0.3,0.6-0.1,0.9
			c0.3,0.6,0.7,1.3,0.7,2.1c0,0.8,0.1,1.7,0.1,2.5c0.2-0.1,0.5-0.1,0.7-0.2c0.1,0.6-0.1,1-0.4,1.4c-0.1,0.2-0.3,0.7-0.2,0.8
			c0.3,0.4,0.1,0.7,0,1.1c-0.1,0.2-0.1,0.3-0.1,0.5c0.1,0.9,0.2,1.7,0.3,2.6c0.1,0.5-0.1,0.8-0.6,0.7c-0.3,0-0.6-0.1-0.9,0
			c-0.1,0-0.2,0.2-0.3,0.3c0,0.1,0.2,0.2,0.3,0.3c0.3,0.1,0.5,0.1,0.8,0.1c0.3,0,0.4,0.1,0.4,0.4c0,0.7,0.1,1.3,0.1,2
			c0,0.2,0,0.4,0.1,0.5c0,0,0.1,0,0.1,0c0.1-0.2,0.2-0.4,0.2-0.5c0.3,0,0.5,0,0.8,0c0,1.3,0,1.3,0.4,1.3c0-0.3-0.1-0.5-0.1-0.8
			c0-0.4,0-0.8,0.1-1.1c0.1-0.5,0.6-0.5,0.8-0.1c0.2,0.5,0.6,0.5,1,0.4c0.7-0.1,1.3-0.3,1.4-1.1c0-0.3,0.2-0.6,0.6-0.7
			c1-0.1,2-0.2,2.9,0.1c0.7,0.2,0.8,0.5,0.7,1.2c0,0.3-0.1,0.5-0.1,0.8c0,0.4,0.3,0.7,0.7,0.7c0.4,0,0.6-0.2,0.6-0.6
			c0-0.3,0.1-0.6,0.1-1c0.1-0.9,0.3-1.6,1.3-1.8c0.2,0,0.3-0.4,0.5-0.6c-0.2-0.1-0.3-0.2-0.5-0.3c-0.1-0.4-0.1-0.9-0.2-1.4
			c0-0.3-0.1-0.7-0.1-1c0-0.4-0.1-0.8-0.5-1c-0.3-0.2-0.6-0.3-1-0.5c0.3-0.4,0.6-0.8,0.9-1.1c0.4-0.5,0.4-0.8,0-1.2
			c-0.4-0.4-0.5-0.7-0.1-1.1c0.2-0.3,0.5-0.6,0.7-0.8c-0.9-0.8-0.9-1.9,0.1-2.8c0.3-0.3,0.6-0.7,0.7-1.1c0.2-1,0.3-2.1,0-3.1
			c-0.2-0.7-0.2-1.3-0.1-2c0-0.1-0.1-0.3-0.1-0.4c-0.2-0.2-0.5-0.4-0.5-0.6c-0.1-1-0.2-2-0.3-3c1.3-0.2,1.6,0,1.6,1.2
			c0,0.1,0,0.2,0,0.4c0,0.3,0,0.6,0,0.9c0.5-0.3,1-0.2,1.6,0.2c0-0.5,0-1-0.1-1.4c-0.2-1-0.1-2,0.7-2.7c0.2-0.3,0.2-0.5,0-0.7
			C81,70.8,81,70.5,81,70.2c0-0.3,0.1-0.5,0.1-0.8c0.1-0.2,0.2-0.5,0.4-0.7c0.3-0.3,0.5-0.6,0.5-1c0-0.5,0.1-1.1,0.1-1.6
			c0-0.3,0.2-0.5,0.3-0.8c0.1,0,0.1,0,0.2,0c0.1,0.2,0.2,0.4,0.2,0.6c0.2,0.8-0.1,1.4-0.4,2.2c-0.1,0.3-0.1,0.6-0.1,0.8
			c0.2,0.5,0.1,0.9-0.2,1.3c-0.5,0.6-0.5,1.1-0.3,1.8c0.3,1.4,0.3,2.7-0.8,3.8c-0.1,0.1-0.1,0.3-0.1,0.4c0.4,1.5,0.1,3-0.7,4.3
			c-0.3,0.4-0.3,0.7,0,1.1c0.5,0.6,0.5,1.1,0.2,1.8c-0.3,0.5-0.4,1.1-0.2,1.5c-0.4,0.6-0.8,1.2-1.2,1.7c-0.2,0.3-0.1,0.5,0.1,0.7
			c0.1,0.1,0.2,0.2,0.4,0.4c0.4,0.3,0.5,0.8,0.3,1.3c-0.2,0.4-0.4,0.8-0.6,1.2c-0.4,0.7-0.4,0.7,0.1,1.3c0.5,0.6,0.6,1.3,0.2,1.9
			c-0.1,0.2-0.3,0.5-0.4,0.7c-0.1,0.3-0.2,0.6-0.2,1c0,0.2,0.2,0.4,0.4,0.3c0.5-0.2,0.7,0.1,1,0.4c0.4,0.5,0.5,1.1,0.4,1.7
			c-0.1,0.4-0.1,0.9-0.2,1.3c0,0.1,0.1,0.3,0.1,0.4c0.1-0.1,0.2-0.2,0.2-0.4c0.1-0.8,0.4-1.6,0.9-2.3c0.5-0.7,0.7-0.7,1.3-0.2
			c0.6,0.5,1.3,0.4,1.8-0.1c0.4-0.5,0.9-0.7,1.5-0.5c0.6,0.2,0.7,0.7,0.7,1.3c0,0.2,0.1,0.4,0.1,0.7c0.7-0.7,0.4-1.5,0.6-2.2
			c0.3,0,0.6,0.1,0.8,0c0.2-0.1,0.5-0.3,0.5-0.4c0-0.4,0.2-0.6,0.5-0.8c0.2-0.2,0.4-0.4,0.6-0.6c0.1-0.1,0.3-0.3,0.6-0.5
			c0.2,0.8,0.4,1.5,0.7,2.2c0.2-0.1,0.5-0.2,0.7-0.3c0.3-0.2,0.5-0.1,0.6,0.2c0.1,0.3,0.2,0.7,0.3,1c0.1,0.3,0.2,0.5,0.3,0.8
			c0.1-0.5,0-1,0.2-1.2c0.2-0.3,0.7-0.4,1.1-0.6c0,0,0.1,0.1,0.1,0.1c-0.1,0.4-0.1,0.7-0.2,1.1c0.3,0,0.6,0,0.9,0
			c0.9,0,1.8-0.1,2.6,0c1.1,0.1,1.3,0.5,1.3,1.6c0,0.1,0,0.3,0,0.4c0.1,0.1,0.2,0.2,0.3,0.4c0-0.7,0.1-1.2,0.1-1.8
			c0.5,0.4,0.8,0.7,1.2,1c0-0.4,0.1-0.6,0-0.8c-0.1-0.3-0.3-0.6-0.4-1c-0.1-0.2,0-0.4,0-0.6c0.2,0.1,0.5,0.1,0.6,0.2
			c0.5,0.5,0.8,1.1,0.9,1.9c0,0.4,0,0.8,0.1,1.2c0,0.3,0.2,0.5,0.3,0.8c0.1-0.9,0.2-1.7,0.2-2.6c0-0.7,0.3-1.1,1-1.2
			c0.2,0,0.4-0.1,0.6-0.2c0.2,0.3,0.4,0.6,0.7,0.8c0.3,0.2,0.7,0.5,1.1,0.4c2.3-0.2,4.5-0.6,6.8-0.5c0.2,0,0.4-0.1,0.6-0.2
			c0-0.1,0-0.1,0-0.2c-0.7-0.1-1.5-0.2-2.2-0.3c-0.3,0-0.6,0-0.7-0.5c1,0.1,1.9,0.2,2.9,0.3c0.9,0.1,0.9,0.2,0.9,1
			c0,0.3,0.1,0.6,0.2,1c0.5-0.4,0.6-0.8,0.7-1.2c0.1-1,0.9-1.8,1.8-1.8c0,0.4,0,0.8,0,1.2c0,0.2,0.1,0.5,0.2,0.6
			c0.4,0.3,0.7,0.7,0.6,1.2c0,0.1,0.1,0.1,0.2,0.2c0.1-0.1,0.2-0.2,0.2-0.2c0-0.3,0-0.6,0-0.8c0.1-0.4,0.2-0.8,0.3-1.1
			c0.3-0.5,0.6-0.6,1.1-0.3c0.2,0.1,0.5,0.3,0.7,0.4c0.3,0.2,0.5,0.2,0.8,0c0.8-0.5,1.7-0.5,2.5,0c0.1,0.1,0.2,0.2,0.4,0.3
			c-0.7,0.1-1.4-0.4-1.8,0.5c0.1,0,0.1,0.1,0.1,0.1c0.2,0,0.3,0,0.5,0c1.2-0.1,2.4-0.1,3.5,0.3c0.8,0.3,1.5,0.1,2.1-0.3
			c0.3-0.2,0.7-0.5,0.9-0.7c0-0.3,0-0.5,0-0.7c0.2,0.1,0.5,0.1,0.6,0.3c0.2,0.3,0.2,0.6,0.3,1c0.1,0.3,0.2,0.6,0.4,0.7
			c0.1-0.2,0.3-0.6,0.4-0.6c0.3,0.1,0.3-0.2,0.4-0.3c0.1-0.4,0.2-0.9,0.4-1.3c0.1-0.2,0.3-0.4,0.5-0.6c0.2,0.2,0.4,0.5,0.6,0.7
			c0.1,0.1,0,0.3,0,0.5c-0.2,1.1-0.2,1.2,0.9,1.1c0,0,0.1,0,0.1,0c0.1,0.5-0.2,1,0.3,1.4c0.1-0.8,0.1-1.6,0.1-2.5
			c0-0.2,0.1-0.3,0.1-0.5c0.2,0.1,0.4,0.1,0.5,0.2c0.2,0.2,0.5,0.2,0.7,0.2c0.6,0,1.2-0.1,1.7,0c0.7,0.2,1.4,0.2,2,0.1
			c0.2,0,0.4-0.1,0.7-0.1c0,0.3-0.1,0.5-0.1,0.7c0,0.1,0.1,0.3,0.2,0.4c0.6,0.4,0.8,0.8,0.6,1.5c-0.1,0.6-0.2,0.7-0.8,0.5
			c-0.5-0.2-1-0.3-1.6-0.1c-0.7,0.2-1.4,0.2-2-0.3c-0.4-0.3-0.7-0.3-1,0c-0.4,0.2-0.9,0.4-1.3,0.5c-0.1,0-0.1,0.1-0.2,0.1
			c-0.4,0.1-0.9,0.4-1.2,0.3c-0.8-0.2-1.4,0.1-2.2,0.1c-0.4,0-0.8,0.1-1.2,0c-0.7-0.1-1.4-0.3-2.2-0.4c0,0.2,0,0.4,0,0.6
			c0.3,0.1,0.6,0.1,0.9,0.2c0.2,0.1,0.3,0.3,0.4,0.4c0,0.3-0.2,0.3-0.4,0.3c-0.5,0-1,0-1.5,0.1c-0.2,0-0.4,0.2-0.6,0.2
			c0,0.1,0,0.1,0,0.2c1.8-0.1,3.5,0.4,5.4,0.1c0.1,0.5,0.5,0.6,1,0.6c0.6,0,1.1,0.1,1.7,0.1c0.5,0,0.8,0.2,0.9,0.7
			c0.1,0.4,0.4,0.6,0.9,0.6c0.2,0,0.5,0.1,0.7,0.2c0.4,0.2,0.7,0.2,1.1,0c0.2-0.1,0.4-0.2,0.6-0.3c0.4-0.2,0.8-0.2,1.1,0.2
			c0.4,0.5,0.9,0.7,1.5,0.5c0.5-0.1,0.9,0,1.4,0.3c0.7,0.4,1.5,0.6,2.3,0.9c0.1,0,0.2-0.1,0.3-0.1c-0.1-0.1-0.2-0.2-0.3-0.3
			c0,0-0.1,0-0.1,0c-0.1-0.1-0.2-0.1-0.2-0.2c0.1-0.1,0.2-0.2,0.2-0.2c0.2,0,0.3,0.1,0.5,0.2c1.6,1,3.3,1.3,5.2,1.4
			c0.6,0,0.9,0.2,1.3,0.6c0.3,0.4,1,0.5,1.3,0.1c0.2-0.2,0.4-0.2,0.7-0.1c0.8,0.2,1.6,0.5,2.3,0.5c0.9,0,1.5,0.1,1.9,0.9
			c0.6-0.1,1.3-0.1,1.9-0.4c1.2-0.5,2.5,0.4,2.8,1.4c0,0.1,0.1,0.3,0.1,0.4c0.1,0,0.2,0,0.3-0.1c0.8-0.2,1.5-0.4,2.3-0.6
			c0.3-0.1,0.6,0,0.9,0.3c0.2,0.2,0.4,0.3,0.7,0.3c0.7,0,0.7,0.1,1,0.7c0.1,0.3,0.2,0.6,0.3,0.7c1,0.7,2,1.3,3,1.9
			c0.1,0.1,0.3,0.2,0.3,0.3c0.4,0.8,0.9,1.6,1.3,2.5c0.3,0.6,0.6,0.8,1.3,0.7c0.8-0.1,1.3,0.2,1.7,0.9c0.6,1.1,1.4,2.1,2.6,2.7
			c0.1,0.1,0.2,0.2,0.2,0.2c0,0.9,0.6,1.2,1.3,1.5c0.2,0.1,0.4,0.3,0.5,0.5c0.1,0.2,0.1,0.4,0.1,0.6c0,0.2,0.1,0.3,0.3,0.4
			c0.9,0.2,1.7,0.4,2.6,0.6c0.3,0.1,0.5,0.3,0.5,0.6c0.1,0.8,0.6,1.3,1.3,1.6c0.5,0.1,0.7,0.4,0.8,0.9c0.1,0.5,0.4,0.7,0.9,0.7
			c0.2,0,0.4,0,0.5,0.1c0.8,0.7,1.6,1.5,1.7,2.7c0,0.2,0.1,0.5,0.1,0.7c0.1,0,0.1,0,0.2,0c0.1-0.2,0.2-0.5,0.3-0.7
			c0.1-0.1,0.2-0.2,0.3-0.2c0.1,0.1,0.2,0.2,0.3,0.3c0,0.2,0,0.3,0,0.5c0.1,0.2,0.2,0.4,0.3,0.5c0.1,0,0.1,0,0.2,0
			c0-0.3,0.1-0.7,0.1-1c0-0.4-0.1-0.7-0.2-1.2c1.1,0.3,1.6,1.3,2.6,1.5c-0.2-0.2-0.3-0.3-0.4-0.3c-1.1-0.8-1.7-1.8-2-3.1
			c-0.2-0.9-0.4-1.8-0.7-2.6c-0.3-0.7-0.2-1.2,0.1-1.8c0.1-0.3,0.2-0.6,0.2-0.9c0-0.6,0-1.2-0.1-1.8c-0.5-0.2-0.9-0.7-1-1.3
			c-0.2-0.8-0.3-1.6-0.5-2.4c-0.1-0.3,0-0.5,0.2-0.8c0.4-0.5,0.4-1,0-1.5c-0.1-0.1-0.2-0.2-0.3-0.3c0.4-0.5,0.4-1,0.1-1.5
			c-0.3-0.7-0.3-1.3-0.3-2c0-0.2-0.1-0.5-0.3-0.7c-0.6-0.6-0.5-1.1,0.2-1.6c0.1-0.1,0.3-0.4,0.2-0.4c-0.4-0.5-0.2-0.8,0.1-1.2
			c0.2-0.2,0.1-0.4-0.1-0.6c-0.4-0.4-0.8-0.8-1.1-1.2c-0.8-1-1.2-2,0-3.1c0.3-0.3,0.2-0.6,0.1-0.9c-0.3-0.8-0.5-1.5-0.8-2.3
			c-0.1-0.2-0.2-0.4-0.3-0.5c-0.7-0.5-0.8-1-0.5-1.8c0.2-0.4,0.2-0.9-0.2-1.2c-0.3-0.3-0.2-0.5-0.1-0.8c0.4-1,0.6-2.1,0.2-3.2
			c-0.2-0.4-0.2-0.9-0.2-1.4c0-0.3-0.1-0.5-0.4-0.6c-0.1-0.1-0.3-0.1-0.4-0.2c-0.4-0.2-0.4-0.5-0.2-0.8c0.2-0.4,0.6-0.5,1.1-0.4
			c-0.1-1.3-0.2-2.5-0.2-3.7c-0.4,0.1-0.6,0.2-1,0.3c0-0.2,0-0.4,0-0.6c0.1-0.9,0.1-1.8,0.2-2.7c0-0.6-0.2-0.9-0.8-1
			c-0.1,0-0.2,0-0.3,0c-0.2-0.9-0.1-1.3,0.6-1.9c0.7-0.6,0.6-1.1-0.3-1.4c0,0-0.1,0-0.1,0c-0.3-0.1-0.5-0.3-0.3-0.7
			c0-0.1,0-0.4-0.1-0.5c-0.4-0.4-0.5-0.6-0.3-1.1c0.1-0.3,0.2-0.5,0.4-0.7c0.2-0.4,0.2-0.7-0.1-1c-0.2-0.2-0.2-0.4-0.1-0.7
			c0.2-0.3,0.4-0.7,0.6-1c0.4-0.6,0.3-0.7-0.3-1.1c-0.5-0.3-0.5-0.4-0.2-0.9c0.2-0.3,0.3-0.6,0.4-0.9c0.1-0.2,0.1-0.4,0.2-0.5
			c0.5-0.4,0.7-0.9,0.6-1.5c0-0.1,0-0.2,0-0.4c0.1,0,0.2,0,0.2,0c0.9,0.2,1,0.1,1.5-0.7c0.1-0.1,0.2-0.3,0.3-0.4
			c0.1-0.3,0.3-0.3,0.6-0.2c0.4,0.2,0.7,0.1,1-0.2c0.1-0.2,0.3-0.3,0.5-0.5c0.6-0.5,1-1,0.8-1.9c-0.1-0.3,0.1-0.6,0.5-0.7
			c0.9-0.3,0.9-0.3,0.9-1.3c0-0.1,0-0.1,0-0.2c0.8-0.1,0.8-0.1,1.3-0.7c0.6-0.7,1.3-1.4,1.8-2.2c0.5-0.7,1.1-1.1,1.9-1.5
			c0.6-0.3,1.1-0.5,1.7-0.7c0.1,0,0.2-0.1,0.3-0.1c0.1-0.1,0.1-0.2,0.2-0.3c-0.1,0-0.2-0.1-0.3-0.1c-0.3,0.1-0.6,0.2-0.9,0.3
			c-0.3,0.1-0.5,0.2-0.8,0.2c0-0.3,0.1-0.5,0.1-0.7c-0.3,0-0.7,0-1.1,0c-0.1-0.6,0.8-0.7,0.8-1.5c-0.3,0.2-0.6,0.3-0.7,0.5
			c-1,1.1-2.3,1.7-3.8,1.6c-0.6,0-1,0.1-1.2,0.8c0,0.2-0.4,0.4-0.4,0.3c-0.5-0.2-0.8,0.1-1.2,0.3c-0.3,0.1-0.6,0.3-0.9,0.3
			c-0.7,0-1.3,0-2,0c-0.3,0.3-0.5,0.7-0.8,0.9c-0.9,0.5-1.8,1-2.7,1.5c-0.1,0.1-0.3,0-0.4-0.1c-0.3-0.2-0.6-0.4-1-0.7
			c-0.2,0.3-0.3,0.5-0.4,0.7c-0.4,0.5-0.8,1-1.3,1.3c-0.3,0.2-0.7,0.4-0.7,0.9c-1.2,0.2-1.2,0.2-1.2-0.5c-0.3,0-0.6,0-0.9,0
			c-0.6,0-1,0.2-1.2,0.8c-0.1,0.3-0.3,0.6-0.5,0.8c-0.4,0.5-1,0.5-1.5,0c-0.1-0.1-0.2-0.2-0.3-0.3c-0.7,0.4-1.4,0.8-2.2,1.2
			c-0.1-0.7-0.3-1.2-0.4-1.8c-0.1-0.6-0.1-1.1-0.1-1.8c-0.4,0.6-0.5,0.6-1.3,0.4c-0.1,0.3-0.1,0.6-0.2,0.9c-0.1,0.5-0.1,1-0.6,1.4
			c-1.1,0.9-1.4,2.9-0.7,4.1c0.5,0.8,0.3,1.6-0.3,2.3c-0.7,0.6-0.7,0.8-0.3,1.6c0.1,0.3,0.3,0.6,0.2,0.9c-0.2,1-0.5,2-0.8,3
			c0,0.1,0,0.1,0,0.2c0,0.8-0.1,1.6-0.1,2.3c0,0.5-0.2,0.6-0.7,0.6c-0.4,0-0.6-0.3-0.5-0.7c0.1-0.5,0.2-0.9,0.3-1.4
			c0.2-0.5,0.1-1-0.1-1.6c-0.2-0.4-0.2-0.8-0.3-1.3c0-0.9,0-1.7,0-2.6c0-0.1-0.2-0.2-0.3-0.4c-0.1,0.1-0.2,0.2-0.3,0.3
			c-0.1,0.1-0.2,0.3-0.3,0.4c-0.1,0-0.1,0-0.2-0.1c-0.1-0.9-0.3-1.8-0.4-2.6c-0.1-0.9-0.1-1.8-0.1-2.7c0-0.5-0.1-0.6-0.4-0.7
			c0,0.4,0,0.9,0,1.3c0,0.1-0.1,0.2-0.2,0.3c-0.1-0.1-0.2-0.2-0.2-0.3c0-0.1,0-0.2-0.1-0.3c-0.4-0.7-0.7-1.4-1.1-2.1
			c-0.1-0.3-0.3-0.6-0.5-0.9c-0.2,0.3-0.2,0.3,0.1,1.5c-0.8-0.1-1.5-0.2-2.3-0.3c-0.2,0-0.5-0.1-0.7-0.1c-0.5,0.1-0.9,0.1-1.4,0.2
			c-0.8,0.2-1.5,0-2-0.8c-0.2-0.3-0.5-0.3-0.8-0.2c-1.1,0.4-2.3,0.6-3.5,0.6c-0.3,0-0.5,0.1-0.8,0.3c-0.5,0.6-1.1,1-2,1
			c0-0.3,0.1-0.5,0.1-0.7c0-0.1-0.1-0.2-0.2-0.3c-0.1,0.1-0.2,0.1-0.2,0.2c-0.2,0.4-0.4,0.8-0.6,1.2c-0.2,0.3-0.4,0.7-0.5,1.1
			c-0.1,0.6-0.4,1.1-0.7,1.5c-0.4,0.5-0.7,1.1-0.8,1.8c-0.1,0.4-0.2,0.8-0.2,1.3c-0.2,0.9-0.4,1.8-0.9,2.6c-0.1,0.1-0.3,0.2-0.4,0.3
			c0-0.1-0.1-0.3-0.1-0.4c0.2-1.1,0.3-2.2,0.5-3.4c0-0.3,0-0.5,0-0.8c-0.2-0.7-0.4-1.4-0.2-2.3c0.7,0.2,1.1-0.1,1.4-0.7
			c0.1-0.1,0.2-0.2,0.3-0.3c0.2-0.2,0.3-0.4,0.5-0.7c-0.5,0-0.9,0-1.3,0c-1.4,0-1.7-0.2-1.8-1.5c0-0.4-0.1-0.8-0.6-0.9
			c0,0.4,0.1,0.8,0.1,1.1c0,0.2-0.2,0.4-0.4,0.4c-0.3,0.1-0.3-0.2-0.3-0.4c0-0.5,0-1,0-1.4c0-0.2-0.1-0.4-0.2-0.7
			c-0.1,0.7-0.2,1.3-0.4,1.9c-0.2,0.8-0.3,0.8-1.2,0.8c-0.2,0-0.5,0-0.7,0c-1.4-0.1-2.7-0.3-3.9-1c-0.3-0.1-0.4-0.3-0.4-0.6
			c0-0.4,0-0.8-0.1-1.2c0-0.5-0.1-0.9-0.2-1.4c-0.3,1.3-0.4,2.6-0.6,3.9c0,0.1-0.2,0.2-0.2,0.3c-0.1-0.1-0.2-0.1-0.2-0.2
			c-0.1-0.2-0.1-0.4-0.1-0.7c-0.6,1.1-1,2.2-2.6,2.3c0.2,0.1,0.3,0.3,0.4,0.3c0.4,0,0.5,0.3,0.6,0.6c0,0.1,0.1,0.3,0.2,0.4
			c0.9,1.5,1,3.1,0.6,4.8c-0.1,0.3-0.1,0.6,0,0.9c0.2,1,0.2,2-0.2,3c-0.1,0.2-0.1,0.4,0,0.6c0.2,0.7,0.4,1.3,0.2,2
			c-0.1,0.4-0.1,0.7,0.2,1.1c0.3,0.5,0.3,0.9,0,1.4c-0.2,0.4-0.5,0.8-0.6,1.3c-0.1,0.2,0,0.5,0.1,0.7c0,0.2,0.2,0.4,0.2,0.6
			c0,0.7,0,1.3,0.5,1.9c0.4,0.4,0.3,0.9,0.2,1.4c-0.1,0.3-0.2,0.6-0.4,0.9c0,0.1-0.1,0.3-0.1,0.4c-0.1,0.2-0.1,0.3-0.2,0.5
			c-0.1-0.2-0.2-0.3-0.2-0.5c0.1-0.9,0-1.8-0.3-2.6c0-0.1-0.2-0.2-0.3-0.3c-0.1,0.1-0.1,0.2-0.1,0.3c-0.1,0.7-0.1,1.4-0.2,2.1
			c0,0.2-0.2,0.4-0.4,0.5c-1,0.4-2,0.3-3,0c-0.1,0-0.3-0.2-0.3-0.3c-0.1-0.9-0.2-1.9-0.3-2.8c0-0.2,0.1-0.5,0.2-0.6
			c0.6-0.7,0.6-1.4,0.4-2.2c-0.1-0.3-0.1-0.6-0.1-0.8c-0.3-0.8,0.1-1.4,0.7-1.8c0.2-0.2,0.3-0.4,0.2-0.6c-0.2-0.6-0.4-1.3-0.6-1.9
			c-0.1-0.4-0.1-0.7,0.1-1c0.4-0.5,0.3-1.1-0.2-1.5c-0.1-0.1-0.3-0.3-0.4-0.3c0.4-1.2,0.7-2.3,1.1-3.4c0.1-0.4,0.1-0.8-0.2-1.1
			c-0.6-0.6-0.7-1.3-0.5-2.1c0-0.1,0-0.2,0-0.4c0-0.4,0.1-0.6,0.5-0.6c0.4-0.1,0.6-0.3,0.5-0.7c-0.4,0.1-0.7,0.1-1.1,0.2
			c0-0.3,0-0.5,0-0.8c0-0.2-0.1-0.4-0.2-0.5c-0.1-0.1-0.4,0-0.5,0.1c-0.2,0.1-0.3,0.1-0.6,0.3c0-0.3,0-0.5,0-0.7
			c0-0.6,0-1.3-0.1-1.9c0-0.2-0.2-0.5-0.3-0.7c-0.1,0-0.1,0-0.2,0c-0.2,1-0.5,2-0.7,3c-1.1-0.1-2.1-0.2-3.1,0.3
			c-0.4-0.7-0.7-1.3-1.1-2c-0.5,0.3-0.9,0.5-1.3,0.8c-0.5,0.3-1,0.5-1.6,0.5c-0.2,0-0.4-0.1-0.4-0.3c0-0.3,0-0.6,0-0.8
			c-0.1-0.4-0.3-0.6-0.6-0.5c0,0.8-0.1,1.5-0.1,2.2c0,0.5-0.3,0.8-0.7,0.9c-0.3,0.1-0.6,0.1-0.8,0.2c-0.4,0-0.7,0.2-0.7,0.7
			c0.3,0,0.6-0.1,0.9-0.1c0.6,0,0.7,0.1,0.7,0.7c0,0.2-0.1,0.5,0,0.6c0.4,0.4,0.2,0.8,0,1.2c-0.3,0.6-0.4,1.3-0.1,2
			c0.1,0.3,0.2,0.6,0.2,0.9c0.2,1,0.3,2.1,0,3.1c-0.4,1.4-0.5,2.8,0.3,4.1c0.1,0.2,0.1,0.4,0.2,0.6c0.2,1.4,0.1,2.7-0.3,4
			c-0.1,0.5-0.1,0.9,0.2,1.3c0.1,0.2,0.3,0.5,0.3,0.8c0.1,0.8,0.1,1.5,0.2,2.3c0,0.4-0.1,0.7-0.5,0.7c-0.4,0.1-0.5-0.2-0.7-0.5
			c-0.2-0.3-0.4-0.5-0.5-0.8c-0.1-0.1-0.2-0.3-0.2-0.4c0-0.3,0-0.6,0-0.8c0-0.2-0.1-0.4-0.2-0.6c0,0-0.1,0-0.1,0c0,0.2,0,0.3,0,0.5
			c0,0.6,0,1.2-0.1,1.8c0,0.2-0.2,0.5-0.4,0.5c-0.4,0.1-0.8,0.2-1.2,0.3c-0.2,0-0.4-0.1-0.5-0.2c-0.7-0.6-0.9-1.6-0.6-2.4
			c0.2-0.4,0.1-0.7-0.2-1c-0.1-0.2-0.3-0.4-0.3-0.6c0.1-0.6,0.2-1.2,0.4-1.7c0.3-0.7,0.1-1.2-0.4-1.7c-0.2-0.2-0.5-0.5-0.6-0.8
			c-0.5-1.3-0.4-2.6,0.4-3.7c0.3-0.5,0.4-0.9,0.3-1.4c-0.2-0.7-0.1-0.7,0.5-1.1c0.1-0.1,0.3-0.3,0.3-0.4c-0.1-1.3,0.1-2.7,0.4-4
			c0-0.2,0-0.3-0.1-0.5c-0.2-0.8-0.5-1.5-0.7-2.3c-0.1-0.9-0.1-1.9-0.2-2.9c-0.8,0.1-0.6,1.2-1.4,1.3c-0.2-1.4-0.4-2.7-0.6-4.1
			c-0.1-0.4,0-0.5-0.3-0.5c-0.1,0.9-0.3,1.7-0.3,2.6c0,0.4,0,0.8,0,1.2c0.1,0.6-0.1,1-0.8,0.8c-0.5-0.1-1-0.4-1.5-0.7
			c-0.4-0.2-0.7-0.4-1.2-0.3c-0.3,0.1-0.7,0.2-0.9,0.1c-0.7-0.3-1.4-0.4-2.1-0.1c0,0,0,0-0.1-0.1c0.3-0.9-0.3-1.6-0.3-2.5
			c-0.5,0.1-0.7,0.2-0.7,0.7c0,0.4,0,0.8-0.1,1.2c-0.1,0.8-0.5,1.4-1.3,1.7c-0.3,0.1-0.5,0.2-0.7,0.4c-0.4,0.4-0.9,0.3-1.4,0.2
			c0.1-0.4,0.2-0.7,0.2-1.1c-0.2,0-0.3,0-0.5,0c-0.5,0-1,0-1.3-0.7c-0.1-0.3-0.3-0.3-0.5,0c-0.1,0.1-0.3,0.3-0.4,0.5
			c-0.6-0.7-0.6-1.8-1.6-2.3c0.1,0.7,0.1,1.4,0.2,2c-0.2,0-0.3,0.1-0.4,0.1c-0.5,0.3-0.9,0.2-1.3-0.2C92.3,63,92,62.9,91.8,63
			c-0.3,0.1-0.6,0.2-0.9,0.4c-0.4,0.2-0.8,0.3-1.2,0.2c-0.8-0.3-1.5-0.7-2.3-1.1c-0.4-0.2-0.6-0.2-1-0.1c-0.2,0.1-0.5,0.2-0.9,0.3
			c0.2-1.1,0.3-2.2,0.4-3.2c-0.6,0.3-0.8,0.9-1,1.4c-0.2,0.9-0.3,1-1.3,0.8c-0.4-0.1-0.7,0.1-0.7,0.4c0,0.2,0.3,0.3,0.4,0.5
			c0.1,0.2,0.2,0.4,0.3,0.6c-0.2,0.1-0.4,0.3-0.6,0.3c-0.7-0.2-1.3,0-1.6,0.6c-0.1-0.1-0.3-0.3-0.4-0.3c-0.7-0.1-1.2-0.4-1.4-1.2
			c0-0.1-0.3-0.1-0.5-0.2c0,0.1-0.1,0.3-0.1,0.4c0.1,0.5-0.2,0.7-0.6,0.9c-0.7,0.2-1.3,0.1-1.9-0.3c-0.5-0.4-0.7-0.3-1,0.1
			c-0.1,0.1-0.2,0.2-0.3,0.2c-1.4-0.2-2.8-0.4-4.1-0.6c-0.2,0-0.4,0-0.5,0.1c-0.9,0.4-1.7,0.5-2.6-0.1C68,63,67.7,63,67.5,63.1
			c-0.2,0-0.4,0.2-0.6,0.2c-0.6,0.2-0.8,0.2-1.1-0.3c-0.2-0.3-0.5-0.4-0.8-0.4c-0.2,0-0.4,0-0.6,0c-1,0-1.1-0.1-1-1c0,0,0-0.1,0-0.1
			c0-0.4-0.2-0.5-0.6-0.5c0,0.4,0,0.8,0,1.2c0,0.7-0.6,1.3-1.3,1.3c-0.1,0-0.2,0.1-0.3,0.2c0.1,0.1,0.2,0.1,0.3,0.2
			c0.3,0.1,0.4,0.2,0.2,0.5c-0.2,0.2-0.5,0.3-0.7,0.3c-0.2,0-0.5-0.3-0.5-0.5c-0.2-0.6-0.2-1.3-0.3-1.9c0-0.3,0-0.5-0.5-0.4
			c0,0.3,0.1,0.6,0.1,1c0,0.4,0,0.8-0.4,1.1c-0.4,0.3-0.8,0.1-1.2-0.2c-0.3-0.2-0.6-0.4-0.8-0.4c-0.7,0.1-1.5,0.3-2.2,0.5
			c-0.2,0-0.5,0.1-0.7,0c-0.5-0.2-1-0.2-1.5,0c-0.2,0.1-0.3,0.1-0.5,0.2c-0.4,0.1-0.8,0-0.9-0.5c-0.1-0.4-0.2-0.7-0.2-1.1
			c-0.1,0-0.1,0-0.2,0c-0.8,0.3-1.7,0.4-2.4,1c-0.5,0.4-1,0.3-1.3-0.4c-0.1-0.3-0.2-0.6-0.2-0.8c-0.1-0.4-0.1-0.7-0.2-1.1
			c-0.5,0.5-0.5,1-0.4,1.5c0.1,0.3,0.1,0.6,0,0.9c-0.1,0.4-0.2,0.7-0.4,1c-0.1,0.1-0.3,0.2-0.5,0.3c-0.1-0.1-0.2-0.3-0.2-0.4
			c0-0.2,0-0.4,0-0.6c-0.3,0-0.6,0-0.8,0c-1,0-1.4-0.3-1.3-1.3c0.1-0.6-0.3-1-0.6-1.3c-0.2-0.2-0.4-0.2-0.4,0.1
			c-0.1,0.3-0.1,0.6-0.1,0.9c0,0.4,0,0.7,0,1.1c-0.4-0.2-0.8-0.3-1.1-0.4c-0.3-0.1-0.5-0.1-0.6,0.2c-0.1,0.3-0.4,0.4-0.7,0.4
			c-1.1,0.1-2.3,0.2-3.4,0.4c-0.6,0.1-0.8-0.1-0.8-0.7c0-0.3,0.1-0.5,0.2-0.8C35.9,61.5,36,60.7,36.1,60.1c0.1,0,0.4,0,0.4,0
			c0-0.2,0-0.4,0-0.7c0,0-0.1-0.1-0.2-0.1c-0.1,0-0.1,0.1-0.2,0.2C36.1,59.7,36.1,59.9,36.1,60.1z M79.4,75.9
			c-0.2,0.3-0.3,0.5-0.5,0.8C79.6,76.8,79.7,76.6,79.4,75.9z M11.5,131.7c0.1,0.2,0.2,0.4,0.2,0.5c0.1-0.2,0.2-0.3,0.2-0.5
			c0-0.1-0.1-0.2-0.2-0.3C11.7,131.5,11.6,131.6,11.5,131.7z"/>
		<path class="st0" d="M36.1,60c-0.1,0.7-0.2,1.4-0.3,2.1c0,0.3-0.1,0.5-0.2,0.8c0,0.6,0.2,0.8,0.8,0.7c1.1-0.1,2.3-0.3,3.4-0.4
			c0.3,0,0.6-0.1,0.7-0.4c0.1-0.3,0.4-0.3,0.6-0.2c0.3,0.1,0.7,0.2,1.1,0.4c0-0.4,0-0.8,0-1.1c0-0.3,0-0.6,0.1-0.9
			c0.1-0.2,0.3-0.3,0.4-0.1c0.3,0.4,0.7,0.7,0.6,1.3c-0.1,1,0.3,1.3,1.3,1.3c0.3,0,0.5,0,0.8,0c0,0.2,0,0.4,0,0.6
			c0,0.1,0.1,0.3,0.2,0.4c0.2-0.1,0.4-0.2,0.5-0.3c0.2-0.3,0.3-0.7,0.4-1c0.1-0.3,0.1-0.6,0-0.9c-0.1-0.5-0.1-1,0.4-1.5
			c0.1,0.4,0.2,0.8,0.2,1.1c0.1,0.3,0.1,0.6,0.2,0.8c0.2,0.6,0.7,0.8,1.3,0.4c0.7-0.6,1.6-0.7,2.4-1c0.1,0,0.1,0,0.2,0
			c0.1,0.4,0.1,0.8,0.2,1.1c0.1,0.5,0.5,0.6,0.9,0.5c0.2,0,0.4-0.1,0.5-0.2c0.5-0.2,1-0.2,1.5,0c0.2,0.1,0.5,0,0.7,0
			c0.7-0.1,1.5-0.4,2.2-0.5c0.3,0,0.6,0.2,0.8,0.4c0.4,0.2,0.7,0.4,1.2,0.2c0.4-0.3,0.4-0.7,0.4-1.1c0-0.3,0-0.6-0.1-1
			c0.4-0.1,0.5,0.2,0.5,0.4c0.1,0.6,0.1,1.3,0.3,1.9c0.1,0.2,0.3,0.5,0.5,0.5c0.2,0,0.5-0.1,0.7-0.3c0.3-0.2,0.2-0.4-0.2-0.5
			c-0.1,0-0.2-0.1-0.3-0.2c0.1-0.1,0.2-0.2,0.3-0.2c0.7,0,1.3-0.6,1.3-1.3c0-0.4,0-0.8,0-1.2c0.4,0,0.6,0.1,0.6,0.5c0,0,0,0.1,0,0.1
			c-0.1,0.9,0.1,1.1,1,1c0.2,0,0.4,0,0.6,0c0.4,0,0.6,0.1,0.8,0.4c0.3,0.5,0.5,0.5,1.1,0.3c0.2-0.1,0.4-0.2,0.6-0.2
			c0.2,0,0.4,0,0.6,0.1c0.9,0.5,1.7,0.5,2.6,0.1c0.2-0.1,0.4-0.1,0.5-0.1c1.4,0.2,2.8,0.4,4.1,0.6c0.1,0,0.2-0.1,0.3-0.2
			c0.4-0.5,0.6-0.5,1-0.1c0.6,0.4,1.2,0.5,1.9,0.3c0.4-0.1,0.7-0.4,0.6-0.9c0-0.1,0.1-0.3,0.1-0.4c0.2,0.1,0.4,0.1,0.5,0.2
			c0.2,0.7,0.7,1,1.4,1.2c0.1,0,0.2,0.2,0.4,0.3c0.3-0.6,0.9-0.8,1.6-0.6c0.2,0,0.4-0.2,0.6-0.3c-0.1-0.2-0.2-0.4-0.3-0.6
			c-0.1-0.2-0.4-0.3-0.4-0.5c-0.1-0.3,0.3-0.5,0.7-0.4c0.9,0.2,1,0.1,1.3-0.8c0.1-0.6,0.4-1.1,1-1.4c-0.1,1-0.3,2.1-0.4,3.2
			c0.3-0.1,0.6-0.2,0.9-0.3c0.4-0.2,0.6-0.1,1,0.1c0.7,0.4,1.5,0.7,2.3,1.1c0.4,0.2,0.8,0.1,1.2-0.2c0.3-0.1,0.6-0.3,0.9-0.4
			c0.2,0,0.5,0,0.6,0.1c0.4,0.4,0.8,0.5,1.3,0.2c0.1-0.1,0.3-0.1,0.4-0.1c-0.1-0.6-0.1-1.3-0.2-2c1,0.5,1,1.6,1.6,2.3
			c0.2-0.2,0.3-0.3,0.4-0.5c0.2-0.2,0.4-0.2,0.5,0c0.2,0.6,0.7,0.6,1.3,0.7c0.1,0,0.3,0,0.5,0c-0.1,0.4-0.2,0.7-0.2,1.1
			c0.5,0.1,1,0.2,1.4-0.2c0.2-0.2,0.5-0.3,0.7-0.4c0.8-0.3,1.2-0.9,1.3-1.7c0-0.4,0.1-0.8,0.1-1.2c0-0.5,0.2-0.7,0.7-0.7
			c0.1,0.8,0.6,1.6,0.3,2.5c0,0,0.1,0.1,0.1,0.1c0.7-0.2,1.4-0.2,2.1,0.1c0.2,0.1,0.6,0,0.9-0.1c0.4-0.1,0.8,0,1.2,0.3
			c0.5,0.3,1,0.6,1.5,0.7c0.6,0.1,0.8-0.2,0.8-0.8c-0.1-0.4-0.1-0.8,0-1.2c0.1-0.9,0.2-1.7,0.3-2.6c0.3,0,0.2,0,0.3,0.5
			c0.2,1.3,0.4,2.7,0.6,4.1c0.8-0.1,0.6-1.2,1.4-1.3c0.1,1,0,1.9,0.2,2.9c0.1,0.8,0.4,1.6,0.7,2.3c0,0.2,0.1,0.4,0.1,0.5
			c-0.3,1.3-0.5,2.6-0.4,4c0,0.1-0.1,0.4-0.3,0.4c-0.6,0.4-0.7,0.4-0.5,1.1c0.1,0.5,0,0.9-0.3,1.4c-0.8,1.1-0.9,2.4-0.4,3.7
			c0.1,0.3,0.4,0.6,0.6,0.8c0.5,0.5,0.7,1,0.4,1.7c-0.2,0.5-0.3,1.1-0.4,1.7c0,0.2,0.1,0.4,0.3,0.6c0.3,0.3,0.3,0.6,0.2,1
			c-0.4,0.8-0.1,1.8,0.6,2.4c0.1,0.1,0.4,0.2,0.5,0.2c0.4,0,0.8-0.1,1.2-0.3c0.2-0.1,0.4-0.3,0.4-0.5c0.1-0.6,0.1-1.2,0.1-1.8
			c0-0.2,0-0.3,0-0.5c0,0,0.1,0,0.1,0c0.1,0.2,0.2,0.4,0.2,0.6c0,0.3,0,0.6,0,0.8c0,0.1,0.1,0.3,0.2,0.4c0.2,0.3,0.4,0.5,0.5,0.8
			c0.1,0.3,0.3,0.6,0.7,0.5c0.4-0.1,0.6-0.3,0.5-0.7c-0.1-0.8-0.1-1.5-0.2-2.3c0-0.3-0.2-0.5-0.3-0.8c-0.2-0.4-0.3-0.8-0.2-1.3
			c0.3-1.3,0.4-2.7,0.3-4c0-0.2-0.1-0.4-0.2-0.6c-0.8-1.3-0.7-2.8-0.3-4.1c0.3-1.1,0.3-2.1,0-3.1c-0.1-0.3-0.1-0.6-0.2-0.9
			c-0.3-0.7-0.2-1.3,0.1-2c0.2-0.4,0.4-0.8,0-1.2c-0.1-0.1,0-0.4,0-0.6c0-0.6-0.1-0.7-0.7-0.7c-0.3,0-0.6,0.1-0.9,0.1
			c0-0.5,0.3-0.6,0.7-0.7c0.3,0,0.6-0.1,0.8-0.2c0.4-0.2,0.7-0.5,0.7-0.9c0-0.7,0.1-1.4,0.1-2.2c0.3-0.1,0.5,0.1,0.6,0.5
			c0,0.3,0,0.6,0,0.8c0,0.3,0.1,0.3,0.4,0.3c0.6,0,1.1-0.2,1.6-0.5c0.4-0.2,0.8-0.5,1.3-0.8c0.4,0.7,0.8,1.3,1.1,2
			c0.9-0.6,2-0.5,3.1-0.3c0.2-1,0.5-2,0.7-3c0.1,0,0.1,0,0.2,0c0.1,0.2,0.3,0.5,0.3,0.7c0,0.6,0,1.3,0.1,1.9c0,0.2,0,0.4,0,0.7
			c0.3-0.1,0.4-0.2,0.6-0.3c0.2-0.1,0.4-0.2,0.5-0.1c0.1,0.1,0.2,0.3,0.2,0.5c0,0.2,0,0.5,0,0.8c0.4-0.1,0.7-0.1,1.1-0.2
			c0.1,0.4,0,0.7-0.5,0.7c-0.4,0.1-0.5,0.2-0.5,0.6c0,0.1,0,0.3,0,0.4c-0.2,0.8-0.2,1.5,0.5,2.1c0.3,0.3,0.3,0.7,0.2,1.1
			c-0.4,1.1-0.7,2.2-1.1,3.4c0.1,0.1,0.3,0.2,0.4,0.3c0.5,0.5,0.5,1,0.2,1.5c-0.2,0.3-0.3,0.6-0.1,1c0.2,0.6,0.4,1.3,0.6,1.9
			c0.1,0.3,0.1,0.5-0.2,0.6c-0.6,0.5-1,1-0.7,1.8c0.1,0.3,0.1,0.5,0.1,0.8c0.2,0.8,0.2,1.5-0.4,2.2c-0.1,0.2-0.2,0.4-0.2,0.6
			c0.1,0.9,0.2,1.9,0.3,2.8c0,0.1,0.2,0.3,0.3,0.3c1,0.3,2,0.3,3,0c0.2-0.1,0.4-0.3,0.4-0.5c0.1-0.7,0.1-1.4,0.2-2.1
			c0-0.1,0.1-0.2,0.1-0.3c0.1,0.1,0.2,0.2,0.3,0.3c0.3,0.8,0.4,1.7,0.3,2.6c0,0.2,0.1,0.3,0.2,0.5c0.1-0.2,0.1-0.3,0.2-0.5
			c0-0.1,0-0.3,0.1-0.4c0.1-0.3,0.3-0.6,0.4-0.9c0.1-0.5,0.2-1-0.2-1.4c-0.6-0.5-0.6-1.2-0.5-1.9c0-0.2-0.1-0.4-0.2-0.6
			c0-0.2-0.1-0.5-0.1-0.7c0.2-0.4,0.4-0.9,0.6-1.3c0.3-0.5,0.4-0.9,0-1.4c-0.3-0.3-0.3-0.7-0.2-1.1c0.2-0.7,0-1.4-0.2-2
			c-0.1-0.2-0.1-0.4,0-0.6c0.3-1,0.3-2,0.2-3c-0.1-0.3,0-0.6,0-0.9c0.4-1.7,0.3-3.3-0.6-4.8c-0.1-0.1-0.1-0.3-0.2-0.4
			c-0.1-0.3-0.2-0.6-0.6-0.6c-0.1,0-0.2-0.1-0.4-0.3c1.5-0.1,1.9-1.3,2.6-2.3c0,0.3,0,0.5,0.1,0.7c0,0.1,0.1,0.2,0.2,0.2
			c0.1-0.1,0.2-0.2,0.2-0.3c0.2-1.3,0.3-2.6,0.6-3.9c0.1,0.5,0.2,0.9,0.2,1.4c0,0.4,0,0.8,0.1,1.2c0,0.3,0.1,0.5,0.4,0.6
			c1.2,0.7,2.6,0.9,3.9,1c0.2,0,0.5,0,0.7,0c0.9,0,0.9,0,1.2-0.8c0.2-0.6,0.2-1.2,0.4-1.9c0.1,0.2,0.2,0.4,0.2,0.7c0,0.5,0,1,0,1.4
			c0,0.2,0,0.5,0.3,0.4c0.2,0,0.4-0.3,0.4-0.4c0-0.4,0-0.7-0.1-1.1c0.5,0.2,0.6,0.6,0.6,0.9c0.1,1.2,0.4,1.5,1.8,1.5
			c0.4,0,0.8,0,1.3,0c-0.2,0.3-0.4,0.5-0.5,0.7c-0.1,0.1-0.2,0.2-0.3,0.3c-0.3,0.6-0.7,0.9-1.4,0.7c-0.2,0.8,0,1.5,0.2,2.3
			c0.1,0.2,0.1,0.5,0,0.8c-0.2,1.1-0.3,2.2-0.5,3.4c0,0.1,0.1,0.3,0.1,0.4c0.1-0.1,0.4-0.1,0.4-0.3c0.5-0.8,0.7-1.7,0.9-2.6
			c0.1-0.4,0.2-0.8,0.2-1.3c0.1-0.7,0.4-1.3,0.8-1.8c0.4-0.4,0.6-0.9,0.7-1.5c0.1-0.4,0.3-0.7,0.5-1.1c0.2-0.4,0.4-0.8,0.6-1.2
			c0-0.1,0.1-0.2,0.2-0.2c0.1,0.1,0.2,0.2,0.2,0.3c0,0.2,0,0.5-0.1,0.7c0.8-0.1,1.4-0.5,2-1c0.2-0.2,0.4-0.3,0.8-0.3
			c1.2,0,2.4-0.2,3.5-0.6c0.4-0.1,0.6-0.1,0.8,0.2c0.5,0.8,1.2,0.9,2,0.8c0.4-0.1,0.9-0.2,1.4-0.2c0.2,0,0.5,0,0.7,0.1
			c0.8,0.1,1.5,0.2,2.3,0.3c-0.3-1.2-0.3-1.2-0.1-1.5c0.2,0.3,0.4,0.6,0.5,0.9c0.4,0.7,0.7,1.4,1.1,2.1c0.1,0.1,0,0.2,0.1,0.3
			c0,0.1,0.1,0.2,0.2,0.3c0.1-0.1,0.2-0.2,0.2-0.3c0-0.4,0-0.9,0-1.3c0.4,0.2,0.4,0.3,0.4,0.7c0,0.9,0,1.8,0.1,2.7
			c0.1,0.9,0.2,1.8,0.4,2.6c0.1,0,0.1,0,0.2,0.1c0.1-0.1,0.2-0.3,0.3-0.4c0.1-0.1,0.2-0.2,0.3-0.3c0.1,0.1,0.3,0.2,0.3,0.4
			c0,0.9,0,1.7,0,2.6c0,0.4,0.1,0.9,0.3,1.3c0.3,0.5,0.3,1,0.1,1.6c-0.1,0.5-0.2,0.9-0.3,1.4c-0.1,0.4,0.1,0.6,0.5,0.7
			c0.5,0,0.6-0.1,0.7-0.6c0-0.8,0.1-1.6,0.1-2.3c0-0.1,0-0.1,0-0.2c0.3-1,0.6-2,0.8-3c0.1-0.3-0.1-0.6-0.2-0.9
			c-0.4-0.9-0.4-1,0.3-1.6c0.7-0.6,0.8-1.5,0.3-2.3c-0.7-1.2-0.4-3.2,0.7-4.1c0.4-0.4,0.5-0.9,0.6-1.4c0-0.3,0.1-0.6,0.2-0.9
			c0.8,0.2,0.8,0.2,1.3-0.4c0,0.6,0.1,1.2,0.1,1.8c0.1,0.6,0.2,1.1,0.4,1.8c0.8-0.4,1.5-0.8,2.2-1.2c0.1,0.1,0.2,0.2,0.3,0.3
			c0.5,0.5,1.1,0.5,1.5,0c0.2-0.2,0.4-0.5,0.5-0.8c0.3-0.5,0.7-0.8,1.2-0.8c0.3,0,0.6,0,0.9,0c0,0.7,0,0.7,1.2,0.5
			c0-0.4,0.4-0.6,0.7-0.9c0.5-0.4,0.9-0.9,1.3-1.3c0.2-0.2,0.3-0.4,0.4-0.7c0.3,0.2,0.6,0.5,1,0.7c0.1,0.1,0.3,0.2,0.4,0.1
			c0.9-0.5,1.9-0.9,2.7-1.5c0.3-0.2,0.6-0.6,0.8-0.9c0.6,0,1.3,0,2,0c0.3,0,0.6-0.2,0.9-0.3c0.4-0.2,0.7-0.5,1.2-0.3
			c0.1,0,0.4-0.2,0.4-0.3c0.2-0.6,0.6-0.8,1.2-0.8c1.5,0.1,2.8-0.5,3.8-1.6c0.2-0.2,0.5-0.3,0.7-0.5c0.1,0.7-0.8,0.9-0.8,1.5
			c0.4,0,0.7,0,1.1,0c0,0.2,0,0.4-0.1,0.7c0.3-0.1,0.5-0.1,0.8-0.2c0.3-0.1,0.6-0.2,0.9-0.3c0.1,0,0.2,0,0.3,0.1
			c-0.1,0.1-0.1,0.2-0.2,0.3c-0.1,0.1-0.2,0.1-0.3,0.1c-0.6,0.2-1.1,0.5-1.7,0.7c-0.7,0.3-1.4,0.8-1.9,1.5c-0.6,0.8-1.2,1.5-1.8,2.2
			c-0.5,0.6-0.5,0.6-1.3,0.7c0,0.1,0,0.1,0,0.2c0,1,0,1-0.9,1.3c-0.4,0.1-0.5,0.4-0.5,0.7c0.2,0.8-0.2,1.4-0.8,1.9
			c-0.2,0.1-0.3,0.3-0.5,0.5c-0.3,0.3-0.6,0.4-1,0.2c-0.2-0.1-0.4-0.1-0.6,0.2c-0.1,0.1-0.2,0.3-0.3,0.4c-0.5,0.8-0.6,0.8-1.5,0.7
			c-0.1,0-0.1,0-0.2,0c0,0.1,0,0.3,0,0.4c0.1,0.6-0.1,1.1-0.6,1.5c-0.1,0.1-0.1,0.3-0.2,0.5c-0.1,0.3-0.2,0.6-0.4,0.9
			c-0.3,0.5-0.3,0.6,0.2,0.9c0.6,0.4,0.6,0.5,0.3,1.1c-0.2,0.3-0.4,0.7-0.6,1c-0.1,0.2-0.1,0.4,0.1,0.7c0.3,0.3,0.3,0.7,0.1,1
			c-0.1,0.2-0.3,0.5-0.4,0.7c-0.2,0.5-0.1,0.8,0.3,1.1c0.1,0.1,0.2,0.3,0.1,0.5c-0.2,0.4,0,0.5,0.3,0.7c0,0,0.1,0,0.1,0
			c0.8,0.3,0.9,0.8,0.3,1.4c-0.6,0.6-0.8,1-0.6,1.9c0.1,0,0.2,0,0.3,0c0.6,0.1,0.9,0.4,0.8,1c-0.1,0.9-0.1,1.8-0.2,2.7
			c0,0.2,0,0.3,0,0.6c0.3-0.1,0.6-0.2,1-0.3c0.1,1.2,0.2,2.4,0.2,3.7c-0.5-0.1-0.8,0-1.1,0.4c-0.2,0.4-0.2,0.6,0.2,0.8
			c0.1,0.1,0.3,0.1,0.4,0.2c0.3,0.1,0.3,0.3,0.4,0.6c0,0.5,0,1,0.2,1.4c0.4,1.1,0.2,2.2-0.2,3.2c-0.1,0.3-0.2,0.5,0.1,0.8
			c0.3,0.3,0.3,0.7,0.2,1.2c-0.3,0.8-0.2,1.3,0.5,1.8c0.2,0.1,0.3,0.3,0.3,0.5c0.3,0.8,0.5,1.6,0.8,2.3c0.1,0.4,0.2,0.7-0.1,0.9
			c-1.1,1-0.7,2,0,3.1c0.3,0.4,0.7,0.8,1.1,1.2c0.2,0.2,0.3,0.4,0.1,0.6c-0.3,0.4-0.5,0.8-0.1,1.2c0,0.1-0.1,0.4-0.2,0.4
			c-0.7,0.4-0.8,0.9-0.2,1.6c0.2,0.2,0.3,0.5,0.3,0.7c0,0.7,0,1.4,0.3,2c0.2,0.5,0.2,1-0.1,1.5c0.1,0.1,0.2,0.2,0.3,0.3
			c0.4,0.5,0.4,1,0,1.5c-0.2,0.2-0.3,0.5-0.2,0.8c0.2,0.8,0.3,1.6,0.5,2.4c0.2,0.6,0.5,1.1,1,1.3c0,0.7,0.1,1.2,0.1,1.8
			c0,0.3,0,0.6-0.2,0.9c-0.3,0.6-0.4,1.1-0.1,1.8c0.4,0.8,0.5,1.7,0.7,2.6c0.3,1.3,0.9,2.3,2,3.1c0.1,0.1,0.2,0.2,0.4,0.3
			c-1.1-0.3-1.6-1.3-2.6-1.5c0.1,0.5,0.2,0.8,0.2,1.2c0,0.3,0,0.7-0.1,1c-0.1,0-0.1,0-0.2,0c-0.1-0.2-0.2-0.3-0.3-0.5
			c0-0.2,0-0.3,0-0.5c0-0.1-0.1-0.3-0.3-0.3c-0.1,0-0.2,0.1-0.3,0.2c-0.1,0.2-0.2,0.5-0.3,0.7c-0.1,0-0.1,0-0.2,0
			c0-0.2-0.1-0.5-0.1-0.7c-0.1-1.2-0.8-2-1.7-2.7c-0.1-0.1-0.3-0.1-0.5-0.1c-0.5,0-0.8-0.2-0.9-0.7c-0.1-0.5-0.3-0.7-0.8-0.9
			c-0.8-0.2-1.3-0.7-1.3-1.6c0-0.3-0.2-0.5-0.5-0.6c-0.9-0.2-1.7-0.4-2.6-0.6c-0.2-0.1-0.3-0.1-0.3-0.4c0-0.2,0-0.4-0.1-0.6
			c-0.1-0.2-0.3-0.4-0.5-0.5c-0.7-0.3-1.3-0.6-1.3-1.5c0-0.1-0.1-0.2-0.2-0.2c-1.2-0.6-2-1.5-2.6-2.7c-0.4-0.7-0.9-1-1.7-0.9
			c-0.6,0.1-1-0.1-1.3-0.7c-0.4-0.8-0.8-1.6-1.3-2.5c-0.1-0.1-0.2-0.2-0.3-0.3c-1-0.6-2-1.3-3-1.9c-0.2-0.1-0.3-0.5-0.3-0.7
			c-0.2-0.6-0.3-0.7-1-0.7c-0.2,0-0.5-0.1-0.7-0.3c-0.3-0.2-0.5-0.4-0.9-0.3c-0.8,0.2-1.5,0.4-2.3,0.6c-0.1,0-0.2,0-0.3,0.1
			c0-0.1-0.1-0.3-0.1-0.4c-0.3-1.1-1.6-1.9-2.8-1.4c-0.6,0.2-1.2,0.3-1.9,0.4c-0.4-0.8-1-0.9-1.9-0.9c-0.8,0-1.6-0.3-2.3-0.5
			c-0.3-0.1-0.4-0.1-0.7,0.1c-0.4,0.4-1,0.3-1.3-0.1c-0.3-0.5-0.7-0.6-1.3-0.6c-1.8-0.1-3.6-0.4-5.2-1.4c-0.1-0.1-0.3-0.1-0.5-0.2
			c-0.1,0-0.2,0.1-0.2,0.2c0.1,0.1,0.2,0.1,0.2,0.2c0,0,0.1,0,0.1,0c0.1,0.1,0.2,0.2,0.3,0.3c-0.1,0-0.2,0.1-0.3,0.1
			c-0.8-0.3-1.5-0.5-2.3-0.9c-0.5-0.2-0.9-0.4-1.4-0.3c-0.6,0.1-1.1,0-1.5-0.5c-0.3-0.4-0.7-0.4-1.1-0.2c-0.2,0.1-0.4,0.2-0.6,0.3
			c-0.4,0.2-0.7,0.2-1.1,0c-0.2-0.1-0.5-0.2-0.7-0.2c-0.5,0-0.7-0.2-0.9-0.6c-0.1-0.5-0.4-0.7-0.9-0.7c-0.6,0-1.1-0.1-1.7-0.1
			c-0.5,0-0.9-0.1-1-0.6c-1.8,0.3-3.6-0.2-5.4-0.1c0-0.1,0-0.1,0-0.2c0.2-0.1,0.4-0.2,0.6-0.2c0.5-0.1,1-0.1,1.5-0.1
			c0.2,0,0.5-0.1,0.4-0.3c0-0.2-0.2-0.4-0.4-0.4c-0.2-0.1-0.5-0.1-0.9-0.2c0-0.2,0-0.4,0-0.6c0.8,0.2,1.5,0.3,2.2,0.4
			c0.4,0.1,0.8,0,1.2,0c0.7-0.1,1.4-0.4,2.2-0.1c0.3,0.1,0.8-0.2,1.2-0.3c0.1,0,0.1-0.1,0.2-0.1c0.4-0.2,0.9-0.3,1.3-0.5
			c0.4-0.2,0.7-0.2,1,0c0.6,0.5,1.3,0.5,2,0.3c0.6-0.2,1-0.1,1.6,0.1c0.6,0.2,0.7,0.1,0.8-0.5c0.1-0.7-0.1-1.1-0.6-1.5
			c-0.1-0.1-0.2-0.3-0.2-0.4c0-0.2,0.1-0.4,0.1-0.7c-0.3,0-0.5,0.1-0.7,0.1c-0.7,0.1-1.3,0.1-2-0.1c-0.5-0.2-1.1-0.1-1.7,0
			c-0.3,0-0.5,0.1-0.7-0.2c-0.1-0.1-0.4-0.1-0.5-0.2c0,0.2-0.1,0.3-0.1,0.5c0,0.8,0,1.6-0.1,2.5c-0.5-0.4-0.2-0.9-0.3-1.4
			c0,0-0.1,0-0.1,0c-1.1,0-1.2,0-0.9-1.1c0-0.1,0.1-0.3,0-0.5c-0.2-0.3-0.4-0.5-0.6-0.7c-0.2,0.2-0.4,0.4-0.5,0.6
			c-0.2,0.4-0.3,0.9-0.4,1.3c-0.1,0.2-0.1,0.4-0.4,0.3c-0.1,0-0.2,0.3-0.4,0.6c-0.3-0.1-0.4-0.4-0.4-0.7c-0.1-0.3-0.1-0.7-0.3-1
			c-0.1-0.1-0.4-0.2-0.6-0.3c0,0.2,0,0.4,0,0.7c-0.2,0.2-0.6,0.5-0.9,0.7c-0.7,0.4-1.3,0.6-2.1,0.3c-1.1-0.4-2.3-0.3-3.5-0.3
			c-0.2,0-0.3,0-0.5,0c0,0-0.1,0-0.1-0.1c0.4-0.9,1.1-0.4,1.8-0.5c-0.2-0.1-0.3-0.3-0.4-0.3c-0.8-0.5-1.7-0.5-2.5,0
			c-0.3,0.2-0.5,0.2-0.8,0c-0.2-0.1-0.5-0.3-0.7-0.4c-0.5-0.2-0.8-0.2-1.1,0.3c-0.2,0.3-0.3,0.7-0.3,1.1c0,0.3,0,0.6,0,0.8
			c0,0.1-0.1,0.2-0.2,0.2c-0.1-0.1-0.2-0.2-0.2-0.2c0.1-0.6-0.2-0.9-0.6-1.2c-0.1-0.1-0.2-0.4-0.2-0.6c0-0.4,0-0.8,0-1.2
			c-0.9,0-1.7,0.8-1.8,1.8c0,0.5-0.1,0.9-0.7,1.2c-0.1-0.4-0.2-0.7-0.2-1c0-0.9-0.1-0.9-0.9-1c-0.9-0.1-1.9-0.2-2.9-0.3
			c0.1,0.5,0.4,0.4,0.7,0.5c0.7,0.1,1.5,0.2,2.2,0.3c0,0.1,0,0.1,0,0.2c-0.2,0.1-0.4,0.2-0.6,0.2c-2.3-0.1-4.5,0.3-6.8,0.5
			c-0.3,0-0.8-0.2-1.1-0.4c-0.3-0.2-0.5-0.6-0.7-0.8c-0.2,0.1-0.4,0.2-0.6,0.2c-0.7,0.1-1,0.5-1,1.2c0,0.8-0.1,1.7-0.2,2.6
			c-0.1-0.3-0.3-0.5-0.3-0.8c-0.1-0.4-0.1-0.8-0.1-1.2c0-0.7-0.4-1.4-0.9-1.9c-0.1-0.1-0.4-0.1-0.6-0.2c0,0.2-0.1,0.4,0,0.6
			c0.1,0.3,0.3,0.6,0.4,1c0.1,0.2,0,0.4,0,0.8c-0.4-0.4-0.8-0.6-1.2-1c0,0.6-0.1,1.2-0.1,1.8c-0.2-0.2-0.3-0.3-0.3-0.4
			c0-0.1,0-0.2,0-0.4c0-1.1-0.3-1.5-1.3-1.6c-0.9-0.1-1.7,0-2.6,0c-0.3,0-0.5,0-0.9,0c0.1-0.4,0.1-0.8,0.2-1.1c0,0-0.1-0.1-0.1-0.1
			c-0.4,0.2-0.9,0.3-1.1,0.6c-0.2,0.3-0.1,0.8-0.2,1.2c-0.1-0.3-0.2-0.5-0.3-0.8c-0.1-0.3-0.2-0.7-0.3-1c-0.1-0.3-0.3-0.4-0.6-0.2
			c-0.3,0.1-0.5,0.2-0.7,0.3c-0.2-0.8-0.4-1.4-0.7-2.2c-0.3,0.2-0.4,0.4-0.6,0.5c-0.2,0.2-0.4,0.5-0.6,0.6c-0.3,0.2-0.5,0.3-0.5,0.8
			c0,0.1-0.3,0.3-0.5,0.4c-0.2,0.1-0.5,0-0.8,0c-0.2,0.7,0.1,1.6-0.6,2.2c-0.1-0.3-0.1-0.5-0.1-0.7c0-0.5-0.2-1.1-0.7-1.3
			c-0.6-0.2-1.1,0-1.5,0.5c-0.5,0.5-1.2,0.6-1.8,0.1c-0.7-0.5-0.9-0.5-1.3,0.2c-0.5,0.7-0.8,1.5-0.9,2.3c0,0.1-0.2,0.2-0.2,0.4
			c0-0.1-0.1-0.3-0.1-0.4c0-0.4,0.1-0.9,0.2-1.3c0.1-0.6,0-1.2-0.4-1.7c-0.2-0.3-0.5-0.7-1-0.4c-0.3,0.1-0.4-0.1-0.4-0.3
			c0-0.3,0.1-0.7,0.2-1c0.1-0.3,0.3-0.5,0.4-0.7c0.4-0.7,0.3-1.3-0.2-1.9c-0.5-0.6-0.5-0.6-0.1-1.3c0.2-0.4,0.4-0.8,0.6-1.2
			c0.2-0.5,0.1-0.9-0.3-1.3c-0.1-0.1-0.2-0.2-0.4-0.4c-0.2-0.2-0.3-0.4-0.1-0.7c0.4-0.5,0.7-1.1,1.2-1.7c-0.2-0.4-0.1-0.9,0.2-1.5
			c0.3-0.6,0.3-1.2-0.2-1.8c-0.3-0.3-0.3-0.7,0-1.1c0.8-1.3,1.1-2.7,0.7-4.3c0-0.1,0-0.3,0.1-0.4c1-1.1,1.1-2.5,0.8-3.8
			c-0.2-0.7-0.1-1.3,0.3-1.8c0.3-0.4,0.4-0.8,0.2-1.3c-0.1-0.3,0-0.6,0.1-0.8c0.2-0.7,0.5-1.4,0.4-2.2c0-0.2-0.1-0.4-0.2-0.6
			c-0.1,0-0.1,0-0.2,0c-0.1,0.3-0.3,0.5-0.3,0.8C82,66.8,82,67.3,82,67.8c0,0.4-0.2,0.7-0.5,1c-0.2,0.1-0.3,0.4-0.4,0.7
			C81,69.7,81,70,81,70.2c0,0.3,0,0.6,0.2,0.8c0.2,0.3,0.3,0.5,0,0.7c-0.7,0.8-0.9,1.7-0.7,2.7c0.1,0.4,0.1,0.9,0.1,1.4
			c-0.5-0.4-1-0.5-1.6-0.2c0-0.3,0-0.6,0-0.9c0-0.1,0-0.2,0-0.4c0-1.2-0.3-1.4-1.6-1.2c0.1,1,0.1,2,0.3,3c0,0.2,0.4,0.4,0.5,0.6
			c0.1,0.1,0.2,0.3,0.1,0.4c-0.2,0.7-0.1,1.3,0.1,2c0.3,1.1,0.2,2.1,0,3.1c-0.1,0.4-0.4,0.9-0.7,1.1c-1,0.8-1,2-0.1,2.8
			c-0.2,0.3-0.5,0.5-0.7,0.8c-0.4,0.5-0.4,0.7,0.1,1.1c0.4,0.4,0.4,0.7,0,1.2c-0.3,0.4-0.6,0.7-0.9,1.1c0.4,0.2,0.7,0.4,1,0.5
			c0.4,0.2,0.5,0.5,0.5,1c0,0.3,0,0.7,0.1,1c0.1,0.5,0.1,0.9,0.2,1.4c0.2,0.1,0.3,0.2,0.5,0.3c-0.2,0.2-0.3,0.5-0.5,0.6
			c-1.1,0.2-1.3,0.9-1.3,1.8c0,0.3-0.1,0.6-0.1,1c0,0.4-0.2,0.6-0.6,0.6c-0.4,0-0.7-0.3-0.7-0.7c0-0.3,0.1-0.5,0.1-0.8
			c0.1-0.7-0.1-1-0.7-1.2c-1-0.3-1.9-0.3-2.9-0.1c-0.4,0-0.6,0.3-0.6,0.7c-0.1,0.8-0.6,1.1-1.4,1.1c-0.4,0.1-0.8,0.1-1-0.4
			c-0.2-0.4-0.7-0.3-0.8,0.1c-0.1,0.4-0.1,0.8-0.1,1.1c0,0.3,0,0.5,0.1,0.8c-0.4-0.1-0.4-0.1-0.4-1.3c-0.3,0-0.5,0-0.8,0
			c-0.1,0.2-0.2,0.3-0.2,0.5c0,0-0.1,0-0.1,0c0-0.2-0.1-0.4-0.1-0.5c0-0.7-0.1-1.3-0.1-2c0-0.3-0.1-0.4-0.4-0.4
			c-0.3,0-0.6,0-0.8-0.1c-0.1,0-0.3-0.2-0.3-0.3c0-0.1,0.2-0.3,0.3-0.3c0.3,0,0.6,0,0.9,0c0.5,0,0.7-0.2,0.6-0.7
			c-0.1-0.9-0.2-1.7-0.3-2.6c0-0.2,0.1-0.3,0.1-0.5c0.1-0.4,0.4-0.7,0-1.1c-0.1-0.1,0.1-0.5,0.2-0.8c0.2-0.4,0.5-0.8,0.4-1.4
			c-0.3,0.1-0.5,0.1-0.7,0.2c-0.1-0.8-0.1-1.7-0.1-2.5c0-0.8-0.3-1.4-0.7-2.1c-0.2-0.3-0.2-0.6,0.1-0.9c0.4-0.5,0.6-1.1,0.6-1.7
			c0-0.6,0.1-1.1,0.1-1.7c0-0.7-0.2-1.3-0.2-1.9c0-0.6-0.1-1.3,0.1-1.9c0.1-0.6-0.3-0.9-0.8-0.8c-0.9,0.2-1.8,0.4-2.8,0.5
			c0,0-0.1,0-0.2,0c0-0.4,0.1-0.7,0.1-1c0-0.1,0.1-0.3,0-0.4c-0.1-0.2-0.3-0.4-0.5-0.3c-0.2,0-0.4,0.3-0.4,0.4
			c-0.1,0.3-0.1,0.6-0.2,1c-1.1-1.4-2.6-1.3-4.1-1.2c0.1,0.8,0.1,1.6,0.2,2.5c1.1,0.3,2.4,0.4,3.5-0.4c0.4,0.7,0.9,0.6,1.6,0.6
			c0.6,0,1.2,0,1.9,0c-0.2,0.3-0.3,0.5-0.4,0.8c0.5,0.1,0.9,0.1,1.3,0.2c0,0.5-0.3,0.6-0.6,0.6c-0.7,0-1.3,0-2,0c0,0.1,0,0.2,0,0.3
			c0.1,0.4,0.2,0.7,0.3,1.1c0.2,0.6,0.1,0.8-0.5,1c-0.6,0.2-0.6,0.2-0.3,0.8c0.1,0.1,0.1,0.3,0.2,0.4c0.3,0.7,0.3,1.1-0.3,1.6
			c-0.3,0.3-0.6,0.5-0.4,1c0.3,0.4,0.7,0.5,1.2,0.5c0.3,0,0.5-0.1,0.8-0.1c0.2,0,0.4,0.1,0.6,0.2c0,0.1,0,0.1,0,0.2
			c-0.1,0-0.3,0-0.4,0c-0.4,0-0.5,0.2-0.4,0.6c0.1,0.2,0.2,0.4,0.4,0.6c-0.2,0-0.3,0-0.5,0c-1.1-0.1-2.3,0.1-3.4,0.4
			c-0.1,0.1-0.4,0-0.5-0.1c-0.4-0.2-0.9-0.4-1.3-0.5c-0.8-0.1-1.4,0.5-1.4,1.3c0,0.2,0.1,0.5,0.2,0.5c0.5,0.3,1,0.4,1.6,0.1
			c0.6-0.3,1.2-0.3,1.9,0c0.3,0.2,0.6,0.1,0.9,0c0.5-0.2,0.6-0.1,0.6,0.4c0,0.7,0.1,0.8,0.8,0.8c0.6,0,1.1,0,1.7-0.1
			c0.1,0,0.2,0.1,0.3,0.2c-0.1,0.1-0.2,0.2-0.3,0.2c-0.2,0.1-0.4,0.1-0.5,0.1c-0.5,0.1-0.7,0.4-0.6,0.9c0.2,0.9-0.4,1.7-0.5,2.5
			c-0.1,0.3-0.2,0.7-0.2,1c0,0.2,0,0.4,0,0.5c0.1,0.1,0.4,0.1,0.6,0.1c0.2,0,0.3-0.1,0.6-0.2c0,0.2,0.1,0.4,0.1,0.5
			c-0.1,0.6-0.1,0.7,0.6,0.7c0,0.4-0.1,0.5-0.5,0.4c-0.6-0.1-1.2-0.1-1.7-0.2c-0.1,0.8-0.2,1.6-0.3,2.4c-0.1,0-0.1,0-0.2,0
			c-0.2-0.2-0.3-0.4-0.5-0.6c-0.5-0.6-0.7-0.6-1.4-0.3c-0.3,0.1-0.7,0.2-0.9,0.1c-1.4-0.7-2.8-0.5-4.2,0.1c-0.6,0.3-1.1,0.2-1.7,0
			c-0.6-0.3-1.2-0.5-1.8-0.2c-0.1,0-0.3,0-0.4-0.1c-0.9-0.6-1.9-0.5-2.9-0.2c0,0.6,0,1.2,0,1.8c-0.2-0.1-0.4-0.1-0.7-0.2
			c-0.2,0.4-0.2,0.9,0.1,1.2c0.1,0.1,0.4,0.2,0.6,0.2c0.4,0,0.7-0.1,1.1-0.1c0.6,0,0.7,0,0.8-0.5c0.1-0.3,0.4-0.4,0.6-0.1
			c0.2,0.2,0.3,0.4,0.5,0.6c0.2,0.2,0.4,0.4,0.6,0.7c0.8-0.6,1.7-0.2,2.5-0.1c0.1-0.1,0.1-0.2,0.1-0.3c0.3-0.7,0.3-0.6,1-0.5
			c0.3,0.1,0.6,0,0.9-0.1c0.3-0.1,0.6-0.3,1-0.5c0.1,0.2,0.2,0.3,0.3,0.5c0.5,0.7,0.7,0.8,1.4,0.3c0.4-0.3,0.7-0.3,1.2-0.2
			c0.9,0.2,1.8,0.4,2.6,0.6c0.1,0,0.3-0.1,0.4-0.1c0.5-0.3,1-0.7,1.5-1c0.1,0,0.2,0,0.3,0c0.7,0.3,1.5,0.6,2.2,1
			c0.5,0.2,0.7,0,1-0.3c0.2,0.5,0.6,0.5,1,0.5c1.7,0,3.3-0.2,4.8-0.9c0.2,0.3,0.2,0.5-0.2,0.6c-0.5,0.2-1,0.4-1.5,0.6
			c-0.1,0-0.2,0.1-0.3,0.2c0.1,0.1,0.2,0.1,0.3,0.2c0.3,0.1,0.6,0.1,0.9,0.2c0.8,0.4,1.7,0.6,2.6,0.1c0.1,0.5-0.2,0.6-0.6,0.7
			c-0.7,0-1.4,0.1-2.1,0.1c-0.7,0-1.3,0-2,0c-0.8,0-1.6,0.2-2.2,0.6c-0.3,0.2-0.5,0.2-0.8,0.1c-0.8-0.3-1-0.3-1.4,0.4
			c-0.1,0.2-0.3,0.3-0.6,0.3c-0.2,0-0.5,0.1-0.7,0.2c-0.3,0.2-0.7,0.3-1.1,0.2c-0.4-0.1-0.9-0.1-1.4-0.1c-0.6,0-1.2,0.2-1.6,0.8
			c-0.4,0.6-0.9,0.7-1.5,0.4c-0.1,0-0.2-0.1-0.3-0.1c-0.6-0.3-1.1-0.2-1.7,0.2c-0.6,0.5-1.3,0.8-2,1.1c-0.1,0.1-0.3,0-0.4,0
			c-1.1-0.1-2.2-0.3-3.3-0.3c-0.4,0-0.7,0.2-0.9,0.7c-0.1,0.4-0.5,0.5-0.9,0.5c-0.2,0-0.5,0-0.6,0.1c-0.5,0.3-1,0.4-1.6,0.1
			c-0.2-0.1-0.5-0.1-0.9-0.2c0,0.4,0,0.7-0.1,1.1c-0.6-0.1-1.1-0.2-1.6-0.2c-0.3,0-0.6,0-0.8,0.4c-0.5,0.7-1.3,0.8-1.9,0.2
			c-0.1-0.1-0.4-0.2-0.6-0.1c-0.2,0.1-0.3,0.3-0.3,0.5c0,0.3,0,0.6,0,1c-0.2-0.1-0.3-0.2-0.5-0.3c-0.5-0.1-1-0.3-1.5-0.4
			c-0.5,0-0.9,0.2-1.1,0.6c-0.2,0.5-0.5,0.5-0.9,0.5c-0.5-0.1-0.9-0.3-1.4-0.4c-0.3-0.1-0.5-0.2-0.8-0.2c0,0.4,0,0.7,0,1.1
			c-0.3,0-0.5,0-0.8,0c-0.7,0-1.2,0.5-1.2,1.2c0,0.5-0.6,1.6-1.2,1.7c-0.2,0.1-0.5-0.1-0.8-0.1c-0.3-0.1-0.7-0.2-1-0.2
			c-0.5,0-0.6,0.2-0.6,0.8c0.1,0.4,0,0.8-0.4,1c-0.5,0.3-0.8,0.6-0.6,1.4c-0.3-0.2-0.5-0.3-0.7-0.4c-0.5-0.3-0.8-0.2-1.1,0.3
			c-0.1,0.3-0.2,0.6-0.3,0.9c-0.1,0.7-0.5,1.1-1.1,1.3c-0.4,0.1-0.6,0.4-0.8,0.8c-0.4,0.8-1.1,1.1-1.9,1.2c-0.6,0.1-1,0.4-1.1,1.1
			c0,0,0,0,0,0c-0.1,0.2-0.2,0.5-0.3,0.7c-0.2-0.1-0.4-0.3-0.8-0.5c-0.4,0.2-0.9,0.4-1.3,0.7c-0.5,0.3-0.5,0.8-0.5,1.3
			c0,0.6,0,1.3-0.1,1.9c0,0-0.1,0-0.1,0.1c-0.2-0.1-0.4-0.3-0.6-0.4c-0.2-0.1-0.6-0.3-0.7-0.2c-0.2,0.2-0.4,0.5-0.5,0.8
			c-0.1,0.2,0,0.5,0,0.6c-0.5,0.2-1,0.4-1.5,0.7c-0.4,0.2-0.7,0.6-0.9,0.9c-0.2,0.3-0.4,0.6-0.8,0.5c-0.1,0-0.3,0.2-0.4,0.4
			c-0.2,0.6-0.4,1.3-0.6,1.9c-0.1,0.2-0.2,0.5-0.3,0.7c-0.1,0-0.1,0-0.2,0c0-0.4,0-0.8-0.1-1.4c-0.6,0.6-1.2,1.1-1.7,1.6
			c0.1-0.7,0.2-1.3,0.3-2c0.1-0.7,0.2-1.5-0.2-2.2c-0.1-0.1,0-0.4,0.1-0.6c0.4-0.6,0.5-1.3,0.4-2.1c-0.1-0.5-0.1-1-0.1-1.5
			c-0.1-0.3-0.1-0.7-0.3-1c-0.2-0.4-0.2-0.6,0-0.9c0.3-0.4,0.7-0.7,1.1-1.1c0.2-0.2,0.5-0.4,0.7-0.5c0-0.5-0.1-0.9-0.1-1.3
			c0-0.4,0-0.7-0.4-0.9c-0.2-0.2-0.2-0.3-0.1-0.5c0.8-1.4,0.8-2.7,0-4.1c0-0.1-0.1-0.1-0.1-0.1c0.3-0.3,0.7-0.5,1-0.8
			c0.4-0.4,0.5-1.1,0.1-1.6c-0.1-0.2-0.3-0.3-0.5-0.3c-0.5,0-0.5-0.3-0.5-0.7c0.1-0.4,0.3-0.8,0.3-1.2c0.1-0.4,0.1-0.9,0.1-1.3
			c0-0.2,0.1-0.5,0.2-0.7c0.1-0.2,0.3-0.4,0.5-0.6c0.3-0.4,0.4-0.7,0.4-1.2c-0.1-0.8-0.1-1.6,0.3-2.4c0-0.1,0.1-0.2,0.2-0.3
			c0.6-0.5,0.4-1.1,0.3-1.7c-0.1-0.6-0.3-0.8-1-0.8c-0.3,0-0.3-0.2-0.3-0.4c0.1-0.3,0.1-0.6,0.1-1c-0.1-0.7,0.1-1.2,0.5-1.7
			c0.5-0.6,1-1.3,1.4-2c0.1-0.1,0.1-0.4,0.1-0.6c-0.3-0.9-0.3-1.7-0.1-2.6c0.1-0.3,0-0.6-0.1-0.8c-0.1-0.4-0.1-0.7,0.2-1
			c0.1-0.1,0.2-0.2,0.3-0.3c0.2-0.2,0.5-0.4,0.3-0.8c-0.1-0.4-0.3-0.7-0.7-0.6c0-0.8,0-1.5,0-2.2c0-0.5,0.2-1,0.4-1.4
			c0.2-0.3,0.3-0.8,0.3-1.2c-0.1-1,0.1-1.9,0.8-2.6c0.2-0.2,0.2-0.5,0.1-0.7c0-0.1,0-0.2,0-0.3c0.7-1.1,0.4-2.2-0.2-3.3
			c-0.2-0.3-0.2-0.6,0-0.9c0.7-0.7,0.9-1.6,0.8-2.6c0-0.8,0-1.7,0-2.5c0-0.3-0.2-0.6-0.5-0.7c-1.1-0.5-1.9-1.3-1.9-2.6
			c-0.2,0.1-0.3,0.1-0.5,0.1c-0.4,0.1-0.8,0-1.1-0.3c-0.2-0.2-0.4-0.4-0.6-0.6c-0.5-0.3-0.8-0.7-0.9-1.3c0-0.2-0.1-0.5-0.1-0.7
			c-0.2-0.9-0.4-1.1-1.3-1.2c-0.3,0-0.4-0.2-0.5-0.5c-0.2-0.8-0.7-1.4-1.4-1.9c-1.1-0.7-1.9-1.8-2.7-2.9c-0.3-0.4-0.6-0.7-1-1
			c-0.6-0.4-1.2-0.7-1.8-1c-0.1-0.1-0.3-0.2-0.5-0.3c0.7-0.2,1.2,0,1.7,0.4c0.3,0.2,0.6,0.4,1,0.1c-0.1-0.2-0.3-0.4-0.4-0.7
			c0.5-0.1,0.9,0,1.4,0.2c1,0.6,2.1,1.2,3.1,1.8c0.3,0.2,0.6,0.2,0.9,0.1c0.3-0.2,0.6-0.1,0.8,0.1c0.3,0.3,0.7,0.7,1,1
			c0.2,0.1,0.4,0.2,0.6,0.3c0.3,0.1,0.7,0.1,1,0.3c0.4,0.2,0.8,0.3,1.3,0.1c0.2-0.1,0.3-0.1,0.5-0.1c0.5-0.1,0.7,0.1,1,0.5
			c0.3,0.5,0.6,1,1,1.4c0.5,0.5,1.1,0.8,1.9,0.8c0.6,0,1.3,0,1.9,0c0.3,0,0.4,0.1,0.4,0.3c0.1,0.3,0.1,0.6,0.2,0.9
			c0.1,0.4,0.3,0.6,0.7,0.5c0.9-0.1,1.9-0.2,2.9-0.3c0.1,0.6,0.2,1.1,0.9,1.4c-0.1-0.6-0.1-1.2-0.1-1.8c0,0,0.1,0,0.1,0
			c0.2,0.4,0.4,0.7,0.6,1.1c0.4,0.7,0.8,1.3,1.5,1.7c0.1,0.1,0.2,0.2,0.2,0.4c0,0.8,0.2,1.6,0.8,2.2c0.2,0.2,0.1,0.4-0.1,0.6
			c-0.4,0.6-0.4,0.7,0,1.2c0.1,0.1,0.2,0.3,0.3,0.4c0.3,0.4,0.2,0.8-0.1,1.2c-0.1,0.1-0.2,0.3-0.3,0.4c0.3,0.4,0.5,0.9,0.8,1.3
			c0.1,0.1,0.2,0.3,0.3,0.4c0.2,0.1,0.4,0.2,0.6,0.2c0.1,0,0.2-0.3,0.2-0.5c0-0.5,0-1-0.1-1.6c-0.1-0.7,0.1-1,0.8-0.9
			c0.5,0.1,0.6-0.2,0.7-0.6c0.1-0.6-0.1-1.2-0.4-1.7c-0.2-0.3-0.2-0.5,0.2-0.7c0.6-0.3,0.6-0.3,0.5-1c0-0.2,0-0.5-0.1-0.7
			c0.2,0,0.3,0,0.4,0c0.5,0,0.6-0.2,0.4-0.6c-0.1-0.3,0-0.4,0.3-0.5c0.3-0.1,0.6-0.2,0.7-0.4c0.5-0.7,1-1.4,1.5-2.1
			C35.5,61,35.8,60.5,36.1,60L36.1,60z M35.8,80.6c0.6,0.1,1.3,1.2,1.1,1.6c-0.2,0.3-0.2,0.7-0.2,1c0,0.7,0,1.5,0,2.2
			c0,2.3-0.2,4.6,0.2,6.9c0,0.1,0,0.2,0,0.4c-0.1,0.3-0.2,0.6-0.2,1c-0.1,0.8,0,0.9,0.8,0.8c1.5-0.2,3-0.2,4.5,0.1
			c0.7,0.1,0.8,0,0.8-0.7c-0.1-9.3-0.2-18.7-0.3-28c0-0.3-0.1-0.5-0.4-0.5c-2.3,0-4.6,0-6.9,0c-0.3,0-0.5,0.1-0.6,0.4
			c-1,2.3-1.7,4.7-2.3,7.1c-0.1,0.6-0.2,1.2-0.7,1.6c-0.1,0.1-0.1,0.3-0.2,0.4c-0.4,1-0.7,2.1-1.1,3.1c-0.1,0.2-0.2,0.4-0.3,0.6
			c-0.2-0.2-0.4-0.4-0.6-0.6c0-0.1-0.1-0.1-0.1-0.2c-1.4-4.1-2.9-8.2-4.3-12.3c-0.1-0.2-0.2-0.4-0.4-0.5c-3.7-1.8-7.4-3.6-11.1-5.5
			c-1.5-0.8-3.1-1.6-4.6-2.3c-0.1-0.1-0.3,0-0.5,0c0.1,0.2,0.1,0.3,0.2,0.5c0.4,0.4,0.9,0.8,1.3,1.3c1.6,1.7,3.2,3.4,4.9,5
			c0.5,0.5,0.9,1,1.2,1.7c0.1,0.3,0.3,0.5,0.5,0.7c0.3,0.4,0.8,0.8,1.1,1.2c0.4,0.6,0.6,1.2,0.9,1.8c0.1,0.2,0.2,0.5,0.2,0.7
			c-0.3,3-0.6,6-0.9,9c-0.3,3.3-0.7,6.5-1.1,9.8c-0.3,2.9-0.6,5.9-1,8.8c-0.4,3.3-0.7,6.5-1.1,9.8c-0.3,3-0.6,5.9-1,8.9
			c-0.3,2.9-0.6,5.9-1,8.8c0,0.2,0.1,0.4,0.1,0.6c0.2-0.1,0.4-0.1,0.5-0.2c3.3-2.9,6.6-5.8,9.9-8.7c1.7-1.5,3.3-2.9,5-4.3
			c1.6-1.3,3.4-2.5,5-3.8c0.7-0.6,1.5-1,2.3-1.2c0.4-0.1,0.7-0.2,1.1-0.3c2.3-0.6,4.7-1.1,7-1.7c1.4-0.4,2.8-1,4.3-1
			c1.4,0,2.7-0.2,3.9-1c0.1-0.1,0.2-0.1,0.3-0.1c2-0.3,4.1-0.6,6.1-1c1.7-0.3,3.4-0.7,5.1-1.1c0.1,0,0.2-0.1,0.2-0.2
			c-0.1-0.1-0.2-0.2-0.3-0.2c-0.1,0-0.2,0-0.2,0c-10.9,0.2-21.8,0.4-32.7,0.5c-0.3,0-0.7,0.1-0.9,0.3c-2.9,1.8-5.7,3.6-8.6,5.4
			c-0.1,0.1-0.3,0.2-0.6,0.3c0.1-1.1,0.1-2.1,0.2-3.1c0.1-1.5,0.3-2.9,0.5-4.4c0.2-2.4,0.4-4.9,0.7-7.3c0.4-3.5,0.8-7,1.2-10.5
			c0.1-0.6,0.2-1.3,0.3-1.9c0.1,0,0.2-0.1,0.3-0.1c0.1,0.1,0.2,0.3,0.2,0.4c0.3,0.5,0.7,1,1,1.6c0.2,0.3,0.2,0.7,0.3,1.1
			c0,0.1,0.1,0.3,0.2,0.4c0.6,0.6,0.9,1.4,0.8,2.3c0,0.3,0,0.6,0.1,0.8c0.7,2.1,1.4,4.1,2.1,6.2c0.2,0.5,0.2,1.1,0.5,1.3
			c0.4,0.2,1,0.1,1.5,0.2c0.4,0,0.6-0.1,0.7-0.5c1.2-3.2,2.4-6.5,3.6-9.7C34.9,83.2,35.3,81.9,35.8,80.6z M191.7,56.1
			c-0.3,0-0.4,0-0.6,0.1c-1.2,0.5-2.4,1-3.6,1.5c-0.3,0.1-0.5,0.2-0.8,0.3c-0.6,0.2-1.3,0.4-1.9,0.6c-1.9,0.7-3.9,1.3-5.5,2.7
			c-0.4,0.3-0.9,0.5-1.4,0.6c-0.5,0.1-0.9,0-1.2,0.5c0,0.1-0.2,0.1-0.3,0.1c-1.8,0-3.5,0.7-5.2,1.3c-1,0.4-1.4,1.1-1.4,2.1
			c-0.1,3.3-0.6,6.5-1.6,9.6c-0.1,0.2-0.1,0.5,0,0.7c0.3,1.5,0.2,3-0.5,4.4c-0.1,0.1-0.1,0.3-0.1,0.4c-0.2,1.9-0.4,3.8-0.6,5.6
			c-0.3,2.2-0.6,4.4-0.8,6.5c0,0.3,0,0.4,0.3,0.4c1.2,0,2.4,0,3.6,0.1c0.6,0,1.1,0,1.6,0c0.3-1.8,0.7-3.5,1-5.2c1.6,0,3,0,4.5,0
			c0.5,0,0.8,0.3,0.9,0.8c0.1,0.4,0.1,0.9,0.1,1.3c0.5,4.6,1,9.1,1.5,13.7c0.1,0.6,0.1,1.3,0.2,2.1c-0.4-0.2-0.8-0.2-1.1-0.4
			c-2.6-1.7-5.2-3.4-7.8-5c-0.2-0.1-0.4-0.2-0.7-0.2c-10.7,0-21.4,0-32.1,0.1c-0.3,0-0.7,0.1-1,0.1c0.1,0.1,0.2,0.2,0.3,0.2
			c1,0.2,2,0.4,3,0.6c2.5,0.5,5,1.1,7.6,1.6c1.2,0.3,2.5,0.4,3.8,0.7c3.3,0.9,6.6,1.6,10,1.7c0.2,0,0.4,0.1,0.5,0.1
			c1.6,0.5,3.1,1,4.7,1.4c0.5,0.1,0.9,0.3,1.2,0.6c6.7,6,13.3,12,20,18c0.1,0.1,0.2,0.2,0.3,0.3c0-0.1,0-0.1,0-0.1
			c-0.5-3.1-0.9-6.2-1.4-9.3c-0.2-1-0.5-1.9-0.5-2.8c0-3.2-0.4-6.3-1-9.4c-0.5-2.4-1-4.8-0.9-7.3c0-0.4-0.1-0.8-0.1-1.2
			c-0.6-4.4-1.2-8.8-1.8-13.2c-0.7-4.8-1.3-9.5-2-14.3c0-0.2,0-0.3,0.1-0.5c0.6-1.1,1.3-2.1,2.2-3c2.8-2.8,5.5-5.5,8.3-8.3
			C191.4,56.4,191.5,56.3,191.7,56.1z M162.7,76c0-0.1,0-0.1,0-0.2c-0.1-2.1-0.2-4.3-0.2-6.4c0-0.2-0.1-0.4-0.2-0.5
			c-0.6-1.1-1.2-2.1-1.9-3.2c-0.1-0.1-0.2-0.2-0.3-0.3c-3.1-1.5-6.3-1.8-9.7-1.1c-2.3,0.5-3.7,2-4.4,4.1c-0.6,1.9-0.8,3.9-0.8,5.9
			c0,2.7,0,5.4,0,8.2c0,1.3,0,2.6,0.1,3.8c0.2,2.1,0.8,4,2,5.7c0.5,0.6,1,1.1,1.8,1.4c2,0.7,4,1.2,6.1,1.1c3.3-0.2,5.7-1.6,7-4.6
			c0.8-1.9,0.5-3.8,0.5-5.8c-0.7,0-1.3,0-1.9,0c-1.6,0-3.1,0-4.7,0.1c-0.3,0-0.5,0.1-0.5,0.5c0,1.2-0.1,2.4-0.1,3.6
			c0,0.7-0.3,1.1-1,1.3c-1.1,0.4-2.2-0.5-2.2-1.8c0-5.6,0.1-11.1,0.1-16.7c0-0.4,0.1-0.9,0.5-1c0.6-0.1,1.2-0.1,1.8-0.1
			c0.1,0,0.2,0.2,0.2,0.3c0.2,0.6,0.5,1.2,0.5,1.8c0.1,1.2,0,2.3,0,3.5c0,0.5,0.2,0.8,0.7,0.8C158.4,76.1,160.6,76,162.7,76z
			 M99.1,94c0-0.1,0-0.2,0-0.3c-0.2-2.3-0.8-4.5-1.4-6.7c-0.1-0.5-0.3-1,0-1.5c0.1-0.2,0.1-0.5,0-0.7c-0.1-0.5-0.1-0.9-0.2-1.4
			c-0.5-3.5-1.1-7-1.7-10.5c-0.1-0.8-0.4-1.5-0.6-2.3c-0.2-0.8-0.2-1.7-0.3-2.6c-0.1-0.9-0.2-1.9-0.3-2.8c-0.9,0-1.8,0-2.7,0
			c-2,0-4,0.1-5.9,0.2c-0.3,0-0.4,0.1-0.5,0.4c-0.3,1.6-0.6,3.3-0.8,4.9c-0.2,1.8-0.1,3.6-0.7,5.3c-0.1,0.2-0.1,0.5-0.1,0.8
			c-0.2,1.6-0.1,3.2-0.6,4.7c-0.1,0.4-0.2,0.8-0.2,1.2c-0.1,2.9-0.6,5.6-1.2,8.4c-0.2,1-0.3,2.1-0.5,3.1c0.1,0.1,0.1,0.1,0.1,0.1
			c1.9-0.1,3.8-0.2,5.7-0.3c0.1,0,0.4-0.2,0.4-0.4c0.2-1.2,0.6-2.4,0.3-3.7c-0.1-0.4,0.4-1.1,0.7-1.1c1,0,2.1,0,3.1,0
			c0.7,0,0.9,0.3,1,1c0.1,1.3,0.3,2.7,0.4,4c0,0.2,0.2,0.4,0.4,0.3c0.8,0,1.5-0.1,2.3-0.1C97,94.1,98,94,99.1,94z M54.6,89.2
			c0-1.4,0-2.7,0-4c0-0.4,0.1-0.8,0.1-1.2c0-0.3,0.2-0.3,0.4-0.3c1.2,0.3,2.4,0.2,3.7,0c0.9-0.1,1-0.2,1-1.2c0-1.4-0.1-2.7-0.1-4.1
			c0-0.2-0.1-0.5-0.1-0.7c-0.1-0.3-0.2-0.5-0.6-0.5c-0.9,0-1.8,0-2.6,0c-0.6,0-1.3-0.2-1.9-0.2c0-1.8,0-3.4,0-5.1
			c0-0.4,0.1-0.5,0.5-0.5c1.1,0,2.2,0,3.4,0c0.3,0,0.7,0,1-0.1c0.1,0,0.3-0.3,0.3-0.4c-0.1-1.8-0.1-3.6-0.2-5.4
			c-0.1,0-0.2-0.1-0.3-0.1c-1,0-2-0.1-3-0.1c-2.7,0-5.5,0.1-8.2,0.1c-0.4,0-0.6,0.2-0.6,0.7c0,0.4,0.1,0.9,0.1,1.3
			c0.1,2.1,0.2,4.1,0.3,6.2c0,0.7,0.2,1.4,0.2,2.2c-0.1,2.7-0.3,5.3-0.3,8c0,3.3,0.2,6.6,0.3,9.9c0,0.1,0,0.2,0,0.3
			c0,0.5,0.2,0.6,0.7,0.6c0.4,0,0.7,0,1.1,0c2.4,0,4.9-0.1,7.3-0.1c0.8,0,1.6,0.1,2.3,0.2c0.7,0,0.7-0.1,0.7-0.7c0-1.3,0-2.6,0-4
			c0-0.2,0-0.4,0-0.6C58.2,89.3,56.4,89.2,54.6,89.2z M68,71.4c0,2,0,3.9,0,5.8c0.1,2,0.2,4,0.3,6c0,0.3,0,0.7-0.1,1
			c-0.3,1.3-0.3,2.6,0.1,3.8c0.1,0.2,0.1,0.4,0,0.7c-0.4,1.8-0.4,3.6-0.3,5.4c0,0.1,0.2,0.3,0.3,0.3c1.2,0.1,2.5,0.1,3.7-0.3
			c0.2-0.1,0.4,0,0.6,0.1c0.7,0.3,1.4,0.4,2.1,0.2c0.3-0.1,0.4-0.2,0.4-0.5c0-1,0.1-1.9,0-2.9c-0.1-5.7-0.2-11.5-0.3-17.2
			c0-0.6,0-1.2,0.1-1.8c0-0.4,0.2-0.6,0.6-0.6c1,0,2,0,3,0c0.6,0,0.7-0.1,0.7-0.8c0-1.3,0-2.6-0.1-3.8c0-0.5,0-0.9-0.1-1.4
			c-0.7,0-1.4,0.1-2,0.1c-3.1,0-6.3,0-9.4,0c-0.4,0-0.8,0.2-1.2,0.2c-0.2,0-0.5,0.1-0.7,0c-0.7-0.1-1.3-0.2-2-0.3
			c-0.3,0-0.5,0.1-0.5,0.5c0.1,1.6,0.2,3.3,0.2,4.9c0,0.5,0.2,0.7,0.7,0.7c0.7,0,1.4-0.1,2.1-0.1C66.8,71.4,67.3,71.4,68,71.4z
			 M118.4,65c0,0.1-0.1,0.1-0.1,0.1c0,0.7-0.1,1.4-0.1,2.1c-0.1,5-0.1,9.9,0.3,14.8c0.1,1,0.2,2,0.1,3.1c-0.1,0.7,0,1.4,0.2,2.1
			c0.1,0.4,0.2,0.7-0.1,1.1c-0.1,0.1-0.1,0.3-0.1,0.4c0,1.4,0,2.9,0,4.3c0,0.9,0.6,1.1,1.2,0.8c0.3-0.2,0.7-0.2,1.1-0.2
			c1.6,0.1,3.2,0.2,4.9,0.3c1.4,0,2.9,0,4.3,0c0.4,0,0.7-0.1,0.7-0.6c-0.1-1.3-0.2-2.5-0.3-3.8c-0.1-0.9-0.4-0.9-1.2-0.9
			c-0.7,0.1-1.5,0.1-2.2,0.1c-0.6,0-1.1-0.1-1.7-0.1c0-0.3,0-0.5,0-0.7c-0.1-3-0.1-6-0.2-8.9c0-1.3-0.5-2.7,0-4c0,0,0-0.1,0-0.1
			c-0.1-1.3-0.1-2.5-0.2-3.8c-0.1-1.2-0.2-2.4,0-3.7c0.1-0.6-0.1-1.3-0.1-1.9c0-0.4-0.3-0.5-0.7-0.5c-1.1,0-2.1,0-3.2-0.1
			C120.1,65,119.3,65,118.4,65z M109.6,88.8c0-2.1,0-4,0-5.9c0-1.4-0.2-2.8-0.5-4.2c-0.1-0.2-0.1-0.5,0-0.7c0.4-1.7,0.5-3.5,0.1-5.3
			c-0.1-0.3-0.1-0.7-0.1-1c0.4-1.6,0.3-3.2,0.3-4.8c0-0.5-0.1-0.9-0.1-1.4c0-0.3-0.1-0.4-0.4-0.4c-1.6,0-3.2,0-4.8,0
			c-0.5,0-1.1,0-1.6,0c0,0.2,0,0.2,0,0.3c0,1.8,0,3.7,0,5.5c0,0.5,0.2,0.9,0.2,1.4c0,0.3,0.1,0.5,0.1,0.8c0,1.2-0.1,2.5-0.1,3.7
			c0,5.7,0.1,11.3,0.2,17c0,0.1,0,0.1,0,0.2c1,0,2,0,3,0c2.8-0.1,5.5-0.2,8.3-0.3c0.3,0,0.4-0.1,0.4-0.5c-0.1-1.3-0.1-2.6-0.2-3.9
			c0-0.4-0.3-0.6-0.7-0.6C112.4,88.8,111,88.8,109.6,88.8z M140.7,93.7c-0.1-1.6-0.3-3.1-0.4-4.6c-0.1-0.6-0.1-1.1,0.2-1.7
			c0.1-0.2,0.1-0.4,0.1-0.6c0-2.2,0.1-4.5,0-6.7c0-1.9-0.1-3.8-0.2-5.8c0-0.6-0.1-1.2,0-1.7c0-0.6,0.2-1.3,0.2-1.9
			c0-0.7,0.1-1.4,0.1-2.1c0-1,0-1.9,0-2.9c0-0.8-0.3-1-1-1c-1.7,0-3.4,0-5.1,0c-0.6,0-0.7,0.1-0.7,0.7c0,1.4,0,2.8,0,4.2
			c0,0.5,0,0.9,0.3,1.4c0.1,0.2,0.1,0.5,0.1,0.7c-0.2,1-0.3,2-0.1,3.1c0.1,0.4,0.1,0.8,0.1,1.1c-0.3,2.4-0.3,4.7-0.2,7.1
			c0.1,3.1,0.1,6.3,0.2,9.4c0,0.3,0,0.6,0.1,0.9c0,0.1,0.3,0.3,0.4,0.3C136.6,93.9,138.6,93.9,140.7,93.7z M163.5,99.3
			c0.7-0.2,1.4-0.3,2-0.4c0.2,0,0.4,0,0.5,0.1c0.4,0.3,0.7,0.2,1,0c0.3-0.3,0.7-0.6,1-0.9c0.2-0.2,0.5-0.2,0.7,0
			c0.5,0.4,1.1,0.5,1.7,0.5c0.4,0,0.8,0.1,1.2,0.2c0.3,0.1,0.5,0.2,0.3,0.6c-0.2,0.5,0.1,0.9,0.6,0.9c0.2,0,0.4,0,0.6,0
			c0.9-0.1,1.1,0,1.3,0.9c0.2,0.7,0.6,1,1.3,1c0.2,0,0.5,0,0.7,0c0.3,0.5,0.6,1.1,1.4,1.3c0-0.3-0.1-0.5-0.1-0.7
			c0.1-0.8-0.3-1.4-0.8-1.8c-0.2-0.2-0.4-0.5-0.5-0.7c0.3-0.3,0.6-0.6,0.8-0.9c0.3-0.4,0.4-0.8,0.1-1.4c-0.2-0.3-0.2-0.7-0.1-1
			c0.1-0.5,0.3-0.9,0.5-1.4c-0.2-0.2-0.3-0.4-0.5-0.6c-0.2-0.2-0.3-0.5-0.5-0.7c-0.6-0.9-0.5-0.9,0.4-1.4c0,0,0,0,0,0
			c-0.1-0.4-0.1-0.7-0.2-1c-0.1-0.4-0.1-0.8-0.2-1.1c0-0.1-0.2-0.2-0.4-0.2c-0.4,0-0.7,0-1.1,0c-0.3,0-0.6,0-0.9-0.1
			c0.1,0.2,0.1,0.4,0.1,0.5c0.4,0.7,0.4,1.3-0.3,1.9c-0.1,0.1-0.1,0.4-0.2,0.7c0.2,0,0.4,0.1,0.6,0.1c0.3,0,0.6-0.1,0.7,0.4
			c-0.8,0.1-1.1,0.1-1.2,0.4c-0.3,0.7-0.6,1.4-0.9,2c-0.4,0.2-0.9,0.3-1.4,0.6c-0.1-0.1-0.4-0.3-0.6-0.4c-0.3-0.1-0.6-0.3-0.8-0.2
			c-0.3,0-0.5-0.1-0.7-0.3c-0.1-0.2-0.3-0.4-0.5-0.4c-0.6-0.1-1.3-0.1-1.9-0.2c-0.9-0.1-0.9-0.1-1.1,0.7c0,0.1-0.1,0.2-0.1,0.4
			c-0.1,0.4-0.1,0.8-0.2,1.2c0,0.2-0.2,0.4-0.4,0.4c-0.3,0.1-0.3-0.2-0.3-0.4c0-0.3,0-0.7,0-1c-0.6,0-0.5,0.9-1.1,0.6
			c-0.1-0.4-0.2-0.7-0.4-1c-0.1-0.3-0.2-0.4,0-0.6c0.2-0.2,0.2-0.4-0.1-0.6c-0.5-0.4-1.5-0.5-1.8,0.4c-0.2,0.4-0.3,0.8-0.8,1
			c0.1-0.9,0.7-1.7,0.6-2.8c-0.3,0.4-0.5,0.8-0.8,1.1c-0.3,0.3-0.6,0.5-1,0.6c-0.8,0.2-1,0.5-0.9,1.3c-1.7,0.2-3.5-0.4-4.9,1
			c-0.2-0.3-0.4-0.5-0.7-0.7c-0.6-0.6-1.3-1-2.2-0.8c-0.7,0.1-1.2-0.1-1.6-0.6c-0.5-0.6-1.1-0.5-1.8-0.4c-0.1,0.6,0.5,1.1,0.2,1.9
			c-0.2-0.3-0.3-0.5-0.4-0.7c-0.8-1.6-1.7-3.1-2.8-4.5c-0.4-0.5-0.6-1.1-0.6-1.7c0.1-0.7-0.2-1.1-0.7-1.5c-0.4-0.3-0.6-0.7-0.5-1.2
			c0-0.2,0-0.4-0.1-0.6c-0.5,1-0.6,2,0,2.8c0.4,0.7,0.4,1.3,0.3,2c-0.1,0.4-0.1,0.9-0.2,1.3c-0.1,0.7,0,0.8,0.7,0.9
			c0.6,0,1.2,0,1.8,0c0,0.6-0.6,1-1.4,0.8c-0.1,0-0.4-0.1-0.5,0c-0.1,0.1-0.1,0.3-0.1,0.5c0.2,0,0.4,0,0.6,0c0.1,0,0.3,0.1,0.4,0.2
			c0,0,0,0.2,0,0.2c-0.1,0.1-0.3,0.1-0.4,0.1c-0.2,0-0.5,0-0.7,0.1c-0.4,0.2-0.4,0.6-0.4,1c0,0.1-0.1,0.2-0.2,0.3
			c-0.1-0.1-0.2-0.2-0.2-0.3c0-0.2,0-0.4,0-0.7c-0.5,0.3-0.6,0.6-0.5,1c0.1,0.4,0.1,0.8,0.2,1.2c0,0.2,0.1,0.5,0.2,0.5
			c0.2,0,0.4-0.1,0.6-0.2c0.1-0.1,0.2-0.3,0.4-0.3c0.1-0.1,0.3-0.1,0.4-0.1c0.6,0.2,1.1,0.5,1.7,0.8c0.1,0,0.2,0.1,0.3,0.1
			c1.4-0.4,2.7-0.8,4.1-1.1c0.4,0.2,0.8,0.5,1.3,0.7c0.8,0.3,1.6,0.4,2.4-0.1c0.1-0.1,0.2-0.1,0.3-0.1c0.4,0,0.8,0,1.2,0
			c0.6,0,1.2,0.1,1.7,0.1c0.1,0,0.3-0.1,0.4-0.2c0.6-0.7,0.7-0.7,1.5-0.3c0.2,0.1,0.3,0.2,0.4,0.2c0.3,0.2,0.5,0.1,0.8,0
			c0.8-0.3,1.7-0.2,2.4,0.3c0.2,0.2,0.4,0.2,0.7,0.1c0.2-0.1,0.4-0.1,0.7-0.2C163.6,98.9,163.6,99,163.5,99.3z M43.5,97.6
			c0,0.2,0,0.3,0,0.4c-0.1,0.1-0.2,0.2-0.3,0.3C43.1,98.2,43,98.1,43,98c0-0.2,0-0.4,0-0.6c0-0.3-0.2-0.4-0.4-0.3
			c-0.2,0.1-0.3,0.2-0.4,0.3c-0.1,0-0.4,0.1-0.5,0c-0.5-0.4-0.9-0.3-1.4-0.1c-0.4,0.1-0.6,0.1-0.9-0.2c-0.1-0.1-0.4-0.2-0.5-0.2
			c-0.5,0.1-0.8,0-1.2-0.3c-0.2-0.2-0.5-0.4-0.8-0.6c-0.1,0.4-0.1,0.8-0.2,1.1c-0.1,0.5-0.2,0.6-0.8,0.5c0-0.2,0-0.4,0-0.6
			c0-0.1-0.2-0.4-0.3-0.3c-0.4,0.1-0.4-0.2-0.4-0.5c0-0.3,0-0.5,0-0.8c-0.5-0.1-1-0.2-1.6-0.3c0.3-0.2,0.5-0.3,0.7-0.5
			c0.4-0.3,0.6-0.7,0.5-1.2c-0.1-0.8,0-1.5,0.5-2.1c0.1-0.1,0-0.4-0.1-0.5C35,90.6,34.4,90.7,34,91c-0.4,0.2-0.6,0.5-0.4,1
			c0.2,0.4,0.1,0.7-0.3,0.9c-0.2,0.1-0.5,0.4-0.5,0.6c0,0.5-0.2,0.6-0.7,0.6c0,0.1,0,0.3,0,0.4c0,0.1,0,0.3,0,0.4
			c0.8-0.1,0.8-0.1,0.7,0.4c-0.5,0-0.5,0-0.5,0.7c-1,0.4-1,0.4-1.8,1.4c-0.2,0.2-0.4,0.3-0.6,0.1c0.3-0.8-0.1-1.5-1-1.6
			c0.2,0.7,0.4,1.5,0.6,2.3c-0.3-0.1-0.5-0.2-0.7-0.3c-0.2-0.1-0.5-0.3-0.5-0.5c-0.1-0.6-0.4-0.8-0.9-0.8c-0.1,0-0.4-0.2-0.4-0.3
			c0-0.5-0.3-0.7-0.7-0.8c-0.3-0.1-0.6-0.1-0.9-0.1c-0.2,0-0.5,0-0.5-0.4c0.4,0,0.8,0,1.2,0c0.2,0,0.4-0.1,0.4-0.3
			c0-0.1-0.1-0.4-0.2-0.5c-0.2-0.2-0.4-0.3-0.7-0.5c0.1-0.2,0.1-0.5,0.2-0.8c0.1-0.7,0-0.9-0.7-1.1c-0.3-0.1-0.7-0.2-0.9-0.3
			c0.2-0.6,0.5-1,0.6-1.5c0.1-0.6,0-1.3-0.6-1.7c-0.1-0.1-0.3-0.1-0.4-0.1c0,0.1-0.1,0.3-0.1,0.4c0.3,0.6,0.1,1.1-0.1,1.7
			c-0.2,0-0.4,0-0.6-0.1c-0.4,0-0.4,0.2-0.3,0.5c0.3,0.9,0.7,1.8,1,2.6c0.1,0.2,0,0.4-0.1,0.5c-0.1,0.4-0.3,0.8-0.4,1.2
			c0,0.6,0,1.2,0.1,1.8c-0.2,0-0.5,0-0.7,0.1c-0.3,0.1-0.5,0.2-0.5,0.6c0,0.3,0.2,0.6,0.5,0.6c0.2,0,0.4,0,0.5,0.1
			c0.1,0,0.3,0.2,0.3,0.2c0,1.3,0.4,2.6-0.8,3.7c-0.3,0.3-0.5,0.8-0.6,1.3c0,0.1,0.2,0.3,0.3,0.5c0.1-0.2,0.3-0.3,0.3-0.5
			c0-0.3,0.1-0.4,0.3-0.5c0.5-0.3,1-0.5,1.5-0.8c0.4-0.2,0.7-0.5,1.1,0.2c0.2-0.5,0.3-0.9,0.5-1.3c0.5,0,1,0,1.6,0
			c0.5,0,0.8-0.1,1-0.5c0.2-0.4,0.5-0.8,1-0.7c0.5,0.1,0.6-0.1,0.8-0.4c0.2-0.4,0.5-0.5,0.9-0.4c0.6,0.2,1.2,0.5,1.9,0.7
			c1,0.3,1.1,0.3,1.3-0.7c0,0,0,0,0,0c0.7,0.1,1.3,0.1,1.9,0.2c0.1,0,0.3,0.1,0.4,0.2c0.4,0.5,0.9,0.4,1.5,0.3
			c0.2-0.1,0.5,0,0.7,0.1c0.4,0.3,0.6,0.2,0.9-0.1c0.1-0.1,0.2-0.2,0.3-0.3c0.3-0.3,0.5-0.3,0.8,0c0.1,0.1,0.3,0.2,0.4,0.2
			c0.5,0,1.1-0.1,1.6-0.2c0.3-0.1,0.5-0.3,0.7-0.6C44.3,98.1,44.1,97.6,43.5,97.6z M155.6,79.6c0.1,0,0.1,0.1,0.2,0.1
			c0,0.3,0,0.6,0,0.8c0,0.5,0.2,0.9,0.6,1.1c0.1,0.1,0.4,0.1,0.6,0.1c0.5-0.4,1-0.3,1.5,0c0.8,0.5,1.6,0.6,2.4,0.2
			c1.2-0.4,2.4-0.8,3.7-1.2c0,0,0,0,0,0c-0.4,0.3-0.7,0.6-1.1,1c1.7,0.7,2.5,0.1,2.5-1.4c0-0.8-0.3-1.6-0.5-2.3
			c-0.1-0.5-0.5-0.6-1-0.6c-0.4,0.1-0.7,0.4-0.7,0.9c0,0.3,0,0.6,0,0.9c0,0.3-0.1,0.6-0.5,0.6c0-0.4-0.1-0.7-0.1-1.1
			c-0.1-0.4-0.3-0.6-0.7-0.5c-0.5,0.1-1.1,0.1-1.7,0.1c-0.7,0-1.3,0.1-1.7,0.7c0,0-0.1,0-0.1,0c-0.1-0.1-0.3-0.3-0.4-0.4
			c-0.7-0.5-1.5-0.8-2.4-0.4c-0.5,0.2-0.6,0.2-0.9-0.3c-0.1-0.1-0.2-0.3-0.3-0.3c-0.4-0.1-0.6,0-0.6,0.4c-0.1,0.7-0.1,1.5-0.2,2.2
			c-0.2,1.2-0.5,2.4-0.7,3.7c-0.1,0.6,0.1,1.1,0.7,1.2c-0.1-1.7,0.3-3.3,0.9-4.8C155.2,80.2,155.4,79.9,155.6,79.6z M100.1,81
			c0-0.1,0.1-0.2,0.1-0.3c0.1-0.5,0.2-1,0.3-1.4c0.2-1.4,0.1-2.9-0.1-4.3c-0.1-0.8-0.2-1.6,0.3-2.3c0.2-0.3,0.2-0.7,0.2-1
			c-0.1-0.6-0.3-1.2-0.5-1.7c-0.1-0.4-0.2-0.7-0.1-1.1c0.4-1.2,0.4-2.4,0-3.6c-0.1-0.2-0.2-0.4-0.4-0.3c-0.7,0.2-1.4,0.5-2,0.7
			c-0.2,0.1-0.3,0.2-0.2,0.5c0.3,0.7,0.5,1.5,0.8,2.2c0.1,0.2,0.1,0.4,0,0.6c-0.4,1.2-0.4,2.3,0.4,3.4c0.1,0.1,0.1,0.2,0,0.4
			c-0.1,0.2-0.1,0.4-0.2,0.5c-0.7,1.1-0.8,2.1,0,3.2c0.2,0.3,0.3,0.7,0.3,1.1c0,0.7,0.1,1.4,0.4,2C99.6,79.9,99.9,80.4,100.1,81z
			 M142.4,84.3C142.4,84.3,142.4,84.3,142.4,84.3c0,0.4,0,0.8,0,1.2c0,0.3,0.1,0.6,0.3,0.8c0.2,0.4,0.4,0.4,0.6,0
			c0.2-0.4,0.3-0.9,0.5-1.3c0.2-0.4,0.1-0.8-0.3-1.1c-0.3-0.2-0.3-0.4-0.2-0.8c0.4-1.4,0.5-2.8,0-4.3c-0.1-0.3-0.1-0.7,0.1-1
			c0.4-0.7,0.2-1.3,0.1-2c0-0.1-0.3-0.2-0.4-0.3c-0.1,0.1-0.2,0.3-0.2,0.4c0,0.3,0.1,0.7-0.1,0.9c-0.8,0.9-0.7,1.8-0.4,2.8
			c0.2,0.7,0.3,1.3,0.4,2c0,0.3-0.1,0.6-0.1,0.9c-0.1,0.3-0.2,0.5-0.2,0.8C142.4,83.7,142.4,84,142.4,84.3z M45,83.9
			c0.7-0.5,0.9-1,0.8-1.8c-0.1-0.4-0.2-0.8-0.3-1.2c-0.1-0.4-0.1-0.8,0.2-1.2c0.3-0.4,0.4-1,0.4-1.5c0-0.8-0.2-1.6-0.3-2.4
			c-0.1-0.3-0.4-0.5-0.6-0.8c0,0-0.4,0.1-0.4,0.2c0,0.3,0,0.6,0.1,0.9c0.3,0.6,0.4,1.2,0.3,1.8c-0.1,1.6-0.3,3.1-0.4,4.7
			C44.9,83.1,45,83.4,45,83.9z M44.8,69.6c0.8-0.7,1.1-1.5,0.9-2.5c-0.1-0.4,0-0.6,0.2-0.9c0.2-0.2,0.3-0.5,0.5-0.9
			c-0.6,0-1,0-1.4,0c-0.3,0-0.5,0.1-0.5,0.4C44.2,67.1,44.4,68.3,44.8,69.6z M46.1,98.9c-0.2-1.3-0.4-2.5-0.6-3.6
			c0-0.1-0.2-0.3-0.3-0.2c-0.2,0-0.5,0.1-0.6,0.3c-0.1,0.1,0,0.5,0.1,0.6c0.5,0.4,0.5,0.9,0.4,1.5c-0.1,0.3-0.2,0.6-0.2,0.9
			c-0.1,0.5,0.2,0.8,0.7,0.8C45.8,99.1,45.9,99,46.1,98.9z M44.9,89.1c0,0.5-0.1,0.9-0.1,1.4c0,0.9,0.3,1.9,0.1,2.8
			c0,0.1,0,0.2,0.1,0.3c0.1,0.1,0.2,0.1,0.3,0.1c0.1,0,0.2-0.1,0.2-0.2c0.2-1.3,0.2-2.5,0-3.8C45.5,89.4,45.3,89.2,44.9,89.1z
			 M100.4,92.6c0.1-0.6,0-1.1,0.2-1.5c0.6-1,0.5-2.1,0.3-3.1c0-0.3-0.2-0.5-0.6-0.5c0,0.2,0,0.4,0,0.6c0.1,0.6,0.2,1.3,0.2,1.9
			c0,0.3,0,0.7-0.2,0.9c-0.4,0.4-0.4,0.8-0.3,1.2C100,92.2,100.2,92.4,100.4,92.6z M162.5,93.9c0.4-0.1,0.7-0.2,1-0.2
			c0.4,0,0.6-0.2,0.6-0.6c0-0.3,0-0.7-0.1-1c0-0.2-0.3-0.4-0.4-0.5c-0.1,0-0.3,0.1-0.3,0.2c-0.1,0.2-0.2,0.4-0.3,0.5
			C162.8,92.8,162.4,93.3,162.5,93.9z M117.3,93.5c-0.1-0.4-0.2-0.9-0.4-1.3c-0.1-0.3-0.3-0.3-0.5-0.2c-0.6,0.3-0.3,0.8-0.2,1.2
			c0.1,0.4,0.3,0.6,0.7,0.7C117.1,94,117.2,93.8,117.3,93.5z M45.3,72.4c0.3-0.9,0-1.6-0.3-2.3c-0.1-0.1-0.3-0.2-0.5-0.3
			c0,0-0.1,0.1-0.1,0.1C44.9,70.7,44.5,71.7,45.3,72.4z M61.4,71.2c0.1,0,0.1-0.1,0.2-0.1c-0.1-0.6-0.1-1.2-0.2-1.8
			c0-0.1-0.2-0.2-0.4-0.3c-0.1,0.1-0.3,0.3-0.3,0.4c0,0.4,0.1,0.9,0.2,1.3C61.1,70.8,61.3,71,61.4,71.2z M100.7,84c0,0,0.1,0,0.1,0
			c0-0.1-0.1-0.3-0.1-0.3c-0.1,0-0.3,0-0.4,0.1c-0.3,0.2-0.4,0.5-0.2,0.9c0.1,0.2,0.2,0.4,0.3,0.6c0.1,0.1,0.3,0.2,0.4,0.3
			c0.1-0.2,0.2-0.3,0.2-0.5C100.8,84.7,100.7,84.3,100.7,84z M61.2,67.3c0.5-0.4,0.7-1.2,0.4-1.7c-0.1-0.3-0.4-0.3-0.7-0.2
			C61,66,61.1,66.7,61.2,67.3z M100.8,93.6c0,0.5-0.2,0.9,0.2,1.2c0.1,0.1,0.4,0,0.4,0c0.1-0.3,0.2-0.6,0.1-0.8
			C101.4,93.7,101.1,93.7,100.8,93.6z M132.3,91.6c-0.1,0.4-0.2,0.8-0.2,1.1c0,0.1,0.2,0.2,0.3,0.3c0,0,0.2-0.1,0.2-0.1
			C132.8,92.5,132.7,91.8,132.3,91.6z M116.1,88c0,0.1-0.1,0.1-0.1,0.2c0.1,0.2,0.2,0.4,0.4,0.6c0.2,0.3,0.4,0.2,0.5-0.1
			c0.1-0.2,0.1-0.5,0-0.5C116.6,88.1,116.3,88.1,116.1,88z"/>
		<path class="st0" d="M79.4,75.9c0.3,0.7,0.2,0.9-0.5,0.8C79.1,76.5,79.2,76.2,79.4,75.9z"/>
		<path class="st0" d="M36.1,60.1c0-0.2,0-0.4,0.1-0.6c0-0.1,0.1-0.2,0.2-0.2c0,0,0.2,0,0.2,0.1c0,0.2,0,0.4,0,0.7
			C36.5,60,36.2,60,36.1,60.1C36.1,60,36.1,60.1,36.1,60.1z"/>
		<path class="st0" d="M11.5,131.7c0.1-0.1,0.2-0.2,0.3-0.3c0.1,0.1,0.2,0.2,0.2,0.3c0,0.2-0.2,0.3-0.2,0.5
			C11.6,132.1,11.6,131.9,11.5,131.7z"/>
		<path d="M35.8,80.6c-0.5,1.3-0.9,2.5-1.4,3.8c-1.2,3.2-2.4,6.5-3.6,9.7c-0.1,0.4-0.3,0.6-0.7,0.5c-0.5,0-1.1,0.1-1.5-0.2
			c-0.3-0.2-0.4-0.8-0.5-1.3c-0.7-2.1-1.4-4.1-2.1-6.2c-0.1-0.3-0.1-0.5-0.1-0.8c0.1-0.9-0.2-1.6-0.8-2.3C25,83.9,25,83.8,25,83.7
			c-0.1-0.4-0.1-0.8-0.3-1.1c-0.3-0.6-0.7-1.1-1-1.6c-0.1-0.1-0.2-0.3-0.2-0.4c-0.1,0-0.2,0.1-0.3,0.1c-0.1,0.6-0.2,1.2-0.3,1.9
			c-0.4,3.5-0.8,7-1.2,10.5c-0.3,2.4-0.5,4.9-0.7,7.3c-0.1,1.5-0.4,2.9-0.5,4.4c-0.1,1-0.1,2-0.2,3.1c0.3-0.2,0.4-0.2,0.6-0.3
			c2.9-1.8,5.7-3.6,8.6-5.4c0.3-0.2,0.6-0.3,0.9-0.3c10.9-0.2,21.8-0.4,32.7-0.5c0.1,0,0.2,0,0.2,0c0.1,0.1,0.2,0.1,0.3,0.2
			c-0.1,0.1-0.2,0.2-0.2,0.2c-1.7,0.4-3.4,0.8-5.1,1.1c-2,0.4-4.1,0.7-6.1,1c-0.1,0-0.2,0-0.3,0.1c-1.2,0.7-2.6,1-3.9,1
			c-1.5-0.1-2.9,0.6-4.3,1c-2.3,0.6-4.7,1.1-7,1.7c-0.4,0.1-0.7,0.2-1.1,0.3c-0.9,0.2-1.6,0.6-2.3,1.2c-1.6,1.3-3.4,2.5-5,3.8
			c-1.7,1.4-3.4,2.9-5,4.3c-3.3,2.9-6.6,5.8-9.9,8.7c-0.1,0.1-0.3,0.2-0.5,0.2c0-0.2-0.1-0.4-0.1-0.6c0.3-2.9,0.6-5.9,1-8.8
			c0.3-3,0.6-5.9,1-8.9c0.4-3.3,0.7-6.5,1.1-9.8c0.3-2.9,0.6-5.9,1-8.8c0.4-3.3,0.7-6.5,1.1-9.8c0.3-3,0.6-6,0.9-9
			c0-0.2-0.1-0.5-0.2-0.7c-0.3-0.6-0.6-1.2-0.9-1.8c-0.3-0.5-0.7-0.8-1.1-1.2c-0.2-0.2-0.4-0.5-0.5-0.7c-0.3-0.7-0.7-1.2-1.2-1.7
			c-1.6-1.6-3.2-3.3-4.9-5c-0.4-0.4-0.9-0.8-1.3-1.3c-0.1-0.1-0.1-0.3-0.2-0.5c0.2,0,0.4-0.1,0.5,0c1.5,0.8,3.1,1.6,4.6,2.3
			c3.7,1.8,7.4,3.6,11.1,5.5c0.2,0.1,0.3,0.3,0.4,0.5c1.5,4.1,2.9,8.2,4.3,12.3c0,0.1,0,0.2,0.1,0.2c0.2,0.2,0.4,0.4,0.6,0.6
			c0.1-0.2,0.3-0.4,0.3-0.6c0.4-1,0.7-2.1,1.1-3.1c0-0.1,0.1-0.3,0.2-0.4c0.5-0.4,0.6-1,0.7-1.6c0.6-2.4,1.4-4.8,2.3-7.1
			c0.1-0.3,0.3-0.4,0.6-0.4c2.3,0,4.6,0,6.9,0c0.3,0,0.4,0.1,0.4,0.5c0.1,9.3,0.2,18.7,0.3,28c0,0.7-0.1,0.8-0.8,0.7
			c-1.5-0.3-3-0.2-4.5-0.1c-0.8,0.1-0.9,0-0.8-0.8c0-0.3,0.2-0.7,0.2-1c0-0.1,0.1-0.2,0-0.4c-0.4-2.3-0.3-4.6-0.2-6.9
			c0-0.7,0-1.5,0-2.2c0-0.3,0-0.7,0.2-1C37.2,81.8,36.4,80.7,35.8,80.6z"/>
		<path d="M191.7,56.1c-0.2,0.2-0.3,0.3-0.4,0.5c-2.8,2.8-5.5,5.6-8.3,8.3c-0.9,0.9-1.6,1.9-2.2,3c-0.1,0.1-0.1,0.3-0.1,0.5
			c0.7,4.8,1.3,9.5,2,14.3c0.6,4.4,1.2,8.8,1.8,13.2c0.1,0.4,0.1,0.8,0.1,1.2c-0.1,2.5,0.4,4.9,0.9,7.3c0.7,3.1,1,6.2,1,9.4
			c0,0.9,0.4,1.9,0.5,2.8c0.5,3.1,0.9,6.2,1.4,9.3c0,0,0,0.1,0,0.1c-0.1-0.1-0.2-0.2-0.3-0.3c-6.7-6-13.3-12-20-18
			c-0.4-0.3-0.8-0.5-1.2-0.6c-1.6-0.4-3.1-1-4.7-1.4c-0.2-0.1-0.4-0.1-0.5-0.1c-3.4-0.1-6.7-0.8-10-1.7c-1.2-0.3-2.5-0.4-3.8-0.7
			c-2.5-0.5-5-1.1-7.6-1.6c-1-0.2-2-0.4-3-0.6c-0.1,0-0.2-0.1-0.3-0.2c0.3,0,0.7-0.1,1-0.1c10.7,0,21.4-0.1,32.1-0.1
			c0.2,0,0.5,0.1,0.7,0.2c2.6,1.7,5.2,3.4,7.8,5c0.3,0.2,0.7,0.3,1.1,0.4c-0.1-0.8-0.2-1.4-0.2-2.1c-0.5-4.6-1-9.1-1.5-13.7
			c0-0.4-0.1-0.9-0.1-1.3c-0.1-0.5-0.4-0.8-0.9-0.8c-1.5,0-3,0-4.5,0c-0.3,1.7-0.6,3.4-1,5.2c-0.4,0-1,0-1.6,0
			c-1.2,0-2.4-0.1-3.6-0.1c-0.3,0-0.4-0.1-0.3-0.4c0.3-2.2,0.6-4.4,0.8-6.5c0.2-1.9,0.4-3.8,0.6-5.6c0-0.1,0.1-0.3,0.1-0.4
			c0.7-1.4,0.8-2.9,0.5-4.4c0-0.2,0-0.5,0-0.7c1-3.1,1.5-6.3,1.6-9.6c0-1,0.4-1.7,1.4-2.1c1.7-0.7,3.4-1.3,5.2-1.3
			c0.1,0,0.3,0,0.3-0.1c0.3-0.5,0.8-0.4,1.2-0.5c0.5-0.1,1.1-0.3,1.4-0.6c1.6-1.4,3.6-2,5.5-2.7c0.6-0.2,1.3-0.4,1.9-0.6
			c0.3-0.1,0.5-0.2,0.8-0.3c1.2-0.5,2.4-1,3.6-1.5C191.3,56.1,191.4,56.1,191.7,56.1z M175.3,71c-0.7,4.3-1.3,8.6-2,13
			c1.3,0,2.5,0,3.8,0c0-0.2,0-0.3,0-0.5c-0.3-3.4-0.7-6.7-1-10.1c-0.1-0.5-0.1-1-0.2-1.6C175.8,71.4,175.7,71,175.3,71z"/>
		<path d="M162.7,76c-2.2,0.1-4.3,0.2-6.5,0.3c-0.5,0-0.7-0.3-0.7-0.8c0-1.2,0.1-2.3,0-3.5c0-0.6-0.3-1.2-0.5-1.8
			c0-0.1-0.2-0.3-0.2-0.3c-0.6,0-1.2,0-1.8,0.1c-0.4,0.1-0.5,0.6-0.5,1c0,5.6-0.1,11.1-0.1,16.7c0,1.2,1.1,2.1,2.2,1.8
			c0.6-0.2,0.9-0.6,1-1.3c0-1.2,0.1-2.4,0.1-3.6c0-0.4,0.2-0.5,0.5-0.5c1.6,0,3.1,0,4.7-0.1c0.6,0,1.2,0,1.9,0c0,2,0.4,4-0.5,5.8
			c-1.4,3.1-3.8,4.5-7,4.6c-2.1,0.1-4.1-0.4-6.1-1.1c-0.8-0.3-1.3-0.7-1.8-1.4c-1.2-1.7-1.8-3.7-2-5.7c-0.1-1.3-0.1-2.5-0.1-3.8
			c0-2.7,0-5.4,0-8.2c0-2,0.2-4,0.8-5.9c0.7-2.1,2.1-3.6,4.4-4.1c3.4-0.8,6.6-0.4,9.7,1.1c0.1,0.1,0.3,0.2,0.3,0.3
			c0.6,1.1,1.3,2.1,1.9,3.2c0.1,0.2,0.2,0.3,0.2,0.5c0.1,2.1,0.2,4.3,0.2,6.4C162.8,75.8,162.8,75.9,162.7,76z"/>
		<path d="M99.1,94c-1.1,0-2.1,0.1-3.1,0.1c-0.8,0-1.5,0-2.3,0.1c-0.3,0-0.4-0.1-0.4-0.3c-0.2-1.3-0.3-2.7-0.4-4c-0.1-0.7-0.3-1-1-1
			c-1-0.1-2.1,0-3.1,0c-0.3,0-0.7,0.7-0.7,1.1c0.3,1.3-0.1,2.5-0.3,3.7c0,0.1-0.3,0.3-0.4,0.4c-1.9,0.1-3.8,0.2-5.7,0.3
			c0,0,0,0-0.1-0.1c0.1-1,0.3-2,0.5-3.1c0.6-2.8,1.1-5.6,1.2-8.4c0-0.4,0.1-0.8,0.2-1.2c0.5-1.5,0.4-3.1,0.6-4.7
			c0-0.3,0-0.5,0.1-0.8c0.6-1.7,0.5-3.5,0.7-5.3c0.2-1.6,0.5-3.3,0.8-4.9c0-0.3,0.2-0.4,0.5-0.4c2-0.1,4-0.1,5.9-0.2
			c0.9,0,1.8,0,2.7,0c0.1,1,0.2,1.9,0.3,2.8c0.1,0.9,0.2,1.7,0.3,2.6c0.1,0.8,0.5,1.5,0.6,2.3c0.6,3.5,1.1,7,1.7,10.5
			c0.1,0.5,0.2,0.9,0.2,1.4c0,0.2,0.1,0.5,0,0.7c-0.2,0.5-0.1,1,0,1.5c0.6,2.2,1.1,4.4,1.4,6.7C99,93.8,99.1,93.9,99.1,94z
			 M88.6,84.5c0.1,0,0.1,0.1,0.1,0.1c0.7,0,1.4,0,2.2,0c1.1,0,1.1-0.1,1-1.1c-0.2-1.4-0.5-2.9-0.7-4.3c0-0.3-0.1-0.5-0.1-0.8
			c0-0.5,0.2-1-0.3-1.4c-0.1,0,0-0.2-0.1-0.3c-0.1-1-0.2-2-0.3-3c0-0.5-0.1-0.9-0.2-1.4c0-0.1-0.1-0.3-0.2-0.3
			c-0.1,0-0.3,0.1-0.3,0.2c-0.1,0.1-0.1,0.2-0.1,0.4c-0.3,3.1-0.6,6.2-0.9,9.4C88.7,82.7,88.7,83.6,88.6,84.5z"/>
		<path d="M54.6,89.2c1.8,0.1,3.6,0.2,5.4,0.2c0,0.2,0,0.4,0,0.6c0,1.3,0,2.6,0,4c0,0.6-0.1,0.8-0.7,0.7c-0.8,0-1.6-0.2-2.3-0.2
			c-2.4,0-4.9,0.1-7.3,0.1c-0.4,0-0.7,0-1.1,0c-0.4,0-0.7-0.1-0.7-0.6c0-0.1,0-0.2,0-0.3c-0.1-3.3-0.3-6.6-0.3-9.9
			c0-2.7,0.2-5.3,0.3-8c0-0.7-0.1-1.4-0.2-2.2c-0.1-2.1-0.2-4.1-0.3-6.2c0-0.4-0.1-0.9-0.1-1.3c0-0.5,0.2-0.7,0.6-0.7
			c2.7,0,5.5-0.1,8.2-0.1c1,0,2,0,3,0.1c0.1,0,0.2,0,0.3,0.1c0.1,1.8,0.2,3.6,0.2,5.4c0,0.1-0.2,0.4-0.3,0.4c-0.3,0.1-0.7,0.1-1,0.1
			c-1.1,0-2.2,0-3.4,0c-0.4,0-0.5,0.1-0.5,0.5c0,1.7,0,3.3,0,5.1c0.6,0.1,1.2,0.2,1.9,0.2c0.9,0,1.8,0,2.6,0c0.4,0,0.5,0.2,0.6,0.5
			c0.1,0.2,0.1,0.5,0.1,0.7c0.1,1.4,0.1,2.7,0.1,4.1c0,0.9-0.1,1-1,1.2c-1.2,0.2-2.4,0.3-3.7,0c-0.2-0.1-0.4,0-0.4,0.3
			c-0.1,0.4-0.1,0.8-0.1,1.2C54.6,86.5,54.6,87.7,54.6,89.2z"/>
		<path d="M68,71.4c-0.6,0-1.1,0-1.6,0c-0.7,0-1.4,0.1-2.1,0.1c-0.5,0-0.7-0.2-0.7-0.7c-0.1-1.6-0.1-3.3-0.2-4.9
			c0-0.4,0.2-0.5,0.5-0.5c0.7,0.1,1.3,0.2,2,0.3c0.2,0,0.5,0,0.7,0c0.4-0.1,0.8-0.2,1.2-0.2c3.1,0,6.3,0,9.4,0c0.7,0,1.3-0.1,2-0.1
			c0,0.5,0.1,1,0.1,1.4c0,1.3,0,2.6,0.1,3.8c0,0.6-0.1,0.8-0.7,0.8c-1,0-2,0-3,0c-0.5,0-0.6,0.2-0.6,0.6c0,0.6-0.1,1.2-0.1,1.8
			c0.1,5.7,0.2,11.5,0.3,17.2c0,1,0,1.9,0,2.9c0,0.3-0.1,0.5-0.4,0.5c-0.7,0.2-1.4,0.1-2.1-0.2c-0.2-0.1-0.4-0.1-0.6-0.1
			c-1.2,0.4-2.5,0.3-3.7,0.3c-0.1,0-0.3-0.2-0.3-0.3c-0.2-1.8-0.1-3.6,0.3-5.4c0-0.2,0-0.5,0-0.7c-0.4-1.3-0.4-2.5-0.1-3.8
			c0.1-0.3,0.1-0.7,0.1-1c-0.1-2-0.2-4-0.3-6C67.9,75.3,68,73.4,68,71.4z"/>
		<path d="M118.4,65c0.9,0,1.7,0,2.6,0c1.1,0,2.1,0.1,3.2,0.1c0.4,0,0.6,0.1,0.7,0.5c0.1,0.6,0.3,1.3,0.1,1.9
			c-0.3,1.2-0.1,2.4,0,3.7c0.1,1.3,0.1,2.5,0.2,3.8c0,0,0,0.1,0,0.1c-0.5,1.3,0,2.7,0,4c0.1,3,0.1,6,0.2,8.9c0,0.2,0,0.4,0,0.7
			c0.6,0,1.1,0.1,1.7,0.1c0.7,0,1.5-0.1,2.2-0.1c0.8-0.1,1.1,0,1.2,0.9c0.1,1.3,0.2,2.5,0.3,3.8c0,0.5-0.2,0.6-0.7,0.6
			c-1.4,0-2.9,0.1-4.3,0c-1.6-0.1-3.2-0.2-4.9-0.3c-0.4,0-0.8,0-1.1,0.2c-0.6,0.4-1.2,0.1-1.2-0.8c0.1-1.4,0-2.9,0-4.3
			c0-0.1,0-0.4,0.1-0.4c0.4-0.3,0.2-0.7,0.1-1.1c-0.1-0.7-0.3-1.4-0.2-2.1c0.2-1,0-2.1-0.1-3.1c-0.4-4.9-0.4-9.9-0.3-14.8
			c0-0.7,0-1.4,0.1-2.1C118.3,65.1,118.4,65.1,118.4,65z"/>
		<path d="M109.6,88.8c1.4,0,2.8,0.1,4.1,0.1c0.4,0,0.7,0.2,0.7,0.6c0.1,1.3,0.1,2.6,0.2,3.9c0,0.3-0.1,0.4-0.4,0.5
			c-2.8,0.1-5.5,0.2-8.3,0.3c-1,0-2,0-3,0c0,0,0-0.1,0-0.2c-0.1-5.7-0.1-11.3-0.2-17c0-1.2,0.1-2.5,0.1-3.7c0-0.3-0.1-0.5-0.1-0.8
			c-0.1-0.5-0.2-0.9-0.2-1.4c0-1.8,0-3.7,0-5.5c0-0.1,0-0.1,0-0.3c0.5,0,1.1,0,1.6,0c1.6,0,3.2,0,4.8,0c0.3,0,0.4,0.1,0.4,0.4
			c0,0.5,0.1,0.9,0.1,1.4c-0.1,1.6,0,3.2-0.3,4.8c-0.1,0.3,0,0.6,0.1,1c0.4,1.8,0.3,3.5-0.1,5.3c-0.1,0.2,0,0.5,0,0.7
			c0.4,1.4,0.5,2.8,0.5,4.2C109.6,84.8,109.6,86.7,109.6,88.8z"/>
		<path d="M140.7,93.7c-2.1,0.2-4.2,0.2-6.2,0c-0.1,0-0.4-0.2-0.4-0.3c-0.1-0.3-0.1-0.6-0.1-0.9c-0.1-3.1-0.1-6.3-0.2-9.4
			c-0.1-2.4-0.1-4.8,0.2-7.1c0-0.4,0-0.8-0.1-1.1c-0.2-1-0.1-2,0.1-3.1c0-0.2,0.1-0.5-0.1-0.7c-0.2-0.4-0.3-0.9-0.3-1.4
			c0-1.4,0-2.8,0-4.2c0-0.6,0.1-0.7,0.7-0.7c1.7,0,3.4,0,5.1,0c0.7,0,1,0.2,1,1c0,1,0,1.9,0,2.9c0,0.7,0,1.4-0.1,2.1
			c0,0.6-0.2,1.3-0.2,1.9c0,0.6,0,1.2,0,1.7c0.1,1.9,0.2,3.8,0.2,5.8c0,2.2,0,4.5,0,6.7c0,0.2,0,0.4-0.1,0.6
			c-0.3,0.5-0.2,1.1-0.2,1.7C140.5,90.7,140.6,92.2,140.7,93.7z"/>
		<path d="M163.5,99.3c0.1-0.3,0.2-0.5,0.3-0.8c-0.3,0.1-0.5,0.1-0.7,0.2c-0.2,0.1-0.4,0.1-0.7-0.1c-0.7-0.6-1.5-0.7-2.4-0.3
			c-0.3,0.1-0.6,0.1-0.8,0c-0.1-0.1-0.3-0.2-0.4-0.2c-0.8-0.4-0.9-0.4-1.5,0.3c-0.1,0.1-0.3,0.2-0.4,0.2c-0.6,0-1.2-0.1-1.7-0.1
			c-0.4,0-0.8,0-1.2,0c-0.1,0-0.3,0-0.3,0.1c-0.8,0.5-1.6,0.4-2.4,0.1c-0.5-0.2-0.9-0.5-1.3-0.7c-1.4,0.4-2.7,0.8-4.1,1.1
			c-0.1,0-0.2,0-0.3-0.1c-0.6-0.3-1.1-0.5-1.7-0.8c-0.1,0-0.3,0-0.4,0.1c-0.1,0.1-0.2,0.3-0.4,0.3c-0.2,0.1-0.4,0.2-0.6,0.2
			c-0.1,0-0.2-0.3-0.2-0.5c-0.1-0.4-0.2-0.8-0.2-1.2c-0.1-0.4,0-0.8,0.5-1c0,0.3,0,0.5,0,0.7c0,0.1,0.1,0.2,0.2,0.3
			c0.1-0.1,0.2-0.2,0.2-0.3c0-0.4,0-0.8,0.4-1c0.2-0.1,0.5-0.1,0.7-0.1c0.1,0,0.3,0,0.4-0.1c0,0,0.1-0.2,0-0.2
			c-0.1-0.1-0.2-0.2-0.4-0.2c-0.2,0-0.3,0-0.6,0c0-0.2,0-0.4,0.1-0.5c0.1-0.1,0.3-0.1,0.5,0c0.8,0.2,1.4-0.2,1.4-0.8
			c-0.6,0-1.2,0-1.8,0c-0.7-0.1-0.8-0.2-0.7-0.9c0.1-0.4,0.1-0.9,0.2-1.3c0.1-0.7,0.1-1.3-0.3-2c-0.6-0.9-0.5-1.9,0-2.8
			c0,0.2,0.1,0.4,0.1,0.6c0,0.5,0.1,0.9,0.5,1.2c0.5,0.4,0.8,0.8,0.7,1.5c-0.1,0.6,0.2,1.2,0.6,1.7c1.1,1.4,2.1,2.9,2.8,4.5
			c0.1,0.2,0.2,0.4,0.4,0.7c0.3-0.7-0.3-1.2-0.2-1.9c0.6-0.1,1.3-0.2,1.8,0.4c0.4,0.5,0.8,0.7,1.6,0.6c0.8-0.2,1.6,0.3,2.2,0.8
			c0.2,0.2,0.4,0.4,0.7,0.7c1.4-1.4,3.2-0.8,4.9-1c-0.1-0.9,0.1-1.1,0.9-1.3c0.4-0.1,0.7-0.4,1-0.6c0.3-0.3,0.5-0.6,0.8-1.1
			c0.1,1-0.5,1.9-0.6,2.8c0.5-0.2,0.7-0.6,0.8-1c0.4-0.9,1.3-0.8,1.8-0.4c0.2,0.2,0.3,0.4,0.1,0.6c-0.2,0.2-0.2,0.4,0,0.6
			c0.2,0.3,0.2,0.6,0.4,1c0.5,0.2,0.5-0.7,1.1-0.6c0,0.3,0,0.6,0,1c0,0.2,0,0.5,0.3,0.4c0.1,0,0.3-0.3,0.4-0.4
			c0.1-0.4,0.1-0.8,0.2-1.2c0-0.1,0.1-0.2,0.1-0.4c0.3-0.8,0.3-0.8,1.1-0.7c0.6,0.1,1.3,0.1,1.9,0.2c0.2,0,0.4,0.2,0.5,0.4
			c0.2,0.2,0.3,0.4,0.7,0.3c0.3,0,0.6,0.1,0.8,0.2c0.3,0.1,0.5,0.3,0.6,0.4c0.5-0.2,0.9-0.4,1.4-0.6c0.3-0.6,0.6-1.3,0.9-2
			c0.1-0.3,0.4-0.4,1.2-0.4c-0.1-0.4-0.4-0.3-0.7-0.4c-0.2,0-0.4-0.1-0.6-0.1c0.1-0.2,0-0.5,0.2-0.7c0.6-0.6,0.7-1.2,0.3-1.9
			c-0.1-0.1-0.1-0.3-0.1-0.5c0.3,0,0.6,0.1,0.9,0.1c0.4,0,0.7,0,1.1,0c0.1,0,0.3,0.1,0.4,0.2c0.1,0.4,0.2,0.7,0.2,1.1
			c0.1,0.3,0.1,0.7,0.2,1c0,0,0,0,0,0c-0.9,0.5-0.9,0.6-0.4,1.4c0.1,0.2,0.3,0.5,0.5,0.7c0.2,0.2,0.3,0.4,0.5,0.6
			c-0.2,0.5-0.4,0.9-0.5,1.4c-0.1,0.3,0,0.7,0.1,1c0.3,0.5,0.2,0.9-0.1,1.4c-0.2,0.3-0.5,0.5-0.8,0.9c0.2,0.2,0.3,0.5,0.5,0.7
			c0.6,0.5,0.9,1.1,0.8,1.8c0,0.2,0,0.4,0.1,0.7c-0.7-0.1-1-0.7-1.4-1.3c-0.2,0-0.5,0-0.7,0c-0.7,0-1.1-0.4-1.3-1
			c-0.2-0.9-0.4-1-1.3-0.9c-0.2,0-0.4,0.1-0.6,0c-0.5-0.1-0.8-0.4-0.6-0.9c0.1-0.4,0-0.5-0.3-0.6c-0.4-0.1-0.8-0.2-1.2-0.2
			c-0.6,0-1.2-0.1-1.7-0.5c-0.2-0.2-0.5-0.2-0.7,0c-0.3,0.3-0.7,0.6-1,0.9c-0.3,0.3-0.6,0.4-1,0c-0.1-0.1-0.4-0.1-0.5-0.1
			C164.8,99,164.2,99.2,163.5,99.3z"/>
		<path d="M43.5,97.6c0.5,0.1,0.8,0.5,0.5,1c-0.1,0.2-0.4,0.5-0.7,0.6c-0.5,0.1-1.1,0.2-1.6,0.2c-0.1,0-0.3-0.1-0.4-0.2
			c-0.3-0.3-0.5-0.3-0.8,0c-0.1,0.1-0.2,0.2-0.3,0.3c-0.3,0.3-0.6,0.4-0.9,0.1c-0.2-0.1-0.5-0.2-0.7-0.1c-0.6,0.2-1,0.3-1.5-0.3
			c-0.1-0.1-0.3-0.1-0.4-0.2c-0.6-0.1-1.3-0.1-1.9-0.2c0,0,0,0,0,0c-0.2,1-0.3,1.1-1.3,0.7c-0.6-0.2-1.2-0.4-1.9-0.7
			c-0.4-0.2-0.7,0-0.9,0.4c-0.2,0.3-0.3,0.5-0.8,0.4c-0.5-0.1-0.8,0.3-1,0.7c-0.2,0.5-0.5,0.6-1,0.5c-0.5,0-1.1,0-1.6,0
			c-0.2,0.4-0.3,0.8-0.5,1.3c-0.4-0.6-0.7-0.4-1.1-0.2c-0.5,0.3-1,0.6-1.5,0.8c-0.2,0.1-0.3,0.3-0.3,0.5c0,0.2-0.2,0.3-0.3,0.5
			c-0.1-0.2-0.3-0.4-0.3-0.5c0.1-0.5,0.3-1,0.6-1.3c1.2-1.1,0.8-2.4,0.8-3.7c0-0.1-0.2-0.2-0.3-0.2c-0.2-0.1-0.4,0-0.5-0.1
			c-0.3-0.1-0.5-0.3-0.5-0.6c0-0.3,0.2-0.5,0.5-0.6c0.2,0,0.5-0.1,0.7-0.1c0-0.6-0.1-1.2-0.1-1.8c0-0.4,0.3-0.8,0.4-1.2
			c0.1-0.2,0.1-0.4,0.1-0.5c-0.3-0.9-0.6-1.8-1-2.6c-0.1-0.3,0-0.5,0.3-0.5c0.2,0,0.4,0,0.6,0.1c0.1-0.6,0.4-1.1,0.1-1.7
			c-0.1-0.1,0-0.3,0.1-0.4c0.1,0,0.3,0,0.4,0.1c0.6,0.4,0.7,1,0.6,1.7c-0.1,0.5-0.4,1-0.6,1.5c0.3,0.1,0.6,0.2,0.9,0.3
			c0.7,0.2,0.8,0.4,0.7,1.1c0,0.3-0.1,0.5-0.2,0.8c0.2,0.2,0.5,0.3,0.7,0.5c0.1,0.1,0.2,0.3,0.2,0.5c0,0.1-0.3,0.3-0.4,0.3
			c-0.4,0-0.8,0-1.2,0c0,0.4,0.2,0.4,0.5,0.4c0.3,0,0.6,0,0.9,0.1c0.4,0.1,0.7,0.3,0.7,0.8c0,0.1,0.2,0.3,0.4,0.3
			c0.5,0.1,0.9,0.2,0.9,0.8c0,0.2,0.3,0.4,0.5,0.5c0.2,0.1,0.4,0.2,0.7,0.3c-0.2-0.8-0.4-1.5-0.6-2.3c0.9,0.1,1.3,0.8,1,1.6
			c0.2,0.2,0.4,0.1,0.6-0.1c0.8-1,0.8-1,1.8-1.4c0-0.7,0-0.7,0.5-0.7c0.1-0.4,0.1-0.4-0.7-0.4c0-0.1,0-0.3,0-0.4c0-0.1,0-0.2,0-0.4
			c0.4,0,0.7-0.1,0.7-0.6c0-0.2,0.3-0.4,0.5-0.6c0.4-0.2,0.5-0.5,0.3-0.9c-0.3-0.5,0-0.7,0.4-1c0.5-0.3,1-0.4,1.3-0.1
			c0.1,0.1,0.1,0.4,0.1,0.5c-0.5,0.6-0.6,1.4-0.5,2.1c0.1,0.5-0.1,0.9-0.5,1.2c-0.2,0.2-0.4,0.3-0.7,0.5c0.6,0.1,1.1,0.2,1.6,0.3
			c0,0.3,0,0.6,0,0.8c0,0.2,0,0.5,0.4,0.5c0.1,0,0.3,0.2,0.3,0.3c0.1,0.2,0,0.4,0,0.6c0.5,0.1,0.7,0,0.8-0.5c0-0.3,0.1-0.7,0.2-1.1
			c0.3,0.3,0.6,0.5,0.8,0.6c0.3,0.3,0.7,0.4,1.2,0.3c0.1,0,0.4,0.1,0.5,0.2c0.3,0.2,0.5,0.3,0.9,0.2c0.5-0.2,1-0.3,1.4,0.1
			c0.1,0.1,0.3,0,0.5,0c0.2,0,0.3-0.2,0.4-0.3c0.2-0.1,0.4-0.1,0.4,0.3c0,0.2,0,0.4,0,0.6c0,0.1,0.1,0.2,0.2,0.3
			c0.1-0.1,0.3-0.2,0.3-0.3C43.6,97.9,43.5,97.7,43.5,97.6z"/>
		<path d="M155.6,79.6c-0.2,0.3-0.5,0.5-0.6,0.9c-0.6,1.5-1.1,3.1-0.9,4.8c-0.6-0.1-0.8-0.6-0.7-1.2c0.2-1.2,0.5-2.4,0.7-3.7
			c0.1-0.7,0.1-1.5,0.2-2.2c0.1-0.4,0.3-0.5,0.6-0.4c0.1,0,0.2,0.2,0.3,0.3c0.3,0.5,0.4,0.5,0.9,0.3c0.9-0.4,1.6-0.1,2.4,0.4
			c0.2,0.1,0.3,0.2,0.4,0.4c0,0,0.1,0,0.1,0c0.4-0.6,1-0.7,1.7-0.7c0.5,0,1.1,0,1.7-0.1c0.4,0,0.6,0.2,0.7,0.5
			c0.1,0.3,0.1,0.7,0.1,1.1c0.4,0,0.5-0.3,0.5-0.6c0-0.3,0-0.6,0-0.9c0-0.5,0.3-0.8,0.7-0.9c0.4-0.1,0.9,0.1,1,0.6
			c0.2,0.8,0.5,1.5,0.5,2.3c0.1,1.4-0.8,2.1-2.5,1.4c0.4-0.4,0.7-0.7,1.1-1c0,0,0,0,0,0c-1.2,0.4-2.4,0.8-3.7,1.2
			c-0.9,0.3-1.7,0.3-2.4-0.2c-0.5-0.3-1-0.4-1.5,0c-0.1,0.1-0.4,0-0.6-0.1c-0.4-0.3-0.5-0.7-0.6-1.1c0-0.3,0-0.6,0-0.8
			C155.7,79.7,155.7,79.7,155.6,79.6z"/>
		<path d="M100.1,81c-0.3-0.5-0.5-1-0.8-1.5c-0.3-0.6-0.4-1.3-0.4-2c0-0.4-0.1-0.8-0.3-1.1c-0.8-1.1-0.7-2.2,0-3.2
			c0.1-0.2,0.2-0.4,0.2-0.5c0-0.1,0-0.3,0-0.4c-0.9-1-0.8-2.2-0.4-3.4c0.1-0.2,0-0.4,0-0.6c-0.2-0.7-0.5-1.5-0.8-2.2
			c-0.1-0.2,0-0.4,0.2-0.5c0.7-0.2,1.4-0.5,2-0.7c0.3-0.1,0.4,0.1,0.4,0.3c0.4,1.2,0.4,2.4,0,3.6c-0.1,0.4-0.1,0.7,0.1,1.1
			c0.2,0.6,0.4,1.1,0.5,1.7c0,0.3,0,0.7-0.2,1c-0.4,0.8-0.4,1.5-0.3,2.3c0.3,1.4,0.4,2.9,0.1,4.3c-0.1,0.5-0.2,1-0.3,1.4
			C100.3,80.8,100.2,80.9,100.1,81z"/>
		<path d="M142.4,84.3c0-0.3,0-0.6,0-0.9c0-0.3,0.1-0.6,0.2-0.8c0.1-0.3,0.2-0.6,0.1-0.9c-0.1-0.7-0.3-1.4-0.4-2
			c-0.3-1-0.3-2,0.4-2.8c0.2-0.2,0.1-0.6,0.1-0.9c0-0.1,0.1-0.3,0.2-0.4c0.1,0.1,0.4,0.2,0.4,0.3c0.2,0.7,0.3,1.3-0.1,2
			c-0.1,0.3-0.2,0.7-0.1,1c0.4,1.4,0.4,2.9,0,4.3c-0.1,0.3-0.1,0.5,0.2,0.8c0.4,0.3,0.4,0.6,0.3,1.1c-0.2,0.4-0.3,0.9-0.5,1.3
			c-0.2,0.4-0.4,0.4-0.6,0c-0.1-0.2-0.2-0.5-0.3-0.8C142.4,85.1,142.4,84.7,142.4,84.3C142.4,84.3,142.4,84.3,142.4,84.3z"/>
		<path d="M45,83.9c-0.1-0.4-0.2-0.8-0.1-1.2c0.1-1.6,0.2-3.1,0.4-4.7c0-0.6-0.1-1.2-0.3-1.8c-0.1-0.3-0.1-0.6-0.1-0.9
			c0-0.1,0.3-0.2,0.4-0.2c0.2,0.2,0.5,0.5,0.6,0.8c0.2,0.8,0.3,1.6,0.3,2.4c0,0.5-0.2,1-0.4,1.5c-0.3,0.4-0.3,0.8-0.2,1.2
			c0.1,0.4,0.2,0.8,0.3,1.2C46,82.9,45.7,83.4,45,83.9z"/>
		<path d="M44.8,69.6c-0.5-1.3-0.7-2.5-0.4-3.9c0.1-0.3,0.2-0.4,0.5-0.4c0.4,0,0.9,0,1.4,0c-0.2,0.3-0.3,0.6-0.5,0.9
			c-0.2,0.3-0.3,0.6-0.2,0.9C45.9,68.1,45.6,68.9,44.8,69.6z"/>
		<path d="M46.1,98.9c-0.1,0.1-0.3,0.2-0.4,0.2c-0.4,0-0.8-0.4-0.7-0.8c0-0.3,0.1-0.6,0.2-0.9c0.1-0.5,0.1-1.1-0.4-1.5
			c-0.1-0.1-0.2-0.5-0.1-0.6c0.1-0.2,0.4-0.2,0.6-0.3c0.1,0,0.2,0.1,0.3,0.2C45.7,96.4,45.9,97.6,46.1,98.9z"/>
		<path d="M44.9,89.1c0.4,0,0.6,0.3,0.6,0.6c0.1,1.3,0.2,2.5,0,3.8c0,0.1-0.1,0.2-0.2,0.2c-0.1,0-0.2-0.1-0.3-0.1
			c-0.1-0.1-0.1-0.2-0.1-0.3c0.2-0.9-0.1-1.9-0.1-2.8C44.8,90.1,44.8,89.6,44.9,89.1z"/>
		<path d="M100.4,92.6c-0.2-0.2-0.4-0.4-0.4-0.5c-0.1-0.4-0.1-0.8,0.3-1.2c0.2-0.2,0.2-0.6,0.2-0.9c0-0.6-0.1-1.3-0.2-1.9
			c0-0.2,0-0.4,0-0.6c0.4,0,0.6,0.2,0.6,0.5c0.2,1.1,0.3,2.1-0.3,3.1C100.4,91.5,100.5,92,100.4,92.6z"/>
		<path d="M162.5,93.9c-0.1-0.6,0.3-1.1,0.6-1.6c0.1-0.2,0.1-0.4,0.3-0.5c0.1-0.1,0.3-0.2,0.3-0.2c0.2,0.1,0.4,0.3,0.4,0.5
			c0.1,0.3,0.1,0.7,0.1,1c0,0.4-0.2,0.6-0.6,0.6C163.2,93.7,162.9,93.8,162.5,93.9z"/>
		<path d="M117.3,93.5c0,0.3-0.1,0.5-0.4,0.4c-0.4-0.1-0.6-0.3-0.7-0.7c-0.1-0.4-0.4-0.9,0.2-1.2c0.3-0.1,0.4-0.1,0.5,0.2
			C117,92.6,117.1,93.1,117.3,93.5z"/>
		<path d="M45.3,72.4c-0.8-0.7-0.4-1.7-0.9-2.5c0,0,0.1-0.1,0.1-0.1c0.2,0.1,0.4,0.2,0.5,0.3C45.3,70.8,45.6,71.5,45.3,72.4z"/>
		<path d="M61.4,71.2c-0.1-0.2-0.4-0.4-0.4-0.6c-0.1-0.4-0.2-0.8-0.2-1.3c0-0.1,0.2-0.3,0.3-0.4c0.1,0.1,0.3,0.2,0.4,0.3
			c0.1,0.6,0.1,1.2,0.2,1.8C61.5,71.1,61.5,71.2,61.4,71.2z"/>
		<path d="M100.7,84c0.1,0.3,0.2,0.7,0.2,1.1c0,0.2-0.1,0.3-0.2,0.5c-0.1-0.1-0.3-0.2-0.4-0.3c-0.1-0.2-0.2-0.4-0.3-0.6
			c-0.2-0.4,0-0.7,0.2-0.9c0.1-0.1,0.3-0.1,0.4-0.1c0.1,0,0.1,0.2,0.1,0.3C100.7,84,100.7,84,100.7,84z"/>
		<path d="M61.2,67.3C61.1,66.7,61,66,61,65.4c0.3-0.1,0.6-0.1,0.7,0.2C61.9,66.1,61.7,67,61.2,67.3z"/>
		<path d="M100.8,93.6c0.3,0.1,0.7,0.2,0.8,0.4c0.1,0.2,0,0.5-0.1,0.8c0,0.1-0.3,0.1-0.4,0C100.5,94.5,100.7,94.1,100.8,93.6z"/>
		<path d="M132.3,91.6c0.3,0.2,0.5,0.9,0.3,1.3c0,0.1-0.2,0.2-0.2,0.1c-0.1-0.1-0.3-0.2-0.3-0.3C132.2,92.4,132.3,92,132.3,91.6z"/>
		<path d="M116.1,88c0.3,0.1,0.5,0.1,0.7,0.2c0.1,0,0.1,0.3,0,0.5c-0.1,0.3-0.3,0.3-0.5,0.1c-0.1-0.2-0.2-0.4-0.4-0.6
			C116,88.1,116,88,116.1,88z"/>
		<path class="st0" d="M175.3,71c0.5,0,0.6,0.4,0.6,0.8c0.1,0.5,0.1,1,0.2,1.6c0.3,3.4,0.7,6.7,1,10.1c0,0.2,0,0.3,0,0.5
			c-1.3,0-2.5,0-3.8,0C173.9,79.6,174.6,75.3,175.3,71z"/>
		<path class="st0" d="M88.6,84.5c0-0.9,0.1-1.8,0.1-2.7c0.3-3.1,0.6-6.2,0.9-9.4c0-0.1,0.1-0.3,0.1-0.4c0.1-0.1,0.2-0.2,0.3-0.2
			c0.1,0,0.2,0.2,0.2,0.3c0.1,0.5,0.1,0.9,0.2,1.4c0.1,1,0.2,2,0.3,3c0,0.1,0,0.2,0.1,0.3c0.5,0.4,0.3,0.9,0.3,1.4
			c0,0.3,0,0.6,0.1,0.8c0.2,1.4,0.5,2.9,0.7,4.3c0.2,1.1,0.1,1.1-1,1.1c-0.7,0-1.4,0-2.2,0C88.8,84.5,88.7,84.5,88.6,84.5z"/>
	</g>
</g>
</svg>
